<svg width="1080" height="1080" viewBox="0 0 1080 1080" fill="none" xmlns="http://www.w3.org/2000/svg">
<path d="M562.225 169.558C566.291 167.138 570.42 164.174 574.95 162.075C583.628 158.058 592.559 154.58 601.342 150.792C605.6 148.954 609.722 146.788 614.005 145.03C616.097 144.169 618.425 143.872 620.653 143.377C623.958 142.647 627.511 142.505 630.531 141.155C638.639 137.535 645.571 138.958 651.179 144.225C653.234 146.156 655.926 147.425 657.888 149.431C661.026 152.631 661.156 154.295 658.804 158.059C657.492 160.157 655.635 161.914 653.939 163.92C653.716 163.629 653.803 163.864 653.939 163.907C659.145 165.418 662.821 168.828 666.2 172.95C668.348 175.568 671.35 177.487 674.011 179.672C681.024 185.428 682.93 192.843 680.516 201.291C677.923 210.359 678.047 219.432 678.728 228.723C679.328 236.948 679.47 245.316 678.653 253.505C678.004 259.973 673.64 265.122 669.45 270.061C664.789 275.551 658.711 278.38 651.965 280.33C648.369 281.369 644.717 282.706 641.591 284.693C639.512 286.018 638.323 288.735 636.64 290.951C644.197 297.09 645.59 305.824 647.416 314.538C648.468 319.545 648.808 324.986 652.596 329.12C653.048 329.616 653.327 330.365 653.456 331.039C654.973 338.875 663.39 344.854 666.485 351.947C670.254 360.587 671.257 368.955 673.151 378.214C673.677 380.795 673.751 383.488 673.875 386.137C674.209 393.341 677.731 400.447 677.626 407.651C677.521 415.084 679.093 421.261 678.864 428.695C678.715 433.485 677.211 439.384 677.626 444.168C678.177 450.525 672.241 456.368 669.561 461.858C661.88 477.616 651.569 491.647 640.867 505.412C638.342 508.668 635.773 511.892 633.217 515.142C635.879 515.451 636.813 517.216 636.801 519.889C636.757 529.898 637.5 539.813 641.133 549.276C641.851 551.146 642.575 553.126 643.776 554.686C647.979 560.151 647.83 566.489 648.084 572.883C648.425 581.467 649.093 590.046 649.805 598.606C650.362 605.34 650.597 612.173 652.027 618.733C654.261 629.002 655.369 639.363 655.753 649.792C656.105 659.528 655.839 669.288 655.858 679.037C655.87 684.341 655.901 689.645 655.92 694.949C655.938 700.947 656.755 707.093 655.716 712.899C654.88 717.584 656.582 727.109 654.113 731.349C650.591 737.39 642.012 738.021 638.317 743.969C636.411 747.039 633.446 747.893 630.333 747.992C623.692 748.203 617.032 748.246 610.397 747.974C604.257 747.72 598.693 749.546 593.444 752.251C582.285 758.001 571.33 764.45 558.945 766.957C551.412 768.479 543.465 767.885 535.728 768.535C529.818 769.03 523.969 770.243 518.052 770.677C511.014 771.196 503.927 771.58 496.884 771.351C491.431 771.172 485.984 770.107 480.581 769.172C474.856 768.182 469.199 766.783 463.48 765.743C457.687 764.691 451.875 763.558 446.02 763.001C440.028 762.432 433.975 762.377 427.947 762.333C415.122 762.24 402.298 762.308 388.619 762.308C390.458 763.515 391.652 764.301 392.847 765.081C384.869 766.294 372.861 759.369 370.379 751.669C369.742 749.682 370.02 746.723 371.11 744.984C374.625 739.377 372.719 734.877 369.637 729.944C365.756 723.73 362.494 717.132 358.898 710.738C357.679 708.566 356.527 706.257 354.875 704.431C349.304 698.298 348.946 691.248 351.044 683.833C357.778 660.097 365.131 636.571 375.176 613.98C377.992 607.642 379.094 600.933 379.892 594.143C381.155 583.473 382.387 572.796 383.6 562.119C384.262 556.27 384.231 550.261 385.587 544.585C389.375 528.697 393.478 512.87 397.953 497.162C400.169 489.394 403.635 481.992 406.278 474.329C412.294 456.9 418.415 439.502 423.992 421.93C428.838 406.661 432.583 391.039 437.627 375.844C440.35 367.637 441.811 359.504 441.823 350.938C441.842 336.69 445.419 323.339 452.259 310.825C457.885 300.532 463.393 290.183 468.914 279.834C470.028 277.749 470.084 275.96 468.636 273.558C464.235 266.236 460.162 258.691 456.436 250.998C454.71 247.433 453.843 243.385 453.02 239.467C452.289 235.995 454.19 233.284 456.901 231.365C460.856 228.562 464.65 225.027 469.094 223.53C476.638 220.992 481.571 214.549 488.856 211.776C492.353 210.445 495.702 209.418 499.496 209.523C505.964 209.709 512.141 203.6 512.314 197.045C512.339 196.105 512.097 194.774 511.46 194.254C508.396 191.754 506.713 188.553 506.199 185.545C502.77 186.14 499.453 186.796 496.11 187.279C492.236 187.836 488.349 188.554 484.449 188.659C474.992 188.9 471.068 195.021 467.794 185.44C467.602 184.871 466.94 179.641 466.556 179.251C460.367 168.729 462.415 169.552 458.51 165.634C456.653 163.771 452.816 162.799 450.977 160.918C448.743 158.622 449.374 156.344 450.792 153.912C452.655 150.699 453.558 144.448 454.796 140.883C455.025 140.233 454.796 136.65 454.796 135.932C454.809 131.803 454.741 131.389 454.796 127.266C454.84 124.296 455.842 123.658 458.918 121.436C459.24 121.201 459.203 120.241 459.085 119.666C457.179 110.4 457.482 100.374 461.605 92.606C468.407 79.8002 481.689 71.952 495.2 66.5115C502.813 63.4478 510.859 61.2816 518.893 59.5176C523.74 58.4531 535.159 59.2577 539.591 61.6591C542.976 63.4974 546.442 66.1402 550.113 67.2296C553.436 68.2137 555.572 71.0175 557.54 73.4189C560.505 77.0397 560.703 77.9 563.729 81.4651C564.763 82.6906 564.868 84.8383 566.205 85.7977C566.682 86.1381 572.729 87.8216 573.013 88.2734C577.092 94.7042 573.614 100.869 574.703 108.537C575.842 116.546 577.791 124.754 574.251 132.218C571.942 137.083 567.158 142.133 564.249 146.59C561.594 150.656 557.595 153.844 553.808 157.83C556.135 161.073 558.951 164.997 562.213 169.546L562.225 169.558Z" fill="white"/>
<path d="M516.275 1001.97C517.179 1002.38 518.237 1002.6 518.961 1003.23C520.521 1004.57 521.852 1004.57 523.641 1003.51C532.324 998.359 539.12 991.135 545.768 983.714C550.509 978.429 555.825 973.718 562.324 970.741C565.803 969.151 567.443 966.656 568.068 963.209C568.953 958.35 569.844 953.485 570.494 948.59C570.698 947.036 569.943 945.371 569.987 943.768C570.073 940.717 570.03 937.579 570.742 934.645C572.27 928.357 572.37 922.409 569.683 916.287C568.514 913.62 569.145 910.216 568.452 907.27C567.511 903.284 566.273 899.335 564.8 895.51C563.197 891.363 564.354 887.333 564.738 883.267C565.091 879.553 566.31 875.827 566.075 872.176C565.772 867.49 564.41 862.879 563.482 858.237C563.055 856.114 562.578 854.004 562.12 851.887C562.479 851.782 562.832 851.683 563.191 851.578C564.249 854.394 565.308 857.21 566.366 860.026C566.527 860.007 566.694 859.995 566.855 859.976C566.855 858.621 566.824 857.272 566.855 855.916C567.047 848.817 567.158 841.718 567.498 834.625C567.734 829.76 568.148 824.889 568.761 820.055C569.275 816.02 572.444 813.878 576.665 814.169C587.057 814.881 593.952 820.593 597.696 829.859C601.138 838.375 604.282 847.09 606.603 855.966C608.844 864.544 609.673 873.482 611.486 882.184C612.576 887.414 613.603 892.879 615.986 897.564C619.508 904.497 620.232 911.057 617.323 918.237C615.522 922.681 616.364 927.032 618.245 931.433C619.409 934.15 619.817 937.307 620.022 940.302C620.603 948.844 620.572 957.434 621.47 965.939C621.928 970.277 623.729 974.498 625.14 978.695C627.535 985.8 630.116 992.844 632.611 999.918C633.347 1002 633.768 1004.26 634.82 1006.16C636.324 1008.88 635.823 1011.65 635.483 1014.36C635.155 1016.96 632.833 1016.82 630.915 1016.61C628.804 1016.38 626.725 1015.5 624.639 1015.53C621.625 1015.58 618.604 1016.1 615.602 1016.55C608.825 1017.58 602.097 1019.13 595.289 1019.67C585.2 1020.49 575.037 1020.32 564.955 1021.12C558.66 1021.61 552.328 1021.51 546.077 1023.65C542.097 1025.02 537.27 1024.47 532.9 1024.01C527.039 1023.39 521.239 1022.13 515.446 1020.99C512.865 1020.48 511.188 1018.82 510.959 1015.56C500.554 1016.77 490.286 1018.24 479.968 1019.03C474.8 1019.42 469.546 1018.41 464.322 1018.27C455.551 1018.04 446.769 1018.03 437.998 1017.87C430.206 1017.74 422.413 1017.53 414.621 1017.36C413.179 1017.33 411.724 1017.22 410.295 1017.33C407.553 1017.53 405.417 1016.46 403.493 1014.59C400.317 1011.49 400.088 1010.63 403.895 1007C408.506 1002.62 413.959 999.336 420.464 998.922C425.929 998.569 429.476 994.954 433.616 992.305C437.782 989.637 441.576 986.19 446.026 984.203C451.225 981.888 453.843 977.612 456.641 973.329C458.442 970.568 460.101 967.647 461.314 964.589C462.403 961.835 462.774 958.802 463.498 955.906C464.724 951.016 463.499 945.922 465.584 940.958C467.565 936.248 468.19 930.956 469.248 925.887C469.954 922.495 470.455 919.054 470.87 915.613C471.012 914.455 470.604 913.23 469.96 911.967C467.54 915.904 467.608 921.097 462.601 923.3C462.087 916.622 461.908 909.584 460.85 902.689C460.392 899.694 461.066 896.506 458.85 893.442C457.507 891.592 458.665 887.909 458.757 885.056C458.788 884.053 459.048 883.063 459.154 882.066C459.581 877.882 459.55 873.581 460.577 869.545C461.14 867.329 463.065 865.516 463.591 862.91C465.176 855.025 466.921 847.146 469.174 839.428C470.598 834.55 472.436 829.667 477.313 826.733C483.595 822.952 488.962 823.465 494.223 828.076C500.536 833.61 503.68 841.21 506.651 848.761C510.067 857.451 512.952 866.345 516.17 875.116C521.128 888.602 520.441 902.039 516.04 915.489C514.121 921.338 512.227 927.137 507.691 931.686C506.354 933.03 505.79 935.153 504.522 937.597C506.595 938.025 508.254 938.476 509.937 938.687C512.357 938.99 514.821 938.965 517.216 939.368C519.401 939.739 520.763 940.816 519.84 943.49C514.406 959.316 513.818 975.718 514.295 992.219C514.394 995.61 515.062 998.99 515.471 1002.38C515.743 1002.24 516.009 1002.1 516.281 1001.97L516.275 1001.97Z" fill="white"/>
<path d="M567.461 751.693C574.888 750.047 582.316 748.395 589.743 746.748C591.624 746.216 593.5 745.69 595.381 745.158C601.342 743.22 607.302 741.283 613.262 739.346C613.702 739.222 614.135 739.104 614.575 738.981C618.059 737.854 621.538 736.734 625.022 735.607C626.681 734.84 628.346 734.079 630.005 733.311C635.061 731.621 640.081 729.845 645.181 728.298C647.075 727.722 649.142 727.697 651.129 727.425L652.107 728.378C652.577 724.442 653.159 720.512 653.493 716.563C653.84 712.484 654.075 708.393 654.131 704.302C654.298 691.236 654.49 678.176 654.416 665.111C654.372 657.628 653.852 650.144 653.481 642.668C653.388 640.867 653.023 639.078 652.782 637.283C652.583 635.841 652.385 634.393 652.194 632.951C652.181 632.332 652.175 631.713 652.163 631.094C651.958 629.652 651.76 628.203 651.556 626.761C650.931 621.234 650.405 615.701 649.656 610.192C648.548 602.047 647.285 593.926 646.078 585.8C645.868 584.389 645.596 582.99 645.354 581.585C645.15 580.143 644.94 578.694 644.735 577.252C643.541 571.49 642.383 565.721 641.152 559.972C639.815 553.72 638.329 547.494 637.061 541.23C636.2 537.003 635.018 532.726 636.819 528.431C638.267 527.855 639.716 527.273 641.164 526.698C644.754 528.301 645.515 531.952 646.413 535.029C649.643 546.095 652.41 557.304 655.362 568.451C655.542 569.132 655.827 569.782 656.062 570.45C656.062 570.865 656.068 571.273 656.074 571.688C656.483 573.545 656.897 575.402 657.306 577.259C657.721 579.115 658.129 580.972 658.544 582.829C659.707 590.064 660.865 597.306 662.028 604.541C662.307 606.379 662.579 608.218 662.858 610.062C663.514 616.635 664.17 623.208 664.832 629.782C665.21 633.526 665.594 637.265 665.977 641.009C666.163 642.662 666.349 644.308 666.54 645.961C666.893 653.332 667.45 660.704 667.549 668.075C667.661 676.171 667.351 684.279 667.228 692.381V697.951C666.398 703.726 665.575 709.507 664.752 715.282C664.51 716.34 664.3 717.404 664.015 718.45C663.458 720.493 662.858 722.529 662.276 724.566C661.843 726.218 661.409 727.865 660.976 729.517C659.509 730.563 659.807 733.534 657.021 733.144C654.477 732.785 653.704 733.992 654.224 736.325C653.549 737.347 652.874 738.368 652.194 739.395C650.739 740.757 649.285 742.125 647.83 743.486C641.189 748.048 634.572 752.653 627.894 757.159C625.158 759.003 622.28 760.637 619.464 762.37C617.589 763.336 615.713 764.308 613.832 765.273C610.743 766.598 607.63 767.866 604.591 769.29C604.04 769.544 603.78 770.41 603.384 770.992C603.205 772.434 603.025 773.882 602.84 775.325C603.192 779.459 603.545 783.6 603.898 787.734C603.96 789.994 604.028 792.253 604.09 794.512C604.263 800.169 604.405 805.82 604.634 811.47C604.672 812.424 605.068 813.365 605.303 814.312C605.303 815.964 605.303 817.61 605.303 819.263C605.105 820.086 604.907 820.916 604.709 821.739C604.845 823.608 604.987 825.477 605.123 827.346C605.185 830.93 604.962 834.545 605.359 838.091C606.169 845.289 607.383 852.444 608.286 859.63C608.688 862.855 608.757 866.117 608.973 869.36C608.787 869.539 608.602 869.725 608.416 869.904C606.547 868.072 604.672 866.24 602.802 864.408C602.406 863.975 602.01 863.542 601.614 863.108C600.877 862.186 600.147 861.264 599.411 860.342C599.101 860.038 598.785 859.741 598.476 859.438C598.049 859.036 597.622 858.634 597.201 858.231C597.04 858.089 596.873 857.947 596.712 857.804C596.762 858.052 596.811 858.306 596.861 858.553C597.263 859.036 597.665 859.519 598.068 860.001C598.371 860.261 598.674 860.527 598.971 860.787C599.701 861.759 600.432 862.731 601.162 863.703C601.459 863.975 601.763 864.247 602.06 864.519C602.264 864.724 602.468 864.934 602.672 865.138C604.492 867.2 606.312 869.254 608.125 871.315L611.344 875.753C616.592 881.856 621.878 887.928 627.065 894.08C628.197 895.429 628.996 897.057 629.949 898.561C630.605 899.985 631.261 901.402 631.917 902.826C631.385 906.545 630.642 910.154 627.04 912.302C626.613 912.555 625.913 913.131 625.982 913.341C627.188 917.018 622.565 918.355 622.738 921.573C622.348 922.186 621.921 922.78 621.581 923.418C621.073 924.377 620.634 925.367 620.164 926.339V937.158C624.663 933.915 628.197 930.387 634.721 931.681C632.165 934.336 630.11 936.471 628.055 938.606L625.065 943.057C622.169 945.161 623.302 947.841 624.032 950.441C624.329 951.505 624.744 952.532 625.109 953.578C625.548 955.367 625.988 957.162 626.427 958.951C628.247 964.589 630.06 970.228 631.88 975.86C632.431 977.531 632.976 979.196 633.526 980.867L637.494 996.904C637.698 998.761 637.908 1000.62 638.113 1002.47C638.472 1006.7 638.837 1010.92 639.233 1015.56H665.204C665.389 1015.75 665.575 1015.94 665.754 1016.13C664.696 1019.77 662.14 1020.37 658.606 1020.54C650.764 1020.92 642.959 1022 635.136 1022.73C633.006 1022.93 630.859 1022.91 628.724 1022.99C626.867 1022.99 625.01 1022.99 623.153 1022.99C617.465 1023.16 611.777 1023.33 606.095 1023.49C604.152 1023.54 602.202 1023.57 600.252 1023.61C598.6 1023.41 596.953 1023.2 595.301 1022.99C590.145 1023.41 584.983 1023.82 579.827 1024.23C578.385 1024.43 576.937 1024.63 575.495 1024.84C575.08 1024.84 574.672 1024.84 574.257 1024.85C572.4 1025.05 570.543 1025.26 568.687 1025.46L560.64 1026.09C559.607 1026.27 558.579 1026.45 557.546 1026.63C549.803 1027.24 542.072 1028.04 534.323 1028.38C529.694 1028.59 525.033 1028.06 520.391 1027.87C519.784 1027.84 519.165 1027.91 518.559 1027.94C516.919 1027.68 515.272 1027.42 513.632 1027.15C512.153 1025.86 509.139 1025.44 511.521 1021.56C505.902 1021.37 500.907 1020.97 495.93 1021.09C491.319 1021.21 486.721 1021.88 482.116 1022.31L481.392 1022.68C478.922 1022.76 476.459 1022.86 473.989 1022.94C472.132 1022.95 470.276 1022.96 468.419 1022.96C467.8 1022.96 467.181 1022.95 466.562 1022.94C465.528 1022.91 464.495 1022.88 463.461 1022.85C462.019 1022.85 460.577 1022.86 459.141 1022.86C458.93 1022.88 458.726 1022.91 458.516 1022.92C455.013 1022.88 451.516 1022.84 448.012 1022.79C445.246 1020.62 442.275 1021.64 439.329 1022.24C438.295 1022.27 437.261 1022.29 436.228 1022.31C435.609 1022.29 434.984 1022.26 434.365 1022.24C429.822 1022.09 425.285 1021.93 420.742 1021.85C420.538 1021.85 420.321 1022.45 420.111 1022.78C409.236 1022.81 398.361 1022.92 387.487 1022.81C385.029 1022.79 382.572 1022.06 380.133 1021.57C377.881 1021.12 377.466 1019.83 378.667 1017.94C379.905 1017.09 381.142 1016.24 382.374 1015.39C387.233 1015.13 392.098 1014.87 397.198 1014.59C396.826 1006.17 404.08 1004.24 409.422 1000.64C410.239 1000.09 411.192 999.726 412.083 999.275C413.742 998.297 415.401 997.319 417.059 996.341C421.553 994.181 426.021 991.971 430.54 989.873C438.759 986.054 442.919 977.977 449.201 972.128C450.383 971.026 451.33 969.683 452.382 968.445C453.812 967.22 455.242 965.994 456.671 964.775C457.835 963.871 459.116 963.092 460.131 962.046C462.18 959.947 460.502 957.998 459.673 956.036C459.456 954.179 459.24 952.322 459.023 950.465C459.277 947.241 459.333 943.991 459.84 940.804C460.354 937.542 461.759 934.695 465.887 933.339C464.328 931.885 463.096 930.486 461.623 929.415C459.147 927.62 456.51 926.054 453.948 924.371C450.63 922.192 449.931 918.813 449.795 915.192C452.475 906.298 455.155 897.397 457.835 888.503C458.491 887.296 459.153 886.09 459.809 884.883C463.938 879.616 467.961 874.286 471.031 868.357C470.777 868.19 470.529 868.023 470.276 867.862C466.333 873.278 462.39 878.699 458.448 884.115C458.101 883.911 457.445 883.707 457.445 883.496C457.315 877.622 457.445 871.743 457.105 865.881C456.857 861.543 455.935 857.253 455.477 852.921C454.728 845.834 454.115 838.728 453.447 831.635C453.242 829.983 453.044 828.336 452.84 826.684C452.63 823.175 452.419 819.671 452.209 816.162L451.615 811.211C451.608 809.768 451.596 808.32 451.59 806.878C451.385 805.021 451.175 803.164 450.971 801.307V790.161C442.504 788.749 434.099 787.344 425.7 785.939C423.868 785.642 422.029 785.339 420.197 785.042C411.78 782.839 403.362 780.635 394.951 778.432C393.236 777.837 391.522 777.243 389.808 776.649C384.831 774.341 379.83 772.1 374.91 769.68C373.95 769.203 373.331 768.04 372.044 766.635C371.994 766.635 371.085 766.635 370.169 766.635C365.805 766.666 365.533 766.418 364.66 762.036C363.781 757.598 362.785 753.179 361.992 748.723C361.503 745.95 363.063 744.037 365.18 742.502C366.158 741.797 367.154 741.116 368.603 740.101C366.009 736.48 363.484 732.958 360.959 729.43C359.857 727.988 358.755 726.54 357.648 725.098C354.25 719.565 350.418 714.248 347.596 708.436C345.671 704.469 345.145 699.82 344 695.482C344.996 693.421 345.993 691.353 346.996 689.292C349.836 679.216 352.362 669.041 355.599 659.094C359.876 645.954 364.716 633 369.321 619.971C369.933 618.319 370.546 616.672 371.159 615.02C371.994 612.544 372.824 610.068 373.659 607.593C374.272 606.15 374.879 604.702 375.491 603.26C377.057 599.218 378.63 595.177 380.171 591.123C380.332 590.702 380.443 590.182 380.356 589.755C379.416 584.989 378.017 580.273 377.559 575.47C376.934 568.983 376.896 562.435 376.872 555.911C376.859 553.337 377.565 550.756 377.942 548.175L378.846 542.672C382.3 530.089 385.586 517.451 389.269 504.936C391.324 497.942 394.041 491.146 396.449 484.257C398.578 478.16 400.707 472.058 402.818 465.949C404.247 461.82 405.646 457.686 407.057 453.558C407.67 451.88 408.283 450.203 408.895 448.526C409.372 447.504 409.842 446.483 410.319 445.462L411.545 442.367C415.438 434.804 419.331 427.24 423.28 419.566C422.896 419.281 422.611 418.978 422.258 418.823C419.133 417.455 418.532 414.831 419.337 411.984C420.253 408.734 421.646 405.615 422.84 402.44C423.651 400.286 424.474 398.138 425.291 395.99C426.028 394.109 426.764 392.227 427.501 390.346C431.505 381.309 435.751 372.372 439.353 363.174C440.35 360.637 439.44 357.356 439.403 354.416C439.137 351.124 438.877 347.831 438.611 344.538C438.456 339.964 438.673 335.341 438.06 330.829C437.299 325.202 439.663 320.666 442.504 316.42C448.025 308.176 453.954 300.204 459.704 292.108C459.809 291.966 459.76 291.712 459.784 291.508L462.916 287.621C463.925 287.163 464.934 286.711 465.943 286.253C466.797 287.113 467.645 287.973 468.499 288.828C465.404 294.881 462.347 300.953 459.203 306.981C455.78 313.542 452.066 319.972 448.922 326.663C447.994 328.637 448.099 331.398 448.532 333.651C450.005 341.313 450.525 348.896 448.755 356.595C448.031 359.727 447.876 362.995 447.468 366.201C447.257 367.235 447.041 368.262 446.83 369.296C443.853 379.384 440.87 389.467 437.893 399.555C436.859 402.576 435.825 405.596 434.73 408.809C436.605 408.809 437.967 408.809 439.335 408.809C440.245 408.858 441.161 408.939 442.071 408.951C446.861 409.044 447.065 408.846 447.511 403.999C447.944 402.359 448.377 400.719 448.811 399.079C450.698 392.685 452.586 386.298 454.48 379.904L455.953 375.485C458.739 365.817 461.53 356.143 464.315 346.475C464.841 344.594 465.374 342.706 465.9 340.825C468.047 334.245 470.189 327.666 472.337 321.093C472.745 319.651 473.16 318.202 473.568 316.76C476.415 307.594 479.133 298.378 482.172 289.273C483.688 284.724 485.755 280.361 487.674 275.954C487.959 275.298 488.807 274.889 489.865 273.948V280.088C489.766 280.527 489.673 280.967 489.574 281.413C488.126 288.636 486.684 295.852 485.235 303.075C485.025 304.109 484.808 305.137 484.598 306.17C483.279 311.041 481.973 315.918 480.637 320.783C479.027 326.632 477.387 332.481 475.765 338.324C475.208 339.983 474.658 341.648 474.101 343.306C468.672 362.896 463.238 382.485 457.81 402.075C457.587 403.096 457.365 404.117 457.142 405.132C454.542 416.298 451.943 427.457 449.343 438.623C449.139 439.656 448.928 440.684 448.724 441.717C447.245 448.278 445.679 454.814 444.323 461.393C442.9 468.282 441.637 475.208 440.381 482.128C438.759 491.053 437.187 499.984 435.627 508.922C434.346 516.262 433.121 523.609 431.864 530.95C430.645 538.08 429.413 545.204 428.212 552.334C427.965 553.826 427.841 555.336 427.655 556.834C427.457 557.867 427.259 558.895 427.061 559.928C426.442 563.438 425.823 566.941 425.211 570.45C424.994 572.307 424.771 574.164 424.555 576.021C423.979 578.725 423.267 581.405 422.853 584.129C422.104 589.043 421.522 593.988 420.878 598.921C420.674 600.364 420.463 601.812 420.259 603.254C419.603 607.636 418.941 612.018 418.297 616.4C417.282 623.295 416.18 630.178 415.302 637.091C414.522 643.237 413.94 649.402 413.364 655.573C412.491 664.875 411.681 674.19 410.895 683.499C410.61 686.854 410.369 690.221 410.276 693.582C409.824 710.602 409.428 727.629 409.013 744.656C409.007 744.966 408.964 745.269 408.939 745.578C406.915 747.627 409.063 748.023 410.22 748.803C412.139 750.567 414.144 752.238 415.939 754.114C417.381 755.624 419.139 757.177 417.858 759.734H423.874L429.469 759.288C439.985 759.022 450.494 758.762 461.01 758.496C463.69 758.496 466.376 758.496 469.056 758.496C478.606 758.527 488.157 758.737 497.701 758.545C506.335 758.372 514.969 757.846 523.597 757.332C528.53 757.041 533.451 756.466 538.377 756.02C539.411 755.834 540.438 755.648 541.472 755.457C548.497 754.46 555.516 753.47 562.54 752.473L567.467 751.687L567.461 751.693ZM474.101 862.582C473.964 862.824 473.822 863.065 473.686 863.306C473.327 863.851 472.968 864.396 472.603 864.94C472.832 865.083 473.061 865.225 473.284 865.367L474.125 863.932C474.379 863.523 474.627 863.115 474.88 862.712V862.687C477.616 858.664 480.927 854.908 481.546 848.984C479.263 849.684 477.765 850.142 476.261 850.6C476.354 850.928 476.446 851.25 476.533 851.578C477.882 851.373 479.232 851.163 480.624 850.952C478.594 854.617 476.57 858.256 474.552 861.895L474.101 862.582ZM509.238 915.142C508.551 917.272 507.864 919.401 507.177 921.53C507.436 921.598 507.703 921.672 507.963 921.74C508.551 919.648 509.139 917.556 509.727 915.464C509.906 914.66 510.086 913.855 510.259 913.05C511.206 911.07 512.178 909.102 511.546 906.793C511.621 905.753 511.701 904.707 511.775 903.667C511.559 903.661 511.336 903.649 511.119 903.643C511.119 904.596 511.119 905.549 511.119 906.508C510.674 908.545 510.234 910.581 509.788 912.617C509.603 913.459 509.411 914.301 509.225 915.142H509.238ZM539.788 863.765C539.72 863.164 539.646 862.564 539.578 861.963L539.466 860.633C539.287 860.255 539.101 859.878 538.922 859.494C538.798 858.856 538.668 858.219 538.544 857.575C538.458 857.185 538.377 856.789 538.291 856.399C538.136 855.972 537.987 855.545 537.833 855.118C536.861 850.364 536.211 845.518 534.849 840.876C532.089 831.468 528.951 822.166 525.961 812.826C524.655 808.747 523.343 804.675 522.217 801.178C521.214 811.458 520.818 822.265 518.967 832.824C516.795 845.184 517.129 857.488 518.763 869.663C520.775 884.66 524.012 899.49 526.884 914.363C527.515 917.649 527.323 920.478 524.705 922.706C519.673 926.995 514.567 931.191 509.479 935.437C512.766 936.589 516.293 937.827 519.828 939.065C520.688 939.294 521.79 938.322 522.997 938.161C524.754 937.919 527.366 937.56 528.22 938.514C529.842 940.315 529.452 942.797 527.261 944.548C525.268 946.145 523.275 947.754 521.387 949.463C520.7 950.082 519.927 950.973 519.828 951.821C519.11 957.88 518.553 963.964 517.94 970.042C517.618 973.199 517.166 976.349 516.968 979.512C516.516 986.815 516.182 994.125 515.804 1001.43C516.126 1001.58 516.442 1001.73 516.764 1001.88C522.464 997.48 528.159 993.079 533.859 988.678C544.752 980.273 555.658 971.874 566.514 963.419C567.009 963.036 567.294 962.114 567.313 961.433C567.43 957.732 567.294 954.012 567.504 950.317C567.82 944.858 568.352 939.411 568.73 934.664C564.174 932.733 559.563 930.653 554.859 928.821C551.48 927.503 549.524 924.885 549.091 921.66C547.773 911.893 546.968 902.058 545.761 892.273C545.223 887.922 544.201 883.626 543.397 879.306C544.87 877.263 543.626 875.766 542.4 874.262C542.351 873.866 542.301 873.47 542.252 873.073C542.029 872.454 541.806 871.829 541.583 871.21C541.546 870.808 541.509 870.406 541.472 870.003C541.125 868.747 540.779 867.49 540.426 866.234L540.296 865.04C540.129 864.613 539.962 864.192 539.801 863.765H539.788ZM383.983 556.759C383.872 558.226 383.767 559.693 383.655 561.16C383.141 569.386 382.622 577.605 382.096 585.998C382.739 585.763 383.321 585.62 383.847 585.348C386.273 584.098 387.245 584.519 387.301 587.273C387.363 590.349 387.592 593.58 386.818 596.495C383.952 607.314 381.266 618.238 377.484 628.748C370.441 648.344 362.655 667.667 355.252 687.132C354.683 688.624 354.002 690.672 354.571 691.91C358.446 700.303 362.717 708.504 366.709 716.841C370.107 723.934 373.393 731.089 376.507 738.312C376.989 739.432 376.779 741.611 375.993 742.385C373.133 745.195 371.01 747.937 373.034 752.164C373.455 753.049 373.27 754.225 373.709 755.092C374.13 755.927 374.928 757.06 375.683 757.165C382.838 758.168 390.018 758.997 397.204 759.802C397.922 759.882 399.153 759.659 399.382 759.201C401.419 755.036 405.411 751.372 402.948 745.962C400.391 740.355 401.029 734.363 400.992 728.465C400.992 728.155 400.979 727.846 400.992 727.536C402.013 709.451 402.991 691.366 404.08 673.287C404.581 665.011 405.064 656.724 405.98 648.486C407.429 635.426 409.18 622.398 410.901 609.369C411.798 602.61 412.925 595.882 413.915 589.136C414.398 585.856 414.819 582.569 415.308 578.954C414.039 579.159 413.166 579.332 412.281 579.431C407.726 579.945 403.164 580.799 398.603 580.805C396.09 580.805 392.698 580.966 391.503 577.116C392.71 576.695 393.633 576.132 394.586 576.076C399.779 575.773 404.978 575.513 410.177 575.408C415.611 575.296 415.803 575.414 416.719 570.159C418.799 558.257 420.736 546.324 422.611 534.385C423.762 527.044 424.548 519.648 425.78 512.326C427.488 502.144 429.407 492 431.326 481.862C434.049 467.521 436.741 453.168 439.669 438.87C441.414 430.347 443.581 421.917 445.629 413.147C441.229 413.933 437.107 414.459 433.133 415.518C432.087 415.796 430.571 418.006 430.831 418.842C431.84 422.097 430.038 422.574 427.736 422.673C427.6 423.279 427.557 423.694 427.408 424.072C423.843 433.337 420.08 442.528 416.738 451.874C413.426 461.121 410.561 470.535 407.441 479.856C401.654 497.168 395.663 514.412 390.098 531.792C387.487 539.943 383.897 547.921 383.989 556.759H383.983ZM634.387 1009.21C633.248 1006.75 632.029 1004.63 631.261 1002.35C626.675 988.765 621.798 975.26 617.83 961.489C615.664 953.969 613.423 946.176 615.113 938.08C615.33 937.053 615.447 936.013 615.522 935.536C608.757 936.595 602.153 938.093 595.474 938.538C588.684 938.99 581.827 938.408 575.433 938.285C574.864 943.96 574.368 950.044 573.607 956.091C573.248 958.932 572.382 961.711 571.657 964.924H580.719C576.937 968.216 572.054 966.168 568.637 969.423C576.46 970.296 583.683 971.107 590.913 971.911C591.067 972.277 591.222 972.648 591.371 973.013C590.615 973.725 589.879 975.049 589.112 975.062C581.666 975.204 574.115 976.126 566.824 972.889C565.809 974.208 564.756 975.569 563.562 977.123C567.393 977.797 570.803 978.299 574.17 979.029C576.126 979.456 577.37 980.954 576.312 982.823C575.606 984.08 573.96 985.466 572.623 985.59C568.284 985.98 563.89 985.689 559.526 985.912C557.255 986.029 555.033 984.241 552.637 986.463C548.608 990.201 544.239 993.587 539.863 996.935C535.276 1000.44 530.517 1003.74 525.701 1007.22C537.393 1006.65 548.868 1006.14 560.331 1005.53C566.347 1005.21 572.406 1005.07 578.354 1004.2C588.684 1002.68 598.94 1000.69 609.221 998.841C613.349 998.099 615.769 998.823 617.892 1002.14C615.014 1003.3 612.334 1004.88 609.462 1005.44C601.793 1006.95 594.082 1008.35 586.32 1009.2C575.749 1010.34 565.121 1010.92 554.519 1011.74C553.603 1011.81 552.675 1011.81 551.752 1011.83C544.059 1011.99 536.273 1012.93 528.703 1012.03C523.034 1011.36 517.983 1010.82 513.217 1014.36C513.137 1014.42 513.1 1014.53 513.032 1014.62C513.131 1015.89 513.23 1017.17 513.347 1018.71C553.634 1016.62 594.057 1016.43 634.381 1009.21H634.387ZM450.996 982.854C446.768 988.604 440.362 991.637 434.192 995.097C428.844 998.092 423.769 1001.56 418.427 1004.91C424.208 1005.41 429.871 1006.21 435.541 1006.32C443.921 1006.48 452.326 1006.4 460.701 1005.96C469.465 1005.49 478.192 1004.31 486.956 1003.76C492.211 1003.43 497.509 1003.69 502.782 1003.74C504.899 1003.76 507.01 1003.94 509.12 1004.05C509.126 1004.4 509.139 1004.75 509.145 1005.1C508.408 1005.25 507.672 1005.4 506.941 1005.56C504.119 1006.18 501.272 1006.7 498.493 1007.46C497.082 1007.84 495.831 1009.01 494.42 1009.2C489.865 1009.82 485.272 1010.16 480.698 1010.6C472.683 1011.39 464.687 1012.49 456.653 1012.91C443.222 1013.6 430.014 1012.39 417.27 1007.51C412.362 1005.62 407.286 1009.34 406.593 1015.15C439.886 1017.17 473.098 1020.71 505.877 1016.43C505.642 1015.11 504.478 1012.79 505.14 1011.28C506.168 1008.94 508.452 1007.15 509.621 1005.8C508.439 999.256 506.688 993.067 506.378 986.809C506.112 981.4 507.238 975.867 508.179 970.463C509.9 960.56 511.942 950.713 513.886 940.655C513.316 940.494 512.363 940.055 511.392 939.999C509.547 939.894 507.678 940.117 505.833 940.024C501.055 939.789 496.283 939.46 491.487 939.163C491.183 940.791 491.22 942.233 490.626 943.335C489.976 944.53 488.738 945.408 487.761 946.424C486.956 945.6 485.724 944.901 485.44 943.923C485.037 942.543 485.34 940.965 485.34 939.454H472.225C471.866 947.593 473.123 955.8 469.551 963.06C476.112 964.465 482.654 965.864 489.19 967.269C489.141 967.628 489.097 967.994 489.048 968.353C481.627 970.253 474.491 969.287 467.787 965.109C464.433 968.903 461.251 972.506 458.07 976.102C462.273 978.188 467.565 978.41 469.861 984.067C463.343 986.432 457.476 984.024 450.983 982.866L450.996 982.854ZM510.154 891.827C506.743 892.465 505.214 894.581 505.623 898.153C505.734 899.124 506.638 900.009 507.183 900.932C507.474 900.053 507.907 899.199 508.025 898.301C508.322 896.005 507.201 893.275 510.154 891.827ZM471.322 866.791C471.563 866.971 471.804 867.156 472.052 867.336C472.312 866.779 472.566 866.216 472.826 865.659C472.646 865.566 472.467 865.467 472.287 865.374C471.965 865.844 471.643 866.321 471.322 866.791Z" fill="black"/>
<path d="M448.043 161.84C446.843 158.046 445.264 154.32 444.54 150.433C443.649 145.636 443.81 140.691 445.004 135.925C445.388 134.409 446.44 132.521 447.728 131.871C450.562 130.442 452.407 132.769 454.146 134.619C454.66 135.164 454.938 135.932 455.322 136.6C456.071 137.745 456.814 138.89 457.563 140.041C457.847 139.88 458.132 139.719 458.423 139.559V135.944C458.64 134.626 458.93 133.32 459.054 131.989C459.246 129.878 459.815 127.842 456.226 127.662C454.87 127.594 453.23 125.131 452.469 123.429C451.559 121.393 451.447 118.998 450.996 116.757C451.002 114.077 451.014 111.391 451.02 108.711C451.441 101.754 451.831 94.7042 455.483 88.5705C458.219 83.978 461.648 79.8001 464.773 75.4366C466.222 74.1615 467.67 72.8804 469.118 71.6054C473.401 69.0368 477.672 66.4309 481.986 63.9119C483.397 63.0887 484.938 62.4883 486.424 61.7828C488.268 61.0957 490.113 60.4087 491.957 59.7217C492.576 59.5112 493.195 59.3071 493.814 59.0967C495.473 58.5334 497.131 57.9763 498.79 57.413C502.299 56.5898 505.809 55.7605 509.318 54.9373C510.55 54.077 511.775 53.2168 513.007 52.3503C516.337 49.7879 519.914 51.6943 523.38 51.5086C526.76 51.3292 528.177 52.6535 530.133 54.7269C531.26 55.9215 533.531 56.0266 535.289 56.627L536.49 56.8252C537.944 57.3761 539.405 57.9269 540.859 58.4777C542.301 59.1152 543.75 59.759 545.192 60.3965C547.036 61.4673 548.887 62.544 550.731 63.6148C552.39 64.797 554.049 65.9793 555.714 67.1676C558.146 69.3401 560.585 71.5064 563.017 73.6789C563.661 74.4649 564.298 75.257 564.942 76.0431C565.982 77.4667 567.028 78.8901 568.068 80.3137C569.064 81.7496 570.067 83.1859 571.063 84.6218C571.905 84.9374 572.722 85.3459 573.589 85.5502C574.492 85.7606 575.594 85.4942 576.343 85.9089C578.484 87.0911 579.592 91.8386 578.237 93.9058C576.727 96.2083 577.816 98.2134 578.41 100.466C579.097 103.06 579.159 105.449 582.594 106.359C585.169 107.039 585.287 111.192 582.724 112.796C581.034 113.848 581.115 114.987 581.059 116.472C580.917 120.031 581.034 123.652 580.36 127.112C579.852 129.724 578.286 132.131 577.185 134.625C574.783 135.987 575.6 138.24 575.619 140.27C573.811 145.005 572.01 149.74 570.203 154.487C574.944 152.538 580.18 150.384 585.423 148.23C586.883 147.685 588.344 147.147 589.805 146.602C594.886 145.321 599.986 144.095 605.049 142.728C606.417 142.356 607.673 141.576 608.979 140.988C610.62 140.314 612.254 139.633 613.894 138.958C616.512 138.178 619.118 137.337 621.761 136.631C623.859 136.074 626.006 135.69 628.129 135.226C629.986 134.811 631.843 134.397 633.7 133.988C636.59 133.988 639.474 133.988 642.365 133.988C644.414 134.26 646.462 134.533 648.511 134.805C654.001 136.575 658.847 139.429 662.313 144.071C663.749 145.995 664.374 148.527 665.371 150.786L664.071 156.357C663.378 158.944 662.678 161.524 661.917 164.347C662.363 164.514 663.18 164.811 663.997 165.108C665.389 165.727 666.782 166.34 668.181 166.959C671.876 170.536 675.979 173.792 679.161 177.778C683.332 183.008 684.942 189.222 683.239 195.981C683.147 196.358 683.258 196.798 683.277 197.206C682.429 198.463 681.581 199.726 680.739 200.982C679.922 199.979 678.839 199.1 678.344 197.961C676.357 193.406 675.193 188.368 672.563 184.258C666.206 174.318 657.962 170.047 645.46 172.288C637.017 173.798 629.54 177.611 621.94 181.213C620.882 181.733 619.823 182.253 618.765 182.779C611.969 186.115 605.173 189.445 598.383 192.781C597.603 193.115 596.824 193.449 596.044 193.79C595.586 194.075 595.128 194.353 594.67 194.638C593.382 195.3 592.101 195.956 590.814 196.618C585.918 198.945 581.028 201.285 576.133 203.606C574.95 204.169 573.743 204.683 572.549 205.221C572.97 203.81 573.39 202.405 573.818 200.994C580.087 196.884 586.264 192.632 592.652 188.714C596.898 186.109 601.441 183.986 605.848 181.646C607.556 180.631 609.27 179.616 610.979 178.607C616.363 176.131 621.674 173.47 627.151 171.229C633.762 168.525 640.539 166.222 647.205 163.629C648.492 163.128 649.545 162.051 650.77 161.345C652.831 160.163 654.942 159.074 656.935 157.997C659.082 153.689 655.759 151.188 653.729 148.248C652.014 146.596 650.3 144.943 648.585 143.291C642.742 138.735 636.318 139.441 629.819 141.31C627.145 142.078 624.564 143.148 621.94 144.077C620.677 144.603 619.421 145.129 618.158 145.655C612.959 148.205 607.568 150.427 602.598 153.367C592.906 159.098 583.399 165.17 573.91 171.236C570.376 173.495 567.09 176.15 563.692 178.626C562.262 179.641 560.832 180.656 559.403 181.677C556.927 183.534 554.451 185.391 551.975 187.247C550.533 188.281 549.085 189.309 547.643 190.342C542.072 194.05 536.502 197.763 530.925 201.471C528.66 202.715 526.389 203.953 524.123 205.197C518.868 208.316 513.217 210.934 508.464 214.685C502.089 219.723 499.514 227.33 498.27 235.054C497.088 242.358 496.84 249.81 496.265 257.206C496.092 259.465 496.19 261.749 496.166 264.02C496.036 265.066 495.912 266.113 495.782 267.159C495.528 269.269 496.159 271.751 493.213 272.661C488.621 274.084 488.045 273.998 486.597 269.213C485.563 265.797 484.709 262.182 484.654 258.642C484.524 250.961 485.167 243.274 485.081 235.593C485.025 230.858 484.195 226.129 483.657 220.856C473.754 225.288 462.514 226.154 453.013 234.986C454.072 235.444 455.006 235.853 455.941 236.255C457.21 238.124 458.479 239.993 459.748 241.863C460.137 242.463 460.534 243.063 460.923 243.67C461.976 245.539 463.028 247.414 464.08 249.284C465.912 253.604 467.744 257.924 469.576 262.244C470.207 263.891 470.833 265.537 471.464 267.183C471.91 268.508 472.194 269.919 472.838 271.132C474.46 274.184 474.85 277.278 473.426 281.413C472.046 280.305 470.659 279.556 469.793 278.411C468.122 276.22 466.748 273.806 465.244 271.485C464.049 270.018 462.854 268.551 461.66 267.084C459.029 263.352 456.455 259.583 453.762 255.9C449.609 250.206 444.924 244.852 442.572 238.038C443.278 236.28 444.076 234.553 444.664 232.758C444.942 231.898 444.837 230.914 444.905 229.985C446.781 227.547 448.65 225.108 450.525 222.669C453.199 221.165 455.867 219.661 458.54 218.151C465.999 214.134 473.451 210.111 480.915 206.113C487.86 202.393 494.823 198.704 501.928 194.923C501.532 194.081 501.117 193.208 500.857 192.657C494.228 193.821 487.835 194.947 481.441 196.074C479.584 196.278 477.728 196.482 475.871 196.686C470.443 195.739 467.893 191.772 465.993 187.18C465.429 185.824 465.083 184.376 464.643 182.971C464.792 180.699 464.414 178.65 462.285 177.332C461.753 176.521 461.084 175.766 460.719 174.881C460.391 174.083 460.125 173.086 460.329 172.3C460.527 171.514 461.338 170.883 461.877 170.184C462.137 170.32 462.397 170.456 462.65 170.598C462.78 171.551 462.916 172.505 463.059 173.532C465.603 173.359 468.072 173.185 471.39 172.956C470.61 174.597 470.14 175.587 469.669 176.577C466.834 177.784 467.688 179.523 468.982 181.331C469.013 181.535 469.001 181.758 469.087 181.931C473.067 189.321 473.073 189.371 481.769 187.928C489.097 186.715 496.407 185.36 503.729 184.072C504.88 183.936 506.032 183.8 506.477 183.745C507.808 185.608 508.86 187.081 509.912 188.554C511.119 191.407 512.32 194.26 513.632 197.361C517.284 195.275 521.028 193.134 524.773 190.998C526.642 189.977 528.511 188.956 530.387 187.935C537.802 184.011 545.216 180.087 552.631 176.163C555.144 174.535 557.651 172.913 560.121 171.316C559.279 170.085 558.74 169.348 558.258 168.574C556.355 165.537 553.653 164.595 550.149 165.746C546.578 165.919 542.988 166.402 539.436 166.198C532.064 165.764 525.07 163.815 519.017 159.402C511.249 153.738 509.683 146.014 514.14 136.303C514.802 134.855 515.495 133.425 516.226 131.877C509.058 132.892 502.027 133.982 494.965 134.861C490.701 135.393 486.393 135.591 482.116 135.994C481.132 136.086 480.104 136.266 479.219 136.668C476.917 137.727 476.168 139.243 476.867 142.003C477.468 144.362 476.886 147.017 476.83 149.536C476.743 149.951 476.657 150.359 476.57 150.774C476.026 153.256 475.568 155.756 474.924 158.213C474.187 161.017 472.182 162.83 469.415 163.109C465.677 163.486 462.675 161.766 461.771 158.43C460.397 153.38 459.618 148.168 458.534 142.758C458.002 142.925 457.105 143.204 456.306 143.452C455.632 149.096 457.265 155.032 453.292 160.089C454.926 161.283 456.869 162.701 458.813 164.118C458.714 164.545 458.609 164.972 458.51 165.399C456.665 165.306 454.821 165.207 452.976 165.114C451.336 164.019 449.702 162.917 448.062 161.822L448.043 161.84ZM512.444 62.3277C476.001 68.5789 457.21 88.6447 461.239 124.549C464.204 124.289 467.689 122.959 469.979 124.073C472.43 125.261 473.754 128.764 475.852 131.642C482.463 131.06 489.846 130.275 497.249 129.804C503.574 129.402 509.925 129.377 516.263 129.129C517.123 129.098 518.231 128.999 518.782 128.467C522.198 125.181 525.485 121.77 528.728 118.477C522.718 100.305 521.505 80.314 512.438 62.3277H512.444ZM557.162 154.599C555.819 154.599 554.624 154.617 553.436 154.599C548.361 154.518 543.688 153.491 539.38 150.427C535.109 147.388 533.265 143.513 534.169 138.581C535.054 133.778 538.247 130.584 543.094 129.823C545.681 129.414 548.435 130.126 551.115 130.268C556.642 130.565 561.519 134.347 562.844 139.627C563.258 141.267 563.19 143.031 563.407 145.364C564.478 137.058 563.63 133.004 559.675 128.139C558.716 126.957 557.267 125.471 555.961 125.391C550.849 125.075 545.712 125.261 540.085 125.261C539.652 124.605 538.712 123.2 537.727 121.714C530.337 125.422 525.584 131.147 523.461 139.026C522.087 144.133 522.359 149.041 526.376 152.896C532.652 158.919 549.413 162.236 557.168 154.599H557.162ZM564.973 88.1683C563.488 85.872 562.262 83.9779 561.334 82.5543C559.662 82.6286 558.499 82.6781 557.267 82.7338C557.552 81.2051 560.882 80.3077 558.586 78.8347C554.779 79.9921 551.468 80.9945 548.163 82.0034C548.045 81.6754 547.921 81.3414 547.804 81.0133C550.676 79.5341 553.554 78.0546 556.704 76.433C550.224 69.3214 543.242 63.9305 534.905 61.6528C537.901 70.6212 540.884 79.6638 544.003 88.657C544.3 89.5173 545.569 90.7367 546.263 90.6625C552.334 90.0064 558.381 89.0904 564.967 88.1743L564.973 88.1683ZM547.104 107.306C551.629 107.652 555.188 109.057 556.958 113.421C557.23 114.095 558.103 114.659 558.833 114.993C563.339 117.079 567.399 119.709 570.475 123.708C571.441 124.958 572.58 126.078 574.109 127.774V119.214C571.738 120.192 569.405 120.359 568.346 117.759C567.616 115.971 566.211 113.526 569.039 112.133C571.435 110.951 571.329 109.472 570.642 107.225C569.894 104.799 568.024 102.236 570.153 99.9526C562.646 101.246 554.952 102.565 547.11 103.914V107.299L547.104 107.306ZM558.493 97.4523C560.597 97.2728 562.522 97.1861 564.428 96.9386C566.941 96.6043 569.429 96.1338 571.936 95.7315C573.688 95.453 574.214 94.4255 573.978 92.7296C573.496 89.2698 572.617 88.7004 569.324 90.0311C567.672 90.6996 565.307 91.0833 564.608 92.3398C562.943 95.3478 561.798 95.9914 559.062 94.0727C558.573 93.7322 557.787 93.8068 557.193 93.7015C557.719 95.2303 558.097 96.3135 558.487 97.4523H558.493ZM543.459 113.278C543.997 115.098 544.499 116.794 545.019 118.564H553.052C552.891 117.599 552.978 116.577 552.545 115.872C551.703 114.485 551.641 112.14 549.004 112.579C547.21 112.882 545.39 113.043 543.459 113.278ZM550.292 134.137C552.483 137.163 549.289 142.523 555.417 142.653C556.661 137.59 555.454 135.344 550.292 134.137ZM553.486 97.9721C552.025 93.9429 551.387 93.6891 545.285 94.8651C545.662 96.3815 546.034 97.8856 546.349 99.1544C548.986 98.715 551.245 98.3435 553.486 97.9721ZM547.995 143.681C547.445 140.45 546.999 137.826 546.547 135.208C546.102 135.152 545.656 135.102 545.21 135.046C544.208 137.367 543.199 139.695 542.085 142.269C544.338 142.808 545.798 143.155 547.995 143.681Z" fill="black"/>
<path d="M674.432 399.611C674.444 397.34 674.451 395.074 674.463 392.803C674.29 390.531 674.11 388.266 673.937 385.995C672.854 380.084 672.179 374.049 670.551 368.293C669.19 363.496 666.701 359.021 664.708 354.398C663.681 352.696 662.647 351 661.62 349.298C658.705 344.569 655.734 339.871 652.881 335.112C648.133 327.208 643.652 319.131 638.688 311.369C635.321 306.102 631.304 301.25 627.585 296.218C626.539 294.516 625.493 292.82 624.447 291.118C623.431 289.31 622.41 287.503 621.395 285.696C620.733 284.056 620.077 282.416 619.415 280.775C616.475 271.757 613.405 262.776 610.712 253.678C610.186 251.902 610.762 249.562 611.467 247.724C612.272 245.626 614.104 245.768 615.416 247.39C618.27 250.924 621.234 254.415 623.654 258.24C628.203 265.419 632.406 272.822 636.782 280.181C639.852 279.482 642.656 278.838 645.459 278.194C647.545 277.619 649.631 277.043 651.717 276.468C652.522 276.424 653.32 276.381 654.125 276.338C654.57 276.251 655.016 276.164 655.455 276.077C656.458 275.96 657.454 275.836 658.457 275.719C659.912 275.366 661.36 275.007 662.814 274.654C670.712 264.825 677.118 254.328 676.481 241.107C676.245 236.156 675.168 231.242 674.481 226.309C674.265 222.8 674.042 219.296 673.825 215.787C674.067 214.834 674.184 213.831 674.574 212.946C675.181 211.584 675.973 210.309 676.685 208.997C678.238 210.185 680.683 211.089 681.172 212.624C682.67 217.278 683.338 222.193 684.477 226.965C685.17 229.874 686.142 232.721 686.99 235.593C687.207 237.035 687.423 238.483 687.646 239.925C687.566 245.892 687.479 251.858 687.399 257.819L685.437 263.352C684.657 265.017 683.883 266.688 683.103 268.353C682.472 269.381 681.841 270.402 681.203 271.429C677.694 275.49 674.129 279.482 668.886 281.388C667.586 281.858 666.213 282.118 664.938 282.651C663.304 283.331 661.601 283.981 660.178 284.996C656.811 287.385 653.623 290.028 650.3 292.486C648.653 293.705 648.003 294.559 649.65 296.595C652.033 299.542 653.828 302.964 655.876 306.189C656.446 307.037 657.009 307.891 657.578 308.739L658.525 311.103C659.15 312.545 659.782 313.994 660.407 315.436C661.985 318.543 663.563 321.656 665.142 324.763L668.274 331.101C669.518 333.781 670.786 336.449 671.987 339.147C673.516 342.576 674.983 346.03 676.474 349.477C677.291 351.953 678.108 354.429 678.932 356.905C679.303 358.149 679.674 359.399 680.046 360.643C680.51 362.494 680.98 364.338 681.445 366.189C681.587 367.018 681.729 367.853 681.872 368.683C682.063 369.314 682.249 369.939 682.441 370.571L683.178 376.717C683.351 378.171 683.524 379.632 683.697 381.086C683.716 381.489 683.741 381.891 683.759 382.287C683.79 382.696 683.827 383.11 683.858 383.519C683.673 388.26 683.481 393.007 683.295 397.748C683.4 399.196 683.506 400.645 683.605 402.087L682.701 408.889L682.07 415.078C682.07 416.935 682.057 418.792 682.051 420.649C681.853 422.301 681.655 423.948 681.463 425.6C681.426 428.07 681.185 430.558 681.445 432.997C681.587 434.303 683.048 435.491 683.128 436.778C683.425 441.222 683.852 445.747 683.345 450.141C682.664 456.027 681.16 461.82 680.015 467.651C679.39 469.297 678.758 470.944 678.133 472.59C672.971 481.162 668.212 490.019 662.517 498.22C657.888 504.892 652.193 510.828 646.852 516.993C644.896 519.252 642.612 521.22 640.477 523.324C639.227 524.531 637.983 525.738 636.733 526.939C633.854 529.235 630.976 531.538 628.092 533.834C626.656 534.911 625.227 535.994 623.791 537.071C611.517 545.748 598.556 553.201 584.76 559.192C583.12 559.854 581.48 560.522 579.846 561.185C577.37 562.026 574.895 562.862 572.419 563.704C571.979 563.821 571.546 563.939 571.107 564.05C567.925 565.177 564.769 566.384 561.55 567.405C559.991 567.9 558.326 568.036 556.135 568.439C557.979 562.93 562.528 561.649 566.007 559.192C567.882 557.867 569.863 556.704 571.8 555.466C573.459 554.494 575.117 553.516 576.776 552.544C578.008 551.87 579.233 551.189 580.465 550.514C582.173 549.499 583.888 548.484 585.596 547.475C592.243 543.582 598.946 539.782 605.513 535.759C608.459 533.951 611.121 531.699 613.912 529.644C614.958 528.802 616.004 527.966 617.05 527.125C622.615 521.833 628.488 516.819 633.663 511.168C639.177 505.14 644.185 498.622 649.124 492.099C651.698 488.695 653.654 484.82 655.895 481.162C656.718 479.764 657.541 478.365 658.364 476.966C661.28 471.086 664.213 465.225 667.079 459.32C667.673 458.101 667.976 456.739 668.416 455.439C669.289 453.564 670.167 451.682 671.04 449.807C672.816 445.778 674.896 441.854 676.239 437.682C676.933 435.522 676.326 432.935 676.301 430.539C676.103 428.683 675.905 426.826 675.707 424.969C675.49 419.194 675.274 413.413 675.063 407.639L674.444 399.593L674.432 399.611Z" fill="black"/>
<path d="M587.267 403.839C591.637 403.591 596.013 403.263 600.389 403.114C602.691 403.034 605.049 403.009 607.296 403.424C609.246 403.783 608.732 405.503 607.828 406.401C606.578 407.645 605.074 408.852 603.446 409.452C597.901 411.489 592.256 413.253 586.648 415.122C584.587 415.759 582.52 416.39 580.459 417.028C577.779 417.839 575.093 418.65 572.413 419.461C570.141 420.086 567.876 420.717 565.604 421.342C564.367 421.354 563.129 421.367 561.891 421.373C559.31 420.791 559.619 422.871 559.211 424.282C558.957 425.099 558.697 425.91 558.289 427.228C557.824 426.213 557.54 425.594 557.162 424.777C555.194 426.919 553.269 429.011 551.344 431.096C550.112 432.378 548.887 433.653 547.655 434.934C544.542 438.375 541.429 441.817 538.315 445.258C537.245 446.31 536.174 447.368 535.103 448.421C533.772 450.117 532.615 451.992 531.074 453.465C529.267 455.186 527.113 456.541 525.132 458.082C521.876 460.614 521.604 464.389 521.845 467.892C522.316 474.719 523.387 481.503 524.216 488.305C524.408 489.889 524.643 491.474 524.86 493.058C524.959 494.94 525.064 496.821 525.163 498.703C525.268 499.712 525.38 500.715 525.485 501.724C525.689 503.58 525.887 505.437 526.091 507.294C527.051 512.734 528.016 518.175 528.976 523.621C529.254 525.194 529.539 526.766 529.817 528.338C532.256 535.505 534.738 542.66 537.102 549.852C537.919 552.328 538.445 554.903 539.101 557.428C538.241 558.882 537.381 560.331 536.527 561.785C535.239 561.179 533.68 560.844 532.702 559.91C527.224 554.655 523.418 548.243 520.391 541.336C519.766 539.479 519.141 537.622 518.516 535.765C517.897 533.704 517.272 531.637 516.653 529.576C516.021 524.624 515.39 519.673 514.752 514.721C514.752 512.041 514.752 509.355 514.759 506.675C514.759 501.928 514.759 497.187 514.752 492.439C515.297 485.043 515.86 477.653 516.368 470.257C516.411 469.619 516.126 468.957 515.99 468.301C515.99 466.859 515.99 465.411 515.99 463.968C516.009 461.288 516.021 458.602 516.04 455.922C516.931 454.288 517.822 452.66 518.72 451.026C519.809 450.624 520.998 449.708 521.976 449.9C526.977 450.872 529.576 447.907 532.262 444.466C537.331 437.973 542.673 431.691 547.866 425.297C549.574 423.193 551.517 421.187 552.724 418.811C553.628 417.028 553.492 414.732 553.857 412.671C555.107 405.578 556.407 398.497 557.595 391.398C557.818 390.073 557.465 388.668 557.589 387.319C558.369 378.443 559.217 369.574 560.022 360.699C560.251 358.198 560.411 355.691 560.603 353.185C560.801 352.151 560.999 351.124 561.198 350.09C563.098 343.313 564.998 336.535 566.898 329.758C567.74 327.882 568.581 326.007 569.429 324.132C574.975 314.86 580.515 305.582 586.066 296.317C586.617 295.401 587.224 294.522 587.799 293.624C588.889 292.238 589.978 290.852 591.067 289.459C593.104 287.07 595.14 284.687 597.331 282.118C599.968 285.467 599.083 288.345 597.634 291.037C593.358 298.978 588.815 306.777 584.606 314.755C579.642 324.157 574.616 333.546 571.744 343.882C571.181 345.745 570.624 347.614 570.061 349.477C568.581 359.3 567.121 369.122 565.611 378.945C565.32 380.826 564.478 382.689 564.54 384.534C564.633 387.3 565.301 390.049 565.728 392.803V397.012C568.322 395.347 570.704 393.818 573.087 392.283L574.319 391.646C576.194 390.6 578.07 389.553 579.951 388.501C582.421 387.102 584.884 385.697 587.354 384.299C588.375 383.655 589.396 383.011 590.424 382.374C595.171 379.131 599.869 375.813 604.69 372.688C606.392 371.586 608.41 370.955 610.279 370.107L611.177 371.604C597.919 385.834 581.715 396.43 565.419 406.915L565.877 407.849C571.156 406.754 576.442 405.658 581.721 404.563C583.578 404.321 585.435 404.08 587.292 403.839H587.267Z" fill="black"/>
<path d="M630.5 434.272C631.168 426.628 632.146 418.99 632.443 411.334C633.056 395.557 633.279 379.774 633.724 363.991C633.786 361.757 634.071 359.498 634.554 357.319C634.721 356.552 635.971 355.345 636.423 355.469C637.277 355.698 638.441 356.663 638.558 357.462C639.728 365.465 640.706 373.498 641.752 381.513C641.95 383.011 642.223 384.503 642.464 385.995C642.464 388.47 642.464 390.946 642.464 393.422V415.085C642.464 416.942 642.458 418.798 642.452 420.655C642.037 426.43 641.628 432.211 641.214 437.985C641.009 439.842 640.805 441.699 640.601 443.556C640.192 445.617 639.778 447.684 639.369 449.745C639.035 451.156 638.694 452.568 638.36 453.979C637.822 455.39 637.283 456.795 636.751 458.206C635.724 459.685 634.69 461.171 633.663 462.65C628.371 469.322 623.271 476.155 617.694 482.567C615.819 484.721 612.588 485.625 610.217 487.42C601.057 494.352 592.002 501.414 582.904 508.427C580.632 510.073 578.367 511.719 576.095 513.366C568.39 518.472 560.789 523.758 552.922 528.604C549.172 530.912 545.037 532.881 540.284 531.952C539.832 530.752 539.374 529.551 538.922 528.344C540.698 527.094 542.45 525.8 544.257 524.599C554.631 517.729 565.177 511.1 575.365 503.964C586.995 495.819 598.389 487.333 609.685 478.736C611.783 477.139 613.163 474.416 614.476 471.996C617.558 466.32 620.405 460.508 623.345 454.752C624.354 453.094 625.363 451.435 626.378 449.776C629.305 446.137 629.528 441.724 629.912 437.36C630.11 436.327 630.314 435.299 630.512 434.265L630.5 434.272Z" fill="black"/>
<path d="M428.807 659.565C428.776 658.327 428.745 657.089 428.714 655.851C428.925 653.994 429.135 652.138 429.346 650.281C429.791 648.659 430.231 647.031 430.676 645.41C431.122 646.827 431.574 648.244 432.019 649.668C431.964 662.505 431.92 675.348 431.834 688.184C431.828 689.379 431.555 690.567 431.4 691.756V694.85C431.196 700.006 430.986 705.168 430.782 710.324C430.782 712.799 430.782 715.275 430.782 717.751V736.783C434.068 737.278 436.705 737.675 439.341 738.071C441.198 738.287 443.055 738.504 444.912 738.714C447.128 738.956 449.35 739.469 451.553 739.389C460.07 739.073 468.586 738.566 477.097 738.133C478.953 737.91 480.81 737.693 482.667 737.47L501.309 734.035C503.148 733.583 504.992 733.125 506.83 732.667C507.028 732.624 507.227 732.574 507.425 732.519C508.669 732.154 509.919 731.795 511.163 731.43C516.207 730.247 521.264 729.133 526.284 727.864C529.124 727.146 531.903 726.181 534.713 725.327C536.347 724.832 537.975 724.343 539.609 723.848C543.249 723.204 546.869 722.48 550.527 721.948C552.718 721.632 554.971 721.384 557.168 721.52C559.818 721.681 560.449 724.33 558.734 727.474C558.072 727.92 557.41 728.366 556.748 728.811C547.977 731.789 539.219 734.778 530.443 737.73C527.33 738.776 524.179 739.73 521.047 740.726C519.16 741.234 517.272 741.741 515.384 742.249C513.973 742.577 512.556 742.898 511.144 743.227L505.5 744.786C504.905 744.885 504.311 744.978 503.717 745.077C501.86 745.485 500.004 745.9 498.147 746.309C488.058 747.714 477.969 749.069 467.887 750.536C459.568 751.743 451.312 751.409 443.074 749.874C442.479 749.762 441.848 749.843 441.229 749.837L436.284 748.599C434.786 747.899 433.294 747.194 431.797 746.494C430.726 745.616 429.655 744.73 428.578 743.852C427.606 740.305 426.628 736.759 425.657 733.212C425.446 731.77 425.236 730.322 425.025 728.879C425.063 723.569 424.976 718.252 425.18 712.948C425.366 708.145 425.88 703.348 426.245 698.552C426.245 697.518 426.257 696.49 426.263 695.457C426.672 690.301 427.08 685.139 427.483 679.983C427.483 678.541 427.483 677.093 427.483 675.651C427.483 675.032 427.495 674.413 427.501 673.794C427.699 672.352 427.903 670.904 428.101 669.461C428.151 667.809 428.201 666.163 428.25 664.51C428.436 662.857 428.628 661.211 428.813 659.558L428.807 659.565Z" fill="black"/>
<path d="M530.944 264.169C524.402 266.856 517.903 269.647 511.305 272.178C507.926 273.472 504.113 272.927 502.25 271.17C506.125 269.183 509.98 267.413 513.638 265.29C525.955 258.135 538.291 251.011 550.434 243.577C559.626 237.957 568.724 232.251 579.227 229.329C580.261 229.119 581.288 228.908 582.322 228.698C587.527 228.11 592.739 227.547 597.938 226.922C604.548 226.129 611.146 225.275 617.756 224.471C619.972 224.198 622.194 223.994 624.41 223.759C626.267 223.548 628.123 223.338 629.98 223.128C637.407 221.896 644.835 220.67 652.262 219.439C653.716 219.074 655.165 218.702 656.619 218.337C660.45 217.099 664.306 215.936 668.1 214.599C670.192 213.862 672.031 213.478 673.349 215.793C672.495 216.585 671.647 217.371 670.793 218.164C667.191 220.039 663.613 221.97 659.968 223.759C658.296 224.582 656.489 225.127 654.744 225.801C653.289 226.352 651.829 226.897 650.374 227.448C646.859 228.463 643.349 229.478 639.834 230.499C637.983 230.926 636.126 231.347 634.276 231.774C631.992 232.139 629.708 232.504 627.424 232.876C626.006 233.173 624.595 233.464 623.178 233.761C620.702 234.207 618.226 234.652 615.751 235.092C613.894 235.092 612.037 235.092 610.18 235.092C609.766 235.092 609.357 235.092 608.942 235.092C607.5 235.506 606.052 235.915 604.61 236.33C603.991 236.33 603.372 236.33 602.753 236.33C601.311 236.534 599.863 236.744 598.42 236.949C595.945 236.949 593.469 236.948 590.993 236.942C587.868 237.45 584.742 237.951 581.622 238.459C575.402 241.176 569.157 243.837 562.98 246.653C561.08 247.52 559.372 248.813 557.571 249.915C556.531 250.484 555.491 251.06 554.451 251.63C553.808 252.05 553.164 252.471 552.52 252.892C551.097 253.703 549.673 254.508 548.256 255.318C544.14 257.448 540.024 259.577 535.914 261.706C534.261 262.529 532.615 263.359 530.962 264.182L530.944 264.169Z" fill="black"/>
<path d="M603.273 704.128C602.994 692.579 602.895 681.017 602.369 669.474C602.035 662.164 601.261 654.861 600.321 647.601C599.38 640.378 597.962 633.223 596.799 626.025C595.703 619.266 594.645 612.501 593.605 605.736C592.683 599.751 591.816 593.753 590.925 587.762C590.721 586.109 590.517 584.463 590.306 582.81C590.133 580.409 589.743 578.001 589.879 575.618C589.941 574.492 591.018 573.428 591.631 572.332C592.429 573.124 593.679 573.78 593.945 574.721C595.561 580.36 596.947 586.06 598.408 591.748C599.07 594.335 599.714 596.928 600.364 599.522C600.568 600.555 600.779 601.583 600.983 602.616C602.821 611.282 604.659 619.947 606.498 628.612C606.727 630.054 606.949 631.502 607.178 632.944L609.01 642.228C609.227 644.085 609.438 645.942 609.654 647.799C610.273 657.287 610.892 666.782 611.511 676.27C611.511 678.127 611.511 679.984 611.511 681.84C610.44 691.991 609.407 702.141 608.262 712.286C607.989 714.706 607.154 716.903 603.979 716.6C603.576 715.121 603.168 713.648 602.765 712.168C602.784 710.924 602.796 709.674 602.815 708.43C602.97 706.994 603.118 705.558 603.273 704.122V704.128Z" fill="black"/>
<path d="M459.797 402.774C460.249 402.576 460.892 402.075 461.128 402.217C465.423 404.959 469.626 402.254 473.741 401.796C484.728 400.564 495.646 399.611 506.712 400.768C512.803 401.406 518.583 402.823 524.036 405.534C525.039 406.029 526.097 406.939 526.524 407.923C526.902 408.79 526.704 410.183 526.221 411.037C525.967 411.489 524.519 411.488 523.677 411.34C518.144 410.374 512.66 408.74 507.09 408.412C498.579 407.911 490.007 408.134 481.472 408.326C474.36 408.487 467.261 409.031 460.156 409.421C457.928 409.545 457.061 408.703 457.952 406.506C458.571 405.262 459.184 404.018 459.803 402.774H459.797Z" fill="black"/>
<path d="M530.69 315.349C526.494 319.973 522.483 324.775 518.008 329.114C516.374 330.699 513.719 331.454 511.392 332.03C509.912 332.395 509.232 331.169 509.72 329.51C510.705 326.187 511.565 322.826 512.425 319.675C510.117 319.378 507.925 319.094 505.165 318.741C508.823 312.923 511.955 307.482 515.619 302.426C516.547 301.145 519.19 301.095 521.041 300.482C522.693 300.278 524.34 300.068 525.992 299.863C527.88 299.863 529.762 299.863 532.336 299.863C532.058 302.011 531.724 304.53 531.389 307.08C532.275 307.507 533.537 308.114 534.831 308.733C533.785 310.546 532.949 311.988 532.12 313.43C531.643 314.074 531.167 314.711 530.69 315.355V315.349ZM525.225 304.016C525.144 303.75 525.064 303.484 524.983 303.218C523.009 303.886 520.434 303.992 519.184 305.329C516.603 308.095 514.728 311.524 512.71 314.47C514.567 314.557 516.56 314.644 518.986 314.755C517.804 317.757 516.838 320.22 515.866 322.677C516.225 322.937 516.591 323.203 516.95 323.463C520.874 319.347 524.798 315.225 529.26 310.546C526.296 310.794 524.377 310.955 521.567 311.196C523.065 308.25 524.148 306.139 525.225 304.023V304.016Z" fill="black"/>
<path d="M506.805 569.714C509.182 569.528 511.559 569.349 513.935 569.163C513.979 569.386 514.016 569.615 514.059 569.837C509.782 570.692 505.512 571.546 501.235 572.4C497.082 573.316 492.929 574.232 488.776 575.142C481.992 576.082 475.215 577.023 468.431 577.97C466.568 578.119 464.705 578.267 462.836 578.416C451.559 578.843 445.085 578.094 440.771 575.098C451.212 574.374 461.654 573.7 472.089 572.907C482.636 572.109 493.17 571.199 503.711 570.333C504.744 570.122 505.772 569.918 506.805 569.707V569.714Z" fill="black"/>
<path d="M595.356 470.69C591.63 464.532 587.905 458.379 584.179 452.221C583.578 450.773 582.978 449.318 582.377 447.87C582.173 446.601 581.783 445.332 581.82 444.07C581.845 443.29 582.526 442.528 582.916 441.761L585.348 445.437C587.255 449.145 589.167 452.846 591.073 456.554C592.064 458.429 593.06 460.304 594.051 462.18C595.598 465.25 597.17 468.301 598.668 471.389C598.946 471.959 598.915 472.683 599.027 473.333C597.801 472.448 596.576 471.569 595.356 470.684V470.69Z" fill="black"/>
<path d="M620.82 509.751C619.662 511.094 618.882 512.703 617.632 513.279C615.819 514.108 615.181 512.381 614.525 510.933C613.355 508.358 612.161 505.765 610.669 503.364C609.753 501.884 608.515 500.337 609.784 498.926C611.307 497.236 616.209 497.892 617.162 499.891C618.579 502.862 619.489 506.075 620.82 509.745V509.751Z" fill="black"/>
<path d="M493.189 147.599C495.652 147.63 498.116 147.611 500.573 147.735C501.179 147.766 501.903 148.149 502.3 148.607C502.479 148.818 502.151 149.752 501.792 150.099C498.759 153.07 486.405 154.797 482.593 152.841C482.419 152.754 482.308 152.55 481.943 152.16C482.989 150.916 484.066 149.629 485.143 148.341C487.823 148.094 490.509 147.846 493.189 147.599Z" fill="black"/>
<path d="M457.866 888.503C455.186 897.397 452.506 906.298 449.826 915.192C449.733 914.171 449.306 913.038 449.603 912.141C451.509 906.397 453.657 900.734 455.545 894.984C456.263 892.799 455.359 890.057 457.86 888.497L457.866 888.503Z" fill="black"/>
<path d="M420.129 1022.77C420.34 1022.45 420.556 1021.83 420.761 1021.84C425.304 1021.93 429.841 1022.09 434.384 1022.24C432.972 1022.46 431.561 1022.84 430.15 1022.87C426.814 1022.92 423.472 1022.81 420.129 1022.77Z" fill="black"/>
<path d="M444.893 229.991C444.825 230.92 444.936 231.904 444.652 232.764C444.064 234.559 443.271 236.286 442.56 238.044C442.077 236.812 441.594 235.587 441.111 234.355C442.034 233.142 442.962 231.929 443.884 230.722C444.218 230.481 444.553 230.239 444.887 229.991H444.893Z" fill="black"/>
<path d="M441.198 1022.94C440.579 1022.71 439.966 1022.47 439.347 1022.24C442.293 1021.64 445.258 1020.62 448.031 1022.79C445.753 1022.84 443.475 1022.89 441.204 1022.94H441.198Z" fill="black"/>
<path d="M683.722 379.155C683.71 379.799 683.697 380.449 683.685 381.093C683.512 379.638 683.339 378.177 683.165 376.723C683.351 377.534 683.537 378.344 683.722 379.161V379.155Z" fill="black"/>
<path d="M683.747 382.293C683.951 382.69 684.149 383.092 684.354 383.488C684.187 383.519 684.019 383.531 683.846 383.525C683.815 383.116 683.778 382.702 683.747 382.293Z" fill="black"/>
<path d="M609.635 870.004L609.066 871.18C608.849 870.752 608.627 870.325 608.41 869.898C608.596 869.719 608.781 869.533 608.967 869.354C609.19 869.57 609.413 869.787 609.635 870.01V870.004Z" fill="black"/>
<path d="M474.559 861.901C476.576 858.262 478.6 854.623 480.63 850.959C479.244 851.169 477.888 851.373 476.539 851.584C476.446 851.256 476.354 850.934 476.267 850.606C477.771 850.148 479.269 849.69 481.553 848.99C480.934 854.914 477.622 858.677 474.88 862.694C474.775 862.428 474.67 862.168 474.559 861.908V861.901Z" fill="white"/>
<path d="M510.16 891.827C507.201 893.275 508.322 896.005 508.031 898.301C507.913 899.199 507.48 900.059 507.189 900.932C506.644 900.009 505.741 899.125 505.629 898.153C505.227 894.582 506.75 892.465 510.16 891.827Z" fill="white"/>
<path d="M608.41 869.898C608.627 870.325 608.849 870.752 609.066 871.179C608.75 871.223 608.435 871.26 608.119 871.303C606.299 869.242 604.48 867.187 602.666 865.126C602.71 864.885 602.753 864.643 602.796 864.402C604.665 866.234 606.541 868.066 608.41 869.898Z" fill="white"/>
<path d="M511.553 906.799C512.178 909.102 511.206 911.076 510.259 913.057C510.104 912.915 509.949 912.766 509.795 912.624C510.24 910.587 510.68 908.551 511.125 906.515C511.249 906.632 511.392 906.725 511.553 906.799Z" fill="white"/>
<path d="M543.391 879.312C543.056 877.629 542.722 875.945 542.394 874.268C543.62 875.772 544.87 877.276 543.391 879.312Z" fill="black"/>
<path d="M509.733 915.464C509.145 917.556 508.557 919.648 507.969 921.74C507.709 921.672 507.443 921.598 507.183 921.53C507.87 919.401 508.557 917.271 509.244 915.142C509.393 915.279 509.553 915.384 509.733 915.464Z" fill="white"/>
<path d="M463.473 1022.85C462.031 1022.85 460.589 1022.86 459.153 1022.86C460.595 1022.86 462.038 1022.86 463.473 1022.85Z" fill="black"/>
<path d="M541.466 870.003C541.119 868.747 540.772 867.49 540.42 866.234C540.766 867.49 541.113 868.747 541.466 870.003Z" fill="black"/>
<path d="M601.156 863.69C600.426 862.719 599.695 861.747 598.965 860.775C599.107 860.627 599.256 860.478 599.398 860.329C600.135 861.252 600.865 862.174 601.602 863.096C601.453 863.294 601.304 863.492 601.156 863.69Z" fill="white"/>
<path d="M538.928 859.494C538.804 858.856 538.674 858.219 538.551 857.575C538.674 858.213 538.804 858.85 538.928 859.494Z" fill="black"/>
<path d="M542.246 873.073C542.023 872.454 541.8 871.829 541.577 871.21L542.246 873.073Z" fill="black"/>
<path d="M511.132 906.515V903.649C511.348 903.655 511.571 903.668 511.788 903.674C511.714 904.714 511.633 905.759 511.559 906.799C511.404 906.725 511.262 906.632 511.138 906.515H511.132Z" fill="white"/>
<path d="M510.265 913.051C510.086 913.855 509.906 914.66 509.733 915.464C509.553 915.384 509.386 915.279 509.244 915.142C509.43 914.301 509.621 913.459 509.807 912.617C509.962 912.76 510.117 912.908 510.271 913.051H510.265Z" fill="white"/>
<path d="M540.29 865.04C540.123 864.613 539.956 864.192 539.795 863.765C539.962 864.192 540.129 864.613 540.29 865.04Z" fill="black"/>
<path d="M598.067 859.983C597.665 859.5 597.263 859.017 596.861 858.535C596.978 858.435 597.089 858.33 597.201 858.213C597.628 858.615 598.055 859.017 598.476 859.42L598.067 859.983Z" fill="white"/>
<path d="M602.054 864.507C601.757 864.235 601.453 863.963 601.156 863.69C601.305 863.492 601.453 863.294 601.602 863.096C601.998 863.529 602.394 863.963 602.79 864.396C602.543 864.433 602.295 864.464 602.047 864.501L602.054 864.507Z" fill="white"/>
<path d="M598.971 860.775C598.668 860.515 598.365 860.249 598.068 859.989C598.204 859.803 598.34 859.611 598.476 859.426C598.786 859.729 599.095 860.026 599.411 860.329C599.268 860.478 599.12 860.627 598.977 860.775H598.971Z" fill="white"/>
<path d="M602.673 865.12C602.468 864.916 602.264 864.705 602.06 864.501C602.307 864.464 602.555 864.433 602.803 864.396C602.759 864.637 602.716 864.879 602.673 865.12Z" fill="white"/>
<path d="M474.887 862.712C474.627 862.669 474.367 862.626 474.107 862.582L474.559 861.896C474.664 862.155 474.769 862.415 474.881 862.682L474.887 862.706V862.712Z" fill="white"/>
<path d="M596.855 858.541C596.805 858.293 596.756 858.04 596.706 857.792C596.867 857.934 597.034 858.077 597.195 858.219C597.09 858.33 596.978 858.436 596.855 858.541Z" fill="white"/>
<path d="M596.564 963.017C594.1 963.995 591.594 964.868 589.192 965.976C586.252 967.338 585.144 966.081 584.946 962.98C588.728 962.689 592.596 962.392 596.471 962.095C596.502 962.405 596.533 962.708 596.564 963.017Z" fill="black"/>
</svg>
