<svg width="1080" height="1080" viewBox="0 0 1080 1080" fill="none" xmlns="http://www.w3.org/2000/svg">
<path d="M452.441 211.528C453.102 211.794 453.85 212.4 454.407 212.251C455.934 211.85 457.374 211.139 458.957 210.508C458.518 210.353 458.067 210.199 457.622 210.038C457.646 209.877 457.665 209.717 457.69 209.556C463.823 210.137 469.955 210.718 475.285 211.219C476.985 210.539 478.036 210.032 479.136 209.692C481.782 208.882 484.459 208.183 487.105 207.373C488.416 206.972 489.875 205.766 490.945 206.069C495.594 207.367 498.92 203.924 502.951 203.132C503.693 202.984 504.441 202.174 505.077 202.285C510.654 203.25 514.097 199.534 518.135 196.622C517.38 196.078 516.774 195.639 516.014 195.089C521.442 187.027 521.992 177.667 523 168.233C520.311 171.899 517.522 175.497 515.006 179.281C514.301 180.344 514.135 181.952 514.19 183.293C514.283 185.494 512.274 188.035 510.023 188.431C509.096 188.591 508.267 189.333 507.451 189.778C507.031 187.757 506.604 185.698 506.178 183.646C505.912 183.621 505.646 183.596 505.38 183.571C504.948 184.987 504.515 186.403 504.033 187.992C502.135 187.349 501.3 186.032 502.567 184.332C504.496 181.748 504.49 178.879 504.465 175.936C504.465 175.627 504.397 175.318 504.404 175.015C504.434 170.582 503.773 169.865 499.204 170.78C493.999 171.819 488.917 171.652 484.533 168.684C474.84 162.119 463.377 161.006 452.645 157.599C445.671 155.386 438.883 152.351 432.379 148.975C424.664 144.969 421.041 137.395 419.977 129.402C418.413 117.643 419.396 105.952 425.591 95.2132C430.994 85.8408 437.412 77.3091 445.869 70.5456C458.092 60.7713 470.382 51.0713 482.938 41.7421C491.26 35.5597 500.274 30.3109 508.651 24.1965C513.56 20.6107 519 18.5336 524.577 16.5552C525.411 16.2585 526.709 15.8504 527.192 16.2399C529.757 18.311 532.484 18.3171 535.42 17.4454C535.89 17.3032 536.416 17.3465 536.916 17.3032C536.762 16.7901 536.737 16.1595 536.428 15.7762C535.136 14.1812 535.767 13.7051 537.491 13.7051C547.686 13.7236 557.782 13.8287 567.562 17.6927C577.664 21.6803 588.143 24.7158 598.276 28.6478C606.177 31.708 612.082 37.2166 614.128 45.773C615.63 52.0666 615.562 58.49 613.905 64.8269C613.034 68.1592 612.001 71.4729 611.5 74.8608C611.197 76.9134 611.704 79.1081 611.976 81.2225C612.539 85.5316 617.51 87.3617 618.153 91.6584C618.221 92.1221 618.425 95.0834 618.69 95.4729C620.193 97.6614 617.411 99.8253 618.728 101.699C622.789 101.247 627.346 100.746 631.902 100.233C637.386 99.615 641.806 107.071 639.68 111.417C637.707 115.448 635.908 119.838 632.897 122.978C630.833 125.136 626.826 125.433 622.876 126.854C622.468 129.123 620.607 132.827 619.247 135.943C616.619 141.952 618.913 148.437 617.33 154.551C615.878 160.165 611.847 164.245 608.403 168.66C607.729 169.525 607.031 170.372 606.418 171.275C604.848 173.587 603.129 175.33 600.014 175.794C597.881 176.109 595.939 177.741 594.01 177.915C593.126 177.723 592.23 177.315 591.358 177.377C589.578 177.494 587.797 178.156 586.041 178.075C580.125 177.809 574.227 177.111 568.317 177.037C566.573 177.012 564.341 177.098 564.162 180.66C563.81 187.584 562.277 194.44 561.368 201.339C561.269 202.087 561.819 203.244 562.437 203.707C567.018 207.157 571.674 210.502 576.341 213.834C579.593 216.159 583.395 216.684 587.123 216.016C592.811 214.996 596.607 218.118 599.797 221.716C605.541 228.189 613.095 231.472 620.588 235.07C622.876 236.165 625.59 237.345 624.891 241.049C630.418 242.174 629.256 247.058 629.769 250.594C631.333 261.45 632.013 272.443 633.751 283.268C634.542 288.177 637.151 292.776 638.703 297.586C640.44 302.971 641.831 308.461 643.556 313.852C643.896 314.909 645.052 315.707 645.831 316.622C646.319 317.197 647.024 317.685 647.271 318.347C647.964 320.189 648.601 322.075 648.978 324.003C649.12 324.727 648.551 326.266 648.174 326.316C643.358 326.897 640.984 331.076 637.54 333.574C633.831 336.269 630.734 339.799 627.346 342.94C626.245 343.96 625.615 344.813 626.962 346.241C628.353 347.713 627.914 349.456 626.468 350.594C621.516 354.489 621.658 361.079 618.289 365.809C618.023 366.186 618.357 367.187 618.678 367.75C622.932 375.28 626.882 383.014 631.642 390.204C634.87 395.082 635.067 398.235 630.641 401.679C633.639 409.066 636.86 416.318 639.488 423.774C640.928 427.861 641.664 432.263 642.152 436.584C642.647 440.93 642.326 441.085 646.492 441.456C649.182 441.697 651.024 442.835 653.33 444.392C658.301 447.743 658.035 452.417 658.196 456.887C658.468 464.423 660.866 471.31 663.482 478.16C666.505 486.08 665.398 493.734 662.635 501.35C660.897 506.148 658.95 510.865 657.064 515.607C656.873 516.095 656.384 516.472 656.217 516.967C655.896 517.925 655.401 518.964 655.506 519.91C655.908 523.403 656.798 526.853 657.021 530.352C657.584 539.106 657.825 547.879 658.307 556.639C658.499 560.126 658.975 563.601 659.321 567.081C659.989 573.808 660.656 580.534 661.312 587.26C661.954 593.919 662.604 600.577 663.197 607.242C663.327 608.67 663.216 610.117 663.253 611.551C663.457 620.528 663.747 629.504 663.822 638.487C663.834 640.373 662.591 642.302 662.74 644.15C663.228 650.401 664.094 656.62 664.798 662.852C665.126 665.77 665.342 668.707 665.794 671.6C665.917 672.41 666.56 673.597 667.21 673.789C671.166 674.938 672.483 678.568 672.941 681.578C673.726 686.741 673.398 692.119 673.108 697.38C672.724 704.268 672.013 711.142 671.271 718.005C670.832 722.091 670.177 726.172 669.355 730.196C669.163 731.13 668.032 732.292 667.098 732.577C664.254 733.442 661.268 733.838 658.406 734.648C657.825 734.815 657.157 735.977 657.157 736.682C657.169 738.697 657.812 740.743 657.645 742.728C657.2 748.02 657.874 754.066 655.5 758.375C652.316 764.15 654.326 769.652 653.287 775.519C656.792 774.4 657.961 776.131 658.35 779.068C659.673 789.071 658.752 798.604 652.761 807.148C652.347 807.735 652.026 808.385 651.772 808.811C652.811 810.548 653.781 812.162 654.888 814.004C653.559 814.27 652.65 814.449 651.636 814.647C651.556 814.004 651.469 813.312 651.333 812.174C650.845 813.003 650.319 813.479 650.338 813.93C650.468 817.293 650.783 820.65 650.882 824.013C650.944 826.165 650.734 828.323 650.659 830.48C650.616 831.673 650.165 833.114 650.659 834.023C653.46 839.117 651.921 844.279 651.271 849.448C651.123 850.647 651.247 851.933 650.851 853.046C650.152 855.018 650.06 857.423 646.956 857.713C644.384 857.955 644.978 861.33 645.318 861.837C648.131 865.973 647.772 870.863 649.003 875.333C651.445 884.205 653.466 893.194 656.174 901.979C660.23 915.11 664.761 928.099 669.027 941.169C670.795 946.591 672.805 951.988 673.961 957.546C674.82 961.676 674.492 966.047 674.703 970.554C675.08 970.48 676.254 970.158 677.454 970.01C680.873 969.589 684.304 968.915 687.729 968.934C692.378 968.953 695.76 972.711 697.33 977.62C700.316 986.949 702.937 996.6 709.602 1004.15C714.974 1010.24 720.971 1015.77 726.653 1021.59C730.603 1025.63 735.197 1028.4 740.643 1030.19C745.558 1031.81 749.317 1035.1 750.962 1040.48C751.512 1042.27 752.965 1044.18 754.554 1045.17C757.837 1047.25 760.526 1049.65 760.662 1053.64C760.816 1058.23 760.761 1062.87 760.149 1067.41C759.759 1070.31 754.591 1072.89 751.586 1072.74C748.804 1072.59 745.985 1072.69 743.215 1072.96C736.563 1073.62 729.787 1075.61 723.321 1074.87C716.86 1074.12 711.036 1076.27 704.928 1076.25C701.305 1076.24 697.54 1075.31 694.09 1074.08C683.253 1070.22 672.922 1065.27 663.698 1058.26C659.043 1054.72 653.732 1051.77 649.918 1047.49C647.346 1044.6 643.952 1042.4 642.047 1038.82C642.19 1038.65 642.449 1038.45 642.554 1038.19C643.908 1034.92 646.084 1031.73 646.424 1028.36C647.407 1018.6 647.68 1008.78 648.168 998.974C648.236 997.595 647.717 996.173 647.871 994.813C648.366 990.374 648.928 985.935 649.763 981.552C649.924 980.705 651.37 979.728 652.359 979.543C652.959 979.432 653.825 980.717 654.74 981.521C655.754 979.537 656.885 977.688 655.982 974.733C655.37 972.718 655.803 969.824 658.227 968.26C660.193 966.987 661.503 967.16 662.029 969.793C662.152 970.412 663.24 970.832 663.883 971.345C664.236 971.636 664.588 971.92 664.941 972.211C665.04 972.075 665.138 971.939 665.244 971.803C664.879 971.524 664.508 971.246 664.143 970.968C661.788 965.138 659.129 959.419 657.151 953.466C653.219 941.651 650.01 929.589 645.862 917.862C641.992 906.925 636.891 896.427 633.064 885.478C630.165 877.182 628.446 868.483 626.134 859.976C625.955 859.315 625.349 858.455 624.755 858.264C619.655 856.625 617.652 853.466 618.332 848.465C620.137 847.717 621.701 847.061 623.265 846.412C623.228 846.159 623.197 845.905 623.16 845.652C622.585 845.429 622.017 845.213 621.856 845.151C623.556 838.196 624.452 831.42 621.343 824.638C620.805 823.463 620.187 822.221 620.063 820.966C619.766 817.992 619.086 815.266 617.207 812.823C612.57 806.789 613.25 800.181 615.377 793.466C615.797 792.131 616.02 790.672 616.706 789.485C618.944 785.615 617.658 781.596 617.473 777.615C617.417 776.484 617.677 775.309 617.454 774.221C617.182 772.892 616.471 771.655 616.1 770.332C615.81 769.3 615.915 768.137 615.544 767.142C612.52 758.963 617.38 754.555 623.333 750.635C624.088 750.134 624.817 749.59 624.867 749.553C623.927 746.097 623.086 742.994 622.153 739.55C614.462 740.669 609.986 734.951 605.85 729.053C598.734 718.914 593.986 707.649 590.721 695.736C590.616 695.353 590.252 694.914 590.357 694.623C592.304 689.195 589.157 684.911 587.228 680.348C584.718 674.407 582.233 668.459 579.692 662.53C579.445 661.943 579.006 661.331 578.48 660.991C570.004 655.421 565.868 646.654 562.017 637.894C558.654 630.24 556.168 622.197 553.287 614.32C551.056 619.681 548.712 625.22 546.437 630.79C544.014 636.719 541.51 642.617 539.321 648.633C537.739 652.979 536.471 657.449 535.297 661.925C530.345 680.799 524.972 699.569 521.646 718.839C520.305 726.598 518.481 734.277 516.879 741.992C516.799 742.394 516.762 742.808 516.75 743.216C516.539 749.046 516.28 754.876 516.138 760.706C515.699 779.08 515.155 797.454 514.938 815.828C514.747 831.649 514.679 847.482 515.068 863.29C515.291 872.211 516.669 881.101 517.306 890.022C517.825 897.225 518.104 904.44 518.326 911.661C518.53 918.3 518.573 924.946 518.567 931.593C518.567 933.713 518.023 935.834 517.986 937.954C517.924 941.565 517.943 945.181 518.153 948.786C518.357 952.223 519.068 955.636 519.155 959.067C519.241 962.529 519.779 964.699 522.215 967.203C523.204 968.223 524.397 969.039 525.399 970.047C525.918 970.566 526.573 971.302 526.567 971.939C526.561 973.867 526.147 975.796 526.135 977.725C526.135 978.554 526.487 979.679 527.087 980.167C529.294 981.973 529.652 984.062 529.386 986.844C529.059 990.245 529.615 993.725 529.652 997.169C529.665 998.547 529.022 999.969 529.207 1001.3C529.498 1003.38 529.337 1005.4 531.934 1006.95C540.546 1012.07 546.771 1019.67 552.113 1028.11C550.518 1028.64 550.178 1030.91 551.865 1032.58C555.309 1035.99 559.074 1039.07 562.703 1042.29C563.266 1042.79 563.902 1043.26 564.335 1043.86C565.739 1045.83 566.963 1047.94 568.434 1049.85C570.091 1052.01 571.074 1054.06 569.114 1056.59C568.799 1057 569.324 1057.99 569.312 1058.71C569.281 1060.54 569.671 1062.6 568.997 1064.17C567.012 1068.82 563.191 1071.46 558.233 1072.34C551.556 1073.52 544.904 1075.02 538.172 1075.65C532.249 1076.22 526.227 1075.63 520.261 1075.83C512.496 1076.09 504.75 1076.82 496.985 1076.94C493.424 1077 489.856 1076.04 486.277 1075.66C482.858 1075.29 483.192 1072.84 483.093 1070.44C478.772 1068.84 478.605 1067.2 478.846 1063.3C478.883 1062.66 478.809 1061.58 478.456 1061.42C475.668 1060.13 476.843 1057.62 476.317 1055.56C474.778 1049.5 479.21 1044.4 478.666 1038.6C478.345 1035.17 477.597 1031.78 477.102 1028.36C476.651 1025.23 476.805 1022.53 478.938 1019.59C481.306 1016.32 482.363 1012.09 483.915 1008.25C486.815 1001.09 484.787 994.356 482.141 987.642C481.146 985.119 480.41 982.486 479.711 979.858C479.266 978.189 481.671 975.71 483.612 975.642C486.246 975.549 489.331 971.864 488.997 969.15C487.693 958.436 485.288 947.926 483.248 937.348C480.719 924.236 475.285 912.118 471.606 899.42C467.736 886.053 463.878 872.675 459.804 859.37C458.005 853.497 455.452 847.853 453.653 841.979C451.755 835.779 451.031 829.139 448.54 823.216C445.399 815.748 446.809 808.199 446.289 800.675C445.77 793.194 445.64 785.714 447.019 778.338C447.538 775.569 446.079 773.021 447.037 770.314C447.569 768.805 448.336 767.037 448.002 765.621C446.846 760.725 449.498 756.403 450.796 752.039C453.121 744.243 454.889 736.651 457.189 728.849C457.714 727.062 460.416 724.725 459.823 722.728C456.657 712.113 456.954 701.214 456.663 690.302C456.441 682.03 455.124 673.782 454.289 665.473C451.396 664.707 448.719 663.816 445.974 663.359C444.769 663.155 443.291 663.606 442.147 664.181C440.169 665.177 438.568 664.632 437.715 662.982C435.971 659.619 433.795 656.348 434.444 652.163C434.648 650.833 434.234 649.344 433.851 648.002C433.535 646.908 432.837 645.918 432.305 644.886C431.396 645.758 430.191 646.475 429.622 647.532C425.863 654.561 422.432 661.77 418.512 668.707C415.421 674.172 410.543 675.934 404.268 674.716C399.038 673.696 393.48 674.017 388.41 672.552C382.716 670.901 377.375 667.99 371.953 665.473C365.777 662.611 359.73 659.452 353.517 656.676C348.652 654.5 343.563 652.843 338.673 650.716C330.624 647.217 325.171 640.602 319.502 634.277C315.817 630.166 316.275 625.739 319.174 621.671C324.262 614.531 329.795 607.705 334.976 600.627C338.791 595.409 342.482 590.086 345.944 584.633C347.069 582.865 347.44 580.565 347.928 578.457C348.491 576.008 348.818 573.498 349.208 571.013C349.468 569.325 349.771 567.631 349.851 565.931C349.962 563.532 349.876 561.128 349.876 558.605C348.404 557.523 346.123 556.485 344.819 554.723C343.446 552.868 342.08 550.197 342.364 548.114C342.908 544.107 344.559 540.108 347.891 537.48C348.899 536.682 351.038 537.288 352.658 537.294C353.678 537.294 354.71 537.307 355.724 537.431C359.149 537.857 359.174 535.156 359.687 533.047C360.423 530.024 360.757 526.884 361.721 523.947C362.123 522.723 363.545 521.554 364.788 520.93C368.367 519.131 372.064 517.554 375.767 516.015C379.699 514.383 383.415 515.867 386.982 517.289C390.957 518.871 394.772 520.856 398.661 522.649C399.112 522.859 399.594 522.995 400.317 523.267C400.88 520.893 401.146 518.568 401.974 516.46C404.732 509.412 407.977 502.55 410.487 495.415C412.515 489.653 413.69 483.595 415.341 477.691C416.688 472.874 412.75 470.816 410.5 467.799C403.26 458.105 392.373 452.646 383.792 444.547C378.506 439.558 373.4 434.266 369.029 428.485C367.192 426.049 366.859 422 366.945 418.717C367.056 414.402 368.101 410.08 369.066 405.833C369.48 404.015 370.791 402.427 371.508 400.659C371.903 399.688 372.423 398.21 371.99 397.567C370.63 395.552 371.823 394.235 372.534 392.51C373.857 389.295 374.587 385.839 375.811 382.575C377.424 378.266 379.199 374.012 381.053 369.802C383.705 363.756 386.617 357.821 389.164 351.737C390.345 348.912 390.945 345.846 391.749 343.082C385.43 343.546 380.961 338.897 375.607 336.795C371.594 335.218 369.053 327.045 370.457 322.885C371.1 320.993 372.287 318.841 373.876 317.79C378.791 314.545 380.893 309.277 383.774 304.671C386.389 300.492 387.619 295.466 390.092 291.175C398.011 277.432 406.036 263.744 414.395 250.267C420.441 240.517 426.852 230.972 433.554 221.667C436.719 217.265 440.546 213.16 447.093 213.648C448.707 213.766 450.463 212.004 452.156 211.101C452.243 211.262 452.354 211.41 452.484 211.534L452.441 211.528ZM436.812 363.323C435.903 363.682 435.007 363.787 434.481 364.288C432.849 365.839 430.982 367.323 429.888 369.227C424.898 377.914 420.15 386.736 415.303 395.509C415.137 395.818 414.914 396.22 414.63 396.319C412.237 397.135 412.608 398.723 413.548 400.349C417.059 406.414 420.614 412.454 424.169 418.495C424.676 419.354 425.103 420.454 425.881 420.924C427.409 421.845 429.115 422.692 430.834 422.921C431.272 422.977 432.342 420.652 432.583 419.323C433.189 415.947 433.375 412.504 433.937 409.116C435.668 398.6 438.667 388.43 442.574 378.526C444.633 373.314 443.124 368.9 439.68 364.937C439.013 364.17 437.813 363.867 436.818 363.329L436.812 363.323ZM461.467 384.343C460.874 382.47 460.478 380.331 459.495 378.507C459 377.598 457.43 377.271 456.348 376.683C456.113 377.802 455.785 378.915 455.674 380.047C455.619 380.603 456.194 381.24 456.088 381.765C455.34 385.462 456.132 389.728 452.28 392.331C451.81 392.652 451.476 393.271 451.235 393.821C449.677 397.314 447.99 400.764 446.685 404.349C445.665 407.156 445.065 410.117 444.416 413.042C444.051 414.686 444.398 416.615 443.674 418.037C441.844 421.629 441.622 424.12 446.345 427.892C450.011 422.426 453.677 416.955 457.343 411.49C457.615 411.842 457.887 412.201 458.16 412.553C459.495 411.997 461.43 411.799 462.023 410.804C462.908 409.32 462.493 407.712 460.311 406.742C458.308 405.852 458.092 403.793 459.551 402.025C462.969 397.864 466.53 393.815 469.925 389.629C470.704 388.671 471.767 386.73 471.408 386.297C470.382 385.036 468.781 383.762 467.248 383.527C465.418 383.243 463.421 384.028 461.479 384.356L461.467 384.343ZM620.174 115.083C624.224 114.144 625.312 110.632 627.995 107.399C624.496 108.171 621.911 108.746 619.42 109.297C619.673 111.238 619.908 113.018 620.174 115.083ZM665.027 972.421C667.346 974.733 668.594 974.752 670.134 972.421H665.027Z" fill="white"/>
<path d="M452.114 211.089C452.368 211.077 452.621 211.064 452.875 211.052L452.442 211.522C452.306 211.392 452.2 211.25 452.114 211.089Z" fill="white"/>
<path d="M450.049 779.661C449.808 786.926 449.121 794.215 449.455 801.454C449.771 808.261 450.698 815.123 452.182 821.776C455.489 836.582 459.279 851.284 462.982 866.004C463.44 867.834 464.559 869.491 465.369 871.228C465.369 871.42 465.412 871.605 465.498 871.778C465.659 872.582 465.826 873.38 465.987 874.183C465.832 874.276 465.678 874.363 465.523 874.455C465.678 874.616 465.832 874.777 465.987 874.938C467.063 878.418 468.132 881.899 469.208 885.38L471.063 890.944C472.083 894.239 473.109 897.54 474.129 900.835C474.345 901.868 474.556 902.894 474.772 903.927C479.477 919.432 484.175 934.937 488.886 950.443C489.9 953.775 491.143 957.058 491.897 960.446C492.268 962.096 492.645 964.248 490.018 965.064C489.356 965.268 488.973 966.375 488.472 967.055C482.883 964.594 482.086 958.69 479.514 954.004C478.908 953.305 478.296 952.613 477.69 951.914C477.659 951.753 477.566 951.654 477.412 951.617C477.301 950.968 477.183 950.325 477.072 949.676C477.14 948.984 477.43 948.217 477.245 947.599C474.216 937.497 471.075 927.426 468.052 917.318C462.191 897.701 456.262 878.109 450.605 858.431C447.662 848.193 445.097 837.837 442.655 827.463C441.61 823.024 441.047 818.431 440.744 813.875C440.299 807.13 439.718 800.31 440.207 793.603C440.899 784.032 442.463 774.518 443.743 764.991C444.274 761.009 445.029 757.059 445.684 753.096C446.24 751.439 446.803 749.782 447.359 748.125C449.913 739.847 452.2 731.47 456.806 723.989C457.245 723.278 457.499 722.159 457.276 721.386C455.526 715.346 453.653 709.343 451.761 703.353C451.57 702.753 451.013 702.271 450.624 701.733L450.036 698.048C449.486 694.333 449.004 690.605 448.355 686.901C448.027 685.016 447.403 683.186 446.914 681.325L446.315 677.677C446.234 674.679 446.358 671.643 445.882 668.707C445.795 668.187 443.23 667.909 441.789 667.816C439.842 667.693 437.734 668.33 436.429 666.16C436.231 665.832 435.823 665.572 435.749 665.232C434.562 659.588 433.418 653.937 432.182 647.909C430.828 651.514 429.536 654.97 428.237 658.426C428.095 658.79 427.947 659.149 427.805 659.514C428.083 659.334 428.355 659.155 428.633 658.969L430.611 657.498C428.85 664.534 424.992 669.85 418.853 673.306C409.814 678.394 400.268 679.081 390.544 675.748C384.571 673.702 378.779 671.124 372.955 668.806C373.004 669.183 373.103 669.949 373.177 670.512C368.38 667.749 364.108 664.225 358.519 663.192C356.652 662.401 354.785 661.609 352.918 660.818C345.709 656.119 338.309 651.693 331.366 646.636C326.365 642.988 321.938 638.525 317.351 634.327C316.683 633.721 316.541 632.54 316.158 631.625C316.399 631.372 316.64 631.118 316.875 630.865C318.668 631.619 320.634 632.126 322.235 633.177C333.542 640.639 344.708 648.311 356.071 655.681C359.23 657.733 362.89 659.013 365.827 660.41C374.847 646.512 383.619 632.985 392.398 619.458C393.468 618.042 394.531 616.627 395.601 615.217C397.252 612.948 398.902 610.685 400.553 608.416C401.35 607.693 402.148 606.97 402.983 606.216C401.783 605.801 400.85 605.474 399.916 605.152C389.425 600.182 378.933 595.205 368.436 590.24C362.847 587.601 357.252 584.979 351.663 582.352C351.051 581.987 350.439 581.628 349.4 581.016C349.066 583.186 348.794 584.936 348.522 586.686C344.417 593.634 340.77 600.924 336.083 607.452C330.717 614.927 324.442 621.746 318.507 628.806C317.882 629.548 316.918 630.005 316.022 630.661C315.329 629.758 314.662 628.886 314 628.015C317.246 623.025 320.442 618.104 323.644 613.189C330.142 603.211 336.584 593.202 343.187 583.291C344.182 581.795 344.362 580.571 344.374 578.803C344.399 575.125 345.171 571.44 345.759 567.78C346.216 564.93 346.865 562.111 347.459 559.125C346.173 558.976 345.042 558.976 343.984 558.704C337.32 556.979 336.009 554.191 338.321 546.698C339.706 542.204 342.229 538.84 346.327 536.071C349.147 534.166 351.051 534.129 353.845 535.99C356.195 528.627 357.635 520.516 364.671 516.911C371.057 513.635 378.167 511.069 385.913 512.058C387.768 502.772 389.604 493.592 391.434 484.411C391.236 484.516 391.038 484.627 390.84 484.732C390.457 483.514 389.443 482.049 389.802 481.116C391.032 477.926 394.667 475.601 396.114 476.881C396.843 477.524 396.955 480.361 396.448 480.658C393.474 482.389 394.828 485.53 393.771 487.836C392.918 489.691 392.924 491.941 392.553 494.012C392.553 494.834 392.541 495.663 392.541 496.485C392.083 499.131 391.626 501.771 391.174 504.417C390.766 506.284 390.358 508.151 389.956 510.018C388.893 512.293 388.565 514.253 391.656 515.279C393.221 515.799 394.667 516.683 396.17 517.4C398.927 518.253 400.374 516.992 401.01 514.414C401.629 513.177 402.247 511.941 402.865 510.704C403.539 508.448 404.219 506.185 404.893 503.928C406.074 499.384 407.248 494.847 408.429 490.303C409.097 488.281 409.765 486.253 410.432 484.232C411.613 481.085 412.825 477.95 413.913 474.773C414.006 474.507 413.245 473.957 412.887 473.542C411.65 472.306 410.414 471.069 409.177 469.833C408.763 469.629 408.355 469.419 407.941 469.215C404.843 467.626 401.74 466.031 398.643 464.442C386.754 456.522 376.621 446.526 365.969 437.122C360.572 432.362 359.675 426.804 360.361 420.43C360.813 416.22 361.48 412.028 362.198 407.855C362.791 404.38 363.7 403.682 366.507 404.386C369.585 396.535 372.64 388.628 375.786 380.764C378.395 374.241 381.134 367.768 383.774 361.265C384.108 360.449 384.231 359.546 384.454 358.687C385.363 356.838 386.265 354.996 387.174 353.147C388.238 351.589 389.307 350.037 390.371 348.48L391.7 349.042C390.717 352.646 389.734 356.251 388.751 359.849C388.17 361.289 387.582 362.736 387.001 364.177C386.383 365.827 385.765 367.472 385.146 369.122L383.119 374.662C377.919 385.357 372.664 396.028 367.607 406.792C367.051 407.972 367.743 409.697 367.688 411.162C367.551 414.612 367.385 418.068 367.094 421.506C366.921 423.614 367.218 425.283 369.159 426.625C370.692 427.682 371.867 429.271 373.196 430.618C374.241 431.601 375.279 432.584 376.324 433.573C384.009 440.275 391.273 447.564 399.483 453.542C410.859 461.821 422.958 469.116 434.741 476.831C436.924 478.173 439.112 479.521 441.295 480.862C446.809 484.139 452.318 487.422 458.148 490.89C460.985 487.082 464.138 482.853 467.291 478.624C468.132 477.579 468.967 476.535 469.808 475.49C473.455 471.02 477.103 466.55 480.868 461.932C476.732 458.606 471.223 456.763 468.095 452.164C468.379 451.694 468.658 451.218 468.942 450.748C471.267 451.7 473.647 452.535 475.891 453.641C478.481 454.921 480.948 456.454 483.471 457.876C484.664 458.55 485.857 459.224 487.05 459.898C489.622 461.19 492.2 462.482 495.458 464.114C495.78 460.405 496.206 457.128 496.225 453.851C496.225 453.227 494.648 452.566 493.77 451.96C489.498 448.992 485.202 446.062 480.967 443.045C480.268 442.544 479.829 441.685 479.075 440.757C477.913 441.363 476.608 442.043 475.304 442.723C473.449 443.743 471.594 444.77 469.74 445.79C464.713 449.029 459.631 452.188 454.673 455.533C450.148 458.587 448.404 457.363 445.647 453.975C441.808 449.258 438.234 444.318 434.636 439.41C429.208 431.997 423.842 424.535 418.476 417.073C417.542 415.774 416.751 414.371 415.897 413.017C414.871 411.311 413.839 409.598 412.812 407.892C411.644 404.962 410.599 401.975 409.227 399.15C408.843 398.371 407.514 397.771 406.531 397.617C401.975 396.887 397.363 396.498 392.831 395.639C391.193 395.329 389.74 394.044 388.201 393.209C388.794 391.954 389.388 390.699 389.987 389.45C396.621 390.921 403.255 392.393 409.882 393.87C410.364 393.975 410.828 394.173 411.854 394.507C418.166 383.923 424.553 373.215 431.125 362.198C419.607 357.537 407.897 352.801 396.182 348.065C394.735 347.497 393.289 346.928 391.842 346.353C390.061 345.834 388.689 343.435 386.29 345.456C385.833 345.84 383.947 344.863 382.933 344.189C379.465 341.877 376.089 339.422 372.677 337.024C371.613 335.775 370.55 334.526 369.48 333.271C369.103 331.045 368.349 328.807 368.429 326.6C368.565 322.674 368.671 318.606 372.405 315.892C377.462 312.214 379.112 306.223 382.179 301.197C388.843 290.273 395.52 279.349 402.024 268.332C407.292 259.404 412.312 250.328 417.468 241.339C423.1 231.522 429.041 221.908 436.961 213.704C441.808 208.684 448.788 207.17 454.642 212.499C454.148 209.148 455.767 207.819 458.611 207.664H462.939L472.769 209.791C474.611 212.523 476.157 209.735 477.845 209.519C479.576 208.863 481.313 208.202 483.1 207.522C482.067 205.117 482.821 203.367 485.424 202.86C489.443 202.075 493.511 201.544 497.56 200.901C499.217 201.006 500.806 203.596 502.531 201.03C506.234 198.502 509.931 195.973 513.634 193.439C517.313 194.211 516.466 190.916 517.412 189.241C518.302 187.12 519.198 185 520.089 182.873C520.299 183.164 520.515 183.454 520.725 183.745C517.43 186.391 514.191 189.105 510.809 191.633C509.659 192.493 508.089 193.482 506.821 193.352C504.441 193.105 504.639 191.25 506.117 188.82C501.529 190.842 499.86 187.559 497.548 185.599C496.342 183.874 495.205 181.772 493.226 184.913C490.556 186.131 487.879 187.343 484.639 188.82C484.701 184.919 483.118 183.207 480.67 181.816C479.069 180.907 477.857 179.312 476.59 178.137C475.681 179.262 474.5 180.901 473.121 182.347C471.792 183.745 470.228 184.697 468.114 183.763C467.508 183.491 466.494 183.374 466.018 183.701C463.31 185.568 462.302 182.545 461.876 181.599C460.41 178.366 458.185 176.95 454.809 176.783C454.197 176.752 453.375 176.32 453.06 175.813C451.897 173.976 450.908 172.035 449.771 169.97H445.783C444.886 169.513 443.99 169.055 443.094 168.604C441.567 167.145 439.594 165.933 438.605 164.171C436.955 161.229 435.038 162.199 432.843 162.972C432.015 163.262 431.063 163.201 430.166 163.3C428.8 162.626 427.434 161.946 426.067 161.272C425.369 158.613 423.897 156.66 421.585 156.017C420.862 153.309 420.207 150.855 419.551 148.4C419.551 147.028 419.551 145.649 419.551 144.159H416.565C412.293 142.91 411.323 138.125 407.836 136.035C407.502 134.984 407.174 133.933 406.84 132.882C406.204 131.535 405.913 129.711 404.856 128.938C401.925 126.793 401.338 123.856 401.091 120.623C400.955 118.824 401.066 116.87 400.38 115.287C399.341 112.901 401.449 111.999 402 110.391C402.377 109.297 402.278 108.042 402.389 106.855C401.925 105.451 401.462 104.048 401.004 102.651L400.398 100.796L398.086 94.589C397.554 91.2443 397.029 87.8935 396.497 84.5674C397.789 84.0666 398.791 83.6771 399.786 83.2938C399.582 83.1702 399.378 83.0464 399.174 82.9228L400.491 80.2891C401.728 80.5117 402.964 80.7405 404.201 80.9631C405.499 81.3958 406.803 81.8347 408.256 82.3231C408.714 80.6724 409.159 79.0959 409.474 77.946C408.695 76.6168 408.095 75.5473 407.44 74.5087C407.02 73.841 406.63 72.8085 406.03 72.6416C401.276 71.2877 402.865 66.9106 401.746 63.8565C401.338 62.7375 401.035 61.5011 401.041 60.3202C401.072 53.5629 405.091 50.0575 411.1 48.2028C412.132 47.8875 413.097 47.3434 414.086 46.9044C414.506 46.7499 414.927 46.6015 415.347 46.4469H418.846C419.156 45.1177 419.44 43.9061 419.724 42.6944C420.534 41.4703 421.344 40.2522 422.154 39.0281C424.497 37.8226 423.483 35.7083 423.088 34.1813C422.018 30.0885 422.964 29.2353 424.794 25.7237C428.862 17.9277 436.893 19.9928 442.976 17.3343C443.236 17.2231 443.625 17.2231 443.891 17.3343C449.4 19.6589 453.14 16.0545 457.344 13.5631C460.299 11.8073 463.526 10.002 466.828 9.5012C469.412 9.11172 472.293 10.7006 475.038 11.4054C477.356 10.5584 479.984 9.66198 482.549 8.61098C483.18 8.35132 483.749 7.64029 484.089 7.00351C486.314 2.7686 489.876 1.18593 494.444 1.91545C496.88 2.30494 499.304 2.95422 501.641 3.75174C505.424 5.04385 508.657 9.77328 508.688 13.7238C508.697 14.8036 509.805 16.7511 512.014 19.5661C515.18 18.5769 518.945 18.3914 521.208 16.4502C524.286 13.8103 526.537 14.5152 529.436 15.9371C529.925 16.1782 531.044 15.4425 531.718 14.9479C534.32 13.0499 536.905 11.1272 539.402 9.09941C541.653 7.26944 544.107 6.39767 546.994 6.87989C549.374 8.43785 549.653 6.04535 550.623 4.95108C552.688 3.14583 553.492 -0.359536 557.275 0.0299518C557.498 1.47662 557.721 2.91093 557.9 4.05467C560.62 3.26333 563.056 1.92174 565.43 2.02684C568.175 2.15049 570.864 3.55379 573.578 4.40695C575.031 4.55533 576.478 4.70369 577.931 4.85206C578.759 5.86597 579.588 6.87998 580.416 7.89388C580.323 8.26482 580.224 8.64183 580.132 9.01277C581.529 8.53673 583.099 8.32041 584.286 7.52907C589.09 4.35134 592.039 4.72234 595.464 9.13654C595.81 9.58785 596.404 9.84741 596.985 10.274C596.521 10.6449 596.033 11.0283 595.513 11.4425C599.711 12.0484 603.915 12.6543 608.119 13.2601C610.227 14.0515 612.342 14.8429 614.45 15.6342C616.026 17.4456 619.087 18.2369 618.444 21.7423C620.947 20.784 622.753 21.2972 624.453 23.5229C625.294 24.6233 627.476 24.6233 628.947 25.3405C632.49 27.0592 632.688 28.444 629.813 31.3187C630.716 31.9679 631.674 32.512 632.447 33.2539C633.207 33.9772 633.776 34.8983 634.481 35.7886C632.675 36.8705 631.989 37.8721 634.703 39.2817C636.583 40.2585 638.759 41.5815 637.813 44.481C637.665 44.9014 637.516 45.3218 637.368 45.7484C637.133 46.1874 636.892 46.6262 636.657 47.059C634.777 46.6509 633.213 46.9786 632.329 48.9075C631.513 49.0621 630.691 49.2167 629.609 49.4269C635.544 54.8117 636.601 56.1656 634.128 62.181C634.895 62.6818 635.699 63.2073 636.508 63.7328C636.607 64.7219 636.7 65.7049 636.756 66.2181H641.578C641.362 67.3433 641.504 68.7715 640.861 69.5257C639.637 70.96 637.961 72.011 636.311 73.3464C637.491 76.1717 636.274 78.1563 633.411 79.5968C630.481 81.0744 627.742 82.9414 624.787 84.3633C622.852 85.2907 620.675 85.7296 618.227 86.5086C618.92 87.0774 619.68 87.7945 620.527 88.3819C621.658 89.167 623.099 89.6492 623.971 90.6384C624.91 91.7079 625.238 93.4452 622.969 93.2906C618.988 93.0248 618.932 95.2258 619.414 97.5689C623.859 97.8347 628.156 97.9707 632.416 98.4158C633.59 98.5395 634.709 99.5348 635.779 100.24C636.416 100.66 636.966 101.816 637.454 101.767C641.238 101.359 640.688 104.104 640.954 106.292C641.627 111.918 642.635 117.668 639.643 122.886C637.114 127.287 634.314 131.609 631.111 135.541C628.051 139.294 623.668 138.972 619.371 137.791C618.493 137.266 617.646 136.66 616.713 136.27C616.509 136.184 615.989 136.858 615.612 137.179C609.795 140.431 608.688 140.406 605.269 136.95C608.601 136.239 612.131 132.382 611.878 129.544C611.81 128.784 611.148 128.073 610.759 127.337C609.294 126.144 607.829 124.95 606.363 123.757C605.85 119.881 605.337 116.005 604.793 111.906C603.915 111.906 602.382 111.906 600.849 111.906C596.342 111.906 596.045 112.252 595.841 116.932C595.73 119.572 595.631 122.243 595.192 124.839C594.648 128.066 593.331 130.91 590.401 132.851C589.183 133.661 588.416 135.127 587.266 136.066C581.912 140.443 575.507 142.317 568.904 141.383C563.217 140.573 558.988 136.672 555.65 131.757C551.174 125.173 549.35 117.977 549.418 110.478C543.272 113.167 537.201 115.825 531.891 118.15C532.342 121.488 533.999 125.266 532.843 127.72C531.767 130.014 527.705 130.904 524.954 132.413C524.762 132.171 524.571 131.937 524.385 131.695C524.28 132.481 524.169 133.259 524.021 134.372C521.869 131.949 520.175 129.618 518.073 127.757C514.209 124.326 507.174 122.972 503.019 128.444C498.599 134.261 497.925 138.564 502.778 144.066C503.786 145.204 505.016 146.144 506.147 147.17C506.778 147.603 507.409 148.029 508.039 148.462C509.721 149.463 511.316 150.688 513.121 151.349C513.814 151.603 515.167 150.774 515.885 150.088C517.387 148.647 518.753 147.411 520.843 149.167C519.885 149.723 518.963 150.255 518.042 150.793C518.073 151.034 518.104 151.275 518.135 151.51C519.804 151.343 521.473 151.096 523.149 151.034C524.286 150.991 525.999 150.805 526.438 151.417C527.025 152.233 526.889 153.828 526.586 154.96C526.073 156.87 525.183 158.675 524.392 160.666H526.617C527.829 161.111 529.041 161.562 530.259 162.008C529.579 164.858 528.898 167.708 528.218 170.558C528.07 172.017 527.916 173.47 527.767 174.929C525.096 181.185 522.661 187.559 519.637 193.649C518.246 196.456 515.996 199.034 513.603 201.099C511.52 202.904 508.688 203.843 506.185 205.166C504.954 205.302 503.378 205.216 504.911 207.139C513.276 224.041 525.962 235.627 544.923 239.237C554.271 241.018 563.39 240.276 571.625 234.922C576.836 231.534 580.731 227.157 581.702 220.659C582.079 218.131 583.452 217.927 585.492 219.775C585.813 220.066 586.691 219.93 586.827 220.221C587.458 221.587 588.731 223.343 588.323 224.394C583.847 235.757 575.538 242.477 563.347 244.22C547.322 246.514 532.911 242.52 520.404 232.443C515.464 228.462 511.384 223.404 506.908 218.842C506.086 217.395 505.27 215.955 504.447 214.508C502.982 211.25 501.517 207.992 500.033 204.69C496.237 205.754 492.132 206.91 488.089 208.041C492.379 215.924 496.899 223.998 503.804 230.335C514.852 240.468 527.792 246.953 542.518 249.766C553.943 251.948 565.343 252.078 576.36 247.868C585.257 244.474 591.526 238.44 593.523 228.678C593.863 227.003 594.376 225.185 595.377 223.862C597.399 221.185 600.107 221.723 602.771 223.027C606.363 224.783 609.98 226.489 613.584 228.214C614.252 228.653 614.92 229.092 615.581 229.531C617.121 230.094 618.623 230.941 620.212 231.176C624.978 231.874 630.011 234.087 630.017 240.9C630.017 244.27 631.631 247.639 632.515 251.002C632.898 252.449 633.287 253.896 633.671 255.342C633.869 256.375 634.073 257.401 634.27 258.434L635.853 267.775C636.156 269.605 636.459 271.435 636.762 273.271C640.02 285.055 643.291 296.832 646.53 308.616C647.556 312.35 650.654 314.334 653.25 316.752C653.627 317.741 654.005 318.73 654.375 319.713C656.144 322.477 654.462 325.03 653.887 327.645C653.331 328.684 652.774 329.729 652.212 330.767C649.739 333.728 647.396 336.82 644.75 339.62C642.369 342.143 639.748 341.809 637.355 339.392C636.329 335.682 638.728 333.265 640.706 330.755C643.612 327.082 646.635 323.497 649.547 319.954C647.964 318.279 646.654 317.395 646.054 316.164C642.882 309.661 639.457 303.237 636.917 296.48C630.79 280.202 626.734 263.441 626.672 245.877C626.666 243.924 625.937 241.512 624.657 240.128C622.32 237.605 618.988 236.146 616.212 234.038C611.631 230.564 605.615 228.981 600.082 226.545C599.909 227.003 599.674 227.441 599.569 227.905C597.795 235.93 593.529 242.31 586.549 246.601C574.611 253.939 561.659 257.401 547.637 255.281C540.404 254.186 532.997 253.191 526.166 250.755C519.365 248.325 512.886 244.616 506.809 240.641C495.6 233.296 486.76 223.893 484.212 209.902C481.777 210.508 479.44 211.083 476.862 211.72C484.775 217.519 486.995 225.846 487.495 234.483C487.897 241.469 487.631 248.709 486.234 255.546C483.1 270.897 479.155 286.087 475.403 301.308C472.812 311.812 469.709 322.192 467.353 332.745C464.738 344.442 462.778 356.282 460.361 368.028C460.015 369.71 460.237 370.674 461.165 372.121C464.145 376.745 466.982 381.493 469.418 386.421C471.05 389.722 469.9 391.348 466.692 393.302C464.806 394.451 462.358 396.084 461.937 397.907C461.356 400.454 462.432 403.385 462.76 405.877C471.143 403.49 479.137 401.209 486.846 399.014C484.454 398.625 481.758 398.179 479.056 397.74C479.069 397.462 479.081 397.184 479.093 396.912C479.842 396.714 480.608 396.294 481.338 396.349C484.379 396.597 487.409 396.974 490.438 397.339C492.46 397.586 494.432 398.019 496.144 396.244C496.775 395.589 497.919 395.119 498.834 395.113C507.835 395.063 516.849 394.835 525.832 395.249C533.851 395.62 541.838 396.751 549.844 397.475C550.209 397.506 550.642 396.807 551.044 396.448C551.013 396.467 551.105 396.523 551.31 396.615C551.248 396.918 551.186 397.221 551.13 397.518C551.841 397.537 552.546 397.549 553.257 397.567C553.807 397.574 554.357 397.58 554.908 397.586C558.376 398.074 561.844 398.587 565.319 399.051C569.665 399.632 574.017 400.183 578.611 400.776V394.668C579.643 395.224 580.577 395.416 580.904 395.966C581.857 397.567 582.568 398.674 584.867 397.666C586.431 396.98 589.022 398.037 590.166 397.104C595.445 392.782 600.379 388.04 605.374 383.496C602.258 381.351 599.507 379.459 596.886 377.654C598.932 372.312 599.229 373.444 603.037 374.773C605.615 375.67 607.989 377.314 610.252 378.915C613.838 381.444 613.417 384.603 609.745 386.897C604.608 390.099 599.674 393.629 594.66 397.023C606.098 397.629 617.312 397.005 627.952 400.38C630.06 399.261 632.119 398.173 634.406 396.961C633.887 396.615 633.386 396.455 633.164 396.115C627.303 387.286 620.873 378.767 615.81 369.493C611.643 361.864 608.96 353.401 605.943 345.19C605.238 343.274 605.838 340.881 605.838 338.13C606.821 338.81 607.352 338.977 607.532 339.323C608.83 341.901 610.042 344.529 611.309 347.126C614.264 353.184 617.238 359.237 620.206 365.295C624.175 371.546 628.218 377.753 632.088 384.065C634.165 387.453 636.088 390.958 637.831 394.532C639.451 397.852 638.753 399.892 635.532 402.723C640.774 410.495 643.587 419.286 645.726 428.288C646.375 431.014 646.097 434.031 645.819 436.875C645.72 437.882 644.36 438.76 643.068 440.312C644.978 439.669 646.456 439.428 647.649 438.717C650.852 436.807 653.51 437.239 656.212 439.768C660.774 444.04 664.372 448.677 663.773 455.397C662.802 456.634 661.658 457.777 660.916 459.131C660.515 459.867 660.78 460.974 660.743 461.913C661.974 464.813 663.204 467.712 664.434 470.612C665.485 473.252 666.542 475.898 667.593 478.538C668.15 483.162 669.151 487.786 669.114 492.411C669.09 495.805 667.698 499.18 666.919 502.568C666.499 503.582 666.085 504.602 665.664 505.616C665.256 506.241 664.842 506.859 664.434 507.483C663.618 508.528 662.796 509.573 661.98 510.618C661.776 510.822 661.584 511.044 661.355 511.224C655.575 515.86 656.657 521.542 658.091 527.836C659.791 535.285 660.267 543.001 661.411 550.581C662.462 557.53 663.785 564.441 664.842 571.397C665.844 577.981 666.685 584.596 667.562 591.199C668.255 596.404 668.935 601.61 669.541 606.828C669.98 610.642 670.641 614.481 670.573 618.296C670.481 623.378 671.587 627.996 673.992 632.416C675.878 635.885 675.068 637.109 671.006 637.43C669.238 637.573 667.482 637.838 666.487 637.962C667.668 648.954 668.811 659.606 670.011 670.809C670.79 670.846 672.236 670.66 673.497 671.056C674.332 671.322 675.346 672.323 675.525 673.158C676.304 676.812 677.201 680.515 677.337 684.224C677.615 692.033 677.72 699.866 677.368 707.662C677.009 715.606 674.208 722.932 670.221 729.961C670.851 730.091 671.476 730.221 672.391 730.407C671.729 731.037 671.315 731.699 670.728 731.946C667.21 733.424 663.624 734.753 660.125 736.274C659.439 736.57 658.443 737.72 658.586 738.104C660.397 742.969 657.213 745.498 654.091 748.045C653.201 748.768 652.162 749.312 651.192 749.937C651.303 750.203 651.414 750.468 651.525 750.728C653.244 750.11 654.938 749.436 656.688 748.91C657.337 748.719 658.116 748.762 658.79 748.91C660.02 749.176 661.355 749.374 662.382 750.023C663.266 750.58 664.403 751.736 664.379 752.595C664.125 761.467 663.711 770.338 663.229 779.204C662.926 784.675 662.45 790.14 661.992 795.606C661.627 799.927 661.986 804.545 660.508 808.459C659.303 811.649 655.896 814.029 653.374 816.675C652.657 817.429 651.612 817.875 650.901 818.338C653.46 825.034 653.658 831.797 653.188 838.573C652.873 843.086 652.28 847.612 651.42 852.051C650.821 855.129 650.295 858.666 645.869 858.882C651.76 868.687 654.066 879.661 657.547 890.152C662.134 903.976 666.141 917.991 670.32 931.945C673.782 943.512 677.139 955.116 680.403 966.226C684.082 966.053 688.026 965.521 691.915 965.781C697.343 966.14 700.044 969.657 701.027 974.863C701.38 976.742 702.412 978.498 702.802 979.463C708.681 979.395 713.949 979.234 719.21 979.302C722.987 979.351 725.615 981.169 726.103 985.138C726.591 989.113 724.953 992.489 721.701 994.492C719.068 996.112 715.884 996.934 712.854 997.781C711.061 998.282 710.029 998.819 711.445 1000.53C717.077 1007.31 722.734 1014.07 728.539 1020.71C730.53 1022.98 732.848 1025.04 735.309 1026.79C736.483 1027.62 738.338 1027.49 739.89 1027.8C746.573 1029.17 751.556 1032.96 755.061 1038.71C755.914 1040.11 756.341 1040.81 758.264 1040.07C760.922 1039.04 763.098 1040.99 763.432 1043.89C763.927 1048.19 764.434 1052.51 765.206 1056.77C766.826 1065.66 760.965 1073.45 751.327 1075.14C747.092 1075.88 742.888 1076.84 738.672 1077.7C736.817 1077.9 734.962 1078.11 733.108 1078.32C726.721 1078.73 720.329 1079.14 713.942 1079.55L710.876 1080C710.252 1079.81 709.602 1079.42 708.997 1079.49C701.522 1080.24 694.623 1078.05 688.131 1074.84C679.736 1070.69 671.34 1066.42 663.464 1061.4C657.819 1057.79 653.034 1052.86 647.865 1048.52C644.397 1045 640.929 1041.48 637.461 1037.97C637.763 1033.98 638.648 1030.23 641.535 1027.21C641.955 1026.77 642.277 1025.89 642.147 1025.33C640.107 1016.56 641.559 1007.78 642.048 999.011C642.283 994.782 642.808 990.548 643.532 986.374C644.088 983.178 645.176 980.075 646.159 976.439C648.144 976.099 649.498 974.745 650.641 971.871C651.563 969.546 655.309 968.347 658.011 966.504C654.889 956.878 651.464 946.504 648.156 936.087C645.083 926.418 642.159 916.706 639.124 907.024C636.063 897.262 632.867 887.537 629.881 877.757C628.459 873.089 627.464 868.292 626.079 863.605C625.862 862.863 624.663 861.998 623.847 861.918C619.352 861.479 613.257 856.236 612.651 851.76C612.527 850.87 613.281 849.386 614.06 848.941C615.934 847.884 618.066 847.278 620.589 846.301C620.589 842.969 620.527 838.975 620.614 834.987C620.663 832.978 621.294 830.944 621.096 828.978C620.941 827.432 620.125 825.831 619.241 824.502C616.614 820.545 616.546 820.595 618.648 816.168C616.397 815.507 613.974 815.204 612.045 814.066C610.808 813.337 609.51 811.327 609.597 809.973C610.073 802.079 610.642 794.159 611.804 786.338C612.546 781.343 614.468 776.539 615.587 771.581C615.822 770.555 614.926 769.207 614.394 768.082C612.447 763.964 612.045 758.957 607.285 756.434C607.285 756.094 607.285 755.754 607.285 755.42C612.465 753.145 617.652 750.87 622.629 748.682V740.663C619.995 740.663 617.745 740.533 615.513 740.688C608.212 741.182 603.254 737.553 598.982 732.063C593.269 724.719 591.043 715.89 587.829 707.464C586.067 702.839 584.2 698.252 582.598 693.572C582.351 692.849 582.994 691.316 583.686 690.883C585.084 690.005 586.79 689.622 588.404 689.022C585.955 684.119 583.445 679.155 580.997 674.153C579.507 671.112 578.135 668.014 576.682 664.948C576.07 663.65 575.365 663.062 573.653 663.6C568.7 665.158 566.84 664.33 564.373 659.823C563.044 657.399 560.435 654.574 560.892 652.472C562.561 644.787 557.418 639.019 556.231 632.212C555.322 627.007 552.973 622.018 552.342 616.806C551.829 612.583 552.738 608.138 553.344 603.842C554.407 596.324 555.662 588.831 556.942 581.35C558.166 574.209 559.606 567.1 560.793 559.953C561.819 553.771 562.617 547.557 563.52 541.35C563.204 541.251 562.889 541.152 562.574 541.06C561.745 542.976 560.564 544.819 560.156 546.822C557.745 558.754 555.229 570.679 553.306 582.698C551.823 591.984 551.068 601.393 550.166 610.766C549.733 615.242 550.03 619.804 549.436 624.25C548.484 631.365 547.068 638.413 545.733 646.129C546.129 646.382 547.235 647.093 548.342 647.798C550.351 649.065 551.186 650.753 550.277 653.09C549.245 655.755 548.379 658.5 547.112 661.041C546.691 661.875 545.269 662.599 544.255 662.673C541.313 662.889 538.339 662.747 536.317 662.747C535.662 668.299 535.489 673.56 534.357 678.605C531.866 689.727 528.633 700.682 526.197 711.81C524.305 720.453 523.254 729.269 521.64 737.98C521.053 741.139 519.909 744.199 519.069 747.315C518.939 747.798 518.957 748.366 519.05 748.867C521.053 760.125 520.583 771.408 519.934 782.759C519.316 793.615 519.254 804.514 519.273 815.395C519.285 825.065 519.916 834.734 519.953 844.409C520.014 860.261 519.841 876.118 519.699 891.97C519.668 895.679 519.235 899.389 519.26 903.098C519.291 907.679 519.761 912.254 519.786 916.835C519.866 931.772 519.835 946.708 519.829 961.645C519.829 962.504 519.674 963.358 519.594 964.198C522.147 964.687 524.861 964.965 527.409 965.769C529.418 966.405 530.203 968.161 529.504 970.313C528.936 972.069 528.565 973.602 525.851 972.73C517.956 970.195 510.642 971.37 505.078 977.874C503.124 980.155 502.302 983.395 500.96 986.195C501.375 986.152 501.783 986.109 502.197 986.065C502.976 987.259 504.299 988.396 504.423 989.651C504.645 991.889 505.869 991.84 507.372 991.636C512.453 990.949 517.535 990.22 522.747 989.484C522.945 986.597 522.889 983.444 523.452 980.396C523.99 977.46 525.597 977.187 527.631 979.333C528.045 979.772 528.546 980.143 529.01 980.538C529.368 980.847 529.739 981.15 529.906 981.293C535.613 977.064 541.572 978.541 547.563 980.569C549.003 981.633 549.919 982.956 549.628 984.854C550.487 989.243 548.212 993.472 544.2 994.844C543.73 995.005 543.025 995.036 542.679 994.789C542.419 994.603 542.382 993.781 542.555 993.379C543.452 991.308 544.447 989.274 545.789 986.418C540.67 985.478 536.021 984.625 531.378 983.772C531.124 984.062 530.871 984.359 530.617 984.65C531.421 986.776 532.218 988.903 533.22 991.543C531.619 994.133 533.715 997.552 533.925 1000.98C534.203 1002.61 534.481 1004.24 534.759 1005.87C534.957 1006.6 534.926 1007.74 535.39 1008.01C542.407 1012.05 546.45 1018.87 551.359 1024.88C552.317 1026.05 553.238 1027.26 554.178 1028.45C555.514 1030.13 555.934 1031.78 553.918 1033.26C562.951 1038.32 570.098 1044.79 572.144 1055.81C574.963 1056.15 577.85 1056.96 578.067 1060.88C577.863 1062.32 577.653 1063.77 577.449 1065.21C576.088 1067.05 574.926 1069.11 573.282 1070.65C572.354 1071.52 570.629 1071.55 569.257 1071.92C568.867 1072.02 568.391 1071.88 568.039 1072.03C561.368 1074.94 554.215 1075.07 547.149 1075.74C546.073 1075.84 545.022 1076.18 543.959 1076.41C542.104 1076.43 540.249 1076.43 538.395 1076.45C535.823 1076.62 533.251 1076.75 530.685 1076.97C529.127 1077.11 527.582 1077.39 526.03 1077.61C524.175 1077.84 522.32 1078.06 520.466 1078.29C515.52 1078.09 510.574 1077.89 505.628 1077.68C504.169 1077.87 502.71 1078.07 501.251 1078.26C498.382 1077.83 495.501 1077.48 492.651 1076.94C485.233 1075.53 477.777 1074.25 470.451 1072.45C467.588 1071.75 465.035 1069.79 462.345 1068.4C461.907 1067.54 461.468 1066.68 461.029 1065.82C462.302 1063.7 463.613 1061.61 464.818 1059.46C465.196 1058.78 465.294 1057.95 465.517 1057.19C466.531 1055.56 467.551 1053.92 468.565 1052.29C471.038 1051.5 473.505 1050.71 476.237 1049.83C474.617 1045.16 473.158 1040.95 471.699 1036.74L470.457 1033.09L470.432 1033.11C470.587 1033.02 470.735 1032.93 470.89 1032.84C470.741 1032.67 470.587 1032.5 470.438 1032.33C470.148 1030.73 469.937 1029.12 469.548 1027.56C468.676 1024.06 469.029 1021.01 471.458 1018.02C474.815 1013.88 477.727 1009.39 480.787 1005.01C481.165 1004.48 481.542 1003.74 481.48 1003.13C480.905 997.342 480.237 991.555 479.576 985.775C479.563 985.645 479.279 985.54 479.124 985.429C478.865 983.58 478.605 981.738 478.345 979.889C478.166 977.898 477.937 975.908 477.832 973.911C477.746 972.242 477.814 970.566 477.814 968.303C484.107 969.627 489.461 970.653 494.753 971.92C496.342 972.297 497.77 973.336 499.384 974.127C502.543 969.577 506.976 966.22 512.874 965.07C514.494 964.755 515.007 963.988 514.945 962.368C514.642 954.406 514.432 946.437 514.197 938.467C514.011 935.58 513.826 932.699 513.64 929.812C513.616 915.179 513.591 900.551 513.566 885.917C513.424 884.057 513.276 882.19 513.133 880.329C513.133 879.519 513.133 878.715 513.133 877.905L512.515 874.196L513.405 866.752C513.43 865.306 513.449 863.865 513.474 862.418C513.443 862.01 513.418 861.596 513.387 861.188C513.424 859.741 513.461 858.301 513.498 856.854C513.436 853.992 513.368 851.135 513.307 848.273C513.251 846.394 513.195 844.514 513.14 842.635C513.115 834.987 513.09 827.34 513.053 819.692C513.041 817.034 512.985 814.375 512.954 811.723C512.929 809.868 512.905 808.014 512.88 806.159C512.942 801.417 512.997 796.681 513.059 791.94C513.232 789.881 513.406 787.816 513.579 785.757C513.844 781.436 514.11 777.12 514.376 772.799C514.376 771.767 514.376 770.74 514.376 769.708C514.586 767.878 514.951 766.042 514.97 764.205C515.013 760.057 514.883 755.903 514.821 751.748V749.937C513.065 749.448 511.576 749.028 510.079 748.614C509.888 747.68 509.307 746.623 509.554 745.825C513.004 734.759 515.044 723.414 516.88 711.983C518.302 703.136 520.657 694.444 522.593 685.683C523.297 683.186 524.002 680.682 524.701 678.184C525.35 675.507 525.999 672.824 526.648 670.147C526.617 669.733 526.586 669.325 526.555 668.911C526.407 668.299 526.259 667.693 526.11 667.081C526.543 666.679 526.976 666.271 527.402 665.869C528.014 665.14 528.626 664.41 528.917 664.07C525.053 664.07 521.22 664.07 517.387 664.07C515.928 664.194 514.469 664.317 513.01 664.435C500.88 664.484 488.744 664.546 476.614 664.577C469.468 664.596 462.321 664.577 455.298 664.577C457.115 674.314 459.063 683.328 460.417 692.435C461.455 699.427 462.247 706.53 462.203 713.578C462.172 719.136 460.719 724.688 459.854 730.24C459.699 731.223 459.347 732.169 459.087 733.133C457.826 737.454 456.565 741.776 455.304 746.091C454.803 747.773 454.308 749.448 453.808 751.13C453.801 751.544 453.789 751.952 453.783 752.366C453.251 754.988 452.571 757.584 452.219 760.23C451.613 764.805 451.205 769.411 450.717 774.005C450.512 775.859 450.302 777.714 450.098 779.569L450.049 779.661ZM528.435 545.938C527.316 546.222 526.197 546.513 525.072 546.797C511.421 551.836 497.3 555.607 483.922 561.437C484.342 561.913 484.658 562.049 484.899 561.969C492.039 559.526 499.205 557.152 506.302 554.581C512.713 552.25 519.038 549.696 525.405 547.242C526.531 546.945 527.656 546.649 528.775 546.346C529.065 546.117 529.362 545.888 529.653 545.666C529.572 545.548 529.498 545.431 529.418 545.313L528.429 545.938H528.435ZM522.599 527.205C523.068 527.248 523.532 527.298 524.002 527.341C524.021 527.205 524.039 527.069 524.058 526.927C523.705 526.853 523.353 526.772 523.001 526.698C523.699 525.66 524.398 524.627 525.103 523.588C526.154 523.013 527.149 522.222 528.268 521.938C529.158 521.715 530.5 521.765 531.136 522.296C534.722 525.307 538.03 528.658 541.684 531.582C544.633 533.944 547.854 536.009 551.112 537.944C553.189 539.174 553.894 538.902 555.328 537.659C546.901 531.18 538.45 524.683 530.537 518.599C528.082 520.472 526.395 521.758 524.707 523.044C521.925 524.299 521.35 525.431 522.605 527.211L522.599 527.205ZM438.234 523.125C439.934 517.542 441.635 511.966 443.341 506.383C442.933 506.265 442.525 506.148 442.117 506.031C440.664 511.626 439.205 517.214 437.752 522.809C437.715 523.471 437.678 524.126 437.641 524.788C437.783 524.8 437.919 524.806 438.061 524.819C438.117 524.256 438.179 523.694 438.234 523.131V523.125ZM495.087 53.2228C495.229 53.3897 495.378 53.5628 495.52 53.7298C495.551 53.637 495.582 53.5505 495.613 53.4578C495.415 53.4083 495.223 53.3527 495.025 53.3032C494.314 46.0637 499.137 44.1039 504.54 43.3064C505.096 41.192 505.09 39.0776 506.117 37.7916C508.113 35.3125 508.719 32.3327 510.086 29.6619C511.909 26.1009 515.167 23.764 519.044 23.0406C523.044 22.2926 527.186 22.3296 531.26 22.0205C530.401 21.3342 529.412 21.0623 528.441 20.7346C524.021 19.22 519.749 18.8118 515.687 21.8535C511.075 25.3095 506.246 28.4934 501.752 32.0915C497.721 35.3187 495.149 39.7082 493.492 44.5799C492.373 47.8689 493.233 52.0852 495.081 53.2228H495.087ZM640.162 435.737C640.366 435.607 640.564 435.484 640.768 435.354C640.7 435.286 640.638 435.218 640.57 435.144L640.181 435.787C640.088 434.958 640.181 434.068 639.884 433.32C635.952 423.379 631.964 413.456 628.15 403.935C625.399 407.422 620.923 405.784 616.892 406.402C619.655 413.852 624.329 420.059 628.502 426.575C629.887 428.739 631.532 430.037 633.862 431.101C636.187 432.164 638.079 434.161 640.162 435.737ZM497.845 976.044C493.659 975.735 489.467 975.426 485.362 975.123C487.087 983.011 486.518 990.739 486.098 998.467C485.974 1000.69 486.012 1002.91 485.913 1005.14C485.807 1007.48 486.216 1010.07 485.356 1012.11C483.718 1015.97 481.307 1019.5 479.285 1023.21C478.828 1024.04 478.339 1025.09 478.444 1025.97C478.871 1029.69 479.699 1033.37 480.027 1037.09C480.503 1042.47 480.67 1047.86 480.967 1053.26C485.919 1053.64 491.452 1054.07 496.392 1054.45C498.71 1045.18 505.313 1039.45 512.181 1034.11C508.559 1030.63 504.973 1027.12 501.3 1023.69C499.019 1021.56 496.299 1019.7 498.154 1015.92C498.277 1015.67 498.185 1015.31 498.166 1015C497.758 1008.8 497.263 1002.62 496.985 996.415C496.892 994.411 497.956 992.229 497.486 990.393C496.237 985.534 497.603 980.953 498.185 976.266C498.376 975.976 498.574 975.685 498.766 975.395C498.667 975.327 498.574 975.265 498.475 975.197C498.265 975.475 498.061 975.759 497.851 976.038L497.845 976.044ZM383.724 308.585C403.205 318.94 423.081 329.512 443.761 340.511C442.142 340.863 441.072 341.395 440.101 341.246C438.098 340.949 436.07 340.504 434.197 339.75C423.959 335.602 413.659 331.583 403.601 327.033C395.242 323.249 386.531 319.831 380.337 312.09C379.069 314.05 378.055 316.047 376.646 317.698C375.137 319.472 373.233 320.906 371.551 322.538C371.304 322.78 371.317 323.311 371.267 323.713C371.088 325.135 370.266 327.039 370.884 327.886C372.658 330.316 374.649 333.067 377.227 334.322C381.876 336.579 387.057 337.722 391.941 339.54C406.748 345.048 420.794 352.195 434.531 359.942C436.472 361.036 438.346 362.538 437.999 365.673C436.559 365.122 435.39 364.677 434.203 364.22C432.472 379.249 421.307 395.645 414.346 399.131C418.593 406.05 422.84 412.968 427.322 420.263C428.052 416.961 428.509 414.371 429.196 411.836C434.605 391.719 440.101 371.626 445.443 351.497C446.086 349.085 446.822 346.186 446.08 343.997C440.893 328.795 438.723 312.919 435.217 297.352C434.785 295.435 434.933 293.382 434.815 291.392C435.193 291.33 435.564 291.262 435.941 291.2C439.879 299.237 441.152 308.053 442.692 316.783C444.225 325.512 445.746 334.242 447.273 342.99C447.526 342.767 447.904 342.606 447.972 342.359C452.114 327.54 456.423 312.764 460.268 297.865C462.58 288.906 464.355 279.8 465.993 270.687C467.341 263.206 468.052 255.615 469.171 248.091C470.327 240.301 469.634 232.758 467.557 225.135C465.455 217.432 460.151 214.928 453.029 214.489C452.596 214.465 452.176 213.982 451.761 214.001C446.074 214.273 441.369 216.332 438.21 221.346C429.523 235.108 420.714 248.795 412.095 262.601C402.574 277.852 393.208 293.197 383.731 308.572L383.724 308.585ZM365.53 522.878C366.544 523.323 366.977 523.551 367.434 523.706C375.632 526.414 383.551 529.666 390.896 534.321C397.993 538.816 405.332 542.921 412.503 547.298C413.684 548.015 414.55 549.245 415.557 550.241C415.36 550.562 415.168 550.883 414.97 551.205C412.503 550.457 409.882 550.024 407.607 548.893C401.437 545.814 395.508 542.241 389.307 539.217C380.8 535.069 372.139 531.236 363.539 527.279C362.97 527.02 362.364 526.834 362.327 526.822C357.691 543.193 353.122 559.322 348.497 575.638C353.876 578.123 359.552 580.689 365.177 583.366C376.318 588.676 387.403 594.092 398.556 599.378C401.363 600.707 404.355 601.628 407.187 602.902C408.429 603.458 409.4 604.806 410.661 605.134C414.457 606.129 418.34 606.791 422.185 607.594C424.033 607.984 426.179 609.202 427.662 608.645C431.298 607.285 434.624 605.109 437.356 603.65C437.016 601.974 436.275 600.546 436.553 599.353C438.426 591.359 440.343 583.366 442.581 575.465C444.652 568.139 447.131 560.924 449.554 553.251C439.415 546.902 429.863 550.679 420.33 556.509C421.789 551.31 426.092 549.406 430.043 547.273C434.228 545.01 438.809 544.367 443.669 545.103C442.754 544.04 441.894 543.075 440.825 542.692C433.109 539.947 425.369 537.276 417.585 534.729C416.918 534.513 415.904 535.366 415.298 535.619C417.808 537.672 420.046 539.422 422.16 541.307C422.556 541.66 422.451 542.581 422.581 543.236C421.919 543.329 421.22 543.613 420.602 543.483C418.958 543.143 417.264 542.816 415.749 542.135C413.017 540.918 410.247 539.65 409.697 536.095C409.598 535.458 408.683 534.822 408.003 534.42C405.493 532.93 402.853 531.638 400.417 530.037C399.632 529.523 399.558 527.854 398.772 527.434C395.1 525.462 391.292 523.743 387.298 521.82C386.426 524.423 384.491 524.813 382.513 523.502C382.142 523.255 383.131 520.942 383.576 519.273C382.803 518.878 381.344 517.468 380.38 517.746C375.502 519.168 370.748 521.023 365.536 522.878H365.53ZM591.996 694.277C595.612 703.897 598.716 713.554 602.858 722.734C606.518 730.839 610.858 737.028 622.815 736.366C628.719 736.039 634.623 735.693 640.502 735.111C647.334 734.438 654.147 733.523 660.96 732.651C662.128 732.503 663.878 732.404 664.311 731.668C666.413 728.082 669.127 724.459 669.825 720.527C671.161 713.084 671.556 705.43 671.797 697.844C672.008 691.408 671.445 684.948 671.247 678.493C671.173 675.99 669.17 675.656 667.587 675.884C660.817 676.88 654.017 677.838 647.371 679.402C634.066 682.53 620.83 685.968 607.612 689.449C602.215 690.87 596.929 692.731 592.002 694.271L591.996 694.277ZM647.544 1026.79C649.43 1027.87 651.266 1028.64 652.762 1029.82C659.451 1035.14 665.98 1040.66 672.706 1045.94C677.182 1049.45 681.943 1052.59 686.48 1056.04C688.242 1057.37 688.348 1058.48 687.334 1059.72C686.072 1061.25 684.904 1063.31 682.45 1061.9C678.709 1059.75 675.031 1057.5 671.395 1055.18C661.788 1049.04 652.824 1042.1 644.453 1033.85C644.113 1035.52 643.624 1037.79 644.484 1038.57C655.624 1048.73 667.154 1058.38 680.768 1065.19C689.015 1069.32 697.398 1072.35 706.913 1071.25C714.177 1070.41 721.516 1070.16 728.817 1069.62C739.265 1068.84 749.714 1068.03 760.632 1067.2C760.18 1061.42 759.766 1056.04 759.358 1050.83C756.335 1052.29 753.837 1053.88 751.104 1054.75C736.836 1059.3 722.319 1062.49 707.197 1060.9C702.486 1060.4 697.844 1059.3 693.164 1058.49C691.494 1058.21 690.938 1057.49 690.963 1055.59C691.024 1051.52 692.725 1048.14 694.987 1045.1C697.133 1042.22 699.847 1039.75 702.134 1037.3C689.287 1026.28 681.287 1011.77 674.332 996.718C670.567 998.387 667.13 1000.04 663.575 1001.39C662.654 1001.74 661.04 1001.51 660.317 1000.88C659.179 999.901 659.389 998.461 660.805 997.571C664.403 995.32 668.032 993.107 671.736 990.826C667.717 980.68 658.536 981.929 650.202 981.818C651.253 997.194 649.12 1012.17 647.544 1026.79ZM591.334 688.027C615.587 681.486 639.55 674.623 664.243 671.124C663.062 661.084 661.868 650.926 660.681 640.787C634.27 647.761 606.697 651.934 580.503 661.306C585.071 669.832 590.036 678.122 591.34 688.027H591.334ZM588.941 62.3851C585.418 63.2815 582.036 63.943 578.79 65.0187C572.552 67.0836 565.653 66.552 559.798 70.4221C557.418 71.9986 554.438 72.351 553.251 75.6524C552.855 76.7528 550.778 77.2042 549.548 78.0759C548.225 79.0095 546.765 79.8935 545.782 81.13C543.421 84.079 541.43 87.3432 537.238 88.0418C536.725 88.1284 536.082 88.8579 535.915 89.4143C533.98 95.7883 532.126 102.187 530.16 108.876C531.402 108.289 532.342 107.801 533.319 107.399C538.858 105.13 544.361 102.731 549.993 100.716C551.52 100.172 553.603 101.254 555.18 100.765C562.691 98.4468 570.376 97.8965 578.098 98.4468C583.903 98.861 589.696 100.135 594.283 104.06C596.057 105.581 597.665 105.971 599.779 105.705C601.887 105.439 604.033 105.445 606.128 105.136C607.13 104.988 608.169 104.549 609.016 103.98C611.742 102.131 614.388 100.165 617.158 98.181C616.898 97.2598 616.49 95.8378 616.088 94.4158C613.869 94.7188 611.804 95.164 609.72 95.232C608.645 95.2691 607.55 94.6447 606.468 94.3232C607.111 92.9754 607.519 91.4174 608.478 90.354C609.349 89.3772 610.821 88.9383 611.532 88.5426C610.567 84.487 609.943 80.7404 608.744 77.1856C607.995 74.9661 607.785 72.5426 605.473 70.7188C603.396 69.0867 601.288 69.1176 599.105 68.7158C595.093 67.9677 591.013 67.4051 588.948 62.3912L588.941 62.3851ZM407.428 607.056C395.898 623.891 384.565 640.435 373.233 656.979C373.555 656.966 373.87 656.948 374.191 656.935C374.711 658.512 375.18 660.113 375.768 661.665C376.312 663.099 376.615 665.294 377.66 665.77C388.949 670.895 400.646 673.696 412.88 669.517C417.177 668.051 420.627 665.838 422.321 660.571C426.908 646.327 432.441 632.379 437.647 618.185C434.618 616.453 431.254 614.481 427.829 612.608C426.544 611.903 425.14 610.982 423.774 610.951C418.006 610.809 412.398 610.203 407.428 607.056ZM465.468 212.795C466.24 213.871 466.84 214.656 467.378 215.479C473.474 224.795 475.248 235.083 474.061 245.982C473.109 254.737 472.268 263.516 470.908 272.214C468.25 289.259 463.44 305.797 458.704 322.365C453.95 339.002 449.95 355.855 445.567 372.597C441.084 389.722 436.534 406.829 432.04 423.954C431.823 424.77 431.502 425.87 431.854 426.464C433.295 428.856 434.976 431.107 436.961 433.969C436.961 432.733 436.862 432.213 436.973 431.743C441.072 414.705 445.251 397.691 449.295 380.64C452.213 368.337 454.877 355.973 457.801 343.67C461.486 328.152 465.486 312.708 469.053 297.166C473.214 279.052 478.16 261.092 480.361 242.557C481.214 235.38 481.146 228.363 478.84 221.5C476.169 213.55 474.803 212.678 466.364 212.752C466.16 212.752 465.956 212.777 465.455 212.808L465.468 212.795ZM566.79 1057.01C558.945 1057.53 550.988 1058.06 543.025 1058.56C533.962 1059.13 524.898 1059.68 515.829 1060.24C508.212 1060.71 501.004 1056.86 493.208 1058.37C489.69 1059.05 485.931 1058.49 482.055 1058.49C481.702 1061.18 481.288 1064.32 480.88 1067.43C509.177 1072.09 537.245 1072.61 565.059 1068.64C565.671 1064.51 566.197 1060.93 566.778 1057.01H566.79ZM632.985 861.479C633.825 863.933 634.697 866.27 635.427 868.644C640.243 884.304 645.127 899.945 649.788 915.654C654.802 932.539 659.538 949.509 664.564 966.393C665.337 968.99 665.331 972.279 667.964 973.305C670.629 971.277 672.997 969.472 675.142 967.834C663.056 932.372 651.247 896.656 641.343 860.193C638.969 860.557 635.989 861.009 632.985 861.472V861.479ZM697.368 1055.55C701.708 1055.93 705.85 1056.5 710.004 1056.59C721.343 1056.83 732.508 1055.15 743.568 1052.84C746.35 1052.26 749.046 1051.03 751.63 1049.78C754.301 1048.49 754.802 1046.63 753.448 1044.67C752.44 1043.22 751.259 1041.83 750.492 1040.25C749.07 1037.33 746.839 1035.46 743.865 1034.41C736.601 1031.85 729.442 1032.88 722.462 1035.44C712.057 1039.25 703.222 1045.19 697.368 1055.55ZM566.234 1054.73C565.541 1053.4 564.843 1051.46 563.643 1049.91C561.207 1046.76 559.044 1042.88 555.786 1040.96C548.064 1036.45 539.186 1035.93 530.494 1036.96C519.031 1038.31 511.05 1045.64 503.198 1054.73H566.228H566.234ZM515.662 1032.3C524.744 1028.15 534.5 1029.02 544.175 1030.5C540.546 1027.47 536.187 1024.98 533.492 1021.28C529.912 1016.38 526.407 1015.36 521.084 1017.87C517.239 1019.68 513.171 1019.53 509.647 1016.78C508.695 1016.04 508.188 1014.71 507.483 1013.66C508.577 1012.94 509.597 1011.81 510.784 1011.57C516.361 1010.48 521.987 1009.64 527.625 1008.71C526.988 1006.84 526.339 1004.96 525.708 1003.12C524.268 1003.38 522.908 1003.7 521.529 1003.86C517.084 1004.38 512.639 1004.87 508.188 1005.28C507.582 1005.34 506.933 1004.88 506.296 1004.66C506.574 1003.98 506.673 1002.9 507.161 1002.68C509.171 1001.77 511.242 1000.81 513.387 1000.44C517.133 999.796 520.954 999.58 524.892 999.172C524.324 996.866 523.848 994.949 523.347 992.897C516.967 993.651 510.753 994.387 504.651 995.104C504.132 1000.82 503.569 1006.4 503.161 1012C503.062 1013.34 503.056 1015.05 503.773 1016.01C506.147 1019.18 509.016 1021.97 511.409 1025.13C513.041 1027.27 514.197 1029.78 515.668 1032.3H515.662ZM646.159 856.446C643.822 844.539 644.743 832.873 644.941 820.935C637.566 823.612 630.425 822.153 623.631 818.876C622.431 821.368 622.963 824.279 624.737 823.797C627.736 822.981 629.603 824.496 631.581 825.522C634.085 826.827 637.665 827.488 637.763 832.31C634.988 831.933 632.459 831.587 630.66 831.346C629.751 836.861 628.954 842.381 627.866 847.84C627.556 849.404 626.623 850.82 624.267 850.357C622.734 850.054 621.028 850.653 619.371 850.851C620.836 856.712 623.303 858.301 628.799 857.608C632.329 857.163 635.915 857.163 639.476 856.935C641.794 856.786 644.107 856.601 646.165 856.446H646.159ZM683.303 1002.72C688.712 1001.26 693.825 999.926 698.895 998.442C699.494 998.263 700.286 997.218 700.255 996.612C699.797 987.654 697.219 986.307 689.126 991.203C687.81 984.266 694.783 985.045 697.374 981.756C695.655 978.387 693.992 974.869 692.044 971.506C691.606 970.745 690.072 969.991 689.262 970.177C685.769 970.98 682.338 972.075 678.919 973.181C676.78 973.874 675.902 975.667 676.292 977.713C676.842 980.643 677.924 983.469 678.493 986.399C678.895 988.464 680.62 990.857 677.627 992.378C679.612 995.994 681.479 999.401 683.303 1002.72ZM406.154 526.797C408.238 527.712 410.939 528.893 414.259 530.346C414.908 526.71 415.149 523.391 416.126 520.293C418.803 511.799 421.709 503.366 424.689 494.97C426.173 490.791 428.021 486.742 429.672 482.723C426.222 480.782 423.094 479.014 419.897 477.215C419.57 477.913 419.23 478.439 419.069 479.014C417.387 484.875 415.842 490.779 414.043 496.596C412.8 500.602 410.89 504.417 409.863 508.466C408.398 514.241 407.471 520.151 406.16 526.785L406.154 526.797ZM710.728 1014.94C705.201 1016.79 699.389 1018.74 693.207 1020.8C695.902 1024.77 698.499 1028.48 700.966 1032.28C701.856 1033.65 702.443 1035.21 702.932 1036.2C710.468 1033.21 718.499 1030.01 725.93 1027.05C721.126 1023.23 715.921 1019.09 710.721 1014.94H710.728ZM509.783 186.551L510.518 186.966C515.477 179.615 520.441 172.258 525.554 164.678C522.333 165.309 519.582 165.841 516.373 166.465C518.463 162.428 520.286 158.892 522.45 154.706C518.679 156.777 515.582 158.446 512.528 160.177C511.971 160.493 511.353 161.006 511.13 161.568C509.838 164.919 508.657 168.313 507.328 172.004C509.838 171.769 512.027 171.565 514.525 171.33C512.868 176.647 511.328 181.593 509.783 186.539V186.551ZM458.482 409.493C457.591 408.764 456.447 408.003 455.52 407.033C453.177 404.578 453.659 399.138 455.805 397.635C458.321 395.88 460.429 393.53 462.63 391.354C462.92 391.064 462.933 390.149 462.704 389.722C461.115 386.748 459.434 383.824 457.628 380.609C453.74 394.958 449.968 408.906 446.142 423.033C450.271 418.501 454.376 413.988 458.482 409.487V409.493ZM639.272 452.844C638.994 455.292 638.709 457.784 638.382 460.714C640.02 460.906 641.726 461.672 642.709 461.128C647.148 458.674 651.383 455.848 655.94 453.005C653.318 449.746 650.617 446.383 647.94 443.057C643.569 444.065 641.986 447.861 639.915 450.983C643.148 452.176 646.283 453.338 649.417 454.494C649.337 454.729 649.263 454.958 649.182 455.193C645.881 454.408 642.573 453.629 639.278 452.844H639.272ZM580.781 428.009C580.243 428.145 579.705 428.288 579.167 428.424C582.549 451.818 585.931 475.218 589.312 498.612C589.622 498.575 589.931 498.537 590.234 498.5C590.234 497.066 590.37 495.619 590.209 494.204C589.671 489.48 588.997 484.769 588.428 480.046C587.557 472.8 586.821 465.536 585.869 458.303C584.737 449.678 583.489 441.066 582.19 432.461C581.962 430.94 581.257 429.493 580.768 428.009H580.781ZM686.134 1007.79C687.29 1009.94 688.341 1011.88 689.38 1013.82C690.097 1015.17 690.82 1015.48 692.496 1014.86C697.151 1013.12 701.961 1011.78 706.925 1010.22C705.009 1007.83 702.981 1005.29 701.009 1002.83C696.026 1004.49 691.198 1006.1 686.14 1007.79H686.134ZM345.344 543.823C346.748 545.016 348.009 546.092 349.938 547.737H343.892C343.397 549.394 342.915 551.001 342.426 552.633C344.51 553.845 346.408 554.945 348.25 556.015C349.765 550.661 351.261 545.375 352.757 540.089C348.776 538.438 348.133 538.747 345.344 543.823ZM643.025 618.939C643.025 618.76 643.018 618.586 643.012 618.407C642.709 618.37 642.388 618.253 642.11 618.314C630.32 620.979 618.524 623.619 606.765 626.413C605.974 626.599 605.455 627.953 604.812 628.769C605.065 629.059 605.319 629.35 605.572 629.641C618.06 626.073 630.543 622.506 643.031 618.939H643.025ZM705.238 985.527C705.998 987.784 706.653 989.725 707.241 991.463C712.539 991.537 717.652 991.524 721.899 987.055C716.341 984.47 710.845 985.781 705.238 985.527ZM633.819 549.95C633.856 549.647 633.887 549.338 633.924 549.035C629.09 548.392 624.267 547.601 619.414 547.131C612.039 546.42 604.651 545.894 597.257 545.394C596.54 545.344 595.773 546.049 595.031 546.401C595.118 546.618 595.198 546.84 595.285 547.057C608.132 548.021 620.972 548.992 633.819 549.956V549.95ZM609.325 512.881C609.065 512.609 608.805 512.337 608.539 512.065C603.958 516.386 599.328 520.658 594.809 525.035C590.839 528.881 586.963 532.813 583.124 536.788C582.487 537.443 582.289 538.519 581.887 539.403C582.215 539.582 582.537 539.761 582.864 539.941C591.686 530.921 600.502 521.901 609.325 512.881ZM454.475 644.089C454.531 644.509 454.58 644.936 454.636 645.356C470.809 643.699 486.982 642.042 503.155 640.385C503.13 640.113 503.106 639.841 503.081 639.569C486.877 641.078 470.679 642.586 454.475 644.089ZM632.243 768.199C630.339 768.663 629.17 768.694 628.286 769.219C625.832 770.678 624.663 777.052 626.178 780.008C626.215 780.076 626.345 780.1 626.716 780.292C630.462 777.504 630.029 772.824 632.243 768.199ZM508.868 420.096C508.886 419.83 508.905 419.564 508.929 419.298C496.274 418.921 483.656 417.326 470.988 417.363L470.945 418.699L508.874 420.096H508.868ZM620.373 756.861C620.249 757.244 620.125 757.634 620.002 758.017C621.646 762.209 625.918 760.855 629.034 761.621C632.403 762.45 635.977 762.462 639.464 762.833C639.519 762.555 639.575 762.277 639.631 761.998C633.213 760.286 626.79 758.573 620.373 756.861ZM557.059 416.325C551.501 415.614 545.894 414.903 539.946 414.142C541.962 418.148 554.382 419.286 557.059 416.325ZM632.774 739.946C630.691 743.142 630.722 745.856 632.923 748.317C633.436 748.892 634.549 749.393 635.216 749.226C635.816 749.077 636.57 747.983 636.583 747.291C636.626 744.224 635.117 741.9 632.781 739.94L632.774 739.946ZM591.878 418.594C591.878 418.476 591.878 418.353 591.878 418.235L562.178 416.683C562.605 417.778 563.266 418.538 563.934 418.544C573.251 418.625 582.567 418.6 591.884 418.6L591.878 418.594ZM511.489 118.274C511.52 118.546 511.557 118.824 511.588 119.096C512.824 118.737 514.203 118.62 515.273 117.983C518.104 116.301 520.645 114.063 523.594 112.666C526.531 111.275 527.242 109.47 526.543 107.25C524.256 109.105 521.943 111.133 519.477 112.938C516.892 114.824 514.16 116.505 511.489 118.274ZM635.198 109.408C636.36 106.768 635.563 104.24 633.386 103.553C632.781 103.362 631.377 103.869 631.241 104.326C630.233 107.658 632.972 108.258 635.204 109.414L635.198 109.408ZM588.917 108.598C587.6 105.915 584.354 104.351 581.053 104.808C581.096 107.924 583.081 108.32 588.917 108.598ZM651.26 751.352C651.086 751.037 650.913 750.716 650.734 750.4C649.596 750.969 648.465 751.544 647.328 752.113C647.408 752.311 647.488 752.515 647.562 752.713C648.793 752.261 650.023 751.81 651.253 751.359L651.26 751.352ZM590.778 499.842C590.598 499.854 590.425 499.867 590.246 499.879C590.326 500.331 590.407 500.782 590.487 501.233C590.586 501.221 590.679 501.208 590.778 501.202V499.842Z" fill="black"/>
<path d="M384.85 620.206C377.839 630.45 370.853 640.713 363.774 650.902C362.847 652.237 361.833 653.183 359.483 652.595C348.992 649.974 340.405 644.268 332.485 637.22C330.402 635.365 327.947 633.925 325.722 632.218C324.349 631.161 324.046 630.172 325.239 628.404C329.957 621.449 334.229 614.191 339.014 607.285C342.494 602.259 346.599 597.672 350.272 592.769C352.201 590.197 354.519 590.129 357.202 590.988L362.766 592.256C367.885 594.364 373.208 596.095 378.068 598.692C383.119 601.387 387.724 604.917 392.435 608.015C390.692 610.939 389.06 613.684 387.428 616.423C386.568 617.684 385.703 618.945 384.844 620.206H384.85ZM378.327 619.73C381.35 615.279 384.374 610.828 387.514 606.209C385.443 605.078 382.785 603.464 379.972 602.185C379.261 601.863 377.653 602.277 377.165 602.908C374.754 606.018 372.584 609.313 370.513 612.274C372.602 614.203 374.525 615.978 376.448 617.752C374.012 616.645 371.576 615.539 368.887 614.321C366.47 617.43 363.941 620.676 361.326 624.033C364.59 626.036 367.632 627.909 371.15 630.061C373.647 626.463 375.99 623.093 378.327 619.724V619.73ZM328.528 630.426C338.222 636.435 345.728 645.424 356.522 649.684C357.517 647.823 358.445 646.085 359.174 644.719C349.666 639.001 340.108 633.245 330.476 627.452C330.012 628.157 329.363 629.146 328.522 630.426H328.528ZM359.453 626.308C356.708 629.696 354.117 632.892 351.725 635.841C354.538 638.036 357.103 640.095 359.762 642.036C360.12 642.296 361.202 642.191 361.468 641.863C364.318 638.333 367.069 634.729 369.827 631.168C366.235 629.486 362.896 627.922 359.453 626.314V626.308ZM366.253 595.91C363.929 599.291 361.82 602.358 359.657 605.511C362.321 607.1 364.893 608.639 367.533 610.222C370.29 606.877 373.066 603.508 375.922 600.033C372.565 598.605 369.462 597.282 366.253 595.916V595.91ZM350.235 617.863C353.122 619.378 355.694 620.726 358.389 622.141C361.004 618.784 363.459 615.631 365.975 612.404C363.1 610.741 360.51 609.251 357.783 607.675C355.286 611.044 352.881 614.29 350.235 617.857V617.863ZM349.041 635.093C351.539 631.458 353.913 628.002 356.355 624.447C353.635 622.988 351.193 621.678 348.677 620.33C346.191 623.594 343.638 626.951 341.042 630.364C343.762 631.971 346.284 633.467 349.041 635.093ZM347.076 616.367C349.647 612.825 352.182 609.325 354.735 605.801C352.683 604.398 350.729 603.069 348.609 601.622C345.641 605.61 342.692 609.573 339.743 613.529C342.358 614.537 344.683 615.44 347.076 616.361V616.367ZM338.995 628.96C341.202 625.517 343.391 622.104 345.536 618.747C343.15 617.35 341.029 616.114 338.896 614.865C336.491 618.463 334.154 621.956 331.867 625.381C334.358 626.63 336.584 627.749 338.995 628.954V628.96ZM363.508 594.766C360.429 593.721 357.672 592.787 354.983 591.879C353.394 594.481 351.898 596.942 350.327 599.508C351.607 600.299 352.998 600.849 353.963 601.814C355.984 603.848 357.301 602.778 358.618 601.09C360.17 599.1 361.703 597.097 363.508 594.76V594.766Z" fill="black"/>
<path d="M620.577 364.251C617.195 359.997 618.561 355.255 619.748 350.866C620.948 346.421 622.71 342.007 624.941 337.976C629.461 329.821 629.714 321.487 626.796 312.974C624.187 305.358 620.904 297.964 618.339 290.328C616.972 286.273 616.391 281.933 615.705 277.679C615.52 276.511 615.891 274.928 616.614 274.013C617.634 272.727 619.093 271.293 620.589 270.978C623.272 270.409 622.394 273.228 622.827 274.464C626.209 284.121 629.609 293.784 632.515 303.59C634.271 309.525 635.785 315.67 636.261 321.809C636.688 327.305 635.965 333.005 633.343 338.161C629.714 346.674 626.079 355.194 622.277 364.115C622.153 364.127 621.368 364.189 620.577 364.251Z" fill="black"/>
<path d="M574.802 209.717C576.607 210.768 578.345 211.967 580.236 212.802C581.362 213.303 582.777 213.513 584.001 213.371C590.227 212.635 594.555 216.072 598.864 219.627L598.635 220.592C597.491 220.338 596.304 220.202 595.204 219.819C591.933 218.681 588.966 216.796 585.188 217.173C580.966 217.593 577.566 215.256 574.159 213.08C572.663 212.122 570.864 211.658 569.232 210.898C566.468 209.612 563.729 208.264 560.774 206.848C560.41 208.802 559.983 211.046 559.563 213.29C559.204 213.278 558.845 213.266 558.493 213.247C558.431 208.406 558.048 203.547 558.4 198.737C558.765 193.717 559.946 188.752 560.49 183.739C560.589 182.824 559.532 181.525 558.672 180.802C552.366 175.535 545.974 170.366 539.148 164.796C542.79 164.178 545.522 164.722 548.317 166.063C556.286 169.89 564.156 173.884 572.879 176.017C582.53 178.379 591.89 177.964 600.787 173.859C603.711 172.511 606.579 169.532 607.939 166.589C610.802 160.382 612.644 153.699 614.901 147.213C615.13 145.773 615.352 144.326 615.581 142.886C615.822 142.107 616.063 141.328 616.304 140.555C617.51 140.233 616.681 136.734 619.303 138.645L618.19 154.02C617.726 155.454 617.262 156.889 616.793 158.323C613.442 165.705 609.046 172.437 601.658 176.134C593.071 180.431 583.835 181.909 574.209 180.048C571.593 179.541 568.892 179.473 566.073 179.182C565.708 181.569 565.368 184.116 564.917 186.644C564.212 190.589 563.488 194.533 562.66 198.453C562.326 200.035 562.295 201.191 563.896 202.249C566.58 204.023 569.065 206.106 571.631 208.06C572.682 208.616 573.739 209.173 574.79 209.729L574.802 209.717Z" fill="black"/>
<path d="M512.448 134.199C510.754 133.359 509.06 132.518 507.452 131.72C508.373 130.558 512.404 129.699 514.741 130.818C517.412 132.097 519.625 133.878 520.485 136.988C521.208 139.615 520.621 140.864 517.913 140.988C515.755 141.08 514.284 141.266 514.92 144.085C515.248 145.532 514.389 145.711 511.341 144.802C510.624 143.547 509.9 142.286 509.183 141.031C510.049 139.819 510.92 138.601 511.786 137.389C512.831 137.056 513.882 136.722 515.613 136.172C514.154 135.269 513.295 134.737 512.441 134.212L512.448 134.199Z" fill="black"/>
<path d="M595.043 150.199H608.484C607.377 154.094 604.175 153.414 602.073 153.89C598.147 154.774 596.669 153.791 595.05 150.199H595.043Z" fill="black"/>
<path d="M551.05 396.492C538.091 393.771 525.127 391.07 512.181 388.306C509.925 387.824 507.68 387.193 505.517 386.384C504.478 385.994 503.65 385.042 502.722 384.343L503.309 383.033C507.068 383.83 510.877 384.467 514.586 385.456C527.359 388.85 540.101 392.349 552.83 395.892C553.621 396.114 554.221 397.036 554.907 397.635C554.357 397.629 553.807 397.623 553.257 397.617C552.608 397.301 551.965 396.98 551.315 396.665C551.111 396.572 551.019 396.516 551.05 396.498V396.492Z" fill="black"/>
<path d="M643.031 618.945C630.543 622.512 618.061 626.079 605.572 629.647C605.319 629.356 605.065 629.066 604.812 628.775C605.455 627.965 605.974 626.611 606.766 626.419C618.524 623.625 630.32 620.979 642.11 618.321C642.388 618.259 642.71 618.382 643.013 618.413C643.013 618.593 643.019 618.766 643.025 618.945H643.031Z" fill="white"/>
<path d="M609.331 512.887C600.509 521.907 591.693 530.927 582.87 539.947C582.543 539.768 582.221 539.588 581.894 539.409C582.295 538.525 582.499 537.449 583.13 536.794C586.963 532.819 590.846 528.887 594.815 525.041C599.334 520.658 603.965 516.386 608.546 512.071C608.805 512.343 609.065 512.615 609.331 512.887Z" fill="white"/>
<path d="M525.399 547.242C519.037 549.696 512.707 552.25 506.296 554.581C499.204 557.159 492.033 559.526 484.892 561.968C484.651 562.049 484.336 561.913 483.916 561.437C497.294 555.607 511.415 551.835 525.065 546.797C525.164 546.951 525.275 547.1 525.399 547.242Z" fill="white"/>
<path d="M454.488 644.101C470.692 642.592 486.889 641.084 503.093 639.582C503.118 639.854 503.143 640.126 503.168 640.398C486.995 642.055 470.822 643.712 454.649 645.368C454.593 644.948 454.543 644.521 454.488 644.101Z" fill="white"/>
<path d="M588.929 108.604C583.093 108.332 581.109 107.936 581.065 104.814C584.367 104.357 587.613 105.921 588.929 108.604Z" fill="white"/>
<path d="M437.745 522.809L442.11 506.031C442.518 506.148 442.926 506.265 443.334 506.383C441.634 511.965 439.934 517.542 438.228 523.125C438.079 523.001 437.919 522.896 437.739 522.809H437.745Z" fill="white"/>
<path d="M528.775 546.345C527.65 546.642 526.525 546.939 525.406 547.242C525.282 547.106 525.171 546.958 525.072 546.797C526.191 546.512 527.31 546.222 528.435 545.938C528.546 546.074 528.664 546.209 528.781 546.345H528.775Z" fill="white"/>
<path d="M438.228 523.125C438.172 523.687 438.11 524.25 438.055 524.812C437.912 524.8 437.776 524.794 437.634 524.782C437.671 524.12 437.708 523.465 437.746 522.803C437.919 522.89 438.079 522.995 438.234 523.119L438.228 523.125Z" fill="white"/>
<path d="M528.428 545.938L529.417 545.313C529.498 545.431 529.572 545.548 529.652 545.666C529.362 545.894 529.065 546.123 528.774 546.346C528.657 546.21 528.546 546.074 528.428 545.938Z" fill="white"/>
<path d="M560.224 333.265C563.81 334.093 563.322 336.343 563.909 338.501C565.04 342.68 567.111 346.619 568.96 350.581C574.438 362.322 580.002 374.025 585.516 385.747C585.726 386.198 585.955 386.699 585.949 387.175C585.949 388.127 585.788 389.085 585.696 390.037C584.632 389.654 582.963 389.58 582.598 388.85C576.063 375.861 569.529 362.872 563.371 349.703C561.572 345.852 560.818 341.487 559.816 337.302C559.532 336.108 560.057 334.724 560.224 333.265Z" fill="black"/>
<path d="M555.445 372.201L576.651 391.688C568.292 386.686 560.298 381.265 554.697 373.135C554.945 372.826 555.192 372.51 555.445 372.201Z" fill="black"/>
<path d="M604.15 273.321C602.289 279.163 599.556 284.566 596.008 289.549C595.699 289.395 595.39 289.234 595.074 289.079C597.745 283.651 600.41 278.217 603.08 272.789C603.439 272.968 603.791 273.148 604.15 273.321Z" fill="black"/>
<path d="M388.473 336.145C382.451 332.937 377.06 330.068 371.311 327.002C374.507 326.414 385.932 332.455 388.473 336.145Z" fill="black"/>
<path d="M395.638 595.427C398.482 581.61 400.194 568.695 406.661 556.392C400.714 553.486 394.265 550.296 387.774 547.18C383.978 545.357 379.941 543.965 376.355 541.795C373.19 539.879 370.414 540.714 367.477 541.734C364.392 542.809 363.99 545.697 363.422 548.324C362.129 554.315 360.751 560.299 359.848 566.352C359.434 569.109 359.972 572.04 360.299 574.865C360.361 575.415 361.4 575.984 362.098 576.312C370.408 580.237 378.741 584.114 387.063 588.009C389.789 589.282 392.497 590.587 394.958 592.577C393.418 592.089 391.829 591.724 390.352 591.087C381.208 587.155 372.095 583.143 362.952 579.205C361.072 578.395 359.687 575.823 357.048 577.758C353.783 571.106 355.57 564.621 356.837 558.272C358.068 552.083 359.966 546.024 361.486 539.891C362.451 536.003 365.307 534.099 368.819 535.706C380.868 541.227 392.862 546.877 404.788 552.658C408.819 554.612 410.686 556.627 409.165 562.865C407.285 570.55 405.61 578.284 403.471 585.894C402.649 588.831 400.955 591.576 399.316 594.197C398.846 594.945 397.183 594.945 395.632 595.421L395.638 595.427Z" fill="black"/>
<path d="M420.212 596.299C421.511 591.687 422.63 587.328 423.978 583.038C426.154 576.101 428.46 569.208 430.747 562.308C432.144 558.098 432.497 557.925 436.565 558.951C439.749 559.755 440.929 561.313 440.008 564.639C437.455 573.839 434.865 583.038 431.86 592.101C430.215 597.059 428.317 597.523 420.212 596.299ZM431.372 569.437C429.066 576.089 426.654 582.704 424.491 589.406C423.347 592.96 424.2 593.709 428.398 593.239C428.398 591.223 428.12 589.134 428.454 587.149C429.424 581.332 430.642 575.557 431.761 569.764C431.829 569.313 431.897 568.862 431.965 568.41C431.835 568.392 431.712 568.367 431.582 568.349C431.514 568.713 431.44 569.072 431.372 569.437Z" fill="black"/>
<path d="M406.679 594.648C406.469 580.596 411.434 568.114 417.449 555.953C417.857 555.934 418.259 555.916 418.667 555.897C418.871 557.177 419.57 558.624 419.192 559.705C416.651 567.087 413.863 574.389 411.199 581.727C409.647 586.018 408.175 590.339 406.673 594.648H406.679Z" fill="black"/>
<path d="M424.33 604.738C421.591 604.144 420.225 603.396 420.219 600.948C420.219 598.623 421.69 598.011 423.545 597.925C425.424 597.838 427.52 600.132 426.97 601.987C426.648 603.075 425.245 603.835 424.33 604.744V604.738Z" fill="black"/>
<path d="M373.722 563.18C375.787 565.801 378.563 567.131 381.444 568.305C381.518 568.336 381.308 569.894 380.924 570.061C380.09 570.432 378.835 570.784 378.161 570.401C375.552 568.936 373.611 566.852 373.722 563.18Z" fill="black"/>
<path d="M367.527 552.775C371.502 553.845 372.442 555.409 369.951 558.03C368.788 556.435 367.694 554.933 366.606 553.437C366.915 553.214 367.218 552.998 367.527 552.775Z" fill="black"/>
<path d="M392.602 566.339C391.143 565.808 389.684 565.282 388.225 564.751C388.658 564.077 388.948 563.013 389.542 562.809C391.712 562.061 392.658 563.397 392.602 566.346V566.339Z" fill="black"/>
<path d="M578.265 89.7601C571.835 88.4866 567.322 91.5221 562.698 94.1125C562.073 94.4587 561.548 95.0089 560.898 95.2747C559.582 95.8188 558.215 96.233 556.861 96.6967C557.022 95.3304 556.911 93.8591 557.387 92.6165C559.767 86.3723 571.124 81.686 576.224 87.0028C577.01 87.8189 577.591 88.839 578.265 89.7601Z" fill="black"/>
<path d="M417.134 620.151C420.541 619.922 423.879 620.787 426.371 623.755C430.154 628.256 429.184 633.158 426.241 637.708C423.533 641.894 418.544 643.545 413.314 642.11C409.647 641.103 405.48 640.503 404.238 636.138C401.87 627.811 404.72 620.126 417.128 620.144L417.134 620.151ZM424.553 629.103C423.854 628.843 423.31 628.608 422.754 628.447C418.667 627.26 413.907 629.016 411.916 632.54C410.686 634.71 410.204 636.905 412.429 638.846C414.785 640.898 418.439 641.195 420.46 639.384C423.533 636.633 424.714 633.127 424.553 629.103ZM420.967 623.897C418.698 621.653 412.627 622.228 409.981 625.999C414.086 625.214 417.666 624.528 420.967 623.897ZM422.433 625.028C422.507 624.96 422.581 624.892 422.661 624.824C422.593 624.75 422.525 624.676 422.457 624.596L422.222 624.911C422.29 624.948 422.364 624.991 422.433 625.028Z" fill="black"/>
<path d="M413.103 653.152C409.622 652.905 405.962 652.577 402.29 652.391C397.981 652.175 397.981 652.231 395.001 656.206C400.707 657.028 406.42 657.844 412.126 658.666C412.126 659.118 412.113 659.575 412.107 660.027C409.028 660.336 405.956 660.861 402.877 660.898C399.328 660.942 395.761 660.305 392.219 660.404C388.095 660.521 386.018 657.881 388.614 654.555C389.035 654.017 389.152 653.257 389.449 652.62C392.225 646.716 395.91 644.991 402.469 646.543C407.044 647.625 411.637 648.645 416.157 649.906C416.862 650.104 417.875 651.643 417.684 652.194C416.911 654.432 415.743 656.533 414.617 658.629C414.586 658.691 412.948 658.203 412.93 657.918C412.837 656.317 413.01 654.704 413.09 653.139L413.103 653.152ZM405.406 650.957C408.868 651.143 411.681 651.297 414.487 651.445C414.487 651.155 414.487 650.871 414.494 650.58C411.681 650.296 408.862 648.83 405.406 650.957Z" fill="black"/>
<path d="M420.973 623.903C417.672 624.534 414.086 625.22 409.987 626.005C412.633 622.228 418.711 621.659 420.973 623.903Z" fill="white"/>
<path d="M422.439 625.035C422.37 624.998 422.296 624.954 422.228 624.917L422.463 624.602C422.531 624.676 422.599 624.75 422.668 624.83C422.593 624.899 422.519 624.967 422.439 625.035Z" fill="white"/>
<path d="M405.399 650.957C408.855 648.83 411.674 650.296 414.487 650.58C414.487 650.871 414.487 651.155 414.481 651.445C411.674 651.297 408.862 651.142 405.399 650.957Z" fill="white"/>
</svg>
