<svg width="1080" height="1080" viewBox="0 0 1080 1080" fill="none" xmlns="http://www.w3.org/2000/svg">
<path d="M584.869 685.951C585.661 692.827 586.335 698.991 587.084 705.144C587.833 711.314 588.502 717.504 589.492 723.637C591.281 734.735 593.138 745.826 595.248 756.868C597.483 768.554 600.113 780.171 602.453 791.838C604.396 801.537 606.16 811.267 607.992 820.99C608.623 824.345 609.23 827.7 609.837 831.054C609.874 831.252 609.923 831.506 609.837 831.661C606.569 837.584 610.598 842.647 612.195 847.722C616.515 861.45 619.919 875.345 622.339 889.519C623.305 895.157 624.877 900.703 626.399 906.236C626.876 907.963 624.877 910.823 627.823 911.058C627.94 915.496 629.494 920.596 622.649 922.124C625.1 927.54 626.993 932.659 629.649 937.338C632.669 942.661 636.141 947.786 639.867 952.644C642.485 956.061 645.865 958.896 648.91 961.984C649.195 962.269 649.653 962.795 649.82 962.727C652.648 961.489 653.707 963.977 654.889 965.407C663.331 975.65 673.111 984.39 684.431 991.266C696.116 998.365 708.049 1005.05 719.859 1011.95C722.638 1013.57 725.361 1015.3 728.084 1017.03C731.513 1019.19 734.639 1027.93 733.618 1032.37C732.392 1037.71 728.419 1040.92 722.384 1041.52C718.336 1041.91 714.263 1042.92 710.265 1042.66C704.528 1042.28 698.846 1041 693.146 1040.09C685.743 1038.92 678.334 1037.79 670.944 1036.53C664.78 1035.48 658.664 1034.18 652.494 1033.17C648.316 1032.48 644.07 1032.21 639.88 1031.58C636.983 1031.14 634.402 1030.16 631.196 1031.45C625.167 1033.89 620.303 1030.4 615.197 1027.44C609.044 1023.88 610.629 1018.31 611.409 1013.65C612.263 1008.53 612.114 1003.98 610.598 999.089C607.46 988.957 604.662 978.714 601.896 968.471C600.645 963.822 599.612 959.094 598.881 954.34C598.541 952.124 599.426 949.735 599.234 947.476C599.16 946.616 597.736 945.601 596.709 945.161C594.871 944.369 593.534 943.626 592.964 941.349C591.875 936.979 589.542 932.944 589.95 928.165C590.006 927.484 588.31 926.018 587.394 925.987C581.136 925.795 574.86 925.987 568.597 925.85C565.508 925.788 562.395 925.454 559.35 924.934C558.285 924.755 556.948 923.845 556.484 922.898C553.55 916.913 550.338 910.996 548.141 904.739C544.409 894.118 541.159 883.311 538.077 872.479C535.725 864.223 534.004 855.787 531.888 847.456C531.219 844.826 530.291 842.245 529.307 839.707C528.459 837.522 527.976 835.585 528.651 833.072C529.164 831.165 528.05 828.795 527.573 826.653C526.422 821.454 525.265 816.249 524.002 811.075C523.748 810.047 523 809.137 522.48 808.172C521.322 809.094 519.218 809.948 519.156 810.945C518.822 816.144 515.3 819.783 513.066 823.942C505.935 837.219 498.564 850.377 490.803 863.294C482.725 876.744 474.215 889.934 465.599 903.049C463.773 905.828 461.007 908.619 458.036 909.802C455.808 910.687 452.453 909.319 449.779 908.409C441.622 905.636 433.576 902.523 425.43 899.7C422.001 898.512 421.804 898.778 421.482 902.306C419.198 901.582 416.939 900.864 415.162 900.307C411.028 905.871 411.956 911.887 411.801 917.761C411.529 928.159 411.579 938.489 409.004 948.807C407.413 955.194 408.682 962.164 410.7 968.731C411.665 971.881 412.278 975.26 412.328 978.541C412.377 981.827 414.271 983.121 416.747 983.814C418.857 984.408 421.147 984.439 423.363 984.551C429.132 984.829 434.591 985.875 440.075 988.06C445.23 990.109 447.755 996.088 446.19 1002.04C444.029 1010.21 437.654 1013.1 430.493 1014.84C420.076 1017.37 409.388 1019.01 398.767 1017.77C390.801 1016.85 382.848 1014.52 376.664 1008.57C374.999 1006.97 373.105 1005.56 371.199 1004.25C367.64 1001.78 364.824 998.792 362.973 994.794C357.05 981.994 350.353 969.448 347.308 955.572C345.303 946.424 344.139 937.053 343.254 927.72C342.914 924.117 344.046 920.243 345.129 916.678C346.596 911.856 351.387 909.591 356.295 910.556C357.7 910.835 359.26 910.457 360.727 910.235C362.93 909.894 365.127 909.486 367.294 908.991C369.175 908.564 371.465 908.687 371.119 905.463C371.013 904.472 372.387 903.265 373.186 902.238C377.797 896.278 382.346 890.262 387.093 884.419C389.947 880.909 393.128 877.666 396.334 874.107C394.347 871.52 392.373 868.989 390.442 866.414C389.099 864.625 386.598 862.67 386.759 860.992C387.081 857.594 388.282 853.961 390.139 851.083C395.988 842.009 401.991 832.997 408.54 824.419C415.113 815.803 422.28 807.627 429.429 799.47C443.627 783.291 457.776 767.056 472.383 751.254C478.975 744.118 486.563 737.892 493.804 731.374C499.183 726.534 504.555 721.768 505.867 713.784C502.135 713.493 498.521 713.115 494.894 712.948C488.506 712.645 482.1 712.138 475.719 712.329C468.36 712.552 461.019 713.815 453.666 713.902C448.35 713.963 443.008 712.942 437.698 712.231C430.772 711.302 423.864 710.25 416.963 709.154C410.96 708.201 404.987 707.056 398.989 706.103C392.008 704.995 385.032 703.751 378.007 703.033C371.676 702.389 366.774 699.053 362.051 695.42C360.126 693.941 358.659 693.112 356.252 693.978C353.832 694.851 352.557 693.477 353.169 691.02C353.33 690.37 353.801 689.435 353.535 689.107C350.78 685.678 351.127 681.822 351.802 677.904C352.093 676.215 352.488 674.537 352.816 672.965C350.601 672.458 348.348 671.938 345.915 671.381C346.411 670.706 346.801 670.279 347.067 669.79C347.451 669.078 348.1 668.237 347.958 667.605C347.84 667.098 346.739 666.578 346.027 666.503C344.498 666.336 342.852 666.132 341.403 666.516C335.462 668.088 330.467 665.68 325.193 663.465C317.438 660.203 309.163 658.117 301.575 654.546C293.108 650.56 285.105 645.565 277.028 640.793C274.373 639.221 273.648 635.556 274.515 632.821C277.826 622.404 281.193 612 284.288 601.515C289.475 583.919 294.148 566.186 300.622 548.961C306.211 534.1 310.834 518.881 315.879 503.816C318.311 496.556 320.793 489.314 323.095 482.011C323.492 480.76 323.071 479.25 323.046 477.864C323.033 477.084 322.86 476.242 323.089 475.537C323.826 473.309 324.438 470.956 325.658 469.007C326.289 468.004 328.102 467.255 329.396 467.237C337.77 467.113 345.885 465.466 353.993 463.616C355.757 463.214 357.681 463.542 359.532 463.424C361.036 463.331 362.528 463.065 364.168 462.861C362.881 458.219 364.521 454.134 366.186 450.445C369.584 442.943 373.724 435.776 377.618 428.361C370.921 424.035 363.79 419.603 356.846 414.887C351.022 410.932 346.584 405.609 343.83 399.122C341.954 394.703 339.64 390.389 339.912 385.234C340.017 383.265 338.074 381.136 338.327 379.248C338.841 375.399 339.528 371.283 341.36 367.94C348.168 355.494 355.664 343.418 362.503 330.984C365.753 325.073 368.179 318.704 370.846 312.484C375.736 301.07 383.058 291.229 390.479 281.413C395.975 274.141 401.391 266.788 406.466 259.212C413.825 248.238 422.255 238.521 433.712 231.527C438.799 228.426 443.287 224.397 449.581 223.815C450.058 223.771 450.739 222.713 450.819 222.07C451.791 214.327 456.086 209.338 463.359 206.868C466.286 205.872 467.939 203.978 468.787 201.063C469.183 199.713 469.889 198.228 471.783 199.887C472.185 200.239 473.311 200.153 473.887 199.856C481.32 195.969 489.286 194.118 497.864 193.338C498.23 189.513 498.607 185.602 499.01 181.43C495.624 180.743 492.14 180.229 488.779 179.282C486.216 178.558 483.66 177.537 481.37 176.187C477.508 173.91 476.301 169.305 478.176 165.319C478.436 164.768 478.783 163.908 479.191 163.846C482.583 163.326 481.419 160.82 481.073 159.105C480.182 154.636 479.575 150.112 474.667 147.543C471.287 145.773 466.515 137.578 467.97 131.346C468.657 128.4 468.515 125.268 468.768 122.216C469.171 117.351 469.92 112.493 469.913 107.628C469.907 101.401 469.635 95.1315 468.867 88.9545C467.834 80.6731 467.636 72.299 471.603 65.0203C473.937 60.7372 478.486 57.1968 482.793 54.5539C490.295 49.9428 498.384 46.3037 506.208 42.2187C515.566 37.3353 523.767 39.2974 531.764 45.6972C540.385 52.5984 550.016 57.692 560.779 60.7929C566.406 62.4145 571.815 65.1378 576.952 68.0158C582.61 71.191 587.938 74.9852 591.801 80.4505C593.806 83.2914 594.14 86.3365 593.559 89.6478C593.398 90.5514 593.447 91.616 593.769 92.4578C595.514 97.0008 595.242 101.544 594.505 106.254C593.769 110.945 593.534 115.73 593.262 120.483C592.704 130.293 593.404 140.141 590.322 149.821C589.133 153.547 590.606 158.109 590.804 162.293C590.872 163.735 591.076 165.294 590.643 166.606C587.858 175.092 582.696 182.185 576.686 188.566C571.227 194.359 563.856 194.601 556.478 194.001C554.584 193.846 552.715 193.45 550.938 193.177C550.177 196.965 549.385 200.691 548.723 204.436C548.617 205.018 548.939 205.853 549.354 206.311C554.788 212.408 560.241 218.48 565.75 224.508C572.409 231.799 579.001 239.127 587.097 244.964C595.644 251.122 603.944 257.621 612.411 263.891C615.11 265.89 618.087 267.506 620.748 269.548C621.992 270.508 622.877 272.005 623.701 273.385C623.967 273.825 623.763 274.945 623.36 275.317C621.955 276.629 619.937 277.458 620.816 280.045C620.965 280.479 620.575 281.332 620.167 281.679C617.227 284.198 614.299 286.742 611.204 289.051C609.855 290.053 609.02 290.53 609.645 292.628C612.981 303.825 616.317 314.984 622.215 325.197C626.579 332.754 626.313 340.726 623.688 348.685C621.435 355.5 619.554 362.253 622.939 369.185C623.472 370.274 624.592 371.289 625.694 371.865C633.957 376.197 640.301 382.454 645.209 390.352C652.5 402.075 659.748 413.835 667.447 425.285C670.09 429.221 673.909 432.421 677.425 435.702C687.575 445.165 696.259 455.7 701.86 468.512C702.807 470.684 702.875 473.259 703.909 475.37C706.378 480.395 709.176 485.266 711.868 490.187C713.756 493.641 715.99 496.952 717.457 500.573C718.15 502.281 717.959 504.8 717.228 506.564C715.068 511.769 710.531 514.66 705.45 516.312C703.636 516.9 700.567 516.467 699.261 515.235C695.993 512.147 691.443 510.29 689.859 505.382C689.079 502.955 687.297 503.11 685.861 505.239C680.241 513.583 673.513 520.577 664.179 524.99C659.704 527.106 655.589 530.189 651.739 533.358C649.876 534.893 648.799 537.536 647.759 539.857C647.028 541.484 648.192 542.549 649.882 542.623C659.909 543.069 669.941 543.521 679.974 543.861C684.208 544.003 688.448 543.83 692.681 543.898C699.155 544.003 705.345 542.648 711.175 539.98C720.199 535.846 729.663 533.834 739.516 533.345C740.599 533.29 741.682 532.782 742.747 532.832C743.805 532.881 745.347 533.03 745.811 533.717C747.439 536.137 749.624 538.155 750.348 541.262C751.555 546.442 753.201 551.517 754.755 556.611C757.131 564.404 759.65 572.147 761.978 579.958C763.581 585.336 764.645 590.888 766.514 596.167C768.644 602.177 771.255 608.026 773.898 613.838C777.717 622.237 781.951 630.457 785.615 638.924C787.28 642.773 787.806 647.1 789.211 651.086C791.587 657.82 794.224 664.461 796.805 671.115C798.402 675.243 800.618 679.21 801.558 683.475C802.091 685.889 802.023 688.705 801.54 691.539C800.853 695.575 798.804 698.868 797.666 702.581C796.75 705.571 795.128 706.177 792.095 705.298C791.779 705.206 791.377 705.292 791.049 705.391C782.935 707.879 774.82 710.343 766.731 712.899C764.806 713.506 762.881 714.248 761.123 715.226C746.882 723.099 731.538 728.125 715.823 731.777C707.183 733.788 698.115 733.534 689.388 731.226C681.652 729.177 673.853 728.397 665.869 728.174C658.918 727.982 651.974 726.912 645.073 725.903C639.725 725.123 634.396 724.034 629.147 722.728C620.179 720.5 613.6 715.115 607.943 707.743C603.356 701.771 597.303 696.906 591.807 691.645C589.839 689.763 587.604 688.166 584.887 685.944L584.869 685.951Z" fill="white"/>
<path d="M414.178 912.612C411.214 911.361 409.146 912.97 406.832 914.567C404.065 916.473 396.953 915.267 394.224 912.76C389.025 907.982 384.135 902.956 381.87 895.82C379.475 900.567 377.209 905.129 374.882 909.659C373.409 912.531 371.02 914.035 367.758 914.023C364.954 914.01 362.12 914.165 359.545 912.673C359.118 912.426 358.573 912.129 358.14 912.197C353.851 912.872 349.778 914.283 346.213 916.727C344.059 918.207 344.263 921.301 345.056 922.917C346.665 926.209 346.355 929.676 347.011 932.999C348.503 940.538 350.069 948.095 351.833 955.529C354.29 965.859 357.49 976.139 361.835 985.894C363.537 989.719 365.041 993.574 366.39 997.505C366.861 998.879 367.498 999.69 369.002 999.43C371.664 998.972 373.836 1000.31 375.817 1001.62C380.292 1004.58 385.355 1006.42 389.594 1009.94C394.8 1014.27 401.156 1015.31 407.878 1013.53C414.469 1011.78 421.29 1010.63 427.677 1008.45C433.359 1006.51 439.06 1004.49 444.76 1002.51C446.728 1001.83 449.254 1001.07 450.461 1002.49C451.172 1003.32 449.749 1005.93 448.666 1007.66C447.18 1010.02 444.804 1010.62 442.643 1011.46C436.702 1013.75 430.747 1016.23 424.577 1017.68C416.722 1019.54 409.004 1022.74 400.778 1022.25C394.057 1021.84 387.372 1020.69 380.7 1019.67C372.314 1018.39 363.945 1016.96 355.596 1015.43C354.302 1015.19 351.808 1015.64 352.068 1013.6C352.216 1012.43 354.612 1012.98 355.93 1013.23C362.268 1014.41 368.705 1014.66 375.074 1015.53C379.023 1016.06 382.984 1016.45 387.063 1016.6C383.881 1015.22 381.635 1012.51 378.094 1011.56C375.254 1010.79 373.768 1007.61 371.422 1005.82C363.184 999.585 359.563 990.053 353.968 981.914C350.385 976.708 348.497 970.804 345.91 965.202C344.362 961.848 344.09 957.924 343.143 954.278C341.534 948.07 340.661 941.683 339.114 935.525C337.901 930.709 338.136 925.857 336.997 921.128C336.378 918.559 337.826 915.904 336.576 913.131C336.155 912.197 337.616 909.938 339.534 909.3C343.199 908.081 346.844 906.806 350.502 905.568C353.083 904.695 355.621 905.747 358.053 906.187C360.121 906.564 362.126 906.484 364.144 906.546C367.801 906.663 368.618 903.47 369.794 901.019C371.596 897.268 373.087 893.362 374.653 889.5C376.17 885.762 376.38 885.632 379.66 887.712C380.669 888.349 381.009 887.625 381.3 887.043C383.405 882.797 385.893 878.811 389.031 875.252C389.501 874.72 389.638 874.219 389.303 873.587C387.88 870.907 387.867 867.633 384.928 865.523C383.139 864.242 382.39 861.617 382.161 859.228C382 857.551 382.192 856.183 384.445 855.638C387.057 855.007 388.517 853.163 389.068 850.204C390.083 844.751 392.813 839.905 395.765 835.257C400.543 827.724 405.198 820.037 411.158 813.408C418.053 805.746 423.555 796.982 430.493 789.449C436.54 782.888 441.09 775.313 446.617 768.449C451.135 762.847 455.616 757.19 460.698 752.003C465.247 747.367 469.022 741.97 473.145 736.914C476.883 732.327 480.275 727.45 485.139 723.86C486.829 722.616 488.03 720.741 489.157 718.593C484.075 718.135 479.241 717.714 474.314 717.838C469.289 717.962 464.238 717.077 459.2 717.095C453.45 717.12 447.793 716.185 442.08 715.95C430.24 715.467 418.48 714.193 406.683 713.196C397.659 712.435 388.703 711.203 379.852 709.581C372.425 708.22 364.911 707.322 357.533 705.255C351.622 703.596 345.575 702.173 339.646 700.446C335.524 699.251 331.173 698.88 327.267 696.881C324.915 695.68 324.445 693.532 326.667 692.257C327.861 691.57 328.852 691.304 328.988 689.621C329.037 689.008 330.572 687.807 331.086 687.764C335.536 687.405 335.233 683.543 336.223 680.863C337.443 677.558 338.111 674.042 340.03 671.015C341.002 669.48 340.457 669.091 338.903 668.651C330.114 666.169 321.455 663.142 312.567 661.149C307.523 660.017 303.085 657.529 298.258 656.248C289.37 653.896 282.066 648.536 273.989 644.667C269.564 642.55 268.276 638.955 269.366 634.077C271.247 625.623 273.469 617.211 277.047 609.363C280.166 602.511 282.382 595.369 284.01 588.196C286.993 575.037 292.44 562.608 295.033 549.394C297.595 536.31 303.469 524.302 306.898 511.546C310.333 498.759 316.43 486.95 319.822 474.175C320.348 472.182 321.227 470.573 317.952 470.789C317.185 470.839 315.743 470.399 316.083 469.329C316.461 468.134 315.947 466.104 318.064 465.949C321.325 465.702 324.247 463.04 327.799 464.637C328.486 464.946 329.477 464.854 330.25 464.649C337.102 462.861 344.189 464.024 351.059 462.922C354.172 462.427 357.23 462.205 360.337 462.229C361.792 462.242 362.138 461.171 362.231 460.286C362.448 458.089 363.407 456.164 364.243 454.233C366.062 450.011 366.037 445.215 368.445 441.198C370.568 437.664 371.459 433.616 373.137 429.896C373.848 428.312 373.867 427.358 372.103 426.257C369.2 424.437 366.013 423.143 363.413 420.649C361.711 419.021 358.703 418.842 356.314 417.845C353.424 416.638 351.016 415.029 348.757 412.925C345.792 410.164 342.016 408.215 340.37 404.185C340.178 403.715 339.578 403.238 339.652 402.855C340.822 396.523 335.369 391.516 336.613 385.357C335.276 385.06 335.381 386.558 334.713 386.273C334.304 386.094 334.274 385.32 334.298 384.639C334.49 379.576 336.848 375.238 338.705 370.713C342.84 360.655 349.06 351.718 353.956 342.069C358.053 333.986 362.466 326.063 366.143 317.769C367.969 313.66 371.15 310.385 373.174 306.393C373.756 305.242 374.857 304.351 374.789 302.859C374.752 301.968 375.427 301.225 376.101 300.872C379.246 299.226 382.476 297.759 385.639 296.138C387.416 295.228 387.446 296.416 387.731 297.598C388.759 301.906 391.711 304.438 395.666 306.003C396.242 306.232 396.916 306.468 397.38 305.917C397.826 305.384 397.498 304.827 397.214 304.239C395.982 301.646 395.313 298.842 393.927 296.28C392.819 294.231 393.555 292.529 395.988 291.749C398.129 291.062 400.19 290.115 402.332 289.441C404.647 288.71 405.049 286.507 405.885 284.774C406.207 284.111 405.959 282.119 403.855 282.973C400.748 284.242 397.56 285.312 394.465 286.6C392.423 287.448 391.203 287.231 390.622 284.836C390.424 284.025 390.467 282.793 389.093 282.434C388.499 282.28 388.053 281.339 388.647 280.608C390.331 278.541 390.739 275.806 392.286 273.689C398.457 265.246 404.331 256.606 409.728 247.644C412.99 242.228 417.552 238.279 423.203 235.451C425.245 234.429 427.009 232.87 428.804 231.378C432.92 227.968 437.525 225.22 442.322 222.843C442.947 222.534 443.813 222.428 444.383 222.942C445.014 223.505 444.123 223.994 444.048 224.558C443.832 226.173 443.009 227.38 441.548 228.172C439.363 229.36 438.267 231.65 436.473 233.26C431.261 237.926 424.867 240.935 419.526 245.422C419.074 245.799 418.412 245.991 418.195 246.592C415.107 255.176 409.177 262.053 404.399 269.622C403.817 270.544 403.18 271.436 402.381 272.612C407.661 272.865 413.126 277.192 416.685 270.105C417.756 271.108 416.896 271.529 416.84 272.061C416.679 273.584 413.98 274.419 415.738 276.48C417.539 278.584 419.86 278.523 422.187 278.096C423.196 277.91 424.137 277.619 425.672 277.947C422.472 280.002 419.043 280.045 415.973 281.184C416.796 282.125 417.966 282.1 419.254 282.23C416.599 286.327 416.468 291.26 413.497 295.11C411.387 297.846 411.703 298.081 414.822 299.294C414.779 299.48 414.711 299.833 414.686 299.833C411.523 299.449 410.261 301.349 409.276 303.961C408.237 306.709 406.881 309.346 405.569 311.989C404.127 314.891 402.802 316.389 397.511 316.173C395.264 316.08 393.011 316.315 390.789 315.665C389.501 315.287 389.13 316.501 388.524 317.311C387.595 318.549 386.605 318.357 386.555 316.841C386.512 315.424 386.004 314.57 384.748 314.563C382.52 314.551 380.36 314.464 378.224 313.678C377.327 313.35 376.918 314.279 376.504 315.046C374.87 318.073 373.162 321.056 371.453 324.039C369.237 327.902 366.31 331.293 364.255 335.279C360.77 342.044 357.459 348.939 353.424 355.37C349.333 361.893 345.897 368.782 341.688 375.207C340.686 376.729 341.212 377.812 341.286 379.131C341.664 386.026 344.164 392.252 347.432 398.213C348.887 400.862 351.598 402.291 353.671 404.34C356.568 407.206 359.669 409.719 363.098 412.052C367.449 415.011 372.846 416.372 376.3 420.996C378.441 416.985 379.53 412.956 380.898 409.05C385.509 395.892 390.745 383.03 398.34 371.258C399.547 369.389 400.649 367.266 402.555 366.046C405.346 364.264 403.867 363.187 402.153 362.054C397.022 358.663 391.835 355.357 386.753 351.898C384.135 350.115 381.629 348.159 379.357 345.913C378.664 345.225 378.113 344.476 376.77 344.241C375.309 343.987 374.74 342.143 375.328 340.435C376.064 338.299 377.915 338.863 379.369 338.937C382.006 339.079 383.436 341.45 385.342 342.818C390.684 346.637 396.44 349.942 401.026 354.788C402.549 356.391 403.749 358.347 406.423 360.061C405.736 355.512 406.992 351.693 406.881 347.72C406.739 342.453 406.999 337.216 408.657 332.135C408.967 331.182 409.27 330.396 410.428 330.359C412.018 330.303 411.734 331.504 411.913 332.475C413.553 341.438 414.172 350.412 412.458 359.436C412.204 360.779 411.919 361.151 410.842 362.345C412.736 363.274 414.735 363.298 416.772 363.1C417.477 363.032 418.14 363.156 418.647 362.395C420.64 359.411 423.202 356.911 425.202 353.841C427.776 349.88 429.163 345.782 430.215 341.351C432.196 333.001 433.644 324.466 436.683 316.451C439.047 310.225 438.218 304.444 437.023 298.273C435.649 291.186 434.077 284.143 432.103 277.235C430.029 269.981 427.529 262.87 425.821 255.473C425.072 252.224 425.053 249.154 424.935 245.979C424.892 244.797 425.332 243.497 426.526 243.293C427.591 243.107 427.579 244.531 428.006 245.267C433.997 255.721 436.541 267.171 438.658 278.925C440.044 286.625 439.592 294.38 440.923 302.011C441.022 302.581 440.669 303.274 441.356 303.67C445.893 306.282 444.686 310.608 444.488 314.532C443.894 326.236 439.969 337.185 436.59 348.252C434.968 353.569 434.715 358.947 435.327 364.425C435.556 366.474 435.458 368.535 433.551 370.552C441.901 370.831 449.625 372.248 457.399 373.183C460.37 373.542 463.297 374.365 466.262 374.408C468.663 374.446 471.226 374.154 473.454 373.307C478.764 371.289 483.413 373.486 488.209 375.003C488.55 375.108 489.058 375.597 489.027 375.838C488.463 379.737 490.821 379.02 493.39 379.075C498.41 379.193 502.928 382.096 507.867 382.504C513.041 382.931 517.343 385.71 522.177 387.004C523.99 387.487 526.219 389.455 526.342 392.215C526.491 395.626 524.046 397.482 521.886 399.413C520.846 400.348 519.447 400.918 518.154 401.524C516.644 402.236 515.09 404.198 513.382 402.384C511.667 400.558 511.061 398.373 512.701 395.873C514.774 392.71 514.675 392.444 510.844 391.565C504.5 390.117 498.174 388.663 491.967 386.657C488.488 385.537 488.185 386.063 487.572 390.197C486.483 397.513 483.914 404.458 482.002 411.563C479.811 419.708 477.836 427.915 475.781 436.098C475.565 436.952 475.54 437.391 476.419 436.426C476.809 435.999 477.477 436.352 477.557 436.946C477.985 440.121 479.705 439.038 481.618 438.419C484.193 437.589 486.935 438.078 489.59 438.109C492.753 438.146 495.686 437.707 498.731 436.574C502.148 435.312 505.855 436.562 509.34 437.231C511.494 437.645 512.367 437.082 513.326 435.281C519.144 424.357 523.675 412.9 527.605 401.196C527.673 401.004 527.685 400.769 527.803 400.62C528.663 399.562 528.583 397.092 530.13 397.457C531.839 397.86 532.457 399.896 532.562 401.871C532.804 406.568 530.984 410.87 529.864 415.24C528.02 422.462 525.21 429.389 521.044 435.72C517.262 441.47 512.806 446.013 505.521 446.824C502.965 447.109 500.953 448.897 498.781 450.067C494.058 452.611 489.893 451.157 485.963 448.749C484.353 447.765 483.797 447.028 482.039 448.668C480.51 450.098 477.675 449.906 476.004 448.86C474.593 447.969 474.302 445.679 475.657 443.903C476.982 442.157 474.927 440.628 475.187 438.895C473.844 444.503 472.532 450.117 471.139 455.712C470.551 458.082 470.991 459.357 473.801 459.159C475.837 459.017 478.338 458.181 478.851 461.604C479.006 462.613 480.269 462.242 481.005 462.174C484.564 461.827 488.222 461.79 491.62 460.824C493.848 460.193 495.822 458.503 498.329 459.141C502.179 460.119 506.27 459.822 509.978 461.778C512.336 463.022 513.32 465.039 513.889 467.175C515.69 473.909 517.182 480.717 518.798 487.5C519.181 489.103 518.989 490.75 519.181 492.39C519.862 498.047 521.254 503.587 521.49 509.33C521.706 514.647 522.74 519.933 523.421 525.231C524.393 532.794 525.29 540.364 526.367 547.909C527.184 553.659 528.372 559.359 529.121 565.115C530.136 572.908 531.77 580.62 533.411 588.251C534.945 595.375 535.422 602.66 537.366 609.704C538.492 613.782 539.037 618.096 539.222 622.33C539.352 625.326 541.624 627.442 541.482 630.654C541.382 632.883 541.908 635.495 542.249 637.896C542.688 640.997 542.824 644.123 544.106 647.217C545.028 643.516 544.161 639.784 544.824 636.126C545.721 631.156 546.538 626.081 546.532 621.049C546.526 611.901 548.754 603.006 549.07 593.958C549.28 587.886 549.918 581.876 551.205 576.052C553.73 564.595 554.201 552.904 555.655 541.348C556.72 532.912 557.741 524.358 557.852 515.811C557.951 508.353 559.09 500.925 558.781 493.51C558.459 485.798 559.66 478.105 558.997 470.48C558.347 462.978 559.301 455.433 558.174 448.031C557.202 441.619 557.976 435.126 556.825 428.788C555.68 422.481 555.915 416.019 554.665 409.799C553.681 404.897 553.761 399.648 552.053 395.149C549.59 388.675 549.317 381.724 546.767 375.411C544.75 370.429 544.774 364.716 542.162 360.228C538.932 354.683 537.663 348.419 534.494 342.892C532.612 339.599 532.284 335.452 530.619 331.992C528.112 326.781 526.837 321.112 524.399 315.937C520.11 306.82 517.677 297.146 514.694 287.602C511.791 278.312 509.501 268.83 506.363 259.639C504.172 253.227 503.114 246.728 501.857 240.161C500.644 233.798 500.582 227.312 499.146 221.011C497.995 215.961 496.497 210.953 495.779 205.841C495.278 202.307 492.901 198.785 495.259 194.979C495.928 193.902 494.832 193.289 493.712 193.722C488.389 195.771 483.091 197.869 477.793 199.979C477.353 200.153 476.809 200.444 477.013 201.1C477.985 204.25 475.595 205.036 473.534 205.94C471.38 206.881 469.159 207.66 466.968 208.502C466.503 208.682 465.866 209.103 465.538 208.638C464.356 206.961 463.044 207.283 461.601 208.162C459.256 209.592 456.706 210.898 455.616 213.559C455.288 214.351 456.384 215.626 456.346 216.66C456.186 221.166 456.508 225.659 455.975 230.202C455.536 233.971 456.607 237.877 456.266 241.782C455.802 247.012 455.406 252.249 456.328 257.51C456.693 259.589 456.483 261.799 456.006 263.959C455.195 267.654 455.889 269.597 459.305 270.804C463.217 272.191 466.411 274.339 469.493 277.043C471.591 278.888 474.24 280.274 476.865 281.308C481.797 283.251 486.421 285.733 490.958 288.407C493.898 290.14 494.226 294.039 491.391 295.995C485.096 300.346 478.635 304.456 472.185 308.584C471.071 309.296 470.669 308.646 470.576 307.384C470.297 303.75 473.002 301.999 475.193 300.062C477.508 298.007 480.157 296.33 483.097 294.163C476.741 292.375 470.96 290.604 465.959 287.033C463.161 285.04 460.302 283.127 457.566 281.054C456.446 280.206 455.647 278.974 454.106 278.659C453.209 278.473 452.596 278.003 452.503 276.783C451.946 269.542 449.248 262.765 447.632 255.752C445.385 245.985 445.094 236.206 445.837 226.272C446.128 222.391 445.837 218.517 447.576 214.84C447.966 214.017 448.059 212.878 448.913 212.569C452.503 211.257 454.199 207.809 456.99 205.612C458.408 204.498 459.472 203.031 461.348 202.387C462.239 202.084 463.266 201.514 463.533 199.819C463.96 197.108 467.129 196.656 468.973 197.027C472.544 197.751 475.125 196.092 477.824 194.65C482.738 192.02 488.08 190.924 493.446 189.878C495.061 189.563 496.33 190.089 496.447 192.169C496.949 189.978 497.221 187.7 498.007 185.614C498.818 183.46 498.317 183.021 496.138 183.002C486.458 182.922 479.284 177.45 472.965 171.075C470.978 169.07 470.947 165.096 470.137 161.989C469.982 161.401 470.743 161.03 471.251 160.665C472.08 160.071 472.891 159.421 473.609 158.696C477.267 154.995 477.248 151.863 473.757 148.125C471.059 145.228 468.441 142.319 466.175 138.983C463.236 134.657 463.44 130.213 464.641 125.899C465.934 121.244 465.395 116.534 466.237 111.899C466.998 107.696 467.413 103.382 467.816 99.1609C468.218 94.9088 468.8 90.4524 466.559 85.9837C464.331 81.5397 465.482 76.3466 466.621 71.5499C467.766 66.7345 470.273 62.501 472.767 58.2799C473.708 56.683 475.261 55.7732 476.697 54.8881C481.513 51.9234 485.956 48.4512 490.425 45.0347C495.872 40.8816 501.981 38.542 508.511 36.8462C511.543 36.0601 513.963 33.6277 517.578 34.0485C526.392 35.0636 534.537 37.2856 542.2 42.2371C546.235 44.849 548.16 49.4972 552.678 51.2488C553.049 51.3912 553.353 51.713 553.724 51.8554C561.69 54.8077 569.29 58.7072 577.503 61.0158C582.387 62.3899 585.834 66.1158 589.981 68.703C593.621 70.9745 594.617 74.7931 596.48 78.2654C598.659 82.3194 599.092 86.2189 598.059 90.3782C597.625 92.136 598.826 94.234 598.424 94.8219C597.062 96.8149 597.73 98.8019 597.526 100.758C596.87 107.065 596.239 113.378 595.676 119.691C594.859 128.876 594.512 138.135 591.708 147.005C591.145 148.781 591.838 150.26 592.048 151.783C593.392 161.63 592.166 171.162 588.539 180.31C587.592 182.705 585.426 184.661 583.662 186.679C581.508 189.136 578.853 191.123 577.027 193.92C574.817 197.3 570.85 196.928 567.576 197.819C563.578 198.909 559.449 199.689 555.216 198.964C554.133 198.779 553.569 199.243 554.046 200.605C554.368 201.521 554.287 202.678 554.083 203.662C553.371 207.017 554.863 208.793 558.063 208.799C561.913 208.799 562.903 211.411 563.398 214.277C563.776 216.437 564.809 217.941 566.177 219.544C573.146 227.696 580.957 234.987 589.48 241.411C600.256 249.538 611.112 257.609 623.274 263.662C625.638 264.838 628.003 266.045 630.206 267.487C633.27 269.499 634.136 272.828 634.755 276.183C634.829 276.585 634.52 277.291 634.167 277.514C630.912 279.575 628.913 283.134 625.28 284.755C621.151 286.6 618.818 290.344 616.187 293.742C615.469 294.671 615.568 295.822 616.218 296.552C617.574 298.081 618.131 299.926 618.638 301.77C620.662 309.055 624.252 315.733 627.105 322.672C629.08 327.468 631.902 332.067 634.105 336.888C636.569 342.279 637.194 347.745 635.343 353.414C633.548 358.904 633.827 359.845 638.432 363.633C639.125 364.208 639.719 364.988 640.146 365.793C642.876 370.893 646.268 375.72 647.58 381.439C648.062 383.538 650.192 383.952 650.786 385.66C653.113 392.333 656.362 398.627 660.212 404.433C664.013 410.164 667.287 416.205 671.05 421.955C675.079 428.107 679.647 433.857 683.651 440.003C684.908 441.934 686.591 443.55 688.597 444.534C691.623 446.019 693.158 448.656 695.126 451.144C698.673 455.638 700.406 461.035 703.185 465.894C704.955 468.988 705.586 472.795 706.366 476.366C706.663 477.728 707.32 478.557 708.192 479.368C713.051 483.905 717.767 488.584 721.035 494.445C722.36 496.822 723.622 499.328 724.315 501.928C725.553 506.57 722.019 509.064 719.104 511.602C718.015 512.549 717.495 512.865 718.405 514.387C720.342 517.643 721.029 521.4 721.933 525.045C722.428 527.044 723.95 528.87 722.923 531.167C719.531 531.328 717.643 529.638 716.257 526.487C715.013 523.677 713.781 520.799 711.702 518.317C710.532 516.919 710.204 517.476 709.529 518.256C708.279 519.698 706.787 520.7 704.553 521.214C708.619 525.268 711.076 530.009 712.376 535.35C712.636 536.409 713.088 536.805 714.239 536.483C717.377 535.611 720.546 535.072 723.61 533.686C726.581 532.342 730.059 531.946 733.364 531.587C735.791 531.321 738.167 530.677 740.674 530.826C743.348 530.981 744.078 527.998 746.151 526.902C749.679 525.045 752.855 525.949 754.192 529.737C755.788 534.261 757.317 538.767 759.477 543.124C761.477 547.147 761.718 552.018 763.494 556.19C765.821 561.655 766.738 567.548 769.405 572.932C771.355 576.875 771.751 581.554 773.373 585.701C775.403 590.882 775.786 596.576 778.039 601.552C782.44 611.257 784.866 621.599 788.617 631.478C790.474 636.361 791.749 641.492 793.94 646.159C798.774 656.464 801.936 667.395 806.467 677.799C808.479 682.416 809.735 687.368 811.264 692.189C811.431 692.709 811.251 693.477 810.967 693.978C807.742 699.555 804.48 705.113 801.181 710.646C800.55 711.704 799.82 712.806 798.254 711.94C796.576 711.011 795.128 712.49 793.482 712.404C787.88 712.113 782.322 712.367 777.037 714.614C776.48 714.849 775.854 714.861 775.421 715.387C770.643 721.131 763.575 722.14 757.039 724.201C753.102 725.445 749.438 727.401 745.39 728.372C738.26 730.087 731.78 733.658 724.761 735.694C718.467 737.52 712.525 740.38 706.144 741.94C705.562 742.082 704.732 742.15 704.479 742.546C703.259 744.459 701.854 744.174 700.208 743.227C699.044 742.559 698.196 742.825 697.683 744.223C697.188 745.566 696.408 746.798 695.838 748.117C695.337 749.28 694.495 749.658 693.369 749.262C692.242 748.859 691.964 748.048 692.186 746.817C692.477 745.189 694.39 743.53 692.96 742.02C691.834 740.825 689.766 740.974 688.095 740.578C680.687 738.832 673.235 737.211 665.783 735.756C661.258 734.871 657.229 732.878 652.835 731.863C646.354 730.371 640.097 728.075 633.734 726.262C629.08 724.937 623.905 725.055 618.985 724.158C616.379 723.681 614.739 722.486 613.223 720.704C613.637 719.912 614.702 720.759 614.993 719.843C609.93 719.175 605.065 717.751 600.206 716.346C599.074 716.018 598.015 715.987 596.901 715.95C594.747 715.882 594.432 717.108 594.63 718.897C594.958 721.88 595.75 724.857 597.068 727.407C598.622 730.403 598.653 733.578 599.216 736.635C600.547 743.821 601.89 751.05 603.418 758.156C604.737 764.295 605.275 770.572 606.891 776.6C608.395 782.214 608.5 788.05 609.985 793.608C612.356 802.496 613.278 811.687 615.785 820.526C616.249 822.172 615.797 823.812 616.243 825.409C618.193 832.354 618.607 839.694 620.681 846.503C622.55 852.643 622.816 859.061 625.125 865.12C626.623 869.057 626.01 873.785 627.297 877.945C629.463 884.957 629.612 892.354 631.952 899.372C633.338 903.538 633.821 908.118 634.582 912.531C634.867 914.177 635.622 915.626 636.129 917.111C636.915 919.42 635.034 920.218 634.266 919.983C632.354 919.401 630.782 920.868 628.956 920.28C628.003 919.977 626.765 919.977 627.737 921.815C630.844 927.664 632.081 934.225 634.638 940.29C634.984 941.12 635.09 942.048 635.288 942.939C635.9 945.706 635.343 949.568 640.357 948.058C641.65 947.668 641.991 948.955 642.43 949.834C643.111 951.208 641.613 950.49 641.248 950.992C638.853 954.278 634.854 954.476 631.425 955.361C624.927 957.039 621.281 960.647 621.064 967.486C620.978 970.185 619.944 973.094 623.292 975.105C620.253 973.131 616.342 975.922 613.631 971.986C612.275 970.012 608.283 970.958 605.486 970.593C605.022 970.531 604.477 970.866 604.731 971.825C605.244 973.781 605.071 975.978 605.845 977.785C607.831 982.415 608.76 987.305 609.942 992.133C610.252 993.401 610.456 994.28 612.381 993.983C615.104 993.562 616.788 995.388 616.72 998.124C616.658 1000.67 617.072 1003.27 616.261 1005.77C615.748 1007.36 617.072 1008.42 617.865 1008.57C626.777 1010.21 634.18 1015.73 642.789 1018.14C644.132 1018.52 646.917 1018.78 646.23 1021.12C645.556 1023.44 643.458 1022.81 641.353 1022.43C632.936 1020.9 625.416 1016.51 616.992 1015.14C616.404 1019.36 617.425 1021.33 621.522 1022.17C623.577 1022.59 625.366 1023.43 627.217 1024.2C636.86 1028.26 647.066 1029.97 657.297 1031.66C661.797 1032.4 666.228 1033.64 670.753 1034.16C678.168 1035 685.452 1036.92 693.022 1036.66C695.956 1036.56 698.914 1037.25 701.904 1037.23C707.846 1037.19 713.596 1035.76 719.451 1035.15C722.601 1034.82 725.461 1033.22 729.236 1033.48C726.915 1028.03 726.63 1022.17 723.548 1017.31C722.471 1015.61 720.385 1014.51 718.677 1013.26C718.009 1012.77 717.068 1012.77 716.337 1013.29C709.653 1018.05 701.761 1020.46 694.662 1024.41C693.684 1024.95 692.719 1025.52 691.809 1026.17C690.28 1027.26 688.727 1027.55 686.907 1026.9C685.688 1026.47 684.45 1026.07 684.27 1024.69C684.097 1023.37 684.896 1022.4 686.102 1021.78C694.031 1017.67 701.545 1012.55 710.829 1011.77C711.182 1011.73 711.504 1011.39 711.881 1011.16C707.103 1008.39 702.052 1006.32 698.165 1002.33C697.243 1001.39 695.399 1001.92 693.957 1001.42C687.699 999.232 681.677 996.62 676.335 992.652C674.658 991.408 673.123 989.948 671.681 988.431C670.517 987.212 669.632 986.809 668.035 987.899C663.041 991.303 657.996 994.658 652.364 996.979C650.947 997.561 649.56 998.223 648.131 998.78C647.233 999.133 646.063 1000.14 645.389 999.015C644.782 998.006 645.698 996.768 646.515 996.063C649.783 993.234 653.169 990.511 657.068 988.592C660.2 987.051 663.462 985.782 666.761 984.352C665.64 983.381 664.526 982.632 663.69 981.648C660.286 977.649 660.429 977.891 655.768 979.834C650.198 982.161 645.005 985.423 639.02 986.754C637.479 987.094 636.08 987.682 634.359 986.828C631.747 985.534 631.456 984.656 633.784 982.737C636.16 980.769 639.051 979.525 641.879 978.633C646.23 977.259 650.223 975 654.654 973.905C656.164 973.533 656.406 972.698 655.384 971.664C652.785 969.027 651.838 965.178 648.44 963.036C646.435 961.767 646.311 955.751 647.796 953.901C649.047 952.341 650.315 951.964 652.197 953.424C655.737 956.172 658.968 959.075 661.221 963.055C662.354 965.054 664.557 966.255 666.21 967.901C671.254 972.939 676.168 978.281 681.968 982.31C685.929 985.058 690.033 987.8 693.771 990.765C697.033 993.352 701.26 994.707 703.81 997.709C708.186 1002.86 714.425 1001.78 719.692 1003.81C723.808 1005.39 728.017 1007.06 731.248 1009.93C734.38 1012.71 735.834 1016.89 736.818 1021.04C738.075 1026.33 737.381 1031.6 736.806 1036.89C736.694 1037.93 735.921 1038.27 735.196 1038.53C730.913 1040.01 727.255 1043.26 722.626 1043.59C718.349 1043.89 714.035 1045.78 709.709 1043.69C709.114 1043.41 708.26 1043.34 707.617 1043.52C699.422 1045.75 690.992 1044.53 682.698 1045.24C680.674 1045.42 678.984 1044.33 677.022 1044.15C670.295 1043.55 663.567 1043.06 657.043 1040.76C653.627 1039.55 649.758 1039.52 646.162 1038.51C630.602 1034.13 614.683 1031.45 598.814 1028.53C589.301 1026.78 579.757 1025.23 570.25 1023.47C569.03 1023.25 566.814 1023.31 567.353 1021.2C567.768 1019.57 568.925 1018.7 571.283 1019.02C576.736 1019.75 582.387 1021.15 587.636 1020.65C591.591 1020.28 595.434 1021.01 599.29 1020.5C600.157 1020.39 600.652 1020.37 599.965 1019.4C599.89 1019.29 600.213 1018.66 600.367 1018.65C605.517 1018.47 604.972 1012.87 608.06 1010.47C610.66 1008.44 610.004 1004.15 608.525 1001.27C606.21 996.775 605.436 991.873 603.777 987.218C602.057 982.391 600.46 977.519 598.801 972.667C598.677 972.302 598.566 971.683 598.343 971.627C594.407 970.693 595.112 968.26 595.527 965.134C595.985 961.687 593.837 958.469 591.894 955.677C590.551 953.746 589.517 951.772 588.83 949.605C587.147 944.307 583.037 939.845 583.08 934.027C583.105 931.093 581.613 931.322 579.682 931.328C571.803 931.347 563.893 931.78 556.169 929.49C553.749 928.772 551.849 927.825 552.4 924.934C552.752 923.059 550.499 923.406 550.239 921.753C549.726 918.485 548.661 915.267 547.504 912.141C545.009 905.382 544.019 898.203 541.401 891.456C539.773 887.278 539.457 882.612 538.071 878.316C536.134 872.306 535.769 865.931 533.751 860.02C532.012 854.933 531.578 849.61 530.031 844.547C527.512 836.309 526.256 827.78 523.929 819.499C523 816.206 522.499 812.789 521.731 809.1C517.139 819.387 512.664 829.383 506.709 838.494C500.044 848.694 494.263 859.401 487.826 869.725C481.265 880.253 475.546 891.308 469.443 902.127C468.645 903.538 467.704 904.868 466.968 906.311C465.785 908.644 464.102 910.055 460.815 909.585C461.973 910.693 463.242 911.411 462.418 912.747C461.707 913.911 460.574 913.336 459.639 913.1C452.435 911.33 445.212 909.789 438.206 907.06C433.712 905.308 428.99 904.052 424.62 901.86C423.518 901.31 422.596 901.594 421.748 902.746C420.182 904.869 419.322 907.363 417.731 909.523C416.648 910.996 414.463 910.724 414.104 912.636L414.209 912.599L414.178 912.612ZM467.537 569.064C467.537 561.81 467.456 554.556 467.562 547.309C467.642 541.552 468.305 535.79 468.069 530.052C467.779 522.978 468.509 515.959 468.979 508.959C469.214 505.462 468.416 502.095 468.855 498.617C469.512 493.442 469.691 488.206 469.982 482.995C470.069 481.398 469.023 479.881 469.567 478.186C470.434 475.481 469.852 472.671 470.031 469.917C470.093 468.951 469.852 468.412 468.713 468.375C465.55 468.283 462.344 467.682 459.231 468.016C451.822 468.802 444.389 468.351 436.974 468.722C430.927 469.025 424.818 468.623 418.703 468.871C407.135 469.335 395.555 469.849 383.98 470.109C374.022 470.331 364.069 471.204 354.098 470.888C353.17 470.857 352.229 470.795 351.319 470.919C343.811 471.959 336.26 471.433 328.734 471.52C327.41 471.532 326.518 471.334 326.326 473.252C326.017 476.254 325.051 479.188 324.587 482.184C324.321 483.911 322.056 485.031 322.31 485.86C322.799 487.482 322.087 488.658 321.734 489.84C317.63 503.599 313.124 517.234 308.718 530.894C302.98 548.695 296.902 566.39 291.078 584.166C287.643 594.645 284.121 605.086 281.249 615.732C279.361 622.714 275.215 628.841 273.407 635.891C278.13 636.182 282.729 636.442 286.851 639.06C289.704 640.873 292.588 642.879 295.745 643.906C302.361 646.06 308.464 649.544 315.334 651.011C320.756 652.169 325.98 654.174 331.26 655.79C338.117 657.888 345.08 660.172 351.431 663.774C351.994 664.09 352.569 664.628 353.393 664.387C357.057 663.316 360.888 663.793 364.614 663.489C377.042 662.48 389.52 661.799 401.985 661.725C408.794 661.688 415.59 662.016 422.745 661.249C415.943 656.105 407.946 655.901 400.407 654.849C393.345 653.865 386.165 653.283 379.06 652.54C368.303 651.42 357.558 650.071 346.776 649C341.082 648.43 335.381 647.329 329.774 646.239C322.105 644.754 314.158 644.376 306.811 641.158C302.782 639.394 298.431 638.379 293.554 636.807C297.707 635.185 301.03 634.894 304.565 636.015C306.861 636.745 309.318 637.203 311.719 637.308C319.623 637.642 327.286 639.741 335.233 640.032C341.206 640.254 347.123 641.956 353.077 642.928C358.641 643.838 364.199 644.574 369.85 645.014C375.996 645.484 382.118 646.796 388.319 647.36C392.479 647.743 396.656 647.174 400.846 648.424C405.204 649.724 409.97 648.876 414.445 649.507C421.649 650.522 428.884 650.968 436.107 651.606C440.57 651.995 445.039 652.373 449.47 652.973C456.229 653.889 462.982 654.818 469.79 655.338C475.28 655.759 480.745 656.495 486.229 656.996C489.998 657.343 493.786 657.541 497.741 657.814C494.504 650.126 486.854 646.673 483.307 639.833C482.794 638.843 481.754 638.156 482.336 636.893C483.159 635.098 484.323 636.497 485.146 636.801C492.035 639.313 496.491 644.822 500.848 650.25C502.866 652.763 504.388 654.155 508.102 654.304C516.563 654.651 524.838 653.728 533.181 652.911C535.67 652.664 535.967 651.569 535.441 649.73C533.924 644.469 534.358 638.936 532.699 633.613C531.034 628.29 531.145 622.528 529.647 617.019C528.038 611.084 527.797 604.802 526.188 598.786C524.752 593.432 524.355 587.874 522.913 582.452C521.273 576.287 520.258 569.881 519.15 563.574C517.114 551.926 515.672 540.178 513.574 528.524C512.441 522.248 512.441 515.78 511.426 509.405C510.312 502.411 510.299 495.256 509.39 488.181C508.597 482.029 508.455 475.809 506.499 469.842C505.998 468.32 505.397 467.026 503.46 467.15C501.826 467.255 500.192 467.243 498.546 467.441C494.696 467.905 490.543 469.062 487.015 468.091C483.283 467.063 480.609 468.994 477.44 469.285C476.06 469.415 475.726 470.635 476.103 471.879C476.45 473.011 477.044 473.352 478.406 472.949C481.222 472.114 484.143 471.606 487.033 471.018C492.61 469.886 494.096 470.795 495.426 476.329C497.135 483.428 498.379 490.632 498.979 497.892C499.227 500.907 500.254 504.385 497.617 507.257C494.479 501.105 492.338 494.773 489.998 488.534C488.94 485.7 488.271 482.722 487.312 479.844C486.879 478.557 486.514 477.177 484.614 477.016C482.107 476.805 479.749 477.697 477.292 477.721C476.307 477.734 476.276 478.526 476.252 479.287C476.085 484.22 475.063 489.134 475.094 494.012C475.156 504.218 472.748 514.171 472.581 524.334C472.519 527.899 471.802 531.464 471.245 535.01C469.957 543.23 470.23 551.567 469.283 559.792C468.93 562.869 469.375 566.13 467.543 569.077L467.537 569.064ZM625.385 917.235C626.208 916.35 625.923 915.762 625.583 915.075C622.11 908.031 621.163 900.202 618.799 892.805C617.035 887.285 616.589 881.417 614.937 875.791C613.117 869.608 612.275 863.152 610.549 856.907C609.447 852.915 609.317 848.613 607.918 844.751C605.696 838.617 605.145 832.143 603.957 825.88C602.28 817.016 600.181 808.203 599.03 799.241C598.616 796.041 597.18 793.169 596.4 790.13C595.317 785.927 595.304 781.341 594.172 777.237C592.092 769.742 591.937 761.931 589.542 754.504C587.741 748.927 587.116 742.979 586.033 737.223C584.256 727.791 581.911 718.5 579.429 709.297C577.566 702.383 576.711 695.259 574.316 688.432C572.366 682.868 571.871 676.778 570.59 670.947C568.888 663.211 567.13 655.4 566.257 647.477C566.103 646.06 566.041 644.234 567.582 643.745C569.129 643.256 571.011 642.996 572.397 644.68C573.666 646.221 575.114 647.626 575.814 649.557C577.782 655.022 579.726 660.5 581.675 665.946C583.848 661.478 587.017 657.473 587.964 652.342C588.403 649.959 588.948 647.583 589.35 645.181C590.179 640.273 592.086 635.643 593.138 630.809C594.809 623.153 597.947 615.93 599.445 608.218C600.386 603.347 602.28 598.693 603.14 593.784C603.4 592.293 604.019 590.863 604.471 589.409C607.349 590.659 605.808 588.078 606.222 587.286C606.575 586.617 606.538 585.744 606.73 584.643C600.429 585.286 594.357 584.581 588.254 584.624C581.279 584.674 574.291 583.615 567.328 582.848C562.779 582.347 563.064 582.235 563.838 577.649C564.314 574.814 566.425 571.862 564.091 568.55C563.676 569.213 563.194 569.627 563.188 570.048C563.181 575.798 561.473 581.424 561.529 587.106C561.578 592.169 560.229 596.991 560.105 602.047C559.901 610.558 557.37 618.895 557.085 627.535C556.905 633.031 555.228 638.472 554.318 643.956C553.786 647.162 552.802 650.473 553.179 653.599C553.693 657.863 552.727 661.96 551.985 665.878C551.211 669.938 549.856 673.38 553.353 676.716C554.101 677.434 554.56 678.523 554.968 679.612C557.128 685.331 559.914 690.704 564.147 695.247C565.744 696.955 565.707 699.251 565.007 701.374C563.924 704.667 564.921 708.319 562.259 711.791C565.57 710.677 567.731 709.674 567.892 706.604C567.929 705.886 568.721 705.292 569.42 705.41C569.965 705.503 570.145 706.276 570.299 706.92C571.067 710.139 569.563 712.088 565.8 714.384C562.878 716.167 559.22 716.532 556.8 719.206C556.447 719.596 555.748 719.924 555.587 719.256C555.129 717.405 553.928 718.333 552.907 718.333C548.915 718.333 544.929 719.262 541.017 719.156C532.909 718.94 524.801 719.707 516.705 719.026C514.613 718.853 512.528 718.16 510.138 718.717C512.094 723.254 512.986 727.945 514.483 732.482C517.844 742.67 520.469 753.105 523.285 763.472C525.142 770.305 526.039 777.361 527.345 784.293C528.868 792.377 530.959 800.336 532.42 808.438C533.998 817.171 535.243 826.016 537.588 834.601C538.653 838.506 538.888 842.523 540.336 846.422C542.985 853.553 543.425 861.283 545.375 868.679C547.764 877.734 549.497 886.963 552.226 895.962C554.652 903.946 556.639 912.085 558.409 920.243C558.973 922.843 559.932 923.387 562.346 923.616C568.368 924.192 574.366 923.034 580.382 923.641C584.034 924.012 587.679 923.907 591.38 923.381C595.106 922.855 598.962 921.406 602.329 921.487C606.953 921.598 610.648 919.816 614.683 918.689C616.187 918.268 618.484 918.151 618.316 915.378C618.267 914.511 619.622 914.419 620.39 914.685C622.185 915.304 624.487 914.839 625.397 917.235H625.385ZM697.41 730.359C698.852 726.027 700.202 722.041 701.502 718.042C703.538 711.76 705.308 705.379 708.285 699.443C708.923 698.168 709.616 696.683 711.318 696.887C714.635 697.277 715.632 699.047 714.71 702.501C714.035 705.038 712.444 707.731 712.853 710.07C713.744 715.177 713.954 720.246 713.837 725.358C713.787 727.555 714.673 727.345 716.238 726.868C718.485 726.181 720.237 724.523 722.564 723.99C731.179 722.022 739.114 717.937 747.687 715.833C754.452 714.174 760.709 710.863 767.821 710.176C770.272 709.94 773.082 710.386 775.322 708.969C780.453 705.726 786.011 704.983 791.934 705.323C793.432 705.41 795.648 705.769 796.576 704.519C798.557 701.845 800.488 699.072 801.8 695.928C802.469 694.325 802.209 693.081 801.305 691.694C797.028 685.121 794.113 677.842 790.517 670.917C788.821 667.642 788.734 663.582 786.587 660.846C782.514 655.647 782.749 648.591 778.336 643.621C777.241 642.383 777.185 640.18 776.77 638.391C775.564 633.204 772.562 628.754 770.959 623.704C767.92 614.123 764.423 604.684 761.198 595.159C760.393 592.782 760.3 590.157 759.056 587.935C755.696 581.95 754.563 575.167 752.558 568.761C750.546 562.324 748.906 555.677 747.501 549.023C746.56 544.567 745.112 540.215 744.258 535.747C743.441 531.457 743.645 531.42 739.609 532.862C739.133 533.029 738.669 533.228 738.186 533.389C731.997 535.437 725.467 536.452 719.599 539.497C718.924 539.85 717.879 539.498 718.578 540.94C722.737 549.481 723.771 558.981 726.674 567.938C730.072 578.428 731.935 589.384 735.463 599.893C737.035 604.579 737.121 609.771 738.793 614.407C741.163 620.993 741.844 627.962 744.177 634.523C745.854 639.239 745.638 644.42 747.81 649.08C748.9 651.42 749.178 654.162 749.717 656.743C749.952 657.888 749.16 658.736 748.293 659.305C747.6 659.757 747.099 659.132 746.981 658.507C746.344 655.158 744.282 652.441 742.946 649.402C740.959 644.878 739.845 640.069 738.081 635.458C735.005 627.405 731.712 619.433 729.267 611.102C727.02 603.446 724.736 595.759 722.347 588.134C720.249 581.431 717.984 574.765 716.152 567.981C714.351 561.315 711.528 554.866 711.423 547.804C711.398 546.194 710.439 545.551 709.176 545.346C707.765 545.117 706.298 545.093 704.862 545.155C702.64 545.254 701.44 546.132 701.415 548.744C701.378 552.08 702.306 555.262 702.473 558.517C702.764 564.274 701.922 570.184 702.931 575.786C704.392 583.881 703.649 592.082 705.128 600.147C706.032 605.068 705.667 610.229 706.608 615.144C708.297 623.995 707.883 633.062 709.61 641.864C710.39 645.85 709.467 649.959 711.194 653.902C712.76 657.473 710.984 660.388 707.103 660.339C705.067 660.314 702.331 658.909 701.272 656.904C699.682 653.896 698.685 650.516 697.837 647.193C696.383 641.467 696.414 635.513 695.485 629.683C694.353 622.54 694.662 615.181 694 607.952C693.492 602.431 693.988 596.867 693.331 591.414C692.279 582.625 692.929 573.811 692.49 565.022C692.224 559.582 692.422 553.925 692.966 548.404C693.22 545.805 692.118 546.126 690.546 546.875C690.472 545.507 692.713 545.018 691.431 543.638C689.692 541.757 690.15 539.485 690.54 537.48C691.927 530.281 690.856 522.78 693.406 515.718C694.13 513.706 691.666 513.576 690.639 512.753C689.432 511.788 689.401 513.471 688.894 514.065C686.765 516.554 685.23 519.623 684.45 522.539C683.175 527.311 681.578 531.934 679.826 536.514C678.991 538.693 678.143 540.123 681.584 540.537C683.36 540.748 685.019 542.153 686.672 543.124C687.501 543.613 687.91 544.505 687.848 545.489C687.767 546.863 686.548 546.058 685.954 546.417C684.512 547.296 682.896 547.178 681.454 546.888C677.326 546.064 673.092 546.622 669.045 546.69C663.808 546.776 658.733 546.392 653.602 545.767C651.696 545.532 650.427 545.705 650.656 548.509C651.343 556.896 653.23 565.19 652.742 573.669C652.513 577.649 653.868 580.211 657.817 582.018C662.354 584.098 666.389 587.397 669.639 591.185C676.558 599.256 681.962 608.379 686.251 618.096C688.987 624.286 690.695 631.001 690.156 637.667C689.358 647.564 684.567 655.889 677.103 662.499C675.97 663.502 675.741 664.071 676.144 665.501C677.567 670.527 680.811 674.667 682.698 679.452C685.657 686.916 691.085 693.173 693.177 701.108C693.461 702.197 694.161 703.126 693.858 704.382C692.564 709.779 691.809 715.239 692.353 721.75C693.121 718.742 693.944 719.2 694.842 720.729C695.411 721.706 695.634 722.783 695.987 723.829C696.674 725.835 696.042 728.106 697.404 730.341L697.41 730.359ZM507.211 743.815C506.722 747.207 504.896 748.754 503.262 750.481C500.223 753.693 496.045 754.968 492.375 757.116C483.617 762.241 474.977 767.563 465.736 771.834C462.697 773.239 460.456 776.068 457.12 777.107C452.887 778.426 450.355 781.774 447.713 785.024C445.144 788.186 442.854 791.56 440.335 794.735C434.325 802.311 428.049 809.682 421.798 817.066C419.167 820.173 417.638 824.184 414.779 826.913C410.861 830.652 407.754 835.009 404.108 838.927C398.525 844.937 395.183 852.686 389.081 858.293C388.053 859.234 388.22 859.934 389.297 860.757C391.29 862.267 392.967 864.136 394.31 866.228C398.971 873.476 405.099 879.387 411.412 885.118C414.742 888.139 418.765 890.2 422.497 892.651C432.394 899.156 443.033 904.002 454.347 907.474C456.996 908.285 458.649 910.092 460.085 905.395C462.041 899.007 465.847 893.202 468.75 887.093C472.587 879.028 475.93 870.697 480.182 862.861C490.673 843.532 501.609 824.438 512.255 805.195C515.003 800.225 519.8 795.942 516.582 788.979C514.948 785.445 515.536 780.932 514.223 777.175C511.828 770.305 512.076 762.946 509.705 756.076C508.461 752.474 508.851 748.42 507.198 743.821L507.211 743.815ZM592.575 98.3437C589.678 99.2164 586.949 100.114 584.263 100.572C575.721 102.02 567.124 101.934 558.849 98.8574C555.655 97.6691 552.139 96.623 549.676 94.4753C548.03 93.0456 546.495 92.9034 545.529 93.6152C543.976 94.7602 542.212 94.9336 540.695 95.045C537.347 95.2864 536.115 97.1677 534.915 99.9034C533.85 102.323 532.451 105.084 529.963 106.136C525.835 107.882 523.576 111.075 522.103 114.869C521.341 116.831 520.499 118.36 518.612 119.184C514.267 121.084 513.32 124.847 513.388 128.981C513.462 133.778 513.171 138.469 511.531 143.037C510.646 145.507 509.532 147.958 509.631 150.675C509.681 152.03 509.513 153.417 507.836 153.188C506.326 152.984 505.119 152.055 505.274 150.124C505.348 149.165 505.664 148.298 505.596 147.227C505.348 143.223 502.736 140.667 500.285 138.253C493.972 132.032 488.915 133.419 486.39 141.484C486.21 142.059 486.241 142.697 486.099 143.285C485.276 146.726 486.402 150.39 485.777 153.559C484.917 157.904 486.551 160.949 488.315 164.273C488.946 165.455 489.918 166.786 491.242 166.823C494.436 166.922 497.481 167.9 500.638 168.08C504.283 168.284 507.242 170.172 507.174 174.411C507.124 177.345 506.338 180 505.49 182.81C504.16 187.223 503.206 191.766 501.473 196.068C501.102 196.984 501.381 197.646 501.727 198.302C503.621 201.867 503.962 205.94 506.301 209.511C508.356 212.643 508.523 216.994 509.662 220.763C510.101 222.236 510.77 224.718 511.568 224.818C515.461 225.294 518.878 227.361 522.734 227.788C529.227 228.506 535.602 230.041 542.28 229.422C544.471 229.218 545.164 228.611 545.467 226.977C546.383 221.983 547.169 216.969 548.011 211.962C548.667 208.063 549.992 204.263 549.856 200.24C549.831 199.484 550.109 198.339 548.748 198.587C545.152 199.255 542.014 197.522 538.783 196.612C531.275 194.502 524.052 191.661 517.838 186.709C516.885 185.948 516.074 185.348 516.544 184.079C517.027 182.761 518.067 182.185 519.466 182.383C522.387 182.792 525.265 183.497 527.512 185.49C528.645 186.493 529.932 187 531.226 187.378C538.987 189.656 546.65 192.41 554.764 193.227C559.691 193.722 564.493 193.963 568.981 190.708C573.177 187.662 576.012 183.516 579.503 179.901C582.901 176.385 585.395 172.511 586.144 167.807C586.54 165.35 588.304 162.546 586.169 160.182C585.197 159.111 585.277 158.474 585.661 157.291C587.32 152.136 588.205 146.868 588.298 141.409C588.422 134.001 589.189 126.635 590.668 119.344C592.061 112.493 592.439 105.53 592.587 98.35L592.575 98.3437ZM554.194 209.895C553.526 214.271 552.845 218.523 555.37 222.639C557.747 226.513 559.233 230.827 561.096 234.949C564.091 241.59 566.852 248.337 569.921 254.947C574.143 264.027 577.64 273.447 581.421 282.731C583.971 288.983 586.224 295.364 589.065 301.479C592.624 309.135 594.939 317.299 598.844 324.813C599.958 326.955 600.639 329.418 601.035 331.813C601.89 336.956 604.502 342.063 602.422 347.373C598.065 358.502 599.16 370.088 599.922 381.464C600.534 390.68 600.887 399.933 601.915 409.131C602.391 413.383 602.032 417.728 602.422 421.999C603.326 431.957 603.728 441.941 604.663 451.905C605.523 461.022 606.389 470.146 607.392 479.244C608.463 488.974 609.917 498.672 611.805 508.291C612.635 512.512 612.925 516.851 613.922 521.029C615.946 529.545 618.094 538.043 620.6 546.423C621.417 549.147 620.532 553.058 624.735 554.216C625.688 554.482 625.614 555.881 625.131 556.673C623.732 558.951 624.419 561.148 625.1 563.395C626.059 566.551 626.994 569.695 628.114 572.815C630.107 578.348 630.893 584.296 633.084 589.829C634.836 594.255 635.38 599.008 636.959 603.545C639.601 611.139 642.808 618.505 645.401 626.105C645.989 627.832 646.051 630.011 647.171 631.243C651.596 636.12 651.863 642.792 654.951 648.251C657.105 652.057 658.176 656.446 659.89 660.524C664.019 670.341 667.522 680.423 671.198 690.425C673.377 696.349 674.67 702.519 676.119 708.647C676.286 709.359 676.645 709.643 677.351 709.767C681.238 710.448 684.735 706.864 683.373 703.219C680.699 696.045 677.078 689.355 673.241 682.689C668.289 674.098 664.043 665.043 660.2 655.888C655.904 645.664 652.834 634.975 648.533 624.694C644.739 615.621 642.702 605.773 640.307 596.167C638.698 589.724 638.327 582.947 638.011 576.399C637.534 566.458 636.996 556.512 636.482 546.572C636.346 543.923 636.538 541.082 635.634 538.681C633.072 531.878 632.187 524.649 629.73 517.791C626.796 509.609 623.769 501.433 620.668 493.331C618.248 487.006 616.85 480.482 614.85 474.1C613.291 469.124 613.6 463.789 612.894 458.652C611.137 445.821 610.877 432.96 611.929 420.092C612.145 417.437 611.78 414.862 611.991 412.281C612.344 407.936 613.173 403.635 613.569 399.296C613.947 395.093 614.912 390.99 614.405 386.62C614.002 383.16 615.135 379.539 615.451 375.981C615.97 370.094 616.979 364.289 618.774 358.681C620.068 354.639 621.912 350.777 623.497 346.829C624.883 343.381 625.205 340.02 623.162 336.616C618.991 329.672 616.193 322.102 613.489 314.507C612.542 311.846 612.238 308.919 611.032 306.4C608.655 301.43 608.184 296.206 608.036 290.858C607.992 289.255 608.488 288.166 610.27 288.314C611.607 288.426 612.294 287.683 613.086 286.798C615.673 283.913 618.23 280.992 621.021 278.318C622.531 276.87 621.683 276.555 620.588 275.62C619.183 274.425 617.32 274.481 615.896 273.255C610.202 268.36 603.858 264.312 598.003 259.583C591.293 254.167 584.566 248.789 578.024 243.169C574.403 240.056 570.801 236.998 567.576 233.439C565.249 230.871 563.144 228.166 561.715 225.108C559.907 221.24 558.669 217.106 557.264 213.058C556.738 211.535 555.89 210.439 554.194 209.882V209.895ZM366.242 695.141C369.819 696.386 373.304 696.274 376.541 697.116C383.399 698.905 390.449 699.245 397.356 700.52C402.221 701.418 407.141 701.869 412.037 702.191C415.528 702.426 418.82 703.72 422.33 703.584C429.745 703.305 436.974 705.298 444.383 705.391C448.864 705.447 453.357 706.734 457.807 706.543C464.9 706.239 471.913 707.26 478.919 707.644C488.445 708.17 498.001 708.337 507.527 709.092C513.388 709.557 519.293 709.39 525.154 709.848C528.137 710.083 531.096 709.272 534.011 709.81C540.144 710.943 546.371 710.504 552.517 711.092C555.699 711.395 556.633 709.841 557.227 707.366C557.729 705.286 558.044 703.664 555.63 702.061C550.549 698.682 547.535 693.706 546.736 687.541C546.637 686.792 546.322 686.179 545.764 685.684C543.71 683.865 542.298 681.135 542.713 678.87C543.635 673.85 542.1 668.917 542.992 663.966C543.45 661.391 542.057 659.837 539.742 660.463C538.393 660.828 537.112 660.667 535.818 660.884C532.755 661.397 528.36 660.846 527.648 664.387C526.974 667.766 524.752 668.571 522.691 669.27C521.013 669.839 519.008 670.161 517.089 670.36C510.417 671.065 503.708 670.836 497.017 671.269C489.386 671.764 481.686 671.591 474.03 671.319C467.927 671.102 461.83 671.331 455.715 670.984C449.538 670.632 443.151 669.889 436.999 672.346C428.42 675.769 419.328 677.619 410.551 680.516C402.394 683.208 394.156 685.585 386.042 688.482C379.611 690.778 373.322 693.644 366.242 695.135V695.141ZM628.034 379.162C626.994 382.089 627.105 384.806 626.573 387.387C625.632 391.912 626.047 396.56 624.976 401.091C622.76 410.48 621.615 420.036 621.052 429.661C620.99 430.725 620.78 432.384 622.599 431.753C624.809 430.985 627.08 431.233 629.296 430.917C633.134 430.373 637.033 430.298 640.901 431.202C642.399 431.555 643.117 432.514 643.154 433.69C643.185 434.668 641.935 434.749 641.044 434.996C639.447 435.442 637.85 435.609 636.204 435.59C631.976 435.547 627.743 435.696 623.522 435.528C621.411 435.448 620.866 436.203 621.009 438.159C621.225 441.173 621.523 444.125 622.03 447.134C623.107 453.509 623.33 460.007 625.304 466.277C626.468 469.966 626.598 474.008 627.966 477.597C629.024 480.358 629.185 483.787 631.562 485.78C636.105 489.593 639.509 494.463 644.015 498.332C648.118 501.854 651.145 506.403 654.14 510.946C655.217 512.58 654.537 513.7 654.066 514.678C653.41 516.046 652.048 515.328 650.848 514.852C646.243 513.019 643.006 508.903 637.937 507.498C640.784 512.468 642.43 517.909 644.318 523.263C644.671 524.253 645.432 524.074 646.026 523.498C647.753 521.808 650.093 521.177 652.141 520.1C656.016 518.051 659.315 515.074 663.48 513.515C667.448 512.029 667.41 511.924 665.17 508.142C663.703 510.005 661.623 510.413 659.457 510.723C658.467 510.865 657.489 511.54 656.715 510.339C655.991 509.213 655.415 508.198 655.991 506.669C657.619 502.349 660.367 498.709 662.904 494.965C667.491 488.206 674.021 483.422 680.309 478.402C683.255 476.05 686.375 474.224 690.175 473.494C693.071 472.937 695.807 474.416 698.964 473.773C696.395 470.393 694.823 466.692 693.01 463.127C692.496 462.112 691.797 462.291 691.017 462.186C688.479 461.827 686.201 462.854 683.837 463.424C679.009 464.594 674.064 465.373 669.366 466.921C665.523 468.19 661.957 470.319 658.287 472.108C657.309 472.584 656.282 473.036 655.521 472.027C654.815 471.086 654.809 469.904 655.583 468.901C655.954 468.425 656.418 467.973 656.932 467.651C661.92 464.538 667.348 462.545 673.191 461.994C678.786 461.462 684.413 461.276 690.026 460.979C691.097 460.923 692.316 460.484 691.382 459.506C687.674 455.644 686.492 450.234 681.782 446.719C674.949 441.613 669.15 435.04 664.39 427.841C660.763 422.358 655.941 417.728 653.125 411.675C651.126 407.379 647.252 404.303 645.228 400.014C643.062 395.421 640.338 391.213 636.606 387.777C633.759 385.153 630.831 382.622 628.058 379.18L628.034 379.162ZM473.324 80.4752C478.913 74.5334 485.171 69.6127 490.908 64.1166C493.421 61.7089 496.231 59.6169 498.954 57.4382C499.808 56.7512 500.978 56.4973 501.764 57.3267C502.693 58.3108 501.368 58.8557 500.96 59.5861C499.257 62.625 496.151 64.265 493.91 66.7655C488.779 72.4845 483.642 78.1974 478.492 83.8978C475.948 86.7139 474.327 89.784 474.252 93.7823C474.203 96.679 475.602 100.188 472.031 102.286C471.82 102.41 471.87 103.066 471.882 103.475C471.981 106.563 471.932 109.639 472.148 112.734C472.433 116.769 473.844 120.96 472.371 124.872C470 131.185 470.396 136.953 474.203 142.53C474.785 143.384 475.33 144.758 476.233 144.498C477.36 144.176 478.764 143.625 479.26 142.239C479.563 141.385 479.637 140.45 479.959 139.608C480.925 137.058 481.271 133.858 483.858 132.54C487.461 130.696 488.451 127.391 489.875 124.166C492.425 118.385 495.878 113.248 501.145 109.578C503.12 108.204 505.28 107.083 507.347 105.833C513.153 102.33 518.265 97.6383 524.925 95.5896C529.579 94.1598 532.996 90.1242 538.238 89.7281C545.901 89.1525 553.285 86.2312 561.052 86.553C565.732 86.7449 570.355 85.8659 575.052 86.4167C578.599 86.8376 582.065 87.4939 585.544 88.2367C586.416 88.4224 588.403 89.3319 588.131 87.0233C587.345 80.3821 584.801 74.8428 578.865 70.9868C574.663 68.2511 569.866 66.871 565.62 64.2653C562.767 62.5137 559.604 60.304 556.076 61.2386C550.376 62.7426 544.514 63.2192 538.771 64.5128C530.136 66.4562 521.731 68.932 513.394 71.7605C509.761 72.9922 505.967 74.0568 502.693 75.9631C495.996 79.8686 489.082 83.4523 482.763 87.9272C500.65 69.7057 523.464 61.9751 547.962 57.6425C543.549 53.378 537.978 50.8278 533.59 46.6376C531.566 44.7004 528.608 43.7782 525.402 43.4749C521.973 43.1531 518.704 41.3334 515.313 40.3431C514.056 39.9779 512.503 39.1549 511.333 40.3618C508.975 42.7942 505.787 43.5556 502.897 44.9235C494.808 48.7547 487.919 54.5726 480.058 58.7752C478.498 59.6108 477.638 60.8796 476.821 62.3217C473.677 67.8612 472.538 73.7907 473.343 80.4752H473.324ZM466.324 377.967C455.579 378.339 445.255 377.441 434.938 376.698C430.036 376.345 425.041 375.813 420.59 373.288C419.551 372.694 419.204 373.109 419.198 374.266C419.167 378.964 417.521 383.352 415.818 387.554C413.473 393.354 410.997 399.11 408.657 404.928C407.816 407.033 406.714 409.162 406.949 411.384C407.711 418.495 408.379 425.607 408.738 432.749C408.787 433.709 409.066 434.191 410.137 434.359C416.698 435.374 422.72 438.32 429.287 439.49C435.767 440.641 441.962 443.129 448.622 443.822C451.147 444.082 451.667 443.135 451.383 441.427C450.708 437.404 451.958 433.634 452.466 429.772C453.289 423.515 455.332 417.474 456.093 411.248C456.706 406.29 457.956 401.524 459.707 397.024C462.121 390.823 463.675 384.386 466.33 377.973L466.324 377.967ZM413.225 368.745C411.077 369.067 409.759 369.612 408.874 371.468C404.845 379.892 400.568 388.205 396.557 396.635C393.339 403.4 389.984 410.133 387.644 417.27C386.301 421.373 384.729 425.378 383.071 429.351C378.583 440.084 374.078 450.816 369.572 461.567C374.028 461.567 378.138 461.685 382.235 461.524C385.126 461.412 387.638 461.932 389.57 464.693C390.052 463.003 389.235 462.099 388.771 460.96C395.79 460.892 402.759 461.152 409.703 460.366C410.972 460.224 412.353 460.428 412.377 458.671C412.47 453.119 414.952 448.049 415.528 442.652C410.23 441.291 404.789 440.418 399.813 438.035C398.296 437.311 397.554 437.67 397.071 439.081C395.876 442.553 394.267 445.852 393.116 449.362C391.884 453.1 389.99 456.628 388.195 460.67C387.539 458.2 386.704 456.312 387.1 454.214C388.536 446.651 389.724 439.031 391.464 431.536C395.338 414.825 399.801 398.275 406.962 382.585C409.01 378.097 411.028 373.591 413.225 368.745ZM673.352 658.346C673.767 658.228 674.033 658.241 674.132 658.117C682.63 647.347 686.418 635.668 681.788 622.008C678.768 613.102 673.495 605.544 668.456 597.814C664.811 592.225 660.225 587.595 654.345 584.036C654.277 591.117 655.663 597.677 657.155 604.232C657.922 607.611 658.145 611.17 659.315 614.395C661.524 620.467 662.719 626.823 665.065 632.852C666.562 636.708 667.163 640.929 668.772 644.729C670.159 648.003 671.081 651.352 672.028 654.731C672.374 655.969 672.907 657.151 673.352 658.346ZM700.177 476.601C694.433 475.499 690.893 479.51 687.272 482.469C679.74 488.621 674.343 496.809 668.029 504.125C667.243 505.035 666.767 506.019 668.636 506.935C671.18 508.179 673.47 509.986 675.772 511.689C679.114 514.152 679.591 514.127 682.339 511.032C683.286 509.962 683.695 508.872 683.528 507.406C683.367 505.994 683.323 504.484 683.645 503.116C684.128 501.049 685.186 500.034 687.625 501.235C690.707 502.751 692.422 505.493 694.421 507.963C696.439 510.463 699.224 512.202 700.951 514.975C702.263 517.086 704.138 516.027 704.918 514.82C707.097 511.441 710.185 508.953 712.84 506.062C715.273 503.413 715.861 500.987 713.428 498.4C711.77 496.636 710.359 494.693 708.786 492.898C706.775 490.595 705.221 487.971 703.253 485.638C701.254 483.267 698.766 480.488 700.189 476.607L700.177 476.601ZM619.938 922.409C616.657 924.297 612.994 925.863 609.138 926.785C606.693 927.367 606.166 928.654 606.129 930.913C606.03 936.861 605.647 942.772 604.496 948.665C603.815 952.155 602.855 955.59 602.342 959.112C601.803 962.807 602.471 963.587 606.074 963.5C608.054 963.451 609.979 963.767 611.712 964.528C613.371 965.252 613.947 965.128 614.262 963.253C615.197 957.707 618.892 954.668 623.967 952.966C626.474 952.124 628.95 951.208 631.456 950.317C626.883 941.274 623.057 932.058 619.925 922.415L619.938 922.409ZM462.288 458.423C464.814 459.37 466.151 458.757 465.748 455.65C465.612 454.598 466.138 453.465 466.293 452.357C467.061 446.787 467.618 441.173 468.589 435.64C470.471 424.932 474.5 414.751 476.146 403.944C477.118 397.55 479.148 391.305 480.832 385.029C482.076 380.394 482.082 380.691 477.316 379.05C474.308 378.011 473.906 379.409 473.745 381.594C473.547 384.237 473.491 386.979 472.953 389.48C470.136 402.533 466.868 415.5 464.69 428.683C463.279 437.237 459.807 445.246 458.296 453.756C457.999 455.439 456.365 457.383 457.343 458.553C457.981 459.32 460.494 458.522 462.282 458.417L462.288 458.423ZM393.37 878.446C391.383 882.735 389.755 887.012 387.081 890.713C386.419 891.635 387.063 891.871 387.428 892.422C390.64 897.311 394.577 901.6 398.785 905.593C401.088 907.777 403.83 909.659 407.098 910.259C408.664 910.544 409.976 910.532 408.862 908.044C407.463 904.918 406.603 901.545 405.557 898.271C404.573 895.201 404.529 891.184 402.493 889.24C399.107 886.009 397.114 881.782 393.37 878.446ZM670.462 543.917C671.644 544.059 672.387 543.861 672.51 542.388C673.092 535.32 675.11 528.542 676.781 521.691C676.911 521.158 677.536 520.539 676.695 520.106C675.921 519.71 675.655 520.539 675.302 520.911C671.613 524.748 667.379 527.911 662.911 530.721C658.324 533.611 654.32 537.523 648.898 539.009C648.415 539.138 648.186 539.826 648.335 539.857C649.944 540.24 649.356 543.527 651.943 542.561C652.599 542.32 653.342 542.072 654.011 542.14C659.5 542.691 664.984 543.31 670.468 543.91L670.462 543.917ZM614.262 713.277C620.055 714.737 626.022 715.362 631.982 715.938C640.326 716.749 648.669 717.572 657.031 718.172C664.192 718.686 671.291 720.073 678.514 719.695C680.29 719.602 681.962 719.293 683.732 718.284C677.115 716.111 640.369 712.924 614.262 713.277ZM425.703 458.565C425.746 458.763 425.796 458.961 425.839 459.166C426.817 459.166 427.795 459.172 428.773 459.166C433.991 459.122 439.214 458.999 444.432 459.073C447.186 459.11 449.142 459.283 449.247 455.266C449.309 452.871 448.486 451.113 448.084 449.034C447.298 444.967 444.574 447.406 442.717 446.917C440.947 446.453 440.093 446.935 439.567 448.724C439.264 449.751 438.206 450.445 437.234 451.07C433.372 453.539 429.54 456.065 425.703 458.565ZM672.232 516.126C671.081 515.718 671.087 513.601 668.834 514.808C661.506 518.732 655.286 524.47 647.512 527.614C646.441 528.047 646.125 528.809 646.36 529.799C646.682 531.16 646.465 532.949 647.611 533.717C648.322 534.193 649.554 533.06 650.365 532.256C652.37 530.263 654.19 527.991 656.474 526.382C661.506 522.842 666.779 519.642 672.232 516.126ZM700.691 525.509C700.295 529.984 698.704 533.519 697.689 537.226C697.416 538.216 695.925 539.237 697.027 540.147C698.221 541.138 699.769 541.608 701.576 541.299C703.854 540.903 705.45 539.182 707.592 538.643C708.947 538.303 709.43 537.839 708.433 536.483C705.945 533.091 703.569 529.607 700.697 525.516L700.691 525.509ZM577.089 572.796C577.089 571.459 577.126 570.116 577.076 568.779C577.033 567.641 576.823 566.489 575.473 566.205C573.809 565.852 573.245 567.201 572.985 568.34C572.36 571.119 571.809 573.935 571.55 576.77C571.191 580.719 571.289 580.601 575.176 579.864C576.674 579.58 577.077 578.936 577.083 577.655C577.083 576.033 577.083 574.412 577.083 572.796H577.089ZM603.697 575.173C603.697 576.584 603.617 577.618 603.722 578.639C603.827 579.673 603.01 581.226 605.275 581.152C607.095 581.09 608.135 580.242 607.949 578.633C607.473 574.529 608.865 570.593 608.747 566.551C608.723 565.778 609.28 564.546 607.801 564.354C606.674 564.206 606.012 564.608 605.449 565.759C603.914 568.891 603.623 572.177 603.697 575.173ZM587.611 576.095C587.611 577.562 587.617 578.596 587.611 579.623C587.605 580.415 587.747 580.911 588.75 581.047C591.287 581.393 593.243 579.852 593.169 577.302C593.088 574.796 592.259 572.32 593.138 569.776C593.441 568.897 593.194 567.832 592.11 567.504C591.225 567.232 590.674 567.931 590.037 568.501C587.561 570.71 587.475 573.576 587.617 576.095H587.611ZM600.93 547.884C601.642 545.223 600.658 544.913 599.135 545.229C596.975 545.681 596.059 546.819 595.267 549.109C594.574 551.115 595.416 552.124 595.874 553.547C597.427 552.965 599.501 553.943 600.54 551.752C601.265 550.224 600.559 548.553 600.93 547.878V547.884ZM542.676 311.599C545.504 311.661 549.429 309.748 548.977 308.498C548.321 306.666 546.581 305.849 544.687 305.626C543.332 305.465 541.184 308.634 541.166 310.503C541.153 311.834 541.958 311.654 542.676 311.599ZM587.623 348.667C587.623 346.346 585.401 343.932 583.309 343.975C582.276 343.994 581.483 344.291 581.508 345.51C581.551 347.689 583.971 351.557 585.253 351.241C586.422 350.957 587.92 350.505 587.623 348.661V348.667ZM532.148 235.655C530.7 235.659 529.973 236.063 529.969 236.868C529.951 239.957 532.061 241.875 535.305 241.782C536.221 241.758 536.233 241.213 536.183 240.569C535.923 237.277 534.58 235.643 532.148 235.655ZM585.265 468.351C587.376 467.936 588.787 466.779 589.957 465.429C591.139 464.061 590.99 462.879 588.873 462.514C587.71 462.316 583.656 464.544 583.383 465.634C582.919 467.478 584.516 467.664 585.271 468.351H585.265ZM572.267 515.322C570.54 514.938 569.309 515.99 568.028 516.801C567.613 517.061 567.341 517.507 567.718 518.101C567.991 518.534 568.108 519.048 568.783 518.986C570.633 518.813 572.49 518.646 574.347 518.478C575.028 518.417 575.61 518.045 575.727 517.439C575.876 516.665 575.244 516.009 574.65 515.73C573.945 515.402 573.072 515.439 572.267 515.322ZM572.02 404.712C570.714 404.532 570.07 404.873 569.785 405.584C569.507 406.29 569.631 406.859 570.534 407.243C571.358 407.596 571.816 408.394 572.174 409.316C572.954 411.334 574.279 409.725 575.084 409.372C576 408.97 576.885 407.701 575.746 406.754C574.551 405.77 572.998 405.219 572.026 404.705L572.02 404.712ZM575.535 557.477C575.461 556.085 574.91 554.086 572.199 553.807C571.054 553.69 570.856 554.457 570.918 555.386C571.061 557.583 573.146 560.096 574.687 559.842C575.48 559.712 575.913 559.18 575.541 557.477H575.535ZM565.806 369.971C564.753 369.989 561.294 373.276 561.776 373.901C562.303 374.582 561.64 375.962 563.008 376.024C564.302 376.086 567.155 372.681 567.167 371.165C567.174 370.193 566.647 369.921 565.806 369.971ZM560.384 355.035C559.765 354.547 559.158 353.86 558.403 353.519C557.363 353.055 556.156 352.869 555.414 354.064C554.85 354.967 553.316 355.37 553.73 356.75C554.071 357.895 555.315 357.901 556.057 357.53C557.506 356.8 559.709 357.387 560.39 355.035H560.384ZM587.568 570.166C587.332 568.216 582.913 566.421 581.366 567.43C580.852 567.764 581.05 568.167 581.143 568.433C581.545 569.596 582.498 570.339 583.625 570.5C584.857 570.679 586.063 571.633 587.363 570.828C587.543 570.717 587.53 570.29 587.568 570.16V570.166ZM469.183 200.697C469.623 202.412 468.67 204.386 471.442 204.157C473.175 204.015 473.863 203.476 473.733 201.781C473.553 199.49 471.405 199.924 470.137 199.398C469.264 199.032 469.041 200.258 469.183 200.697ZM557.605 283.963C558.799 283.815 559.839 283.579 559.653 282.372C559.257 279.76 556.794 280.243 555.111 279.661C554.504 279.451 553.563 279.643 553.817 280.745C554.299 282.855 556.41 282.967 557.605 283.963ZM525.587 237.964C526.051 235.624 524.875 234.782 523.353 234.634C521.985 234.504 521.391 235.37 521.335 236.887C521.23 239.672 523.613 238.719 524.813 239.195C526.027 239.678 525.525 238.168 525.587 237.964ZM516.953 237.673C515.932 235.16 515.573 232.492 512.713 231.669C512.759 235.428 514.172 237.429 516.953 237.673ZM579.509 395.372C580.852 395.001 582.375 394.134 582.808 392.537C583.105 391.435 581.793 390.94 580.697 391.033C578.667 391.2 578.42 393.175 577.702 394.456C577.225 395.31 578.506 395.26 579.515 395.372H579.509ZM571.983 321.075C572.119 323.018 568.591 323.569 570.219 325.704C570.757 326.416 572.577 326.416 573.295 325.63C574.929 323.866 572.156 322.832 571.983 321.068V321.075ZM534.382 263.711C534.351 262.591 535.088 261.069 532.971 261.081C531.634 261.081 531.906 262.083 531.919 262.826C531.944 264.194 531.882 266.138 533.287 266.367C534.58 266.577 534.432 264.801 534.376 263.711H534.382ZM593.837 500.616C593.212 500.882 592.68 501.21 592.81 501.705C593.249 503.333 593.887 504.992 595.521 505.722C596.437 506.131 596.22 505.047 596.251 504.558C596.369 502.677 594.778 501.891 593.837 500.616ZM524.411 293.105C525.816 292.981 526.608 292.071 526.967 290.839C527.202 290.035 526.813 289.49 525.841 289.49C524.368 289.49 523.563 290.332 523.297 291.626C523.155 292.313 523.427 293.074 524.417 293.105H524.411Z" fill="black"/>
<path d="M414.073 912.643C415.237 912.469 416.4 912.308 417.564 912.123C419.637 911.789 420.696 912.909 420.949 914.741C421.593 919.383 422.243 924.05 422.676 928.692C423.326 935.717 421.073 942.537 419.396 949.302C418.542 952.75 418.808 956.228 418.195 959.688C417.236 965.098 417.081 970.662 416.815 976.17C416.592 980.707 416.933 980.546 421.327 980.391C425.177 980.261 429.132 980.695 432.895 981.53C436.435 982.316 440.056 982.948 443.454 984.476C448.065 986.556 450.188 992.492 447.551 996.67C446.412 998.471 444.679 998.836 442.767 998.786C440.755 998.731 441.127 996.954 440.805 995.815C438.948 989.261 436.844 987.546 429.299 987.076C420.479 986.525 411.696 987.515 402.988 988.574C399.237 989.026 395.462 990.232 391.63 990.709C390.269 990.876 388.622 991.148 388.127 989.162C387.694 987.416 389.402 987.435 390.201 986.692C391.618 985.38 393.45 984.947 395.208 984.588C399.559 983.69 403.656 981.735 408.15 981.499C409.635 981.425 409.716 980.627 409.078 979.704C407.389 977.26 406.9 974.283 405.222 971.782C403.508 969.226 403.409 965.97 403.229 962.944C402.988 958.883 403.167 954.799 403.149 950.726C403.149 949.878 403.279 949.024 401.818 949.612C400.525 950.132 399.07 950.311 397.665 950.509C396.52 950.67 395.109 950.652 394.966 949.191C394.836 947.86 394.855 946.22 396.774 945.818C398.166 945.527 399.596 944.92 400.958 945.038C403.749 945.279 404.653 944.047 405.129 941.479C405.835 937.666 405.99 937.66 402.09 937.536C397.628 937.394 393.128 937.926 388.715 936.893C387.818 936.682 386.382 936.651 386.691 935.308C386.97 934.089 387.087 932.479 389.241 932.541C394.446 932.684 399.664 932.368 404.795 933.724C406.479 934.169 407.556 933.829 408.28 931.545C409.87 926.519 409.586 921.209 411.207 916.239C411.727 914.636 412.52 913.286 414.172 912.605C414.184 912.605 414.079 912.637 414.079 912.637L414.073 912.643Z" fill="black"/>
<path d="M534.605 386.886C534.939 387.778 534.326 388.514 534.753 389.393C535.267 390.458 534.215 391.151 533.404 391.423C532.383 391.757 532.085 390.866 531.856 390.012C531.621 389.133 531.269 388.279 530.934 387.425C526.757 376.859 520.598 367.594 512.546 359.597C507.959 355.042 503.522 350.338 498.285 346.464C496.763 345.337 495.55 343.678 494.46 342.081C488.908 333.961 481.314 327.45 476.338 318.859C475.112 316.748 472.89 315.319 471.776 312.954C471.065 311.444 471.368 310.379 472.302 309.414C473.392 308.287 474.493 309.018 475.546 309.736C478.851 311.982 481.729 314.7 484.675 317.392C491.638 323.767 497.128 331.559 504.32 337.675C508.176 340.955 510.893 345.275 514.632 348.549C520.456 353.649 525.154 359.517 528.805 366.276C532.302 372.75 534.456 379.614 534.605 386.892V386.886Z" fill="black"/>
<path d="M363.654 918.999C364.787 918.974 365.251 919.593 365.462 920.664C365.889 922.855 366.39 925.034 366.897 927.206C368.6 934.491 371.311 941.485 373.39 948.665C374.826 953.622 375.711 958.809 377.624 963.55C380.236 970.024 380.935 977.142 384.537 983.251C384.995 984.025 386.072 984.99 384.321 985.999C382.934 986.797 382.204 986.531 381.121 985.646C379.877 984.637 379.017 983.393 378.311 982.031C375.433 976.48 372.765 970.817 369.714 965.364C366.266 959.205 364.676 952.397 362.157 945.929C359.724 939.69 359.668 933.142 358.084 926.835C357.019 922.595 359.743 919.104 363.66 918.999H363.654Z" fill="black"/>
<path d="M470.446 218.64C469.536 219.272 468.775 217.731 468.391 218.721C468.075 219.538 468.651 220.51 469.653 220.757C472.296 221.401 471.306 222.459 470.031 223.586C467.555 225.77 464.646 225.442 461.682 222.645C459.187 220.287 459.107 219.067 461.304 216.777C463.18 214.815 467.444 214.846 469.27 216.87C469.74 217.396 470.068 218.052 470.446 218.64Z" fill="black"/>
<path d="M465.791 258.432C464.782 258.717 462.981 259.15 462.653 257.342C462.325 255.548 462.771 253.561 464.578 252.311C468.911 249.315 470.13 249.612 473.441 253.412C475.038 255.244 474.135 256.204 472.829 257.021C470.842 258.258 468.576 258.778 465.797 258.438L465.791 258.432Z" fill="black"/>
<path d="M470.823 272.798C469.065 272.816 467.271 272.915 466.342 270.935C465.668 269.499 465.748 268.026 466.85 266.961C468.273 265.575 469.709 264.102 472.191 265.166C473.943 265.915 477.006 264.653 476.709 268.199C476.487 270.854 473.8 272.804 470.823 272.798Z" fill="black"/>
<path d="M465.94 242.482C463.272 242.278 462.449 239.226 462.827 238.898C464.547 237.419 463.396 233.458 466.955 233.848C470.545 234.244 467.463 237.803 469.27 239.121C468.267 240.464 468.341 243.002 465.934 242.476L465.94 242.482Z" fill="black"/>
<path d="M384.649 287.559C388.183 287.386 385.8 289.732 385.998 290.784C386.314 292.492 384.246 292.616 383.268 293.483C382.13 294.491 382.786 292.238 381.87 292.61C381.727 292.665 381.387 292.56 381.319 292.437C380.929 291.675 383.906 287.473 384.655 287.565L384.649 287.559Z" fill="black"/>
<path d="M383.386 500.789C387.242 498.152 390.51 500.04 393.698 500.312C397.566 500.647 401.41 501.408 404.962 503.06C411.993 506.335 419.52 508.39 426.037 512.995C430.723 516.3 435.315 519.487 439.085 523.857C441.04 526.122 442.637 528.548 444.086 531.135C448.232 538.519 448.468 546.349 448.096 554.649C447.539 566.916 441.634 576.51 434.232 585.262C428.507 592.027 421.668 597.541 413.207 601.404C405.953 604.715 398.414 606.306 390.962 608.546C390.089 608.806 389.118 608.905 388.208 608.849C380.329 608.373 372.481 610.1 364.571 608.924C358.189 607.977 351.777 607.314 345.805 604.647C341.843 602.876 337.505 601.967 334.008 599.15C332.664 598.067 331.154 597.188 330.25 595.672C328.709 593.085 325.639 592.534 323.467 590.739C321.969 589.508 320.713 588.171 319.487 586.753C315.477 582.117 313.768 576.665 312.648 570.649C310.599 559.662 313.218 549.685 317.668 539.918C318.627 537.808 318.72 535.382 320.323 533.512C323.195 530.158 326.76 527.54 330.052 524.692C336.366 519.246 343.019 514.059 351.164 511.484C358.87 509.046 366.409 505.815 374.771 506.068C376.244 506.112 378.026 506.155 379.202 504.639C379.438 504.336 380.304 504.138 380.607 504.329C382.712 505.635 385.28 505.208 387.496 506.502C389.291 507.548 388.239 507.956 387.558 508.365C386.147 509.213 384.494 509.442 382.885 509.188C374.145 507.82 365.79 508.786 357.867 512.933C353.628 515.155 348.949 516.485 345.018 519.339C336.446 525.559 328.976 532.794 325.417 543.032C324.352 546.101 322.186 548.757 321.938 552.074C321.486 558.14 320.057 564.651 322.359 570.166C326.215 579.4 331.092 588.684 340.624 593.326C345.594 595.746 349.982 599.466 355.769 600.419C362.949 601.602 369.986 603.619 377.376 603.347C381.783 603.18 386.314 603.91 390.56 602.629C398.154 600.333 406.151 599.398 412.866 594.205C417.05 590.974 421.581 588.22 425.096 584.184C432.388 575.81 437.023 566.458 438.045 555.082C438.67 548.095 437.413 541.651 435.006 535.499C432.932 530.195 428.55 526.178 424.205 522.427C422.033 520.558 420.052 518.355 417.626 516.906C411.369 513.174 404.956 509.695 398.513 506.285C393.951 503.871 389.006 502.361 383.393 500.789H383.386Z" fill="black"/>
<path d="M502.928 610.849C501.975 606.826 501.164 602.759 500.043 598.779C497.914 591.228 495.234 583.814 493.464 576.182C491.31 566.904 488.383 557.837 486.359 548.503C484.985 542.165 483.963 535.629 481.915 529.353C480.423 524.767 480.07 519.803 479.321 514.994C478.95 512.605 477.526 510.432 478.022 507.858C478.201 506.942 478.04 506.02 479.198 505.636C480.572 505.178 480.596 506.403 481.141 507.047C484.465 510.996 484.564 516.071 486.019 520.682C487.77 526.215 488.08 532.027 489.386 537.598C491.032 544.598 491.49 551.765 493.136 558.691C494.244 563.352 494.399 568.13 495.593 572.698C497.351 579.376 497.809 586.358 499.889 592.881C501.547 598.08 501.795 603.477 503.386 608.627C503.59 609.277 503.41 610.044 503.41 610.762C503.25 610.793 503.082 610.824 502.921 610.855L502.928 610.849Z" fill="black"/>
<path d="M355.144 569.077C362.664 574.715 371.032 576.417 379.672 575.297C386.023 574.474 392.392 572.667 397.677 568.544C399.28 567.294 400.537 565.778 401.409 563.847C402.165 562.182 402.883 560.498 405.21 563.215C409.109 567.764 408.694 571.54 403.254 574.251C400.326 575.705 398.123 578.256 394.861 579.351C390.863 580.694 386.759 581.152 382.687 581.969C375.532 583.393 369.101 580.75 362.441 579.394C359.204 578.738 354.84 572.431 355.138 569.077H355.144Z" fill="black"/>
<path d="M350.886 562.169C355.194 557.756 357.49 551.827 361.965 547.538C361.921 549.45 361.197 551.047 360.281 552.595C357.087 558.01 352.445 562.38 349.456 567.987C348.36 570.042 345.959 571.435 344.864 573.762C344.356 574.845 343.347 575.594 342.115 574.87C340.902 574.152 340.184 572.927 340.914 571.552C341.96 569.578 343.137 567.647 344.449 565.84C347.222 562.021 349.784 558.233 349.691 553.145C349.666 551.61 350.731 549.778 351.827 548.553C354.494 545.576 356.221 542.011 358.53 538.829C359.006 538.167 359.669 537.641 360.207 537.022C360.677 536.483 361.296 536.304 361.872 536.576C362.559 536.898 362.379 537.653 362.219 538.21C361.909 539.275 361.643 540.401 361.073 541.33C358.338 545.829 356.574 550.824 353.572 555.237C352.309 557.094 351.381 559.657 350.879 562.163L350.886 562.169Z" fill="black"/>
<path d="M401.298 549.58C401.478 551.517 400.655 553.065 398.922 553.027C397.368 552.99 395.431 552.254 395.765 549.896C396.043 547.94 394.1 546.368 394.948 544.313C395.288 543.49 395.189 542.388 396.279 542.116C397.3 541.862 397.64 542.834 398.123 543.446C399.584 545.322 401.701 546.875 401.304 549.574L401.298 549.58Z" fill="black"/>
<path d="M336.304 581.554C336.285 579.908 340.098 576.919 341.664 577.352C342.901 577.692 342.641 578.509 342.14 579.215C341.15 580.62 340.03 581.901 338.544 582.854C338.012 583.195 337.591 583.628 336.916 583.393C335.932 583.052 336.427 582.192 336.297 581.554H336.304Z" fill="black"/>
<path d="M370.865 525.342C371.02 528.443 368.284 529.954 367.015 532.256C366.774 532.689 366.167 532.931 365.697 532.528C365.257 532.151 365.35 531.588 365.604 531.117C366.848 528.778 368.327 526.63 370.865 525.336V525.342Z" fill="black"/>
<path d="M349.796 545.019C348.744 548.949 347.661 552.916 345.124 556.289C346.473 552.464 346.937 548.299 349.796 545.019Z" fill="black"/>
<path d="M554.46 820.953C561.077 824.32 560.786 831.147 562.946 836.792C565.069 842.337 565.514 848.273 567.377 853.775C569.24 859.284 569.841 865.071 571.729 870.443C573.542 875.599 574.031 881.021 575.894 886.078C578.017 891.828 579.082 897.868 581.161 903.618C581.997 905.933 581.013 908.533 581.848 910.934C581.922 911.138 581.409 911.547 581.174 911.863C580.666 911.374 579.979 910.977 579.688 910.383C578.228 907.406 576.445 904.497 575.56 901.347C573.437 893.746 570.652 886.368 568.782 878.656C567.421 873.036 566.443 867.243 564.599 861.778C561.925 853.88 560.674 845.649 558.341 837.671C556.769 832.286 554.733 826.882 554.467 820.953H554.46Z" fill="black"/>
<path d="M502.445 153.033C502.327 154.135 502.457 155.169 502.067 155.942C501.634 156.809 500.848 157.83 500.006 158.078C498.781 158.437 498.898 156.908 498.545 156.208C497.728 154.593 497.394 152.581 494.851 154.525C494.065 155.125 493.216 154.444 493.879 153.293C495.147 151.071 494.306 149.406 492.647 147.84C491.372 146.633 491.106 145.08 492.232 143.749C493.551 142.196 495.308 141.799 497.128 143.087C500.619 145.556 501.888 149.208 502.445 153.033Z" fill="black"/>
<path d="M546.42 118.069C546.934 118.069 547.144 118.032 547.342 118.069C548.648 118.36 550.746 118.175 550.914 119.499C551.155 121.455 549.298 123.009 547.639 123.485C545.226 124.178 542.843 124.921 540.497 125.8C538.721 126.462 537.65 126.221 538.263 123.925C538.597 122.681 538.516 120.489 539.129 120.291C541.629 119.481 543.913 117.748 546.426 118.057L546.42 118.069Z" fill="black"/>
<path d="M573.394 155.094C573.796 154.531 574.26 153.999 574.588 153.398C575.3 152.086 577.163 150.966 576.476 149.499C576.111 148.719 574.062 148.676 572.756 148.41C572.118 148.28 571.5 148.292 571.512 147.438C571.524 146.571 572.242 146.683 572.799 146.472C575.504 145.482 578.135 145.067 580.883 146.491C582.987 147.58 583.618 149.196 582.17 150.99C580.666 152.847 578.915 154.512 576.321 154.537C575.269 154.549 574.502 155.106 573.394 155.088V155.094Z" fill="black"/>
<path d="M581.669 121.796C584.169 121.758 587.592 124.643 587.994 126.859C588.254 128.294 587.4 128.82 586.286 128.424C584.572 127.818 582.851 127.991 581.136 127.985C579.292 127.985 577.361 127.775 577.212 125.596C577.082 123.64 578.327 122.297 580.536 122.21C581.007 122.192 581.464 121.876 581.669 121.796Z" fill="black"/>
<path d="M538.721 137.591C538.684 135.152 541.494 133.066 544.854 133.487C546.049 133.636 547.9 134.372 547.485 136.254C547.033 138.315 547.107 141.038 544.143 141.366C541.729 141.632 538.746 139.361 538.721 137.591Z" fill="black"/>
<path d="M567.495 176.286C566.325 176.033 564.679 176.906 564.629 174.826C564.592 173.167 564.524 171.236 566.548 170.784C568.553 170.338 570.664 170.741 572.651 171.317C573.567 171.583 574.607 172.053 574.26 173.452C573.944 174.714 573.579 175.698 571.889 175.668C570.398 175.643 568.894 176.07 567.501 176.28L567.495 176.286Z" fill="black"/>
<path d="M536.233 120.155C535.775 122.223 535.15 123.881 535.1 125.559C535.032 127.898 533.188 127.923 531.981 127.824C530.21 127.682 530.495 126.054 530.712 124.673C531.189 121.647 533.664 121.084 536.239 120.155H536.233Z" fill="black"/>
<path d="M582.789 137.244C585.277 136.972 585.432 138.921 585.599 140.438C585.778 142.09 585.054 143.433 583.03 143.44C581.149 143.44 580.165 142.493 580.208 140.642C580.251 138.928 580.703 137.417 582.789 137.244Z" fill="black"/>
<path d="M605.962 272.166C608.351 272.278 609.595 273.936 610.177 275.651C610.499 276.592 608.927 277.885 607.707 277.656C605.783 277.303 604.05 276.22 603.771 274.029C603.573 272.457 605.17 272.649 605.962 272.172V272.166Z" fill="black"/>
<path d="M487.578 92.8911C490.53 93.671 491.415 95.9857 491.799 98.6595C491.991 99.984 493.346 102.02 492.183 102.46C490.654 103.035 490.363 100.653 489.602 99.5199C488.283 97.5703 486.557 95.6947 487.578 92.8848V92.8911Z" fill="black"/>
<path d="M516.717 96.1282C515.56 94.5561 517.541 93.8567 517.955 93.6524C522.641 91.319 527.605 89.716 532.711 88.509C527.493 91.319 521.805 93.0706 516.717 96.1034V96.1282Z" fill="black"/>
<path d="M516.717 96.1035C513.388 98.5792 509.717 100.263 505.453 100.616C508.548 99.0806 511.63 97.5208 514.737 96.0167C515.368 95.7073 516.099 95.4784 516.724 96.1283V96.1035H516.717Z" fill="black"/>
</svg>
