<svg width="1080" height="1080" viewBox="0 0 1080 1080" fill="none" xmlns="http://www.w3.org/2000/svg">
<path d="M481.047 48.8083C480.942 51.4202 482.675 51.2779 484.532 51.3212C487.893 51.3955 491.408 51.1231 494.571 52.0206C502.32 54.2116 510.193 55.5176 518.078 57.0278C531.435 59.584 543.733 65.1854 554.391 73.7577C560.036 78.2945 565.242 83.4069 570.447 88.4698C573.399 91.3417 574.389 95.0863 574.581 99.2641C574.94 107.087 576.023 114.886 576.259 122.716C576.401 127.55 576.37 132.693 574.872 137.18C573.523 141.228 575.782 141.692 578.004 142.874C583.135 145.604 583.952 148.123 581.532 154.164C578.177 162.532 574.501 170.788 571.573 179.305C569.822 184.393 565.495 184.547 561.633 186.689C560.76 187.172 556.44 186.324 555.233 185.711C549.688 182.901 546.667 181.119 540.472 181.273C538.875 181.31 538.949 182.691 536.758 182.511C534.412 190.638 528.935 199.018 527.882 207.547C527.078 214.089 529.467 221.12 532.401 227.582C536.188 235.925 537.99 244.597 541.747 252.959C545.497 261.302 549.372 269.627 553.822 277.611C560.804 290.144 568.274 302.405 575.646 314.716C576.834 316.703 578.573 318.368 580.065 320.175C584.323 325.343 586.378 331.656 587.938 337.877C589.454 343.918 589.782 350.348 589.894 356.624C590.061 365.655 589.442 374.691 589.423 383.728C589.417 387.46 590.234 391.192 590.401 394.937C590.476 396.663 590.011 398.458 589.559 400.16C588.074 405.737 587.356 411.369 588.86 417.008C589.182 418.215 590.804 419.075 592.103 420.363C591.689 421.13 594.721 422.386 594.003 423.717C600.397 432.655 605.714 441.827 612.293 450.988C612.807 451.705 613.37 452.659 614.113 452.9C617.808 454.101 617.449 456.886 618.947 460.129C620.735 464.01 622.202 468.045 623.774 472.025C626.12 477.973 626.343 484.033 623.737 489.863C621.868 494.053 623.688 496.937 626.597 500.725C631.455 507.045 633.981 514.212 638.09 521.088C642.423 528.33 646.124 536.011 651.039 542.832C655.006 548.34 660.527 553.818 666.425 557.748C668.777 559.314 670.529 561.913 672.231 564.272C673.865 566.531 671.643 568.858 669.656 570.213C667.694 571.556 665.577 574.255 662.699 571.018C662.377 573.011 662.074 574.645 661.851 576.291C661.208 581.119 658.193 584.158 653.483 584.845C648.42 585.582 643.395 586.646 638.313 587.104C635.974 587.315 633.3 586.919 631.195 585.922C627.482 584.164 622.97 583.285 620.983 578.99C618.773 574.206 616.471 569.446 614.614 564.525C612.751 559.586 611.396 554.449 609.78 549.411C609.619 548.903 609.285 548.34 608.864 548.049C604.946 545.351 600.998 542.702 596.764 539.842C594.239 542.089 591.707 544.986 588.588 546.935C585.976 548.569 582.745 549.491 579.663 550.061C571.839 551.509 564.103 551.218 556.595 548.043C554.707 547.245 552.436 547.071 550.344 547.09C538.435 547.201 526.521 547.362 514.619 547.715C507.903 547.913 501.181 548.291 494.497 548.953C486.445 549.758 478.454 551.132 470.402 551.93C463.191 552.648 455.875 553.725 448.727 553.143C442.246 552.617 436.125 549.844 430.53 545.957C426.148 542.906 424.365 538.146 421.221 534.321C419.135 531.777 420.893 528.8 421.852 526.275C423.895 520.909 424.043 515.834 421.716 510.443C419.68 505.726 418.071 500.762 416.907 495.755C416.437 493.719 417.278 491.119 418.176 489.065C421.041 482.498 424.21 476.061 427.417 469.24C422.075 469.24 417 469.03 411.962 469.308C408.044 469.525 404.151 470.261 400.276 470.954C399.298 471.128 397.769 471.901 397.646 472.595C396.464 479.409 391.716 482.368 385.651 483.079C380.278 483.711 374.665 483.989 369.385 483.092C365.158 482.374 361.283 479.719 358.857 475.609C356.431 471.499 353.893 467.445 351.207 463.509C347.865 458.613 350.489 444.91 356.932 442.304C360.67 440.794 362.577 437.73 362.416 433.335C362.249 428.712 362.15 423.965 362.998 419.459C363.617 416.178 365.82 413.195 367.454 409.791C365.993 409.364 364.613 409.147 363.394 408.584C355.248 404.821 353.051 400.173 353.41 389.973C353.887 376.523 357.093 363.606 360.46 350.726C361.524 346.659 363.951 342.958 365.64 339.04C367.212 335.389 370.381 333.612 373.724 332.269C376.639 331.099 378.378 329.131 379.492 326.352C380.879 322.88 382.315 319.426 383.565 316.375C381.943 315.942 380.34 315.508 378.731 315.075C378.719 314.66 378.712 314.246 378.7 313.837C380.91 312.76 383.125 311.696 385.329 310.606C387.359 309.604 388.17 308.335 386.369 306.348C385.056 304.9 385.502 303.272 385.521 301.428C385.595 294.638 384.97 287.836 384.586 281.04C384.376 277.277 384.14 273.513 383.868 269.75C383.478 264.267 382.89 258.795 382.723 253.305C382.661 251.294 381.696 248.416 382.958 247.469C384.202 246.54 387.173 242.071 388.875 242.938C390.107 243.569 391.958 250.724 392.44 252.352C393.264 255.143 393.926 258.009 394.365 260.887C395.387 267.578 396.105 274.318 397.194 281.003C398.258 287.545 399.632 294.037 401.075 301.619C402.609 299.917 404.064 298.778 404.9 297.287C407.177 293.189 409.077 288.888 411.349 284.79C412.958 281.888 414.71 279.016 418.51 278.335C419.234 278.205 420.082 276.992 420.299 276.138C422.224 268.574 424.854 261.37 429.725 255.119C430.777 253.769 429.558 251.832 427.602 251.232C424.446 250.26 421.24 249.381 418.213 248.1C417.074 247.617 415.768 246.231 415.564 245.073C415.019 241.972 415.186 238.748 414.778 235.616C414.475 233.301 417.148 228.158 418.621 227.44C423.171 225.224 426.569 226.722 431.409 225.342C435.289 224.234 439.517 224.351 443.886 223.899C444.072 223.311 444.363 222.154 444.802 221.046C446.189 217.549 444.289 214.393 440.526 214.739C432.665 215.47 425.727 213.334 419.197 209.132C416.109 207.145 414.734 204.322 414.233 200.912C413.93 198.857 416.628 195.62 418.714 195.509C423.653 195.249 426.705 193.367 428.333 188.088C430.746 180.271 434.844 172.973 437.282 165.162C440.086 156.169 441.844 146.811 441.355 137.298C441.076 131.956 439.647 126.683 439.288 121.342C438.675 112.305 436.391 103.064 440.297 94.3002C442.122 90.1966 444.784 86.3902 447.52 82.788C452.001 76.8833 456.562 70.9848 461.625 65.5939C467.165 59.6954 473.311 54.3787 479.197 48.8021C479.816 48.8021 480.435 48.8021 481.054 48.8021L481.047 48.8083ZM380.792 459.467C378.892 457.381 377.611 455.63 375.977 454.311C375.11 453.612 373.21 454.064 372.523 453.315C370.79 451.415 367.534 451.774 366.414 449.001C366.334 448.809 364.248 448.988 363.604 449.564C362.688 450.387 362.156 451.693 361.605 452.863C358.541 459.331 361.611 464.623 364.681 470.088C368.184 476.333 374.107 477.862 380.322 478.233C386.121 478.58 389.872 473.981 390.033 467.526C390.181 461.578 385.477 457.957 380.798 459.473L380.792 459.467Z" fill="white"/>
<path d="M376.447 1036.01C372.43 1035.39 368.419 1034.35 364.39 1034.24C355.843 1034.03 347.889 1031.78 340.425 1027.89C335.201 1025.16 330.479 1026.4 325.812 1028.86C321.244 1031.27 316.85 1031.63 311.941 1029.61C304.935 1026.73 297.694 1024.42 290.582 1021.79C288.403 1020.99 287.103 1019.64 288.527 1017.09C293.565 1008.11 295.639 998.041 298.139 988.256C300.503 979.021 302.725 969.799 306.55 961.06C308.042 957.656 310.01 954.462 311.83 951.206C313.241 948.681 315.835 948.712 318.131 948.947C318.873 949.022 319.424 950.99 320.371 952.618C321.702 952.389 323.553 952.023 325.422 951.77C326.505 951.621 327.675 951.411 328.702 951.652C333.926 952.89 339.162 954.109 344.299 955.657C346.949 956.455 349.604 957.643 351.838 959.24C352.816 959.94 352.767 962.087 353.181 963.579C352.909 963.684 352.643 963.796 352.37 963.901C353.398 964.47 354.611 964.848 355.409 965.646C356.573 966.804 357.545 967.868 356.839 970.115C355.651 973.89 355.323 977.932 354.623 981.893C357.322 981.732 359.6 981.596 362.311 981.435C360.912 984.221 363.753 979.801 365.931 980.321C368.29 980.891 369.007 987.08 370.877 988.77C375.989 993.381 380.47 998.772 385.929 1002.89C393.363 1008.5 401.155 1013.8 410.322 1016.39C414.301 1017.52 418.374 1018.29 422.347 1019.43C424.34 1020 426.21 1021.02 428.116 1021.88C428.345 1021.98 428.463 1022.36 428.617 1022.62C430.047 1025.07 427.93 1031.98 425.232 1032.86C421.413 1034.11 417.47 1034.99 413.583 1036.02H409.87C409.684 1035.84 409.511 1035.51 409.313 1035.49C405.382 1035.23 401.452 1034.91 397.516 1034.84C396.482 1034.82 395.436 1035.6 394.402 1036.02H376.453L376.447 1036.01Z" fill="white"/>
<path d="M854.266 925.223C853.759 926.864 853.511 928.646 852.707 930.119C848.554 937.757 842.494 943.81 835.909 949.281C828.271 955.632 820.343 961.629 812.55 967.794C805.717 973.197 798.828 978.539 792.144 984.115C790.603 985.403 789.749 987.526 788.634 989.308C785.917 993.653 781.43 995.646 777.073 997.583C770.858 1000.34 764.502 1002.83 758.071 1005.03C755.843 1005.79 753.163 1005.73 750.774 1005.41C748.403 1005.08 746.955 1003.23 745.841 1001C740.741 990.818 735.424 980.748 730.324 970.567C727.941 965.807 725.874 960.88 723.436 955.527C724.729 955.644 725.775 955.743 727.261 955.886C728.276 953.366 729.452 950.451 730.392 948.112H738.24C739.008 944.912 740.011 942.015 744.405 942.393C745.73 942.504 747.172 941.186 749.128 940.251C750.198 938.004 750.489 934.099 755.032 933.69C755.497 933.647 756.016 932.935 756.307 932.415C757.056 931.091 757.298 928.689 759.489 931.196C760.058 930.689 760.751 930.262 761.16 929.643C761.469 929.185 761.253 928.386 761.544 927.897C764.075 923.682 764.403 923.744 768.055 927.161C771.484 930.361 774.937 933.591 778.725 936.333C782.618 939.15 787.137 938.951 791.568 937.454C796.687 935.727 801.744 933.808 806.893 932.205C810.415 931.11 814.196 930.788 817.613 929.475C825.077 926.61 832.307 923.131 839.79 920.321C842.915 919.145 846.468 918.496 849.767 918.663C851.326 918.743 852.762 921.306 854.254 922.748V925.223H854.266Z" fill="white"/>
<path d="M548.561 580.482C550.016 581.354 550.969 581.948 551.947 582.505C552.442 582.79 553.042 582.92 553.469 583.273C554.2 583.867 558.662 586.751 559.368 586.943C558.186 589.264 557.047 591.604 555.803 593.888C555.246 594.909 555.277 595.157 556.273 596.172C557.195 597.112 557.195 599.898 556.496 601.327C552.999 608.427 549.106 615.328 545.404 622.334C544.006 624.977 542.762 627.7 541.437 630.386C540.713 631.853 539.847 633.265 539.296 634.793C538.745 636.316 538.955 638.179 536.436 638.241C535.904 638.253 535.031 639.955 534.988 640.908C534.901 642.802 535.316 644.721 535.44 646.634C535.489 647.432 535.607 648.775 535.223 648.967C533.032 650.106 533.781 651.938 533.799 653.646C533.824 655.781 534.14 657.948 531.249 658.882C530.371 659.167 529.981 660.882 529.318 661.909C528.805 662.701 528.223 663.45 527.319 664.707C522.838 657.409 518.66 650.607 514.482 643.799C514.767 643.576 515.052 643.359 515.337 643.137C516.445 643.644 517.546 644.158 518.617 644.653C517.367 638.711 519.335 635.437 523.271 636.675C523.835 632.633 524.522 628.579 524.924 624.494C525.233 621.375 526.211 618.75 529.127 617.296C532.487 615.625 532.401 612.072 533.669 609.281C536.102 603.921 538.417 598.505 540.651 593.065C541.592 590.781 541.771 588.082 543.071 586.064C544.495 583.855 546.803 582.221 548.574 580.482H548.561Z" fill="white"/>
<path d="M633.12 869.965C627.049 867.148 623.273 862.884 620.766 857.598C618.984 853.854 616.824 849.936 616.459 845.944C615.827 838.993 611.817 833.212 610.882 826.497C610.764 825.655 611.123 824.739 611.26 823.86C612.138 824.281 613.457 824.467 613.822 825.16C617.313 831.838 620.643 824.411 624.028 831.145C625.835 834.741 627.705 852.504 629.481 856.113C629.809 856.781 629.883 857.586 630.001 858.341C630.187 859.554 630.162 860.823 630.502 861.993C631.245 864.561 632.161 867.08 633.127 869.971L633.12 869.965Z" fill="white"/>
<path d="M398.172 719.445C397.144 724.849 396.136 730.258 395.077 735.655C394.403 739.103 393.969 742.532 389.463 743.553C387.798 743.931 386.493 745.917 385.026 747.168C384.722 747.069 384.413 746.976 384.11 746.877C384.264 744.958 383.955 742.847 384.654 741.158C387.254 734.906 390.045 728.717 393.109 722.682C393.92 721.086 395.968 720.114 397.454 718.857C397.695 719.055 397.937 719.254 398.172 719.452V719.445Z" fill="white"/>
<path d="M390.318 963.95C387.805 962.149 383.472 964.235 382.154 959.921C384.97 955.669 389.216 955.595 393.914 960.063C392.719 961.357 391.524 962.651 390.318 963.95Z" fill="white"/>
<path d="M491.569 42C494.287 42.4147 496.997 42.9036 499.727 43.2255C510.992 44.5376 521.817 47.5271 532.227 51.9401C535.83 53.4689 539.073 55.8394 542.675 57.362C545.578 58.5875 548.994 58.668 551.786 60.0544C556.62 62.4683 561.218 65.3896 565.78 68.3048C569.005 70.3659 570.175 73.5534 569.531 77.3227C569.277 78.8144 569.877 79.6004 571.084 80.436C580.319 86.8234 584.948 96.1322 587.486 106.716C587.789 107.985 587.864 109.309 588.13 110.584C589.826 118.798 584.212 122.808 578.827 127.03C577.948 127.723 577.249 128.911 576.933 130.007C576.352 132.024 576.079 134.135 575.751 136.215C575.454 138.09 575.875 139.402 577.979 140.207C581.006 141.358 584.15 142.658 585.369 146.087C585.722 147.071 586.007 148.754 585.487 149.268C582.07 152.641 582.145 157.296 580.635 161.362C578.518 167.069 576.048 172.639 573.888 178.327C571.703 184.077 566.653 186.02 561.491 187.258C559.052 187.846 556.149 186.732 553.5 186.175C548.413 185.104 543.356 183.879 538.225 182.697C537.327 184.213 536.356 185.853 535.242 187.741C537.81 188.707 537.191 190.019 536.238 192.167C534.189 196.796 532.45 201.642 531.342 206.575C530.841 208.816 532.048 211.477 532.624 213.916C533.954 219.561 535.322 225.193 536.808 230.801C537.08 231.822 538.058 232.633 538.559 233.623C545.807 247.883 552.906 262.224 560.315 276.398C564.542 284.487 569.395 292.249 573.764 300.27C580.696 312.989 587.585 325.733 594.152 338.638C595.006 340.322 593.929 343.026 593.638 345.242C593.075 349.544 592.147 353.814 591.887 358.135C591.447 365.518 591.441 372.927 591.181 380.323C591.119 382.137 590.575 383.944 590.655 385.739C590.736 387.559 591.559 389.341 591.608 391.155C591.683 393.748 591.361 396.36 591.2 398.96C590.89 404.047 590.575 409.135 590.296 413.678C591.794 415.17 593.354 416.265 594.307 417.757C602.081 429.857 609.743 442.038 617.523 454.324C618.08 454.714 619.337 455.159 619.875 456.044C621.794 459.201 623.316 462.605 625.297 465.718C626.498 467.6 628.491 468.974 629.735 470.837C631.938 474.136 631.319 477.552 629.828 481.074C628.8 483.5 628.392 486.193 627.723 488.767C627.674 488.959 627.798 489.25 627.699 489.374C624.994 492.661 627.036 495.068 628.806 497.952C631.35 502.112 633.238 506.673 635.392 511.068C636.679 513.698 637.731 516.124 641.185 517.133C643.915 517.932 644.397 521.274 644.385 524.016C644.373 526.653 644.942 528.46 647.102 530.496C651.645 534.779 655.52 539.774 659.568 544.565C664.686 550.618 669.607 556.844 674.831 562.805C676.625 564.853 676.885 566.531 675.264 568.579C672.906 571.556 671.006 575.165 666.326 574.961C665.918 574.942 665.361 575.586 665.082 576.05C664.63 576.817 664.352 577.69 663.999 578.519C660.453 586.826 653.217 590.96 645.153 591.907C637.688 592.78 629.766 591.189 623.056 587.154C620.735 585.761 619.398 582.592 617.857 580.085C616.731 578.26 616.007 576.186 615.01 574.014C615.208 573.747 615.673 573.129 616.1 572.559C614.193 572.274 612.169 572.503 610.919 571.631C609.706 570.783 608.945 568.876 608.579 567.298C607.36 562 606.413 556.634 605.28 550.884C601.072 549.584 600.162 544.428 597.191 541.532C595.421 543.76 593.539 546.137 591.676 548.482C603.356 566.84 612.627 586.628 619.516 607.405C623.892 620.595 626.974 634.242 630.106 647.81C633.993 664.638 637.106 681.653 643.785 697.708C647.263 706.07 651.806 713.776 657.463 720.85C665.831 731.317 670.987 743.429 675.425 755.938C678.185 763.736 681.199 771.455 684.424 779.074C687.345 785.969 690.836 792.622 693.85 799.48C695.955 804.271 697.49 809.315 699.625 814.087C702.231 819.917 704.645 825.952 708.123 831.256C719.165 848.122 730.504 864.803 742.035 881.347C750.007 892.785 758.443 903.901 766.761 915.098C769.188 918.366 771.917 921.417 774.572 924.642C759 935.473 743.57 946.212 728.393 956.771C732.577 959.036 735.27 963.499 737.263 968.456C738.03 970.375 738.643 971.576 741.193 970.53C745.068 968.939 749.134 967.806 753.145 966.568C755.224 965.925 755.521 964.173 756.382 962.508C759.105 957.26 762.181 952.197 765.251 947.134C766.359 945.308 767.801 943.686 769.132 942.009C771.112 939.508 773.452 937.676 776.918 938.122C776.93 939.546 777.438 941.217 776.869 942.362C773.718 948.712 770.413 954.988 766.953 961.177C764.162 966.172 760.132 969.867 754.55 971.662C749.679 973.228 744.82 974.85 740.265 976.341C744.232 985.378 748.329 994.711 752.513 1004.24C764.36 999.186 776.714 993.919 789.074 988.652C787.291 985.656 788.059 982.574 791.228 980.005C799.831 973.024 808.366 965.956 817.056 959.079C826.458 951.64 836.057 944.448 845.447 936.989C849.451 933.808 854.044 930.8 853.097 924.468C853.004 923.849 853.437 923.15 853.635 922.444C850.763 920.934 848.461 920.872 845.323 922.599C837.178 927.08 828.773 931.196 820.169 934.724C809.61 939.057 798.674 942.269 787.019 941.953C783.039 941.848 779.437 941.037 776.887 937.658C776.144 934.947 775.216 937.181 774.362 937.577C773.388 936.269 774.44 934.736 777.518 932.979C779.115 933.449 780.081 934.018 781.009 933.963C798.767 932.855 815.329 927.235 831.645 920.606C836.249 918.737 840.941 917.016 845.713 915.642C847.52 915.122 849.674 915.679 851.648 915.939C853.567 916.193 854.669 918.694 857.268 917.79C857.894 917.573 859.373 919.795 860.456 920.897C860.456 921.101 860.456 921.312 860.456 921.516C859.633 923.924 858.841 926.344 857.968 928.733C856.631 932.403 856.167 936.47 852.93 939.279C848.356 943.241 844.079 947.567 839.313 951.268C826.099 961.536 812.668 971.514 799.429 981.751C797.943 982.896 796.823 984.827 796.136 986.628C794.186 991.765 792.379 996.859 785.88 997.769C785.323 997.85 784.84 998.369 784.296 998.629C775.098 1003.01 766.031 1007.7 755.905 1009.73C752.346 1010.45 750.13 1009.88 748.144 1006.93C743.972 1000.74 739.534 994.705 735.827 988.25C733.469 984.14 731.154 979.467 730.832 974.905C730.591 971.508 729.167 969.583 727.62 967.181C726.345 965.201 725.33 963.034 724.407 960.862C724.079 960.094 724.358 959.073 724.358 958.194C719.221 959.847 714.616 961.666 709.844 962.762C704.905 963.895 699.774 964.173 694.779 965.102C687.067 966.537 679.411 968.271 671.699 969.731C670.405 969.973 668.616 970.647 667.917 968.351C667.267 966.203 666.271 964.167 665.509 962.05C661.919 952.104 659.017 941.848 654.622 932.273C649.219 920.495 642.559 909.298 636.494 897.823C632.526 890.322 627.612 883.266 626.188 874.601C624.331 863.324 622.264 852.084 620.296 840.825C619.733 837.619 619.2 834.407 618.656 831.201C618.303 831.25 617.95 831.3 617.591 831.349C618.52 840.051 619.454 848.754 620.395 857.574C618.532 855.24 617.059 853.074 615.264 851.217C610.158 845.931 604.507 841.116 599.809 835.496C586.985 820.171 577.534 802.699 569.822 784.403C562.054 765.971 555.227 747.143 547.979 728.488C546.989 725.938 546.562 723.561 549.725 722.466C544.501 709.586 539.475 696.916 534.22 684.345C530.278 674.9 526.001 665.598 521.996 656.184C521.551 655.138 521.514 653.597 521.947 652.557C523.476 648.868 525.283 645.297 526.997 641.688C534.288 626.332 541.586 610.989 548.858 595.627C549.285 594.729 549.49 593.727 549.793 592.774C549.013 593.12 548.685 593.634 548.413 594.179C543.901 603.221 539.556 612.351 534.852 621.288C530.463 629.625 525.76 637.801 521.08 645.984C519.149 649.363 515.974 651.777 514.34 655.546C511.481 662.144 507.742 668.358 504.666 674.876C497.963 689.068 490.783 703.087 485.058 717.669C480.608 728.989 478.101 741.052 473.131 752.274C463.296 774.475 453.69 796.775 443.893 818.995C439.764 828.354 435.351 837.576 431.136 846.897C422.942 865.026 416.455 883.792 410.451 902.744C407.901 910.784 405.531 918.923 402.35 926.715C399.855 932.824 399.441 939.211 398.073 945.475C396.878 950.928 395.554 956.375 393.784 961.66C393.319 963.04 390.819 964.817 389.562 964.6C387.668 964.278 386.592 965.046 385.199 965.683C383.392 966.506 381.584 967.534 379.666 967.905C373.346 969.131 366.971 970.103 360.509 971.186C360.219 973.012 359.841 975.339 359.482 977.579C362.552 977.425 365.684 977.27 369.162 977.097C367.807 980.179 370.183 981.157 371.626 982.605C381.634 992.626 392.75 1001.06 405.723 1007C413.961 1010.77 421.982 1015.01 430.066 1019.12C433.402 1020.81 435.036 1025.86 433.482 1029.48C433.049 1030.48 432.257 1031.33 431.601 1032.29C433.167 1032.96 435.686 1033.33 434.528 1036.29C433.686 1036.63 432.919 1036.95 432.158 1037.26H425.968C425.479 1037.05 424.99 1036.66 424.501 1036.66C417.538 1036.63 410.575 1036.62 403.606 1036.67C402.808 1036.67 402.009 1037.05 401.211 1037.26H386.356C386.041 1037.07 385.744 1036.71 385.416 1036.68C376.373 1036.03 367.287 1035.8 358.306 1034.66C351.764 1033.83 345.37 1031.82 338.915 1030.33C337.788 1030.07 336.606 1029.38 335.566 1029.56C332.806 1030.03 330.132 1030.96 327.384 1031.5C324.122 1032.14 320.662 1033.43 317.561 1032.88C311.483 1031.8 305.48 1030 299.668 1027.87C293.701 1025.69 287.636 1023.42 283 1018.7V1017.46H285.612C286.218 1012.43 286.305 1007.68 287.432 1003.19C289.604 994.557 292.216 986.028 295.014 977.573C295.496 976.106 297.768 975.227 299.229 974.089C299.779 973.655 300.776 973.358 300.881 972.857C302.237 966.537 303.468 960.193 304.768 953.676C303.363 952.246 301.599 950.538 299.94 948.737C298.381 947.047 296.183 945.314 299.68 943.296C300.027 943.098 300.169 942.417 300.281 941.935C301.958 934.606 303.567 927.266 305.288 919.95C309.101 903.728 312.659 887.437 316.905 871.326C320.347 858.267 324.667 845.436 328.535 832.482C331.828 821.459 334.83 810.268 340.852 800.378C348.719 787.46 357 774.785 365.374 762.189C369.676 755.715 374.355 749.464 379.276 743.448C383.682 738.057 388.677 733.155 393.35 727.981C395.263 725.87 397.021 723.617 398.846 721.426C398.661 721.253 398.475 721.086 398.283 720.912C395.461 723.369 392.632 725.833 389.81 728.29C389.68 728.11 389.544 727.931 389.414 727.752C389.643 727.083 389.971 726.433 390.076 725.746C391.128 719.179 392.205 712.612 393.152 706.027C393.685 702.332 394.526 698.853 397.652 696.396C401.638 693.258 405.624 690.12 409.56 686.914C410.247 686.357 411.132 685.478 411.132 684.748C411.132 682.216 410.68 679.685 410.588 677.147C410.476 674.077 410.563 671.007 410.563 667.993C411.522 667.783 412.259 667.622 413.082 667.436C412.841 665.109 412.438 662.986 412.444 660.869C412.457 656.295 412.574 651.715 412.841 647.147C413.447 636.743 413.788 626.301 414.939 615.953C416.121 605.338 417.817 594.748 419.89 584.263C421.939 573.884 424.65 563.634 427.237 553.372C428.908 546.743 429.001 546.861 422.676 543.389C419.606 541.705 415.607 540.672 415.979 535.794C416.016 535.293 415.18 534.662 414.66 534.185C412.643 532.341 412.444 530.143 413.472 527.798C415.477 523.199 417.65 518.674 419.562 514.039C419.965 513.067 420.002 511.365 419.42 510.672C418.133 509.155 416.158 508.239 414.796 506.766C412.544 504.328 409.777 501.592 410.662 498.095C411.72 493.911 413.509 489.782 415.675 486.032C418.207 481.643 421.487 477.695 424.272 473.795C418.956 473.275 413.552 472.91 408.199 472.149C405.587 471.778 404.485 472.557 403.581 475.101C402.702 477.583 401.489 480.443 399.515 481.953C391.71 487.926 382.742 488.922 373.198 487.239C363.666 485.561 356.938 479.712 350.91 472.848C347.351 468.794 344.758 463.855 345.024 458.439C345.445 449.929 349.604 443.096 356.548 438.064C358.17 436.888 360.776 436.114 361.271 434.61C361.815 432.97 360.256 430.717 359.921 428.681C358.257 418.66 356.053 420.858 365.913 414.359C367.51 413.307 369.119 412.279 370.722 411.246C370.58 410.961 370.437 410.676 370.295 410.391C368.265 411.208 366.241 412.025 364.192 412.855C364.458 412.397 364.836 411.753 365.213 411.103C363.487 410.596 361.853 410.2 360.274 409.63C353.949 407.346 349.412 401.114 349.901 394.652C350.464 387.262 351.256 379.872 352.395 372.543C353.775 363.668 355.515 354.848 357.303 346.04C358.417 340.551 359.81 334.881 365.034 331.811C368.364 329.849 372.313 328.939 376.292 327.435C377.506 324.446 379.028 320.714 380.6 316.858C379.926 316.858 379.276 317 378.719 316.827C377.369 316.406 376.063 315.843 374.739 315.341C375.24 314.345 375.488 312.958 376.292 312.426C379.04 310.619 381.987 309.109 384.605 307.629C383.973 303.315 383.101 298.785 382.68 294.205C381.727 283.967 381.027 273.699 380.148 263.456C379.814 259.507 379.474 255.54 378.787 251.646C377.97 246.992 378.644 244.844 381.987 242.48C381.727 239.868 381.498 237.578 381.275 235.282L382.265 234.892C383.367 236.47 384.425 238.079 385.583 239.614C386.065 240.252 386.697 241.162 387.34 241.236C392.651 241.861 394.588 243.631 396.235 250.235C399.137 261.865 400.951 273.643 401.285 285.663C401.39 289.402 402.418 293.115 403.111 297.386C403.971 296.334 404.565 295.851 404.832 295.232C406.367 291.63 407.784 287.972 409.319 284.37C411.126 280.124 412.723 275.556 417 273.198C419.42 271.867 420.039 270.363 419.804 267.893C419.265 262.218 421.63 257.718 426.259 253.534C422.211 252.705 418.591 251.634 414.896 251.318C412.482 251.114 411.689 250.309 411.72 248.094C411.77 244.38 412.11 240.617 411.64 236.965C410.996 231.921 413.645 228.981 417.235 226.412C423.486 221.925 430.858 221.176 438.168 220.26C439.214 220.13 440.26 219.963 441.305 219.814C441.293 219.524 441.281 219.233 441.268 218.942C440.309 218.762 439.356 218.453 438.397 218.434C435.599 218.366 432.777 218.632 430.004 218.366C420.014 217.413 413.268 211.973 409.238 202.924C408.236 200.665 407.233 198.399 406.069 196.221C405.556 195.261 404.646 194.518 403.637 193.349H431.167C428.593 193.002 426.036 192.662 423.505 192.321C423.505 191.647 423.431 191.312 423.517 191.028C426.655 180.153 429.83 169.291 432.944 158.404C433.785 155.451 435.06 152.753 434.274 149.311C432.405 141.166 431.006 132.909 429.738 124.647C428.921 119.33 428.698 113.921 428.184 108.554C427.485 101.325 428.339 94.2507 429.905 87.2753H434.027C433.835 86.2292 433.668 85.2947 433.495 84.3601C434.609 83.834 435.289 83.0912 435.401 82.2742C435.785 79.3219 436.366 76.5615 439.232 74.9213C440.334 74.29 441.528 73.702 442.432 72.8416C448.801 66.7761 454.897 60.4134 461.483 54.5892C467.357 49.3963 473.707 44.7048 481.66 42.9903C483.505 42.5942 485.38 42.328 487.243 42.0062C488.685 42.0062 490.134 42.0062 491.576 42.0062L491.569 42ZM469.981 60.6424C470.259 60.271 470.544 59.9059 470.823 59.5345C470.686 59.4107 470.55 59.2869 470.414 59.1693C470.068 59.5592 469.721 59.943 469.368 60.3329C469.238 60.4938 469.102 60.661 468.972 60.8219C468.638 61.3294 468.304 61.8431 467.969 62.3507C467.759 62.5487 467.542 62.7468 467.332 62.9448L466.069 64.5169C466.224 64.6407 466.372 64.7583 466.527 64.8821C467.01 64.3374 467.493 63.7928 467.982 63.2419C468.167 63.1367 468.291 62.982 468.353 62.7777C468.687 62.2702 469.022 61.7565 469.356 61.2489C469.566 61.0447 469.77 60.8404 469.981 60.6362V60.6424ZM384.24 428.341C383.453 427.059 382.667 425.778 381.491 423.853V429.213L381.881 429.257C381.968 428.582 382.048 427.907 382.148 427.121C382.791 427.808 383.299 428.353 383.806 428.898C384.5 429.9 385.193 430.909 385.892 431.912C386.251 431.788 386.604 431.658 386.963 431.534C386.715 429.306 386.474 427.084 386.226 424.856C386.022 424.875 385.824 424.893 385.62 424.912C385.836 426.756 386.053 428.601 386.332 430.99C385.422 429.838 384.828 429.09 384.233 428.341H384.24ZM534.332 106.431C541.821 101.734 549.137 96.8378 554.571 89.7077C552.702 90.7784 551.161 92.2391 549.508 93.5637C544.29 97.7353 539.036 101.857 533.799 106.004C532.852 106.648 531.906 107.285 530.965 107.929C531.107 108.133 531.256 108.331 531.398 108.536C532.376 107.836 533.36 107.131 534.338 106.431H534.332ZM367.355 361.533C366.99 360.821 366.253 360.059 366.334 359.403C366.693 356.402 367.237 353.418 367.801 350.441C368.091 348.931 368.568 347.458 368.958 345.966C369.125 345.997 369.298 346.034 369.465 346.065C369.595 347.012 369.719 347.953 369.806 348.597C371.279 348.473 372.542 348.362 373.786 348.256C374.095 343.367 374.405 338.613 374.714 333.711C368.265 336.045 364.235 340.334 362.861 346.808C360.881 356.117 358.913 365.438 357.322 374.821C356.158 381.685 355.663 388.667 354.753 395.58C354.413 398.143 355.663 399.851 357.631 400.816C361.636 402.772 365.801 404.388 370.134 406.245V388.852C367.144 387.497 362.558 388.821 361.37 383.4C364.768 384.056 367.757 384.637 370.437 385.157C371.05 382.248 371.675 379.315 372.269 376.498C369.676 376.003 366.823 375.465 363.976 374.926C363.976 374.567 363.976 374.208 363.982 373.849C365.566 373.472 367.151 372.76 368.723 372.797C370.443 372.84 372.145 373.571 373.854 373.998V365.915C370.161 365.576 367.964 364.091 367.262 361.458C369.397 360.914 371.527 360.369 373.829 359.781V352.558C372.133 351.964 370.691 351.462 369.032 350.887C368.463 354.501 367.906 358.023 367.349 361.545L367.355 361.533ZM605.732 544.67C616.304 539.205 626.925 533.715 637.657 528.169C636.518 524.313 632.786 521.039 634.377 516.329C634.408 516.236 634.098 516.056 633.993 515.883C630.242 509.805 626.492 503.721 622.555 497.334C612.039 500.174 601.449 503.034 590.859 505.9L590.482 504.6C599.927 498.256 610.808 496.219 621.528 494.957C621.342 492.89 620.878 490.915 621.045 488.996C621.472 484.132 622.549 479.298 622.617 474.439C622.648 472.217 621.175 469.809 619.912 467.779C618.21 465.037 615.976 462.636 614.144 459.968C613.779 459.436 614.162 458.378 614.243 457.561C614.311 456.898 614.763 456.013 614.484 455.605C607.521 445.485 600.577 435.347 593.397 425.382C591.874 423.271 590.903 419.973 586.824 420.672C588.173 413.121 582.064 409.593 578.784 404.598C580.703 402.574 582.052 399.746 585.648 401.386C585.648 398.149 585.648 395.166 585.648 392.176C585.648 390.672 585.704 389.323 587.87 390.313C588.161 390.449 588.742 389.954 588.724 389.966C587.864 388.679 586.682 387.615 586.391 386.346C585.716 383.406 585.109 380.367 585.122 377.371C585.171 365.023 585.456 352.676 585.66 340.328C585.673 339.424 586.044 338.316 585.66 337.654C581.662 330.827 577.428 324.143 573.492 317.285C566.337 304.819 559.077 292.397 552.368 279.69C547.379 270.245 543.028 260.454 538.695 250.681C535.805 244.157 533.366 237.423 530.921 230.708C530.556 229.705 531.274 228.312 531.491 227.099C531.132 225.62 530.179 224.042 528.966 222.699C524.683 217.97 518.784 216.33 512.947 214.733C508.138 213.421 502.456 214.133 499.715 208.401C499.467 207.881 498.124 207.888 497.517 207.714C498.167 202.88 492.913 201.661 492.021 198.003C490.115 198.901 488.475 199.724 486.791 200.454C474.363 205.826 461.929 211.18 449.488 216.522C448.015 217.153 447.371 218.05 446.808 219.709C446.108 221.764 444.499 224.197 442.649 225.001C440.266 226.041 437.233 225.472 434.522 225.868C429.731 226.567 424.947 227.378 420.206 228.35C418.133 228.77 417.167 229.897 417.854 232.478C418.727 235.771 419.018 239.249 419.203 242.672C419.37 245.655 420.194 247.475 423.592 247.568C425.355 247.617 427.157 248.236 428.84 248.861C434.646 251.021 440.402 253.293 446.059 255.478C447.018 253.868 447.86 252.507 448.658 251.126C454.637 240.778 462.021 231.494 470.569 223.212C473.453 220.415 476.158 216.775 480.781 216.509C483.554 216.348 486.401 216.163 489.118 216.602C494.98 217.562 500.94 218.416 506.566 220.235C513.529 222.488 519.124 227.093 523.903 232.707C529.393 239.156 532.834 246.676 535.978 254.413C539.822 263.87 542.96 273.544 544.767 283.596C545.176 285.855 544.829 288.25 544.829 290.584C544.371 290.664 543.919 290.738 543.461 290.819C542.471 288.82 541.289 286.889 540.527 284.803C537.965 277.778 535.638 270.673 533.032 263.666C532.388 261.933 530.699 260.584 530.092 258.851C528.972 255.669 528.693 252.154 527.325 249.109C526.038 246.255 525.698 242.876 522.51 240.84C515.955 236.656 509.481 232.305 503.329 227.557C500.272 225.199 497.982 222.482 493.513 222.197C486.754 221.77 479.989 222.074 475.248 226.808C470.092 231.958 465.723 238.141 462.065 244.485C457.534 252.34 454.025 260.794 450.231 269.057C449.599 270.431 449.494 272.195 449.612 273.742C449.804 276.348 450.67 278.923 450.72 281.516C450.936 292.125 450.385 302.746 451.951 313.323C452.533 317.26 452.372 321.302 452.651 325.288C453.443 336.577 454.365 347.854 455.04 359.15C455.17 361.303 455.176 363.148 457.249 364.38C457.714 364.658 458.128 365.395 458.165 365.945C458.438 370.136 458.363 374.369 458.883 378.522C459.558 383.901 458.673 389.583 461.669 394.584C464.237 392.547 466.242 390.468 465.692 386.68C464.813 380.639 464.305 374.536 463.767 368.452C462.919 358.815 461.669 349.178 461.501 339.529C461.248 324.743 461.724 309.938 462.009 295.145C462.059 292.595 462.684 290.058 463.049 287.514C463.494 284.37 463.996 281.225 464.373 278.075C464.677 275.544 464.695 272.975 465.085 270.456C465.357 268.71 466.057 267.033 466.558 265.325C467.022 265.405 467.487 265.492 467.951 265.572C468.551 273.198 467.338 280.681 465.803 288.832C464.856 287.669 464.435 287.149 463.99 286.598C463.773 287.353 463.562 288.083 463.352 288.814C466.36 289.488 468.18 291.506 468.075 294.396C467.765 302.845 467.128 311.287 467.035 319.736C466.936 328.63 467.282 337.53 467.493 346.43C467.648 352.886 467.796 359.348 468.136 365.797C468.39 370.674 468.731 375.558 469.399 380.392C470.742 390.078 472.339 399.733 473.849 409.537C475.743 409.438 476.139 410.658 474.994 412.552C470.773 419.527 466.558 426.509 462.207 433.397C460.895 435.471 457.992 437.191 457.868 439.203C457.707 441.784 456.383 442.459 454.891 443.622C454.192 444.167 453.647 445.015 453.251 445.838C450.602 451.346 448.052 456.898 445.391 462.401C443.831 465.619 442.141 468.77 440.476 471.939C439.777 473.269 439.275 474.501 437.078 473.758C435.104 473.09 433.216 473.932 431.805 475.918C428.654 480.35 425.448 484.775 421.821 488.817C420.614 490.166 420.379 491.256 420.478 492.698C420.596 494.412 420.825 496.127 421.079 497.829C421.209 498.689 421.295 499.655 421.747 500.354C423.827 503.628 425.95 506.884 428.209 510.034C430.332 512.999 431.31 515.765 429.422 519.442C427.027 524.096 425.269 529.079 423.431 533.467C428.952 536.234 434.862 538.895 440.458 542.107C444.196 544.249 447.476 545.06 451.846 543.68C465.834 539.273 480.373 538.035 494.949 537.868C503.41 537.775 511.92 538.221 520.331 539.118C529.04 540.046 537.643 541.916 546.321 543.191C553.216 544.206 560.135 545.32 567.08 545.71C573.083 546.044 579.143 545.375 585.184 545.221C588.037 545.146 589.436 543.636 590.024 540.993C590.587 538.468 591.033 535.869 591.992 533.492C592.617 531.944 592.246 531.301 591.057 530.57C588.39 528.93 585.765 527.21 583.085 525.588C573.257 519.634 563.471 513.605 553.55 507.812C548.419 504.816 543.374 501.709 539.747 496.968C536.82 493.143 534.394 488.935 531.844 484.831C526.261 475.856 518.153 468.739 514.359 458.316C510.998 449.094 505.347 440.732 501.194 431.763C497.975 424.806 493.03 418.592 492.195 410.528C491.935 407.996 490.356 405.539 489.118 403.187C487.726 400.544 485.968 398.068 487.051 394.503C489.583 395.326 490.27 397.326 490.988 399.263C492.046 402.104 490.783 406.22 495.37 407.105C495.5 407.13 495.574 407.445 495.673 407.625C497.313 410.571 499.207 413.406 500.556 416.476C505.508 427.753 510.218 439.135 515.163 450.418C516.698 453.921 516.296 458.879 521.631 459.838C521.873 459.882 522.083 460.247 522.263 460.488C528.124 468.349 534.189 476.061 539.778 484.113C545.312 492.085 551.755 498.788 560.63 503.077C564.585 504.99 568.38 507.416 571.852 510.115C578.208 515.054 584.292 520.346 590.445 525.538C592.889 527.6 595.607 529.5 597.513 531.994C600.614 536.067 603.151 540.566 605.782 544.67H605.732ZM364.91 981.553C360.949 983.181 357.155 984.716 353.379 986.288C346.33 989.221 339.119 990.701 331.964 987.068C323.503 982.778 314.38 982.227 305.232 981.633C304.459 981.584 303.159 982.457 302.886 983.193C301.667 986.461 300.825 989.871 299.68 993.177C296.672 1001.87 293.8 1010.62 288.768 1018.63C294.785 1020.55 300.844 1022.52 306.928 1024.4C311.056 1025.68 315.203 1027.69 319.468 1024.67C319.92 1024.35 320.619 1024.32 321.207 1024.28C324.877 1024.06 328.69 1024.41 332.187 1023.52C336.897 1022.31 340.518 1024.41 344.51 1025.94C353.429 1029.37 362.465 1032.5 372.201 1032.29C385.669 1031.99 399.131 1031.46 412.593 1031.12C417.371 1030.99 422.156 1031.1 426.544 1031.1C427.101 1024.4 422.96 1021.48 417.699 1019.46C417.037 1019.21 416.375 1018.97 415.712 1018.71C401.595 1013.06 387.637 1007.15 376.472 996.327C371.978 991.976 367.374 987.705 364.923 981.565L364.91 981.553ZM569.828 95.2595C566.158 101.567 562.871 107.979 558.873 113.914C552.231 123.78 543.486 131.325 532.413 136.035C530.909 136.673 529.702 138.01 528.359 139.025C528.52 139.755 528.161 139.823 527.926 139.687C524.175 137.496 520.554 135.051 516.667 133.151C514.055 131.876 511.072 130.749 508.244 130.718C505.985 130.694 503.36 132.031 501.578 133.559C500.723 134.29 501.38 136.871 501.491 138.61C501.602 140.331 501.974 142.033 502.079 143.753C502.432 149.497 507.092 153.143 512.923 152.35C513.573 152.264 514.916 153.167 514.99 153.731C515.244 155.754 515.163 157.828 515.083 159.883C514.817 166.691 513.771 173.301 510.193 179.299C509.358 180.698 508.807 182.264 508.126 183.755C508.367 183.891 508.609 184.028 508.85 184.158C509.488 183.229 510.193 182.338 510.756 181.366C511.586 179.93 512.236 179.082 514.315 179.905C519.025 181.768 523.94 183.111 528.724 184.789C531.435 185.742 534.128 184.287 534.746 181.434C534.864 180.908 535.502 180.159 535.966 180.11C537.389 179.949 538.887 179.843 540.274 180.141C547.082 181.589 553.859 183.149 560.643 184.715C562.908 185.234 564.412 184.622 565.254 182.325C567.457 176.303 569.481 170.188 572.112 164.352C573.969 160.223 574.03 154.597 579.91 153.173C580.077 153.13 580.108 152.629 580.257 152.375C582.776 148.043 582.572 147.244 578.252 144.775C577.645 144.428 577.045 144.038 576.389 143.828C572.266 142.522 571.709 139.117 571.425 135.534C570.991 130.18 570.558 124.832 570.125 119.522H559.089C559.021 119.126 558.959 118.736 558.891 118.34C561.868 114.942 566.374 117.009 569.84 116.112V95.2719L569.828 95.2595ZM303.778 975.363C308.921 975.363 313.613 975.5 318.292 975.326C323.664 975.128 328.603 976.416 333.53 978.477C336.878 979.876 340.543 981.144 344.095 981.231C347.468 981.318 350.885 979.795 354.122 979.015V970.492C338.283 969.131 323.231 965.801 309.633 956.87C307.603 963.276 305.634 969.471 303.771 975.357L303.778 975.363ZM366.538 448.549C362.397 453.643 363.202 458.78 365.3 464.097C369.1 473.727 379.22 476.933 387.823 471.14C388.393 470.756 389.16 470.664 389.742 470.298C392.088 468.825 394.644 467.556 396.637 465.693C398.203 464.227 399.979 462.11 397.219 459.597C396.761 464.004 393.196 465.873 390.386 469.166C389.928 466.04 386.437 464.208 389.296 461.318C384.345 461.794 379.523 462.265 374.479 462.754C373.699 462.227 372.455 461.373 371.205 460.525C371.403 460.494 371.607 460.463 371.805 460.432C370.091 456.564 368.382 452.696 366.544 448.555L366.538 448.549ZM663.318 565.732C662.192 566.376 661.938 566.512 661.691 566.661C655.934 570.121 650.265 573.76 644.36 576.941C642.522 577.932 639.879 578.365 637.861 577.913C631.982 576.601 626.225 574.719 620.649 573.122C620.674 573.221 620.779 573.785 620.94 574.335C621.942 577.839 622.469 581.688 627.686 581.243C629.209 581.113 630.793 581.955 632.371 582.19C635.763 582.703 639.285 583.898 642.534 583.391C647.845 582.555 653.013 580.686 658.169 579.027C659.419 578.625 661.047 577.535 661.356 576.434C662.278 573.19 662.625 569.786 663.324 565.732H663.318ZM386.468 364.101C384.277 365.172 382.865 365.958 384.407 368.372C384.636 368.731 384.351 369.381 384.407 369.888C385.267 377.934 386.127 385.981 387.062 394.021C387.124 394.559 387.829 395.023 388.225 395.512C388.225 391.217 388.368 387.262 388.182 383.325C388.003 379.457 387.433 375.601 387.13 371.739C386.814 367.765 386.703 363.773 386.301 359.806C386.214 358.97 385.248 358.221 384.691 357.435C384.444 357.608 384.196 357.782 383.949 357.955V362.845C384.809 363.272 385.638 363.686 386.468 364.101ZM480.658 168.164C483.87 167.527 486.729 141.148 483.684 137.211C483.239 137.799 482.502 138.325 482.459 138.895C481.809 148.649 481.239 158.41 480.658 168.164ZM394.83 290.417C393.92 291.011 393.084 291.772 392.1 292.168C389.562 293.189 389.129 295.108 389.439 297.51C389.785 300.208 390.051 302.919 390.392 305.952C391.735 304.887 392.731 303.86 393.926 303.204C396.649 301.712 396.513 299.267 396.179 296.823C395.888 294.681 395.294 292.577 394.83 290.41V290.417ZM388.943 289.525C390.181 288.609 391.357 287.959 392.242 287.031C393.115 286.109 394.328 284.883 394.291 283.837C394.155 280.247 393.536 276.676 393.14 273.408C385.416 277.004 388.981 283.546 388.95 289.532L388.943 289.525ZM390.348 256.369C388.838 258.263 386.591 259.792 386.561 261.37C386.474 265.214 387.415 269.082 387.947 272.956C391.995 271.793 393.239 269.899 392.459 266.309C391.784 263.214 391.147 260.113 390.355 256.363L390.348 256.369ZM437.481 377.513C434.132 377.365 432.418 379.383 432.232 383.127C432.182 384.105 433.03 385.962 433.464 385.962C434.664 385.962 435.915 385.293 437.035 384.681C437.654 384.34 438.273 383.666 438.489 383.003C438.879 381.815 439.275 380.472 439.065 379.302C438.916 378.473 437.771 377.823 437.481 377.513ZM408.923 302.535C407.495 302.973 406.781 307.526 406.781 316.195V330.747C407.128 330.753 407.481 330.765 407.827 330.771C408.186 321.425 408.551 312.086 408.917 302.542L408.923 302.535ZM385.843 256.542C391.073 252.637 389.618 253.398 388.455 244.473C384.048 245.575 383.515 248.026 385.843 256.542ZM364.242 441.908C359.699 446.847 355.372 451.254 354.054 457.616C356.573 458.91 356.839 456.861 357.192 455.63C358.479 451.105 361.215 447.849 365.405 445.652C365.077 444.588 364.755 443.56 364.242 441.901V441.908ZM439.832 396.471C437.932 398.229 436.026 399.362 435.122 401.039C434.491 402.215 435.228 404.122 435.351 405.706C436.651 405.18 438.458 405.013 439.133 404.053C440.433 402.197 441.578 399.956 439.826 396.471H439.832ZM429.341 361.186C432.894 362.579 433.946 359.317 435.475 357.559C436.657 356.197 434.732 353.895 432.702 353.951C429.942 354.019 428.333 357.534 429.341 361.192V361.186ZM440.835 113.215C440.359 113.351 439.882 113.487 439.405 113.623C440.829 120.797 442.884 127.785 445.799 134.513C446.065 134.432 446.337 134.358 446.604 134.277C444.679 127.259 442.76 120.234 440.835 113.215ZM372.721 407.482C375.834 409.042 377.066 406.82 378.663 405.997C380.544 405.031 382.401 403.985 384.134 402.791C385.694 401.714 387.08 400.389 388.541 399.17C388.287 398.83 388.034 398.483 387.78 398.143C382.94 401.144 378.1 404.14 372.715 407.482H372.721ZM391.518 472.786C391.029 476.184 385.081 475.256 386.913 480.511C389.884 478.976 392.527 477.614 395.64 476.011C394.143 474.841 393.09 474.012 391.518 472.786ZM418.021 198.69C417.557 204.019 424.73 208.872 432.541 208.271C425.937 207.17 421.803 203.283 418.021 198.69ZM428.512 266.402C435.364 266.625 433.377 260.621 435.302 257.427C431.786 259.42 430.635 263.196 428.512 266.402ZM370.153 480.455H382.903C381.349 478.734 372.251 478.19 370.153 480.455ZM353.026 461.745C354.883 464.134 353.33 468.25 357.978 468.503C357.34 465.953 356.833 463.911 356.294 461.745H353.026ZM365.993 478.635C365.839 478.716 365.684 478.796 365.529 478.883C362.701 476.494 359.878 474.105 357.05 471.71C357.662 471.091 358.275 470.465 358.894 469.847C358.318 470.106 357.749 470.373 356.499 470.942C359.909 473.709 362.954 476.172 365.993 478.642V478.635ZM497.771 66.5285C499.12 63.8856 500.464 61.2428 501.937 58.3461C498.836 58.4761 497.103 61.7441 497.771 66.5285ZM470.662 58.3276C470.977 58.6742 471.293 59.0146 471.609 59.3612C474.233 56.9288 476.857 54.5025 479.482 52.0701C479.191 51.7544 478.906 51.445 478.615 51.1293C475.966 53.5308 473.311 55.9323 470.662 58.3276ZM444.666 260.708C441.058 258.708 440.984 258.752 439.95 262.676C441.683 261.952 443.175 261.327 444.666 260.708ZM670.622 563.646C669.885 562.669 669.149 561.691 668.14 560.348C667.929 562.842 667.775 564.73 667.589 566.958C668.647 565.807 669.471 564.909 670.622 563.646ZM508.59 184.523C508.324 184.325 508.058 184.127 507.792 183.935C506.894 185.414 505.997 186.893 505.099 188.366C505.273 188.478 505.44 188.589 505.613 188.694C506.603 187.302 507.6 185.915 508.59 184.523Z" fill="black"/>
<path d="M440.823 113.209C442.748 120.227 444.666 127.252 446.591 134.271C446.325 134.352 446.053 134.426 445.787 134.506C442.865 127.779 440.817 120.791 439.393 113.617C439.87 113.481 440.346 113.345 440.823 113.209Z" fill="white"/>
<path d="M418.009 198.684C421.79 203.276 425.925 207.163 432.529 208.265C424.718 208.872 417.538 204.019 418.009 198.684Z" fill="white"/>
<path d="M470.643 58.3214C473.292 55.9199 475.947 53.5185 478.596 51.1232C478.887 51.4388 479.172 51.7483 479.463 52.064C476.839 54.4964 474.214 56.9226 471.59 59.355C471.274 59.0084 470.959 58.668 470.643 58.3214Z" fill="white"/>
<path d="M384.24 428.334C384.834 429.083 385.422 429.832 386.338 430.984C386.059 428.594 385.843 426.75 385.626 424.906C385.83 424.887 386.028 424.868 386.232 424.85C386.48 427.078 386.721 429.3 386.969 431.528C386.61 431.652 386.257 431.782 385.898 431.906C385.205 430.903 384.512 429.894 383.812 428.891C383.955 428.706 384.097 428.52 384.246 428.334H384.24Z" fill="white"/>
<path d="M383.812 428.898C383.305 428.353 382.797 427.808 382.154 427.121C382.055 427.907 381.974 428.582 381.887 429.257L381.498 429.213V423.853C382.674 425.778 383.46 427.059 384.246 428.341C384.103 428.526 383.961 428.712 383.812 428.898Z" fill="white"/>
<path d="M467.988 63.242C467.505 63.7867 467.022 64.3314 466.533 64.8822C466.378 64.7584 466.23 64.6408 466.075 64.517L467.338 62.9449C467.554 63.044 467.771 63.143 467.988 63.242Z" fill="white"/>
<path d="M469.362 61.2551C469.028 61.7626 468.693 62.2763 468.359 62.7838C468.242 62.6353 468.112 62.4929 467.982 62.3568C468.316 61.8493 468.65 61.3355 468.984 60.828C469.102 60.9765 469.232 61.1189 469.362 61.2551Z" fill="white"/>
<path d="M469.381 60.3328C469.727 59.9429 470.074 59.5591 470.427 59.1692C470.563 59.293 470.699 59.4168 470.835 59.5344C470.557 59.9057 470.272 60.2709 469.993 60.6423C469.789 60.537 469.591 60.438 469.387 60.3328H469.381Z" fill="white"/>
<path d="M467.338 62.9509L467.976 62.3567C468.105 62.4929 468.235 62.6352 468.353 62.7838C468.297 62.988 468.174 63.1427 467.982 63.248C467.765 63.1489 467.548 63.0499 467.332 62.9509H467.338Z" fill="white"/>
<path d="M468.984 60.822C469.114 60.661 469.251 60.4939 469.381 60.333C469.585 60.4382 469.783 60.5373 469.987 60.6425C469.777 60.8467 469.572 61.051 469.362 61.2552C469.232 61.1191 469.102 60.9767 468.984 60.8282V60.822Z" fill="white"/>
<path d="M389.791 728.271C389.383 728.698 388.974 729.132 388.572 729.559C388.448 729.472 388.324 729.385 388.201 729.305C388.597 728.779 388.999 728.259 389.395 727.733C389.525 727.912 389.661 728.092 389.791 728.271Z" fill="black"/>
<path d="M514.594 305.921C514.718 303.637 514.835 301.347 514.953 299.175C509.785 298.061 504.79 297.528 499.975 300.078C498.279 300.976 496.57 301.595 496.137 303.947C495.97 304.863 494.447 305.748 493.358 306.15C492.943 306.305 492.077 304.974 491.303 304.51C490.065 303.767 488.79 302.962 487.416 302.641C486.903 302.517 485.776 303.55 485.467 304.281C484.749 306.008 487.15 309.22 489.174 309.362C490.69 309.468 492.219 309.381 493.841 309.381C491.99 311.751 488.388 313.163 486.389 312.407C483.486 311.306 482.384 307.759 483.307 302.028C482.508 302.987 482.013 304.132 481.221 304.392C480.305 304.696 478.708 304.615 478.169 304.015C477.148 302.882 476.597 301.291 475.984 299.837C474.344 295.938 474.022 293.437 477.309 290.547C479.636 288.498 481.394 285.892 484.848 285.088C486.983 284.592 488.27 285.007 489.774 286.208C492.405 288.318 499.479 288.244 502.128 286.195C503.88 284.84 505.452 285.756 506.962 286.709C507.823 287.254 508.603 287.929 509.791 288.826C509.135 284.32 510.521 282.977 514.297 283.447C516.952 283.775 519.638 283.918 522.312 283.967C524.955 284.017 526.397 285.137 526.898 287.811C527.276 289.816 528.582 291.723 528.65 293.697C528.768 297.262 526.836 299.107 524.373 299.515C522.51 301.595 521.223 303.037 519.428 305.036C520.096 309.214 519.57 313.757 513.505 315.416C515.349 312.42 515.77 309.195 514.501 305.822L514.588 305.921H514.594Z" fill="black"/>
<path d="M536.009 292.001C536.498 292.632 536.9 293.703 537.501 293.833C540.744 294.533 541.016 297.101 541.771 299.639C544.086 307.419 546.729 315.094 549.038 322.874C551.198 330.146 552.832 337.58 555.159 344.796C559.312 357.67 563.812 370.439 568.15 383.251C568.274 383.622 568.274 384.031 568.33 384.446C565.891 385.751 564.783 384 564.041 382.409C560.445 374.703 556.948 366.954 553.525 359.168C552.436 356.692 551.773 354.031 550.746 351.518C549.836 349.308 550.789 348.368 552.244 348.04C548.957 339.783 545.454 331.508 542.359 323.09C539.258 314.654 536.578 306.07 533.663 297.565C532.877 295.275 532.723 293.431 535.78 292.936C535.953 292.911 536.034 292.323 536.158 291.995H536.003L536.009 292.001Z" fill="black"/>
<path d="M436.391 519.244C437.481 518.421 438.465 517.096 439.672 516.861C445.001 515.821 450.361 514.8 455.758 514.317C463.03 513.667 470.34 513.228 477.637 513.221C484.644 513.215 491.65 513.884 498.656 514.23C499.993 514.298 501.336 514.212 502.673 514.255C509.011 514.459 515.349 514.657 521.687 514.936C522.411 514.967 523.117 515.487 523.655 516.477C520.177 516.768 516.704 517.238 513.22 517.306C506.628 517.443 500.03 517.189 493.445 517.387C485.071 517.641 476.703 518.123 468.341 518.606C458.673 519.163 449.005 519.832 439.337 520.426C438.57 520.475 437.79 520.315 437.01 520.253L436.385 519.25L436.391 519.244Z" fill="black"/>
<path d="M474.425 246.156C475.328 244.826 475.935 242.839 477.185 242.263C484.155 239.07 491.272 236.21 498.359 233.276C498.644 233.159 499.096 233.437 500.494 233.796C498.712 235.399 497.61 236.866 496.137 237.621C490.728 240.419 485.219 243.018 479.711 245.612C478.318 246.268 476.789 246.621 475.322 247.116C475.025 246.794 474.722 246.472 474.425 246.156Z" fill="black"/>
<path d="M536.009 292.001H536.164C533.137 289.532 530.272 282.637 531.435 280.285C534.499 281.671 534.425 284.883 535.446 287.347C536.022 288.739 535.848 290.441 536.009 292.001Z" fill="black"/>
<path d="M617.616 504.099C618.613 507.261 619.56 510.251 620.506 513.24C616.446 510.418 615.283 506.265 617.616 504.099Z" fill="black"/>
<path d="M511.58 316.375C507.321 317.322 503.057 318.485 498.737 315.706C501.169 313.292 503.088 315.843 505.112 315.898C507.272 315.96 509.426 316.208 511.586 316.375H511.58Z" fill="black"/>
<path d="M514.501 305.822C514.086 306.695 513.672 307.567 513.251 308.44C512.848 308.329 512.446 308.217 512.044 308.106C512.044 306.701 511.474 304.553 512.155 304.039C513.969 302.665 513.517 305.512 514.588 305.915L514.501 305.822Z" fill="black"/>
<path d="M524.856 146.718C523.129 146.941 521.736 147.287 520.356 147.244C518.685 147.195 516.655 147.275 515.504 146.378C514.891 145.895 515.801 143.469 516.073 141.575C512.675 140.12 508.559 138.356 504.443 136.592C504.443 136.246 504.443 135.899 504.443 135.558C505.322 135.391 506.343 134.847 507.055 135.119C510.608 136.462 514.093 138.016 517.583 139.513C518.691 139.99 519.725 140.659 520.864 141.024C523.828 141.964 525.518 143.66 524.85 146.718H524.856Z" fill="black"/>
<path d="M568.553 128.893C566.56 133.021 565.081 136.091 563.595 139.167C563.261 139.086 562.927 139.012 562.599 138.932C562.233 137.211 561.534 135.484 561.602 133.782C561.676 131.882 560.791 131.523 559.324 131.071C558.006 130.669 556.83 129.802 555.592 129.14C555.753 128.688 555.914 128.236 556.075 127.785C559.888 128.119 563.694 128.459 568.553 128.886V128.893Z" fill="black"/>
<path d="M504.338 304.943L503.614 305.909C503.434 306.15 503.391 306.472 503.502 306.75C503.806 307.512 504.468 308.861 505.192 308.137C506.145 307.184 506.121 306.063 505.867 305.203C505.669 304.522 504.765 304.368 504.338 304.937V304.943Z" fill="black"/>
<path d="M507.662 308.143H510.138L508.9 309.381L507.662 308.143Z" fill="black"/>
</svg>
