<svg width="1080" height="1080" viewBox="0 0 1080 1080" fill="none" xmlns="http://www.w3.org/2000/svg">
<path d="M854.16 493.456V495.932C850.744 497.424 847.525 494.589 845.05 493.289C842.908 492.163 840.847 490.888 838.749 489.674C838.383 489.532 838.019 489.396 837.653 489.254L838.192 490.083C838.941 491.686 839.69 493.283 840.278 494.539C838.192 495.35 836.514 495.511 835.685 496.433C833.779 498.55 832.367 498.928 831.086 496.551C828.957 492.608 825.077 491.216 822.762 489.65C820.038 490.894 818.107 491.779 816.17 492.658C815.997 492.398 815.83 492.144 815.656 491.884C814.839 494.131 814.183 496.464 813.119 498.581C812.723 499.373 811.243 500.252 810.463 500.091C809.052 499.806 807.722 498.866 806.502 497.999C805.92 497.584 806.595 496.724 806.558 496.037C806.422 493.357 805.264 490.671 805.264 487.601C801.043 492.169 797.367 497.826 789.915 497.095C789.203 495.053 788.491 493.128 787.872 491.178C787.439 489.811 786.461 488.102 786.913 487.081C787.866 484.946 786.894 484.116 785.421 483.225C778.464 479.047 773.24 473.186 768.611 466.607C766.321 463.351 763.307 460.603 760.422 457.403C760.62 460.659 760.787 465.808 760.954 468.488C722.153 463.976 735.882 459.99 734.706 458.177C733.505 459.644 732.323 461.296 730.918 462.738C729.735 463.958 728.442 465.245 726.938 465.938C724.598 467.015 722.036 467.609 719.572 468.414C714.708 470.011 713.674 469.639 710.944 465.35C710.796 465.115 710.326 465.072 709.998 464.96C705.374 463.425 701.326 461.321 697.73 457.663C693.534 453.405 688.502 449.827 682.69 447.71C681.954 447.444 681.266 446.968 680.647 446.466C676.946 443.495 673.356 440.419 668.436 439.479C667.062 439.219 665.768 438.135 664.599 437.226C657.877 431.977 651.737 426.252 646.036 419.765C640.287 413.223 632.655 410.797 625.766 405.276C625.024 404.682 623.711 401.977 622.721 402.095C620.642 402.336 621.075 402.918 618.574 403.456C621.786 411.286 622.195 419.178 625.748 426.759C629.876 435.567 636.387 442.648 643.258 449.474C648.221 454.407 652.64 459.885 657.245 465.171C660.439 468.829 663.404 472.697 666.709 476.243C670.552 480.372 674.829 484.098 678.593 488.294C683.365 493.611 687.846 499.2 692.395 504.715C696.864 510.13 701.388 515.509 705.659 521.079C711.192 528.302 716.812 535.501 721.819 543.083C727.34 551.432 732.496 560.048 737.262 568.849C740.127 574.147 741.588 580.2 744.318 585.585C747.227 591.316 746.905 597.753 749.312 603.658C751.509 609.036 747.449 614.186 745.357 619.076C742.69 625.321 739.087 631.17 735.925 637.204C734.124 640.646 732.391 644.124 730.627 647.584C729.296 646.587 729.865 650.072 729.191 650.047C725.378 649.886 726.121 645.566 726.003 641.58C725.935 639.241 723.088 636.907 722.896 635.026C718.217 637.204 713.934 639.692 709.329 641.203C705.058 642.608 701.196 644.489 697.613 647.114C694.809 649.168 692.117 651.44 689.109 653.148C680.883 657.821 672.694 662.618 664.153 666.641C658.848 669.141 653.03 670.819 647.262 671.964C640.881 673.233 634.295 673.474 627.803 674.161C626.33 674.316 624.367 675.164 623.458 674.52C619.088 671.425 614.236 671.512 609.334 671.76C608.12 671.821 606.938 672.595 605.156 673.257C607.118 675.021 608.424 676.191 609.773 677.404C609.525 678.104 609.253 678.741 609.067 679.403C606.369 689.121 602.222 698.182 597.363 707.02C591.496 717.685 586.08 728.603 580.541 739.447C576.4 747.548 572.915 756.053 566.844 762.985C559.051 771.885 554.855 782.593 550.844 793.455C548.275 800.418 545.726 807.424 542.575 814.134C538.212 823.436 533.334 832.498 528.593 841.621C526.006 846.603 523.666 851.784 520.467 856.357C515.212 863.871 509.264 870.89 503.805 878.268C502.27 880.341 501.434 882.929 500.172 885.485C502.468 885.992 504.003 886.326 505.736 886.71C505.358 898.773 504.975 910.836 504.591 923.153C502.035 922.188 500.896 922.324 500.691 924.762C500.209 930.494 499.417 936.207 498.903 941.938C498.383 947.706 497.919 953.481 497.727 959.268C497.671 960.939 498.699 962.623 499.082 964.337C499.299 965.328 499.652 966.689 499.188 967.358C496.928 970.595 494.787 974.049 490.838 975.602H477.221C476.008 974.253 474.739 972.953 473.588 971.554C471.793 969.388 470.153 966.609 469.565 964.294C466.996 954.224 466.105 943.974 465.573 933.787C465.381 930.178 468.488 927.319 465.443 925.066C461.395 922.082 457.873 918.214 453.51 915.887C450.143 914.098 447.754 911.975 446.961 908.59C445.6 902.747 445.105 896.712 448.608 891.365C450.867 887.911 451.771 884.321 451.176 880.385C449.84 871.509 447.791 862.708 447.023 853.789C446.089 842.945 445.519 831.978 446.015 821.121C446.423 812.122 448.868 803.228 449.945 794.235C451.43 781.856 452.538 769.428 453.677 757.006C454.253 750.717 454.599 744.41 454.902 738.104C455.001 736.111 455.243 733.752 454.352 732.155C451.672 727.328 448.719 722.599 445.396 718.192C440.698 711.966 438.439 704.792 436.334 697.501C433.846 688.879 431.556 680.202 428.87 671.642C427.273 666.56 425.361 661.535 423.095 656.713C420.694 651.601 417.872 646.668 414.95 641.828C411.125 635.496 407.071 629.307 403.017 623.124C401.729 621.161 395.373 619.924 393.566 621.322C389.883 624.169 385.581 624.609 381.404 623.891C378.235 623.346 375.66 626.28 373.005 627.704C372.398 628.025 371.68 626.893 371.03 627.147C365.708 629.183 360.156 629.548 355.13 632.16C349.145 635.267 343.277 637.743 336.339 637.111C332.31 636.746 329.388 634.852 328.033 630.879C327.327 628.824 326.51 626.806 325.891 625.16C319.956 628.583 314.2 631.844 308.505 635.205C304.748 637.415 300.416 639.135 297.494 642.181C290.141 649.855 283.438 658.155 276.413 666.276C274.705 665.521 272.941 666.387 271.864 668.126C270.558 670.231 269.277 672.502 268.726 674.879C267.934 678.314 267.736 681.898 267.426 685.426C267.228 687.703 265.31 688.316 263.818 688.861C262.964 689.17 261.41 688.161 260.451 687.4C259.461 686.614 258.996 685.141 257.975 684.435C251.594 680.022 246.345 674.471 242.737 667.706C239.896 662.383 238.045 656.521 235.799 650.883C232.716 643.152 231.479 635.094 231.46 626.794C231.46 625.011 230.915 623.21 230.488 621.452C229.003 615.35 226.713 609.334 226.1 603.144C224.881 590.815 228.514 578.95 231.324 567.116C233.923 556.155 239.017 546.196 246.11 537.456C251.266 531.106 256.484 524.632 262.63 519.315C270.472 512.538 279.23 506.819 287.672 500.753C302 490.467 316.397 480.273 330.756 470.023C339.483 463.797 348.241 457.62 356.869 451.263C360.639 448.484 364.222 445.427 367.707 442.289C370.795 439.503 373.63 436.433 376.576 433.487C381.998 428.059 387.42 422.631 392.829 417.191C395.583 414.424 398.926 411.973 400.758 408.687C401.606 407.164 399.489 403.983 398.721 401.55C402.856 401.204 403.234 400.424 400.869 396.964C400.189 395.967 399.297 395.113 398.653 394.098C398.165 393.318 397.688 392.409 397.601 391.511C397.335 388.819 397.261 386.114 397.1 383.217C392.984 387.414 389.753 391.604 385.668 394.649C380.054 398.839 373.834 402.237 367.806 405.858C355.774 413.087 364.618 412.809 351.583 417.933C349.473 418.763 326.009 425.577 324.499 422.891C324.251 422.452 323.224 422.346 322.543 422.285C317.629 421.839 312.733 421.344 308.214 419.109C306.877 418.447 305.473 417.909 304.105 417.315C299.073 415.13 293.379 413.811 289.176 410.556C283.612 406.248 279.112 400.523 274.365 395.218C270.744 391.171 267.402 386.863 264.022 382.604C262.976 381.292 261.522 379.801 261.435 378.321C261.15 373.407 260.748 368.35 261.59 363.554C263.323 353.663 265.854 343.915 268.008 334.092C268.522 331.74 269.692 329.085 269.073 327.011C267.451 321.559 264.895 314.948 264.808 309.198C264.765 306.258 266.263 305.324 269.017 303.702C270.205 303.003 271.443 301.518 271.679 300.212C272.886 293.533 273.554 286.762 274.848 280.102C275.683 275.801 275.522 272.452 270.645 271.01C270.472 270.961 270.354 270.719 270.199 270.595C263.62 265.254 260.94 257.963 259.671 250.072C257.944 250.932 256.001 251.891 254.064 252.857C250.01 254.868 249.081 254.342 248.666 250.034C246.754 249.459 244.662 249.304 243.176 248.27C240.738 246.574 239.104 243.294 235.31 245.244C232.809 243.102 229.709 241.357 227.976 238.714C226.342 236.226 226.15 232.797 225.32 229.783C225.32 228.13 225.32 226.484 225.32 224.831C228.365 224.862 229.238 222.77 229.541 220.319C230.204 214.965 231.961 210.218 235.601 206.034C237.588 203.756 239.246 200.86 240.057 197.969C241.598 192.442 245.411 189.403 250.325 187.788C253.971 186.587 257.951 186.185 261.813 185.931C264.629 185.745 266.641 185.238 267.6 182.236C268.163 180.46 269.147 178.696 270.342 177.272C272.341 174.889 274.377 172.463 276.692 170.371C277.305 169.814 278.926 167.716 279.787 167.895C283.067 168.582 286.18 171.627 289.021 172.345C290.364 171.268 291.571 169.919 293.069 169.17C297.154 167.128 301.332 165.271 305.547 163.519C306.215 163.241 308.889 160.542 309.489 161.087C311.204 162.616 313.426 165.648 315.06 167.276C316.545 168.756 315.797 172.865 317.554 173.237C319.801 173.719 320.265 175.001 320.94 176.548C321.738 178.38 322.388 180.292 323.372 182.019C324.474 183.95 326.114 185.126 328.491 184.006C329.84 183.375 331.103 182.533 332.489 182.013C334.699 181.184 336.933 180.113 338.728 183.022C340.158 185.337 339.384 187.026 337.849 188.722C336.618 190.084 335.188 191.31 334.173 192.814C328.683 194.503 331.598 197.895 329.809 199.999C327.172 203.106 324.047 205.805 321.126 208.683C318.935 208.683 315.53 206.969 314.268 208.801C312.597 211.215 312.597 210.886 312.603 216.692C312.603 218.239 312.516 219.793 312.634 221.328C312.931 225.134 314.905 228.959 318.241 231.231C320.952 233.075 315.679 234.938 314.206 237.03C310.375 242.471 308.982 248.685 308.301 255.11C307.75 260.284 307.329 265.477 307.063 270.67C306.735 277.113 306.512 283.568 306.494 290.024C306.488 291.831 307.342 293.638 307.818 295.501C311.934 293.595 312.596 293.608 314.323 297.556C316.31 302.112 318.377 306.791 319.275 311.631C320.544 318.52 324.443 323.434 329.011 328.088C333.51 322.79 337.8 317.468 342.38 312.405C350.5 303.424 358.868 294.678 366.983 285.691C374.583 277.28 382.264 268.937 391.381 262.153C396.456 258.378 402.058 255.308 407.387 251.873C409.794 250.325 411.862 251.377 413.755 252.733C414.901 253.55 415.718 254.819 416.776 255.982C433.921 240.911 448.862 228.91 466.724 216.773C463.066 213.641 463.264 214.105 460.541 211.115C455.491 205.564 450.378 198.576 447.574 191.718C443.099 180.763 442.48 169.504 443.26 157.565C443.823 148.974 444.164 140.476 442.734 131.904C442.264 129.075 442.945 125.665 444.176 123.022C446.596 117.823 451.084 114.314 456.209 111.9C469.596 105.593 483.702 101.44 498.135 98.3576C500.227 97.9119 502.357 97.6644 504.473 97.324C507.364 97.324 510.248 97.324 513.138 97.324C517.861 98.3576 522.546 99.9421 527.318 100.289C534.442 100.802 540.409 103.569 545.763 107.908C549.482 110.922 553.01 114.202 556.464 117.526C559.67 120.615 563.179 123.579 565.655 127.206C570.161 133.804 572.538 141.423 573.708 149.29C574.271 153.059 574.252 156.996 573.93 160.808C573.497 165.902 570.669 170.018 567.939 174.27C565.03 178.807 561.533 181.667 556.285 183.041C551.475 184.297 548.566 188.258 546.629 192.609C544.327 197.777 542.606 203.206 540.365 208.411C539.239 211.035 537.531 213.412 536.491 215.213C537.481 218.561 538.298 221.316 539.103 224.045C549.037 228.935 559.125 233.93 569.251 238.844C571.82 240.088 574.469 241.239 577.18 242.106C579.854 242.96 582.818 243.022 585.387 244.08C593.489 247.416 601.566 249.613 609.439 253.445C612.496 254.93 616.42 254.899 618.94 257.263C624.603 262.58 628.217 272.681 634.487 277.082C644.124 283.841 651.174 292.5 656.286 302.687C660.922 311.922 664.493 321.689 668.467 331.245C669.921 334.742 670.806 338.53 672.632 341.804C675.424 346.799 678.927 351.385 681.873 356.3C682.727 357.723 684.559 359.617 682.108 361.468C681.954 361.585 682.213 362.471 682.473 362.879C685.382 367.472 687.957 366.11 692.525 366.735C696.009 367.218 701.085 372.287 703.882 373.661C707.639 375.511 710.963 378.52 714.875 379.708C727.662 383.582 736.581 389.481 747.103 396.289C750.377 400.647 752.11 410.389 755.768 414.406C759.061 418.02 763.269 420.781 766.661 424.315C770.87 428.709 775.89 431.773 781.113 434.688C786.808 437.863 792.44 441.162 798.01 444.548C800.418 446.015 803.68 446.417 806.168 446.813C810.996 447.593 813.88 451.845 817.445 454.921C820.713 457.743 823.727 460.869 826.748 463.964C827.62 464.855 827.967 466.26 828.834 467.151C833.599 472.022 838.458 476.801 843.279 481.628C843.849 482.198 844.387 482.817 844.876 483.46C845.972 484.902 846.962 486.437 848.138 487.818C848.887 488.696 850.75 489.588 850.62 490.089C850.032 492.367 853.114 492.571 854.185 493.456H854.16ZM759.525 458.022C759.76 457.917 759.995 457.805 760.23 457.7C759.915 457.087 759.599 456.475 759.29 455.862C759.098 455.949 758.912 456.035 758.72 456.122C758.986 456.759 759.259 457.391 759.525 458.028V458.022Z" fill="white"/>
<path d="M859.112 495.313C857.107 497.027 855.101 498.742 851.92 498.779C852.947 497.498 853.962 496.328 853.337 494.564C852.768 492.961 851.493 492.33 850.242 491.513C848.534 490.398 846.975 489.093 845.52 487.632C837.505 479.617 829.403 471.676 821.846 463.227C819.141 460.201 816.182 457.322 814.134 453.745C813.038 451.826 811.156 451.115 809.331 450.273C799.093 445.557 788.844 440.846 778.607 436.13C777.616 435.672 776.88 435.103 775.716 436.254C769.88 442.059 764.674 448.336 760.49 455.441C760.168 455.986 759.853 456.487 760.255 457.428C763.306 455.348 765.281 458.04 766.636 459.656C772.362 466.495 778.631 472.938 783.174 480.731C783.614 481.486 784.883 481.783 785.805 482.222C791.184 484.797 796.612 486.289 802.826 485.577C808.557 484.921 814.517 484.84 820.15 486.92C821.276 487.335 821.586 486.796 821.994 485.998C822.384 485.224 822.527 484.816 821.716 483.999C816.052 478.305 809.275 474.919 801.39 473.65C799.985 473.427 798.567 473.26 797.181 472.944C796.519 472.796 795.411 473.334 795.367 471.929C795.336 470.976 795.702 470.339 796.525 469.949C798.326 469.089 800.263 469.219 802.182 469.181C811.93 468.996 819.302 474.306 826.556 479.815C831.86 483.844 837.585 487.211 843.465 490.262C845.644 491.389 847.439 493.085 849.723 494.001C850.515 494.316 851.189 495.028 850.892 495.926C850.546 496.972 849.432 496.662 848.751 496.483C846.312 495.845 843.923 495.022 841.46 494.255C840.872 495.208 841.218 496.111 841.577 497.095C841.856 497.85 842.109 498.921 841.441 499.435C840.599 500.085 839.646 499.28 838.922 498.822C838.186 498.358 837.678 497.535 837.065 496.873C836.638 497.479 836.087 498.036 836.595 499.002C837.077 499.924 836.824 500.673 835.803 501.286C834.552 502.041 833.946 501.31 833.203 500.562C830.257 497.584 827.298 494.62 824.377 491.692C822.143 495.053 820.001 498.228 817.915 501.428C815.941 504.461 813.18 506.095 809.566 505.971C807.653 505.909 806.354 505.525 805.654 502.926C804.806 499.775 805.32 497.034 805.784 494.094C805.908 493.308 806.403 492.15 805.221 491.686C804.286 491.321 803.376 491.686 802.757 492.491C800.207 495.771 796.55 496.86 792.737 497.888C787.049 499.416 783.546 496.532 784.913 490.844C785.464 488.554 784.87 487.7 782.927 486.765C779.912 485.323 777.499 483.726 776.936 479.536C776.558 476.726 773.401 474.281 771.427 471.713C769.88 469.701 768.252 467.752 766.636 465.746C765.751 466.433 764.767 467.015 764.006 467.813C758.51 473.588 752.456 472.691 746.211 469.342C742.968 467.603 739.682 465.92 736.606 463.92C735.145 462.973 734.173 463.004 732.743 463.803C727.767 466.576 722.68 469.144 717.722 471.942C716.459 472.654 715.772 471.812 714.937 471.459C708.265 468.649 702.805 464.038 697.39 459.408C688.26 451.597 678.308 445.266 666.913 441.205C656.676 437.554 648.456 431.123 643.004 421.653C640.522 417.339 637.291 414.393 632.587 413.013C631.863 412.802 631.126 411.843 630.359 412.641C629.616 413.415 630.507 414.183 630.749 414.901C634.332 425.484 639.915 435.059 645.807 444.48C653.804 457.254 663.249 468.866 673.232 480.13C685.5 493.97 697.414 508.125 709.317 522.286C719.684 534.622 730.001 547.013 736.723 561.904C741.285 572.005 744.825 582.472 748.229 592.987C748.922 595.135 750.439 596.837 750.816 599.09C752.246 607.7 749.956 615.758 746.632 623.439C742.133 633.819 736.847 643.839 730.039 652.956C729.352 653.878 728.856 655.42 727.297 654.85C726.034 654.386 726.672 653.037 726.659 652.121C726.61 647.547 724.672 643.449 723.521 639.16C723.094 637.582 722.209 638.337 721.349 639.055C713.761 645.393 705.733 651.062 696.938 655.673C686.503 661.145 675.733 665.7 664.549 669.432C657.314 671.846 650.078 674.074 642.601 675.56C633.862 677.293 625.135 677.349 616.495 675.096C614.279 674.52 613.455 674.607 612.682 677.076C606.95 695.36 601.201 713.575 592.146 730.676C585.022 744.138 577.204 757.204 570.285 770.771C568.923 773.445 567.964 776.174 567.623 779.102C566.354 790.138 562.226 800.109 556.495 809.51C550.553 819.265 545.001 829.285 537.809 838.21C532.158 845.223 526.284 852.056 520.51 858.969C516.771 863.451 513.046 867.944 508.688 873.186C512.024 842.834 518.313 813.583 517.743 783.669C517.446 787.581 517.112 791.487 516.852 795.405C516.295 803.649 515.261 811.831 513.9 819.976C512.154 830.399 510.557 840.847 508.762 851.257C507.388 859.223 506.348 867.214 506.324 875.316C506.311 878.8 506.249 882.545 507.165 885.67C508.806 891.278 508.329 896.824 508.007 902.283C507.562 909.79 507.698 917.273 507.593 924.769C507.574 926.248 507.042 926.947 505.705 927.492C502.777 928.674 501.118 930.512 501.279 934.133C501.601 941.511 501.063 948.889 500.159 956.229C500.06 957.028 499.973 958.018 500.339 958.662C506.361 969.338 507.568 981.092 506.014 992.728C505.043 999.994 507.351 1006.24 508.453 1012.88C511.114 1028.86 506.936 1042.54 496.755 1055.17C491.927 1061.16 486.852 1059.93 481.226 1058.91C476.77 1058.1 474.356 1054.27 471.632 1051.24C467.9 1047.1 464.267 1042.81 461.525 1037.85C457.298 1030.22 456.308 1022.17 457.137 1013.56C457.706 1007.64 460.393 1002.08 459.885 996.07C459.198 988.012 458.139 979.99 457.917 971.895C457.719 964.733 457.502 957.591 462.515 951.593C463.611 950.281 463.184 948.536 462.93 947.131C462.336 943.857 462.392 940.595 462.41 937.315C462.416 935.99 462.187 935.21 460.757 934.486C458.009 933.093 457.613 929.949 456.338 927.077C454.903 929.299 453.374 930.37 450.477 929.98C447.444 929.572 446.516 927.51 444.944 925.716C437.845 917.601 440.333 902.023 445.426 895.363C446.924 900.946 447.921 906.609 452.52 910.948C451.139 904.325 449.802 897.919 448.465 891.519C446.404 881.647 442.586 872.233 441.1 862.194C439.825 853.554 438.327 844.957 437.523 836.236C437.071 831.309 437.089 826.413 437.028 821.505C436.848 808.495 439.361 795.893 444.238 783.936C446.052 779.492 445.841 775.97 444.077 771.891C441.577 766.11 439.974 760.026 438.977 753.806C438.569 751.287 438.847 748.953 441.094 747.127C445.544 743.519 450.007 739.904 454.228 736.036C458.901 731.753 463.376 727.247 467.789 722.698C468.915 721.534 469.825 720.204 471.199 719.238C471.731 718.867 471.911 717.839 472.022 717.078C472.059 716.812 471.719 716.1 471.013 716.199C470.141 716.323 470.122 717.177 469.689 717.635C465.041 722.525 460.677 727.687 454.896 731.419C450.415 734.315 450.768 734.359 447.364 730.169C435.047 715.023 424.977 698.399 414.993 681.712C406.471 667.47 399.873 652.306 393.714 636.938C392.396 633.651 390.805 630.476 389.518 627.184C388.918 625.642 388.101 625.884 386.888 626.206C378.47 628.465 370.486 631.943 362.248 634.716C353.96 637.501 345.709 640.466 336.735 640.181C331.35 640.014 327.736 637.712 325.631 632.686C323.774 628.254 323.354 628.075 319.027 630.39C312.324 633.98 306.327 638.492 300.676 643.61C293.106 650.462 286.057 657.703 280.146 666.053C277.967 669.135 275.72 669.692 273.201 668.201C272.025 673.369 271.004 678.512 270.292 683.767C269.828 687.202 268.435 690.569 268.342 694.171C268.318 695.273 267.6 695.409 266.622 694.747C255.53 687.214 246.333 677.893 239.587 666.239C232.017 653.16 227.802 639.036 225.865 624.095C225.017 617.559 222.758 611.271 221.817 604.704C221.47 602.29 222.343 599.74 221 597.456C221 593.743 221 590.029 221 586.315C221.198 585.857 221.569 585.399 221.569 584.941C221.514 578.442 223.092 572.197 224.429 565.915C227.827 549.946 235.997 536.633 247.627 525.468C257.078 516.4 268.058 509.233 279.063 502.233C299.636 489.142 320.345 476.281 339.78 461.488C350.042 453.677 359.995 445.513 369.242 436.52C374.843 431.073 380.438 425.608 385.483 419.629C390.688 413.458 395.596 407.052 399.507 399.935C400.052 398.938 400.349 398.121 399.774 397.187C398.059 394.42 397.218 391.276 395.905 388.224C394.061 390.261 392.452 392.445 390.446 394.166C381.713 401.661 372.596 408.705 362.142 413.644C359.054 415.105 357.24 418.187 353.787 419.004C350.141 419.864 346.576 421.077 342.986 422.161C340.616 422.872 337.552 421.975 336.196 425.125C336.091 425.379 335.243 425.404 334.748 425.379C330.75 425.212 326.776 425.404 322.753 424.934C305.491 422.934 291.088 415.507 279.316 402.856C271.647 394.618 264.783 385.736 258.928 376.118C256.719 372.485 255.642 368.728 256.756 364.203C258.984 355.117 262.834 346.626 265.712 337.781C266.244 336.147 267.129 334.643 266.659 332.817C265.006 326.331 264.09 319.665 261.943 313.302C260.049 307.694 261.683 304.773 268.039 301.449C269.432 300.719 269.791 300.298 269.661 298.602C269.091 291.15 268.788 283.661 269.766 276.209C270.082 273.783 270.342 271.87 267.884 269.939C265.13 267.773 261.614 265.675 261.744 261.274C258.229 259.875 258.303 256.403 257.189 253.358C255.865 255.654 253.531 254.683 251.711 255.301C248.561 256.372 248.27 253.68 246.921 252.343C246.704 252.126 246.401 251.941 246.283 251.674C245.51 249.935 244.594 249.849 242.83 250.69C240.02 252.027 237.389 252.071 234.914 249.186C232.128 245.949 229.343 242.786 226.861 239.277C223.525 234.561 223.513 229.671 224.614 224.435C224.788 223.612 225.246 222.888 224.887 221.829C223.773 218.58 223.346 215.776 226.781 212.935C230.03 210.243 232.661 206.665 235.749 203.651C236.585 202.834 237.173 202.042 237.13 200.748C237.037 197.691 238.324 194.974 239.797 192.424C240.88 190.542 242.489 188.902 244.897 189.007C247.032 189.1 248.431 188.53 249.582 186.581C250.418 185.17 252.201 184.52 253.859 185.17C257.214 186.488 259.653 185.139 262.11 183.01C263.855 181.499 265.817 180.138 267.878 179.11C270.366 177.872 271.078 176.214 271.27 173.41C271.765 166.23 276.519 164.336 282.609 168.625C283.599 169.325 283.97 168.755 284.682 168.341C290.76 164.85 296.912 161.514 303.547 159.106C305.089 158.549 307.106 159.428 307.942 158.357C310.548 155.046 311.773 157.429 313.209 159.292C318.786 166.515 322.561 174.703 325.836 183.239C328.553 180.614 331.988 179.438 335.237 178.095C337.075 177.334 339.731 176.987 340.944 179.475C341.947 181.524 343.141 181.097 344.88 180.763C351.775 179.445 356.59 180.07 360.514 186.537C361.09 187.491 361.431 188.741 362.248 189.366C366.958 192.95 368.115 197.802 367.645 203.342C367.57 204.233 367.36 205.186 368.567 205.669C372.906 207.414 374.236 211.332 375.357 215.337C375.666 216.432 375.567 217.602 377.263 217.453C380.308 217.181 382.586 218.71 384.387 220.938C385.371 222.157 386.157 222.603 387.71 221.817C390.626 220.338 393.232 221.322 395.571 223.333C396.091 223.779 396.784 224.856 397.174 224.491C399.204 222.566 402.404 223.21 404.243 221.297C406.434 219.019 408.94 217.429 411.861 216.358C412.437 216.147 413.477 216.482 413.452 215.337C413.359 210.967 416.596 209.265 419.753 207.557C420.873 206.95 421.232 206.511 420.712 205.087C419.097 200.693 420.162 198.39 424.049 196.205C426.945 194.578 430.077 194.008 433.301 193.581C430.857 193.228 428.418 192.838 426.085 193.853C423.603 194.936 422.142 194.806 423.176 191.464C422.34 191.464 421.814 191.396 421.319 191.477C414.071 192.628 407.362 191.099 401.309 187.095C396.939 184.204 393.671 180.348 393.102 174.846C393.003 173.868 392.613 172.71 394.148 172.005C395.565 171.355 396.011 172.413 396.729 172.946C398.938 174.58 400.869 176.566 403.401 177.811C405.598 178.894 406.403 178.355 406.062 175.991C405.406 171.473 407.263 167.877 410.648 165.258C412.932 163.495 413.155 162.647 410.32 161.706C409.299 161.365 409.163 160.332 408.686 159.583C407.554 157.813 408.043 154.631 406.91 154C405.195 153.047 402.627 153.282 400.51 152.502C400.133 152.36 399.706 152.347 399.328 152.199C395.175 150.577 392.966 147.247 392.625 143.088C392.34 139.603 394.5 136.973 397.496 135.141C400.015 133.6 402.497 131.997 405.115 130.344C400.714 129.416 396.809 127.825 393.232 125.393C385.897 120.41 382.536 112.513 384.486 104.324C385.383 100.555 387.476 97.4539 390.304 94.7986C390.793 94.3406 392.291 94.0003 391.239 92.7191C387.902 88.6527 389.388 84.5243 391.573 80.7798C395.243 74.4728 401.451 71.3348 408.055 69.0138C409.219 68.6053 409.955 68.3639 410.444 67.1446C413.39 59.804 419.103 55.4527 426.314 52.8099C428.22 52.1105 430.04 51.2688 431.884 50.427C434.935 49.0283 437.071 47.7471 437.504 43.6311C438.538 33.6601 457.236 23.7322 467.64 29.7545C468.154 30.0515 468.897 31.0915 469.912 29.7422C473.65 24.7722 478.787 21.7763 484.686 20H492.113C494.911 21.306 497.999 22.0302 500.363 24.2212C504.764 28.2876 506.15 33.4124 505.73 39.1932C505.618 40.7406 505.649 41.7558 507.877 41.8115C509.908 41.861 512.061 42.5479 513.819 43.8848C514.116 44.1077 514.45 44.2809 514.766 44.4728C515.874 42.4551 518.381 41.5639 519.346 39.7318C521.642 35.3621 524.533 34.4399 528.488 37.5345C529.138 38.0421 529.645 38.6238 530.599 38.5929C533.217 38.5124 535.767 39.3604 537.747 40.7778C540.625 42.8326 543.12 42.517 546.264 41.5638C552.701 39.6204 559.026 42.1395 558.346 50.0866C558.141 52.4571 557.751 54.2953 561.155 55.6075C565.605 57.3219 566.639 62.1063 566.955 66.606C567.085 68.4319 567.072 69.7874 569.226 70.6787C571.473 71.6071 573.317 73.4887 574.048 75.983C574.599 77.8584 575.15 77.4808 576.517 76.6267C581.952 73.2597 587.175 77.7222 587.429 82.6613C587.479 83.6455 587.145 84.6852 587.931 86.0345C590.703 82.8532 593.21 79.8636 593.643 75.5558C594.089 71.1799 592.121 67.8563 589.268 64.7678C593.359 66.0923 595.853 68.9828 597.042 72.7336C599.338 79.9999 597.592 86.5296 592.548 92.1434C593.136 92.8489 593.848 93.1894 594.392 93.8516C597.394 97.4972 597.128 101.867 596.54 105.909C596.07 109.152 597.623 110.538 599.715 111.757C608.399 116.839 608.807 129.478 602.643 135.704C601.306 137.054 600.025 138.459 598.533 140.043C600.544 140.916 602.432 141.658 604.252 142.55C607 143.899 609.073 145.954 610.398 148.751C613.703 155.714 612.515 162.244 608.325 168.347C606.839 170.513 605.626 172.277 607.124 175.069C607.935 176.585 607.446 178.603 606.449 180.28C604.617 183.381 601.696 184.885 598.44 185.925C596.614 186.507 595.141 187.076 595.352 189.632C595.482 191.254 594.751 193.024 594.12 194.615C591.273 201.819 580.188 206.993 571.269 203.336C570.13 202.865 569.418 202.562 568.793 204.202C567.32 208.064 564.553 211.171 561.836 214.179C557.59 218.871 552.045 221.217 545.731 221.885C545.886 222.17 545.911 222.312 545.985 222.343C557.176 227.387 568.162 232.791 578.145 240.02C578.442 240.237 579.129 240.472 579.136 240.453C580.33 238.114 582.082 239.481 583.678 239.729C595.234 241.505 605.892 245.9 616.191 251.155C620.877 253.544 625.166 256.725 625.444 262.791C625.581 265.792 627.122 267.123 629.956 267.909C632.055 268.491 633.93 269.952 635.843 271.115C647.312 278.078 654.881 288.427 660.359 300.329C669.445 320.048 678.184 339.929 687.053 359.753C687.654 361.09 688.316 362.204 689.82 362.767C694.902 364.674 699.426 367.663 704.087 370.368C717.87 378.383 731.536 386.597 746.125 393.108C747.753 393.832 749.294 394.618 750.16 396.209C752.964 401.389 755.396 406.731 756.362 412.604C756.51 413.514 756.777 414.22 757.563 414.597C763.09 417.296 767.818 421.22 772.572 424.977C775.116 426.988 779.609 427.644 779.448 432.385C779.436 432.707 780.556 433.159 781.2 433.394C782.821 433.982 784.524 434.385 786.114 435.041C794.934 438.674 803.748 442.344 812.537 446.052C815.143 447.147 818.002 447.884 819.859 450.267C827.571 460.182 835.289 470.091 842.939 480.05C846.399 484.556 850.15 488.628 855.757 490.423C857.181 490.881 858.14 491.884 859.137 492.874V495.35L859.112 495.313ZM408.656 253.835C399.099 260.03 390.007 266.424 381.546 274.42C384.69 275.404 387.197 276.203 389.71 276.977C392.229 277.75 394.934 279.446 397.224 279.001C399.501 278.555 400.102 275.101 401.6 273.04C400.387 276.228 399.539 279.434 397.49 282.38C392.328 289.801 386.547 296.64 380.172 303.015C379.615 303.572 378.823 304.012 378.934 305.008C379.169 307.125 377.77 307.218 376.217 307.243C368.239 307.385 360.502 305.714 352.827 303.876C351.688 303.603 351.218 303.486 350.407 304.259C346.378 308.097 342.863 312.429 338.908 316.316C335.763 319.405 335.732 322.264 338.159 325.6C338.629 326.244 338.889 327.049 339.18 327.804C343.054 337.911 346.904 348.024 350.797 358.125C353.162 364.265 355.495 370.424 358.045 376.489C359.122 379.058 356.999 380.061 355.897 381.243C355.031 382.171 353.595 380.97 352.926 379.863C342.596 362.817 332.353 345.722 326.176 326.591C325.668 325.012 325.365 323.217 323.403 322.456C322.425 322.079 322.475 321.175 322.772 320.104C323.972 315.728 328.899 314.138 333.566 316.805C337.063 309.143 342.435 302.799 348.123 296.764C358.268 286.013 368.307 275.151 379.429 265.359C388.459 257.406 398.214 250.56 409.194 245.578C412.344 244.148 415.612 242.879 419.091 245.151C419.939 245.702 421.152 245.151 422.198 244.439C428.616 240.125 435.047 235.83 441.608 231.745C446.881 228.458 451.938 224.726 457.935 222.448C458.325 224.893 456.629 225.927 455.379 226.96C449.4 231.906 443.037 236.35 436.805 240.961C429.241 246.562 421.338 251.736 413.892 258.235C419.419 260.959 423.479 265.161 427.397 269.475C430.82 273.238 434.205 277.069 436.378 281.773C437.096 283.333 437.021 284.249 435.536 285.605C429.916 290.723 423.974 295.483 418.657 300.948C414.999 304.711 413.978 308.858 415.117 313.853C416.695 320.76 417.531 327.773 417.11 334.872C416.584 343.865 415.532 352.852 415.464 361.851C415.383 372.627 414.876 383.267 411.434 393.56C405.858 410.24 395.775 424.178 384.102 436.972C376.118 445.724 367.366 453.727 358.193 461.296C344.063 472.957 329.017 483.287 313.735 493.301C298.293 503.427 282.318 512.754 267.606 523.976C259.523 530.14 251.835 536.738 245.714 544.995C238.058 555.319 233.843 567.079 230.891 579.395C229.801 583.932 228.211 588.438 228.508 593.161C229.232 604.66 229.894 616.111 232.543 627.475C236.195 643.109 240.806 658.124 250.579 671.165C255.172 677.293 260.358 682.795 266.256 688.019C266.987 681.817 266.814 675.993 267.81 670.224C268.844 664.215 271.61 658.879 273.443 653.204C280.839 630.272 292.877 609.829 306.568 590.289C320.463 570.458 336.395 552.255 352.524 534.225C362.229 523.382 371.884 512.495 381.236 501.341C386.677 494.849 392.235 488.418 396.704 481.257C402.243 472.381 407.17 463.116 412.289 453.974C418.998 441.991 424.562 429.538 428.003 416.182C430.578 406.167 432.231 395.961 434.583 385.91C436.439 377.993 438.47 370.083 439.379 362.019C440.456 352.456 442.084 342.962 442.685 333.331C443.223 324.66 444.349 316.031 445.024 307.366C445.674 299.017 446.887 290.76 448.515 282.553C450.669 271.685 453.59 261.008 456.908 250.455C459.897 240.936 463.023 231.423 468.934 223.111C468.482 222.851 468.036 222.591 467.591 222.337C464.323 220.461 460.386 219.31 458.362 215.949C456.945 213.597 455.101 211.784 453.281 209.871C451.666 208.163 450.075 206.449 448.565 204.635C446.763 202.475 446.237 198.025 441.577 200.012C441.292 200.129 440.747 199.51 440.283 199.356C438.396 198.724 436.118 198.768 434.787 199.746C431.395 202.228 429.371 202.661 425.392 200.464C425.812 206.777 425.23 207.563 428.56 210.453C427.805 208.962 427.18 207.823 426.667 206.647C426.438 206.133 426.146 205.291 427.001 205.143C428.851 204.815 430.659 204.988 432.268 206.176C434.106 207.532 434.991 209.333 434.459 211.536C434.057 213.195 433.314 214.402 431.222 215.071C427.614 216.222 425.881 214.291 424.092 211.957C423.615 211.338 423.442 210.045 422.68 210.175C421.003 210.466 419.778 211.604 419.289 213.325C418.917 214.637 418.552 216.067 420.341 216.643C422.037 217.187 423.058 218.518 424.073 219.762C426.06 222.201 425.466 226.372 423.089 227.709C419.963 229.467 416.504 228.57 415.043 225.425C414.22 223.649 413.768 221.706 413.149 219.849C405.895 222.225 404.738 227.654 409.763 232.884C409.324 230.767 409.169 228.897 408.179 227.189C407.628 226.23 407.634 224.986 408.724 224.509C409.627 224.113 410.092 225.246 410.395 225.939C411.02 227.338 411.744 228.768 411.955 230.253C412.295 232.636 411.688 234.889 409.076 235.687C406.656 236.424 405.356 234.586 404.211 232.914C402.491 230.408 401.989 227.536 402.379 224.423C398.486 226.026 398.406 226.279 399.588 229.857C400.034 231.212 400.386 232.642 400.498 234.059C400.708 236.746 398.393 239.221 395.819 239.054C393.083 238.881 392.402 237.068 392.402 234.586C392.402 232.067 392.817 229.745 394.278 227.666C394.556 227.264 395.113 226.898 394.729 226.341C393.832 225.054 392.65 224.088 391.121 223.643C389.537 223.179 387.593 223.977 387.364 224.98C386.956 226.781 385.408 227.833 385.117 229.448C384.932 230.47 383.527 231.782 384.325 232.203C385.928 233.051 385.619 230.624 386.665 230.129C387.017 229.962 387.018 229.127 387.779 229.535C388.361 231.064 387.903 232.568 387.395 233.991C386.609 236.189 384.635 237.092 382.58 237.129C380.636 237.16 379.776 235.576 379.244 233.719C378.29 230.402 379.695 227.827 381.887 225.815C383.459 224.367 382.988 223.352 381.985 222.287C380.648 220.87 378.755 219.279 376.978 220.065C374.651 221.105 371.451 221.105 370.281 224.039C369.811 225.215 370.003 226.781 371.327 227.22C373.091 227.802 372.559 225.778 373.159 225.005C373.413 224.67 373.265 224.008 373.252 223.494C373.221 221.904 374.855 222.102 375.474 221.996C376.724 221.78 376.31 223.117 376.174 223.797C375.759 225.815 375.289 227.839 373.556 229.238C371.389 230.983 369.037 230.866 367.007 228.811C365.089 226.867 365.355 224.912 366.902 222.795C368.097 221.161 369.848 220.319 371.327 219.094C371.823 218.685 372.602 218.741 372.745 217.713C373.116 215.102 370.913 209.525 368.542 208.293C365.447 206.684 362.303 206.857 359.382 208.844C358.466 209.469 357.488 210.206 357.915 211.611C358.2 212.545 358.701 213.356 359.691 213.567C361.096 213.87 362.025 213.047 362.675 211.926C363.182 211.047 363.547 210.088 364.042 209.203C364.34 208.665 364.94 208.739 365.416 208.863C365.936 208.993 365.775 209.407 365.707 209.834C365.045 214.043 359.716 217.361 355.631 216.079C352.889 215.219 351.967 212.359 353.743 210.014C355.662 207.476 358.367 206.232 361.375 205.434C364.934 204.493 365.113 204.004 364.185 200.315C363.789 198.749 363.523 197.158 362.285 195.685C361.115 198.712 359.215 200.946 356.083 201.64C353.484 202.215 350.729 202.692 348.587 200.464C346.755 198.557 346.725 196.113 347.671 193.891C349.027 190.715 351.992 189.267 355.031 188.054C352.957 184.408 349.615 183.802 345.796 183.963C344.069 184.037 343.376 184.52 343.494 186.29C343.574 187.454 343.909 188.803 342.442 189.546C339.025 191.266 336.203 194.188 332.142 194.584C331.338 194.664 330.967 195.029 331.338 195.766C333.907 200.922 329.295 203.793 327.228 207.099C325.309 210.168 321.775 212.26 318.216 213.746C317.511 214.043 316.743 214.167 316.285 215.002C314.274 218.679 315.512 225.71 318.681 228.161C321.862 230.624 322.939 233.899 321.955 237.779C320.383 243.969 316.849 249.273 314.243 254.998C312.943 257.858 310.981 260.668 310.832 263.707C310.473 270.985 310.87 278.301 310.127 285.586C310.053 286.298 309.78 287.208 311.204 287.202C315.276 287.189 316.26 290.469 317.535 293.397C320.389 299.958 321.59 306.964 323.013 313.909C323.211 314.874 323.428 316.112 321.955 316.378C320.63 316.62 320.271 315.648 319.9 314.589C317.548 307.948 314.596 301.536 312.77 294.362C306.135 302.372 297.872 307.298 288.489 310.566C281.99 312.832 275.491 312.405 269.054 310.597C268.256 310.374 267.364 309.186 266.541 309.879C265.514 310.752 266.455 311.953 266.752 312.999C268.095 317.69 269.345 322.4 269.884 327.265C270.063 328.875 273.715 333.108 275.07 333.151C282.547 333.393 289.993 332.984 297.34 331.579C301.022 330.88 304.612 329.685 308.239 328.689C309.638 328.305 310.795 328.788 311.371 329.958C312.114 331.474 310.35 331.524 309.706 331.845C299.172 337.051 288.161 339.817 276.302 338.22C275.33 338.09 273.764 337.292 273.572 339.489C272.675 349.553 270.094 359.246 266.721 368.722C266.052 370.603 266.294 371.983 267.321 373.568C273.907 383.675 281.204 393.163 290.079 401.42C296.349 407.257 303.096 412.258 311.024 415.594C316.644 417.964 322.258 420.737 328.491 420.347C334.977 419.939 341.414 418.781 348.018 417.933C345.221 416.021 345.251 415.284 348.922 413.087C357.302 408.068 365.8 403.252 374.212 398.295C380.513 394.581 387.16 391.368 392.433 386.101C393.943 384.591 394.408 383.18 393.751 380.933C390.44 369.594 388.119 358.039 388.082 346.174C388.076 342.993 386.819 342.262 384.059 342.417C381.93 342.541 379.782 342.621 377.696 341.835C376.786 341.488 376.279 340.981 376.366 340.052C376.471 338.938 377.511 339.316 378.074 339.279C380.636 339.124 383.18 339.477 385.575 340.381C387.723 341.191 388.144 340.368 388.101 338.375C388.014 334.173 387.921 329.92 389.673 325.965C390.18 324.82 390.347 322.704 391.709 322.933C392.873 323.125 392.835 325.266 392.978 326.553C393.888 334.773 394.816 342.999 395.447 351.249C396.159 360.508 397.496 369.662 399.235 378.773C400.096 383.285 400.894 387.828 402.899 392.34C404.923 390.001 405.313 387.29 406.266 384.876C408.488 379.268 410.401 373.246 409.893 367.409C409.244 359.914 408.946 352.369 408.043 344.874C406.898 335.367 405.282 325.959 403.673 316.533C402.782 311.309 404.051 306.345 407.486 302.149C414.201 293.935 423.33 288.99 432.336 283.76C428.994 280.059 425.305 276.506 421.127 273.517C416.912 270.49 412.573 267.643 408.266 264.74C404.224 262.023 403.958 259.727 407.275 256.094C407.789 255.537 408.637 255.178 408.637 253.853L408.656 253.835ZM423.436 445.018C429.947 446.893 436.39 448.682 442.796 450.613C459.464 455.633 476.361 459.043 493.895 458.183C494.551 458.152 495.072 457.991 495.536 457.514C499.608 453.33 504.51 450.923 510.372 450.347C519.705 449.425 528.674 450.019 536.534 455.924C537.066 456.326 537.376 457.044 538.341 456.741C546.839 454.011 555.789 453.145 564.318 450.539C571.486 448.348 578.312 445.142 585.597 443.273C586.903 442.938 587.627 442.14 587.429 440.617C587.138 438.395 586.891 436.155 586.804 433.92C586.396 422.94 587.275 412.054 589.28 401.253C589.552 399.78 589.8 398.251 591.378 397.434C592.164 397.026 592.752 396.295 592.102 395.429C591.446 394.562 590.747 395.546 590.239 395.775C584.316 398.474 578.083 400.108 571.702 401.16C570.928 401.29 569.455 402.41 569.084 400.913C568.737 399.532 570.248 398.932 571.3 398.332C571.64 398.14 572.111 398.195 572.494 398.059C577.867 396.147 583.177 394.092 588.401 391.783C590.437 390.88 590.902 389.71 590.493 387.717C588.605 378.495 586.823 369.254 584.91 360.038C582.175 346.848 578.523 333.913 574.054 321.2C571.275 313.29 568.713 305.305 566.008 297.216C549.012 309.205 529.689 313.092 509.542 313.927C489.297 314.769 469.652 312.522 451.393 300.911C449.468 334.693 446.25 367.967 436.693 400.442C438.117 400.56 439.045 400.535 439.937 400.727C447.915 402.435 455.93 403.84 464.088 404.342C464.824 404.385 465.567 404.379 465.814 405.276C466.012 405.988 465.462 406.372 465.109 406.867C464.36 407.931 463.345 408.074 462.144 408.068C454.457 408.043 446.701 408.525 439.169 406.718C436.006 405.957 435.622 407.263 435.096 409.739C432.553 421.783 428.969 433.5 423.442 445.03L423.436 445.018ZM470.797 223.575C471.02 225.277 471.23 226.651 470.754 228.037C465.666 242.978 462.026 258.347 457.508 273.455C455.391 280.523 455.453 280.771 462.169 284.212C475.457 291.014 489.854 292.859 504.473 293.49C511.523 293.793 518.535 292.933 525.492 291.707C535.804 289.888 545.645 286.694 554.384 280.882C559.682 277.354 559.008 278.772 556.334 273.084C550.219 260.067 542.086 248.245 533.439 236.795C530.66 233.119 528.259 229.065 527.522 224.676C526.526 218.716 527.782 212.65 528.946 206.696C529.887 201.875 530.766 197.041 531.706 192.028C527.968 193.408 527.021 197.79 522.707 199.071C525.338 194.763 527.399 190.988 529.85 187.491C532.585 183.579 535.247 179.104 541.374 181.481C541.708 181.611 542.197 181.468 542.569 181.332C553.555 177.229 558.277 166.657 549.513 156.383C546.728 153.115 541.634 152.248 539.127 154.668C535.606 158.073 532.449 161.867 529.194 165.543C528.438 166.397 527.888 167.456 526.526 167.239C525.269 167.035 525.177 165.939 524.873 164.986C523.468 160.585 524.811 156.507 526.235 152.416C526.73 150.986 528.172 149.698 527.789 148.207C527.095 145.502 528.054 143.23 528.971 140.878C524.669 140.074 524.391 139.585 524.162 135.358C524.019 132.746 525.418 130.92 526.6 128.921C526.99 128.265 528.086 127.813 527.646 126.928C527.213 126.061 526.161 126.525 525.381 126.433C517.57 125.492 509.561 124.173 503.848 118.584C500.196 115.013 497.788 116.461 494.632 118.021C494.446 118.114 494.292 118.263 494.106 118.343C486.97 121.233 479.747 123.666 471.849 122.744C469.051 122.416 466.489 122.583 464.459 125.158C463.518 126.352 461.748 126.89 460.349 127.714C456.035 130.239 451.17 131.025 446.38 131.929C444.659 132.251 444.807 134.083 444.95 134.132C446.838 134.825 447.611 137.691 450.706 136.28C454.277 134.652 457.929 135.995 460.151 138.613C459.198 139.418 458.362 137.858 457.279 138.564C454.816 140.16 452.26 141.627 449.703 143.088C448.534 143.757 448.168 144.611 448.069 145.991C447.803 149.859 447.475 153.746 446.776 157.547C444.962 167.363 443.898 177 447.395 186.816C450.087 194.379 452.322 201.974 459.111 207.092C459.99 207.755 460.492 208.912 461.34 209.624C465.01 212.712 467.708 217.373 473.334 217.379C479.511 217.379 485.651 218.444 491.841 218.035C492.843 217.967 493.809 217.936 494.836 217.627C501.688 215.566 508.595 213.672 515.54 211.71C514.766 216.284 510.588 217.874 507.37 219.787C503.099 222.324 497.844 222.436 492.986 223.395C485.726 224.825 478.397 225.747 470.797 223.587V223.575ZM634.982 408.068C634.568 406.947 634.382 406.037 633.924 405.307C632.278 402.677 633.973 400.851 635.774 399.774C637.972 398.462 638.584 400.987 639.513 402.293C640.398 403.531 641.147 404.874 641.859 406.223C644.935 412.047 647.98 417.785 653.16 422.247C658.824 427.125 664.493 431.63 671.722 434.181C683.03 438.166 693.268 444.189 702.384 452.055C707.076 456.103 711.99 459.904 716.602 464.038C719.096 466.279 721.002 465.591 723.218 463.815C726.325 461.327 729.643 459.179 733.455 457.836C734.743 457.384 736.129 457.582 736.364 458.598C736.834 460.646 738.524 460.702 739.799 461.092C743.123 462.101 746.391 463.252 749.374 464.991C751.893 466.464 752.648 465.864 753.348 463.11C755.99 452.693 760.893 443.403 768.239 435.493C771.037 432.485 771.099 432.54 767.924 429.798C767.076 429.068 766.203 428.35 765.374 427.626C760.88 423.671 755.842 420.143 753.199 414.504C750.655 409.076 748.18 403.605 745.958 398.041C745.221 396.202 744.113 395.262 742.479 394.525C736.519 391.827 730.459 389.314 724.654 386.318C715.314 381.497 706.172 376.304 697.321 370.597C695.099 369.167 692.711 368.004 689.901 366.444C691.374 369.941 692.692 372.788 693.757 375.722C694.388 377.455 695.892 379.832 693.843 380.977C692.68 381.627 691.083 379.262 690.235 377.857C686.602 371.854 682.981 365.831 679.639 359.667C675.665 352.345 671.939 344.886 668.188 337.447C667.458 335.998 667.105 335.59 665.496 336.71C663.336 338.208 660.705 339.328 657.994 338.487C652.814 336.877 648.289 334.47 645.888 329.017C644.724 326.38 643.691 323.725 643.301 320.971C642.304 313.927 644.019 307.317 649.119 302.378C651.248 300.317 650.753 299.265 649.744 297.494C649.236 296.609 648.617 295.786 648.085 294.907C642.775 286.168 636.016 278.815 626.862 272.638C627.852 277.8 627.598 282.361 627.611 286.917C627.629 294.059 626.831 298.429 625.234 300.168C624.207 299.407 624.398 298.268 624.59 297.315C625.766 291.429 624.46 285.673 623.538 279.948C622.832 275.572 620.672 271.078 620.877 266.956C621.143 261.546 618.605 259.479 614.792 257.418C605.465 252.38 595.649 248.406 585.999 244.068C585.411 243.802 584.743 243.028 584.105 243.894C583.412 244.835 584.52 245.145 584.923 245.516C588.717 248.939 592.443 252.417 594.813 257.047C595.129 257.66 595.599 257.561 596.076 257.653C598.416 258.118 598.991 259.17 597.264 261.082C596.379 262.06 595.618 263.143 594.782 264.171C590.542 269.376 585.238 273.653 581.147 279.298C589.596 283.216 597.116 288.117 604.883 292.586C608.151 294.468 610.806 297.835 615.195 297.569C615.937 297.525 616.241 298.392 616.575 299.234C617.59 301.79 616.08 304.16 616.445 306.661C617.664 315.047 617.689 323.539 618.859 331.957C620.289 342.237 621.161 352.598 622.009 362.953C623.031 375.437 624.491 387.847 626.961 400.139C628.236 406.477 628.081 406.502 634.982 408.049V408.068ZM595.581 408.736C593.792 415.798 593.483 422.903 593.613 430.052C593.619 430.411 593.885 430.795 594.108 431.117C603.515 444.548 609.779 459.569 615.981 474.609C621.619 488.282 626.02 502.369 629.461 516.747C630.13 519.526 631.015 521.271 634.122 522.763C642.929 526.996 648.066 537.976 644.477 548.176C642.725 553.153 638.82 556.278 635.366 559.825C634.58 560.629 633.757 561.224 633.775 562.591C633.843 567.524 633.633 572.445 633.293 577.384C632.81 584.415 632.315 591.471 631.157 598.391C629.047 610.98 626.472 623.495 623.711 635.96C621.502 645.925 619.391 655.933 616.105 665.626C615.393 667.736 616.334 668.56 618.221 668.591C625.983 668.702 633.714 668.906 641.401 667.043C657.592 663.119 673.059 657.19 688.223 650.449C698.888 645.708 709.669 641.165 719.542 634.784C721.411 633.577 721.677 632.544 721.07 630.674C711.019 599.69 698.974 569.622 680.876 542.284C674.26 532.288 667.489 522.391 659.901 513.138C648.196 498.866 636.14 484.878 625.308 469.918C618.772 460.888 613.425 451.108 608.424 441.168C605.242 434.849 602.21 428.381 600.309 421.554C599.084 417.147 597.518 412.926 595.575 408.73L595.581 408.736ZM727.748 648.296C733.969 636.61 740.827 626.125 745.58 614.551C747.672 609.463 749.164 603.998 746.645 598.57C742.727 590.109 738.636 581.735 734.204 573.522C726.158 558.624 716.119 545.218 704.916 532.604C699.475 526.476 694.091 520.287 688.811 514.017C681.966 505.878 675.529 497.38 668.411 489.495C658.081 478.044 647.961 466.477 639.797 453.33C634.06 444.09 627.97 435.028 623.934 424.859C617.417 408.457 615.498 391.065 613.431 373.741C612.404 365.126 611.945 356.442 610.85 347.833C609.321 335.844 608.04 323.867 608.436 311.761C608.547 308.369 609.03 304.971 610.516 301.982C611.58 299.834 610.881 299.246 609.16 298.485C599.09 294.053 589.967 287.932 580.497 282.417C577.836 280.87 577.718 279.211 579.036 276.723C581.364 272.341 584.582 268.664 587.813 264.988C589.032 263.601 591.322 262.376 591.415 260.965C591.533 259.213 588.809 258.582 587.404 257.362C579.606 250.585 571.343 244.414 562.542 239.017C554.756 234.239 546.802 229.733 538.979 225.011C536.485 223.507 533.86 221.984 533.477 218.567C533.408 217.961 532.307 217.33 532.232 217.565C531.521 219.731 530.927 221.953 530.512 224.2C530.413 224.72 529.546 225.45 530.512 226.026C530.592 226.075 530.716 226.051 530.815 226.088C534.721 227.66 537.444 230.68 540.235 233.657C550.646 244.786 558.717 257.468 564.683 271.419C573.268 291.491 579.266 312.473 585.517 333.343C591.452 353.162 594.126 373.735 599.214 393.745C601.256 401.785 601.857 410.079 605.403 417.89C610.262 428.598 614.997 439.386 619.645 450.199C621.006 453.367 621.892 457.248 624.281 459.328C627.004 461.705 629.139 464.366 631.337 467.108C642.248 480.725 653.228 494.285 664.091 507.939C680.041 527.999 693.546 549.544 703.765 573.113C709.267 585.808 721.992 624.2 725.031 637.866C725.755 641.116 726.715 644.31 727.767 648.289L727.748 648.296ZM367.434 532.734C360.453 540.211 353.929 547.31 347.282 554.292C335.522 566.627 324.239 579.371 313.791 592.845C300.806 609.6 289.163 627.196 280.579 646.649C278.307 651.793 276.197 657.035 275.021 662.618C279.465 655.11 285.369 648.871 291.695 643.028C299.617 635.7 307.732 628.409 318.024 624.677C326.541 621.589 331.808 620.778 335.355 630.415C336.091 632.426 337.657 633.206 339.898 633.416C345.27 633.93 350.234 632.469 355.216 630.91C364.872 627.883 374.459 624.621 384.208 621.935C387.154 621.124 386.541 620.183 385.625 618.438C379.702 607.173 374.862 595.55 372.875 582.843C371.358 573.163 370.399 563.433 369.52 553.685C368.907 546.889 368.957 540.025 367.44 532.734H367.434ZM318.291 207.786C320.463 206.313 322.388 205.304 323.923 203.88C325.149 202.741 327.377 201.974 327.247 200.074C326.919 195.345 326.12 190.561 324.201 186.253C320.655 178.318 315.809 171.101 310.604 164.132C309.669 162.876 309.198 162.77 307.738 163.383C297.024 167.883 287.319 174.14 277.614 180.398C267.278 187.064 257.257 194.2 247.298 201.417C242.749 204.709 238.318 208.163 233.911 211.648C232.067 213.108 231.188 214.507 232.71 217.286C238.132 227.14 244.916 236.052 251.124 245.367C253.581 249.056 256.558 249.292 260.241 246.556C267.278 241.326 273.3 234.833 281.482 230.971C286.582 228.57 290.915 224.528 295.625 221.272C296.424 220.721 297.352 220.226 297.067 219.18C296.628 217.571 297.822 217.002 298.658 216.178C299.809 215.052 300.985 214 302.056 212.756C305.194 209.116 307.824 205.13 310.678 201.312C313.884 197.016 313.71 197.028 318.606 198.743C320.011 199.232 320.055 199.634 319.733 200.872C319.182 202.995 318.006 205 318.284 207.792L318.291 207.786ZM274.222 307.057C284.893 305.151 294.276 300.855 303.294 295.669C304.371 295.05 305.918 294.691 305.825 292.939C305.547 287.721 305.429 282.491 304.915 277.299C304.532 273.412 304.198 269.593 305.175 265.761C308.066 254.404 309.786 242.681 315.703 232.283C316.397 231.064 315.586 230.699 314.868 230.154C313.488 229.096 311.786 228.124 311.612 226.249C311.278 222.696 310.356 219.211 310.981 215.547C311.575 212.056 311.612 208.473 311.897 204.926C311.024 205.749 310.56 206.628 310.09 207.507C306.03 215.102 304.018 223.63 299.469 230.99C296.584 235.656 293.415 240.162 292.561 245.776C292.382 246.977 292.308 248.252 291.812 249.322C291.435 250.146 291.225 251.569 289.937 251.458C288.928 251.371 288.749 250.232 288.371 249.391C285.611 243.139 287.647 237.891 291.701 233.038C293.867 230.451 296.04 227.864 298.206 225.283C295.798 226.31 293.812 227.715 291.881 229.201C283.11 235.96 273.529 241.499 264.381 247.695C263.521 248.276 262.073 249.335 262.605 249.78C264.387 251.266 262.865 252.776 263.143 254.194C263.465 255.846 263.075 258.062 264.356 259.04C269.302 262.84 273.065 267.748 277.267 272.229C279.916 275.052 282.293 278.128 284.664 281.198C285.388 282.132 286.032 283.531 284.695 284.478C283.494 285.326 282.924 283.909 282.256 283.296C280.319 281.52 278.468 279.657 276.147 277.397C276.11 287.684 274.903 297.21 274.21 307.063L274.222 307.057ZM455.131 282.423C454.475 286.285 453.343 289.652 452.817 293.174C452.582 294.74 453.101 295.05 454.185 295.638C468.674 303.529 484.395 306.902 500.654 307.67C511.702 308.19 522.794 308.072 533.767 305.955C543.113 304.148 552.045 301.288 560.233 296.411C564.603 293.805 564.529 293.688 562.697 288.749C562.313 287.709 561.873 286.669 561.619 285.598C561.137 283.556 560.357 283.581 558.68 284.658C545.867 292.889 531.285 295.439 516.561 297.16C508.936 298.051 501.255 298.07 493.53 297.358C479.35 296.046 466.297 292.227 455.131 282.423ZM496.316 933.954C490.968 936.374 485.738 937.389 480.446 937.03C476.435 936.757 472.332 936.467 468.445 935.235C467.232 934.851 467.213 935.414 467.386 936.157C469.243 944.135 469.262 952.349 470.469 960.407C471.583 967.859 476.485 971.746 483.268 970.558C485.756 970.124 488.189 969.351 490.658 968.794C492.583 968.36 493.326 967.469 493.431 965.266C493.704 959.683 494.515 954.131 495.047 948.567C495.505 943.832 495.876 939.085 496.322 933.96L496.316 933.954ZM520.758 489.117C522.373 489.117 523.728 489.247 525.053 489.093C530.326 488.474 535.327 486.196 537.648 481.715C541.869 473.557 539.678 465.771 533.539 459.08C528.667 453.77 522.342 452.897 515.626 453.219C505.346 453.708 499.67 457.972 496.687 467.455C495.133 472.406 494.83 477.618 499.268 480.916C505.618 485.639 512.513 489.761 520.758 489.124V489.117ZM396.487 280.808C390.731 279.954 385.495 278.883 380.593 276.729C379.268 276.147 378.724 276.686 377.999 277.379C375.4 279.861 372.72 282.269 370.232 284.862C365.658 289.634 361.195 294.511 356.875 299.147C357.308 299.289 358.373 299.822 359.63 299.729C363.337 299.45 366.97 300.298 370.467 301.183C374.304 302.155 377.028 302.031 379.801 298.59C384.789 292.407 391.028 287.325 396.481 280.802L396.487 280.808ZM473.025 33.3629C474.975 35.2012 476.38 37.4541 477.71 39.7442C478.335 40.8149 478.818 41.1244 480.106 40.5117C487.459 36.9961 494.626 38.1721 501.366 42.1086C503.7 43.4702 503.644 41.7371 503.774 40.7468C505.228 29.7111 497.684 24.834 488.715 25.1002C482.643 25.2797 477.116 28.0153 473.031 33.3629H473.025ZM653.309 305.312C648.097 312.72 648.865 325.959 654.448 332.501C657.382 335.943 662.147 335.305 665.032 333.838C666.288 333.195 665.929 332.569 665.496 331.635C661.442 322.933 657.425 314.212 653.309 305.305V305.312ZM422.031 462.614C423.857 466.99 427.36 467.615 430.275 468.6C444.504 473.402 459.254 474.517 474.164 474.182C474.795 474.17 475.693 474.449 475.841 473.155C457.601 472.487 440.289 466.836 422.031 462.614ZM515.824 620.697C514.803 615.993 513.912 611.252 512.73 606.592C509.604 594.244 506.404 581.921 503.118 569.61C501.868 564.931 500.283 560.338 498.928 555.69C498.624 554.644 498.154 553.895 497.052 554.186C495.932 554.483 496.377 555.597 496.476 556.284C496.681 557.683 497.114 559.051 497.498 560.419C503.186 580.609 510.632 600.285 515.824 620.697ZM411.323 101.087C411.657 101.13 412.765 101.341 413.873 101.378C414.61 101.403 415.259 101.087 415.315 100.146C415.365 99.2365 414.758 99.2365 414.121 99.1807C410.234 98.8279 408.365 96.3707 407.999 92.7995C407.826 91.0974 407.003 90.8559 405.852 91.1964C403.735 91.8153 401.63 92.4776 399.817 93.895C398.542 94.8915 398.449 95.5104 399.539 96.7916C402.472 100.239 406.328 101.056 411.323 101.099V101.087ZM547.824 58.7393C549.755 57.4891 551.228 56.0717 552.979 55.5023C555.993 54.512 555.641 52.4386 554.978 50.3837C553.827 46.7877 549.885 44.6586 546.202 45.3332C545.113 45.5313 544.234 46.0078 545.02 47.1281C547.421 50.557 547.879 54.4253 547.824 58.7393ZM639.37 545.676C639.599 544.729 639.024 544.302 638.349 543.949C637 543.25 635.663 542.507 634.283 541.882C631.98 540.842 630.415 541.826 628.725 545.404C627.45 548.102 630.513 546.765 631.089 547.823C631.337 548.288 632.358 548.381 632.525 548.832C633.441 551.296 635.75 548.523 636.845 550.064C637.879 548.696 638.844 547.285 639.377 545.676H639.37ZM330.657 191.916C332.681 190.381 334.655 188.964 336.537 187.435C337.546 186.618 339 186.005 337.837 184.087C336.803 182.378 335.664 182.032 334.005 182.88C331.802 184.006 329.611 185.17 327.141 186.457C329.221 187.905 329.475 190.189 330.657 191.916ZM242.322 246.116C237.105 239.079 232.339 232.648 227.443 226.044C226.44 232.611 237.699 243.566 242.322 246.116ZM563.049 472.666C569.263 472.771 587.807 464.756 590.809 460.696C581.203 464.248 572.562 469.466 563.049 472.666ZM618.605 564.801C620.264 564.931 624.231 562.56 624.405 561.428C624.485 560.902 621.236 556.848 620.679 556.767C619.54 556.612 616.16 561.434 616.074 563.514C615.975 565.847 618.116 563.823 618.611 564.801H618.605ZM520.182 724.549C523.276 711.854 523.84 695.941 521.16 692.989C521.395 703.734 520.596 714.151 520.182 724.549ZM626.757 559.478C631.219 555.344 631.392 554.093 627.747 551.605C626.812 550.968 625.785 549.513 624.448 551.358C623.489 552.682 622.17 553.617 624.039 555.35C625.184 556.408 625.828 558.017 626.757 559.478ZM639.822 541.387C640.553 539.703 639.599 538.267 639.346 536.807C638.386 531.329 638.51 531.88 634.407 534.027C633.695 534.399 632.383 534.485 632.989 535.866C633.348 536.677 632.927 537.704 634.413 538.193C636.288 538.812 637.904 540.204 639.822 541.387ZM574.24 194.862C578.832 199.207 585.814 197.177 587.268 191.316C583.103 193.123 578.981 194.54 574.24 194.862ZM826.611 487.459C826.481 487.595 826.351 487.731 826.227 487.867C828.802 490.739 831.352 493.629 833.977 496.452C834.261 496.755 834.15 497.98 835.072 497.275C835.691 496.805 836.651 495.69 836.533 495.517C835.512 494.075 835.864 491.853 833.909 490.949C831.458 489.829 829.044 488.622 826.618 487.452L826.611 487.459ZM359.345 193.891C355.6 191.093 354.01 191.149 352.605 193.847C351.93 195.141 351.843 196.552 352.765 197.845C353.496 198.867 354.529 199.281 355.693 198.842C357.197 198.279 357.154 196.886 357.172 195.568C357.191 194.472 356.739 192.962 359.345 193.891ZM797.825 492.323C795.46 491.575 793.331 490.962 791.258 490.207C790.459 489.916 790.218 490.132 789.914 490.807C788.324 494.316 789.03 495.251 792.886 495.4C795.231 495.492 796.37 494.137 797.825 492.323ZM810.358 491.723C810.915 492.788 810.847 493.79 810.76 494.818C810.624 496.402 808.297 498.5 810.674 499.435C813.44 500.531 813.162 497.25 813.824 495.833C815.848 491.513 815.712 491.451 810.352 491.717L810.358 491.723ZM443.334 502.771C449.629 508.335 456.741 512.649 463.753 517.13C463.896 516.914 464.044 516.691 464.186 516.474C457.236 511.907 450.285 507.339 443.341 502.771H443.334ZM590.109 97.0331C590.023 100.611 589.67 103.631 588.178 106.676C589.589 106.354 590.802 107.202 591.675 106.057C593.068 104.219 592.387 99.2488 590.109 97.0331ZM571.844 87.1239C569.616 90.33 568.218 95.2814 568.416 98.8775C570.799 96.7112 572.036 92.62 571.844 87.1239ZM631.677 524.477C630.978 525.789 631.844 526.532 631.974 527.417C632.593 531.632 632.618 531.626 636.715 530.345C635.682 527.906 633.608 526.396 631.683 524.477H631.677ZM622.48 571.516H613.697C616.519 574.828 620.604 574.84 622.48 571.516ZM428.622 181.091C431.451 178.615 434.595 179.011 437.851 178.962C433.642 176.115 430.071 176.839 428.622 181.091ZM274.934 174.406C277.478 172.748 279.551 171.404 281.736 169.975C278.456 168.291 276.197 169.696 274.934 174.406ZM539.159 64.7802C535.94 67.423 535.29 70.4559 534.634 74.4295C536.776 71.1243 538.769 68.7104 539.159 64.7802ZM411.831 91.2088C411.373 93.0841 411.664 94.5387 412.462 95.8941C413.025 96.8597 414.096 97.0082 414.863 96.6121C415.786 96.1355 415.167 95.3124 414.845 94.5387C414.269 93.1399 413.13 92.3662 411.831 91.2026V91.2088ZM441.119 170.804C439.986 169.096 438.284 168.242 436.619 167.412C435.969 167.091 434.886 166.855 434.521 167.895C434.119 169.015 434.886 169.535 435.901 169.814C437.609 170.278 439.435 170.074 441.125 170.81L441.119 170.804ZM431.859 188.549C432.887 189.954 434.31 189.434 435.425 189.267C436.687 189.075 436.601 187.732 436.248 186.785C435.79 185.547 435.066 186.234 434.416 186.723C433.611 187.33 432.782 187.893 431.859 188.543V188.549ZM403.648 75.983C399.254 77.0599 395.565 80.6374 395.299 83.7321C397.267 80.4703 400.003 78.2483 403.648 75.983ZM607.433 554.031C607.514 554.298 607.601 554.558 607.681 554.824C610.021 554.075 612.36 553.326 615.201 552.416C612.007 552.008 609.544 552.317 607.44 554.031H607.433Z" fill="black"/>
<path d="M283.513 322.178C283.513 323.725 283.55 325.272 283.494 326.82C283.469 327.445 283.94 328.466 282.863 328.546C282.102 328.608 281.687 327.872 281.514 327.098C280.622 323.019 279.694 318.941 279.805 314.726C279.849 313.147 280.468 312.931 281.724 313.871C283.092 314.893 283.661 316.143 283.525 317.845C283.408 319.281 283.501 320.729 283.501 322.178H283.513Z" fill="black"/>
<path d="M503.031 381.855C499.936 382.734 497.133 381.014 494.224 382.06C493.116 382.462 492.546 381.992 492.986 380.562C494.651 375.146 496.922 369.997 499.435 364.94C500.116 363.572 500.425 362.786 498.309 362.805C495.858 362.829 493.388 363.133 490.937 362.569C489.309 362.198 488.963 361.647 489.594 359.945C492.887 351.045 496.043 342.101 499.156 333.139C500.06 330.539 500.809 327.866 501.347 325.173C501.75 323.174 502.647 322.481 504.671 322.598C511.665 322.995 518.665 322.543 525.616 321.905C529.218 321.577 532.913 321.54 536.46 320.302C538.397 319.628 540.613 319.423 542.823 320.506C538.273 329.759 532.121 338.183 527.844 348.061C532.938 348.061 537.741 348.043 542.544 348.074C543.621 348.08 545.014 347.443 545.663 348.65C546.258 349.757 545.249 350.735 544.599 351.596C542.612 354.232 540.285 356.522 537.735 358.652C534.43 361.418 531.354 364.451 528.729 367.923C527.745 369.223 528.049 369.514 529.416 369.898C532.263 370.696 535.142 370.09 538.001 370.275C539.029 370.343 540.254 370.096 540.786 371.148C541.294 372.151 540.18 372.838 539.629 373.469C537.196 376.26 533.681 377.684 531.013 380.209C523.871 386.974 515.688 392.439 507.995 398.511C503.05 402.417 497.615 405.703 492.404 409.281C492.082 409.503 491.816 409.875 491.395 409.466C490.646 408.736 491.506 408.451 491.804 408.018C497.232 400.151 499.503 390.935 503.044 381.855H503.031Z" fill="black"/>
<path d="M500.45 131.601C505.699 132.052 510.675 132.987 513.454 138.205C513.881 139.003 514.413 139.715 513.609 140.637C512.885 141.466 512.074 141.578 511.127 141.275C509.493 140.748 507.859 140.222 506.237 139.659C500.066 137.524 493.852 137.778 487.576 139.176C486.549 139.405 484.946 140.538 484.327 139.077C483.776 137.784 485.187 136.93 486.246 136.038C490.405 132.523 495.4 131.916 500.45 131.588V131.601Z" fill="black"/>
<path d="M468.216 172.129C471.249 172.475 474.146 171.794 476.943 172.822C477.896 173.175 479.084 173.973 478.886 174.474C478.385 175.749 479.047 177.402 477.754 178.349C473.316 181.605 463.871 178.281 462.546 172.958C462.033 170.891 462.404 168.916 463.921 167.245C464.731 166.354 465.61 165.63 466.836 166.038C468.16 166.484 468.655 167.592 468.556 168.947C468.482 169.962 468.346 170.971 468.222 172.116L468.216 172.129Z" fill="black"/>
<path d="M504.95 153.864C504.554 155.857 502.951 156.47 501.422 156.915C499.664 157.429 498.241 158.023 498.247 160.158C498.247 161.037 497.616 161.099 496.966 161.05C494.979 160.889 490.015 156.197 489.86 154.142C489.706 152.087 491.847 151.332 492.707 149.804C493.221 148.881 494.434 149.185 495.394 149.878C497.331 151.277 499.751 150.206 501.874 151.041C503.384 151.636 504.195 152.706 504.95 153.858V153.864Z" fill="black"/>
<path d="M484.574 190.753C482.098 194.596 478.372 194.355 475.166 195.06C473.415 195.444 471.502 195.296 469.683 195.147C468.352 195.036 466.025 195.865 466.229 193.457C466.377 191.699 468.042 190.22 469.967 190.251C473.724 190.319 477.518 189.614 481.251 190.722C482.092 190.969 483.076 190.759 484.574 190.759V190.753Z" fill="black"/>
<path d="M447.37 156.327C450.471 153.882 453.665 152.805 457.254 153.096C458.963 153.232 459.612 154.774 459.798 156.111C460.052 157.998 460.157 160.282 458.368 161.415C457.106 162.213 454.822 162.566 453.943 160.876C452.557 158.215 449.932 157.782 447.37 156.327Z" fill="black"/>
<path d="M537.846 164.671C538.249 161.495 540.062 159.36 542.736 158.116C545.385 156.884 547.83 158.159 550.083 159.533C550.572 159.83 551.203 160.647 550.658 161.372C550.145 162.059 549.532 161.477 549.086 161.118C548.034 160.282 547.1 160.295 546.085 161.217C544.946 162.257 546.208 162.968 546.32 163.835C546.412 164.553 547.718 165.19 546.679 165.908C546.047 166.348 545.311 165.803 544.828 165.215C543.404 163.494 542.847 165.029 542.247 165.958C541.628 166.911 541.096 168.118 539.778 167.765C538.305 167.369 538.137 165.89 537.846 164.671Z" fill="black"/>
<path d="M721.565 417.407C722.147 420.161 724.01 422.068 725.304 424.308C725.644 424.896 726.907 425.274 725.854 426.202C725.105 426.858 724.406 426.524 723.663 425.955C720.773 423.745 718.607 420.892 716.49 417.995C714.577 415.377 712.324 413.013 710.895 410.042C709.638 407.424 710.895 406.031 713.606 405.425C717.981 404.441 720.303 407.337 722.803 409.59C727.39 413.725 731.574 418.298 735.993 422.625C737.732 424.327 737.385 425.187 735.163 425.806C733.529 426.264 732.186 425.806 730.862 424.921C727.532 422.712 724.678 419.926 721.571 417.413L721.565 417.407Z" fill="black"/>
<path d="M730.119 445.16C729.537 444.071 729.123 443.44 729.655 442.202C733.468 433.339 738.605 425.367 745.178 418.311C745.456 418.008 745.722 417.642 746.075 417.469C747.177 416.937 748.241 415.272 749.529 416.671C750.544 417.779 749.164 418.948 748.582 419.728C744.379 425.373 739.644 430.615 735.696 436.458C733.826 439.225 732.081 442.084 730.119 445.148V445.16Z" fill="black"/>
<path d="M742.077 451.201C743.055 450.978 744.157 452.408 745.537 453.169C746.67 453.794 748.601 454.661 748.056 455.695C747.375 456.988 745.419 456.437 744.002 455.849C742.795 455.348 741.563 454.896 740.4 454.302C739.552 453.869 738.209 453.609 738.58 452.247C738.951 450.892 740.27 451.511 742.077 451.195V451.201Z" fill="black"/>
<path d="M271.121 222.3C271.121 227.214 265.501 233.886 261.187 233.403C254.967 232.704 249.384 229.052 249.477 220.697C249.551 214.062 254.082 209.964 260.531 209.661C265.718 209.42 271.121 216.079 271.128 222.3H271.121ZM262.073 214.786C258.235 214.73 253.865 220.437 254.831 224.243C255.92 228.539 257.109 229.609 260.395 229.127C263.694 228.638 265.848 226.589 267.408 223.779C269.704 219.663 266.851 214.854 262.066 214.786H262.073Z" fill="black"/>
<path d="M316.681 183.455C316.174 183.059 315.623 182.743 315.227 182.298C313.531 180.404 312.176 178.287 311.055 175.997C310.096 174.041 311.594 173.385 312.696 172.63C314.113 171.664 314.757 172.902 315.196 173.917C316.224 176.313 317.183 178.751 318.056 181.208C318.47 182.378 317.814 183.127 316.681 183.455Z" fill="black"/>
<path d="M320.791 185.176C322.407 185.906 322.308 187.701 322.989 188.933C323.632 190.09 322.772 191.613 321.503 191.656C319.776 191.718 319.721 189.96 319.492 188.642C319.263 187.293 319.337 186.03 320.785 185.176H320.791Z" fill="black"/>
<path d="M498.698 472.548C505.798 474.461 512.451 473.235 519.099 472.802C512.538 471.676 505.971 470.685 499.311 471.304C498.426 471.385 498.333 471.261 498.271 470.537C498.092 468.482 498.599 466.736 500.147 465.263C506.924 458.802 515.026 457.273 523.92 458.932C527.708 459.637 530.877 461.773 533.706 464.273C536.225 466.501 536.639 469.528 535.42 472.641C532.907 479.059 526.588 483.85 517.155 482.519C512.445 481.857 507.92 481.251 503.903 478.595C501.756 477.178 499.961 475.433 498.698 472.548Z" fill="black"/>
</svg>
