<svg width="1080" height="1080" viewBox="0 0 1080 1080" fill="none" xmlns="http://www.w3.org/2000/svg">
<path d="M816.449 496.552C819.379 500.473 822.275 504.26 825.06 508.129C826.202 509.713 827.938 511.403 826.4 513.535C824.489 516.186 823.627 520.457 818.855 519.292C817.754 519.024 817.911 519.676 817.532 520.183C814.916 523.667 811.572 525.497 807.837 520.177C805.594 525.87 803.555 531.51 800.863 536.899C795.608 547.415 790.178 557.85 785.61 568.699C780.011 581.989 775.536 595.651 772.192 609.675C771.505 612.554 770.864 615.443 770.1 618.304C769.897 619.073 769.838 619.726 770.566 620.023C771.26 620.302 771.435 619.499 771.767 619.079C772.827 617.739 773.608 616.078 775.758 616.119C776.818 616.143 776.719 615.175 776.859 614.406C777.82 609.11 778.811 603.826 779.819 598.541C779.924 597.988 780.122 597.411 780.43 596.951C780.792 596.415 781.246 595.715 782.062 596.135C782.714 596.473 782.435 597.079 782.342 597.661C781.45 603.354 780.623 609.052 779.725 614.744C779.37 616.999 780.25 619.12 780.308 621.322C780.448 626.455 779.813 631.617 778.257 636.383C775.531 644.732 774.517 653 775.56 661.751C776.399 668.812 775.082 675.874 774.121 682.924C772.833 692.432 771.237 701.871 769.308 711.263C769.081 712.37 769.168 713.611 769.395 714.729C770.217 718.843 767.234 721.96 766.64 725.683C765.334 733.811 763.907 741.892 763.307 750.153C762.188 765.564 761.332 780.969 760.842 796.409C760.569 805.02 760.51 813.631 760.504 822.242C760.487 845.076 760.697 867.915 760.411 890.742C760.318 898.264 760.557 905.908 758.722 913.308C757.888 916.669 756.141 919.705 752.989 921.493C751.678 922.233 749.842 921.68 748.625 921.872C745.222 922.42 746.347 919.658 746.213 918.86C744.371 908.046 744.144 897.221 745.117 886.233C745.77 878.868 746.492 871.469 746.784 864.069C747.098 856.181 747.331 848.263 747.04 840.374C746.778 833.167 745.805 825.989 745.21 818.787C743.905 803.027 745.898 787.622 748.735 772.2C750.437 762.954 751.159 753.568 751.916 744.176C752.511 736.753 754.107 729.394 755.447 722.041C756.251 717.602 755.756 713.168 755.791 708.74C755.849 699.767 755.325 690.795 755.68 681.817C755.698 681.304 756.059 680.378 755.267 680.378C752.604 680.378 753.163 678.129 753.041 676.876C751.864 665.043 752.021 653.25 754.037 641.475C756.63 626.385 760.295 611.557 764.635 596.892C768.836 582.705 774.33 569.043 781.001 555.794C785.319 547.211 790.114 538.874 794.163 530.175C795.719 526.837 797.88 523.609 798.003 519.542C790.312 521.29 782.691 520.48 775.07 519.001C773.853 518.762 772.507 518.732 771.306 518.995C769.926 519.292 768.865 520.073 769.85 521.832C770.724 523.405 770.945 525.031 769.017 526.01C767.77 526.645 769.104 527.839 768.073 528.684C765.853 530.496 763.686 531.743 760.924 530.111C759.45 529.243 758.378 529.505 757.067 530.525C753.915 532.989 750.361 534.941 747.25 538.006C749.172 538.087 749.825 538.198 748.561 540.185C747.127 542.446 744.989 543.646 743.154 545.277C737.322 550.474 731.379 555.561 725.471 560.676C724.62 561.41 723.636 562.634 722.517 561.568C721.387 560.49 722.226 559.173 723.07 558.235C725.885 555.112 728.774 552.059 731.554 548.872C727.883 551.063 724.766 553.999 721.392 556.586C719.819 557.792 718.508 559.447 715.957 558.532C714.593 558.042 713.375 559.563 712.129 560.251C710.958 560.897 709.792 561.567 708.703 562.331C706.978 563.542 705.248 563.321 703.669 562.249C702.882 561.719 703.482 556.761 704.316 556.021C705.539 554.931 706.902 553.982 708.085 552.846C709.449 551.535 711.901 551.133 711.709 548.435C711.663 547.812 712.705 547.648 713.271 547.299C722.913 541.315 732.55 535.314 742.227 529.29C739.687 527.181 738.434 523.149 739.844 520.038C740.695 518.15 740.118 517.323 738.86 516.186C737.677 515.12 736.413 514.1 736.564 512.079C736.681 510.523 735.212 510.546 734.205 510.902C725.64 513.914 716.749 513.541 707.963 513.005C696.211 512.289 684.448 511.992 672.696 511.316C664.819 510.861 657.367 508.496 650.387 505.035C640.471 500.112 629.937 496.924 619.549 493.324C610.372 490.143 601.767 485.954 594.385 479.568C589.823 475.618 584.637 472.559 579.784 469.04C574.255 465.031 573.16 459.951 577.238 454.463C581.829 448.275 586.56 442.227 593.115 437.916C594.705 436.867 595.078 434.898 596.232 433.482C597.747 431.629 598.9 429.485 600.98 428.128C602.728 426.98 602.489 425.878 600.823 424.83C598.411 423.309 596.954 421.241 596.843 418.258C596.768 416.271 598.725 415.776 599.378 416.05C601.563 416.976 601.161 415.286 600.852 414.616C599.832 412.414 601.679 408.831 597.7 407.957C597.397 407.893 597.467 406.355 597.275 405.516C594.932 395.057 593.458 384.471 592.13 373.844C591.285 367.045 589.764 360.327 588.494 353.58C588.127 351.622 587.568 349.7 587.137 347.748C587.038 347.299 586.927 346.664 587.154 346.373C587.743 345.627 589.17 345.464 588.459 343.943C587.294 341.45 586.869 338.601 584.859 336.515C584.305 335.944 583.431 335.827 582.977 336.136C579.073 338.793 575.199 336.573 571.744 335.53C561.763 332.512 551.538 331.422 541.278 330.176C531.152 328.94 521.061 327.635 510.835 327.909C509.95 327.933 509.449 327.542 508.895 326.924C499.69 316.688 488.958 308.373 476.833 301.883C471.304 298.923 466.503 294.95 461.621 291.134C455.235 286.146 447.871 282.709 441.444 277.803C438.007 275.175 434.249 272.961 430.829 270.305C425.34 266.034 419.444 263.033 412.324 262.724C407.995 262.532 406.044 259.66 404.523 255.814C401.895 249.167 402.484 242.321 402.367 235.486C402.332 233.436 402.612 231.892 399.856 230.488C397.525 229.299 395.224 227.738 392.299 226.316C393.196 230.406 394.554 233.919 396.296 237.083C398.026 240.212 397.03 243.34 397.432 246.434C397.543 247.267 397.094 248.194 397.525 249.173C397.992 250.233 397.782 251.375 396.686 251.963C395.428 252.639 394.012 252.266 393.307 251.217C392.579 250.14 392.387 249.056 390.61 249.755C389.736 250.099 388.605 248.811 388.425 248.153C387.516 244.826 384.311 244.488 382.039 243.113C377.215 240.194 373.084 236.617 369.215 232.521C366.914 230.085 363.698 228.507 360.849 226.607C357.371 224.294 355.698 219.581 357.126 216.219C357.842 214.529 358.85 214.069 360.458 214.955C364.706 217.303 368.796 219.971 371.738 223.845C373.847 226.625 376.609 228.413 379.446 230.79C379.05 224.16 378.421 218.054 374.372 212.799C372.408 210.253 373.154 208.919 376.376 208.86C377.634 208.837 377.215 207.404 378.677 207.2C382.663 206.646 383.904 209.734 385.984 211.715C386.927 212.612 387.388 214.005 388.279 214.978C389.258 216.044 389.701 217.606 392.124 217.052C393.628 216.708 395.783 218.375 397.158 219.965C398.161 221.131 399.233 222.237 400.736 222.791C401.889 223.216 403.159 223.443 404.028 222.546C407.401 219.056 410.926 220.204 414.672 221.789C419.1 223.659 423.616 225.372 428.539 225.436C430.718 225.465 432.6 225.104 434.744 224.003C438.857 221.888 443.338 222.942 447.492 224.871C453.044 227.458 458.434 230.4 463.398 233.942C465.484 235.434 467.441 234.088 469.381 234.939C477.853 238.668 486.056 243.317 495.087 245.385C502.335 247.046 508.843 250.396 515.823 252.575C516.912 252.913 517.973 253.356 519.045 253.746C519.575 251.695 522.139 252.237 523.03 250.606C523.607 249.551 524.376 249.435 525.658 249.737C529.899 250.757 533.838 252.552 537.788 254.276C540.585 255.5 542.909 255.826 546.044 254.725C553.933 251.952 562.113 250.035 570.264 248.095C572.169 247.64 574.004 246.888 575.956 246.242C574.803 244.948 573.73 243.83 572.763 242.635C572.355 242.134 571.761 241.324 571.919 240.893C573.055 237.718 570.73 236.442 568.836 234.869C564.589 231.338 563.325 224.888 565.207 218.637C566.552 214.162 569.932 210.969 571.93 206.943C574.575 201.624 578.799 198.356 584.393 196.526C585.878 196.042 586.374 193.49 588.71 194.155C588.978 194.23 588.692 193.391 588.669 192.978C588.512 189.971 585.395 188.451 584.888 185.969C584.189 182.543 583.688 178.954 584.247 175.336C584.812 171.653 585.389 167.983 586.339 164.376C586.56 163.532 586.799 162.617 585.989 161.691C583.996 159.407 584.62 156.983 585.744 154.448C587.061 151.483 588.821 148.797 591.39 146.973C595.189 144.276 597.012 140.151 599.669 136.643C600.858 135.07 599.226 133.328 599.541 131.452C600.153 127.781 600.666 124.099 601.458 120.452C601.708 119.304 601.866 117.958 600.963 116.566C599.844 117.504 599.745 118.89 599.098 119.927C598.323 121.163 597.747 122.951 595.632 121.984C594.868 121.634 594.472 122.177 594.28 122.654C592.975 125.94 589.648 127.181 587.399 129.5C586.531 130.397 585.447 131.044 583.862 130.572C582.884 130.281 581.579 130.729 580.518 131.12C576.51 132.6 573.824 130.817 573.567 126.505C573.387 123.447 574.424 120.656 575.368 117.865C577.745 110.815 579.347 103.492 583.07 96.9195C584.439 94.5016 586.018 92.334 588.424 91.0289C593.091 85.0045 598.819 81.5495 603.55 76.2941C609.58 69.6055 616.117 63.4588 624.198 59.0832C630.863 55.4709 637.086 51.0953 643.378 46.848C650.644 41.9364 658.299 37.7298 667.085 36.1276C667.994 35.9645 668.338 35.4168 668.635 34.6477C669.713 31.8685 671.799 26.9338 674.66 26.1589C678.278 25.18 681.057 25.4655 684.891 25.0053C685.13 24.9761 685.386 24.7139 685.549 24.4983C690.035 18.707 697.062 16.9243 703.115 13.7489C707.526 11.4359 712.857 11.2085 717.6 9.3849C720.169 8.39443 722.931 7.9051 725.535 6.99037C730.027 5.41726 733.674 6.84455 737.252 9.59457C742.262 13.4516 746.784 17.9146 752.388 21.0492C756.659 23.438 757.784 28.2622 759.98 32.2765C763.802 39.2622 764.262 47.3141 767.246 54.4688C772.483 67.0129 778.129 79.4172 785.377 90.9882C789.362 97.3505 791.763 104.424 794.524 111.34C796.645 116.647 798.789 121.949 801.155 127.152C803.503 132.308 804.417 137.803 804.68 143.303C805.361 157.688 807.092 171.91 809.842 186.044C810.366 188.736 810.675 191.55 810.634 194.382C810.494 204.415 811.939 214.244 813.786 224.119C815.47 233.115 816.74 242.233 817.812 251.375C819.28 263.936 821.518 276.48 826.546 288.337C832.448 302.25 838.227 316.204 845.504 329.477C847.841 333.741 850.329 337.925 852.595 342.224C856.773 350.166 859.901 358.62 864.428 366.409C871.787 379.07 878.936 391.847 886.271 404.519C888.206 407.864 889.149 411.709 891.591 414.779C892.196 415.543 891.783 416.347 891.736 417.197C891.107 428.332 885.56 437.327 879.367 446.043C872.964 455.057 868.396 465.113 862.96 474.68C861.294 477.604 859.179 480.226 855.934 481.671C854.25 482.423 853.417 484.118 852.601 485.557C851.296 487.865 849.134 489.176 847.148 490.475C845.161 491.78 842.737 490.766 840.616 489.793C840.337 489.665 840.412 488.774 839.672 489.548C835.611 493.813 830.03 494.035 824.734 495.066C822.054 495.59 819.216 495.2 816.443 496.493L816.449 496.552ZM755.389 504.755C764.35 506.818 772.792 508.851 781.281 510.686C786.373 511.788 791.541 512.189 796.762 511.42C800.088 510.931 801.108 509.41 799.442 506.579C798.597 505.145 798.329 503.759 798.323 502.192C798.311 498.748 797.985 498.503 794.425 498.591C792.409 498.637 789.479 499.354 788.541 498.329C786.216 495.783 784.375 496.383 781.998 497.7C781.205 498.137 779.725 497.752 779.271 498.317C776.078 502.267 771.446 501.277 767.333 502.093C763.517 502.85 759.566 503.031 755.383 504.755H755.389Z" fill="white"/>
<path d="M278.564 861.331C275.185 861.774 271.701 861.098 268.659 859.531C262.041 856.117 255.539 856.717 248.739 858.756C243.583 860.3 238.398 860.376 232.898 859.327C228.359 858.459 223.552 858.04 218.839 857.911C206.79 857.585 198.062 851.945 192.177 841.615C189.882 837.577 188.309 833.447 188.571 828.564C188.938 821.823 193.18 816.16 199.833 815.484C205.205 814.942 210.402 813.707 215.471 812.146C220.831 810.491 225.97 812.076 231.196 812.146C232.431 812.163 233.591 812.163 234.832 812.017C243.892 810.934 252.958 809.832 262.047 809.052C265.047 808.795 268.1 810.13 271.194 809.192C276.053 807.718 280.236 804.956 284.221 801.996C290.193 797.556 296.084 793.047 303.052 790.233C304.072 789.819 304.41 789.382 304.27 788.095C303.979 785.298 306.14 783.224 308.954 783.364C312.712 783.556 316.115 784.442 318.101 788.188C319.57 790.95 321.999 792.901 324.295 794.976C326.689 797.137 329.597 799.124 329.072 803.062C333.267 809.209 327.697 812.856 324.738 816.073C317.892 823.501 310.044 830.003 302.621 836.896C301.852 837.612 300.739 838.358 300.564 839.244C299.457 844.89 295.46 848.595 291.965 852.668C290.339 854.567 288.69 856.466 287.257 858.506C285.072 861.611 281.92 861.506 278.552 861.343L278.564 861.331Z" fill="white"/>
<path d="M656.283 1038.13C656.044 1026.76 658.893 1017 660.49 1007.08C660.88 1004.68 663.24 1004.29 665.273 1004.13C667.196 1003.98 669.148 1004.11 671.082 1004.19C674.106 1004.31 674.724 1003.33 674.52 1000.42C674.333 997.713 673.127 995.855 671.542 993.815C668.437 989.801 668.769 984.895 669.235 980.228C669.538 977.245 670.36 974.274 671.327 971.367C672.719 967.183 676.873 963.996 682.502 966.467C686.539 968.238 690.862 969.345 695.052 970.778C697.411 971.582 700.045 975.142 699.922 977.595C699.759 980.823 700.703 984.109 699.415 987.284C699.217 987.773 699.264 988.333 699.573 988.933C701.157 991.957 701.723 995.161 701.787 998.628C701.903 1004.84 706.273 1009.03 709.775 1013.57C713.9 1018.92 717.512 1024.59 719.272 1031.14C720.443 1035.49 722.75 1038.7 726.327 1041.25C733.336 1046.26 740.491 1051 748.52 1054.27C752.149 1055.75 754.684 1058.45 756.525 1061.83C757.212 1063.1 757.399 1063.82 755.628 1064.88C753.647 1066.06 752.347 1068.42 750.856 1070.34C750.716 1070.52 750.844 1070.97 750.367 1071.03C745.671 1071.57 742.309 1074.9 738.347 1076.93C733.791 1079.28 729.45 1079.44 724.952 1077.39C719.202 1074.77 713.212 1072.38 707.065 1071.56C697.504 1070.29 689.639 1065.51 681.325 1061.44C675.912 1058.78 670.529 1056.13 665.396 1052.95C659.412 1049.24 654.477 1045.03 656.272 1038.13H656.283Z" fill="white"/>
<path d="M595.101 602.963C598.306 601.594 601.504 600.196 604.726 598.867C606.836 597.999 609.079 597.411 611.083 596.357C612.971 595.366 614.165 596.24 615.377 597.341C616.74 598.588 616.496 599.986 614.823 600.394C607.896 602.095 602.192 606.29 595.946 609.378C591.658 611.505 587.475 613.853 583.286 616.178C580.279 617.844 578.327 620.722 575.793 622.936C573.678 624.777 571.546 626.589 569.396 628.39C568.603 629.054 567.153 629.514 566.879 628.588C565.696 624.608 564.309 628.18 563.797 628.64C556.677 635.002 549.685 641.516 542.653 647.972C541.808 648.747 540.876 649.428 539.979 650.157C540.41 650.774 540.754 650.366 541.161 650.186C541.482 650.046 541.872 650.063 542.402 649.982C542.257 651.374 541.727 652.19 540.48 652.539C534.986 654.078 531.134 658.092 526.957 661.605C512.461 673.794 497.977 685.994 481.063 694.844C480.224 695.281 479.449 695.456 480.131 696.907C480.655 698.031 479.129 698.771 478.162 698.783C476.146 698.812 473.675 699.931 472.661 696.744C472.271 695.52 470.972 695.846 470.372 696.755C468.356 699.785 464.732 698.392 462.128 699.855C461.289 700.327 460.514 698.987 459.844 698.358C459.028 697.6 459.605 696.79 460.106 696.039C462.023 693.149 464.819 691.127 467.441 689.047C475.295 682.831 483.248 676.725 491.743 671.376C493.572 670.222 494.603 668.288 496.025 666.733C501.438 660.807 507.567 655.686 514.156 651.124C515.211 650.396 516.318 649.661 516.918 648.601C522.873 637.985 530.458 628.535 538.615 619.638C546.801 610.713 556.962 604.333 568.329 600.004C572.775 598.308 577.209 596.461 581.887 595.587C587.294 594.573 591.035 590.932 595.183 587.908C601.615 583.212 608.001 578.446 614.386 573.68C615.54 572.818 616.49 571.659 617.696 570.89C632.262 561.649 646.216 551.5 660.56 541.939C661.882 541.059 663.374 539.532 665.233 541.036C666.38 541.962 667.493 543.634 666.928 544.648C665.71 546.821 665.454 549.426 663.741 551.337C660.962 554.425 658.387 557.716 655.421 560.612C642.16 573.576 627.472 584.686 611.339 593.845C607.663 595.931 603.928 597.953 599.902 599.363C598.009 600.027 596.354 601.134 595.107 602.963H595.101Z" fill="white"/>
<path d="M287.968 190.385C289.366 186.604 288.655 182.887 289.319 179.303C289.774 176.868 291.417 175.947 293.159 175.033C294.86 174.141 295.746 175.72 296.806 176.652C298.391 178.056 299.294 179.88 299.725 181.873C300.861 187.081 303.827 191.603 304.975 196.753C308.43 195.745 309.991 192.255 313.341 191.539C313.906 191.416 313.912 190.781 313.796 190.315C312.182 184.005 311.832 177.515 310.987 171.094C310.562 167.855 311.885 164.627 314.262 163.799C316.336 163.077 319.249 164.481 321.014 167.092C328.239 177.754 336.606 187.519 344.803 197.423C346.54 199.527 347.606 202.3 348.497 204.928C348.8 205.819 349.132 205.615 349.499 205.627C353.718 205.761 354.679 206.774 354.702 210.865C354.708 212.461 354.09 213.877 353.811 215.38C353.63 216.359 353.071 216.988 351.952 216.504C351.072 216.126 350.362 216.668 349.995 217.198C348.812 218.911 347.338 218.579 345.928 217.844C344.425 217.064 343.085 215.659 341.552 217.774C341.418 217.961 340.69 217.978 340.48 217.798C338.016 215.636 337.579 217.897 336.763 219.435C335.516 221.783 333.057 221.451 330.983 221.981C325.274 223.432 319.272 222.424 313.551 224.702C308.342 226.776 303.035 228.751 297.569 230.272C293.829 231.309 290.869 230.208 288.678 227.784C281.163 219.487 271.578 213.749 263.194 206.541C262.017 205.533 260.001 205.067 261.138 202.801C262.029 201.018 265.163 199.48 267.005 200.074C270.902 201.327 274.841 202.51 278.634 204.042C280.539 204.817 281.023 204.293 280.644 202.632C279.298 196.666 279.467 190.432 277.387 184.599C276.583 182.339 277.463 180.638 279.49 179.694C281.588 178.721 282.829 180.346 283.679 181.82C285.229 184.524 286.494 187.39 287.985 190.397L287.968 190.385Z" fill="white"/>
<path d="M455.864 641.714C462.255 638.201 468.606 634.606 475.05 631.192C480.428 628.343 485.986 625.995 491.993 624.602C494.994 623.909 497.05 625.517 499.579 626.181C497.767 626.927 495.798 626.77 493.962 627.375C483.929 630.679 475.062 636.179 466.194 641.737C456.01 648.123 445.755 654.392 435.524 660.708C434.959 661.057 434.342 661.524 433.724 661.553C432.518 661.611 431.102 662.164 430.147 661.057C429.063 659.805 430.228 658.634 430.776 657.661C433.182 653.372 437.389 650.692 440.657 646.812C437.453 646.445 437.849 645.128 439.166 642.85C441.77 638.341 446.297 636.272 450.166 633.365C456.517 628.593 463.304 624.492 470.01 620.244C473.261 618.182 477.089 618.764 480.282 616.911C480.946 616.527 482.56 617.069 482.613 617.972C482.706 619.626 483.504 621.479 481.308 622.837C475.318 626.554 469.434 630.446 463.846 634.763C461.067 636.907 458.352 639.139 455.608 641.33L455.864 641.708V641.714Z" fill="white"/>
<path d="M689.866 957.844C688.182 958.747 687.244 957.483 686.382 956.778C685.281 955.869 686.434 954.82 686.883 953.981C693.414 941.786 699.951 929.592 706.593 917.456C707.753 915.335 709.838 914.1 712.216 913.564C714.272 913.104 715.886 914.822 715.036 916.675C713.457 920.119 712.338 923.748 710.415 927.064C705.754 935.098 702.958 944.012 698.745 952.256C697.795 954.115 697.586 956.679 694.9 957.372C694.358 957.512 694.742 958.852 695.535 959.411C695.937 959.691 695.943 960.005 695.622 960.291C695.197 960.675 694.76 961.124 694.241 961.31C693.408 961.613 693.076 963.152 691.864 962.388C690.623 961.608 691.672 960.547 691.876 959.796C692.563 957.296 690.885 957.99 689.86 957.838L689.866 957.844Z" fill="white"/>
<path d="M275.517 810.654C284.681 813.363 284.984 820.809 285.858 827.935C285.928 828.488 285.672 828.838 285.293 829.176C282.945 831.279 283.032 834.239 285.031 836.592C286.598 838.439 288.247 838.154 290.216 837.845C296.427 836.89 300.453 832.712 304.549 828.512C310.148 822.761 315.893 817.15 322.121 812.064C322.774 811.528 323.537 811.126 324.399 810.561C323.514 809.623 322.733 808.801 321.818 807.834C315.846 813.654 309.076 818.35 302.347 823.087C301.17 823.915 299.923 825.668 298.163 823.81C296.293 821.834 295.833 818.968 297.202 817.214C301.735 811.417 307.293 806.663 312.892 801.967C314.384 800.72 315.345 800.038 313.76 797.737C307.748 788.974 302.154 779.943 300.226 769.194C299.492 765.081 300.558 761.317 302.83 758.083C309.21 749.006 316.744 740.89 324.72 733.199C332.23 725.957 339.711 718.668 347.471 711.694C354.347 705.518 361.653 699.838 368.65 693.79C375.875 687.544 383.053 681.234 390.079 674.767C399.809 665.806 409.551 656.845 418.966 647.552C427.647 638.982 435.862 629.945 444.34 621.171C452.351 612.88 460.28 604.496 468.53 596.444C480.16 585.1 491.923 573.896 503.867 562.884C513.376 554.122 523.146 545.638 532.969 537.225C542.501 529.068 551.882 520.749 561.279 512.446C568.096 506.427 574.517 499.989 581.38 494.035C584.078 491.698 583.99 487.736 586.793 485.423C587.661 484.707 586.303 483.717 585.698 483.058C581.765 478.753 577.343 475.064 572.21 472.233C568.324 470.089 567.904 466.756 571.004 463.732C571.481 463.266 572.111 462.806 572.315 462.217C574.843 454.836 580.227 449.446 585.196 443.795C589.531 438.866 594.047 434.1 598.731 428.99C596.36 428.454 594.623 427.341 594.018 424.987C593.493 422.954 592.567 421.002 592.829 418.817C593.138 416.23 595.34 415.304 597.146 414.133C598.364 413.34 598.679 412.822 598.265 411.237C595.585 400.896 593.814 390.367 592.176 379.81C590.248 367.377 587.952 354.996 585.639 342.621C585.412 341.391 585.447 340.133 586.204 339.871C587.177 339.527 588.139 340.331 588.838 341.485C591.53 345.948 592.31 350.999 593.365 355.922C596.459 370.365 598.778 384.955 601.021 399.555C601.691 403.913 601.778 408.615 603.59 412.467C604.907 415.263 604.144 417.623 604.417 420.145C604.656 422.389 604.435 422.412 602.198 421.509C602.064 423.554 602.74 424.125 604.942 424.772C609.918 426.228 614.992 426.922 620.038 427.796C631.242 429.747 642.469 431.519 653.691 433.377C660.921 434.577 668.151 435.795 675.458 437.019C675.038 438.469 674.1 438.015 673.465 437.992C665.582 437.718 657.763 436.774 649.944 435.789C644.036 435.043 638.094 434.566 632.168 433.931C623.703 433.016 615.208 432.258 606.847 430.522C605.338 430.207 604.208 430.499 602.961 432.037C598.591 437.438 593.779 442.484 589.228 447.745C584.963 452.68 580.535 457.486 576.603 462.852C580.611 463.359 583.711 465.218 586.234 467.933C587.463 469.255 587.952 468.632 588.529 467.595C590.429 464.181 591.769 463.563 595.416 464.42C601.568 465.865 607.401 468.218 613.174 470.695C635.559 480.308 658.218 489.199 681.639 495.981C687.506 497.676 693.508 498.9 699.45 500.315C701.158 500.723 702.952 501.236 704.059 502.5C705.615 504.283 706.914 504.114 708.924 503.299C722.144 497.968 735.987 494.746 749.836 491.629C765.177 488.168 780.576 484.946 795.992 481.829C806.742 479.655 817.567 477.855 828.346 475.822C829.657 475.571 831.131 475.53 831.906 473.876C832.407 472.804 833.962 473.048 835 472.577C835.337 472.425 835.751 472.378 836.13 472.384C844.718 472.553 845.201 470.765 847.38 480.256C847.747 481.846 848.301 483.384 848.872 485.284C850.876 482.977 852.036 480.494 853.049 477.908C856.842 468.183 863.222 460.062 869.392 451.841C874.933 444.453 880.515 437.077 886.819 430.307C888.24 428.78 889.796 427.061 892.441 428.011C895.325 429.048 895.82 429.928 894.463 432.818C891.888 438.294 888.433 443.253 885.088 448.263C878.598 457.999 871.42 467.31 865.891 477.634C863.012 483.006 859.377 488.045 857.67 494.006C856.901 496.686 854.727 497.117 852.502 497.367C850.969 497.536 849.379 497.548 847.852 497.35C846.314 497.158 845.755 497.63 845.539 499.15C844.368 507.325 844.252 515.598 843.18 523.766C842.119 531.83 841.222 539.911 839.87 547.94C838.921 553.609 838.46 559.371 838.023 565.11C837.004 578.394 836.363 591.695 836.124 605.026C835.99 612.443 835.495 619.883 835.04 627.306C834.469 636.511 833.327 645.682 832.867 654.888C832.593 660.283 831.917 665.625 831.509 670.997C830.973 678.088 830.338 685.173 829.371 692.234C828.486 698.719 828.258 705.291 827.478 711.793C826.598 719.128 826.441 726.528 825.287 733.84C824.873 736.479 824.821 739.212 824.699 741.88C824.139 753.719 822.834 765.5 822.158 777.333C821.255 793.117 820.399 808.894 819.869 824.701C819.466 836.762 819.199 848.828 818.639 860.877C817.905 876.648 818.534 892.409 818.144 908.169C817.923 917.211 818.499 926.254 817.888 935.314C817.707 937.994 817.858 940.843 817.486 943.482C817.078 946.372 816.274 949.058 816.827 952.122C817.078 953.515 814.887 954.779 813.39 955.706C804.312 961.322 794.606 965.646 784.759 969.689C775.117 973.651 765.253 976.879 754.975 978.673C751.007 979.366 746.981 979.798 742.967 980.106C740.083 980.322 737.187 980.223 734.303 980.642C729.258 981.376 724.369 979.926 719.423 979.314C717.331 979.058 715.263 978.62 713.171 978.451C712.344 978.387 710.363 977.7 711.546 980.025C711.726 980.374 711.26 980.934 710.934 980.689C709.501 979.588 706.995 980.724 706.168 978.236C705.894 977.409 704.653 977.31 703.674 977.222C702.451 977.117 702.486 978.079 702.398 978.72C701.991 981.65 700.954 984.424 700.453 987.343C700.144 989.125 700.406 990.326 701.315 991.811C703.919 996.065 705.865 1000.66 707.561 1005.34C708.33 1007.47 709.542 1008.36 711.779 1008.13C713.206 1007.99 714.657 1008.1 716.871 1008.1C714.849 1009.44 715.24 1010.62 715.642 1012.08C717.168 1017.58 718.415 1023.15 719.907 1028.66C720.099 1029.37 720.245 1030.24 721.066 1030.84C728.314 1036.19 734.927 1042.38 742.699 1047.04C747.15 1049.71 751.392 1052.68 754.76 1056.72C754.946 1056.94 755.173 1057.34 755.354 1057.33C759.496 1057.03 759.322 1060.72 760.539 1063.02C761.64 1065.09 760.691 1067.58 759.001 1068.12C752.977 1070.09 748.444 1074.61 742.652 1076.93C733.295 1080.69 723.868 1080.9 714.325 1078.1C712.635 1077.61 710.031 1078.17 709.641 1075.29C709.629 1075.19 709.116 1075.09 708.842 1075.09C703.15 1075.12 698.128 1072.49 692.855 1070.93C683.702 1068.22 674.642 1065.21 665.553 1062.3C658.969 1060.19 652.665 1057.39 646.419 1054.44C644.066 1053.33 643.931 1051.04 642.976 1049.15C642.935 1049.07 642.947 1048.96 642.964 1048.87C643.093 1048.01 648.225 1043.23 649.175 1043.08C654.314 1042.28 654.168 1042.27 654.238 1036.91C654.326 1029.77 654.908 1022.64 655.986 1015.58C656.406 1012.83 656.767 1010.07 657.326 1007.33C657.722 1005.37 659.546 1004.44 659.942 1002.62C659.971 1002.5 660.28 1002.29 660.362 1002.33C662.646 1003.39 664.895 1002.7 667.184 1002.34C667.802 1002.24 668.553 1003.23 669.299 1002.57C669.975 1001.96 669.824 1001.16 669.462 1000.42C665.955 993.262 668.268 985.938 668.816 978.661C669.066 975.381 669.835 972.206 670.744 969.054C671.117 967.766 670.779 966.805 669.521 966.193C665.524 964.259 663.024 960.524 659.715 957.92C655.369 954.5 656.843 950.899 657.28 947.013C657.722 943.086 657.583 939.135 658.02 935.191C659.161 924.873 660.076 914.531 660.956 904.184C661.783 894.512 663.222 884.904 663.98 875.221C664.592 867.391 665.885 859.612 666.718 851.794C667.446 844.988 667.895 838.16 668.577 831.355C669.235 824.771 670.196 818.217 670.727 811.627C671.263 804.938 672.422 798.337 673.255 791.695C674.135 784.68 675.312 777.7 676.372 770.709C677.45 763.618 678.534 756.533 679.623 749.448C680.672 742.626 681.791 735.809 682.764 728.969C683.912 720.905 684.937 712.83 686.027 704.761C686.97 697.757 687.99 690.76 688.87 683.745C689.738 676.812 690.425 669.855 691.282 662.922C692.08 656.455 692.977 649.999 693.857 643.544C694.725 637.193 695.681 630.854 696.491 624.497C697.324 617.937 698.268 611.383 698.699 604.793C698.978 600.464 699.2 596.117 699.41 591.777C699.468 590.518 699.555 589.237 699.386 587.996C699.112 585.974 701.227 583.34 699.806 582.303C697.289 580.462 693.962 579.728 690.979 578.528C690.443 578.312 690.047 578.51 689.726 578.93C684.867 585.385 678.184 589.889 672.306 595.249C667.033 600.056 661.673 604.77 656.289 609.448C648.424 616.288 640.488 623.053 632.593 629.863C623.475 637.741 614.421 645.694 605.251 653.507C589.712 666.756 575.216 681.106 560.883 695.625C552.319 704.306 543.713 712.953 535.323 721.797C522.43 735.39 509.099 748.54 495.821 761.742C484.798 772.701 473.716 783.597 462.576 794.439C455.311 801.507 447.847 808.364 440.57 815.42C433.969 821.823 427.502 828.36 420.988 834.851C415.062 840.764 409.125 846.672 403.27 852.656C401.703 854.258 400.543 854.992 398.44 853.203C397.176 852.131 395.119 851.572 393.4 851.537C385.809 851.38 379.155 848.071 372.35 845.408C359.718 840.467 348.817 832.712 338.493 824.025C335.306 821.345 332.457 818.321 329.258 815.664C327.971 814.592 327.318 814.75 326.485 815.863C321.544 822.458 314.704 826.944 308.412 832.031C307.631 832.66 306.6 832.788 307.684 834.029C308.115 834.524 307.451 834.85 307.148 835.148C306.39 835.899 305.586 836.598 304.805 837.321C302.836 839.127 300.074 839.879 300.063 843.73C300.057 846.614 297.103 848.997 295.046 851.211C291.685 854.823 288.212 858.331 284.489 861.605C281.838 863.941 278.849 863.545 276.157 863.032C271.24 862.106 266.206 861.698 261.51 859.298C259.587 858.313 256.465 859.542 253.918 859.933C243.495 861.529 233.212 863.93 222.526 863.749C212.231 863.58 203.492 859.857 195.673 853.559C191.379 850.098 187.365 846.299 184.405 841.574C182.5 838.533 182.226 835.421 185.523 833.178C185.99 832.864 186.164 832.025 186.339 831.395C187.196 828.273 187.708 825.016 188.903 822.027C190.511 817.995 194.076 815.571 197.939 814.272C204.325 812.122 211.165 812.157 217.807 811.347C226.191 810.328 234.435 808.667 242.679 806.972C248.43 805.789 254.146 804.49 260.088 804.833C262.693 804.985 265.227 803.995 267.872 804.233C269.078 804.338 270.617 804.431 270.937 805.428C272.137 809.197 273.151 806.168 274.019 805.393C281.471 798.687 289.267 792.476 298.362 788.083C298.787 787.879 299.212 787.593 299.667 787.512C301.35 787.215 303.308 787.489 304.013 788.858C304.969 790.699 302.953 791.718 301.712 792.668C293.45 799.001 284.821 804.804 275.54 810.619L275.517 810.654ZM752.167 858.593C751.922 859.525 751.456 860.457 751.468 861.378C751.561 867.95 750.378 874.481 750.914 881.473C751.345 873.572 751.753 866.085 752.161 858.593C752.656 853.78 752.633 848.939 752.901 844.114C753.571 832.054 754.439 820.011 755.237 807.956C755.447 804.775 755.633 801.588 755.901 798.407C756.828 787.436 757.812 776.465 758.721 765.494C759.374 757.611 759.852 749.716 760.574 741.839C761.431 732.529 762.538 723.247 763.4 713.937C764.111 706.252 764.484 698.538 765.259 690.859C766.255 680.972 766.872 671.067 767.659 661.168C768.078 655.866 767.758 650.547 768.504 645.245C769.04 641.452 768.609 637.525 768.609 633.657L767.88 633.592C767.566 635.026 766.989 636.453 766.983 637.886C766.931 647.185 765.853 656.408 765.328 665.672C764.647 677.657 763.318 689.577 762.322 701.527C760.924 718.301 759.123 735.046 757.754 751.826C756.56 766.49 755.628 781.179 754.765 795.873C753.577 816.072 752.569 836.278 751.485 856.484C751.444 857.264 751.427 858.057 752.173 858.587L752.167 858.593ZM263.013 828.179C262.378 825.691 261.096 823.699 259.244 822.12C255.323 818.776 250.58 816.917 245.936 814.913C245.15 814.575 244.276 814.925 243.408 815.134C229.576 818.508 215.645 821.083 201.301 820.646C194.403 820.436 194.269 820.722 193.313 827.451C193.302 827.544 193.331 827.655 193.29 827.742C190.988 832.782 192.48 837.024 195.999 840.881C201.721 847.156 208.013 852.603 216.327 855.196C226.418 858.348 236.527 856.687 246.612 855.272C252.334 854.468 258.02 853.728 263.817 853.535C267.156 853.425 269.644 855.464 272.726 855.814C275.272 856.099 277.882 856.46 280.143 857.865C281.005 858.401 281.494 858.272 281.832 857.294C282.613 855.027 284.256 853.378 285.928 851.77C288.066 849.708 290.222 847.657 292.687 845.303C287.093 844.755 279.577 837.437 279.566 832.852C279.554 829.502 279.024 826.105 279.939 822.784C280.09 822.237 279.91 821.869 279.525 821.514C278.185 820.261 276.967 818.846 275.511 817.756C271.607 814.837 266.87 814.406 262.268 813.66C261.289 813.503 259.984 813.375 260.129 812.355C260.479 809.891 259.29 810.864 258.224 811.277C257.438 811.586 256.639 811.872 255.678 812.233C264.144 817.191 266.299 824.188 263.013 828.197V828.179ZM662.43 1010.48C662.04 1011.13 661.795 1011.36 661.76 1011.62C660.892 1019.03 660.193 1026.47 659.132 1033.86C658.625 1037.41 658.497 1039.66 662.337 1042.16C674.724 1050.24 686.289 1059.69 700.755 1064C707.211 1065.92 712.472 1070.37 719.807 1070.77C730.918 1071.38 741.411 1070.82 751.077 1064.78C754.241 1062.8 754.27 1062.72 751.077 1060.54C744.068 1055.77 736.191 1052.38 729.526 1047.08C725.861 1044.17 721.689 1041.73 719.429 1037.33C716.883 1032.37 714.15 1027.5 711.826 1022.45C710.2 1018.91 707.91 1015.34 709.897 1010.73C707.724 1014.05 705.399 1014.2 702.766 1011.87C702.521 1011.66 702.049 1011.63 701.682 1011.63C698.576 1011.61 695.471 1011.49 692.377 1011.66C690.583 1011.76 689.103 1012.54 688.858 1014.74C688.625 1016.83 688.037 1018.87 687.78 1020.96C687.675 1021.83 687.238 1022.1 686.58 1022.31C685.502 1022.66 685.636 1021.68 685.386 1021.16C684.512 1019.39 684.96 1017.41 684.657 1015.24C683.539 1016.04 682.665 1016.76 681.698 1017.32C678.079 1019.41 676.326 1023.36 673.115 1025.87C670.639 1027.8 669.433 1027.81 667.12 1025.66C666.083 1024.7 665.5 1023.52 665.064 1022.22C663.799 1018.5 663.234 1014.61 662.43 1010.47V1010.48ZM675.487 989.58C677.077 993.53 678.01 997.416 679.076 1001.27C679.309 1002.11 679.291 1003.31 680.328 1003.75C684.226 1005.4 688.142 1006.99 692.529 1006.58C694.201 1006.42 696.17 1005.6 697.4 1007.18C698.04 1008.01 698.326 1008.96 699.357 1008.14C700.254 1007.42 699.165 1006.71 698.862 1006.03C696.945 1001.69 694.422 997.486 694.772 992.534C694.964 989.848 694.009 989.37 691.55 989.417C686.271 989.516 681.016 990.902 675.475 989.58H675.487ZM654.623 560.414C654.355 560.023 654.087 559.628 653.819 559.237C627.14 574.368 602.512 592.604 577.657 610.491C602.955 593.251 628.853 576.926 654.629 560.42L654.623 560.414ZM705.411 561.334C708.073 560.629 710.375 559.26 712.6 557.815C725.622 549.373 738.597 540.872 751.584 532.372C754.567 530.42 757.614 528.544 760.23 526.08C761.372 525.002 761.471 524.104 759.776 523.621C755.54 522.403 751.287 521.238 747.045 520.049C750.763 522.485 755.179 522.811 759.805 524.757C741.796 537.72 722.727 548.237 705.417 561.329L705.411 561.334ZM689.621 973.761C683.871 976.966 681.389 982.414 677.037 985.886C681.418 985.968 686.102 986.096 690.763 986.579C692.202 986.731 694.166 988.001 695.098 986.655C696.17 985.111 694.119 983.759 693.473 982.344C692.01 979.151 691.591 979.081 688.613 980.829C687.78 981.318 686.947 981.633 686.236 981.073C685.514 980.502 686.131 979.699 686.33 978.964C686.819 977.152 688.643 976.267 689.627 973.767L689.621 973.761ZM709.291 921.336C705.533 923.667 689.149 955.612 689.33 961.142C695.925 947.992 702.521 934.836 709.291 921.336ZM475.073 625.045C464.137 628.885 454.594 635.754 443.303 638.731C442.196 639.023 441.508 640.164 442.015 641.295C442.522 642.419 443.507 641.714 444.246 641.353C448.045 639.512 451.885 637.752 455.602 635.765C462.133 632.27 468.589 628.628 475.073 625.051V625.045ZM686.499 974.076C685.123 973.109 683.562 973.482 682.292 972.596C680.439 971.309 678.953 970.982 678.75 974.251C678.557 977.444 677.701 980.596 677.136 983.765C680.043 980.17 683.341 977.31 686.493 974.076H686.499ZM305.149 815.571C310.072 813.084 314.273 809.774 318.911 807.123C320.804 806.045 319.097 805.084 318.655 804.21C318.229 803.365 317.612 803.126 316.714 804.041C312.91 807.933 309.012 811.738 305.149 815.571ZM669.835 1009.25C671.781 1010.89 673.512 1012.45 676.157 1011.09C677.013 1010.65 677.561 1011.75 678.114 1012.29C678.522 1011.53 678.755 1010.58 679.355 1010.08C681.103 1008.62 680.095 1007.81 678.68 1007.74C675.667 1007.59 672.638 1007.8 669.841 1009.24L669.835 1009.25ZM816.792 516.885C812.399 513.186 809.812 508.42 808.513 502.582C807.983 507.598 811.793 514.223 816.792 516.885Z" fill="black"/>
<path d="M596.704 122.963C594.513 125.719 592.841 128.416 590.05 130.182C588.057 131.446 586.356 132.978 583.746 131.778C582.68 131.289 582.027 132.343 581.322 132.99C579.364 134.784 576.69 135.74 574.808 134.027C573.101 132.472 571.161 130.438 571.231 127.508C571.4 120.866 573.095 114.532 575.053 108.269C577.104 101.709 580.151 95.585 583.629 89.6713C583.874 89.2576 584.078 88.6285 584.445 88.5003C590.236 86.432 593.039 80.9437 597.344 77.1973C604.505 70.969 612.231 65.5038 619.939 60.0154C631.166 52.0217 642.527 44.2145 654.489 37.3395C657.484 35.6207 660.548 34.0011 663.98 33.1971C665.128 32.929 665.932 32.1889 666.31 30.6566C667.109 27.4288 669.171 24.9876 672.533 24.0146C674.345 23.4903 675.749 21.8183 677.858 22.1387C677.992 22.162 678.278 21.9756 678.301 21.8474C679.53 16.2367 684.681 17.1921 688.392 16.0268C693.857 14.308 699.503 13.1719 705.038 11.6804C707.514 11.0162 709.128 8.88961 711.278 7.61365C716.883 4.281 722.464 1.00068 729.077 0.0801272C731.256 -0.222841 733.103 0.354032 735.043 1.46103C743.404 6.24443 749.05 13.772 755.15 20.8568C757.247 23.2922 758.856 26.1239 762.089 27.5164C764.455 28.536 764.542 31.3326 765.008 33.4417C766.779 41.4529 768.399 49.5047 769.71 57.6033C770.141 60.2659 771.586 62.2353 772.856 64.2745C781.77 78.6363 789.415 93.6333 796.109 109.149C801.079 120.662 805.53 132.279 807.097 144.841C808.309 154.524 809.708 164.19 811.217 173.832C813.029 185.433 815.243 196.969 816.903 208.586C818.266 218.106 819.403 227.685 819.327 237.345C819.269 244.797 822.018 251.532 824.594 258.314C829.208 270.444 833.782 282.592 838.414 294.717C845.697 313.792 853.813 332.512 862.232 351.109C868.652 365.297 875.422 379.309 882.35 393.245C885.846 400.272 890.012 406.961 893.816 413.836C895.389 416.673 896.957 419.563 895.611 423.012C895.453 423.414 895.448 424.271 894.894 423.705C893.595 422.383 892.896 423.944 892.307 424.311C889.691 425.972 888.468 425.937 886.522 423.402C881.091 416.318 876.815 408.51 872.585 400.691C862.436 381.925 853.411 362.605 844.677 343.151C836.905 325.841 829.721 308.292 823.796 290.254C819.956 278.56 815.854 266.931 813.297 254.865C812.417 250.722 811.45 246.667 813.489 242.263C814.45 240.188 813.192 237.048 812.842 234.397C811.723 225.908 810.651 217.407 809.399 208.936C808.216 200.954 806.713 193.019 805.542 185.031C804.202 175.878 803.036 166.695 801.86 157.519C800.881 149.875 800.013 142.225 799.063 134.575C798.847 132.85 798.573 131.056 798.608 129.395C798.742 122.246 794.769 116.542 792.159 110.436C787.241 98.941 781.596 87.7719 775.233 76.9874C774.365 75.5192 773.509 74.0395 772.559 72.414C771.685 73.2821 770.858 74.5871 769.727 74.3949C768.335 74.156 768.335 72.5305 767.98 71.371C765.23 62.3461 761.256 53.8455 756.816 45.5546C754.946 42.0588 756.566 38.1143 755.319 34.502C754.824 33.0746 754.066 31.3616 755.453 29.841C755.954 29.2933 755.342 28.9612 755.034 28.7107C747.611 22.7504 741.371 15.3744 733.028 10.4861C730.301 8.88971 727.795 8.56921 724.894 9.69951C713.76 14.0343 702.439 17.9028 691.643 23.094C690.81 23.4961 689.954 23.8457 689.15 24.207C689.54 25.8325 692.686 26.2053 691.294 28.3727C689.983 30.4003 688.258 28.2797 686.72 28.1574C683.271 27.8835 679.845 27.4814 676.39 28.064C674.496 28.3845 673.488 29.3342 673.116 31.3385C671.607 39.4604 670.453 47.6112 670.232 55.8787C670.214 56.6419 670.016 57.3411 669.375 58.2092C681.488 55.2261 692.814 56.2341 703.698 61.402C706.873 62.9052 710.544 62.8295 713.527 65.0668C717.075 67.7178 719.318 70.9631 719.324 75.3795C719.324 77.0633 719.79 77.8032 721.165 78.6713C729.625 84.0023 736.855 90.4755 739.745 100.514C741.05 105.047 742.111 109.667 740.776 114.445C740.543 115.272 740.777 116.088 741.196 116.939C743.008 120.615 742.67 124.355 741.347 128.119C740.176 131.446 739.192 134.837 738.015 138.164C737.531 139.533 737.898 140.185 739.163 140.832C742.722 142.638 743.527 144.835 742.612 148.861C741.278 154.705 738.382 159.715 734.595 164.248C733.692 165.332 733.604 165.938 734.443 167.19C739.891 175.295 740.363 183.679 736.541 192.785C734.012 198.815 731.699 204.846 727.865 210.2C719.942 221.264 709.198 225.249 695.838 223.968C686.545 223.076 677.613 220.822 668.618 218.625C665.023 217.745 661.201 218.73 657.886 219.977C654.244 221.346 650.713 223.199 646.682 224.894C647.678 225.448 648.301 225.768 648.896 226.135C649.502 226.508 649.979 227.003 649.805 227.79C649.636 228.565 649.024 228.769 648.313 228.92C644.573 229.718 640.879 230.138 637.488 227.755C635.915 226.648 634.557 227.213 633.8 228.605C632.028 231.874 628.917 233.039 625.754 234.187C605.245 241.633 584.305 247.628 563.115 252.779C558.209 253.973 553.21 254.801 547.733 255.902C556.991 261.384 566.692 265.16 575.356 270.835C572.524 271.878 570.258 270.328 568.009 269.466C554.037 264.117 539.938 259.036 526.992 251.351C525.792 250.641 524.51 250.396 523.117 250.477C522.162 250.536 521.381 250.705 521.206 251.8C521.014 252.994 522.121 252.913 522.715 253.175C528.914 255.884 535.184 258.436 541.756 262.084C538.895 262.34 537.211 260.924 535.463 260.196C517.134 252.546 498.227 246.51 479.507 239.961C470.704 236.885 462.034 233.418 453.33 230.062C448.249 228.104 443.029 226.479 438.17 223.974C437.267 223.508 436.486 223.525 435.81 224.259C434.359 225.832 431.633 226.094 431.289 228.862C431.184 229.689 430.322 229.013 429.826 228.955C424.146 228.268 418.465 227.539 412.971 225.739C412.149 234.1 410.343 242.227 408.572 250.367C408.083 252.621 407.512 254.905 408.065 257.271C408.362 258.529 406.719 257.714 406.498 258.873C409.131 260.557 412.353 260.324 415.319 260.936C417.562 261.402 419.846 262.136 422.054 262.235C430.403 262.608 435.385 268.842 441.392 273.072C459.692 285.954 477.824 299.08 495.355 313.011C499.666 316.437 503.815 320.067 507.963 323.685C509.484 325.014 510.853 325.538 513.079 325.398C526.199 324.577 539.244 325.048 552.045 328.632C559.788 330.799 567.863 331.498 575.612 333.701C576.952 334.079 577.622 333.648 577.704 331.97C577.885 328.23 578.479 324.513 578.747 320.772C578.863 319.164 579.831 317.597 580.967 318.034C582.417 318.593 584.719 317.905 585.36 320.084C587.486 327.262 591.011 333.858 593.889 340.715C594.058 341.117 593.913 341.659 593.913 342.387C589.508 341.222 589.351 336.672 586.659 334.138C586.467 334.627 586.111 335.151 586.076 335.693C585.837 339.585 583.443 341.082 580.034 338.909C577.337 337.185 574.4 337.016 571.563 336.771C560.499 335.798 549.575 333.997 538.621 332.191C532.428 331.172 526.071 330.088 519.674 331.248C516.772 331.772 513.894 330.956 511.034 330.647C509.152 330.444 507.532 329.785 506.809 327.163C506.355 325.514 503.494 324.524 501.711 323.242C485.689 311.7 468.612 301.755 452.339 290.598C443.443 284.497 434.563 278.368 426.832 270.765C426.628 270.561 426.272 270.456 426.156 270.223C423.907 265.643 420.108 265.282 415.494 265.474C411.27 265.649 406.987 264.793 402.687 264.816C401.412 264.822 400.305 263.93 400.007 262.305C399.57 259.87 398.819 257.492 398.329 255.069C398.091 253.886 397.922 253.408 396.512 253.991C391.944 255.873 390.423 255.43 388.471 250.792C387.061 247.442 384.818 245.49 381.637 244.103C376.626 241.919 371.592 239.658 367.135 236.494C363.587 233.977 360.796 230.487 357.225 227.9C356.124 227.102 355.803 225.5 355.692 223.979C355.623 223.088 355.424 221.725 353.77 223.036C348.852 226.916 342.414 224.888 339.822 218.602C336.553 221.591 332.632 223.123 328.402 223.974C327.843 224.084 327.231 224.37 326.724 224.247C320.408 222.744 314.972 225.564 309.42 227.743C307.025 228.681 304.549 229.526 302.329 230.79C296.882 233.907 292.867 231.798 288.311 228.361C279.467 221.684 271.992 213.405 262.978 206.821C266.224 208.406 269.609 209.752 272.679 211.628C279.997 216.108 287.478 220.425 293.368 226.84C294.749 228.343 296.054 227.464 297.325 227.096C298.921 226.63 297.709 225.553 297.563 224.749C296.346 218.048 296.486 217.856 303.075 215.537C307.037 214.145 310.877 212.298 315.246 212.63C315.916 212.682 316.237 212.082 316.744 211.872C317.903 211.4 319.167 210.334 320.286 211.855C321.288 213.218 321.172 214.774 320.467 216.195C320.175 216.784 319.342 217.804 318.66 216.918C316.021 213.481 313.021 216.359 310.3 216.481C307.614 216.598 304.986 217.903 302.329 218.654C301.123 218.992 300.418 219.423 300.954 220.932C301.426 222.266 301.519 223.741 301.799 225.273C307.69 222.401 313.568 219.435 320.135 218.788C323.257 218.485 323.624 217.553 323.281 214.599C322.226 205.528 327.196 200.185 333.075 197.779C335.825 196.654 338.726 196.368 342.234 196.706C337.474 192.651 333.191 188.783 329.171 184.634C324.428 179.74 320.135 174.561 317.88 167.989C317.25 166.159 315.468 165.961 313.976 165.518C313.166 165.279 312.659 165.53 313.015 166.812C314.442 171.933 316.878 176.775 317.402 182.158C317.518 183.376 318.282 182.648 318.888 182.537C320.577 182.234 322.203 181.482 323.98 181.768C324.498 181.849 325.209 181.5 325.419 182.31C325.582 182.939 325.244 183.481 324.796 183.854C323.356 185.054 321.626 185.619 319.826 186.05C318.544 186.353 317.518 186.72 318.189 188.555C318.963 190.676 318.573 192.984 318.416 195.192C318.334 196.322 317.839 197.184 318.928 198.262C320.07 199.398 318.515 199.847 317.804 200.266C311.447 204.024 305.062 207.73 298.682 211.453C297.581 212.099 296.223 212.327 296.282 214.22C296.322 215.619 295.099 215.624 293.899 215.333C283.708 212.869 274.095 209.012 265.297 203.29C263.631 202.207 262.844 202.224 262.338 204.164C262.314 204.257 262.233 204.327 262.198 204.421C261.568 205.97 261.184 208.482 259.098 207.695C257.746 207.188 258.481 204.782 259.139 203.296C259.92 201.548 260.753 199.812 261.72 198.163C263.596 194.982 266.241 196.555 268.56 197.353C271.531 198.373 274.392 199.713 277.602 201.041C276.892 196.701 276.198 192.541 275.721 188.352C275.458 186.021 275.569 183.72 275.429 181.407C275.354 180.102 275.627 178.884 274.241 177.794C272.988 176.815 273.775 175.72 275.19 175.371C279.152 174.403 283.475 176.6 285.427 180.253C286.301 181.902 286.505 183.894 288.235 185.607C288.235 183.65 288.235 182.053 288.235 180.463C288.247 175.866 291.224 172.533 295.699 171.817C297.767 171.484 299.096 172.143 299.824 173.99C302.201 180.008 304.631 186.003 306.781 192.104C307.253 193.438 307.526 193.496 308.674 193.182C313.289 191.929 313.056 191.981 312.77 188.031C312.246 180.812 309.694 174.042 308.505 166.975C308.429 166.52 308.027 166.025 308.138 165.658C308.61 164.097 309.688 162.459 311.238 162.657C313.912 163.001 313.393 159.476 315.701 159.593C317.81 159.698 319.278 160.484 320.484 162.261C327.167 172.12 333.902 181.937 340.69 191.719C342.333 194.085 344.191 196.305 346.079 198.484C346.743 199.247 347.396 200.097 347.442 200.954C347.53 202.603 348.398 202.655 349.668 202.731C353.95 202.976 359.526 207.165 360.464 210.643C360.715 211.564 360.651 212.461 360.668 213.626C362.078 208.982 365.533 210.218 368.639 210.561C369.017 210.602 369.559 210.83 369.629 210.451C370.34 206.501 373.871 205.475 376.661 205.283C380.309 205.038 383.385 207.648 385.424 210.672C387.323 213.48 389.776 215.036 392.899 216.061C395.812 217.023 398.586 218.41 401.429 219.592C402.064 219.86 402.635 220.635 403.358 219.528C405.193 216.732 407.034 216.085 410.361 217.058C415.849 218.666 421.332 220.291 426.768 222.045C427.857 222.395 428.422 222.278 429.279 221.579C432.407 219.016 435.577 218.625 439.591 220.28C457.752 227.755 475.819 235.469 494.429 241.831C501.81 244.354 508.988 247.471 516.271 250.326C516.097 245.665 523.799 243.387 527.312 245.205C530.557 246.883 533.908 248.374 537.118 250.122C538.295 250.763 539.134 250.984 540.538 250.565C550.379 247.617 560.277 244.849 570.287 241.989C568.708 240.107 566.943 238.33 565.556 236.285C561.443 230.219 559.339 223.595 560.796 216.207C561.297 213.667 562.567 211.476 565.026 210.311C566.407 209.658 567.036 208.54 567.071 207.194C567.199 202.061 570.689 199.323 574.505 197.039C577.925 194.988 581.666 193.525 585.639 192.809C587.061 192.552 587.597 192.121 586.566 190.647C583.658 186.505 581.695 181.914 581.299 176.839C581.025 173.372 581.876 169.993 583.338 166.835C584.177 165.023 584.055 163.928 582.214 162.652C577.861 159.634 576.824 153.766 579.656 149.1C582.767 143.972 587.172 140.063 592.147 136.841C594.122 135.559 595.346 134.429 595.247 131.708C595.148 128.935 596.109 126.127 596.68 122.928L596.704 122.963ZM725.471 170.418C730.114 164.073 733.307 156.884 735.37 149.205C735.801 147.602 735.993 145.639 733.826 144.439C730.47 142.58 730.126 141.095 731.315 137.267C732.585 133.171 734.327 129.232 735.125 124.973C735.579 122.544 735.807 120.446 733.791 118.605C733.016 117.894 732.771 116.857 732.526 115.791C732.055 113.699 732.253 111.561 731.897 109.498C730.277 99.9724 726.141 91.7514 718.951 85.1385C717.186 83.513 715.292 81.9573 714.057 79.8132C713.731 79.2422 712.938 78.6306 713.591 78.0596C714.855 76.9526 713.958 76.0378 713.55 75.0765C711.732 70.8116 708.609 67.8052 704.537 65.6961C703.71 65.2649 702.538 65.166 702.218 64.1115C701.752 62.585 700.552 62.6315 699.322 62.3809C693.799 61.2506 688.241 61.6467 682.682 61.8273C679.606 61.9264 676.658 62.6549 673.733 63.5522C672.061 64.0707 671.065 64.863 671.403 66.8323C671.618 68.1025 671.041 69.5532 669.655 69.1512C667.843 68.6268 666.013 68.7373 664.23 68.5392C657.676 67.811 651.18 68.452 645.213 71.4584C639.696 74.2375 635.227 78.5605 630.316 82.2427C624.6 86.5251 622.135 93.3771 617.276 98.3644C616.268 99.3956 616.437 102.629 617.276 104.191C619.578 108.49 618.034 112.44 617.02 116.461C616.035 120.37 613.413 123.674 612.236 127.432C611.112 131.038 609.486 134.184 606.311 135.763C603.351 137.232 601.697 139.585 599.821 141.933C599.098 142.836 598.393 143.751 597.653 144.631C594.857 147.946 592.054 151.261 589.974 155.095C588.185 158.393 588.25 160.519 590.499 161.97C592.66 163.363 592.602 164.953 591.588 166.899C590.668 168.676 589.59 170.395 588.867 172.248C587.183 176.576 586.991 181.045 588.366 185.491C589.461 189.033 590.58 192.581 594.938 193.654C595.888 193.887 596.669 195.052 596.558 196.374C596.43 197.883 595.422 198.326 594.14 198.705C591.862 199.375 589.613 200.144 587.399 201.006C582.732 202.824 578.31 205.032 575.403 209.39C574.703 210.439 574.051 211.505 575.129 212.694C576.183 213.853 576.469 215.619 575.309 216.224C573.975 216.918 571.843 218.2 570.508 216.056C569.693 214.745 569.198 214.995 568.376 215.834C567.298 216.941 566.471 218.112 565.964 219.668C564.886 222.971 565.562 226.176 566.279 229.316C566.745 231.361 566.564 234.012 568.487 235.23C570.048 236.22 571.353 237.292 572.058 238.848C573.124 241.208 574.762 240.917 576.667 240.346C581.596 238.854 586.496 237.234 591.483 235.958C606.311 232.171 620.492 226.397 634.977 221.579C641.834 219.301 648.692 216.819 655.468 214.226C658.958 212.892 662.523 213.154 666.042 212.612C668.396 212.251 670.535 210.923 672.982 210.847C674.124 210.812 674.362 210.293 674.223 209.146C673.587 203.733 672.352 198.414 671.974 192.96C671.776 190.14 671.047 188.165 667.79 186.417C661.195 182.875 654.856 178.511 650.434 172.085C650.078 171.566 649.921 170.942 649.117 170.68C646.693 169.888 644.322 168.921 642.021 168.053C641.059 171.333 639.836 174.287 636.765 176.041C635.909 176.53 634.668 177.182 634.761 175.487C634.965 171.851 635.204 168.117 638.729 165.647C636.952 164.173 635.198 162.722 633.398 161.23C631.76 164.639 629.541 167.196 626.645 169.265C623.516 171.502 620.428 173.727 616.775 175.085C615.138 175.691 614.113 174.945 613.268 173.896C612.318 172.714 613.78 172.23 614.316 171.63C618.179 167.307 621.961 162.896 626.086 158.835C628.166 156.79 628.836 155.316 627.676 152.316C624.332 143.67 628.678 137.645 637.872 137.523C638.519 137.517 639.172 137.436 639.894 137.389C639.014 134.319 638.14 131.405 637.365 128.463C637.08 127.368 636.62 127.181 635.658 127.688C633.421 128.865 631.096 129.15 628.34 128.451C632.856 124.594 637.097 120.982 641.327 117.352C647.794 111.794 653.807 105.787 659.162 99.139C662.308 95.2354 664.825 90.9124 667.482 86.6824C669.83 82.942 671.228 82.9244 674.1 86.1872C674.281 86.3911 674.636 86.4262 674.858 86.6068C678.109 89.3044 681.861 90.4463 686.062 90.3706C689.552 90.3123 693.479 89.4151 694.597 94.4956C694.754 95.2181 695.71 95.8182 696.392 96.3542C701.146 100.095 706.005 103.672 711.61 106.084C712.402 106.428 713.212 107.01 714.063 106.661C717.256 105.356 717.809 107.634 718.421 109.801C720.676 117.789 722.82 125.806 725.174 133.765C726.52 138.321 728.39 142.743 728.512 147.585C728.658 153.615 727.155 159.354 725.069 164.936C724.34 166.882 723.676 168.629 725.477 170.412L725.471 170.418ZM719.656 178.872C718.788 179.845 718.689 181.308 717.232 180.958C716.714 180.83 716.836 180.131 716.924 179.682C718.94 169.043 720.46 158.334 721.631 147.567C721.841 145.645 721.608 144.13 721.025 142.382C719.062 136.497 716.97 130.654 716.201 124.425C715.63 119.77 714.651 115.167 714.022 110.518C713.841 109.19 713.265 108.63 712.111 108.444C703.051 106.981 695.413 102.961 689.464 95.8939C688.713 95.0025 687.973 94.8627 686.767 94.9326C681.966 95.2123 677.153 95.148 672.76 92.7301C671.88 92.2465 671.269 92.2816 670.616 93.1614C667.994 96.7271 665.431 100.345 662.628 103.765C656.86 110.809 650.667 117.463 643.355 122.951C640.045 125.433 640.01 125.346 641.747 128.976C642.487 130.525 643.192 132.093 643.815 133.695C645.522 138.076 646.938 142.545 646.821 147.311C646.804 148.127 646.845 149.478 645.668 149.677C644.468 149.88 643.547 148.937 643.396 147.87C642.854 144.048 640.145 144.235 637.447 144.55C634.988 144.835 632.681 145.755 631.539 148.098C630.543 150.137 631.615 151.914 632.844 153.65C635.938 158.026 639.847 161.638 643.675 165.314C645.703 167.26 647.952 168.991 651.11 167.324C651.669 167.027 652.852 166.847 653.23 167.621C654.32 169.859 656.301 171.304 658.095 172.708C664.941 178.062 670.348 185.531 679.845 187.676C676.559 187.722 676.914 189.33 677.759 191.224C677.905 191.55 677.759 191.999 677.829 192.378C678.785 197.86 678.324 203.389 678.383 208.901C678.4 210.457 678.476 211.266 680.486 211.75C687.6 213.451 694.673 215.327 701.973 215.974C707.864 216.493 713.801 216.708 718.957 212.944C721.247 211.272 723.158 209.536 722.715 206.11C721.555 197.161 720.682 188.177 719.656 178.878V178.872ZM575.653 127.525C580.407 123.837 584.189 119.228 588.098 114.748C588.791 113.95 589.193 113.571 588.057 112.435C586.927 111.305 587.609 109.498 589.287 108.782C590.592 108.228 592.013 107.879 593.417 107.622C596.523 107.051 599.652 106.574 602.775 106.096C603.812 105.939 604.802 106.212 605.14 107.296C605.42 108.199 604.598 108.665 603.928 108.997C603.06 109.429 602.891 110.116 602.571 110.978C601.772 113.111 602.349 115.022 602.617 117.125C603.089 120.83 602.815 124.617 601.714 128.271C601.528 128.882 601.196 130.269 602.431 129.669C604.668 128.585 607.593 128.341 608.111 124.804C608.659 121.052 610.302 117.451 610.704 113.699C611.112 109.964 613.495 106.475 612.05 102.495C610.535 98.341 611.199 96.6397 616.303 93.4993C617.457 92.7885 618.162 92.2001 618.488 90.7902C621.541 77.6285 631.015 70.2349 642.842 66.2147C649.449 63.9716 656.586 61.8567 663.957 62.9579C664.854 63.0919 667.458 59.4388 667.161 58.6115C666.153 55.8032 665.92 52.8725 665.512 49.936C664.97 46.0499 665.186 42.1403 664.918 38.0094C655.905 43.5503 647.089 48.7008 638.56 54.2824C625.736 62.6723 613.169 71.4641 601.05 80.8328C595.428 85.1792 589.217 88.9198 586.35 96.3892C582.429 106.609 578.118 116.659 575.659 127.513L575.653 127.525ZM727.359 203.879C732.183 200.004 732.742 194.475 734.269 189.587C736.424 182.7 733.983 176.134 731.297 169.777C730.883 168.798 730.353 169.224 729.724 169.632C728.757 170.255 727.766 170.925 726.683 171.281C725.5 171.665 725.482 172.417 725.681 173.314C726.945 179.088 727.341 184.949 727.353 190.839C727.359 195.069 727.353 199.293 727.353 203.885L727.359 203.879ZM291.906 180.154C291.906 183.79 291.696 187.443 291.993 191.049C292.151 192.983 291.906 194.953 292.518 196.899C293.095 198.728 293.619 199.387 295.483 198.117C297.039 197.056 298.816 196.252 300.593 195.594C302.12 195.029 302.155 194.487 301.228 193.287C298.024 189.115 295.454 184.564 293.532 179.659C293.328 179.146 293.712 178.021 292.524 178.511C291.871 178.779 291.009 179.099 291.906 180.148V180.154ZM294.668 204.205C295.955 204.589 296.643 204.514 297.435 204.263C303.25 202.434 308.26 198.629 314.302 197.33C314.576 197.272 315.52 197.277 315.27 196.316C314.902 194.912 312.304 193.38 310.999 194.067C305.435 196.974 299.917 199.969 294.674 204.211L294.668 204.205ZM278.937 185.182C278.983 185.741 278.983 186.312 279.088 186.86C280.184 192.611 282.974 197.936 283.353 203.879C283.435 205.12 284.961 204.898 285.654 205.597C286.091 206.034 286.866 206.093 287.012 205.318C287.193 204.368 288.76 203.984 287.868 202.574C284.402 197.085 282.106 191.003 278.937 185.176V185.182ZM342.857 200.523C339.315 200.196 336.198 200.348 333.552 202.853C334.496 203.349 335.207 203.867 336 204.118C337.94 204.723 339.501 207.841 340.94 206.833C342.309 205.871 342.234 202.859 342.857 200.523ZM339.67 209.484C337.211 208.802 334.683 208.307 332.323 207.374C330.389 206.605 329.585 207.112 329.247 208.988C331.805 209.274 332.189 209.437 334.106 211.045C337.147 213.603 337.812 213.416 339.664 209.484H339.67ZM334.601 215.211C332.003 214.477 329.328 214.127 328.583 210.148V218.275C330.744 217.483 332.824 217.034 334.601 215.205V215.211ZM390.114 226.025C389.328 224.358 388.664 222.785 387.848 221.282C387.341 220.344 386.718 221.194 386.152 221.381C385.302 221.66 385.605 222.115 385.873 222.686C386.432 223.88 386.863 225.133 387.428 226.327C387.708 226.922 388.145 227.598 388.955 226.922C389.345 226.596 390.19 226.747 390.114 226.03V226.025ZM345.613 211.348C347.594 210.952 348.526 209.384 350.268 209.682C351.288 209.856 351.061 208.889 351.09 208.248C351.125 207.549 351.142 207.019 350.181 206.809C346.568 206.023 346.813 209.017 345.607 211.342L345.613 211.348ZM395.428 246.16C394.997 245.001 395.958 243.014 393.598 242.961C391.699 242.915 392.707 244.447 392.503 245.28C392.101 246.894 392.859 247.856 394.449 248.025C396.121 248.199 395.043 246.819 395.428 246.166V246.16ZM393.435 235.014C392.719 232.94 393.01 231.134 391.483 230.441C391.006 230.225 389.269 231.123 389.782 232.165C390.342 233.296 389.794 235.527 392.171 235.364C392.853 235.317 393.604 235.382 393.435 235.009V235.014ZM592.06 117.673L592.619 118.249C594.379 116.035 596.144 113.821 597.933 111.578C593.237 111.275 593.592 115.295 592.06 117.673ZM384.626 215.223C383.921 215.712 383.012 216.132 383.286 216.772C383.688 217.71 383.74 219.126 385.092 219.289C385.412 219.33 386.787 219.371 386.444 218.351C386.065 217.238 385.261 216.265 384.626 215.217V215.223ZM360.01 222.354C361.897 221.573 362.387 219.942 362.766 218.252C362.853 217.868 362.742 217.483 362.323 217.297C361.851 217.087 361.542 217.407 361.396 217.734C360.767 219.184 359.654 220.507 360.004 222.348L360.01 222.354Z" fill="black"/>
<path d="M667.447 362.75C667.604 362.494 667.668 362.308 667.796 362.191C669.801 360.373 671.304 356.93 673.599 356.854C675.778 356.784 678.051 359.476 680.27 360.962C688.975 366.788 698.618 370.185 708.831 372.242C716.003 373.681 723.298 373.989 730.441 373.243C748.724 371.327 764.362 364.318 773.87 347.485C779.178 338.088 780.699 327.944 779.259 317.2C777.249 302.18 770.363 289.852 759.234 279.836C751.52 272.897 742.6 267.892 732.789 264.461C731.542 264.024 729.311 264.263 729.567 262.113C729.817 260.004 732.719 258.168 734.851 258.722C737.893 259.508 740.928 260.458 743.824 261.681C753.921 265.952 763.004 271.808 770.374 280C779.067 289.665 785.558 300.665 786.612 313.821C788.453 336.736 780.058 355.106 760.545 367.872C752.89 372.877 744.721 376.914 735.807 379.111C724.207 381.971 712.577 382.123 700.878 379.285C689.628 376.559 679.274 372.049 670.039 365.04C669.119 364.341 668.303 363.508 667.453 362.75H667.447Z" fill="black"/>
<path d="M761.163 331.44C761.501 336.124 759.322 339.614 755.622 342.125C744.54 349.641 732.503 355.013 719.184 356.889C712.56 357.821 706.046 356.545 700.721 352.17C694.329 346.92 694.58 340.68 699.456 333.473C702.766 328.579 708.044 326.074 713.271 324.011C721.503 320.76 729.922 317.94 738.58 315.983C744.838 314.561 757.015 318.692 760.213 326.097C760.976 327.868 761.14 329.599 761.169 331.446L761.163 331.44ZM746.119 342.574C730.854 336.701 716.784 340.989 702.585 346.885C703.634 348.534 704.688 349.047 705.743 349.478C710.41 351.372 715.088 352.007 720.256 351.395C729.549 350.299 737.922 346.897 746.119 342.574ZM712.577 338.944C714.011 338.216 716.749 339.154 717.978 337.01C719.091 335.075 719.767 332.809 720.221 330.601C720.647 328.521 719.266 327.676 717.221 328.573C715.211 329.459 713.224 330.397 711.278 331.417C710.212 331.976 708.033 331.83 709.658 334.33C710.247 335.233 708.93 337.155 710.212 338.484C710.759 339.049 711.354 339.13 712.571 338.938L712.577 338.944ZM735.469 328.113C735.609 322.799 734.624 322.089 729.969 323.714C729.165 323.994 728.279 324.122 727.551 324.524C726.106 325.328 723.286 325.293 723.338 326.627C723.403 328.27 725.523 329.668 727.102 330.723C729.048 332.022 731.256 332.669 733.61 331.597C735.317 330.816 735.393 329.272 735.469 328.119V328.113Z" fill="black"/>
<path d="M668.944 284.154C668.542 284.154 668.419 284.188 668.355 284.154C662.628 280.46 662.605 280.442 658.73 286.274C651.867 296.604 649.822 307.89 651.558 320.125C653.277 332.22 659.126 341.997 667.266 350.731C668.897 352.485 670.086 352.304 671.612 350.76C675.195 347.147 678.767 343.506 683.317 339.987C682.624 341.799 681.802 342.807 680.905 343.751C676.436 348.447 672.172 353.364 667.435 357.775C652.694 371.519 638.787 386.096 624.448 400.243C623.487 401.192 622.409 402.026 621.337 402.853C620.923 403.168 620.37 403.709 619.834 403.103C619.339 402.55 619.805 402.055 620.125 401.565C621.395 399.637 622.817 397.825 624.454 396.188C636.579 384.051 648.575 371.781 661.183 360.146C662.605 358.835 662.546 358.118 661.3 356.767C654.43 349.321 649.49 340.657 646.507 331.038C641.082 313.57 644.741 297.542 655.141 282.848C658.882 277.558 659.022 277.581 653.417 274.342C641.962 267.723 631.475 259.695 620.783 251.975C620.626 251.864 620.428 251.788 620.306 251.649C619.455 250.676 617.94 249.493 618.82 248.362C619.647 247.302 621.18 248.595 622.059 249.236C634.027 257.987 645.971 266.774 657.81 275.699C659.429 276.923 660.228 276.62 661.41 275.396C670.237 266.272 681.057 260.574 693.152 257.114C693.245 257.084 693.327 257.015 693.42 256.997C695.418 256.659 698.163 257.224 699.153 255.523C700.045 253.996 699.328 251.555 699.398 249.522C699.479 247.221 699.176 244.913 699.905 242.623C700.347 241.237 700.849 241.388 701.961 241.779C705.329 242.967 706.78 245.234 706.384 248.77C706.168 250.681 706.692 252.627 706.022 254.532C705.457 256.14 706.815 255.733 707.526 255.721C709.763 255.68 711.942 255.82 714.045 256.706C714.966 257.096 716.044 257.469 716.055 258.529C716.079 259.869 714.669 259.252 714.01 259.432C711.901 260.003 709.705 260.301 707.531 260.569C705.393 260.831 704.35 261.833 703.989 264.058C703.447 267.356 702.305 270.526 700.919 273.573C700.546 274.394 700.47 275.863 698.798 275.222C697.545 274.744 696.741 273.911 697.114 272.588C697.895 269.809 697.9 266.902 698.576 264.128C698.984 262.445 698.576 261.868 697.009 262.2C685.141 264.723 674.187 269.063 665.53 278.018C663.898 279.708 663.852 280.623 666.083 281.689C667.126 282.184 668.361 282.744 668.955 284.165L668.944 284.154Z" fill="black"/>
<path d="M788.272 443.841C786.285 444.849 784.164 444.628 782.248 444.295C778.193 443.596 774.143 443.876 770.088 443.853C758.354 443.794 746.614 444.062 734.886 443.765C723.583 443.48 712.279 442.775 701.413 439.145C700.149 438.726 698.867 438.242 697.743 437.549C697.102 437.152 696.193 436.599 696.508 435.48C696.84 434.303 697.83 434.449 698.652 434.536C701.99 434.886 705.387 435.026 708.626 435.795C711.767 436.541 714.954 436.453 718.077 436.704C725.674 437.316 733.33 437.484 740.957 437.356C750.261 437.205 759.537 437.852 768.812 438.137C774.015 438.294 779.323 438.69 784.409 440.293C786.303 440.887 787.608 441.866 788.266 443.835L788.272 443.841Z" fill="black"/>
<path d="M801.702 384.902C799.028 360.694 794.944 336.748 792.199 312.639C789.473 288.687 784.206 265.172 780.279 241.389C782.283 242.175 782.668 243.9 783.18 245.409C787.066 256.805 789.548 268.527 791.454 280.407C793.149 291.017 794.367 301.673 795.526 312.353C797.263 328.358 798.772 344.38 800.158 360.414C800.863 368.589 801.702 376.751 801.702 384.902Z" fill="black"/>
<path d="M784.014 229.217C784.119 229.882 783.95 230.47 783.256 230.552C782.423 230.651 782.19 229.905 781.905 229.281C780.128 225.349 778.415 221.387 776.527 217.506C769.262 202.562 761.897 187.664 754.667 172.696C753.047 169.346 751.404 165.973 750.559 162.302C750.454 161.848 750.052 161.405 750.087 160.98C750.169 159.873 749.417 158.294 750.647 157.781C752.039 157.204 752.674 158.742 753.391 159.721C764.589 174.974 771.942 192.104 777.925 209.903C779.801 215.485 781.613 221.09 783.431 226.689C783.693 227.505 783.822 228.367 784.014 229.206V229.217Z" fill="black"/>
<path d="M769.116 243.428C760.819 217.675 752.033 192.086 741.854 166.986C741.283 165.582 740.689 164.172 740.281 162.716C740.066 161.952 739.693 160.787 740.619 160.374C741.755 159.867 742.291 160.851 742.676 161.824C743.556 164.05 744.494 166.252 745.391 168.472C755.203 192.849 762.48 218.025 769.122 243.428H769.116Z" fill="black"/>
<path d="M725.052 247.739C723.828 255.15 722.686 263.015 718.544 270.007C718.072 270.805 717.792 272.425 716.405 271.895C714.844 271.295 716.091 270.042 716.295 269.174C717.635 263.563 718.025 257.836 718.672 252.132C718.94 249.778 718.235 246.842 721.398 245.426C722.278 245.03 722.878 243.701 724.067 244.202C725.448 244.785 724.894 246.189 725.052 247.733V247.739Z" fill="black"/>
<path d="M758.18 298.632C758.285 301.324 756.747 302.465 755.383 303.631C754.014 304.796 752.82 303.579 751.73 302.978C749.149 301.539 747.087 294.88 748.38 292.246C749.003 290.982 749.895 289.63 751.159 291.774C751.462 292.287 751.8 292.345 752.272 292.438C755.832 293.143 758.127 295.789 758.174 298.638L758.18 298.632Z" fill="black"/>
<path d="M795.881 421.526C792.246 424.999 787.917 427.318 783.46 429.398C777.045 432.387 770.578 435.23 763.528 436.459C762.642 436.616 761.617 437.508 761.18 436.098C760.778 434.805 762.013 434.513 762.893 434.216C769.447 431.985 776.031 429.835 782.574 427.568C787.183 425.972 791.389 423.478 795.875 421.526H795.881Z" fill="black"/>
<path d="M677.264 315.93C677.252 314.031 678.05 313.151 680.084 313.372C684.506 313.862 687.361 315.837 687.978 319.018C688.444 321.43 685.252 324.32 682.927 323.592C679.268 322.444 677.246 319.711 677.27 315.936L677.264 315.93Z" fill="black"/>
<path d="M832.919 412.461C832.133 412.443 831.603 412.228 831.236 411.738C830.758 411.092 831.236 410.672 831.655 410.282C834.679 407.456 837.703 404.624 840.744 401.816C841.461 401.152 842.294 401.024 843.08 401.694C844.03 402.503 844.077 403.378 843.395 404.479C841.595 407.392 838.594 408.784 835.932 410.608C834.918 411.301 833.834 411.901 832.925 412.461H832.919Z" fill="black"/>
<path d="M412.499 244.034C414.87 241.919 421.949 243.014 425.858 245.98C423.691 246.492 415.517 245.356 412.499 244.034Z" fill="black"/>
<path d="M421.006 232.917C422.8 232.841 424.303 233.832 425.935 234.298C426.418 234.438 427.403 234.444 427.036 235.481C426.791 236.18 426.302 236.588 425.515 236.512C423.528 236.314 421.536 236.18 419.567 235.883C418.663 235.749 417.341 235.492 417.347 234.478C417.347 233.465 418.722 233.372 419.584 233.063C420.021 232.906 420.528 232.958 421.006 232.917Z" fill="black"/>
<path d="M414.148 251.922C414.416 251.829 414.667 251.684 414.929 251.666C416.432 251.573 417.79 251.928 418.588 253.315C418.792 253.665 418.303 253.869 417.901 253.979C416.339 254.422 415.168 253.81 414.143 251.922H414.148Z" fill="black"/>
<path d="M430.677 348.814C428.749 349.117 427.234 347.09 425.154 348.167C426.529 346.111 428.819 346.449 430.677 348.814Z" fill="black"/>
<path d="M223.307 850.669C214.539 850.96 207.157 846.486 200.189 841.067C198.639 839.861 198.196 838.189 199.373 836.546C200.445 835.054 201.96 835.643 203.247 836.354C207.081 838.486 210.874 840.694 214.696 842.856C219.054 845.32 223.774 846.701 228.708 847.394C229.53 847.511 230.555 847.225 230.643 848.536C230.724 849.725 229.786 850.063 228.971 850.139C227.252 850.302 225.591 851.024 223.313 850.669H223.307Z" fill="black"/>
<path d="M701.484 1048.13C701.286 1049.32 700.447 1049.1 699.27 1048.54C696.199 1047.1 693.554 1045.02 691.025 1042.86C687.017 1039.43 682.496 1036.59 679.326 1032.17C677.829 1030.08 678.65 1028.7 679.926 1027.38C681.47 1025.79 682.904 1026.75 684.104 1028.08C689.61 1034.16 695.104 1040.24 700.61 1046.31C700.988 1046.73 701.594 1046.97 701.484 1048.13Z" fill="black"/>
<path d="M656.924 195.768C657.093 197.65 656.662 199.48 655.66 201.164C655.38 201.636 655.048 202.277 654.361 202.061C653.667 201.845 653.685 200.995 653.871 200.604C655.759 196.66 653.324 193.922 651.389 190.962C650.329 189.342 648.581 186.889 650.48 185.671C652.473 184.395 653.772 187.192 654.978 188.701C656.598 190.723 657.431 193.036 656.918 195.763L656.924 195.768Z" fill="black"/>
<path d="M632.197 207.922C634.755 198.629 631.923 190.845 626.01 183.894C627.979 183.405 629.628 184.098 631.492 187.052C635.751 193.805 635.757 200.814 632.197 207.922Z" fill="black"/>
<path d="M640.465 196.427C639.836 194.178 641.462 192.838 643.827 191.952C645.721 191.242 646.804 192.284 646.88 193.875C646.991 196.316 646.035 198.624 644.293 200.342C642.452 202.154 641.129 201.612 640.623 199.06C640.494 198.402 640.535 197.709 640.471 196.433L640.465 196.427Z" fill="black"/>
<path d="M645.219 127.082C645.446 123.994 648.29 122.421 651.098 120.97C653.586 119.689 656.371 119.98 659.063 120.12C660.024 120.172 661.02 120.702 661.422 121.605C661.923 122.73 660.927 123.423 660.187 123.982C656.918 126.47 653.656 128.987 650.259 131.295C648.342 132.594 645.254 130.321 645.213 127.082H645.219Z" fill="black"/>
<path d="M700.849 108.38C703.319 108.473 705.178 108.123 706.844 109.172C707.706 109.714 708.831 109.982 708.598 111.433C708.394 112.697 707.951 113.367 706.529 113.722C702.084 114.835 697.644 115.808 693.047 116.001C691.765 116.053 690.233 116.368 689.953 114.771C689.691 113.297 690.151 111.677 691.649 110.821C694.696 109.067 697.976 108.164 700.854 108.38H700.849Z" fill="black"/>
<path d="M690.449 142.667C691.364 140.028 692.453 137.5 690.932 134.784C688.695 135.146 687.25 137.127 685.036 137.622C684.127 137.826 683.317 138.065 682.735 137.319C682.088 136.492 682.688 135.653 683.154 134.936C684.564 132.769 690.501 130.508 692.943 131.16C695.145 131.749 696.363 134.307 695.308 136.387C694.114 138.741 692.709 140.972 690.461 142.673L690.449 142.667Z" fill="black"/>
<path d="M664.434 139.3C664.434 139.842 664.452 140.512 664.434 141.182C664.399 142.295 663.642 142.941 662.733 143.268C661.731 143.629 660.863 143.18 660.227 142.33C658.579 140.116 658.293 137.593 658.742 134.989C658.876 134.225 659.476 133.13 660.414 133.34C661.626 133.614 662.972 133.899 663.799 135.07C664.69 136.335 664.819 137.704 664.434 139.294V139.3Z" fill="black"/>
<path d="M705.259 129.232C705.195 131.201 704.834 132.984 702.305 132.926C699.882 132.873 697.481 129.832 697.703 126.96C697.773 126.033 697.877 124.781 699.439 124.851C703.36 125.025 705.335 126.488 705.259 129.226V129.232Z" fill="black"/>
<path d="M700.983 156.616C700.843 158.708 698.186 161.836 696.776 161.283C695.051 160.607 692.261 160.869 692.406 157.781C692.505 155.748 695.139 154.39 698.268 154.367C700.039 154.355 700.557 155.34 700.983 156.616Z" fill="black"/>
<path d="M645.068 154.635C644.981 154.757 644.876 155.049 644.672 155.171C644.112 155.503 643.839 154.961 643.501 154.681C641.782 153.242 639.684 152.706 637.616 152.025C636.894 151.786 635.39 152.322 635.577 150.894C635.769 149.484 636.433 148.139 638.245 148.011C640.821 147.824 645.173 151.943 645.062 154.635H645.068Z" fill="black"/>
</svg>
