<svg width="1080" height="1080" viewBox="0 0 1080 1080" fill="none" xmlns="http://www.w3.org/2000/svg">
<path d="M755.881 306.947C754.377 310.598 753.517 314.733 751.22 317.79C748.12 321.919 746.492 326.592 744.443 331.128C743.156 333.982 743.769 336.878 744.988 339.688C747.154 344.689 749.358 349.684 751.332 354.766C754.272 362.335 753.832 369.8 749.877 376.924C746.591 382.841 743.143 388.665 739.764 394.526C739.51 394.972 739.331 395.56 738.941 395.807C733.729 399.193 733.655 404.844 733.086 410C732.176 418.281 728.413 425.195 723.195 431.192C720.069 434.782 715.644 437.239 711.064 440.767C713.502 447.148 716.083 454.012 718.745 460.839C720.942 466.484 722.749 472.333 721.716 478.349C720.849 483.412 717.637 487.546 714.159 491.359C709.052 496.96 704.027 502.636 699.032 508.336C698.568 508.869 698.394 509.785 698.357 510.54C698.258 512.285 698.14 514.068 698.357 515.795C699.217 522.634 695.2 527.004 690.571 530.866C684.784 535.693 677.437 536.999 670.449 539.036C667.571 539.871 664.656 540.577 661.809 541.493C648.619 545.72 635.523 550.245 622.246 554.15C614.782 556.347 606.996 557.554 599.37 554.466C597.73 553.803 596.276 552.485 594.982 551.216C593.924 550.177 593.317 549.217 591.454 549.948C581.341 553.915 571.067 557.492 561.027 561.639C553.674 564.678 546.606 568.41 539.395 571.802C534.048 574.315 529.474 577.973 525.983 582.578C524.541 584.478 524.826 587.709 524.411 590.352C523.99 593.063 523.037 595.371 520.382 596.634C518.618 597.476 517.596 597.148 516.909 595.118C511.457 578.982 505.663 562.958 500.6 546.698C499.493 543.139 497.778 541.722 494.789 540.923C491.428 540.026 489.336 537.835 488.556 534.61C487.349 529.653 486.52 524.602 485.368 519.632C484.91 517.645 484.421 516.222 481.661 515.188C476.969 513.436 472.674 510.236 468.707 507.037C462.66 502.159 458.148 495.89 454.471 489.044C453.227 486.729 452.986 484.495 453.728 481.809C455.461 475.533 457.287 469.201 458.061 462.764C459.825 448.083 462.035 433.563 468.001 420.113C459.584 413.695 451.383 407.443 443.175 401.186C442.854 400.938 442.581 400.592 442.228 400.425C435.005 396.965 435.798 393.276 436.776 386.239C437.438 381.436 437.63 381.027 433.638 378.743C432.084 377.858 430.599 376.856 429.064 375.939C426.798 374.584 424.675 373.625 421.698 373.563C416.635 373.458 412.117 370.877 408.342 367.349C405.971 365.133 403.743 362.75 401.317 360.596C396.341 356.202 394.422 350.6 394.379 344.138C394.372 343.136 393.784 342.139 393.221 340.382C393.53 337.986 394.081 334.564 394.391 331.122C394.719 327.489 394.391 323.732 395.214 320.235C395.629 318.465 397.95 317.134 399.868 315.123C399.59 314.046 399.101 312.152 398.804 311.007C396.081 310.419 393.599 310.276 391.525 309.286C390.423 308.76 389.415 306.73 389.47 305.424C389.544 303.679 390.331 301.667 391.476 300.336C392.775 298.82 394.174 297.675 393.859 295.41C393.76 294.698 394.131 293.831 394.502 293.157C395.994 290.452 397.634 287.828 399.095 285.104C401.205 281.168 402.932 280.307 406.739 282.56C409.462 284.17 411.901 284.145 414.766 283.483C417.7 282.802 420.751 282.666 423.722 282.146C424.651 281.985 425.709 281.583 426.347 280.939C430.06 277.2 434.77 277.269 439.016 278.649C443.386 280.066 447.285 278.011 451.444 278.389C453.84 278.605 456.365 277.788 458.785 277.244C461.651 276.594 468.156 278.649 469.313 280.728C473.522 280.097 472.977 276.433 473.565 273.697C474.444 269.6 474.921 265.416 475.527 261.269C475.632 260.539 475.843 259.486 475.465 259.078C472.538 255.915 473.188 252.443 474.84 249.2C477.155 244.651 479.965 240.349 482.453 235.88C483.988 233.12 485.282 230.217 486.755 227.419C487.64 225.742 488.865 224.226 489.571 222.486C490.066 221.261 490.196 219.751 490.023 218.432C489.732 216.198 488.872 214.025 488.618 211.791C488.203 208.127 490.753 204.098 494.114 202.321C497.45 200.551 500.836 198.818 503.961 196.714C505.799 195.476 507.291 193.644 508.696 191.892C509.024 191.484 508.572 190.172 508.151 189.478C503.732 182.194 499.251 174.983 496.348 166.856C495.661 164.931 493.148 163.477 491.211 162.214C488.395 160.376 486.773 158.074 487.293 154.682C488.129 149.223 486.637 145.039 481.729 141.938C477.229 139.091 477.273 133.879 476.103 129.305C474.426 122.726 474.865 115.478 469.66 109.933C468.577 108.781 469.016 106.225 468.7 104.331C468.187 101.28 467.388 98.2533 467.215 95.1895C467.147 94.0321 468.608 91.7049 469.146 91.7668C473.212 92.2558 475.131 88.8207 477.514 86.9762C483.963 81.9938 491.236 78.8125 498.756 76.3429C513.146 71.6142 527.654 67.2012 542.267 63.24C552.139 60.56 562.278 58.8765 572.298 56.7288C572.453 56.6978 572.558 56.4441 572.688 56.2955C574.545 56.2955 576.402 56.2955 578.258 56.2955C583.792 57.4715 586.831 61.2099 588.527 66.3161C588.842 67.2631 589.059 68.2534 589.486 69.1447C591.132 72.5921 592.445 76.3058 596.393 77.9831C596.827 78.1688 597.322 78.6763 597.415 79.1157C598.324 83.3864 594.512 91.3645 590.897 93.178C591.819 98.2347 592.729 103.23 593.645 108.231C594.704 107.872 595.502 107.711 596.195 107.352C598.646 106.064 599.878 106.727 599.89 109.549C599.89 110.725 599.649 111.944 599.302 113.083C598.436 115.918 597.384 118.697 596.529 121.532C594.97 126.737 594.32 131.75 597.65 136.788C599.977 140.316 601.469 144.389 603.146 147.83C615.178 143.863 625.248 147.323 635.046 153.289C637.286 150.622 640.499 149.186 643.977 149.866C648.941 150.838 653.757 152.565 658.659 153.883C663.759 155.257 668.852 156.693 674.014 157.783C678.78 158.792 682.537 160.803 685.384 165.018C688.367 169.437 692.131 173.324 695.436 177.527C698.493 181.42 701.452 185.406 704.336 189.429C704.881 190.184 705.252 191.397 705.079 192.276C704.218 196.602 703.154 200.892 702.095 205.453C702.145 205.478 702.882 205.781 703.55 206.19C711.423 211.005 719.048 216.105 721.697 225.711C722.576 228.899 723.294 231.851 727.534 231.548C727.819 231.529 728.196 231.975 728.431 232.284C730.369 234.76 733.68 235.961 734.602 239.464C735.011 241.011 736.217 242.639 737.53 243.605C743.768 248.209 747.569 254.603 750.694 261.411C752.186 264.661 753.987 268.127 751.604 271.939C749.729 274.929 750.75 278.055 751.518 281.217C752.397 284.82 752.65 288.576 753.473 292.191C754 294.5 755.07 296.691 755.893 298.931C755.893 301.611 755.893 304.298 755.893 306.978L755.881 306.947Z" fill="white"/>
<path d="M328.196 998.919C329.91 993.292 333.71 989.48 339.318 988.316C342.765 987.598 346.665 987.833 350.131 988.632C359.074 990.693 367.956 990.662 376.881 989.028C389.786 986.67 401.967 982.139 412.124 973.839C422.249 965.564 431.645 956.354 434.746 942.725C435.037 941.456 436.596 940.497 437.494 939.334C437.902 938.807 438.162 938.151 438.422 937.52C439.802 934.203 441.108 930.848 442.569 927.561C442.953 926.695 443.813 926.039 444.451 925.284C445.057 925.983 445.664 926.682 446.444 927.574C451.172 925.735 455.239 928.007 459.181 930.916C461.936 932.946 464.888 934.716 467.562 936.845C471.269 939.804 475.063 942.738 478.251 946.21C479.371 947.429 479.544 950.443 478.913 952.201C476.27 959.61 473.318 966.92 470.174 974.136C468.28 978.488 468.967 981.149 474.351 985.172C472.501 991.869 470.495 998.764 468.707 1005.72C466.658 1013.7 464.548 1021.68 462.938 1029.76C461.082 1039.04 455.257 1046.31 451.098 1054.42C450.498 1055.59 448.826 1056.22 447.65 1057.1H443.318C442.575 1056.69 441.863 1055.99 441.084 1055.92C437.735 1055.59 434.368 1055.3 431.007 1055.28C424.539 1055.23 418.257 1054.59 412.124 1052.18C404.616 1049.23 397.015 1046.38 389.254 1044.22C382.124 1042.24 375.365 1039.91 369.305 1035.49C361.736 1029.96 354.63 1023.74 345.922 1019.82C341.831 1017.98 338.099 1015.26 334.366 1012.7C330.684 1010.17 329.031 1006.29 328.196 1002.02V998.925V998.919Z" fill="white"/>
<path d="M697.453 911.735C698.97 913.01 700.053 913.852 701.05 914.792C701.464 915.182 701.836 915.733 701.997 916.278C704.404 924.473 706.768 932.674 709.195 941.06C711.503 940.113 713.051 939.482 714.487 938.894C720.484 944.13 721.171 951.656 723.535 958.217C727.422 969.017 730.288 980.183 733.63 991.182C734.144 992.871 734.738 994.58 735.598 996.108C736.867 998.374 735.76 999.76 734.181 1001.1C733.798 1001.43 733.358 1001.69 732.937 1001.98C724.854 1007.5 716.882 1013.19 708.662 1018.49C702.083 1022.73 695.188 1026.49 688.442 1030.47C683.224 1033.55 678.279 1037.28 672.746 1039.59C666.197 1042.34 659.172 1043.98 652.302 1045.9C648.557 1046.95 644.664 1048.37 640.889 1048.24C631.289 1047.91 621.46 1049.28 612.207 1045.25C609.861 1044.23 606.965 1044.21 604.916 1042.83C600.701 1040 599.983 1033.68 602.787 1029.11C603.084 1028.63 603.09 1027.96 603.647 1028.18C605.578 1027.3 607.769 1026.75 609.385 1025.48C614.751 1021.26 619.956 1016.82 625.149 1012.39C631.413 1007.04 637.992 1001.98 643.705 996.096C648.075 991.59 651.621 986.168 654.92 980.784C656.319 978.5 656.449 975.275 656.628 972.446C656.925 967.724 656.994 962.958 656.746 958.236C656.635 956.088 656.319 954.064 658.12 952.622C659.37 951.619 660.874 950.852 662.378 950.276C664.087 949.62 665.987 949.447 667.652 948.723C668.209 948.481 668.58 947.163 668.512 946.383C668.469 945.894 667.429 945.51 666.853 945.058C666.216 944.557 665.058 944.037 665.052 943.517C665.021 940.033 665.114 936.536 665.405 933.057C665.962 926.404 670.814 922.696 675.648 919.311C679.325 916.736 683.54 914.935 687.513 912.781C687.773 912.639 688.206 912.304 688.268 912.366C691.778 915.801 694.86 911.716 697.466 911.729L697.453 911.735Z" fill="white"/>
<path d="M561.083 763.035C556.986 758.913 555.147 753.714 554.807 748.28C555.197 747.32 555.773 746.386 555.94 745.389C556.701 740.97 557.338 736.532 558.112 731.543C559.721 732.559 560.569 733.091 561.3 733.549C562.389 730.442 563.014 726.84 564.784 723.931C570.577 714.418 572.707 703.431 577.497 693.535C579.038 690.353 579.688 686.714 581.409 683.656C583.272 680.351 585.909 677.486 588.304 674.292C591.553 675.418 591.72 675.889 590.637 679.751C586.874 693.231 582.622 706.6 576.185 719.004C573.041 725.057 570.386 731.172 568.096 737.522C567.99 737.807 567.891 738.259 567.693 738.321C563.522 739.596 564.858 743.761 563.41 746.454C562.407 748.317 561.089 750.167 560.718 752.167C560.353 754.135 560.972 756.295 561.232 758.356C561.417 759.823 561.721 761.277 561.974 762.738C561.671 762.837 561.368 762.936 561.071 763.035H561.083Z" fill="white"/>
<path d="M393.735 246.507C393.469 248.333 395.746 249.844 392.317 250.883C389.229 251.818 389.526 249.986 388.721 248.377C390.368 247.764 391.841 247.213 393.735 246.507Z" fill="white"/>
<path d="M420.553 276.018C418.325 279.299 414.147 277.949 411.412 280.017C411.263 279.689 411.121 279.354 410.972 279.026C414.03 277.714 417.094 276.402 420.151 275.084C420.287 275.393 420.417 275.709 420.553 276.018Z" fill="white"/>
<path d="M438.651 270.726H450.064C450.052 270.98 450.04 271.24 450.027 271.494C446.215 271.766 442.414 271.741 438.614 271.55C438.626 271.277 438.639 270.999 438.651 270.726Z" fill="white"/>
<path d="M410.817 280.085C410.675 280.32 410.526 280.561 410.384 280.796C410.236 280.629 409.945 280.444 409.963 280.295C409.988 280.085 410.242 279.905 410.396 279.707C410.526 279.825 410.656 279.936 410.817 280.085Z" fill="white"/>
<path d="M591.058 124.503C592.012 126.675 590.062 127.715 588.966 128.618C588.137 129.306 586.144 129.361 585.092 128.841C583.167 127.894 581.898 126.347 580.951 124.038C579.107 119.551 580.66 115.98 582.752 112.452C583.544 111.121 585.011 109.704 587.153 111.585C587.834 112.186 589.814 111.307 591.386 111.078C588.124 104.585 585.197 104.071 580.549 108.788C579.051 110.304 577.813 112.08 576.365 113.646C575.839 114.216 575.04 114.531 574.365 114.965C574.025 114.098 573.264 113.145 573.419 112.378C575.015 104.189 582.09 99.2809 589.016 102.345C589.276 102.456 589.573 102.493 589.938 102.586V93.5124C589.09 94.1561 588.403 94.775 587.629 95.2454C584.43 97.195 580.642 95.103 580.153 91.309C579.416 85.6209 580.221 80.6694 585.698 77.4819C588.112 76.0769 587.048 72.9265 586.162 72.4561C583.501 71.0511 584.856 68.8787 584.287 66.9476C567.582 72.1962 550.357 76.2502 537.378 89.316C536.449 90.2506 535.267 90.9376 534.413 91.9279C532.408 94.2551 529.833 96.4585 532.166 100.147C526.819 99.7636 526.856 94.7626 524.535 92.7696C518.308 94.0508 512.373 95.3754 506.394 96.4771C500.749 97.5231 495.08 98.4082 489.398 99.2313C480.844 100.469 472.259 101.757 463.631 100.098C462.728 99.9246 461.83 98.3834 461.416 97.2941C459.893 93.2896 458.55 89.2231 457.207 85.1505C456.959 84.3892 456.743 83.4299 456.99 82.7305C458.135 79.5615 455.907 77.6119 454.626 75.229C452.515 71.2863 449.099 67.8946 449.476 62.844C449.736 59.3099 450.114 58.7529 453.506 58.7405C460.32 58.7219 460.407 58.7405 462.48 51.9136C463.087 49.9206 463.074 47.742 463.464 44.7587C465.891 43.3166 469.332 41.2803 473.138 39.0273C472.984 37.3376 472.668 35.2951 472.662 33.2465C472.656 31.6991 472.569 29.7309 473.429 28.7592C473.993 28.1278 476.245 28.7468 477.638 29.1553C479.439 29.6814 481.104 30.715 482.911 31.1916C483.617 31.3773 485.22 30.7398 485.294 30.2941C485.857 26.8528 488.643 26.0235 491.193 24.8846C492.288 24.3956 493.378 23.6839 494.523 23.5601C497.766 23.2135 498.799 21.1957 499.047 18.3301C499.189 16.7146 499.369 14.666 501.535 14.9259C503.299 15.1363 505.93 14.6041 505.985 18.0577C506.01 19.3266 507.205 21.0101 509.581 19.8526C511.692 18.8252 514.192 18.6457 516.439 17.8535C517.38 17.5193 518.147 16.6218 518.89 15.8791C519.379 15.3901 519.726 14.7464 520.066 14.1337C521.886 10.8657 524.434 9.47101 527.71 9.94965C528.558 11.7012 528.849 13.3352 529.814 14.0842C532.42 16.0957 529.802 17.9587 530.025 20.323C531.603 20.6078 533.293 20.911 534.952 21.2019C535.905 18.9366 536.592 16.9436 537.551 15.0992C538.442 13.3848 539.631 11.825 540.683 10.1972C541.054 10.2777 541.432 10.352 541.803 10.4324C541.97 11.9674 542.144 13.5085 542.335 15.2911C543.839 14.9878 545.987 13.8923 547.764 14.3255C552.585 15.5077 555.581 13.7128 557.753 9.65256C558.081 9.046 558.614 8.55085 559.053 8C560.087 8 561.114 8 562.148 8C562.989 11.5775 563.825 15.1549 564.747 19.0852C567.248 20.0631 570.361 21.2824 572.676 22.1922C574.427 21.6847 575.634 20.9977 576.773 21.0967C578.079 21.2081 579.323 22.0189 580.728 22.5822C580.728 23.7272 580.159 25.6335 580.827 26.302C583.662 29.1305 581.793 32.0086 581.372 34.8557C586.144 36.9725 590.155 41.5155 592.531 46.8197C592.866 47.5625 592.637 48.6827 592.37 49.5369C592.036 50.5953 591.102 51.5051 590.922 52.5697C590.297 56.2709 589.375 60.0279 589.536 63.7291C589.684 67.1766 589.27 71.571 594.524 72.5056C595.366 72.6542 596.189 73.6569 596.771 74.4491C600.875 80.0629 601.524 87.8615 595.409 93.4629C594.964 93.8714 594.79 94.5707 594.432 95.2454C595.348 95.3197 596.022 95.3816 597.508 95.5053C596.573 97.1827 596.165 98.8786 595.088 99.6708C592.389 101.676 592.265 101.515 592.692 104.059C593.837 103.329 595.267 101.701 596.573 101.788C597.953 101.88 599.983 103.378 600.386 104.672C601.178 107.24 601.654 110.217 601.134 112.798C600.367 116.599 598.677 120.207 599.253 124.249C599.327 124.775 598.851 125.363 598.715 125.938C598.226 128.031 596.926 130.395 597.477 132.184C598.974 137.067 601.265 141.715 603.053 146.011C607.157 145.156 611.533 144.16 615.94 143.355C621.225 142.39 626.406 142.712 631.376 145.002C632.478 145.509 633.672 146.023 634.86 146.128C640.623 146.636 646.453 146.642 652.154 147.515C659.897 148.697 667.287 151.222 674.386 154.657C679.839 157.294 685.508 159.572 689.246 164.597C690.763 166.64 692.459 167.389 694.897 167.816C698.549 168.46 701.873 170.093 704.262 173.244C704.906 174.092 706.044 174.636 707.053 175.132C711.237 177.205 713.664 178.932 713.212 184.063C712.853 188.123 713.008 192.233 712.488 196.262C712.048 199.672 710.959 202.99 710.204 206.363C710.099 206.827 710.061 207.589 710.328 207.799C713.342 210.25 716.418 212.621 719.475 215.016C719.698 214.818 719.927 214.614 720.15 214.416C720.534 216.285 720.973 218.142 721.295 220.023C721.79 222.901 721.79 225.953 722.836 228.602C723.325 229.833 725.789 230.267 727.348 231.09C727.967 231.418 728.574 231.777 729.143 232.179C736.905 237.688 743.075 244.626 748.008 252.759C752.675 260.446 755.516 268.758 757.138 277.547C757.695 280.561 758.363 283.551 758.982 286.547V303.258C758.363 306.544 757.843 309.849 757.107 313.111C755.021 322.302 752.186 331.172 745.793 337.937C748.169 345.147 750.88 352.03 752.619 359.154C753.542 362.942 753.591 367.349 752.601 371.1C751.233 376.28 748.516 381.108 746.251 386.387C747.6 385.657 748.757 384.92 750.008 384.388C750.633 384.122 751.858 383.942 752.044 384.227C752.477 384.889 752.848 386.09 752.52 386.653C751.716 388.046 750.67 389.401 749.426 390.41C746.3 392.936 742.976 395.22 739.82 397.701C739.052 398.308 738.149 399.298 738.093 400.159C737.437 410.229 736.552 420.311 738.489 430.363C738.632 431.118 738.316 432.449 737.777 432.752C736.112 433.699 734.194 434.188 732.448 435.017C725.974 438.081 719.531 441.207 713.441 444.134C715.96 451.023 718.089 457.503 720.689 463.798C724.062 471.98 723.214 480.509 722.861 488.902C722.75 491.619 720.255 494.404 718.405 496.824C716.919 498.768 714.734 500.173 712.915 501.875C711.875 502.847 711.132 504.357 709.931 504.877C706.348 506.436 702.609 507.625 699.422 508.782C700.523 517.02 701.576 524.856 702.628 532.685L701.384 533.317C700.127 532.438 698.871 531.553 698.079 531.002C692.552 534.406 687.173 538.157 681.411 541.165C670.326 546.958 658.244 549.923 646.138 552.745C645.407 552.919 644.528 553.711 644.256 554.423C641.366 561.899 638.531 569.395 635.795 576.927C634.99 579.155 633.969 581.544 634.068 583.816C634.421 592.165 635.572 600.49 635.727 608.833C636.018 624.35 635.659 639.879 635.857 655.402C636.098 674.181 636.507 692.959 637.12 711.725C637.336 718.422 638.135 725.125 639.088 731.767C639.781 736.594 640.09 741.107 635.993 744.907C637.299 745.693 638.407 746.392 639.552 747.03C641.037 747.859 642.603 748.552 644.052 749.444C647.648 751.666 650.142 754.358 651.832 758.697C655.013 766.842 660.398 774.139 663.48 782.309C670.202 800.116 675.921 818.294 682.29 836.237C687.953 852.187 693.87 868.05 699.83 883.895C702.919 892.109 706.366 900.18 709.572 908.349C709.95 909.309 710.259 910.8 709.789 911.487C707.87 914.285 705.636 916.866 703.024 920.153C704.144 923.91 705.5 928.651 707.06 933.33C707.239 933.862 708.892 934.512 709.343 934.24C712.89 932.117 712.939 932.067 715.174 935.583C715.984 936.858 716.925 938.089 717.489 939.47C720.726 947.404 724.204 955.265 726.952 963.367C731.012 975.312 735.06 987.32 736.515 999.946C736.676 1001.32 735.221 1002.88 734.515 1004.35C733.408 1003.65 732.3 1002.95 731.192 1002.24C730.74 1001.96 730.288 1001.67 729.836 1001.38L729.942 1001.49C729.781 1000.71 729.781 999.853 729.434 999.166C728.648 997.588 727.441 996.189 726.847 994.555C723.87 986.336 721.035 978.06 718.151 969.804C715.044 960.916 711.943 952.028 708.768 942.948C705.487 947.417 702.411 951.607 699.23 955.94C698.246 955.81 696.791 955.624 695.337 955.432L695.931 954.702C694.885 953.495 693.981 952.127 692.768 951.13C690.905 949.602 688.912 948.184 686.814 947.014C685.657 946.371 684.029 945.801 682.847 946.105C676.905 947.621 671.037 949.447 665.145 951.143C663.771 951.539 661.233 949.595 661.902 948.679C663.61 946.352 661.939 944.013 662.366 941.698C662.781 939.451 661.277 938.56 659.234 938.968C656.375 939.538 653.571 940.38 650.724 941.023C642.455 942.911 634.093 943.951 625.657 942.546C622.76 942.063 619.981 940.794 617.19 939.785C615.116 939.036 614.739 935.576 611.675 936.245C611.57 936.27 610.963 935.224 611.106 934.995C611.749 933.955 612.579 933.026 613.439 931.943C611.663 928.026 609.298 923.575 607.59 918.89C601.636 902.544 595.663 886.198 590.161 869.703C584.727 853.419 579.924 836.93 574.725 820.566C568.034 799.497 561.207 778.472 554.504 757.403C554.201 756.456 554.269 755.193 554.628 754.259C556.515 749.357 558.539 744.511 560.539 739.652C563.763 731.822 567 723.993 570.231 716.169C572.589 710.741 574.941 705.307 577.299 699.879C577.033 699.768 576.761 699.65 576.495 699.539C574.217 704.862 571.933 710.178 569.655 715.501C563.02 731.098 556.385 746.689 549.763 762.286C548.964 764.168 547.275 766.297 547.646 767.944C550.19 779.363 550.586 790.962 550.976 802.555C551.236 810.304 551.712 818.139 549.36 825.703C546.421 835.166 543.332 844.587 540.231 854.001C538.764 858.457 536.586 862.74 535.639 867.295C533.769 876.301 533.051 885.56 530.904 894.485C528.162 905.892 527.233 917.448 526.28 929.047C525.494 938.554 524.906 948.098 523.662 957.549C522.907 963.274 521.651 969.055 518.042 973.907C516.742 975.659 515.467 977.435 513.654 979.923H522.202C518.278 983.594 513.821 981.564 510.046 982.381C509.451 984.225 509.513 987.159 506.672 986.175C496.608 982.671 486.631 978.896 476.728 974.96C474.692 974.149 473.931 973.932 472.544 975.993C471.182 978.023 472.173 978.859 473.355 979.75C477.527 982.894 478.994 986.682 477.452 991.894C475.602 998.151 474.351 1004.59 472.699 1010.91C471.48 1015.55 470.223 1020.2 468.62 1024.73C466.243 1031.44 463.78 1038.15 460.896 1044.66C459.243 1048.4 456.155 1051.53 454.713 1055.32C453.512 1058.49 451.729 1060.07 448.74 1060.93C447.087 1061.41 445.057 1061.72 444.017 1062.86C442.328 1064.72 440.978 1064.49 438.967 1063.7C436.875 1062.87 434.597 1062.41 432.357 1062.11C425.845 1061.25 419.235 1060.96 412.811 1059.7C397.51 1056.7 383.25 1050.54 369.497 1043.48C358.214 1037.69 347.265 1031.12 336.7 1024.1C331.346 1020.54 326.692 1015.61 324.674 1008.92C324.364 1007.89 322.916 1007.21 322 1006.37C322 1005.34 322 1004.31 322 1003.28C325.2 998.337 328.295 993.323 331.662 988.502C332.596 987.159 334.199 986.032 335.734 985.426C337.467 984.739 338.835 985.791 339.572 987.573C339.671 987.809 340.519 987.815 341.014 987.79C349.438 987.406 357.861 987.066 366.279 986.577C371.038 986.298 375.872 986.206 380.508 985.24C384.965 984.312 389.347 982.671 393.518 980.815C404.61 975.869 414.568 969.197 422.862 960.229C423.456 959.585 424.075 958.508 423.951 957.753C423.45 954.677 424.242 953.012 427.083 951.91C431.255 950.289 435.067 951.601 438.527 953.724C443.968 957.066 448.653 961.182 450.349 967.798C450.51 968.424 451.797 969.197 452.54 969.172C458.668 968.993 463.662 971.636 468.348 975.145C470.137 969.389 471.938 963.59 473.986 956.992C463.6 949.961 452.683 942.571 441.734 935.156C439.97 939.296 438.348 943.357 436.522 947.324C435.006 950.61 433.44 950.908 430.76 948.927C431.212 946.043 431.571 943.289 432.09 940.571C432.598 937.898 433.273 935.255 433.873 932.599C433.941 932.302 434.145 931.912 434.034 931.714C431.546 927.326 434.876 923.736 436.095 920.177C443.943 897.233 450.442 873.93 455.666 850.275C459.776 831.663 463.551 812.984 467.5 794.335C467.809 792.868 468.187 791.395 468.713 789.996C470.91 784.185 468.639 778.62 467.178 773.304C464.523 763.679 465.16 754.315 467.853 745.037C472.94 727.539 478.294 710.11 483.741 692.718C487.807 679.726 492.449 666.914 496.361 653.88C500.978 638.493 504.958 622.914 509.476 607.496C512.422 597.439 515.808 587.511 519.033 577.54C520.951 571.61 522.944 565.712 524.869 559.783C525.049 559.219 524.968 558.576 524.392 557.759C520.487 567.761 516.575 577.763 512.429 588.377C507.39 575.367 502.631 562.976 497.723 550.647C497.333 549.669 495.983 548.84 494.894 548.431C492.678 547.596 490.339 547.07 488.036 546.457C485.325 545.727 484.787 543.826 484.694 541.258C484.502 535.984 483.914 530.723 483.605 525.45C483.456 522.919 483.58 520.375 483.58 517.361C481.543 516.426 478.925 515.269 476.338 514.031C474.327 513.065 472.055 512.211 473.442 508.634C474.772 508.9 476.512 508.924 477.923 509.612C480.157 510.695 482.187 512.217 484.285 513.573C487.937 515.931 488.395 519.923 489.057 523.63C489.825 527.926 490.091 532.308 490.555 536.455C496.138 538.101 501.77 539.766 508.306 541.691C508.306 537.266 508.542 532.995 508.245 528.755C507.886 523.581 506.679 518.45 506.536 513.276C505.954 492.195 505.298 471.101 505.36 450.014C505.391 439.158 506.877 428.314 507.687 417.458C508.121 411.671 508.504 405.871 508.95 400.084C509.334 395.071 509.625 390.039 510.275 385.057C510.436 383.825 511.68 382.024 512.732 381.782C514.551 381.362 516.056 382.042 516.464 384.698C517.999 394.669 517.993 404.621 517.058 414.617C516.773 417.662 516.662 420.726 516.359 423.765C514.527 442.061 514.384 460.412 514.391 478.776C514.391 484.606 514.428 490.437 514.452 496.267C514.452 497.517 514.626 498.792 514.465 500.024C514.044 503.181 516.086 503.187 518.246 503.187C527.215 503.175 536.183 503.255 545.152 503.15C552.95 503.057 560.749 502.884 568.541 502.525C575.275 502.215 581.991 501.59 588.842 501.095C587.735 495.927 586.466 490.79 585.562 485.591C584.231 477.947 582.95 470.278 582.028 462.572C580.976 453.777 580.165 444.945 579.589 436.1C579.224 430.468 579.447 424.792 579.447 419.141C579.447 412.457 579.354 405.766 579.571 399.088C579.639 397.027 579.032 394.242 582.61 393.258C577.541 387.737 572.62 382.302 567.607 376.942C564.153 373.247 559.752 371.378 554.795 370.697C554.51 370.66 554.25 370.443 553.978 370.314C548.791 367.918 543.375 366.99 537.663 367.572C536.295 367.714 534.853 367.256 533.454 366.996C527.797 365.944 524.12 369.113 520.518 372.771C519.565 373.736 517.844 374.083 516.402 374.398C505.014 376.911 493.65 379.523 482.2 381.72C477.322 382.655 472.278 382.81 467.296 383.057C460.425 383.404 453.543 383.515 446.666 383.701C445.565 383.732 444.451 383.614 443.046 383.546C441.244 387.39 439.351 391.425 437.494 395.387C449.26 400.06 458.302 408.347 468.249 415.292C470.421 408.712 469.926 401.223 475.453 395.548C477.898 399.602 476.574 403.266 475.787 406.651C474.37 412.76 472.086 418.671 470.625 424.774C468.54 433.501 467.017 442.364 464.987 451.103C462.548 461.576 460.097 472.061 457.102 482.384C455.882 486.568 457.702 489.409 459.553 492.362C462.517 497.109 465.897 501.596 468.991 506.263C469.641 507.247 469.839 508.535 470.242 509.686C469.969 509.884 469.697 510.088 469.425 510.286C467.172 508.671 464.541 507.389 462.74 505.366C458.717 500.835 454.886 496.094 451.383 491.149C447.836 486.141 447.948 480.67 449.668 474.772C452.453 465.234 454.378 455.448 457.003 445.855C458.816 439.22 461.187 432.733 463.316 426.185C463.526 425.535 463.768 424.898 464.052 424.093C451.519 419.011 440.279 411.906 429.46 404.07C427.696 402.795 427.133 399.001 428.544 396.228C430.345 392.7 432.319 389.265 434.479 385.31C431.967 383.738 429.256 382.049 426.551 380.34C422.621 377.865 418.728 375.333 414.754 372.938C414.055 372.517 413.009 372.703 412.136 372.554C407.537 371.774 402.951 370.809 399.794 366.996C398.705 365.678 398.228 363.833 397.529 362.205C396.978 360.937 396.755 359.451 395.969 358.368C392.806 354.042 391.717 349.22 392.93 343.767C387.589 340.598 386.5 336.947 390.3 330.887C392.565 327.273 393.425 323.596 393.772 319.604C394.001 316.955 395.251 315.742 398.074 316.218C397.337 314.683 396.7 313.346 396.056 312.01C389.644 314.207 385.856 309.788 384.674 305.932C383.386 301.735 385.831 298.987 391.649 297.836C388.647 293.138 391.791 290.062 394.44 286.763C395.121 285.909 395.072 284.467 395.753 283.619C396.947 282.127 398.451 280.883 400.184 279.181C397.64 271.649 394.861 263.182 391.866 254.783C391.302 253.204 389.761 252.004 388.895 250.506C387.954 248.866 389.421 244.812 391.061 244.502C393.487 244.05 394.731 245.542 395.041 247.702C395.27 249.299 395.059 250.964 395.053 252.598C395.053 253.718 394.775 254.931 395.115 255.94C397.498 263.008 399.998 270.039 402.474 277.077C403.508 280.017 407.816 281.094 410.174 279.169C417.57 273.134 426.149 269.674 435.464 267.978C438.639 267.403 441.882 266.747 445.082 266.796C453.778 266.932 462.264 268.337 471.053 272.75C471.053 267.657 471.542 262.965 470.935 258.428C470.068 251.966 471.275 245.833 472.804 239.724C473.176 238.245 474.729 236.71 476.146 235.917C479.037 234.302 481.098 232.241 481.76 228.967C482.274 226.442 486.173 224.956 483.926 221.44C483.574 220.883 485.003 219.188 485.777 217.684C483.58 213.407 482.639 208.56 485.672 203.677C486.167 202.879 486.916 202.123 487.727 201.659C492.932 198.67 498.187 195.767 503.627 192.728C497.772 185.654 493.421 178.455 491.725 169.704C487.374 168.998 485.721 167.024 485.399 162.456C485.102 158.241 484.533 154.044 483.945 149.854C483.685 147.997 477.917 143.331 475.868 142.854C475.286 142.718 474.562 141.926 474.426 141.319C472.47 132.803 470.471 124.292 468.781 115.72C467.915 111.313 467.636 106.795 467.091 102.32C467.487 102.171 467.884 102.023 468.286 101.874C468.843 102.524 469.716 103.094 469.914 103.842C472.055 111.783 474.203 119.724 476.072 127.727C476.53 129.695 477.372 129.813 478.963 129.726C481.698 129.572 484.477 129.497 487.516 132.19C483.957 132.951 481.135 133.551 477.669 134.288C478.678 136.07 479.612 138.088 480.881 139.871C482.224 141.771 483.889 143.442 485.393 145.231C485.647 145.528 485.734 146.141 486.006 146.221C490.605 147.533 488.915 151.259 489.169 154.255C489.367 156.588 488.958 159.355 490.085 161.125C491.168 162.827 493.829 163.576 495.884 164.573C497.054 165.142 498.391 165.359 499.647 165.736C498.645 166.683 497.648 167.624 496.652 168.571C496.429 168.781 496.219 169.01 495.81 169.431C497.753 173.027 499.722 176.735 501.764 180.399C502.377 181.5 503.014 181.921 504.648 181.494C507.341 180.789 510.262 180.931 513.598 180.683C511.84 184.02 508.777 184.379 505.763 185.443C512.261 191.434 519.336 195.198 528.286 193.05C535.168 191.397 541.97 189.423 548.766 187.418C550.258 186.978 551.545 185.827 552.919 185.01C554.423 187.399 553.972 188.717 550.468 191.781C548.63 193.39 546.699 194.894 544.787 196.473C545.826 197.098 547.077 197.611 548.017 198.459C553.427 203.33 559.796 203.479 566.041 201.306C575.232 198.113 584.2 194.269 593.175 190.487C594.896 189.763 596.208 188.074 598.337 186.31C596.951 191.137 594.821 194.412 591.176 196.547C583.185 201.22 574.947 205.639 565.738 206.988C558.88 207.991 551.613 208.517 545.616 203.535C543.945 202.148 542.596 200.378 541.023 198.707C539.73 199.307 538.096 200.062 536.456 200.818L537.341 200.793C537.359 203.949 537.923 207.217 537.297 210.244C534.246 225.111 530.644 239.872 527.722 254.764C525.952 263.776 524.931 272.948 523.854 282.084C523.093 288.533 522.808 295.038 522.313 301.525C522.016 301.605 521.719 301.686 521.416 301.766C520.976 299.872 520.264 298.003 520.14 296.091C519.788 290.762 519.348 285.408 519.559 280.085C519.788 274.131 520.506 268.17 521.347 262.266C522.635 253.242 523.885 244.186 525.736 235.274C528.057 224.083 530.978 213.017 533.633 201.913C525.018 205.639 516.866 203.51 509.903 197.871C504.679 201.517 499.815 205.255 494.597 208.424C491.174 210.504 489.373 212.54 489.794 216.353C489.874 217.077 490.512 218.03 491.156 218.346C494.114 219.8 497.147 221.106 500.192 222.375C501.319 222.845 502.625 222.92 503.714 223.452C504.717 223.941 505.917 224.616 506.363 225.532C508.102 229.103 509.538 232.817 511.184 236.437C511.444 237.007 512.348 237.261 512.682 237.824C513.215 238.727 513.982 239.848 513.827 240.739C512.942 245.796 512.131 250.902 510.683 255.804C509.29 260.508 506.939 264.927 505.422 269.6C504.574 272.206 504.327 275.071 504.209 277.838C503.831 286.652 503.627 295.472 503.398 304.291C503.342 306.526 503.021 308.438 499.753 308.308C500.65 308.773 501.325 308.952 501.764 309.373C504.147 311.657 506.45 310.499 508.944 309.503C512.899 307.925 516.891 306.229 521.025 305.406C523.124 304.991 525.723 306.068 527.859 307.009C537.149 311.1 546.352 315.389 555.661 319.635C556.014 316.744 558.737 316.905 560.848 316.967C567.266 317.159 573.685 317.617 580.078 318.249C580.883 318.329 581.52 320.093 582.573 321.541C587.227 320.86 593.008 320.514 598.492 319.072C603.765 317.685 608.642 314.838 613.885 313.285C616.255 312.579 619.567 312.598 621.64 313.749C629.878 318.335 637.831 323.441 645.828 328.461C653.063 333.004 660.218 337.677 667.367 342.263C666.191 345.067 664.161 346.107 661.846 345.055C647.214 338.395 632.088 332.763 618.353 324.234C617.741 323.856 617.023 323.578 616.534 323.076C612.845 319.307 608.847 320.941 604.78 322.222C602.075 323.076 599.309 323.893 596.505 324.246C592.773 324.716 588.979 324.741 585.209 324.908C584.213 324.952 583.21 324.815 582.177 324.76C581.836 330.565 581.483 336.631 581.124 342.69C580.821 342.727 580.524 342.765 580.221 342.802C579.787 341.502 579.187 340.233 578.958 338.902C578.599 336.804 578.005 334.57 578.382 332.558C579.069 328.882 576.674 326.629 575.201 323.924C574.978 323.516 574.372 323.169 573.895 323.082C569.884 322.364 565.861 321.715 562.073 321.077C561.937 337.151 560.798 352.5 549.979 364.52C554.72 366.111 559.771 367.862 564.877 369.459C565.601 369.688 566.876 369.441 567.372 368.915C572.236 363.784 576.959 358.523 581.799 353.373C582.48 352.649 583.563 352.309 584.597 351.721C585.636 356.257 585.358 358.244 572.274 374.801C580.97 382.154 588.663 390.441 595.323 399.657C596.257 400.951 596.783 402.863 596.74 404.473C596.678 406.713 597.477 407.784 599.476 408.52C603.097 409.857 606.68 411.312 610.202 412.89C611.044 413.268 611.576 414.326 612.195 414.462C615.909 414.995 619.678 415.292 623.33 416.102C630.064 417.6 636.723 419.401 643.42 421.054C643.959 421.184 644.602 421.345 645.079 421.172C657.049 416.889 669.533 414.871 682.005 412.865C687.513 411.98 693.133 411.795 698.63 410.854C700.616 410.513 702.38 408.879 704.262 407.871C714.344 402.492 724.241 396.705 734.602 391.921C740.055 389.401 743.899 386.517 744.809 380.384C745.496 375.791 746.764 371.267 747.111 366.662C747.309 364.044 746.443 361.24 745.588 358.677C743.831 353.435 741.825 348.273 739.776 343.13C739.164 341.582 738.006 340.264 737.233 338.772C736.843 338.017 736.775 337.108 736.546 336.272C735.778 333.474 735.023 330.677 734.225 327.892C731.501 318.416 728.549 308.995 726.086 299.451C723.876 290.885 722.192 282.183 720.317 273.741C719.11 274.62 717.223 276.031 715.291 277.392C703.723 285.544 689.494 282.214 682.339 270.776C679.43 266.122 679.102 260.904 679.622 255.383C680.303 248.16 683.398 242.429 688.671 237.836C692.892 234.16 697.769 231.826 703.6 231.381C708.347 231.022 712.611 231.969 716.802 234.234C716.387 228.564 715.978 223.056 715.52 216.798C711.782 214.781 707.258 212.478 702.863 209.941C696.358 206.184 690.181 201.987 685.737 195.717C685.446 195.303 684.679 194.938 684.19 195C678.805 195.674 673.482 196.751 668.723 199.413C667.646 200.013 667.287 202.093 666.816 203.566C663.79 213.048 660.627 222.487 657.922 232.055C656.356 237.576 655.131 243.27 654.518 248.971C653.367 259.666 652.16 270.417 652.104 281.149C652.048 291.696 653.583 302.212 655.898 312.573C656.598 315.692 656.604 318.966 656.35 322.408C655.793 321.325 655.236 320.235 654.468 318.744C654.041 320.879 653.67 322.723 653.305 324.574C653.119 324.853 652.927 325.131 652.742 325.416C653.107 325.273 653.472 325.131 653.837 324.989H664.334C662.614 320.842 665.04 318.812 668.066 317.159C679.752 310.796 691.444 304.452 703.179 298.176C703.736 297.879 704.708 298.35 705.487 298.461C705.258 299.866 705.518 301.735 704.708 302.583C703.148 304.217 701.031 305.362 699.057 306.563C689.766 312.177 680.445 317.753 671.118 323.305C670.022 323.955 668.791 324.376 667.373 325.02C672.133 325.849 676.608 326.468 681.015 327.434C693.201 330.107 704.231 335.313 713.806 343.328C715.619 344.844 716.764 347.178 718.138 349.189C718.398 349.567 718.268 350.21 718.392 351.454C709.127 342.121 698.085 337.912 686.399 335.579C677.022 333.703 667.417 332.973 657.91 331.729C656.412 331.531 654.79 331.599 653.453 331.017C652.37 330.553 650.73 329.098 650.879 328.43C651.77 324.45 647.716 322.928 646.967 319.783C646.199 316.571 645.153 313.371 643.761 310.382C640.289 302.911 637.844 295.199 636.383 287.06C633.616 271.643 633.499 256.089 634.142 240.584C634.613 229.282 636.482 218.024 641.396 207.186C635.931 208.065 630.751 208.895 625.935 209.668C625.75 208.814 625.446 207.44 625.143 206.066C624.852 206.128 624.568 206.19 624.277 206.252C622.358 217.071 621.819 227.958 622.494 238.925C623.063 248.129 623.478 257.339 624.103 266.542C624.481 272.063 623.658 276.823 619.517 281.168C616.175 284.671 613.575 289.084 611.458 293.479C609.695 297.137 609.168 301.37 607.974 305.319C607.701 306.223 606.94 306.984 606.402 307.813C606.061 307.696 605.727 307.572 605.387 307.454C605.733 302.757 605.9 298.034 606.495 293.373C606.816 290.854 607.398 288.137 608.71 286.039C610.969 282.424 613.674 279.014 616.602 275.895C619.771 272.515 620.773 269.346 619.276 264.611C616.119 254.616 614.856 244.248 614.64 233.695C614.448 224.238 615.605 214.997 617.419 205.819C617.914 203.299 619.82 201.003 621.3 198.744C622.178 197.407 623.484 197.525 624.84 198.453C625.576 198.955 626.66 199.363 627.495 199.239C633.647 198.311 639.775 197.184 645.921 196.213C655.285 194.733 664.668 193.322 674.045 191.899C674.448 191.837 674.943 191.732 675.271 191.899C679.597 194.127 682.735 190.382 686.721 189.646C682.141 188.556 680.229 185.852 680.742 181.302C681.114 177.973 677.493 174.123 682.092 171.344C679.622 164.467 673.006 163.855 667.448 162.301C657.155 159.423 646.639 157.331 635.876 154.837C634.743 159.924 633.74 164.405 632.75 168.887C632.298 170.948 632.013 173.058 631.394 175.07C630.596 177.675 629.141 179.749 625.917 179.792V150.114C623.249 147.83 619.127 148.14 615.327 148.041C611.514 147.936 607.677 148.771 602.892 149.297C604.26 150.442 605.059 151.123 605.876 151.785C608.296 153.772 610.901 155.579 613.043 157.826C613.81 158.631 613.971 160.667 613.563 161.855C609.428 173.962 605.059 185.988 600.881 198.082C599.148 203.095 597.607 208.177 596.202 213.289C595.676 215.202 595.836 217.3 595.601 219.299C594.654 227.345 593.695 235.398 592.692 243.438C592.055 248.544 591.164 253.619 590.693 258.738C589.721 269.303 588.954 279.893 588.106 290.452C585.624 290.167 585.438 290.192 585.116 287.586C584.386 281.651 583.452 275.703 583.328 269.742C583.155 261.325 583.204 252.858 583.971 244.49C584.832 235.082 586.583 225.755 587.988 216.396C588.254 214.62 588.403 212.732 589.158 211.16C589.759 209.91 591.244 209.093 592.265 208.016C592.835 207.415 593.466 206.747 593.72 205.992C597.749 193.923 601.716 181.841 605.696 169.759C606.649 166.856 607.578 163.947 608.519 161.045C608.085 161.199 607.658 161.354 607.225 161.515C605.999 160.556 604.694 159.677 603.561 158.612C602.28 157.405 600.243 156.118 600.12 154.725C599.637 149.235 596.202 144.952 594.71 139.92C594.524 139.289 594.283 138.67 593.949 137.723C591.151 139.871 589.282 143.615 585.079 142.334C583.804 141.944 582.641 141.214 581.093 140.484C587.456 138.274 589.907 133.44 591.881 128.21C592.197 127.381 592.476 126.471 592.439 125.604C592.426 125.258 591.523 124.954 591.027 124.62C591.937 121.321 592.841 118.028 593.744 114.736C593.986 114.798 594.227 114.86 594.469 114.921C593.961 114.092 593.454 113.269 592.952 112.446C594.029 112.922 595.094 113.393 596.573 114.043C598.968 112.724 598.937 109.314 596.171 107.432C595.7 108.317 595.279 109.227 594.753 110.069C594.227 110.917 593.602 111.709 593.027 112.526C591.77 114.012 590.514 115.503 589.257 116.989C589.362 117.286 589.474 117.589 589.579 117.886C588.112 117.682 586.645 117.478 584.683 117.205C584.454 117.564 583.773 118.629 583.012 119.83C584.85 119.737 586.361 119.656 587.871 119.582C587.939 119.941 588.001 120.294 588.069 120.653C586.949 121.197 585.828 121.748 584.894 122.2C585.698 123.494 586.596 124.936 587.085 125.722C588.787 125.214 589.932 124.874 591.083 124.534L591.058 124.503ZM469.982 277.182C469.27 277.071 468.558 276.959 467.846 276.854C467.172 276.365 466.565 275.647 465.81 275.418C456.173 272.509 446.444 271.927 436.429 273.406C427.436 274.737 419.396 278.141 411.659 282.697C413.355 282.678 415.063 282.622 416.642 282.146C419.916 281.162 423.351 281.459 426.446 278.779C429.404 276.223 434.009 274.793 437.977 276.86C441.059 278.463 443.962 277.863 446.933 277.782C453.933 277.591 460.927 277.12 467.939 276.749C468.441 277.033 468.936 277.312 469.437 277.597C477.601 286.875 485.771 296.159 494.368 305.932C490.735 291.95 482.8 282.486 469.982 277.182ZM692.323 511.864C692.168 511.871 691.945 511.833 691.766 511.895C680.21 516.135 668.648 520.387 656.399 522.201C653.93 522.566 651.33 522.034 648.322 521.891C649.368 518.976 650.909 517.874 652.995 517.379C655.341 516.828 657.749 516.457 660.039 515.739C675.327 510.942 690.608 506.121 705.834 501.126C707.066 500.724 708.093 499.077 708.799 497.784C710.581 494.534 711.553 490.653 713.905 487.943C717.489 483.808 717.804 479.216 716.455 474.759C714.047 466.818 710.649 459.174 707.883 451.332C705.562 444.753 703.34 438.124 701.483 431.403C700.264 426.983 699.768 422.366 698.896 417.545C686.146 420.41 673.098 423.338 659.216 426.457C665.089 429.236 668.605 433.197 671.743 437.747C673.823 440.761 674.788 443.961 674.72 447.377C674.633 451.809 673.804 456.222 673.606 460.654C673.259 468.328 673.142 476.016 672.956 483.697C672.913 485.448 673.074 487.212 672.919 488.951C672.845 489.812 672.263 490.629 671.916 491.464C671.508 491.384 671.105 491.303 670.697 491.223C670.208 481.45 669.713 471.671 669.236 461.898C669.013 457.287 668.834 452.675 668.599 448.071C668.574 447.606 668.438 447 668.122 446.727C664.699 443.794 661.648 440.031 657.699 438.186C647.858 433.587 637.615 429.837 627.507 425.807C625.669 425.077 623.026 423.579 621.943 424.272C619.43 425.888 617.71 424.607 615.68 423.969C614.398 423.567 613.117 423.177 611.669 422.731C611.669 436.676 611.551 450.354 611.743 464.027C611.799 467.957 612.492 471.924 613.34 475.78C614.634 481.66 616.422 487.429 617.728 493.302C617.951 494.318 616.794 495.636 616.274 496.812C615.358 496.212 614.039 495.828 613.581 494.974C607.77 484.179 604.793 472.463 603.753 460.387C602.911 450.614 603.109 440.742 603.059 430.914C603.041 427.2 603.641 423.48 603.975 419.562C602.57 418.981 601.029 418.176 599.389 417.706C594.017 416.177 591.69 411.628 591.523 407.115C591.294 401.068 586.385 399.23 583.903 394.749C584.943 407.097 586.033 418.721 586.881 430.357C587.648 440.848 587.902 451.382 588.842 461.848C589.74 471.856 591.114 481.827 592.5 491.78C594.654 507.204 599.346 521.935 605.269 536.288C605.591 537.068 606.204 537.767 606.816 538.367C607.943 539.463 609.441 540.274 610.307 541.536C612.133 544.198 613.551 547.144 615.358 549.818C615.822 550.505 617.245 551.142 618.007 550.95C628.324 548.301 638.586 545.454 648.892 542.749C661.877 539.345 674.664 535.384 686.833 529.653C689.965 528.18 692.948 526.385 695.968 524.751C694.811 520.666 693.567 516.265 692.323 511.852V511.864ZM395.883 1006.61C395.709 1007.01 395.536 1007.42 395.356 1007.83C393.704 1007.29 391.705 1007.17 390.448 1006.14C381.14 998.547 369.708 997.272 358.567 995.248C353.089 994.252 347.513 993.726 341.961 993.261C339.794 993.082 337.059 992.952 335.462 994.06C332.262 996.282 329.663 999.37 326.296 1002.61C327.614 1002.61 327.96 1002.7 328.22 1002.6C333.884 1000.22 338.928 1001.52 343.805 1004.89C350.347 1009.4 356.859 1013.99 363.673 1018.07C373.05 1023.69 382.749 1028.78 392.188 1034.29C395.301 1036.11 398.272 1037.56 402.035 1037.39C404.306 1037.28 406.832 1037.6 408.874 1038.54C413.114 1040.47 417.459 1042.5 421.129 1045.31C426.953 1049.77 433.093 1053.44 440.112 1055.5C446.072 1057.25 448.121 1056.14 451.061 1050.82C452.726 1047.82 454.917 1045.12 456.811 1042.23C457.374 1041.37 457.968 1040.41 458.142 1039.43C458.884 1035.16 459.039 1030.73 460.196 1026.58C464.083 1012.65 466.237 998.176 472.99 985.469C468.837 982.424 464.795 979.404 460.698 976.47C457.337 974.062 455.641 974.13 453.326 976.142C452.416 976.928 451.086 977.231 449.947 977.751C449.384 976.426 448.189 974.997 448.393 973.802C448.876 970.905 447.632 968.628 445.818 967.142C442.489 964.419 438.862 961.863 434.975 960.049C430.747 958.075 427.801 959.498 425.152 963.509C424.533 964.444 423.859 965.354 423.11 966.189C419.848 969.828 416.549 973.437 413.417 976.884C419.842 978.624 426.334 980.381 432.821 982.133L432.877 983.105C432.103 983.6 431.243 984.621 430.562 984.51C424.112 983.47 417.669 982.356 411.276 981.013C408.756 980.48 406.695 980.542 404.87 982.702C407.302 984.652 412.631 983.402 411.467 989.455C407.809 988.898 404.3 988.527 400.871 987.784C398.191 987.202 395.932 987.363 393.388 988.694C387.317 991.863 380.836 993.781 373.848 993.379C373.267 993.348 372.673 993.614 371.806 993.806C376.349 995.613 380.675 996.907 384.575 998.999C388.554 1001.13 392.119 1004.05 395.864 1006.62L395.883 1006.61ZM477.137 321.089C471.523 310.14 465.513 298.424 459.658 287.011C438.849 289.332 417.929 291.671 396.842 294.023C399.052 300.999 401.329 308.172 403.725 315.717C406.163 316.385 409.363 316.949 412.303 318.149C417.861 320.415 423.295 322.996 428.711 325.601C429.46 325.96 430.221 327.229 430.178 328.021C430.135 328.764 429.138 329.717 428.34 330.089C426.18 331.073 423.902 331.797 421.358 332.738C421.909 333.802 422.249 334.885 422.924 335.678C425.047 338.154 427.269 340.555 429.51 342.926C432.097 345.661 432.307 347.951 430.296 351.281C429.98 351.807 430.11 352.599 430.005 353.466C428.476 353.218 427.021 352.983 425.065 352.668C429.126 361.568 433.013 370.091 436.72 378.217C458.816 377.784 480.374 376.596 502.055 371.341C499.635 366.507 497.419 361.716 494.869 357.112C493.452 354.555 492.103 351.795 489.07 350.508C486.433 349.387 485.288 347.097 484.756 344.38C484.459 342.857 483.933 341.595 481.859 341.477C480.925 341.421 479.699 340.326 479.241 339.391C478.207 337.281 477.564 334.985 476.642 332.428C473.182 333.128 472.111 329.705 472.365 327.44C472.606 325.323 475.224 323.472 477.124 321.096L477.137 321.089ZM503.497 353.051C503.336 353.534 503.169 354.017 503.008 354.5C504.395 355.372 505.695 356.827 507.174 357.025C514.62 358.046 522.115 358.733 529.585 359.55C533.206 359.946 536.821 360.423 540.448 360.745C542.367 360.912 545.263 361.636 546.049 360.708C548.123 358.238 551.465 356.363 551.112 352.179C550.865 349.276 551.285 346.28 551.7 343.371C552.616 336.878 553.699 330.417 554.751 323.943C555.024 322.253 554.157 321.622 552.703 321.238C543.561 318.836 534.432 316.373 525.284 313.978C523.52 313.514 521.62 312.789 519.911 313.049C516.854 313.507 513.834 314.448 510.906 315.5C499.759 319.505 488.661 323.639 477.545 327.724C477.533 328.009 477.514 328.294 477.502 328.579C483.543 330.188 489.639 328.127 495.655 327.675C501.808 327.217 507.91 326.022 514.031 325.15C514.093 325.521 514.161 325.899 514.223 326.27C504.054 328.696 493.885 331.122 483.636 333.567C484.768 334.855 483.741 337.906 487.213 337.937C494.281 338.005 501.35 338.277 508.418 338.525C512.614 338.673 516.811 338.841 520.995 339.181C522.542 339.305 524.046 339.936 525.569 340.332L525.451 341.384C513.382 342.009 501.312 342.641 488.513 343.303C489.491 344.324 490.172 345.723 491.044 345.847C501.838 347.438 512.664 348.812 523.464 350.322C525.302 350.582 527.097 351.201 528.911 351.659C528.812 352.123 528.713 352.593 528.62 353.058H503.51L503.497 353.051ZM723.486 232.643C723.789 235.75 724.018 238.585 724.359 241.407C725.355 249.751 726.445 258.082 727.41 266.425C727.961 271.166 728.066 275.975 728.865 280.667C730.01 287.388 731.637 294.029 732.987 300.714C733.705 304.267 733.822 308.017 735.017 311.391C737.059 317.159 739.746 322.699 742.122 328.257C760.115 304.242 751.66 251.824 723.492 232.637L723.486 232.643ZM493.18 294.419C493.538 288.682 493.396 283.706 494.263 278.921C495.451 272.336 496.763 265.843 496.664 259.072C496.609 255.185 497.599 251.273 498.199 247.386C498.874 243.072 501.393 238.907 499.053 234.364C498.28 232.86 497.982 231.077 497.073 229.679C496.119 228.212 496.974 225.389 494.275 225.29C491.378 225.185 491.638 227.983 491.044 229.672C489.534 233.962 487.479 237.731 483.642 240.417C482.744 241.048 482.113 242.299 481.748 243.388C480.597 246.873 479.755 250.456 478.56 253.922C476.357 260.322 473.986 266.666 471.671 273.072C481.073 277.745 488.123 284.659 493.18 294.413V294.419ZM703.296 249.615C706.552 251.335 707.833 254.201 707.542 257.661C707.332 260.211 705.952 262.228 703.21 262.742C699.1 263.51 694.464 263.658 691.697 260.663C688.368 257.06 685.626 259.604 682.506 259.536C683.571 264.865 685.291 268.628 687.538 270.436C697.33 278.315 712.017 276.167 719.407 267.496C720.051 266.741 720.001 265.391 720.175 264.71C718.163 265.02 716.232 265.948 715.273 265.342C712.5 263.59 711.497 264.481 710.686 267.192C709.684 270.535 708.471 270.999 705.345 269.594C703.996 268.987 702.659 268.344 701.303 267.712C700.944 268.282 700.734 268.622 700.523 268.963C699.867 270.033 699.211 271.11 698.555 272.181C698.277 270.844 697.949 269.513 697.738 268.17C697.664 267.7 697.738 267.106 697.974 266.697C699.038 264.878 699.806 262.606 702.77 264.556C704.132 265.453 705.964 265.626 707.815 266.196C708.39 264.865 708.706 263.417 709.548 262.408C710.259 261.554 712.11 260.458 712.543 260.768C714.221 261.956 715.805 262.885 717.52 261.343C719.036 259.976 719.735 258.162 719.42 255.922C718.578 249.912 717.916 243.871 717.167 237.7C716.17 237.471 714.932 237.397 713.88 236.92C711.027 235.633 709.845 236.92 708.731 239.464C707.227 242.887 705.221 246.087 703.303 249.621L703.296 249.615ZM668.747 942.199C673.94 940.819 678.595 939.092 684.035 939.265C690.472 939.476 692.397 944.854 696.742 947.974C699.112 944.508 701.477 941.042 703.532 938.027C699.249 933.311 697.577 927.53 695.182 922.826C685.991 927.611 676.8 932.395 667.423 937.279C667.794 938.665 668.283 940.472 668.747 942.187V942.199ZM496.045 314.238C486.866 302.806 477.681 291.356 468.286 279.652C466.231 281.737 464.622 283.371 463.149 284.863C469.518 296.716 475.769 308.345 482.001 319.951C486.854 317.976 491.564 316.064 496.039 314.238H496.045ZM425.678 350.235C426.823 346.528 425.134 344.281 423.128 342.115C421.599 340.468 419.953 338.871 418.721 337.015C417.564 335.275 416.134 334.576 414.172 334.118C407.915 332.657 401.143 333.196 395.332 328.9C394.991 331.679 394.577 333.963 394.515 336.26C394.496 336.996 395.239 338.172 395.914 338.451C405.792 342.443 415.719 346.317 425.684 350.241L425.678 350.235ZM422.212 352.148C413.151 349.901 403.805 347.58 394.496 345.271C395.61 350.155 399.014 353.342 403.421 355.799C407.611 358.139 411.734 360.615 415.775 363.208C416.815 363.877 417.415 365.22 418.214 366.253C418.041 366.507 417.873 366.761 417.7 367.008C415.608 366.798 413.522 366.587 411.43 366.377L411.356 366.823C415.045 368.24 418.728 369.657 423.072 371.329C421.686 368.444 420.677 366.346 419.637 364.192C421.049 363.264 422.206 362.502 422.955 362.014C422.689 358.479 422.447 355.255 422.212 352.148ZM682.933 255.649C687.773 254.176 692.397 253.105 695.498 248.952C696.018 248.259 697.683 248.476 698.79 248.154C699.688 247.894 700.957 247.708 701.328 247.071C703.309 243.623 705.054 240.046 706.892 236.487C697.608 235.639 685.626 243.926 682.933 255.649ZM396.502 318.199C395.548 321.399 397.678 322.222 399.961 323.064C405.167 324.983 410.428 326.815 415.503 329.043C417.651 329.99 419.025 329.649 420.553 328.201C421.364 327.434 422.336 326.839 423.103 326.258C414.81 320.421 405.817 318.849 396.502 318.199ZM594.097 80.428C592.284 77.0548 592.327 77.0858 589.994 80.0505C589.109 81.177 588.155 82.5262 586.924 83.0461C582.963 84.7173 583.711 87.7996 584.027 91.0304C586.008 91.0304 587.97 90.6281 589.672 91.1171C592.996 92.0641 594.871 91.2347 596.053 87.6201C596.759 85.4662 595.428 83.7394 592.148 83.0771C592.841 82.1363 593.416 81.3564 594.097 80.428ZM397.758 291.362C409.085 289.92 420.176 288.515 431.187 287.116C429.72 286.287 428.451 285.538 427.158 284.838C426.656 284.566 426.074 284.139 425.585 284.207C421.686 284.745 417.793 285.34 413.912 286.008C412.371 286.274 410.564 286.361 409.419 287.234C407.209 288.917 405.136 289.932 402.301 289.084C400.339 288.496 398.68 289.183 397.758 291.362ZM436.299 286.683C441.993 286.144 447.681 285.612 452.893 285.123C451.612 284.083 450.095 282.858 448.579 281.632C443.801 280.24 440.601 284.646 436.299 286.683ZM515.703 366.457C515.635 366.253 515.573 366.049 515.505 365.845C511.457 365.282 507.409 364.718 502.668 364.056C503.9 366.55 504.921 368.618 506.177 371.155C509.464 369.534 512.583 367.992 515.697 366.451L515.703 366.457ZM516.811 550.647C517.021 551.031 517.238 551.408 517.448 551.792C522.833 548.821 528.224 545.857 533.609 542.886C533.423 542.551 533.237 542.223 533.058 541.889C527.363 544.309 521.248 545.968 516.811 550.647ZM451.234 280.134C453.512 280.97 455.852 281.329 454.898 284.368C459.528 286.033 461.707 282.901 464.034 280.134H451.228H451.234ZM389.997 307.2C389.966 307.553 389.935 307.9 389.904 308.253C391.513 308.964 393.122 309.67 394.731 310.382C394.886 310.116 395.041 309.843 395.189 309.577C394.267 306.687 393.345 303.796 392.175 300.107C390.869 302.292 390.003 303.747 388.957 305.498C390.504 305.653 391.383 305.74 392.571 305.857C391.494 306.427 390.745 306.817 390.003 307.207L389.997 307.2ZM428.377 281.626C431.781 283.501 436.862 282.684 440.056 279.949C435.866 278.178 432.146 279.249 428.377 281.626Z" fill="black"/>
<path d="M476.122 1071.33C475.298 1070.56 473.943 1069.41 476.023 1069.01C478.399 1068.55 480.925 1068.9 483.691 1068.9C482.206 1069.84 481.024 1070.59 479.841 1071.33H476.128H476.122Z" fill="black"/>
<path d="M494.3 478.491C493.817 477.08 493.074 475.7 492.895 474.252C491.966 466.595 490.995 458.939 490.4 451.252C489.59 440.78 489.119 430.282 488.494 419.798C488.086 412.977 487.603 406.156 487.287 399.323C487.126 395.789 487.256 392.242 487.782 388.659C491.075 391.562 491.249 395.38 491.558 399.045C492.406 409.201 493.099 419.371 493.767 429.54C493.879 431.285 493.483 433.055 493.47 434.813C493.433 442.277 493.272 449.748 493.508 457.2C493.73 464.188 494.405 471.163 494.882 478.139C494.69 478.25 494.492 478.368 494.3 478.479V478.491Z" fill="black"/>
<path d="M645.983 376.546C630.448 378.867 616.094 385.174 600.726 388.442C600.299 385.886 601.989 384.469 604.106 383.751C611.118 381.355 618.143 378.985 625.261 376.948C630.652 375.407 636.259 374.615 641.657 373.086C646.484 371.712 649.628 372.777 652.68 377.072C655.651 381.244 659.965 384.45 663.616 388.157C664.26 388.807 664.539 389.822 664.984 390.67C664.031 390.788 662.917 391.295 662.156 390.967C655.372 388.071 649.047 384.58 645.989 376.552L645.983 376.546Z" fill="black"/>
<path d="M675.5 351.33C678.632 355.576 681.479 359.816 684.716 363.734C689.649 369.701 694.823 375.469 699.985 381.244C700.753 382.104 701.959 382.63 703.043 383.144C705.283 384.215 707.394 384.054 708.836 381.819C710.519 379.214 709.975 376.886 707.697 375.061C703.197 371.452 698.753 367.769 694.34 364.056C693.455 363.313 692.688 362.36 692.106 361.363C691.716 360.701 691.425 359.216 691.642 359.092C692.453 358.64 693.598 358.25 694.427 358.492C695.424 358.789 696.296 359.674 697.107 360.435C701.068 364.161 704.943 367.974 708.929 371.669C712.376 374.863 712.902 378.001 710.643 381.597C708.465 385.069 704.151 386.307 699.843 384.382C693.957 381.757 689.736 377.084 685.725 372.424C682.141 368.265 679.387 363.369 676.472 358.671C674.361 355.261 674.429 354.599 675.5 351.324V351.33Z" fill="black"/>
<path d="M561.814 178.74C561.888 177.669 561.659 176.462 562.08 175.546C566.418 165.971 570.8 156.415 575.337 146.927C575.975 145.59 577.491 144.68 578.605 143.572C579.1 145.274 580.276 147.106 579.979 148.66C578.16 158.259 573.654 166.609 567.303 173.993C565.868 175.664 564.444 177.341 563.014 179.012C562.612 178.919 562.21 178.833 561.814 178.74Z" fill="black"/>
<path d="M523.805 127.999C517.949 128.705 512.868 129.287 507.799 129.943C505.212 130.277 502.649 130.853 500.05 131.1C499.344 131.168 498.558 130.432 497.809 130.061C498.212 129.299 498.422 128.222 499.059 127.82C504.289 124.496 510.046 122.621 516.235 123.314C518.847 123.605 521.737 124.564 523.811 127.999H523.805Z" fill="black"/>
<path d="M706.261 216.34C691.568 224.287 676.88 232.235 662.187 240.182C661.958 239.959 661.729 239.736 661.5 239.513C662.335 238.634 663.022 237.483 664.037 236.926C672.405 232.327 680.804 227.772 689.265 223.347C693.591 221.081 698.066 219.095 702.498 217.027C703.624 216.501 704.831 216.161 706.007 215.734C706.094 215.938 706.174 216.142 706.261 216.347V216.34Z" fill="black"/>
<path d="M599.724 361.599C599.594 360.194 599.104 358.906 599.445 357.885C602.707 348.044 603.957 337.943 603.604 327.489C606.247 327.192 606.631 328.907 606.699 330.664C607.083 340.314 605.492 349.622 601.741 358.535C601.364 359.433 600.856 360.28 600.398 361.147C600.355 361.227 600.237 361.258 599.724 361.599Z" fill="black"/>
<path d="M506.555 140.737C508.016 141.783 509.476 142.829 510.918 143.857C515.257 143.566 519.744 143.262 525.073 142.897C522.239 146.586 519.187 148.424 515.529 149.049C513.425 149.408 511.197 149.186 509.043 149.043C508.455 149.006 507.601 148.387 507.415 147.843C506.685 145.726 506.171 143.535 505.577 141.375C505.905 141.158 506.233 140.948 506.561 140.731L506.555 140.737Z" fill="black"/>
<path d="M541.853 107.667C547.231 108.429 554.498 114.927 555.253 119.297C550.883 115.503 546.656 111.839 541.853 107.667Z" fill="black"/>
<path d="M555.086 101.874C558.255 100.432 561.263 99.0643 564.444 97.616C563.311 101.317 557.58 104.059 555.086 101.874Z" fill="black"/>
<path d="M570.243 716.132L569.668 715.464C571.946 710.141 574.229 704.824 576.507 699.502C576.773 699.613 577.045 699.731 577.312 699.842C574.953 705.27 572.602 710.704 570.243 716.132Z" fill="white"/>
<path d="M729.83 1001.35C729.019 1003.33 728.636 1005.66 727.336 1007.22C718.095 1018.33 706.15 1026.29 694.668 1034.76C689.921 1038.26 684.79 1041.24 679.777 1044.37C678.458 1045.19 676.948 1045.7 674.961 1046.62C684.728 1046.24 693.944 1045.87 703.166 1045.51C703.29 1045.94 703.408 1046.37 703.531 1046.8C702.17 1047.54 700.864 1048.75 699.428 1048.94C694.483 1049.58 689.488 1049.82 684.524 1050.31C676.651 1051.08 668.79 1051.97 660.918 1052.72C655.644 1053.22 650.358 1053.55 645.085 1054.02C641.149 1054.37 637.219 1055.09 633.282 1055.14C629.216 1055.2 625.131 1054.8 621.083 1054.33C616.274 1053.76 611.483 1052.96 606.711 1052.12C604.279 1051.68 601.865 1051.05 599.519 1050.28C597.656 1049.67 596.703 1046.38 597.588 1044.68C597.848 1044.18 597.792 1043.44 597.693 1042.84C597.229 1039.97 596.746 1037.09 596.189 1034.23C595.583 1031.13 596.994 1028.84 599.011 1026.78C599.278 1026.5 599.804 1026.11 600.002 1026.2C602.738 1027.49 603.678 1025 605.102 1023.74C609.936 1019.44 614.745 1015.12 619.449 1010.67C630.41 1000.31 641.322 989.901 652.184 979.434C653.317 978.345 654.512 977.299 652.958 975.04C651.646 973.134 651.615 970.237 651.361 967.743C650.81 962.278 650.371 956.8 650.092 951.316C649.913 947.776 651.739 947.466 655.007 947.881C660.088 948.525 659.432 951.768 659.302 954.9C659.036 961.417 658.547 967.922 658.145 974.514C662.979 974.811 667.744 975.201 672.516 975.362C677.109 975.517 681.776 975.102 685.83 977.776C685.824 978.098 685.811 978.419 685.805 978.741C675.883 979.286 665.968 979.831 655.694 980.394C654.109 986.367 649.678 991.374 645.073 995.923C635.869 1005.03 626.109 1013.58 616.515 1022.4C628.739 1023.11 641.155 1024.23 653.732 1021.67C651.993 1022.5 650.334 1023.66 648.502 1024.1C639.18 1026.34 629.791 1027.39 620.136 1026.29C614.027 1025.6 607.609 1024.23 602.094 1028.37C602.638 1032.23 603.196 1036.18 603.672 1039.56C610.586 1041.54 617.301 1043.15 623.794 1045.41C630.695 1047.82 637.441 1047.57 644.442 1046.11C651.925 1044.56 659.506 1043.47 667.051 1042.26C670.294 1041.74 672.956 1040.59 675.58 1038.3C680.457 1034.04 685.861 1030.34 691.246 1026.7C702.653 1019 714.177 1011.48 725.671 1003.91C727.039 1003 728.518 1002.27 729.941 1001.45L729.836 1001.34L729.83 1001.35Z" fill="black"/>
<path d="M660.732 987.988C663.127 988.755 665.529 989.207 667.608 990.278C669.385 991.194 668.921 992.871 667.107 993.113C664.743 993.428 662.199 993.391 659.903 992.809C658.888 992.556 658.306 990.6 657.52 989.418C658.547 988.96 659.581 988.502 660.732 987.988Z" fill="black"/>
<path d="M482.07 365.009C477.328 362.236 474.556 358.752 472.94 354.308C472.705 353.652 471.331 352.952 470.557 353.027C464.399 353.658 458.253 354.487 452.107 355.218C447.205 355.799 442.303 356.338 436.992 356.944C440.477 361.921 443.733 366.6 447.044 371.236C447.316 371.619 448.003 371.972 448.455 371.923C455.802 371.149 463.149 370.326 470.489 369.472C474.568 368.995 478.641 368.45 482.967 368.395C481.234 369.15 479.563 370.27 477.756 370.592C469.827 371.991 461.867 373.198 453.908 374.386C451.494 374.745 449.037 374.943 446.604 374.937C446.029 374.937 445.422 373.823 444.896 373.167C444.568 372.758 444.401 372.226 444.11 371.787C441.374 367.689 438.663 363.573 435.872 359.513C435.105 358.399 433.935 357.545 433.279 356.381C433.043 355.967 433.65 354.5 434.114 354.363C437.178 353.485 440.279 352.55 443.429 352.179C453.308 351.003 463.204 350.031 473.107 349.09C474.048 349.003 475.577 349.431 475.954 350.111C478.084 353.943 480.008 357.891 481.84 361.877C482.249 362.769 482.02 363.957 482.082 365.009H482.07Z" fill="black"/>
<path d="M417.564 315.649C416.289 313.91 415.008 312.171 413.263 309.8C413.461 311.663 413.646 312.622 413.634 313.576C413.621 314.442 413.386 315.296 413.244 316.163C412.136 315.859 410.298 315.847 410.038 315.203C408.571 311.527 407.358 307.733 406.38 303.895C406.219 303.27 407.537 301.68 408.398 301.469C414.234 300.058 420.12 298.876 426.006 297.675C427.467 297.378 429.015 296.957 430.438 297.155C433.644 297.607 435.037 300.089 435.823 302.911C436.411 305.028 436.535 307.299 437.327 309.323C438.367 311.972 437.252 312.932 434.987 313.829C430.339 315.674 420.405 317.258 414.971 316.212C415.825 316.014 416.679 315.822 417.527 315.618C423.351 314.516 429.169 313.415 434.987 312.313C432.4 308.123 432.431 308.216 428.037 309.713C427.108 310.029 425.771 309.503 424.75 309.076C423.989 308.754 423.419 307.962 422.472 307.114C422.256 312.214 417.905 309.255 416.103 311.069C416.586 312.598 417.063 314.12 417.539 315.649H417.564ZM432.778 308.315C431.985 305.554 431.577 303.604 430.828 301.791C430.531 301.079 429.373 300.126 428.785 300.231C423.493 301.197 418.239 302.373 412.829 303.512C413.38 304.589 413.708 305.443 414.216 306.179C414.853 307.108 415.509 308.494 416.376 308.68C417.874 309.002 419.687 309.373 420.591 306.959C420.888 306.173 423.209 305.604 424.453 305.826C427.127 306.297 429.695 307.349 432.79 308.308L432.778 308.315Z" fill="black"/>
<path d="M454.471 310.041C448.802 310.017 445.206 306.86 445.175 301.89C445.144 297.334 448.926 293.906 453.939 293.949C458.179 293.98 461.985 298.839 461.905 304.013C461.837 308.048 458.513 310.338 454.471 310.047V310.041ZM459.113 304.83C457.646 300.881 455.833 298.405 452.107 297.65C451.191 300.522 451.723 303.363 453.463 305.282C454.205 306.099 457.003 305.053 459.113 304.83ZM449.86 297.254C446.19 300.726 446.004 302.558 448.783 304.038C449.13 301.847 449.507 299.501 449.86 297.254Z" fill="black"/>
<path d="M467.382 358.368C463.223 361.76 447.731 363.029 443.974 360.287C447.979 357.18 464.969 355.787 467.382 358.368Z" fill="black"/>
<path d="M466.287 328.739C466.454 331.444 464.393 334.068 462.004 334.205C458.761 334.39 456.477 332.614 456.328 329.724C456.204 327.421 456.353 324.648 459.058 324.419C465.228 323.906 466.039 324.642 466.293 328.733L466.287 328.739ZM458.884 326.932C459.305 329.513 460.289 330.268 463.155 330.163C463.087 327.223 461.645 326.264 458.884 326.932Z" fill="black"/>
<path d="M463.502 366.03C459.794 366.946 456.093 367.862 452.082 368.859C452.67 365.077 459.181 363.387 463.502 366.03Z" fill="black"/>
<path d="M715.056 252.814C713.967 250.679 712.803 248.581 711.85 246.384C711.646 245.913 712.215 245.109 712.432 244.459C713.045 244.725 714.023 244.842 714.202 245.288C715.112 247.547 715.817 249.887 716.591 252.202C716.084 252.406 715.57 252.61 715.062 252.814H715.056Z" fill="black"/>
<path d="M483.741 311.626C478.239 308.655 476.487 303.499 473.801 299.092C473.634 298.826 474.271 297.607 474.63 297.564C475.818 297.415 477.663 297.106 478.158 297.731C480.727 300.962 483.091 304.384 485.183 307.937C485.561 308.574 484.354 310.147 483.735 311.626H483.741Z" fill="black"/>
<path d="M586.75 84.4449C587.834 85.1505 589.078 85.7138 589.944 86.6298C590.377 87.0878 590.124 88.1957 590.186 89.0127C589.87 89.1303 589.554 89.2417 589.245 89.3593C588.124 88.0595 587.004 86.7598 585.89 85.46C586.181 85.1196 586.466 84.7854 586.757 84.4449H586.75Z" fill="black"/>
<path d="M449.86 297.254C449.501 299.501 449.13 301.84 448.783 304.038C446.004 302.565 446.19 300.726 449.86 297.254Z" fill="white"/>
</svg>
