<svg width="1080" height="1080" viewBox="0 0 1080 1080" fill="none" xmlns="http://www.w3.org/2000/svg">
<path d="M548.831 618.086C546.071 618.049 543.861 619.2 542.227 621.039C536.749 627.203 530.294 632.087 522.755 635.274C518.299 637.162 513.422 638.053 508.755 639.458C499.551 642.219 490.36 645.022 481.163 647.808C476.094 649.343 471.068 649.491 465.974 647.727C465.244 647.474 463.777 648.21 463.176 648.928C459.624 653.217 457.532 658.299 457.03 663.745C456.362 670.962 450.346 674.311 444.664 674.317C432.842 674.323 421.045 673.271 409.83 669.749C402.681 667.502 396.133 663.225 389.492 659.549C382.572 655.718 375.696 651.769 369.11 647.405C363.336 643.574 361.751 638.833 363.837 632.297C366.622 623.564 369.859 614.979 372.88 606.326C375.962 597.469 379.23 588.674 382.009 579.725C384.027 573.232 385.332 566.516 387.053 559.925C388.223 555.45 388.173 555.072 383.791 554.02C377.509 552.504 371.233 551.086 366.994 545.547C366.833 545.342 366.517 545.256 365.91 544.909C360.049 551.142 354.113 557.369 348.302 563.707C346.971 565.161 345.547 565.501 343.715 565.464C338.962 565.378 338.671 565.421 337.631 569.902C335.638 578.449 332.772 586.898 333.862 595.916C334.177 598.54 334.326 601.183 334.443 603.826C334.561 606.487 332.828 607.459 330.656 606.809C328.601 606.19 326.614 605.033 324.887 603.727C321.508 601.164 318.332 598.33 314.897 595.464C309.463 603.814 305.756 612.553 302.284 621.41C302.067 621.967 301.9 622.549 301.652 623.093C299.554 627.636 297.908 627.89 294.906 623.892C291.762 619.708 288.537 615.549 285.838 611.08C281.642 604.148 278.943 596.603 278.838 588.396C278.776 583.395 278.993 578.363 279.463 573.38C280.076 566.9 284.823 562.66 288.525 557.895C290.338 555.561 292.411 553.413 294.045 550.962C296.917 546.655 300.711 543.548 305.96 541.251C299.851 538.553 293.779 535.563 293.872 528.526C293.947 522.999 295.909 517.41 300.161 512.694C293.656 507.173 296.781 498.916 295.636 491.662C294.875 486.834 295.147 481.765 295.587 476.857C296.119 470.909 300.433 459.793 308.727 457.85C315.287 456.308 318.593 451.438 320.678 445.979C322.554 441.064 324.968 437.48 329.95 435.444C332.284 434.491 332.995 432.275 332.81 429.304C332.457 423.567 328.26 420.36 325.382 416.344C322.028 411.671 320.449 407.004 322.368 401.31C326.1 390.237 329.579 379.078 333.261 367.98C334.691 363.666 337.464 361.747 342.211 361.921C345.622 362.044 349.032 362.583 352.411 363.121C354.206 363.406 355.258 362.83 356.131 361.308C359.715 355.075 363.534 348.973 366.944 342.641C369.655 337.609 374.934 335.43 378.475 331.419C382.275 327.105 386.682 327.421 391.503 328.702C392.277 328.907 393.36 328.869 394.023 328.473C397.433 326.449 401.32 324.933 402.935 320.786C403.146 320.248 403.542 319.641 404.024 319.369C410.895 315.395 415.469 309.113 420.141 303.029C423.787 298.288 426.783 293.058 430.243 288.168C431.672 286.144 433.573 284.454 434.91 283C431.338 278.259 427.377 273.759 424.301 268.721C420.433 262.395 418.142 255.321 418.05 247.826C417.969 241.104 419.925 234.76 422.506 228.564C426.566 218.829 428.646 208.535 431.165 198.323C434.488 184.849 439.979 172.086 448.569 160.946C452.921 155.301 457.952 150.151 461.945 144.284C465.875 138.509 468.827 132.072 472.324 126C474.936 121.464 477.461 116.821 480.556 112.625C482.562 109.902 485.662 108.008 488.027 105.507C490.496 102.889 493.195 100.271 494.841 97.1515C497.571 91.9834 501.532 88.109 505.877 84.4573C507.486 83.1018 509.064 81.7154 510.711 80.2918C512.338 82.7304 513.805 81.0779 515.662 79.6729C522.545 74.4429 529.328 69.0149 536.632 64.4285C540.073 62.2684 544.573 61.736 548.652 60.6838C552.724 59.6316 557.422 59.7677 560.845 57.719C565.734 54.7853 570.16 54.9276 575.21 56.2645C581.406 57.9109 587.787 58.8952 593.939 60.6777C602.629 63.1906 609.301 69.0084 613.999 76.3552C617.719 82.1732 620.578 88.8144 620.275 96.1612C620.232 97.17 620.04 98.1789 619.829 99.1631C619.012 102.939 620.225 104.956 623.122 107.568C627.201 111.245 631.416 115.045 634.449 119.551C637.846 124.608 637.147 130.853 636.801 136.782C636.33 144.828 632.437 151.965 630.778 159.671C629.132 167.321 627.727 175.032 626.545 182.769C625.944 186.687 626.019 190.716 625.87 194.696C625.623 201.554 624.026 208.04 620.25 213.809C618.195 216.947 618.542 220.593 616.58 223.174C620.745 230.168 626.706 233.448 625.121 242.973C624.261 248.147 623.159 249.856 621.532 255.358C625.041 258.608 628.29 265.317 631.954 269.241C636.541 274.155 645.769 281.688 650.003 286.924C652.051 289.462 645.651 289.845 644.364 292.154C641.492 297.316 638.323 302.311 635.383 307.429C633.935 309.948 632.066 312.486 631.564 315.228C631.051 318.026 632.363 315.544 632.672 318.49C632.765 319.393 636.962 316.967 637.005 317.871C637.438 327.068 633.26 345.141 633.96 354.314C634.721 364.316 635.816 374.299 637.067 384.258C637.549 388.114 638.069 391.803 636.584 395.56C636.293 396.29 636.77 397.54 637.252 398.326C640.855 404.151 644.407 410.012 648.276 415.651C649.749 417.792 652.076 419.34 653.914 421.246C660.005 427.571 662.932 434.881 661.156 443.794C660.085 449.154 664.442 455.411 669.561 457.348C680.101 461.334 690.227 466.434 696.014 476.597C699.363 482.483 705.094 483.863 710.04 486.878C710.987 487.459 712.088 487.794 713.035 488.382C717.553 491.179 717.132 492.17 716.662 496.867C716.241 501.07 718.005 503.874 722.239 504.264C722.691 504.307 723.136 504.685 723.526 504.988C730.551 510.373 737.805 515.491 744.471 521.291C747.764 524.156 750.023 528.235 752.622 531.856C753.835 533.546 754.851 535.403 755.779 537.272C758.539 542.805 756.503 544.111 751.843 546.927C747.764 549.397 743.14 549.205 738.715 549.978C737.229 550.238 735.725 550.554 734.227 550.579C729.684 550.659 724.974 551.334 720.629 550.399C716.563 549.521 712.868 546.89 709.024 545.002C708.393 544.693 707.842 544.216 707.242 543.807C706.456 545.299 705.88 546.822 704.939 548.054C704.184 549.038 703.033 550.282 701.969 550.381C696.664 550.857 691.248 552.002 686.062 549.886C682.528 548.444 679.136 546.649 674.741 544.563C676.487 549.52 677.737 553.754 679.451 557.789C682.627 565.254 685.839 572.718 689.46 579.972C694.486 590.042 697.345 600.849 700.594 611.495C704.419 624.034 707.799 636.735 709.396 649.813C709.507 650.704 709.909 651.564 709.965 652.456C710.355 658.856 708.331 662.13 701.987 664.352C693.223 667.422 684.298 669.86 674.97 670.696C667.03 671.408 658.909 670.913 651.253 673.735C648.721 674.67 646.332 675.963 643.875 677.09C637.673 679.924 631.323 680.939 624.428 680.03C618.257 679.219 611.975 679.671 605.736 680.556C602.388 681.026 598.853 680.89 595.493 680.419C590.516 679.72 585.639 678.377 580.682 677.492C574.102 676.322 568.99 672.547 564.02 668.468C562.695 667.378 561.556 665.992 560.102 665.138C556.846 663.238 556.828 659.271 554.624 656.906C550.416 652.388 550.824 646.502 549.159 641.241C547.946 637.416 545.978 633.708 546.683 629.499C547.29 625.879 548.057 622.276 548.862 618.105L548.831 618.086Z" fill="white"/>
<path d="M245.211 897.097C245.446 878.777 248.591 862.3 253.771 846.152C256.6 837.332 263.451 833.897 271.745 832.771C276.981 832.059 282.354 831.985 287.652 832.139C291.099 832.239 294.522 833.235 297.945 833.904C298.502 834.015 299.176 834.38 299.467 834.844C300.866 837.054 302.438 836.194 304.06 835.234C308.429 832.653 313.041 834.776 314.724 839.443C317.652 847.564 315.906 855.783 315.801 863.953C315.776 865.927 314.768 867.716 311.908 867.369C309.166 867.041 306.344 867.456 303.577 867.252C301.337 867.085 300.513 868.255 299.851 870.056C295.884 880.85 291.737 891.582 287.93 902.438C286.377 906.87 285.256 911.493 284.427 916.123C283.195 922.968 281.982 929.864 281.537 936.789C281.159 942.589 279.698 947.937 277.538 953.21C277.124 954.225 276.783 955.277 276.27 956.243C274.481 959.604 272.29 960.291 269.133 958.112C263.117 953.965 258.042 948.822 255.015 942.088C250.608 932.29 247.569 922.028 246.072 911.388C245.347 906.245 245.434 900.99 245.224 897.085L245.211 897.097Z" fill="white"/>
<path d="M753.129 946.89C751.508 948.221 751.755 949.329 753.297 950.622C756.138 952.999 758.793 953.922 762.865 953.043C767.792 951.978 773.115 952.863 778.252 952.597C780.722 952.467 783.136 951.538 785.605 951.142C786.521 950.994 787.542 951.223 788.458 951.483C793.942 953.049 798.956 951.594 803.926 949.347C808.308 947.367 812.665 945.182 817.245 943.814C821.163 942.644 825.397 942.502 830.342 941.778C830.429 946.315 830.565 950.431 830.521 954.54C830.515 955.215 829.853 956.081 829.246 956.521C827.142 958.043 825.025 959.616 822.735 960.81C819.69 962.395 817.877 964.945 815.816 967.557C813.228 970.831 809.892 973.653 806.47 976.104C792.253 986.267 777.943 996.294 763.534 1006.18C759.826 1008.72 755.636 1010.55 751.675 1012.71C748.494 1014.45 745.325 1016.22 742.15 1017.96C737.761 1020.36 737.365 1019.57 733.844 1016.12C726.887 1009.31 725.079 1000.34 724.603 991.794C724.077 982.411 719.856 974.303 718.5 965.347C717.442 958.372 714.904 951.879 711.24 945.795C709.674 943.195 710.324 942.335 713.183 941.363C713.889 941.122 714.644 940.082 714.799 939.296C715.449 935.985 717.949 934.536 720.549 933.125C722.789 931.912 724.949 930.495 727.301 929.535C733.552 926.985 736.883 926.812 741.568 934.208C744.582 938.974 747.887 943.721 753.148 946.89H753.129Z" fill="white"/>
<path d="M429.394 289.752C425.21 289.003 422.648 286.806 421.113 283.501C420.358 281.873 419.559 281.886 418.297 282.771C416.056 284.343 414.069 286.02 414.168 289.146C414.218 290.625 413.878 292.185 412.138 292.513C410.61 292.804 409.335 291.968 408.505 290.693C406.543 287.685 405.312 284.51 406.97 280.246C401.883 282.22 397.779 280.14 393.632 278.209C387.177 275.201 379.533 280.722 377.732 287.512C376.63 291.671 377.348 295.626 378.648 299.563C378.945 300.466 379.415 301.574 378.289 301.939C377.323 302.255 376.123 303.22 375.052 301.89C370.323 296.004 365.768 290 366.145 281.892C366.442 275.511 370.174 271.327 375.627 268.616C379.298 266.79 383.185 265.397 386.929 263.714C394.251 260.421 400.441 256.138 404.556 248.68C407.119 244.038 410.207 239.668 412.132 234.648C409.056 237.087 408.765 241.364 405.875 244.013C405.633 243.239 406.258 241.482 404.315 242.775C398.776 246.464 392.066 246.606 385.957 248.599C385.054 248.896 383.977 248.643 382.145 248.643C385.889 244.917 390.271 242.763 392.53 237.836C387.065 240.405 381.798 241.562 376.203 241.283C371.35 241.042 367.03 239.501 363.137 236.697C362.562 236.282 361.509 235.874 362.091 234.803C362.568 233.918 363.502 233.423 364.418 233.528C383.711 235.67 398.231 225.532 412.46 214.781C415.97 212.125 416.063 211.463 417.01 207.297C415.128 207.805 414.267 209.439 413.011 210.466C408.004 214.564 402.149 216.625 395.935 217.677C386.842 219.212 377.843 221.818 368.522 221.273C363.434 220.976 358.576 219.255 353.866 217.238C352.04 216.458 351.464 215.01 351.247 213.128C358.155 215.177 365.124 215.752 373.102 214.446C369.877 213.772 367.389 213.592 365.192 212.695C362.698 211.673 359.318 212.385 357.95 208.647C357.499 207.415 354.559 207.322 353.005 206.159C352.281 205.614 351.26 205.472 350.659 204.166C363.323 208.504 376.079 209.718 389.863 208.17C383.853 207.57 378.555 208.016 373.288 207.291C365.019 206.153 356.892 204.426 349.372 200.867C344.167 198.41 341.369 193.7 341.128 187.807C341.023 185.226 341.988 184.867 344.29 185.864C348.611 187.733 352.949 189.528 356.929 192.072C357.393 192.369 357.87 192.394 358.489 191.886C354.559 189.243 350.505 186.749 348.308 182.373C347.354 180.467 346.531 178.523 347.719 176.326C348.598 174.698 349.651 174.488 350.814 175.794C358.848 184.799 369.797 186.117 380.833 187.504C387.43 188.333 394.245 189.014 400.18 186.254C406.747 183.196 413.302 182.911 420.147 183.054C421.064 183.072 421.98 183.054 422.908 182.825C417.981 182.577 413.061 182.385 408.159 181.865C397.748 180.758 388.464 177.347 381.693 168.868C380.876 167.846 379.217 166.466 380.752 165.259C382.033 164.257 384.299 163.731 385.71 165.074C392.159 171.245 399.902 169.35 407.484 168.985C414.243 168.657 420.878 167.723 427.34 165.761C434.847 163.477 440.987 159.045 446.36 153.388C456.758 142.445 463.974 129.318 471.841 116.629C477.405 107.649 483.458 99.0331 490.904 91.4326C493.201 89.0868 494.309 85.7569 497.205 83.6463C501.773 80.3102 506.743 77.9026 512.19 76.8628C515.631 76.2067 518.193 74.5665 520.811 72.5302C531.977 63.8527 544.331 57.6016 558.474 55.7633C575.494 53.5475 591.94 56.1284 607.277 63.8651C613.726 67.1145 619.866 71.2241 622.218 78.8928C623.208 82.1236 623.592 85.3545 622.521 88.5111C622.038 89.9346 622.484 90.2813 623.462 90.7765C634.219 96.2355 639.536 105.823 643.045 116.729C644.89 122.466 646.517 128.278 646.245 134.405C646.029 139.183 645.663 144.705 642.08 147.521C636.955 151.55 636.262 156.737 635.117 162.183C633.842 168.274 632.486 174.339 631.038 180.392C630.766 181.531 630.722 182.627 630.728 183.741C630.784 193.996 631.397 204.308 627.207 214.075C626.811 215.003 627.25 215.833 627.516 216.736C629.54 223.452 633.99 228.558 638.899 233.188C646.555 240.411 651.116 249.045 651.63 259.554C651.791 262.841 651.407 266.295 649.637 269.334C648.591 268.69 647.972 268.028 648.195 266.592C649.47 258.403 646.549 251.737 640.588 246.204C637.122 242.986 633.613 239.804 630.623 236.097C629.565 234.785 628.482 233.398 626.359 232.414C627.999 234.469 629.138 236.27 630.648 237.675C632.505 239.408 632.263 241.358 631.7 243.351C630.648 247.095 629.311 250.759 626.978 253.922C625.802 255.513 626.124 256.732 627.349 257.982C636.311 267.093 643.411 277.757 651.785 287.363C652.688 288.397 652.713 288.675 651.655 290.093C649.328 293.218 648.269 297.254 646.183 300.602C642.142 307.083 641.368 314.002 641.04 321.529C640.248 339.707 642.463 357.706 643.058 375.785C643.429 387.08 644.983 398.302 646.425 409.455C649.111 430.183 650.974 451.054 655.443 471.528C658.302 484.637 661.75 497.598 666.064 510.317C670.34 522.937 674.927 535.44 679.878 547.806C686.161 563.496 692.697 579.093 698.552 594.944C703.014 607.032 707.922 619.045 709.835 631.938C710.831 638.653 711.407 645.4 711.141 652.202C711.097 653.384 710.447 654.684 712.125 655.625C712.793 656.002 712.317 657.444 711.927 658.472C710.54 662.185 707.576 664.179 704.308 665.949C697.122 669.842 689.187 671.302 681.345 673.004C676.356 674.088 671.3 674.861 666.057 675.814C668.292 680.159 670.557 684.498 672.761 688.862C681.574 706.291 689.701 724.005 695.03 742.876C696.497 748.082 698.849 752.977 701.374 757.694C704.11 762.818 704.989 768.407 706.505 773.817C711.314 790.974 716.55 808.013 720.561 825.405C723.891 839.839 726.955 854.347 730.916 868.638C734.599 881.927 738.095 895.271 741.667 908.59C743.666 916.036 746.569 923.396 747.33 930.971C747.918 936.839 751.421 940.967 753.049 946.08C753.476 947.417 754.114 948.692 754.448 950.041C755.11 952.727 757.604 952.176 758.378 951.297C760.841 948.506 763.843 949.403 766.548 949.688C773.072 950.362 779.539 950.128 786.02 949.496C790.037 949.106 793.763 947.522 797.575 946.315C803.226 944.532 808.778 942.453 814.466 940.732C818.174 939.612 821.93 939.339 825.632 938.572C833.238 937 838.964 942.861 837.292 950.425C836.828 952.523 835.659 954.633 834.309 956.335C830.936 960.594 827.73 964.945 823.682 968.72C819.133 972.966 814.8 977.441 809.744 981.093C804.433 984.93 799.048 988.662 793.664 992.382C786.961 997.012 780.301 1001.72 773.455 1006.12C769.03 1008.97 764.456 1011.71 759.659 1013.84C754.33 1016.21 749.032 1018.67 743.561 1020.77C736.505 1023.47 733.992 1022.74 730.322 1015.97C726.794 1009.47 724.2 1002.64 722.182 995.533C721.031 991.472 719.082 987.258 719.998 983.272C721.106 978.444 718.884 974.91 717.59 970.868C716.476 967.383 715.659 963.793 714.867 960.21C714.39 958.056 713.394 956.051 713.462 953.711C713.499 952.349 711.803 952.337 711.011 952.776C706.418 955.289 701.318 955.679 696.348 955.853C691.403 956.026 686.16 956.255 681.655 953.754C679.94 952.801 678.424 951.136 678.003 948.394C677.433 944.706 676.053 941.066 675.069 937.39C673.082 930.006 670.582 922.764 668.187 915.516C664.974 905.774 662.115 895.927 658.995 886.154C656.383 877.972 653.877 869.752 651.005 861.656C648.622 854.947 645.546 848.455 643.541 841.64C642.352 837.592 640.706 833.699 639.647 829.577C638.484 825.065 637.227 820.473 635.624 816.041C633.501 810.186 632.79 803.996 631.564 797.949C629.28 786.716 625.839 775.767 623.623 764.533C622.602 759.365 621.024 754.234 621.469 748.88C621.896 743.718 618.288 740.599 615.639 737.064C604.684 722.445 593.598 707.919 582.581 693.349C577.438 686.547 572.363 679.701 567.232 672.887C565.926 671.154 565.641 669.891 567.362 667.892C571.125 663.523 575.432 659.697 578.886 654.963C576.8 656.813 574.597 658.552 572.654 660.545C567.634 665.689 561.841 669.997 556.97 675.307C553.801 678.755 550.415 681.967 547.816 685.94C546.955 687.252 545.395 688.354 544.071 689.437C539.342 693.305 536.372 698.579 532.819 703.37C529.78 707.467 527.1 711.824 524.302 716.101C520.861 721.362 517.463 726.648 514.052 731.927C509.534 738.915 505.196 746.027 500.467 752.872C492.34 764.626 484.325 776.466 475.635 787.823C473.921 790.064 472.033 791.97 469.31 793.338C467.28 794.359 465.707 796.674 463.807 798.29C458.596 802.727 453.304 807.004 447.418 810.607C443.822 812.81 440.64 815.831 437.638 818.851C430.397 826.123 422.592 832.771 414.583 839.121C407.601 844.661 400.273 849.897 392.574 854.359C387.436 857.336 382.293 860.382 377.366 863.631C370.434 868.199 363.18 872.284 356.502 877.254C351.959 880.627 347.113 883.592 342.353 886.668C339.246 888.673 337.043 891.514 334.728 894.293C333.335 895.964 331.875 897.611 329.337 895.512C328.291 894.646 326.49 894.757 325.209 894.089C322.522 892.703 320.406 890.604 318.4 888.314C314.006 883.295 311.307 877.483 309.847 871.046C309.494 869.499 309.048 869.239 307.359 869.579C305.972 869.851 304.579 870.767 303.007 870.241C301.732 869.808 301.801 871.126 301.72 871.652C300.736 878.195 298.984 884.551 297.127 890.87C296.347 893.532 294.299 895.673 293.593 898.452C292.139 904.184 290.957 909.94 290.084 915.807C289.378 920.555 288.568 925.333 287.707 930.074C286.643 935.954 285.009 941.679 283.746 947.497C282.49 953.266 279.772 958.378 274.672 961.615C270.742 964.109 263.662 961.448 261.322 957.047C261.223 956.868 260.975 956.645 261.019 956.527C262.479 952.801 259.249 951.081 257.633 948.735C252.898 941.84 249.599 934.425 247.365 926.28C245.322 918.84 243.435 911.332 242.754 903.769C242.098 896.441 241.59 888.976 242.469 881.5C243.72 870.885 246.795 860.771 249.933 850.658C251.264 846.362 253.183 842.24 254.866 838.056C257.534 831.415 263.334 829.886 269.566 829.237C274.208 828.754 278.85 828.302 283.536 828.29C289.242 828.271 295.147 828.556 299.436 832.43C302.333 835.048 304.456 834.033 307.303 833.544C310.088 833.068 311.437 831.551 312.174 829.156C312.935 826.668 315.139 825.455 316.865 823.914C320.536 820.639 322.993 816.338 326.422 812.946C329.968 809.437 333.007 805.451 336.987 802.332C339.636 800.252 341.901 797.702 344.755 795.796C347.014 794.292 348.976 792.342 351.074 790.603C353.748 788.387 356.403 786.152 359.102 783.967C363.131 780.706 367.123 777.45 371.815 775.055C378.066 771.867 384.243 768.513 390.123 764.613C397.154 759.94 404.222 755.28 411.953 751.789C412.763 751.424 413.816 751.603 414.627 751.244C418.755 749.4 422.314 747.197 423.385 742.14C425.26 733.289 427.785 724.587 430.118 715.841C432.402 707.287 435.503 699.012 437.942 690.52C439.18 686.206 441.148 682.059 442.435 677.547C437.806 677.12 433.312 677.368 428.825 676.842C413.308 675.029 398.386 671.383 384.515 663.98C375.955 659.413 368.039 653.954 361.138 647.102C359.832 645.808 358.532 644.478 357.468 642.992C356.465 641.593 355.797 639.959 358.124 638.994C358.941 638.653 359.015 638.01 359.071 637.248C359.962 624.474 364.685 612.763 369.419 601.103C373.337 591.453 377.75 582.008 381.792 572.409C382.807 569.995 383.092 567.284 383.995 564.814C384.608 563.149 384.032 562.636 382.578 562.307C379.885 561.713 377.274 560.853 374.872 559.479C373.145 558.489 371.462 557.393 372.18 554.893C370.267 556.131 368.751 555.784 367.173 554.571C365.192 553.048 363.768 552.832 362.085 555.549C358.278 561.676 353.191 566.82 348.072 571.889C346.995 572.959 346.302 573.529 344.94 571.938C343.591 570.366 341.314 570.799 339.451 571.022C338.083 571.189 338.763 572.693 338.615 573.603C337.445 580.758 338.695 588.018 337.748 595.179C337.241 599.023 337.915 602.929 336.882 606.735C335.774 610.808 333.657 614.001 329.56 615.505C324.899 617.214 321.495 615.016 321.47 610.108C321.458 608.22 320.443 607.286 319.261 606.345C317.478 604.921 316.017 603.238 314.934 601.263C314.396 600.279 314.025 599.01 315.132 598.231C316.061 597.575 317.07 597.593 318.116 598.627C319.174 599.679 320.783 600.186 321.371 601.752C321.631 602.452 322.355 602.941 322.752 602.514C325.871 599.208 327.028 602.755 328.805 604.154C328.867 604.203 328.978 604.197 329.424 604.29C329.287 600.279 329.795 596.361 330.03 592.431C330.402 586.081 331.243 579.817 332.766 573.653C333.28 571.579 334.059 569.549 335.86 568.113C337.018 567.197 337.179 566.355 335.842 565.223C326.119 557.003 316.011 549.434 303.781 545.212C302.376 544.73 301.547 544.606 300.389 545.819C292.82 553.76 286.779 562.735 281.957 572.545C279.853 576.822 278.838 581.142 281.177 585.815C283.294 590.036 283.443 594.74 283.629 599.363C283.864 605.33 286.921 610.325 288.617 616.322C291.272 607.317 290.66 598.472 293.538 590.246C293.965 589.033 294.218 586.873 295.407 587.164C297.239 587.61 296.484 589.646 296.298 591.144C295.413 598.175 294.231 605.194 293.822 612.256C293.544 617.003 295.302 621.559 297.48 626.399C300.049 619.875 302.388 613.853 304.796 607.849C307.668 600.688 311.902 594.096 313.585 586.434C313.783 585.53 314.526 583.785 315.491 584.032C316.835 584.379 316.896 585.852 316.673 587.381C315.225 597.216 311.635 606.407 308.435 615.716C307.464 618.532 306.133 621.23 305.267 624.071C303.979 628.286 300.86 630.904 297.598 633.399C295.308 635.15 292.145 633.764 291.247 630.483C290.443 627.543 289.923 624.517 289.459 621.503C289.236 620.042 289.094 618.915 287.175 619.163C286.643 619.231 285.906 618.928 285.504 618.544C281.673 614.818 277.891 610.931 276.938 605.448C275.929 599.642 275.291 593.855 273.311 588.179C270.761 580.87 273.596 574.055 277.353 567.798C282.211 559.708 287.88 552.188 294.782 545.212C289.013 543.021 288.24 538.051 288.097 532.933C288.054 531.404 288.858 529.776 289.545 528.316C290.765 525.716 292.176 523.203 293.532 520.672C294.373 519.093 296.038 517.961 293.098 516.172C291.334 515.101 291.811 511.883 292.863 509.648C293.216 508.893 293.742 508.25 293.463 507.364C292.306 503.676 292.888 499.813 292.516 496.044C291.959 490.455 291.588 484.804 291.625 479.135C291.662 473.787 293.389 469.362 296.867 465.469C301.881 459.861 308.113 455.64 313.684 450.67C312.824 448.219 309.488 446.832 310.713 443.428C310.955 442.76 309.772 442.995 309.253 442.809C304.171 440.953 303.038 438.922 304.468 433.606C308.856 417.26 314.724 401.452 322.027 386.183C324.546 380.916 326.911 375.605 328.099 369.837C329.393 363.567 333.106 359.872 339.531 358.597C345.083 357.501 350.703 357.216 356.273 356.449C359.003 356.071 358.829 357.408 357.926 359.296C353.785 367.986 350.368 376.985 346.785 385.91C346.345 387.006 345.98 388.126 346.098 389.494C347.955 385.879 349.861 382.29 351.65 378.644C357.251 367.219 362.859 355.793 368.361 344.324C371.796 337.157 375.435 330.107 379.57 323.323C384.942 314.504 393.23 310.109 403.009 308.098C405.578 307.572 408.245 307.281 410.622 308.995C411.259 309.453 411.798 309.168 412.188 308.605C417.022 301.685 422.679 295.49 429.345 289.746L429.394 289.752ZM550.062 186.687C550.217 184.601 551.61 182.942 552.074 180.974C552.513 179.124 551.715 177.397 549.846 178.115C545.532 179.78 541.168 180.12 536.662 179.959C534.967 179.897 534.985 181.544 534.601 182.546C534.168 183.673 535.394 183.679 536.093 183.871C538.853 184.638 541.632 184.935 544.535 184.942C546.367 184.942 549.066 183.543 550.062 186.681C549.549 188.005 548.236 188.451 547.147 188.581C544.554 188.884 543.378 190.382 542.431 192.616C540.679 196.757 538.29 200.594 535.629 204.19C533.871 206.567 532.912 208.393 533.506 211.785C535.759 224.609 538.853 237.099 544.436 248.921C546.516 253.328 553.757 257.729 558.758 257.351C559.928 257.264 560.182 257.178 559.922 255.766C559.501 253.489 558.789 251.168 559.155 248.791C560.083 242.775 561.909 237.099 565.765 232.111C563.178 231.207 560.683 230.371 558.214 229.462C555.298 228.391 552.681 226.813 550.329 224.782C548.806 223.47 548.404 221.576 549.239 220.116C550.099 218.605 551.802 219.707 553.089 220.215C554.135 220.623 555.138 221.143 556.165 221.607C570.889 228.205 586.078 231.944 602.313 228.867C606.806 228.013 611.492 227.382 614.215 222.888C617.273 217.838 620.132 212.707 622.162 207.137C625.195 198.8 623.809 189.745 626.414 181.333C626.953 179.588 625.665 179.068 624.31 179.551C622.732 180.108 621.283 180.157 619.872 179.334C617.916 178.189 617.211 176.382 618.288 174.407C619.173 172.786 619.984 170.557 622.843 172.309C624.836 173.528 626.544 172.439 626.941 170.118C627.163 168.812 627.114 167.45 627.423 166.169C628.29 162.598 629.565 159.058 624.576 157.275C623.165 156.768 621.915 155.078 622.41 153.673C622.967 152.088 625.183 152.435 626.278 152.905C630.283 154.626 631.087 152.107 632.01 149.216C632.499 147.694 632.431 146.58 631.36 145.33C630.37 144.178 629.695 142.767 628.865 141.48C625.987 137.036 624.595 131.973 623.017 126.687C616.97 132.19 610.508 136.504 603.545 140.007C593.444 145.088 583.207 149.811 571.397 148.48C570.265 148.35 569.497 148.876 568.68 149.594C566.056 151.884 563.469 154.255 560.634 156.26C555.658 159.782 550.818 163.693 544.127 164.145C545.6 167.475 545.792 171.059 546.856 174.748C549.394 170.892 552.78 172.284 555.874 172.371C554.791 172.792 553.708 173.213 552.495 173.683C557.781 177.335 558.406 180.659 554.952 184.453C553.565 185.981 551.709 185.981 550.075 186.687H550.062ZM541.335 268.962C544.22 274.638 547.754 278.822 551.053 283.204C552.86 281.762 552.946 280.276 552.272 278.29C550.768 273.858 549.053 269.445 548.385 264.797C547.809 260.768 545.458 258.799 541.948 257.153C533.797 253.334 526.159 248.618 519.598 242.317C519.004 243.177 518.478 244.217 517.692 244.985C517.147 245.511 516.423 246.563 515.408 245.616C512.32 242.738 508.364 241.197 504.973 238.802C493.578 230.755 480.797 229.251 467.546 231.486C455.588 233.497 445.091 239.235 435.101 245.969C426.535 251.743 424.82 260.056 426.071 269.476C426.652 273.87 430.149 276.297 432.996 279.286C436.023 282.467 439.167 282.728 443.166 282.449C450.754 281.935 458.379 281.743 465.986 282.597C482.276 284.417 498.152 287.92 513.298 294.326C524.698 299.154 534.799 305.659 541.304 316.651C542.227 318.211 543.266 319.752 542.722 322.395C533.951 313.922 525.422 305.752 513.712 301.166C517.11 310.233 518.404 319.245 518.645 328.331C518.986 341.087 516.132 353.404 511.701 365.275C505.641 381.528 497.218 396.469 485.65 409.523C484.573 410.742 483.316 413.107 482.45 412.97C479.881 412.568 479.931 414.258 479.46 415.619C472.906 434.676 463.417 452.285 452.896 469.374C447.449 478.225 440.814 486.147 432.953 492.987C425.774 499.238 420.89 506.535 420.315 516.506C419.881 523.94 419.138 531.46 417.201 538.67C414.428 548.994 408.103 556.681 395.829 554.633C394.096 554.342 394.059 555.512 393.737 556.576C392.283 561.454 390.587 566.207 389.702 571.294C387.882 581.742 383.618 591.521 380.121 601.492C375.993 613.277 371.883 625.062 369.723 637.638C375.869 635.924 381.835 634.767 387.969 634.692C398.633 634.556 409.26 634.674 419.85 636.425C428.41 637.843 437.081 638.536 445.66 639.854C455.396 641.352 465.194 642.175 475.01 642.677C483.527 643.11 491.944 642.07 500.306 640.312C513.279 637.589 525.843 633.677 537.776 627.872C541.057 626.275 544.374 624.517 544.869 620.116C544.975 619.2 546.008 617.746 547.543 618.922C548.156 619.392 548.28 621.008 549.481 619.838C550.923 618.439 553.838 618.86 554.048 615.945C554.413 610.9 552.594 606.277 551.238 601.604C547.952 590.259 543.712 579.198 540.803 567.742C538.73 559.572 537.851 551.216 537.127 542.83C536.285 533.143 536.545 523.513 538.29 513.975C539.627 506.671 541.447 499.461 543.415 492.287C548.732 472.871 550.137 452.849 552.148 432.944C553.095 423.554 554.321 414.208 555.627 404.875C557.31 392.799 558.969 380.699 559.489 368.543C560.132 353.54 559.835 338.519 557.842 323.559C555.787 308.191 551.938 293.478 543.947 280.023C542.128 276.959 540.58 273.666 541.342 268.944L541.335 268.962ZM296.533 502.363C296.533 504.412 296.465 506.467 296.552 508.51C296.694 511.864 297.616 512.873 300.977 512.78C312.353 512.471 322.832 515.862 333.063 520.35C346.952 526.452 359.764 533.979 368.132 547.273C368.652 548.097 369.283 548.363 370.205 548.103C377.825 545.955 385.487 546.71 393.125 547.93C397.952 548.703 401.654 547.193 404.068 542.953C405.33 540.738 406.333 538.373 406.896 535.836C408.431 528.897 408.512 521.792 409.26 514.773C410.232 505.663 413.469 498.081 420.123 491.446C424.715 486.865 429.011 481.808 433.102 476.677C439.39 468.792 444.62 460.22 449.863 451.635C458.447 437.598 465.41 422.818 470.572 407.196C474.329 395.826 477.065 384.159 480.395 372.671C484.851 357.309 488.02 341.681 490.861 325.973C491.133 324.481 491.146 322.841 490.836 321.361C488.521 310.32 483.44 300.615 476.347 291.912C475.555 290.941 474.682 290.217 473.277 290.111C465.41 289.53 457.544 289.01 449.652 289.257C446.774 289.35 443.921 289.61 441.055 288.948C439.675 288.626 438.183 288.731 437.119 290.025C430.032 298.665 423.019 307.361 417.115 316.88C410.665 327.285 405.664 338.426 400.552 349.511C393.415 364.99 385.957 380.291 376.599 394.594C367.197 408.966 356.973 422.719 345.695 435.667C340.428 441.72 334.994 447.686 328.891 452.886C321.953 458.796 314.557 464.156 307.402 469.814C303.007 473.292 298.737 477.012 298.025 483.009C297.264 489.428 296.75 495.883 296.546 502.363H296.533ZM616.066 487.633C614.488 477.303 613.473 467.041 612.829 456.736C612.755 455.535 613.349 454.142 611.034 454.192C605.637 454.309 602.164 451.128 599.491 446.82C599.07 446.139 598.723 445.279 598.098 444.864C593.877 442.091 591.321 438.557 591.092 433.21C590.857 427.695 591.296 422.545 594.576 417.872C595.616 416.387 596.538 414.932 593.629 413.707C588.907 411.72 585.781 408.031 584.289 402.938C583.677 400.858 584.159 397.25 582.123 397.07C580.334 396.915 578.28 399.645 576.374 401.142C575.167 402.089 573.978 403.185 572.363 403.105C567.795 402.876 567.795 402.832 567.529 407.264C567.492 407.876 567.523 408.502 567.442 409.108C565.684 422.799 563.691 436.459 562.224 450.181C560.962 462.003 559.637 473.8 557.056 485.398C554.735 495.859 552.049 506.238 549.388 516.618C548.756 519.081 548.955 520.585 551.579 521.656C553.312 522.361 554.717 523.859 555.781 525.524C560.467 532.84 559.613 544.148 551.313 549.038C548.496 550.696 548.137 552.677 548.583 555.307C549.623 561.441 550.824 567.538 552.526 573.535C556.338 586.96 561.94 599.933 562.751 614.113C562.812 615.221 563.481 615.604 564.601 615.71C570.747 616.267 576.658 617.987 582.6 619.522C588.938 621.162 595.313 622.586 601.806 623.44C602.771 623.57 604.3 624.325 604.628 622.741C604.944 621.218 605.761 619.875 605.983 618.383C606.763 613.228 610.031 610.003 614.302 607.639C616.122 606.63 618.077 606.017 619.482 608.629C620.083 609.743 621.352 610.077 622.757 609.656C624.898 609.006 626.829 610.17 627.504 611.785C628.216 613.5 629.212 614.156 630.716 614.552C633.223 615.214 634.727 617.449 634.516 619.386C634.114 623.124 635.797 622.041 637.914 621.757C646.307 620.643 651.06 615.641 653.233 607.806C654.663 602.631 655.146 597.352 654.941 591.979C654.886 590.463 654.39 590.16 652.948 590.11C648.133 589.937 641.845 584.187 641.362 579.273C640.737 572.922 641.455 566.665 645.273 561.33C646.728 559.299 646.561 557.808 645.62 555.852C639.92 543.956 632.951 532.71 627.683 520.585C625.245 514.971 621.11 510.28 618.455 504.74C612.037 491.353 606.41 477.612 600.456 464.02C600.079 463.154 599.658 462.324 600.92 461.365C605.996 470.16 611.034 478.894 616.072 487.627L616.066 487.633ZM635.055 319.715C631.459 322.612 629.045 326.245 625.994 329.284C620.151 335.102 615.682 341.954 611.702 349.14C611.145 350.148 611.015 351.133 611.176 352.352C611.993 358.436 612.915 364.526 613.281 370.648C614.525 391.462 617.916 412.061 619.371 432.857C620.169 444.208 621.488 455.528 622.658 466.849C623.351 473.577 624.261 480.292 625.957 486.853C630.45 504.282 638.608 520.232 646.635 536.151C652.212 547.206 657.114 558.396 660.24 570.366C663.309 582.126 663.563 593.725 658.537 605.064C657.256 607.954 655.505 610.69 654.607 613.692C653.134 618.587 650.64 622.741 646.319 625.322C641.362 628.274 635.798 629.951 630.172 631.35C631.298 631.598 632.375 631.672 633.501 631.393C638.044 630.279 638.057 630.298 640.409 634.346C641.281 635.85 642.129 637.372 642.983 638.889C643.441 639.706 643.714 640.294 645.063 639.935C653.574 637.644 662.133 635.553 670.662 633.349C671.615 633.102 672.779 632.21 673.293 633.467C673.813 634.742 672.197 634.742 671.498 635.057C663.854 638.548 655.944 641.352 647.904 643.76C646.264 644.249 645.954 644.459 646.734 646.093C649.21 651.311 652.818 655.798 655.771 660.657C659.497 666.79 663.39 667.626 669.882 665.75C680.813 662.588 692.331 662.13 703.454 659.635C705.583 659.159 706.276 658.156 706.196 656.361C705.954 651.15 705.83 645.907 704.741 640.795C702.717 631.307 699.065 622.344 695.581 613.382C689.249 620.11 681.345 624.238 672.791 627.277C668.546 628.788 664.182 629.902 659.596 629.252C658.457 629.091 656.619 629.487 656.526 627.971C656.445 626.665 657.572 625.365 659.051 624.826C659.713 624.585 660.388 624.375 661.062 624.164C671.993 620.741 683.066 617.721 693.024 611.73C694.522 610.826 694.485 610.374 693.953 609C689.23 596.949 684.756 584.793 679.878 572.805C673.652 557.492 668.007 541.975 662.561 526.372C653.623 500.767 646.926 474.586 642.618 447.823C640.31 433.47 638.038 419.11 636.256 404.677C634.776 392.669 633.198 380.693 633.266 368.568C633.31 360.249 633.254 351.924 633.576 343.618C633.879 335.727 633.78 327.805 635.061 319.715H635.055ZM552.712 262.302C554.667 266.796 556.4 270.813 558.177 274.805C558.467 275.455 558.678 277.009 559.569 276.26C561.364 274.768 563.617 275.795 565.356 274.706C567.95 273.078 570.537 273.691 573.081 274.731C580.941 277.943 583.039 288.707 580.205 295.911C578.769 299.556 575.965 301.586 573.037 303.66C571.403 304.817 570.197 305.925 571.267 308.314C572.388 310.808 573.081 313.501 573.805 316.15C577.413 329.352 579.883 342.808 582.587 356.214C584.011 363.282 584.556 370.524 587.019 377.437C587.632 379.152 588.573 381.429 588.368 383.193C587.539 390.317 589.792 396.909 591.253 403.624C591.909 406.626 593.209 409.387 596.811 410.296C598.278 410.668 598.934 410.637 599.187 409.145C600.308 402.492 601.051 395.789 601.75 389.073C602.344 383.329 602.183 377.573 602.542 371.83C602.913 365.925 603.403 360.026 602.988 354.085C602.815 351.572 601.453 350.718 599.466 350.934C594.613 351.461 590.448 350.34 587.706 346.168C586.282 344.008 584.574 342.009 584.494 338.946C584.389 335.065 584.587 331.494 585.862 327.699C587.824 321.832 591.383 317.592 596.885 316.744C598.271 316.534 597.912 315.803 597.807 315.017C597.436 312.282 597.25 309.509 596.65 306.829C592.862 289.975 587.91 273.542 578.645 258.731C577.933 257.599 576.541 256.478 577.933 255.036C579.295 253.631 580.966 254.071 582.457 254.844C585.199 256.256 587.05 258.632 588.659 261.151C599.961 278.872 604.987 298.597 606.967 319.257C607.611 325.979 608.15 332.7 609.27 339.75C611.554 336.593 613.429 333.561 615.732 330.899C623.314 322.16 630.729 313.371 636.516 303.233C639.746 297.576 642.73 291.591 648.022 287.042C640.31 281.459 634.943 273.666 628.562 266.852C625.208 263.274 622.391 258.855 618.213 256.478C608.242 250.809 597.727 245.925 585.75 248.147C579.728 249.261 573.891 251.397 567.844 253.099C570.852 256.775 569.547 261.498 565.363 262.884C561.24 264.246 557.143 263.491 552.712 262.296V262.302ZM258.76 891.966C257.992 887.683 258.673 884.254 259.075 880.813C260.065 872.457 261.495 864.182 263.29 855.962C264.435 850.714 265.908 845.558 267.511 840.427C267.759 839.629 269.56 838.756 268.229 838.069C267.468 837.679 265.915 838.564 265.104 839.61C264.664 840.173 264.045 840.65 263.779 841.287C262.516 844.32 261.155 847.328 260.202 850.46C259.094 854.105 258.042 857.813 256.841 861.39C254.922 867.122 253.511 872.995 252.539 878.838C251.648 884.186 251.246 889.744 251.029 895.277C250.757 902.333 251.667 909.172 252.168 916.092C252.546 921.316 253.678 926.404 254.916 931.497C256.414 937.656 258.196 943.641 261.192 949.248C263.352 953.29 267.09 955.017 271.219 955.667C276.164 956.447 280.948 949.54 280.633 944.984C280.323 940.447 280.323 935.904 279.742 931.336C279.16 926.781 279.228 921.96 279.624 917.175C280.33 908.553 281.574 900.39 287.361 893.538C287.794 893.024 287.924 892.245 288.159 891.576C288.493 890.623 288.041 890.128 287.144 890.357C283.783 891.198 280.447 890.672 277.074 890.555C275.52 890.505 274.097 889.991 273.651 889.082C273.292 888.357 274.196 886.841 275.564 886.185C276.48 885.746 277.061 885.275 278.287 885.479C281.648 886.049 285.114 885.479 288.506 886.333C289.236 886.513 291.446 887.138 291.161 884.446C291.068 883.592 291.291 882.057 291.966 881.104C292.851 879.853 292.677 879.798 291.229 879.859C288.264 879.977 285.287 880.714 282.316 879.909C281.444 879.674 280.398 879.482 280.837 878.164C281.202 877.062 281.883 877.47 282.774 877.625C285.714 878.12 288.716 878.263 291.656 878.739C292.393 878.857 292.69 878.987 292.999 878.225C293.94 875.917 295.401 873.831 295.989 871.361C296.162 870.637 296.026 869.901 295.32 869.981C293.383 870.204 291.601 869.288 289.806 869.288C286.08 869.288 283.028 867.103 281.184 864.906C279.29 862.653 278.844 858.822 279.915 855.3C282.193 847.823 287.317 842.816 293.643 838.799C295.63 837.537 297.784 836.546 300.649 835.005C297.938 835.005 296.081 835.123 294.249 834.987C287.447 834.473 280.713 835.215 273.992 836.032C273.187 836.132 272.122 836.534 271.992 837.673C271.559 841.374 269.845 844.815 269.226 848.312C268.347 853.233 266.694 857.918 265.636 862.758C264.349 868.651 263.005 874.549 261.625 880.423C260.783 883.994 261.217 887.869 258.753 891.966H258.76ZM511.063 134.399C508.99 134.145 506.892 134.114 504.929 133.588C502.435 132.92 501.179 135.643 499.019 135.433C496.939 135.235 496.246 135.953 496.642 138.008C496.809 138.887 496.741 139.895 496.499 140.768C495.262 145.206 495.775 150.269 491.251 153.506C489.506 154.756 487.494 156.922 487.364 158.792C487.222 160.766 486.634 161.898 485.315 162.808C483.886 163.799 483.093 165.173 482.431 166.64C479.528 173.089 478.402 179.644 478.984 186.916C480.222 202.383 493.628 209.526 505.214 209.569C517.203 209.619 529.619 201.238 533.747 189.732C534.057 188.872 534.428 188.451 533.376 187.801C530.863 186.254 530.677 183.512 531.37 181.228C531.977 179.21 532.441 175.874 535.239 176.072C537.665 176.246 537.393 175.726 536.904 174.104C536.526 172.835 536.384 171.498 535.975 170.236C532.658 159.93 525.521 153.128 515.854 148.684C515.383 149.316 515.111 150.151 515.074 151.104C515.043 151.878 515.365 153.035 514.269 153.153C513.248 153.264 512.777 152.342 512.542 151.333C511.286 145.837 510.203 140.328 511.057 134.405L511.063 134.399ZM827.544 943.542C825.978 942.985 825.267 944.241 824.171 944.594C818.935 946.302 813.649 947.912 808.524 949.917C800.887 952.913 793.478 956.589 785.234 957.641C782.139 958.037 780.165 959.541 778.778 962.153C778.5 962.686 778.197 963.224 777.8 963.67C777.491 964.01 777.045 964.586 776.531 964.134C776.129 963.781 775.634 963.261 775.906 962.587C776.247 961.739 776.637 960.909 777.045 960.099C777.293 959.61 777.559 958.941 776.841 958.91C774.823 958.824 771.927 958.099 770.93 959.127C766.659 963.546 761.782 967.414 758.162 972.446C757.753 973.009 757.58 973.82 756.552 973.505C756.435 972.514 756.496 971.58 756.688 970.546C757.53 966.108 760.439 962.952 763.094 959.622C763.565 959.028 764.357 958.434 763.942 957.672C763.02 955.995 758.155 955.586 757.214 957.103C752.826 964.196 747.72 970.911 746.333 979.521C746.012 981.52 744.353 982.888 741.877 983.042C736.814 983.358 731.906 984.379 727.394 986.936C726.175 987.629 725.766 988.273 726.193 989.548C728.638 996.863 730.897 1004.24 733.596 1011.46C734.506 1013.9 734.654 1016.84 736.895 1018.72C741.623 1014.95 747.058 1012.45 752.331 1009.94C759.839 1006.38 766.474 1001.51 773.232 996.925C779.558 992.642 785.853 988.223 792.203 983.977C797.712 980.295 803.27 976.636 808.333 972.446C814.157 967.631 819.721 962.382 824.276 956.249C826.362 953.439 828.337 950.542 828.751 946.296C817.264 957.703 803.715 965.39 790.903 974.13C778.023 982.919 765.595 992.376 752.065 1000.19C775.164 978.555 801.679 961.51 827.538 943.554L827.544 943.542ZM619.185 88.4183C618.04 84.6056 616.332 81.6285 613.844 79.0351C605.971 70.8404 596.241 66.1243 585.243 63.9147C574.845 61.8227 564.44 61.0552 553.9 63.5C545.414 65.4682 537.888 69.4664 530.38 73.5514C521.876 78.1811 514.176 83.8566 508.544 92.0328C514.356 91.1848 520.161 91.1786 525.67 92.9364C528.833 93.9453 530.498 93.0417 533.017 91.2591C547.97 80.6753 564.682 75.3588 583.089 76.3182C591.296 76.7453 599.639 77.6796 606.565 82.6064C610.328 85.2864 614.314 86.9886 619.185 88.4307V88.4183ZM292.925 532.531C313.87 539.815 332.469 550.059 347.447 566.442C351.557 560.123 356.731 555.27 362.035 550.548C363.31 549.415 363.286 548.827 362.128 547.509C354.521 538.825 345.108 532.58 335.13 527.04C333.447 526.106 333.162 527.096 332.568 528.235C330.333 532.543 327.87 536.702 324.15 540.026C323.179 538.738 323.587 537.773 324.088 536.875C325.951 533.558 327.622 530.104 329.826 527.022C331.15 525.165 330.556 524.621 328.959 523.989C326.218 522.906 323.358 522.052 320.758 520.703C318.159 519.353 316.903 519.855 315.906 522.597C314.829 525.574 313.368 528.439 310.818 530.525C310.428 530.841 310.02 531.243 309.457 531.033C308.603 530.711 308.943 529.993 309.085 529.454C309.587 527.585 310.156 525.741 310.707 523.884C311.202 522.231 311.957 520.604 312.131 518.914C312.335 516.939 310.107 517.441 309.395 517.422C307.161 517.36 304.19 514.649 302.896 517.1C300.068 522.466 296.775 527.461 292.931 532.518L292.925 532.531ZM502.584 129.899C502.584 129.899 502.584 129.893 502.584 129.887C502.998 129.887 503.407 129.856 503.822 129.887C512.74 130.593 519.474 127.479 523.009 116.92C524.11 113.615 525.169 110.397 528.158 107.797C531.599 104.802 530.027 100.797 525.633 99.4972C518.732 97.4609 511.663 97.6963 504.601 97.6963C503.345 97.6963 502.788 98.4885 502.107 99.2313C494.81 107.166 491.851 117.026 489.66 127.226C489.264 129.058 489.994 129.937 491.913 129.912C495.472 129.869 499.031 129.899 502.59 129.899H502.584ZM738.95 936.678C737.669 936.863 736.449 936.987 735.248 937.216C729.022 938.398 722.987 940.138 717.751 943.889C716.129 945.052 714.663 946.562 715.925 948.698C716.903 950.344 717.404 952.189 718.036 953.897C720.895 961.633 723.445 969.5 725.847 977.398C726.379 979.155 726.874 979.23 728.248 978.599C731.343 977.181 734.407 975.634 738.003 976.005C739.339 976.141 738.968 975.058 739.03 974.285C739.241 971.685 739.457 969.153 740.807 966.733C743.363 962.172 746.519 958.217 750.716 955.085C751.112 954.794 752.139 954.751 751.254 953.426C747.695 948.097 743.177 943.375 740.769 937.297C740.41 936.393 739.531 936.808 738.943 936.684L738.95 936.678ZM379.075 640.999C376.29 640.368 373.622 641.556 370.843 641.587C370.181 641.594 369.388 641.86 369.147 642.671C368.906 643.481 369.364 644.057 369.976 644.503C379.496 651.466 389.349 657.878 400.453 662.049C413.364 666.902 426.467 670.919 440.424 671.544C445.09 671.754 445.14 672.163 446.304 668.164C446.595 667.168 446.774 666.431 445.14 666.134C441.21 665.416 437.323 664.42 433.622 662.81C418.569 656.268 403.498 649.763 388.439 643.227C385.45 641.928 382.603 640.133 379.069 640.993L379.075 640.999ZM309.748 834.696C308.392 835.11 307.73 835.915 306.894 836.41C299.479 840.798 291.91 845.255 289.688 854.502C288.407 859.837 288.654 862.733 294.683 863.947C298.786 864.77 302.741 863.792 306.758 863.903C307.278 863.916 310.107 863.909 308.652 861.279C308.287 860.617 308.045 859.292 307.984 858.277C307.507 850.441 307.81 842.643 309.754 834.696H309.748ZM541.379 250.419C534.527 238.065 529.687 225.952 529.266 211.841C527.911 213.543 525.701 213.568 525.856 215.709C526.4 223.396 524.655 230.644 521.839 237.706C521.579 238.362 521.065 238.9 522.148 239.389C528.622 242.286 534.168 246.823 541.379 250.425V250.419ZM570.128 369.874C572.109 369.069 573.947 369.447 575.717 368.766C577.054 368.252 577.475 368.147 577.16 366.383C575.148 355.044 572.369 343.872 570.017 332.607C569.027 327.866 567.578 323.224 566.34 318.539C569.014 335.479 570.692 352.445 570.122 369.874H570.128ZM342.626 374.275C344.352 374.596 346.209 373.81 346.457 371.786C346.729 369.602 344.656 368.778 342.805 368.438C341.45 368.19 337.984 371.291 338.33 372.597C338.813 374.423 340.713 374.206 342.626 374.275ZM336.052 387.854C338.014 388.064 339.469 386.938 341.066 386.369C341.914 386.065 342.471 384.976 342.353 384.116C342.254 383.367 341.202 383.131 340.459 382.958C338.473 382.506 336.826 382.902 335.155 384.345C334.14 385.217 333.632 385.923 333.886 387.086C334.189 388.473 335.409 387.606 336.059 387.854H336.052ZM412.504 266.753C406.531 269.81 400.385 272.335 393.273 274.273C398.986 275.009 408.072 271.166 412.504 266.753ZM571.707 111.783C578.695 107.581 586.159 104.331 593.32 100.512C585.212 102.561 578.336 106.974 571.707 111.783ZM331.206 400.103C329.875 401.062 327.065 399.929 326.508 402.158C325.753 405.178 328.959 403.402 330.135 404.373C331.423 405.438 332.289 403.785 333.18 403.03C333.768 402.529 334.387 402.065 333.886 401C333.292 399.737 332.289 400.493 331.2 400.103H331.206ZM534.843 149.73C542.388 149.811 548.311 145.726 554.358 141.956C547.896 144.667 541.633 147.898 534.843 149.73ZM608.342 402.764C607.983 405.326 607.228 407.648 606.392 409.944C604.968 413.855 605.179 414.171 609.555 414.252C609.152 410.42 608.744 406.595 608.342 402.764ZM471.903 139.45C474.701 134.43 477.257 129.85 480.16 124.639C476.508 126.477 471.408 135.823 471.903 139.45ZM463.968 222.276C465.28 213.697 468.913 207.155 474.1 201.362C469.081 203.906 463.442 215.263 463.968 222.276ZM612.061 443.496C610.452 446.121 607.84 445.848 605.34 446.449C607.37 448.163 609.573 450.113 611.653 449.37C613.077 448.863 612.099 445.873 612.068 443.496H612.061ZM473.611 220.821C475.072 218.209 477.084 216.08 478.817 213.673C475.14 213.326 472.813 216.328 473.611 220.821ZM613.423 236.06C614.215 239.383 615.014 242.713 615.806 246.037C616.01 242.49 615.893 239.024 613.423 236.06ZM551.226 153.37C552.934 152.695 554.166 151.346 555.187 149.817C555.416 149.47 554.903 148.975 554.494 149.142C552.835 149.823 551.133 150.529 550.391 152.361C550.192 152.856 550.44 153.363 551.226 153.376V153.37ZM584.061 110.403C586.939 109.382 588.833 107.884 590.776 106.473C588.257 106.813 585.967 107.574 584.061 110.403ZM617.297 235.144C616.926 237.706 618.04 239.501 618.789 241.952C619.111 238.762 618.614 236.493 617.297 235.144Z" fill="black"/>
<path d="M759.604 547.038C760.483 551.841 758.378 554.342 753.588 554.293C753.483 554.293 753.365 554.33 753.278 554.293C746.142 551.34 739.928 554.868 733.961 557.672C725.767 561.522 719.385 559.04 713.32 553.612C712.49 552.869 711.63 551.6 710.578 552.98C707.712 556.719 703.98 556.149 700.353 554.973C698.595 554.404 695.432 554.243 695.73 551.922C695.915 550.449 699.096 550.387 700.916 550.641C704.586 551.148 705.781 549.49 707.025 546.209C710.392 537.327 713.456 528.384 714.78 518.982C715.87 511.258 715.864 503.44 715.56 495.629C715.356 490.344 715.474 490.344 710.621 488.728C709.371 488.314 708.121 487.899 706.908 487.398C705.707 486.903 704.549 486.302 703.07 485.609C704.797 493.179 701.541 499.715 699.982 506.789C702.482 506.467 704.778 506.535 706.691 508.101C705.837 510.546 704.085 511.351 701.647 510.967C699.418 510.614 698.465 511.388 698.044 513.826C697.691 515.856 698.187 518.196 696.528 520.115C693.712 517.744 694.337 514.544 694.646 511.629C695.562 503.125 697.394 494.794 699.87 486.605C700.155 485.665 700.328 484.396 699.926 483.585C695.977 475.638 691.663 467.907 682.608 464.707C678.783 463.352 674.754 462.615 671.04 460.839C664.721 457.812 661.44 452.477 659.559 446.084C658.952 444.016 659.559 441.961 661.05 440.427C662.406 439.034 662.443 437.777 661.818 436.007C660.667 432.764 658.395 430.307 656.557 427.534C654.273 424.087 651.172 420.961 651.791 416.257C651.94 415.131 651.971 413.719 653.041 413.379C654.589 412.884 654.601 414.617 655.072 415.502C658.172 421.357 663.037 425.912 666.751 431.334C670.149 436.292 671.362 441.219 669.573 446.956C668.713 449.717 669.932 451.654 673.076 452.706C677.068 454.043 681.259 454.662 685.201 456.203C689.07 457.714 692.202 460.282 694.591 463.488C698.496 468.731 702.581 473.973 704.048 480.577C704.37 482.032 705.032 482.465 706.462 482.663C711.153 483.319 715.505 485.491 720.475 485.25C722.777 485.138 724.108 487.571 724.739 489.941C725.884 494.255 726.237 498.644 726.063 503.063C725.995 504.895 726.522 505.532 728.286 506.319C740.949 511.969 751.397 520.201 757.673 532.933C758.471 534.548 758.892 536.355 759.43 538.095C760.105 540.249 760.179 542.39 761.937 544.396C764.159 546.933 760.984 546.636 759.604 547.026V547.038ZM758.223 540.472C750.74 527.22 739.043 518.598 726.181 510.831C725.847 512.285 725.5 513.269 725.407 514.278C724.392 525.413 721.044 535.823 716.068 545.801C715.455 547.032 712.893 548.097 714.638 549.762C715.672 550.746 717.621 550.882 719.206 551.123C720.289 551.291 721.465 551.08 722.567 550.876C726.28 550.195 730.074 549.743 733.664 548.641C738.442 547.181 742.93 550.145 747.801 548.858C751.756 547.812 752.152 548.035 750.326 544.21C749.627 542.749 748.673 541.709 747.095 541.134C745.281 540.471 743.431 539.809 742.224 538.07C741.58 537.142 739.674 536.758 740.51 535.241C741.302 533.799 742.806 534.524 744.099 534.808C749.1 535.892 753.538 538.274 758.217 540.465L758.223 540.472Z" fill="black"/>
<path d="M650.411 1024.61C647.006 1025.29 642.352 1023.15 637.512 1022.5C630.728 1021.59 623.951 1022.3 617.192 1021.92C613.033 1021.68 608.83 1021.4 604.869 1019.96C603.118 1019.33 601.112 1018.89 600.407 1016.58C599.961 1015.12 598.445 1015.81 597.423 1015.8C589.742 1015.74 582.136 1015.17 574.807 1012.66C572.709 1011.94 570.568 1011.23 569.237 1009.15C568.606 1008.16 567.832 1007.27 568.531 1006.12C569.256 1004.92 570.512 1005.19 571.608 1005.41C575.303 1006.13 579.029 1006.65 582.748 1007.22C587.787 1007.99 592.8 1007.57 597.826 1007.74C599.07 1007.79 600.425 1007.61 601.236 1008.72C604.059 1012.59 608.236 1012.28 612.105 1011.93C623.431 1010.91 634.535 1011.5 645.583 1014.47C655.09 1017.02 664.919 1016.48 674.661 1016.39C675.174 1016.39 675.688 1016.35 676.202 1016.32C678.021 1016.22 678.789 1017.64 679.216 1018.91C679.81 1020.69 677.991 1020.83 676.957 1021.13C668.818 1023.42 660.462 1024.15 650.417 1024.61H650.411Z" fill="black"/>
<path d="M399.066 986.125C396.405 992.098 390.618 995.019 384.596 993.131C381.266 992.085 378.505 991.875 375.318 994.035C371.183 996.839 366.956 995.879 363.589 992.116C362.438 990.829 361.497 990.866 360.141 991.646C358.031 992.859 356.255 994.666 353.797 995.236C353.135 995.39 352.225 995.65 351.842 994.914C351.619 994.487 351.842 993.688 352.089 993.175C353.711 989.882 359.51 986.843 363.174 987.319C365.161 987.573 366.863 988.186 367.983 990.117C369.085 992.017 370.577 992.704 372.792 991.281C376.147 989.133 379.991 988.508 383.68 990.006C388.427 991.937 392.165 990.451 395.891 987.641C396.764 986.979 397.593 985.778 399.066 986.125Z" fill="black"/>
<path d="M700.198 524.596C702.142 525.37 704.599 525.982 706.276 528.043C707.013 528.947 707.31 529.857 705.948 530.482C703.819 531.46 699.004 529.232 698.15 526.892C697.494 525.085 697.865 524.559 700.198 524.59V524.596Z" fill="black"/>
<path d="M704.562 536.504C700.73 537.154 697.153 536.64 693.402 534.542C698.162 531.862 701.077 535.582 704.562 536.504Z" fill="black"/>
<path d="M412.584 598.812C428.503 599.134 442.739 602.52 456.758 607.075C466.407 610.207 476.223 612.732 486.429 612.355C499.569 611.866 512.258 608.864 524.587 604.333C525.602 603.962 526.45 603.12 527.496 604.476C528.932 606.333 527.849 607.15 526.413 608.059C518.973 612.769 510.729 615.574 502.373 618.068C494.946 620.29 487.377 621.484 479.59 620.822C468.982 619.924 459.023 616.366 448.928 613.358C432.873 608.573 416.52 606.017 399.729 606.902C396.566 607.069 393.428 607.719 390.277 608.097C389.659 608.171 388.873 608.895 388.402 607.874C388.068 607.137 388.464 606.525 388.836 605.875C390.705 602.588 394.134 601.734 397.296 600.855C402.619 599.376 408.146 598.98 412.584 598.812Z" fill="black"/>
<path d="M509.869 506.535C509.745 510.354 506.86 512.149 505.01 514.581C504.057 515.832 501.909 516.488 503.184 518.852C503.537 519.508 502.51 520.566 501.637 520.133C499.78 519.205 498.901 520.672 498.01 521.532C483.328 535.706 467.094 547.837 449.695 558.433C448.272 559.3 448.427 559.943 448.965 561.039C450.098 563.341 451.206 565.65 452.351 567.946C452.988 569.227 454.139 570.8 452.518 571.753C451.082 572.594 449.293 573.418 447.35 572.347C445.685 571.431 444.985 569.846 444.032 568.41C443.642 567.816 443.29 567.185 442.98 566.547C439.025 558.458 439.675 560.197 445.728 555.023C446.954 553.971 447.226 553.395 446.421 552.07C444.013 548.109 443.296 543.678 443.364 539.153C443.444 533.843 442.794 528.514 444.304 523.247C447.412 512.378 455.21 507.105 465.658 504.814C472.076 503.403 478.47 502.698 484.926 504.759C488.825 506.003 491.653 508.85 494.952 510.979C495.125 511.091 495.255 511.258 495.404 511.394C497.694 513.461 499.885 514.322 502.398 511.524C504.317 509.395 506.638 507.668 509.869 506.548V506.535ZM495.788 516.859C492.631 514.996 490.155 512.409 486.894 510.874C479.974 507.618 473.116 509.234 466.301 511.023C459.06 512.923 453.211 516.735 450.37 524.045C446.941 532.871 448.055 541.883 449.541 550.876C449.788 552.355 450.717 551.204 451.032 550.994C453.242 549.508 455.365 547.899 457.531 546.345C470.566 536.981 483.366 527.319 495.794 516.859H495.788Z" fill="black"/>
<path d="M544.189 359.055C544.461 375.042 540.89 390.46 537.164 405.834C533.84 419.537 529.439 432.987 527.069 446.913C526.369 451.023 525.577 455.163 525.59 459.372C525.59 460.096 525.652 460.827 525.534 461.532C525.286 463.067 524.76 465.233 523.355 465.203C521.245 465.159 521.975 462.851 521.925 461.452C521.35 444.592 524.618 428.184 527.923 411.788C531.036 396.377 535.059 381.139 537.151 365.529C538.036 358.931 538.501 352.278 539.243 345.661C539.423 344.089 539.082 341.471 540.976 341.452C543.05 341.434 543.068 344.139 543.471 345.853C544.48 350.198 544.09 354.642 544.182 359.055H544.189Z" fill="black"/>
<path d="M521.239 399.113C520.094 404.182 518.354 409.344 516.597 414.506C513.149 424.65 509.801 434.831 507.084 445.199C506.836 446.139 506.978 447.699 505.778 447.439C504.558 447.179 503.871 446.01 504.187 444.289C506.235 433.253 508.984 422.416 512.487 411.758C514.022 407.091 515.742 402.535 518.033 398.191C518.521 397.268 518.992 396.532 520.038 396.686C521.208 396.86 521.282 397.869 521.232 399.107L521.239 399.113Z" fill="black"/>
<path d="M362.246 529.071C363.323 520.096 363.843 510.998 367.915 502.679C369.636 499.164 371.759 495.877 375.33 493.946C377.998 492.504 379.434 493.191 380.393 496.056C381.538 499.461 380.17 502.506 378.877 505.458C377.187 509.314 374.934 512.985 372.087 515.999C369.413 518.833 369.048 522.139 368.522 525.512C368.318 526.818 367.996 528.124 367.897 529.429C367.705 531.905 366.801 534.462 364.282 534.208C361.881 533.966 362.506 531.014 362.24 529.064L362.246 529.071ZM375.535 499.448C372.607 503.892 371.468 508.033 371.109 512.44C373.48 508.726 375.293 504.821 375.535 499.448Z" fill="black"/>
<path d="M432.892 317.951C447.956 319.814 463.145 321.232 476.892 328.554C479.702 330.051 482.196 332.051 484.585 334.167C485.377 334.867 485.675 335.808 485.248 336.662C484.802 337.565 484.004 336.953 483.391 336.643C470.585 330.157 456.393 328.399 442.751 324.766C438.827 323.72 434.823 322.909 431.14 321.114C430.057 320.588 428.119 320.402 428.652 318.613C429.042 317.289 430.633 318.193 431.66 317.97C432.05 317.883 432.477 317.957 432.892 317.957V317.951Z" fill="black"/>
<path d="M378.493 459.558C388.569 476.43 394.61 494.751 397.946 514.043C397.439 514.229 396.938 514.408 396.43 514.594C392.487 495.487 382.374 478.64 376.803 460.127C377.366 459.936 377.93 459.744 378.493 459.558Z" fill="black"/>
<path d="M595.412 485.25C594.397 490.022 593.239 495.302 587.96 498.396C586.394 499.312 585.026 500.556 583.528 501.596C579.257 504.561 574.938 503.911 570.908 500.463C568.247 498.186 565.567 496.069 563.45 493.197C562.701 492.182 562.132 490.963 562.348 490.269C563.797 485.535 563.543 480.15 566.885 476.139C570.246 472.116 575.037 470.346 580.05 469.609C587.923 468.452 592.49 471.98 594.347 479.964C594.712 481.53 595.455 483.01 595.418 485.256L595.412 485.25Z" fill="black"/>
<path d="M584.383 598.237C578.565 597.983 575.111 594.01 571.645 590.073C571.453 589.856 571.478 589.411 571.267 589.263C567.337 586.545 568.742 583.383 570.457 580.164C571.274 578.623 570.983 576.828 571.373 575.169C572.276 571.295 575.092 569.463 577.853 567.47C581.195 565.056 585.379 564.697 589.192 563.799C593.945 562.679 599.825 569.042 600.883 574.197C601.453 576.989 601.657 579.434 601.391 582.275C600.859 587.944 597.455 591.113 593.178 593.929C590.436 595.737 588.146 598.435 584.389 598.243L584.383 598.237Z" fill="black"/>
<path d="M597.943 530.624C598.779 524.218 599.819 517.911 605.538 513.604C608.515 511.363 610.817 511.375 613.584 514.049C614.296 514.736 615.063 514.637 615.855 514.681C616.679 514.724 618.034 514.402 618.245 514.767C620.702 519.013 627.368 519.236 627.919 525.636C628.141 528.223 630.159 530.723 628.934 533.632C628.5 534.666 628.216 535.836 627.541 536.69C624.774 540.199 621.092 542.953 617.514 545.274C610.916 549.558 600.178 543.981 598.624 536.145C598.271 534.356 597.578 532.568 597.943 530.624Z" fill="black"/>
<path d="M599.373 155.858C593.766 154.273 587.304 155.975 580.849 155.845C579.765 155.821 578.076 156.656 577.717 154.88C577.37 153.147 578.187 151.761 579.914 150.925C583.009 149.433 586.376 148.938 589.674 148.573C593.301 148.177 596.972 147.818 600.679 148.363C603.013 148.709 605.464 148.709 605.606 151.754C605.724 154.391 603.526 155.895 599.367 155.858H599.373Z" fill="black"/>
<path d="M622.101 190.556C621.624 192.45 621.055 194.152 619.123 194.981C616.796 195.984 614.506 197.345 611.9 195.872C610.83 195.266 610.483 194.412 611.529 193.403C612.049 192.908 612.544 192.388 613.046 191.874C615.905 188.971 615.831 189.107 612.309 187.164C610.823 186.347 608.175 185.276 608.843 183.518C609.709 181.241 612.21 182.646 613.949 183.166C616.617 183.958 618.969 185.363 620.745 187.597C621.457 188.495 621.952 189.448 622.101 190.556Z" fill="black"/>
<path d="M590.448 171.443C590.578 173.875 587.886 178.084 585.942 178.925C583.584 179.947 582.804 178.641 582.718 176.778C582.569 173.602 583.293 170.576 585.125 167.902C585.893 166.776 586.939 165.922 588.319 165.99C589.984 166.07 589.6 167.785 590.194 168.738C590.758 169.648 590.226 170.557 590.455 171.443H590.448Z" fill="black"/>
<path d="M597.64 210.968C599.429 210.683 601.31 211.129 603.167 211.637C603.904 211.841 605.043 211.94 605.142 212.726C605.247 213.549 604.677 214.453 603.922 215.041C601.843 216.669 594.329 217.052 592.101 215.709C591.352 215.257 591.011 214.57 591.339 213.933C591.964 212.72 592.354 211.135 594.1 210.987C595.214 210.894 596.347 210.968 597.64 210.968Z" fill="black"/>
<path d="M556.604 188.235C557.242 184.193 557.781 180.51 558.418 176.84C558.604 175.775 558.926 173.993 559.978 174.222C561.476 174.55 560.832 176.246 560.597 177.403C560.071 179.997 559.508 182.577 558.876 185.146C558.592 186.285 558.35 187.548 556.604 188.235Z" fill="black"/>
<path d="M523.745 188.401C523.745 186.043 523.671 183.679 523.758 181.321C524.011 174.537 514.288 160.543 505.611 159.689C502.862 159.417 500.083 159.503 497.335 159.027C496.054 158.804 493.987 158.971 493.888 157.869C493.721 156.068 495.8 155.66 497.261 155.4C511.23 152.936 516.281 155.134 523.628 167.512C527.614 174.228 525.695 181.407 523.745 188.401Z" fill="black"/>
<path d="M497.787 192.387C495.027 192.462 492.563 191.725 490.527 189.775C489.784 189.064 489.388 188.203 490.02 187.331C490.645 186.464 491.536 186.966 492.229 187.356C494.067 188.402 495.825 189.126 497.862 187.677C499.236 186.699 500.832 186.984 502.169 187.845C503.073 188.426 502.869 189.565 502.51 190.382C501.804 191.967 500.374 192.449 498.716 192.375C498.406 192.363 498.103 192.375 497.793 192.375L497.787 192.387Z" fill="black"/>
<path d="M504.082 177.78C503.76 175.329 504.905 174.382 506.062 174.611C508.575 175.1 508.427 177.607 508.786 179.476C508.971 180.436 508.495 182.125 507.09 181.723C504.911 181.092 504.564 178.832 504.082 177.78Z" fill="black"/>
<path d="M488.992 180.077C488.893 181.104 488.466 181.723 487.463 181.766C486.269 181.822 484.047 179.21 484.152 177.91C484.214 177.124 484.548 176.252 485.346 176.499C487.141 177.05 488.651 178.09 488.998 180.077H488.992Z" fill="black"/>
<path d="M473.791 521.383C475.153 521.377 476.452 521.464 476.917 522.906C477.486 524.658 477.901 526.508 476.564 528.136C474.15 531.082 470.659 532.184 467.193 532.927C464.637 533.478 462.799 530.03 464.259 527.505C466.364 523.859 469.725 521.99 473.791 521.383ZM474.478 526.545C470.715 526.211 468.258 527.548 466.184 529.807C469.31 530.092 471.854 528.972 474.478 526.545Z" fill="black"/>
<path d="M455.675 532.915C455.582 533.88 454.981 534.722 454.14 534.4C452.27 533.682 451.825 531.8 451.435 530.061C451.231 529.151 451.819 528.211 452.735 528.427C455.006 528.966 454.907 531.274 455.681 532.915H455.675Z" fill="black"/>
<path d="M478.402 515.937C479.485 516.073 480.946 516.129 480.933 517.496C480.921 519.533 478.885 518.338 477.863 518.907C477.028 519.372 475.926 518.487 475.97 517.546C476.025 516.246 477.078 515.732 478.402 515.937Z" fill="black"/>
</svg>
