<svg width="1080" height="1080" viewBox="0 0 1080 1080" fill="none" xmlns="http://www.w3.org/2000/svg">
<path d="M513.408 158.046C511.653 158.75 509.892 159.449 508.554 159.989C507.538 158.222 506.564 156.52 505.367 154.43C508.548 153.567 512.234 152.37 516.009 151.607C521.169 150.562 526.387 149.805 531.599 149.03C533.953 148.678 536.354 148.631 538.726 148.355C539.066 148.314 539.442 147.821 539.63 147.445C541.531 143.659 543.45 139.873 545.229 136.022C545.517 135.406 545.399 134.05 544.971 133.739C540.615 130.616 541.643 126.618 543.081 122.433C539.471 121.371 535.843 120.625 532.474 119.257C522.536 115.225 515.933 107.817 511.994 97.9614C508.09 88.1997 506.446 78.0212 507.315 67.561C507.896 60.5523 509.423 53.6082 509.875 46.5995C510.08 43.418 508.636 40.1485 508.096 36.8907C507.685 34.396 505.801 31.9775 507.532 29.3361C507.943 28.708 508.489 27.7218 509.029 27.6866C514.817 27.2933 520.388 24.9982 526.404 26.0841C528.13 26.3952 530.273 24.7634 532.145 23.8653C543.733 18.3241 555.877 14.3384 568.533 12.5422C572.876 11.9259 574.755 8.86178 577.754 7.00101C581.347 4.76457 585.326 4.5239 589.154 3.51428C589.67 3.37927 590.956 4.17171 591.026 4.65891C591.625 8.83243 594.519 11.697 596.931 14.6965C597.87 15.8646 600.318 16.2872 602.062 16.252C605.584 16.1816 609.094 15.5359 612.61 15.1837C615.151 14.9313 616.666 15.6239 616.496 18.6998C616.349 21.3882 617.746 23.6305 620.358 24.511C626.569 26.6007 632.908 28.3323 639.089 30.5101C641.754 31.4493 644.09 33.2748 646.697 34.4253C649.726 35.7578 652.948 36.6559 655.983 37.9766C661.201 40.2541 666.372 42.6608 671.479 45.179C672.119 45.496 672.789 46.9752 672.571 47.615C671.468 50.8435 670.323 54.1072 668.691 57.0773C667.746 58.7855 666.044 60.7461 664.318 61.1922C662.064 61.7792 662.147 63.5871 660.896 64.9137C662.81 66.3636 664.617 67.8193 666.513 69.1518C669.413 71.1887 669.712 73.0846 667.541 75.9315C666.455 77.3579 665.915 78.573 667.177 80.5747C668.292 82.3474 668.192 84.8832 668.685 87.3544C661.207 91.0525 655.109 85.6287 647.736 84.3431C647.078 90.6709 646.292 96.9224 645.857 103.191C645.74 104.888 646.21 107.036 647.231 108.334C651.217 113.417 650.33 118.195 646.92 122.967C642.394 129.301 637.786 135.576 633.237 141.892C631.67 144.07 630.197 146.306 628.635 148.49C627.279 150.386 625.565 151.548 623.052 151.395C618.486 151.119 613.854 150.427 609.358 150.92C602.607 151.659 596.28 150.609 589.952 148.548C589.436 148.378 588.056 149.529 587.722 150.339C584.881 157.171 582.192 164.068 579.457 170.954C579.21 171.576 579.122 172.304 578.741 172.815C573.734 179.418 577.032 184.965 581.399 189.849C586.747 195.831 592.465 201.524 598.434 206.89C602.502 210.547 604.463 214.843 605.331 220.038C606.083 224.523 607.439 228.908 608.167 233.392C609.147 239.45 609.98 245.549 610.526 251.66C611.295 260.335 611.019 269.169 612.504 277.71C614.882 291.417 614.559 305.211 615.451 318.964C615.956 326.712 618.022 334.361 619.401 342.051C619.448 342.315 619.601 342.585 619.777 342.796C625.529 349.693 627.913 358.445 632.515 365.941C636.712 372.768 641.631 379.154 646.239 385.723C647.724 387.842 649.356 389.867 650.741 392.045C651.809 393.723 652.666 395.584 650.301 397.333C659.182 410.746 668.093 424.118 676.898 437.554C679.592 441.669 682.145 445.889 684.481 450.21C686.542 454.019 687.581 457.964 687.07 462.589C686.595 466.828 687.757 471.23 688.062 475.574C688.379 480.129 687.951 484.825 688.954 489.21C689.735 492.643 691.866 495.942 694.002 498.86C696.714 502.558 696.022 505.998 693.92 509.279C692.752 511.098 692.946 512.302 693.973 513.875C699.209 521.87 703.559 530.328 706.752 539.339C707.768 542.209 708.319 545.267 708.818 548.284C709.646 553.309 710.321 558.363 710.902 563.423C711.037 564.568 710.544 565.783 710.344 566.945C703.388 566.387 702.502 559.05 697.196 556.303C695.728 557.97 694.255 559.883 692.518 561.521C691.631 562.361 690.31 562.995 689.119 563.141C688.532 563.212 687.281 561.991 687.217 561.275C687.076 559.69 687.164 557.923 687.751 556.473C689.043 553.297 690.698 550.274 692.435 546.717C690.721 541.581 685.532 540.161 680.161 538.124C680.525 542.309 680.86 546.148 681.2 549.981C681.441 552.693 681.752 555.422 679.01 557.195C674.532 555.81 672.665 551.583 669.824 548.367C669.695 548.22 669.625 548.02 669.484 547.891C665.199 543.894 664.066 538.722 664.007 533.152C663.972 529.284 664.242 525.386 663.825 521.559C663.502 518.653 662.187 515.871 661.524 512.989C660.045 506.567 654.873 505.604 649.608 504.736C647.219 504.342 644.818 504.055 642.435 503.632C638.919 503.016 637.757 503.955 637.581 507.659C637.534 508.621 637.692 509.707 637.305 510.523C635.391 514.579 633.654 518.624 629.633 521.412C626.721 523.431 625.929 527.035 626.481 530.616C627.573 537.736 628.359 544.939 630.02 551.93C632.797 563.611 636.26 575.128 639.225 586.768C640.522 591.863 641.561 597.058 642.194 602.264C642.658 606.074 641.343 607.5 637.704 608.815C635.749 609.52 633.76 610.107 631.911 610.705C632.721 615.982 633.126 621.394 634.429 626.578C637.27 637.854 640.234 649.13 643.821 660.183C645.834 666.381 649.432 672.046 651.898 678.115C654.774 685.195 658.125 692.274 659.61 699.687C661.782 710.523 661.712 721.67 660.556 732.735C660.057 737.548 659.81 742.391 659.282 747.204C658.648 752.939 657.803 758.651 657.087 764.38C656.623 768.119 656.136 771.864 655.842 775.621C655.519 779.695 655.408 783.786 655.197 787.871C655.026 791.059 654.874 794.246 654.662 797.428C654.058 806.561 655.12 815.472 657.603 824.294C658.66 828.051 658.718 832.084 659.516 835.928C660.538 840.859 661.953 845.702 662.998 850.627C664.225 856.42 665.211 862.267 666.349 868.078C667.148 872.14 668.093 876.173 668.879 880.24C670.804 890.161 672.8 900.069 674.538 910.019C675.935 918.043 677.073 926.114 678.177 934.185C678.635 937.549 678.048 941.176 679.052 944.328C682.961 956.602 688.89 967.849 697.618 977.464C697.97 977.852 698.763 977.84 699.361 977.981C699.69 978.057 700.178 977.94 700.348 978.127C703.899 982.09 707.351 986.14 710.949 990.049C714.13 993.501 717.453 996.823 720.746 1000.17C722.701 1002.17 724.673 1004.15 726.716 1006.06C731.012 1010.07 736.753 1010.87 742.042 1012.34C755.02 1015.97 768.157 1019.03 781.212 1022.38C782.809 1022.79 785.086 1022.62 784.869 1025.37C784.857 1025.55 785.198 1025.8 785.421 1025.94C786.612 1026.69 788.655 1027.24 788.861 1028.19C789.459 1031 789.7 1033.99 789.418 1036.85C788.573 1045.53 781.423 1048.82 775.043 1052.33C768.016 1056.19 760.133 1057.63 752.174 1058.22C747.131 1058.6 742.042 1058.4 737.017 1058.9C728.201 1059.76 719.396 1060.79 710.632 1062.07C701.915 1063.34 693.263 1065.01 684.575 1066.48C671.802 1068.62 659.041 1070.83 646.245 1072.83C638.561 1074.04 630.859 1075.64 623.029 1073.53C619.243 1072.5 616.355 1070 616.338 1065.06C616.326 1061.37 615.04 1057.7 614.741 1054C614.489 1050.9 614.16 1047.54 615.052 1044.66C618.497 1033.53 623.592 1023.14 630.29 1013.54C632.984 1009.68 636.665 1006.1 635.814 1000.67C635.626 999.459 635.28 998.261 634.98 997.064C634.605 995.573 633.378 994.205 635.72 992.831C636.553 992.344 636.178 989.809 636.325 988.482C635.761 988.37 635.127 988.417 634.722 988.136C632.41 986.504 633.137 983.809 633.184 981.773C633.331 975.797 631.511 970.279 630.243 964.597C628.236 955.599 626.698 946.494 624.632 937.507C621.233 922.727 617.617 908.011 611.553 894C607.257 884.073 602.942 874.153 600.471 863.517C599.714 860.259 597.325 857.401 595.887 854.272C592.512 846.923 590.991 839.081 590.028 831.103C589.841 829.565 589.535 828.045 589.289 826.56C586.413 825.58 585.843 823.807 586.36 820.849C587.158 816.305 587.27 811.644 587.698 807.037C588.855 794.528 589.993 782.019 591.197 769.516C592.136 759.749 593.591 750.01 594.043 740.225C594.548 729.201 590.756 718.97 586.043 709.22C578.412 693.436 570.387 677.845 562.569 662.155C560.89 658.78 559.376 655.328 557.732 651.801C555.179 654.125 554.815 657.905 553.723 661.216C550.688 670.449 547.859 679.753 545.194 689.104C543.996 693.313 543.321 697.674 542.511 701.988C541.766 705.939 543.163 708.98 546.661 711.046C547.818 711.727 548.933 712.49 549.984 713.317C551.874 714.814 553.013 716.634 553.165 719.217C553.805 729.976 547.008 739.891 536.712 743.283C533.243 744.428 529.814 745.86 526.592 747.574C521.391 750.345 515.862 751.66 510.103 752.534C508.049 752.845 505.772 753.72 504.222 755.058C491.566 766.035 480.196 778.239 470.728 792.086C465.046 800.392 460.303 809.367 454.322 817.438C447.472 826.677 439.747 835.277 432.339 844.099C426.586 850.95 419.982 857.224 415.134 864.65C408.718 874.476 400.77 882.964 393.721 892.209C390.14 896.905 387.135 902.03 383.795 906.908C380.742 911.369 377.578 915.759 374.473 920.185C374.268 920.473 374.127 920.808 373.833 921.342C374.732 921.418 375.483 921.283 376.011 921.565C377.567 922.381 379.504 923.003 378.242 925.562C376.921 928.227 375.741 930.968 374.696 933.745C374.35 934.672 374.238 936.011 374.649 936.85C379.357 946.377 382.368 956.503 384.317 966.84C385.262 971.847 385.544 976.912 388.367 981.291C391.531 986.199 395.1 990.853 398.123 995.843C404.439 1006.25 410.655 1016.72 416.613 1027.33C419.067 1031.7 416.966 1036.83 412.821 1039.57C408.284 1042.58 403.377 1044.89 398.047 1044.56C393.862 1044.29 389.271 1043.15 385.749 1040.96C373.287 1033.23 360.526 1025.76 350.389 1014.89C345.763 1009.94 341.496 1004.63 337.281 999.312C331.511 992.039 325.958 984.596 320.276 977.259C319.566 976.337 318.656 975.556 317.787 974.776C310.221 967.966 302.743 961.052 295.024 954.419C289.864 949.987 289.688 945.091 291.519 938.934C293.797 931.291 299.444 926.953 305.308 922.733C311.829 918.037 318.603 913.828 326.387 911.146C329.627 910.03 332.204 906.432 334.599 903.556C339.617 897.539 344.542 891.417 349.08 885.036C352.449 880.299 355.073 875.046 358.172 870.109C359.593 867.855 361.647 865.971 362.904 863.646C364.87 859.995 366.425 856.115 368.122 852.317C369.636 848.924 371.074 845.496 372.589 842.104C376.175 834.05 379.791 826.002 383.396 817.955C383.748 817.174 384.071 816.376 384.47 815.624C385.303 814.039 385.808 812.742 384.669 810.782C383.865 809.39 383.976 806.937 384.61 805.328C388.05 796.647 392.048 788.182 395.358 779.46C399.479 768.589 405.173 758.686 412.387 749.646C421.515 738.2 432.832 729.501 446.303 723.76C451.604 721.506 457.087 719.651 462.563 717.843C466.244 716.628 469.407 714.838 471.902 711.832C473.815 709.525 476.305 707.764 476.903 704.401C477.297 702.188 480.226 701.137 482.579 701.625C483.777 701.877 485.027 701.9 486.183 702.024C487.181 695.89 488.085 690.061 489.089 684.244C490.163 678.022 491.408 671.823 492.406 665.589C492.846 662.824 492.682 659.966 493.098 657.189C494.085 650.556 495.576 643.988 496.221 637.325C496.615 633.293 495.869 629.137 495.488 625.051C495.441 624.547 494.496 624.124 493.967 623.66C493.615 623.842 493.257 624.03 492.905 624.212C492.458 618.571 491.56 612.918 491.666 607.283C491.848 597.733 489.459 588.687 487.592 579.471C486.712 575.145 487.552 570.42 487.904 565.9C488.332 560.406 489.154 554.947 489.658 549.453C490.228 543.219 490.621 536.973 491.12 530.733C491.39 527.376 491.954 524.024 491.919 520.672C491.907 519.434 490.545 518.213 489.482 517.268C489.283 516.276 489.084 515.284 488.884 514.292C487.598 514.626 486.313 514.961 484.54 515.425C483.472 515.031 481.769 514.403 479.967 513.746C476.199 518.641 472.289 523.601 468.568 528.702C468.01 529.466 468.104 530.904 468.28 531.966C469.284 538.112 470.646 544.205 471.345 550.38C471.562 552.311 470.346 554.583 469.307 556.432C467.993 558.774 466.197 560.84 464.6 563.018C462.774 565.507 460.908 567.831 457.233 566.417C456.552 566.153 455.683 566.381 454.163 566.381C454.063 572.968 453.888 579.536 453.905 586.11C453.917 589.503 454.357 592.89 454.415 596.289C454.433 597.24 454.034 598.684 453.371 599.024C452.696 599.376 451.398 598.783 450.494 598.355C449.825 598.038 449.303 597.357 448.775 596.782C443.21 590.683 437.815 584.414 432.004 578.556C430.319 576.859 427.49 576.249 425.13 575.292C423.381 574.582 421.556 574.012 419.724 573.555C414.353 572.21 411.078 568.682 408.671 563.846C404.462 555.411 408.037 548.766 413.138 542.379C417.03 537.507 421.28 532.882 424.779 527.746C426.534 525.169 426.927 521.682 428.042 518.647C428.805 516.581 429.474 514.397 430.672 512.584C432.732 509.461 433.337 506.508 432.662 502.634C432.01 498.889 432.979 494.827 433.448 490.929C433.8 488.036 432.198 484.49 429.38 483.61C421.603 481.191 413.702 468.553 415.251 460.236C416.249 454.865 418.386 449.699 419.983 444.434C420.441 442.925 420.787 441.387 421.297 439.427C413.796 440.354 407.451 438.558 401.81 434.343C396.644 430.487 391.942 426.202 390.052 419.745C388.925 415.888 389.048 415.853 385.016 416.317C383.73 421.154 379.492 422.979 375.635 424.781C372.324 426.325 368.545 426.853 364.976 427.839C363.596 428.221 362.047 428.35 360.896 429.096C358.255 430.816 356.699 428.585 354.797 427.716C353.065 426.924 352.631 425.386 353.036 423.584C353.053 423.507 353.165 423.455 352.872 423.731C356.359 423.731 359.487 423.601 362.604 423.76C367.746 424.024 371.532 421.5 375.054 418.189C376.316 417.004 376.017 416.27 374.725 415.513C374.15 415.172 373.61 414.773 373.053 414.403C371.521 413.388 369.079 412.66 368.656 411.304C367.811 408.569 367.535 405.41 367.957 402.569C369.595 391.587 371.597 380.657 373.457 369.71C373.745 368.013 374.174 366.317 374.274 364.609C374.373 362.859 374.197 361.093 374.051 359.337C373.798 356.279 373.469 353.227 373.158 349.993C372.254 350.814 371.38 351.789 370.335 352.528C368.357 353.931 366.795 353.473 365.609 351.302C363.561 347.545 364.741 342.373 368.362 340.02C368.985 339.615 370.276 339.785 371.033 340.155C372.959 341.082 373.921 341.047 375.33 338.898C378.318 334.355 377.93 328.966 379.844 324.182C383.389 315.325 386.342 306.232 389.987 297.421C391.871 292.866 394.93 288.998 400.412 288.088C401.105 287.977 401.698 287.266 402.878 286.468C398.733 285.764 395.341 285.241 391.977 284.578C390.88 284.361 389.717 283.962 388.831 283.304C386.36 281.473 386.383 280.751 388.608 278.556C389.582 277.593 390.703 276.736 391.478 275.632C394.936 270.725 399.655 270.514 404.861 271.799C406.153 272.116 407.486 272.251 409.376 271.911C408.02 269.809 406.664 267.714 405.314 265.606C403.259 262.407 404.762 253.274 407.779 249.963C414.201 242.913 422.149 238.106 430.942 234.819C435.063 233.281 435.473 227.335 433.466 224.693C432.521 223.443 430.877 222.727 429.586 221.729C429.304 221.512 429.11 221.148 428.952 220.813C425.929 214.415 424.42 207.852 426.827 200.867C429.756 192.367 440.85 183.574 449.596 183.316C452.355 183.234 455.137 184.455 457.937 184.871C460.215 185.212 462.533 185.323 464.834 185.353C465.38 185.359 466.267 184.742 466.431 184.232C467.987 179.495 469.537 174.752 470.857 169.944C472.607 163.575 475.788 158.128 480.737 153.749C481.183 153.35 481.928 153.291 483.431 152.751C483.519 155.886 483.706 158.58 483.636 161.274C483.554 164.479 483.525 167.731 482.973 170.872C482.339 174.476 481.1 177.968 480.214 181.537C479.204 185.617 478.066 189.685 477.42 193.823C476.874 197.327 480.343 197.245 482.362 198.278C484.44 199.341 484.499 197.263 485.139 196.159C491.76 184.736 499.015 173.865 511.072 167.356C512.939 166.346 513.625 165.149 513.279 162.977C513.05 161.527 513.585 159.96 513.778 158.439C513.908 158.287 514.042 158.134 514.172 157.975C513.931 158.005 513.69 158.028 513.449 158.058L513.408 158.046ZM435.344 220.361C438.544 212.178 444.314 206.015 450.53 200.204C450.853 199.899 451.657 200.039 452.232 200.075C456.787 200.356 462.716 196.447 464.412 191.775C460.544 189.837 456.388 190.442 452.784 191.692C450.213 192.585 449.403 191.675 448.264 190.301C442.734 192.091 438.12 195.208 434.141 199.435C429.057 204.835 427.972 215.401 435.344 220.361ZM431.212 239.779C430.971 239.644 430.736 239.503 430.495 239.368C425.752 241.968 421.667 245.156 418.967 250.133C415.152 257.16 416.813 263.998 423.54 267.972C424.326 267.262 425.389 266.733 425.741 265.906C426.486 264.157 427.878 261.533 427.185 260.541C425.571 258.228 426.716 256.543 427.226 254.612C428.535 249.664 429.879 244.727 431.212 239.785V239.779Z" fill="white"/>
<path d="M356.259 475.298C353.617 468.63 355.12 462.384 356.711 456.021C357.826 451.566 360.315 449.447 364.659 448.226C368.521 447.14 372.225 445.156 375.665 443.025C377.813 441.693 379.281 439.298 381.159 437.496C381.734 436.944 382.662 436.768 383.431 436.421C383.39 437.19 383.601 438.106 383.26 438.699C381.922 441.006 380.12 443.084 379.005 445.485C376.193 451.531 369.496 451.09 364.999 454.266C364.142 454.871 363.133 455.563 362.739 456.455C359.74 463.206 359.734 470.009 362.739 476.789C364.171 480.017 365.786 483.187 366.954 486.509C367.382 487.73 367.295 489.926 366.52 490.583C365.539 491.411 363.555 491.493 362.111 491.247C357.568 490.483 356.394 486.662 355.237 482.976C354.779 481.52 354.468 480.011 354.187 478.509C353.864 476.795 353.547 475.004 356.265 475.304L356.259 475.298Z" fill="white"/>
<path d="M459.716 567.004C458.953 567.497 458.184 567.996 457.691 568.312C456.206 576.677 457.726 585.13 455.795 593.283C455.449 593.312 455.096 593.336 454.75 593.365C454.052 590.254 453.136 587.173 452.708 584.026C452.168 580.041 452.02 576.008 451.721 571.993C451.709 571.829 451.95 571.611 451.903 571.482C450.313 567.103 452.05 562.76 452.05 558.398C452.05 553.743 452.22 549.065 452.748 544.445C453.03 541.962 454.157 539.562 455.061 537.184C455.167 536.903 456.775 536.768 456.881 536.973C457.556 538.3 458.383 539.72 458.448 541.146C458.624 545.038 458.448 548.948 458.407 552.851C458.272 553.25 458.137 553.649 458.002 554.049C457.691 556.901 457.38 559.754 457.033 562.953C458.131 562.636 458.912 562.131 459.299 562.343C462.217 563.922 463.062 561.562 464.118 559.836C466.431 556.062 468.627 552.217 471.033 548.126C465.169 542.121 463.273 533.604 460.332 525.591C459.804 524.153 459.293 523.431 457.615 523.46C448.276 523.619 439.066 522.797 430.232 519.422C429.821 519.263 429.298 519.404 429.633 519.404C428.013 523.572 427.32 527.98 424.908 531.009C419.795 537.431 416.261 544.798 411.489 551.378C410.679 552.493 408.83 553.52 408.894 554.495C409.135 558.04 409.957 561.55 410.638 565.055C410.703 565.372 411.342 565.601 411.741 565.83C415.117 567.761 418.503 569.674 421.873 571.617C425.195 573.531 428.512 575.462 431.846 577.399C431.846 577.399 431.952 577.34 431.969 577.264C432.204 575.984 432.022 573.953 432.738 573.56C434.663 572.504 435.468 574.728 436.495 575.814C437.458 576.83 438.133 578.139 438.843 579.371C441.496 583.962 444.014 588.634 446.796 593.142C447.671 594.557 449.033 596.019 450.512 596.647C453.283 597.821 456.3 598.396 459.423 599.276C459.921 602.053 459.816 601.824 456.699 602.223C447.055 603.45 441.237 596.518 437.387 589.427C436.412 587.63 435.544 585.781 434.681 584.056C429.064 585.271 424.062 583.116 419.219 581.215C414.969 579.548 411.131 576.836 407.075 574.64C405.39 573.725 405.413 572.574 405.49 570.731C405.613 567.767 404.539 564.773 404.31 561.768C403.975 557.377 402.766 553.039 406.218 548.865C409.17 545.297 410.902 540.742 413.42 536.779C415.797 533.04 417.441 528.773 421.967 526.56C423.229 525.938 423.276 522.826 423.875 520.854C424.174 519.88 424.462 518.899 424.726 518.007C422.56 516.628 420.259 515.154 417.952 513.687C417.987 513.311 418.022 512.942 418.052 512.566C419.871 512.19 421.685 511.814 423.54 511.433C424.215 506.649 424.861 501.613 425.659 496.606C426.117 493.735 426.498 490.788 427.491 488.088C428.676 484.848 427.848 482.976 424.719 481.878C424.414 481.772 424.174 481.479 423.904 481.267C431.059 483.334 438.215 485.394 445.376 487.46L445.64 486.756C439.248 484.331 432.879 481.837 426.428 479.583C425.624 479.301 424.362 480.322 423.311 480.739C421.433 479.324 419.419 478.051 417.699 476.466C414.811 473.807 412.076 470.977 409.34 468.154C407.673 466.434 407.62 464.344 408.554 462.278C409.792 459.543 411.454 456.972 412.434 454.154C413.989 449.687 415.134 445.073 416.39 440.736C411.419 439.556 406.652 438.423 401.704 437.249C396.902 444.304 394.513 451.348 395.922 456.373C394.601 455.774 393.374 455.622 392.998 454.976C390.328 450.333 389.612 445.543 392.324 440.583C393.586 438.276 394.66 435.869 395.81 433.527C392.734 431.185 389.606 429.09 390.744 424.405C390.938 423.601 389.541 422.404 388.479 420.784C388.884 422.832 389.271 424.188 389.412 425.574C390.158 432.77 389.171 439.391 383.354 444.569C381.317 446.377 379.979 449.135 377.731 450.497C374.831 452.258 371.327 453.01 368.122 454.289C361.999 456.731 360.327 459.666 363.191 466.323C364.33 468.976 364.265 472.122 365.234 474.869C366.261 477.781 367.441 480.839 369.355 483.175C371.362 485.629 372.577 488.076 370.863 490.63C369.707 492.35 367.271 493.213 365.616 494.316C366.203 494.44 367.582 494.727 368.955 495.015C367.617 496.359 366.249 496.459 364.107 496.136C359.417 495.426 356.71 492.567 354.65 488.928C350.195 481.074 348.487 472.721 349.755 463.587C350.436 458.645 351.809 454.09 354.181 449.881C357.303 444.34 362.803 442.18 368.691 440.741C371.732 439.996 374.919 440.119 377.602 437.624C381.13 434.349 382.315 430.223 383.331 425.902C383.742 424.153 383.754 422.31 383.93 420.643C380.437 423.408 377.572 426.618 373.986 428.244C370.347 429.894 366.003 429.976 361.677 430.798C361.131 432.981 359.141 433.574 356.67 433.774C353.834 433.997 352.179 432.752 350.899 430.381C349.579 427.922 348.892 425.415 349.538 422.68C350.078 420.396 351.457 419.105 353.97 419.023C356.57 418.935 356.594 420.889 357.075 422.545C357.222 423.055 357.368 423.56 357.55 424.206C355.942 423.73 354.586 423.325 353.101 422.891C353.083 427.299 354.451 428.814 357.574 428.485C359.446 428.285 359.605 427.117 359.159 425.802C357.826 421.846 359.153 421.259 362.458 420.813C366.126 420.32 369.777 419.756 373.029 417.033C371.732 416.44 370.628 416.029 369.625 415.454C367.553 414.256 365.697 412.724 366.39 410.024C367.306 406.443 365.821 403.086 365.803 399.64C365.774 393.571 366.056 387.495 366.473 381.438C366.807 376.648 367.54 371.881 368.104 367.109C368.609 362.818 369.132 358.533 369.654 354.166C368.128 354.266 366.402 354.671 364.799 354.395C363.52 354.172 361.988 353.409 361.248 352.387C359.211 349.587 360.643 344.164 363.332 341.851C365.421 340.055 367.499 338.751 370.305 339.262C370.875 339.368 371.344 340.013 371.861 340.413C367.77 341.346 366.267 345.748 367.294 350.955C370.587 349.922 372.853 344.557 371.761 340.377C372.108 340.06 372.683 339.796 372.771 339.421C374.573 331.666 375.964 323.795 378.189 316.164C380.308 308.909 383.037 301.8 385.978 294.827C387.68 290.8 390.081 287.043 395.482 286.808C396.438 286.767 397.301 284.531 398.34 283.128C397.524 282.752 397.043 282.394 396.52 282.318C395.135 282.13 393.492 281.919 394.061 280.111C394.366 279.148 395.828 277.968 396.826 277.91C401.04 277.663 405.279 277.804 409.129 277.804C406.259 274.546 403.119 271.418 400.512 267.896C397.748 264.156 397.959 259.936 399.685 255.674C403.559 246.112 411.319 240.418 419.86 235.687C422.595 234.173 426.005 233.879 429.11 233.028C429.48 232.928 430.126 232.958 430.185 232.77C430.731 231.185 430.983 229.477 431.681 227.968C432.609 225.967 431.646 225.215 430.178 224.047C427.895 222.233 425.459 220.232 424.062 217.755C420.963 212.26 421.098 205.974 423.035 200.344C426.334 190.753 432.914 184.355 443.275 181.754C450.776 179.87 457.497 181.015 464.171 184.014C466.484 176.888 469.014 169.792 471.051 162.554C472.501 157.388 475.277 153.731 480.219 151.642C480.73 151.425 481.141 150.579 481.282 149.957C482.01 146.729 484.041 144.815 487.275 144.968C491.279 145.155 495.464 145.038 499.197 146.212C502.355 147.204 504.985 149.863 507.638 151.642C508.179 151.143 508.988 149.981 510.098 149.446C516.76 146.277 523.44 143.148 530.783 141.763C532.679 141.405 534.188 141.111 535.385 143.265C535.937 144.257 537.534 144.674 538.614 145.32C539.835 142.15 541.061 138.974 542.294 135.781C537.41 132.829 536.976 128.438 538.409 123.56C526.598 120.995 516.866 115.395 509.44 105.862C506.37 101.923 503.001 98.2371 501.393 93.3886C497.918 82.9107 498.498 72.3742 501.105 61.8494C502.431 56.4902 503.805 51.1134 507.104 46.8048C505.596 44.3571 503.782 42.1558 502.807 39.6318C501.733 36.8377 501.146 33.7795 500.858 30.7858C500.488 26.9527 502.766 24.6048 506.588 24.6459C512.299 24.7104 518.005 25.0744 523.716 25.0802C524.761 25.0802 525.912 24.1 526.839 23.3603C534.687 17.0678 543.809 13.8745 553.582 12.2721C557.644 11.6029 561.729 11.0042 565.821 10.558C567.229 10.4054 568.703 10.7928 570.135 10.9337C575.189 5.11662 581.805 1.82359 589.265 0.103703C591.067 -0.313062 592.553 0.532207 593.298 2.53385C595.265 7.84026 597.143 13.1995 599.52 18.324C600.541 20.5193 602.707 22.1864 604.627 24.4052C606.922 21.5172 611.659 21.9927 613.05 17.2556C610.139 17.5785 607.662 18.0833 605.19 18.0539C603.564 18.0363 601.95 17.2439 600.33 16.8036C600.6 16.0053 600.706 14.6259 601.17 14.4909C605.519 13.2406 609.875 11.8436 614.336 11.239C616.842 10.8985 619.778 11.4737 622.102 12.5362C625.354 14.0213 625.248 16.6628 622.313 18.8405C621.785 19.2338 621.239 19.6153 619.907 20.578C622.566 20.9067 624.456 21.0182 626.299 21.3881C638.89 23.9239 650.037 30.1284 661.577 35.3409C665.933 37.3132 670.499 38.8628 675.06 40.3127C676.369 40.7295 678.007 40.1249 679.486 39.9429C680.995 39.7551 682.233 39.7844 682.198 41.8565C682.116 46.7755 676.293 53.1033 671.479 53.4555C674.878 57.6818 670.658 61.2566 670.505 65.1836C675.97 67.15 676.739 70.7952 672.548 75.0098C672.272 75.2857 672.037 75.6262 671.72 75.8375C668.609 77.9037 668.134 80.5628 669.448 83.9732C670.012 85.4407 669.989 87.2486 669.807 88.857C669.425 92.2439 667.376 93.5823 664.107 92.6548C660.021 91.4926 655.983 90.1601 651.686 88.8276C651.099 93.641 651.023 98.6656 649.743 103.362C648.728 107.089 650.43 109.683 651.369 112.777C651.962 114.743 652.408 117.449 651.522 119.046C647.853 125.667 643.662 131.995 639.647 138.423C638.637 140.043 637.675 141.71 636.495 143.201C633.19 147.392 629.797 151.507 626.398 155.622C626.058 156.032 625.43 156.208 624.268 156.884C623.992 149.024 627.778 143.031 631 136.767C630.584 136.726 630.108 136.814 629.844 136.621C629.24 136.174 628.735 135.587 628.189 135.053C628.952 134.642 630.026 133.68 630.431 133.909C632.797 135.224 633.578 133.539 634.634 132.077C638.678 126.501 642.746 120.942 646.849 115.413C647.272 114.843 647.977 114.491 648.546 114.039C645.083 111.169 641.719 107.441 642.113 99.8161C639.324 99.4639 636.559 99.1176 633.824 98.7772C634.024 101.131 631.94 104.577 629.826 104.823C629.14 104.905 627.819 104.183 627.696 103.626C627.244 101.636 627.185 99.5578 626.945 97.2099C625.377 96.4527 623.381 95.4959 621.215 94.451C623.393 92.9366 623.422 92.8074 631.957 94.4862C635.432 95.1671 638.772 96.5524 641.959 97.5503C642.74 93.4355 643.451 89.1916 644.384 84.9946C644.719 83.5095 644.566 83.0223 642.975 82.629C633.947 80.3984 625.764 76.3658 618.451 70.5369C617.969 73.7067 617.764 76.8588 616.972 79.8525C615.798 84.2843 614.964 88.8805 611.759 92.5609C608.396 96.4233 605.742 101.043 601.921 104.33C592.417 112.495 581.488 118.283 569.266 121.441C567.805 121.817 566.379 122.333 564.823 122.814C565.164 123.008 565.398 123.149 565.574 123.249C561.882 123.613 558.108 124.141 554.322 124.317C550.324 124.505 546.309 124.358 542.335 124.358C540.68 126.9 541.666 128.274 543.897 129.888C546.215 131.567 547.847 134.167 550.002 136.116C554.316 140.025 551.921 144.105 550.506 148.155C549.408 151.29 548.405 154.5 546.89 157.435C545.663 159.807 546.304 161.351 547.924 162.977C553.606 168.664 559.241 174.411 564.97 180.052C566.878 181.931 569.032 183.551 571.274 185.458C573.428 179.823 576.122 175.069 575.383 169.433C575.342 169.105 575.541 168.488 575.753 168.424C579.016 167.444 578.588 164.291 579.475 161.996C580.977 158.11 582.174 154.107 583.601 150.186C584.317 148.22 584.945 146.083 586.225 144.527C586.9 143.706 588.966 143.541 590.263 143.799C600.025 145.754 609.745 147.879 619.478 149.986C620.382 150.18 621.573 150.368 622.043 150.996C622.783 151.988 623.364 153.362 623.322 154.547C623.305 155.081 621.597 156.032 620.704 155.985C617.171 155.798 613.631 155.434 610.133 154.864C603.024 153.708 595.84 152.745 589.089 148.76C588.579 150.591 588.238 152.293 587.633 153.902C585.332 160.012 583.049 166.129 580.537 172.151C579.709 174.141 579.562 175.749 580.595 177.681C583.624 183.363 586.166 189.344 589.6 194.762C591.185 197.263 594.402 198.742 596.896 200.656C599.913 202.968 602.919 205.293 605.995 207.523C609.076 209.76 609.012 213.241 609.299 216.369C609.81 221.875 609.863 227.434 609.928 232.97C609.945 234.408 609.252 235.846 608.982 237.302C608.865 237.93 608.918 238.616 609.012 239.256C610.103 246.928 611.225 254.594 612.328 262.266C613.514 270.49 614.665 278.72 615.868 286.938C616.608 291.962 617.523 296.963 618.163 302C618.709 306.297 618.468 310.746 619.478 314.914C622.16 325.996 625.377 336.955 628.277 347.991C629.063 350.984 630.901 352.757 633.178 354.835C636.947 358.263 639.835 362.712 642.828 366.921C650.618 377.875 656.429 389.978 662.962 401.671C667.787 410.312 673.146 418.688 678.764 426.841C683.712 434.02 689.354 440.724 694.678 447.65C697.254 450.996 699.954 454.266 702.291 457.77C703.336 459.331 704.868 461.286 701.363 462.765C699.943 463.364 699.403 466.229 698.622 468.125C696.996 472.075 695.494 476.078 693.891 480.041C693.744 480.405 693.263 480.639 693.328 480.581C696.051 483.609 698.78 486.756 701.633 489.785C704.016 492.32 704.099 495.05 703.101 498.214C701.674 502.734 700.5 507.342 699.338 511.938C699.156 512.66 699.338 513.722 699.772 514.327C706.065 523.132 709.769 532.864 711.771 543.536C712.464 547.234 712.358 550.791 712.622 554.401C712.698 555.446 711.929 556.549 711.554 557.629C711.307 557.588 711.054 557.547 710.808 557.506C710.068 554.119 709.569 550.656 708.53 547.363C706.775 541.804 705.191 536.181 701.211 531.549C699.62 529.7 699.063 527 697.801 524.822C695.852 521.453 693.709 518.201 691.443 514.568C682.691 517.291 673.669 520.097 665.14 522.744C665.14 527.288 665.199 531.42 665.111 535.547C665.075 537.202 665.492 538.165 666.96 539.292C672.061 543.207 674.673 548.977 677.42 554.589C677.754 555.275 677.972 556.021 678.248 556.737C678.518 556.79 678.793 556.843 679.063 556.896C679.503 554.782 680.472 552.616 680.267 550.568C679.921 547.122 678.418 543.782 678.16 540.342C677.813 535.787 680.367 534.208 684.229 536.462C687.258 538.229 689.935 540.601 692.799 542.655C698.616 546.823 702.156 552.757 705.431 558.891C706.007 559.971 706.347 561.175 706.787 562.331C707.826 565.072 708.789 565.301 710.808 563.335C711.084 563.065 711.618 562.818 711.941 562.9C712.252 562.983 712.722 563.617 712.646 563.822C712.111 565.213 711.712 566.822 710.714 567.784C710.245 568.236 708.29 567.737 707.45 567.092C705.666 565.724 704.11 564.045 702.584 562.378C701.052 560.705 699.667 558.891 698.681 557.7C696.527 560.265 694.237 562.889 692.071 565.601C690.645 567.385 688.502 567.561 687.134 566.61C685.825 565.706 684.452 563.417 684.693 562.002C685.568 556.784 687.1 551.677 688.391 546.529C688.461 546.253 688.573 545.995 688.056 546.265C686.401 544.023 684.751 541.78 683.096 539.538L682.309 540.149V548.161C682.509 548.079 682.703 547.997 682.902 547.909C683.436 548.889 684.604 550.039 684.393 550.814C683.595 553.691 682.374 556.461 681.247 559.238C680.625 560.77 679.868 562.243 679.057 563.998C674.409 558.322 670.171 553.104 665.868 547.932C665.322 547.275 664.489 546.823 663.732 546.377C660.626 544.563 660.186 541.681 660.362 538.458C660.626 533.786 660.79 529.113 660.978 524.928C660.092 524.3 658.783 523.713 658.842 523.372C659.458 520.003 656.623 517.837 656.077 515.002C655.079 509.86 650.958 509.813 647.26 508.815C644.542 508.081 641.878 507.165 638.596 506.15C638.843 511.721 639.113 516.904 639.254 522.087C639.277 522.932 638.949 524.282 638.373 524.564C636.289 525.597 636.565 526.965 636.941 528.849C639.394 541.27 641.766 553.708 644.02 566.17C645.341 573.478 646.344 580.845 647.583 588.165C648.24 592.062 649.156 595.919 649.86 599.811C650.841 605.223 647.765 610.394 643.274 611.897C642.505 612.155 640.973 612.202 640.827 611.879C639.688 609.367 637.821 610.664 636.383 611.034C624.549 614.039 612.833 617.362 601.668 622.457C591.29 627.194 580.777 631.62 570.323 636.186C565.721 638.2 561.125 640.225 556.887 642.086C560.632 649.541 564.471 656.731 567.899 664.116C571.567 672.011 574.896 680.07 578.289 688.094C580.284 692.808 582.186 697.556 584.012 702.34C586.313 708.381 588.543 714.444 590.692 720.543C591.326 722.339 591.56 724.276 591.983 726.149C593.773 725.832 595.54 725.527 597.36 725.204C597.36 725.169 597.442 724.969 597.378 724.857C596.274 723.055 595.693 720.978 597.83 719.862C599.902 718.776 602.003 719.704 603.341 721.729C604.081 722.856 604.539 724.177 605.355 725.239C605.907 725.955 606.863 726.366 608.002 727.176C607.82 725.885 607.632 725.192 607.644 724.505C607.661 723.631 607.849 722.756 607.961 721.881C608.783 722.328 609.857 722.586 610.368 723.267C611.295 724.494 611.882 725.973 612.874 727.851C613.843 726.225 614.506 725.11 615.263 723.842C613.59 722.304 611.917 720.766 610.227 719.211C611.577 716.945 612.792 717.35 615.633 721.253C616.619 716.323 614.923 711.914 613.814 707.424C612.505 702.153 611.601 696.829 613.573 691.534C615.046 687.578 618.04 685.071 621.034 683.803C621.333 681.32 621.08 678.943 622.002 677.188C622.771 675.732 626.117 677.247 627.232 679.636C627.813 680.892 628.03 682.318 627.936 683.891C626.692 682.195 625.442 680.498 624.197 678.802C623.827 679.043 623.452 679.283 623.082 679.524C624.655 682.259 626.234 684.995 627.455 687.114C625.87 687.36 623.123 687.067 621.356 688.247C619.449 689.521 618.474 692.18 617.066 694.211C614.577 697.809 616.267 701.307 617.406 704.741C619.39 710.711 618.879 716.845 618.738 722.938C618.662 726.319 616.948 729.53 614.224 731.115C612.252 732.26 609.205 731.649 606.634 731.649C604.122 731.649 601.569 731.121 599.103 731.426C596.397 731.755 595.2 734.05 594.771 736.527C594.513 738.024 594.724 739.597 594.724 741.505C596.526 740.401 597.965 739.368 599.532 738.593C602.479 737.132 605.731 736.368 608.806 737.595C617.065 740.9 623.076 738.212 625.583 729.178C626.733 734.807 621.18 740.894 616.044 741.781C613.632 742.197 610.96 741.827 608.524 741.293C604.539 740.419 600.712 740.26 597.184 742.52C596.309 743.084 595.411 744.334 595.341 745.326C594.642 755.405 594.237 765.501 593.503 775.58C592.91 783.745 592.03 791.886 591.173 800.028C590.48 806.637 589.142 813.223 589.007 819.833C588.907 824.723 590.293 829.642 591.068 834.913C595.329 833.498 599.033 833.762 602.96 837.026C603.835 834.549 604.979 832.547 605.161 830.457C605.349 828.338 606.3 826.736 607.984 826.847C608.924 826.912 610.239 829.213 610.45 830.639C610.961 834.138 610.855 837.701 607.503 840.178C611.712 843.941 613.919 848.695 615.07 853.861C615.31 854.953 613.614 856.479 612.352 858.563C610.996 856.455 610.045 855.276 609.411 853.949C607.727 850.398 606.118 846.799 604.627 843.16C604.333 842.444 604.486 841.364 604.803 840.612C605.413 839.163 606.288 837.83 607.057 836.445C606.793 836.263 606.535 836.081 606.27 835.899C605.484 836.41 604.68 836.909 603.905 837.437C601.839 838.846 600.101 838.84 597.935 837.167C596.444 836.016 594.137 835.911 591.566 835.153C594.067 849.957 600.236 862.601 605.155 876.061C608.425 874.153 612.017 872.604 614.788 870.132C615.762 869.264 614.717 866.129 614.565 863.458C611.418 865.601 609.546 864.045 608.56 862.067C607.797 860.535 607.509 858.275 609.928 856.948C610.967 858.733 612.006 860.529 613.379 862.889C614.541 860.576 615.428 858.815 616.314 857.06C616.596 857.148 616.878 857.242 617.165 857.33C616.86 858.439 616.508 859.537 616.267 860.658C616.073 861.58 615.715 862.607 615.944 863.446C616.578 865.712 617.277 868.007 618.339 870.091C619.484 872.345 618.157 873.666 616.695 874.406C613.308 876.12 609.716 877.429 605.578 879.16C617.952 907.195 627.743 936.662 631.805 968.277C642.476 965.495 652.849 962.83 663.191 960.06C665.651 959.402 668.057 958.481 670.417 957.512C673.98 956.05 676.798 953.92 676.645 949.429C676.839 949.946 677.126 950.451 677.197 950.985C677.255 951.46 677.073 951.971 676.956 952.71C679.093 951.93 679.65 950.65 679.157 948.813C677.238 941.663 675.395 934.484 673.323 927.382C672.812 925.632 671.532 924.112 670.611 922.486L669.736 922.885L670.352 926.771C669.965 926.783 669.578 926.795 669.196 926.801C667.899 925.333 666.596 923.86 665.257 922.351C665.721 924.981 660.45 925.58 662.857 929.078C662.728 929.295 662.604 929.507 662.475 929.724C661.389 928.292 660.227 926.906 659.235 925.409C657.738 923.161 658.407 920.719 661.025 920.074C662.757 919.645 664.729 920.203 666.596 920.32C666.966 920.297 667.335 920.267 667.705 920.244C669.924 920.69 671.456 919.105 670.934 916.828C670.529 915.061 670.029 913.311 669.718 912.126C668.679 912.807 667.505 914.057 666.144 914.333C664.735 914.62 661.107 909.989 661.096 908.428C661.084 906.984 663.579 904.612 666.079 903.943C665.152 905.293 664.26 906.35 663.667 907.547C663.338 908.216 663.514 909.126 663.461 909.93H665.463C665.498 910.547 665.533 911.198 665.569 911.856C666.079 911.779 666.795 911.885 667.065 911.592C667.864 910.711 669.173 909.572 669.049 908.709C668.603 905.51 668.145 902.141 666.754 899.3C665.715 897.169 663.233 895.749 660.844 893.495C662.704 893.882 664.054 894.164 665.598 894.487C658.777 871.471 654.222 848.079 651.815 823.948C643.556 825.674 642.006 819.011 639.195 814.092C637.399 810.952 636.031 807.565 634.522 804.266C633.278 801.554 632.409 798.543 634.522 796.107C636.847 793.43 640.093 792.415 643.744 793.295C645.933 793.823 648.159 794.217 650.278 794.657C650.536 789.726 650.624 784.414 651.128 779.148C651.792 772.257 652.561 765.366 653.688 758.539C655.161 749.593 656.999 740.706 658.724 731.802C659.523 727.663 660.479 723.554 661.242 719.41C661.442 718.342 661.424 717.103 661.084 716.088C657.579 705.651 653.97 695.25 650.424 684.825C648.082 677.922 645.799 671.001 643.392 663.787C639.036 665.072 634.728 663.957 630.83 661.468C629.163 660.406 627.379 658.915 626.61 657.189C625.506 654.718 624.878 651.871 624.773 649.159C624.603 644.674 625.242 640.248 627.443 636.151C629.193 632.893 631.353 630.199 635.256 628.919C634.053 624.517 632.797 620.12 631.693 615.689C631.523 615.002 632.063 614.139 632.28 613.358C632.891 613.828 633.701 614.168 634.088 614.785C638.902 622.328 640.786 631.003 643.439 639.38C644.813 643.718 645.974 648.126 647.366 652.458C649.937 660.459 652.661 668.406 655.226 676.407C657.879 684.666 660.426 692.966 663.015 701.243C664.647 706.473 666.49 711.65 667.811 716.957C668.48 719.663 668.85 722.686 666.654 725.568C665.915 724.499 665.31 723.619 664.582 722.562C664.582 726.349 664.823 729.994 664.524 733.598C664.148 738.053 663.344 742.467 662.686 746.893C662.17 750.386 661.313 753.861 661.114 757.371C660.392 769.95 659.429 782.547 659.452 795.138C659.47 804.489 660.808 813.84 661.665 823.185C662.14 828.356 662.604 833.545 663.467 838.664C664.506 844.851 665.991 850.967 667.23 857.125C669.302 867.397 671.333 877.675 673.393 887.948C675.06 896.259 676.792 904.559 678.406 912.877C680.496 923.607 682.644 934.338 684.476 945.115C685.262 949.758 685.356 954.518 685.697 959.232C685.902 962.114 685.62 962.349 682.445 962.537C682.198 960.864 681.869 959.191 681.717 957.5C681.552 955.622 680.807 954.929 679.093 956.021C677.262 957.183 675.031 958.093 673.792 959.725C671.374 962.912 667.969 964.245 664.553 965.442C654.451 968.994 644.038 970.989 633.413 970.825C634.217 976.131 635.045 981.461 635.814 986.797C636.09 988.693 636.107 990.636 636.471 992.509C636.6 993.16 637.387 994.135 637.933 994.176C641.349 994.422 644.795 994.352 648.217 994.563C651.381 994.763 654.521 995.22 657.685 995.49C660.109 995.696 662.37 995.326 663.931 993.148C664.301 992.632 664.905 992.209 665.081 991.646C668.785 980.076 677.637 972.615 686.295 965.008C687.463 963.981 688.526 962.842 689.729 961.862C691.314 960.564 693.574 961.269 694.554 962.965C698.833 970.35 703.218 977.669 707.75 985.324C706.141 988.658 705.038 992.685 706.318 996.846C706.705 998.108 708.155 999.482 709.411 999.875C710.268 1000.15 711.876 999.03 712.71 998.126C713.849 996.899 714.57 995.285 715.698 993.477C717.259 994.716 718.856 996.025 720.487 997.287C726.504 1001.94 733.713 1003.84 740.897 1005.36C748.751 1007.02 756.77 1007.99 764.753 1008.95C770.417 1009.63 776.141 1009.84 781.84 1010.18C782.615 1010.22 783.419 1009.75 784.792 1009.34C785.109 1009.45 786.137 1010.05 787.199 1010.12C792.805 1010.49 795.217 1012.7 795.458 1018.21C795.581 1021.12 795.353 1024.05 795.3 1026.97C795.294 1027.39 795.206 1027.96 795.435 1028.23C798.681 1032 796.128 1035.61 794.76 1038.91C792.717 1043.84 788.403 1047.14 784.493 1050.54C772.9 1060.65 758.483 1064.01 743.973 1067.14C734.786 1069.12 725.536 1069.86 716.156 1070.2C709.886 1070.42 703.682 1072.2 697.43 1073.16C692.13 1073.97 686.8 1074.62 681.482 1075.32C675.894 1076.06 670.311 1076.84 664.717 1077.49C660.115 1078.02 655.502 1078.57 650.876 1078.8C641.097 1079.31 631.306 1079.67 621.521 1079.99C617.699 1080.12 615.698 1078.2 614.706 1074.45C612.375 1065.59 611.8 1056.64 612.804 1047.56C612.845 1047.16 612.651 1046.59 612.358 1046.33C608.178 1042.57 607.521 1037.5 607.415 1032.38C607.239 1023.92 608.777 1015.74 612.328 1007.99C612.951 1006.63 613.402 1005.18 614.001 1003.61C610.086 1004.2 606.576 1003.61 604.163 1000.25C600.905 995.702 603.101 988.165 607.991 985.13C612.041 982.618 616.654 980.857 621.561 982.653C623.317 983.293 625.242 984.426 626.275 985.905C628.341 988.869 630.378 991.669 634.564 993.184C633.536 990.431 632.491 988.106 631.81 985.682C630.865 982.324 630.103 978.908 629.416 975.486C627.808 967.52 626.428 959.502 624.702 951.56C622.489 941.381 620.247 931.197 617.576 921.136C616.267 916.217 614.037 911.527 612.1 906.79C608.701 898.484 605.226 890.207 601.757 881.931C598.757 874.775 595.493 867.72 592.775 860.459C590.486 854.336 588.514 848.056 586.941 841.716C584.816 833.14 582.58 824.505 583.125 815.548C583.372 811.474 584.247 807.441 584.787 803.385C585.215 800.169 585.667 796.952 585.931 793.718C586.612 785.353 587.14 776.977 587.827 768.612C588.719 757.788 589.6 746.964 590.686 736.157C591.267 730.375 587.586 726.325 585.262 721.758C583.284 717.872 580.449 714.415 578.494 710.517C575.289 704.107 572.407 697.533 569.543 690.959C566.373 683.686 563.379 676.337 560.303 669.023C560.168 668.706 559.981 668.418 559.54 667.596C557.48 674.582 555.672 681.162 553.582 687.642C552.25 691.769 550.577 695.796 548.91 699.805C548.282 701.313 547.988 702.006 550.031 702.681C554.369 704.107 555.901 708.263 557.809 711.879C559.346 714.796 560.567 717.884 561.871 720.919C562.088 721.43 562.287 722.369 562.029 722.609C558.072 726.272 558.067 731.825 555.461 736.134C553.007 740.196 551.257 744.757 548.381 748.466C544.149 753.931 535.96 756.291 529.568 753.438C528.952 753.162 527.754 753.755 527.021 754.242C518.703 759.725 510.103 764.55 500.201 766.599C499.731 766.698 499.232 767.045 498.904 767.42C493.081 774.071 487.264 780.727 481.476 787.407C473.845 796.212 466.173 804.994 458.63 813.875C453.488 819.933 448.452 826.084 443.515 832.307C437.986 839.28 432.527 846.318 427.203 853.45C421.914 860.535 416.919 867.843 411.624 874.928C406.494 881.79 401.187 888.517 395.881 895.244C390.662 901.853 385.338 908.387 380.179 915.413C384.945 914.11 386.659 916.963 387.98 920.455C385.626 924.758 383.437 929.436 380.607 933.692C378.33 937.114 375.747 940.055 379.862 943.776C380.008 943.906 379.879 944.334 379.879 944.739C377.637 945.033 375.389 945.25 373.176 945.649C372.184 945.831 371.127 946.195 370.317 946.776C367.629 948.713 367.165 951.648 368.962 954.448C369.83 955.798 373.857 956.109 375.982 954.941C377.15 954.295 378.271 953.556 379.421 952.875C380.466 952.258 381.523 951.666 382.427 951.143C385.908 960.242 389.306 969.275 392.828 978.256C394.243 981.855 395.587 985.564 397.612 988.816C399.285 991.499 401.868 993.63 404.128 995.925C408.442 1000.3 412.786 1004.65 417.165 1008.96C420.646 1012.39 424.185 1015.76 427.731 1019.13C431.998 1023.18 432.474 1028.03 430.859 1033.2C426.633 1034.47 424.091 1037.15 421.884 1040.91C420.252 1043.68 417.23 1045.9 414.394 1047.67C408.888 1051.11 403.212 1051.13 396.72 1049.3C383.008 1045.43 371.379 1038.02 360.103 1029.85C356.851 1027.49 354.245 1024.24 351.375 1021.37C346.972 1016.96 342.5 1012.62 338.238 1008.09C330.912 1000.31 323.921 992.227 318.486 982.964C317.465 981.221 316.261 980.428 314.377 979.9C308.977 978.38 304.592 975.092 301.046 970.866C296.544 965.501 292.224 959.966 288.056 954.336C286.166 951.783 284.751 948.866 283.284 946.03C282.932 945.35 282.891 944.158 283.255 943.501C285.849 938.769 287.498 933.404 292.077 929.959C292.899 929.342 293.621 928.515 294.531 928.121C296.028 927.487 296.55 926.443 297.307 925.016C299.051 921.729 301.428 918.753 303.788 915.841C305.977 913.141 308.29 910.488 310.878 908.181C315.275 904.26 319.924 900.627 324.72 896.659C322.771 896.958 320.98 897.081 319.278 897.521C315.75 898.431 312.845 898.173 310.555 894.763C309.804 893.641 307.826 893.348 306.429 892.69C308.982 886.286 316.578 883.786 322.765 884.701C326.428 885.247 330.59 885.858 332.873 889.309C334.816 892.238 338.32 894.739 336.096 899.412C336.477 899.412 336.859 899.412 337.234 899.412C338.555 897.31 339.934 895.244 341.179 893.101C347.436 882.301 353.535 871.43 358.489 859.942C364.652 845.655 370.933 831.42 377.244 817.203C380.642 809.543 384.276 801.977 387.686 794.322C389.717 789.767 391.361 785.036 393.474 780.522C395.353 776.507 397.659 772.692 399.725 768.759C402.713 763.071 405.332 757.166 408.683 751.701C413.362 744.076 417.177 735.735 424.145 729.771C429.404 725.263 435.227 721.582 442.007 719.569C446.796 718.148 451.428 716.194 456.212 714.773C459.029 713.939 462.017 713.705 464.923 713.147C466.425 712.859 467.4 712.378 468.175 710.588C468.832 709.073 471.315 708.334 473.029 707.312C473.393 707.095 473.927 707.177 474.872 707.066C472.243 705.035 472.055 702.681 473.358 700.345C475.013 697.375 478.065 696.177 481.458 697.175C484.088 697.95 484.57 695.725 484.869 694.469C485.767 690.671 486.172 686.756 486.735 682.882C487.54 677.399 488.197 671.893 489.13 666.434C490.381 659.144 491.919 651.9 493.163 644.61C493.791 640.929 493.984 637.173 494.478 633.463C494.859 630.551 493.891 629.553 490.903 629.166C487.334 628.696 483.771 628.004 480.284 627.112C477.437 626.384 475.494 623.707 475.641 620.737C475.847 616.528 476.163 612.296 476.844 608.14C477.531 603.949 479.48 599.852 479.509 595.696C479.556 589.538 483.073 584.555 484.112 578.732C484.793 574.934 482.92 572.204 482.721 568.923C482.562 566.317 481.611 563.734 481.605 561.139C481.587 554.125 481.447 547.057 482.186 540.102C482.844 533.944 484.599 527.898 485.92 521.817C486.29 520.103 486.853 518.43 487.31 516.798C484.91 516.945 482.521 517.092 479.463 517.279C477.197 519.915 474.309 523.214 471.491 526.566C469.208 529.278 471.709 531.461 472.472 533.774C474.203 539.027 476.68 544.117 477.655 549.494C478.054 551.706 475.659 554.677 474.027 556.943C471.867 559.942 469.155 562.537 466.795 565.395C465.158 567.379 462.281 568.219 460.309 567.056C460.338 566.728 460.362 566.393 460.391 566.064C460.186 566.399 459.974 566.734 459.769 567.068L459.716 567.004ZM368.386 450.415C371.427 449.617 374.473 448.824 377.514 448.026C377.384 447.598 377.262 447.169 377.132 446.735C374.104 447.838 371.08 448.948 368.051 450.051C367.728 450.139 367.406 450.233 367.083 450.321C367.112 450.439 367.136 450.556 367.165 450.673C367.57 450.585 367.975 450.497 368.38 450.409L368.386 450.415ZM469.953 183.451H477.537C478.218 180.944 478.858 178.608 479.598 175.89C477.561 176.601 475.906 177.657 474.256 177.651C470.37 177.64 469.76 180.005 469.631 182.999C469.496 183.157 469.366 183.31 469.231 183.468C469.472 183.463 469.713 183.457 469.953 183.451ZM643.979 449.57C643.85 450.609 643.785 451.659 643.586 452.687C641.778 461.944 639.852 471.183 638.168 480.463C637.293 485.277 636.712 490.154 636.196 495.027C635.661 500.069 635.368 505.14 634.969 510.194C635.885 509.073 636.184 507.888 636.354 506.684C637.082 501.442 637.675 496.189 638.491 490.965C639.665 483.457 640.973 475.973 642.271 468.483C643.01 464.198 643.175 459.648 644.842 455.757C646.027 452.986 645.534 451.307 644.272 449.223C640.081 438.311 635.679 427.475 631.758 416.469C627.396 404.236 623.464 391.851 619.372 379.524C618.41 376.63 617.57 373.701 616.672 370.784C616.297 370.913 615.92 371.048 615.545 371.177C616.014 372.351 616.584 373.496 616.919 374.705C617.33 376.178 617.429 377.734 617.858 379.201C622.947 396.647 628.101 414.068 635.75 430.633C638.638 436.885 641.244 443.26 643.979 449.576V449.57ZM519.302 362.032C518.75 366.416 518.198 370.801 517.647 375.186C517.864 375.215 518.081 375.239 518.298 375.268L520.053 362.055C520.658 360.318 521.526 358.627 521.814 356.843C523.058 349.129 524.139 341.381 525.277 333.65C526.51 325.262 527.772 316.88 528.963 308.486C529.715 303.168 530.413 297.844 531.041 292.514C531.593 287.812 532.104 283.099 532.421 278.379C532.48 277.469 531.576 276.489 531.118 275.544C529.891 277.587 529.48 279.242 529.005 280.874C527.578 285.734 528.793 290.853 527.343 295.778C526.604 298.296 527.32 301.213 527.032 303.908C526.422 309.643 525.571 315.348 524.849 321.071C524.326 325.18 523.939 329.313 523.334 333.41C522.548 338.746 521.532 344.052 520.763 349.388C520.159 353.585 519.783 357.811 519.302 362.026V362.032ZM444.513 292.256C444.038 292.203 443.486 292.297 443.104 292.08C437.146 288.74 431.881 284.014 424.796 282.94C424.684 283.292 424.556 283.686 424.432 284.079L424.491 283.997C423.064 283.621 421.632 283.251 420.37 282.917C419.478 282.312 418.492 281.655 417.512 280.991C417.159 280.862 416.813 280.727 416.461 280.598C416.631 280.862 416.795 281.121 416.965 281.385C420.434 286.274 419.953 289.497 415.046 294.392C415.469 294.557 415.915 294.727 416.05 294.78C414.653 296.136 413.314 297.433 411.459 299.235C406.587 296.347 399.091 296.576 396.027 289.063C388.672 296.682 388.144 306.936 384.493 315.829C389.6 318.729 390.093 320.12 388.795 325.697C387.281 332.212 385.961 338.769 384.552 345.308C383.847 348.578 383.143 351.841 382.45 355.07C382.057 355.029 381.881 355.035 381.875 355.011C381.799 354.547 381.681 354.078 381.699 353.614C382.016 342.948 383.812 332.506 386.583 322.228C387.228 319.839 387.258 318.072 384.099 317.485C381.159 331.314 378.241 345.05 375.318 358.815C376.527 359.097 377.126 359.232 377.731 359.372C374.673 359.66 375.348 362.049 375.207 363.763C374.726 369.557 374.421 375.362 373.951 381.15C373.44 387.384 372.841 393.612 372.225 399.834C372.049 401.601 372.718 402.458 374.444 402.921C378.582 404.019 382.679 405.293 386.853 406.514C386.853 405.041 386.841 403.579 386.853 402.117C386.911 396.541 386.736 390.947 387.111 385.388C387.587 378.438 388.497 371.517 389.265 364.591C389.712 360.576 390.046 356.537 390.809 352.581C392.101 345.872 393.521 339.18 395.2 332.559C396.714 326.565 398.17 320.478 400.518 314.796C403.23 308.228 407.973 304.788 412.34 306.021C414.306 302.511 415.821 298.871 418.157 295.866C422.295 290.542 431.899 288.64 435.585 298.044C435.879 298.789 436.137 299.552 436.26 299.893C438.608 298.877 440.833 297.914 442.876 297.034C443.374 295.431 443.885 293.788 444.396 292.144C445.094 292.755 445.793 293.359 446.497 293.97C451.293 287.982 448.381 283.433 443.369 281.238C438.115 278.937 432.937 276.448 427.725 274.041C427.455 274.622 427.361 275.362 426.956 275.615C426.046 276.184 425.019 276.689 423.98 276.847C423.622 276.9 422.618 275.708 422.73 275.303C423.839 271.171 420.077 270.39 418.245 268.195C415.68 272.304 415.392 274.253 417.74 275.691C420.552 277.411 423.616 278.966 426.78 279.812C434.288 281.813 440.134 285.916 444.507 292.256H444.513ZM607.744 30.011C607.914 29.8936 608.09 29.7762 607.767 29.9934C607.996 29.6764 607.873 29.8466 607.756 30.011C608.296 30.7506 609.059 31.408 609.346 32.2357C612.457 41.2695 615.498 50.3209 618.639 59.6189C619.49 60.0239 621.186 60.4935 622.46 61.509C625.013 63.5517 627.397 65.8175 629.739 68.1127C633.689 71.9809 637.956 75.544 643.081 77.5515C648.053 79.5003 653.359 80.598 658.601 82.0948C656.987 84.7011 654.052 83.4508 651.651 84.0025C651.692 84.7245 651.733 85.3468 651.768 85.969C655.531 83.7678 659.059 85.5639 662.105 86.2742C662.352 83.7912 662 81.185 662.962 79.2303C664.259 76.6006 666.578 74.4757 668.627 71.9222C666.608 71.0359 664.999 70.76 664.054 69.8149C662.61 68.3651 660.62 66.4456 660.643 64.7492C660.72 59.4956 666.496 54.2362 669.918 53.0798C669.936 49.6694 672.836 48.2253 674.403 45.9067C674.068 45.7248 673.769 45.5252 673.446 45.396C673.1 45.261 672.724 45.1436 672.354 45.1084C665.932 44.5038 659.992 42.285 654.11 39.8138C642.799 35.065 631.482 30.3456 620.141 25.679C619.501 25.4148 618.544 25.5263 617.869 25.7905C614.471 27.1347 611.113 28.5905 607.744 30.011ZM385.192 900.979C388.684 896.77 392.329 892.685 395.628 888.335C401.211 880.98 406.687 873.537 411.999 865.988C417.4 858.31 422.418 850.357 427.854 842.702C432.661 835.934 437.627 829.26 442.846 822.809C448.287 816.082 454.046 809.613 459.792 803.139C464.594 797.727 469.543 792.45 474.479 787.161C480.519 780.698 486.612 774.288 492.687 767.861C494.149 766.317 496.203 764.996 494.354 762.407C494.125 762.085 494.231 761.433 494.337 760.969C495.012 758.046 495.787 755.141 496.427 752.206C497.319 748.132 498.123 744.035 498.792 740.759C494.736 738.769 490.598 737.384 487.223 734.942C480.842 730.328 474.919 725.092 468.744 720.185C468.063 719.645 466.86 719.14 466.132 719.363C461.254 720.884 456.382 722.457 451.621 724.3C447.606 725.855 443.75 727.81 439.817 729.583C443.116 729.483 444.237 731.766 444.883 733.962C445.816 737.167 446.855 740.536 446.744 743.8C446.538 749.969 445.569 756.115 440.128 760.318C435.573 763.834 430.525 765.877 424.732 764.697C421.48 764.033 418.362 762.736 415.204 761.732C411.77 767.931 407.967 774.382 404.58 781.039C400.682 788.699 397.16 796.553 393.451 804.307C388.121 815.448 382.849 826.619 377.414 837.713C371.585 849.599 366.543 861.909 358.595 872.715C360.303 874.875 362.011 876.765 363.408 878.867C368.497 886.533 374.221 893.453 382.814 897.516C383.935 898.044 384.458 899.852 385.251 901.061C381.412 901.842 377.584 902.153 374.062 899.999C368.879 896.829 364.518 892.696 361.178 887.672C359.111 884.567 357.697 881.027 355.93 877.57C355.601 877.992 355.22 878.421 354.903 878.896C352.514 882.524 350.26 886.239 347.73 889.767C344.554 894.193 341.132 898.437 337.892 902.816C337.451 903.409 337.052 904.512 337.311 905.064C339.917 910.635 342.329 916.346 345.499 921.588C347.137 924.3 349.925 926.525 353.793 926.208C359.111 925.767 364.441 925.509 369.196 925.21C371.444 921.518 373.258 918.283 375.312 915.202C378.517 910.406 381.881 905.716 385.174 900.979H385.192ZM510.15 28.8487C510.755 33.9438 511.542 38.8804 511.847 43.8405C511.982 46.0241 511.043 48.2606 510.784 50.497C510.274 54.9112 509.945 59.343 509.464 63.763C508.489 72.6912 508.636 81.5841 510.467 90.3832C513.044 102.757 521.339 110.617 531.963 116.258C534.74 117.731 537.863 120.185 541.567 117.972C541.813 117.825 542.417 118.259 542.846 118.441C544.202 119.034 545.534 120.103 546.914 120.167C561.248 120.813 574.326 116.24 586.659 109.578C591.948 106.725 596.908 102.974 601.305 98.8652C604.474 95.9009 608.942 93.594 609.411 88.3169C610.086 80.7271 611.389 73.1667 611.583 65.571C611.729 59.8243 610.943 53.9661 609.869 48.2958C608.536 41.2695 607.186 34.1317 603.112 27.98C601.158 25.0274 598.863 22.2861 597.008 19.2749C593.862 14.168 590.939 8.9262 587.886 3.68436C583.419 5.89145 578.259 8.44487 573.152 10.9748C573.863 11.7379 574.408 12.3308 574.579 12.5186C563.39 15.4536 552.349 18.3709 541.29 21.2296C534.863 22.8908 529.48 27.4986 522.383 27.4634C518.169 27.4458 513.948 28.3967 510.15 28.8546V28.8487ZM507.327 589.245C507.069 589.239 506.81 589.233 506.552 589.227C506.552 590.078 506.294 591.035 506.599 591.757C507.744 594.504 508.847 597.31 510.373 599.846C514.388 606.543 518.609 613.123 522.771 619.739C524.103 621.858 525.5 623.942 527.126 626.437C525.753 626.63 525.084 626.877 524.467 626.783C521.198 626.255 517.957 625.286 514.676 625.128C508.953 624.852 503.206 625.051 497.407 625.051C497.154 628.714 496.996 632.189 496.667 635.652C495.91 643.641 495.376 651.665 494.19 659.596C492.787 668.97 490.756 678.256 489.06 687.589C488.391 691.276 487.833 694.985 487.364 698.701C487.293 699.253 487.822 700.092 488.32 700.462C493.046 703.937 497.894 707.254 502.561 710.805C504.932 712.613 507.063 714.192 509.781 711.527C509.957 711.357 510.327 711.386 510.603 711.31C521.92 708.163 533.231 705.017 544.806 701.8C544.806 701.484 544.642 700.668 544.83 699.951C548.129 687.231 550.465 674.229 555.883 662.12C556.317 661.145 556.3 659.684 555.919 658.668C554.281 654.289 552.432 649.987 550.647 645.666C550.553 645.432 550.383 645.126 550.178 645.05C547.149 643.964 545.07 641.751 543.368 639.174C541.654 636.574 540.099 633.874 538.643 631.49C538.32 631.995 537.921 632.623 537.522 633.257C537.011 632.77 536.413 632.347 536.019 631.778C535.479 630.992 535.186 630.035 534.634 629.26C529.269 621.705 523.768 614.245 518.521 606.608C514.623 600.932 511.043 595.038 507.315 589.239L507.327 589.245ZM392.758 376.067C392.758 377.34 392.911 378.338 392.735 379.277C391.138 387.648 390.463 396.065 390.316 404.6C390.169 413.135 396.104 421.482 403.811 424.094C407.697 425.415 411.63 426.613 415.474 428.039C417.065 428.632 417.559 428.35 418.122 426.724C421.098 418.148 424.285 409.643 427.308 401.084C430.155 393.025 432.62 384.819 435.755 376.877C438.719 369.369 442.359 362.131 445.669 354.759C446.315 353.315 446.814 351.806 447.383 350.327C447.155 350.239 446.931 350.145 446.702 350.057C446.08 351.466 445.458 352.875 444.483 355.082C444.266 351.841 443.891 349.476 443.996 347.128C444.166 343.365 444.989 339.608 444.93 335.858C444.836 330.152 444.413 324.435 443.773 318.764C443.245 314.121 440.739 311.104 437.499 310.711C437.135 310.67 436.647 310.863 436.383 311.122C436.248 311.251 436.36 311.855 436.548 312.079C438.132 313.869 438.138 313.845 436.019 314.667C431.781 316.311 427.344 316.317 423.217 314.914C419.495 313.652 416.126 311.345 412.375 309.384C409.898 311.292 406.382 313.364 405.396 317.725C404.451 321.893 403.13 325.979 402.197 330.152C401.275 334.255 401.381 334.349 405.531 335.658C409.928 337.049 414.365 338.305 418.785 339.608C421.591 340.436 422.407 341.968 422.025 344.979C421.385 350.063 421.098 355.193 420.306 360.247C419.513 365.342 418.474 370.426 417.118 375.397C416.771 376.677 414.97 377.939 413.555 378.485C406.435 381.22 399.755 378.984 392.752 376.078L392.758 376.067ZM480.536 212.307C474.655 211.932 468.955 211.591 463.261 211.198C461.336 211.069 459.37 211.016 457.515 210.552C456.118 210.2 454.867 209.243 453.553 208.562C453.688 208.216 453.817 207.864 453.952 207.518C463.161 206.725 472.231 208.04 481.235 209.684C481.717 206.942 482.192 204.201 482.82 200.603C479.868 201.383 477.737 201.947 475.301 202.593C474.238 202.399 472.624 201.812 471.039 201.9C468.674 202.029 466.279 202.446 463.984 203.068C458.167 204.653 452.044 206.085 448.681 211.72C445.752 216.622 443.151 221.77 440.915 227.029C435.637 239.415 433.542 252.716 430.396 265.706C430.231 266.387 430.595 267.62 431.124 267.978C434.816 270.49 438.696 272.727 442.365 275.262C450.759 281.068 453.3 288.053 449.139 294.944C450.289 296.236 451.598 297.186 452.144 298.46C452.755 299.875 452.666 301.589 452.837 302.869C455.073 303.285 457.245 303.69 459.493 304.107C460.062 301.037 460.579 298.225 461.096 295.426C455.067 294.275 454.269 293.594 455.02 290.143C457.409 290.518 459.816 290.894 462.281 291.275C462.88 288.839 463.514 286.257 463.908 284.66C461.882 282.928 460.227 281.713 458.906 280.211C458.665 279.935 459.652 277.804 460.274 277.692C461.9 277.411 463.643 277.769 465.574 277.892C465.968 276.313 466.39 274.622 466.807 272.926C464.248 272.392 461.371 273.325 460.057 269.387C462.763 269.134 465.14 268.917 467.94 268.659C468.486 266.54 469.143 263.992 469.847 261.268C468.703 261.21 467.799 261.321 466.983 261.104C462.757 259.959 458.478 258.956 454.375 257.459C451.71 256.484 450.16 253.638 450.559 251.178C450.876 249.206 453.089 247.368 454.809 245.866C455.877 244.932 457.562 244.445 459.029 244.281C462.082 243.935 465.275 242.426 468.638 245.079C467.664 245.555 466.948 246.159 466.185 246.236C462.974 246.558 460.203 247.445 458.108 250.215C457.145 251.489 457.121 251.888 458.207 253.074C461.536 256.707 466.191 257.101 470.323 258.686C472.612 251.865 474.837 245.232 477.103 238.464C470.84 239.321 465.504 239.068 460.926 235.564C457.873 233.228 455.478 230.07 456.94 225.99C458.225 222.398 460.996 219.815 465.064 219.475C469.736 219.087 474.432 218.97 479.398 218.723C479.692 217.05 480.085 214.802 480.519 212.302L480.536 212.307ZM618.967 1070.55C620.798 1070.55 622.46 1070.66 624.097 1070.53C628.03 1070.21 631.951 1069.77 635.884 1069.41C640.51 1068.99 645.147 1068.68 649.761 1068.18C656.153 1067.49 662.522 1066.51 668.926 1065.92C676.933 1065.18 684.963 1064.7 692.981 1064.1C695.693 1063.9 698.411 1063.74 701.117 1063.45C707.808 1062.72 714.494 1061.99 721.168 1061.17C729.193 1060.19 737.27 1059.43 745.217 1058.01C755.554 1056.14 765.874 1053.88 775.448 1049.38C781.452 1046.55 786.137 1042.09 789.142 1035.86C778.488 1039.64 768.192 1043.51 757.744 1046.93C746.297 1050.69 734.752 1054.17 723.17 1057.49C716.848 1059.3 710.761 1059.05 706.118 1053.25C705.608 1052.61 704.234 1052.41 703.265 1052.42C691.373 1052.54 679.48 1052.71 667.582 1052.91C656.183 1053.1 644.783 1053.37 633.384 1053.54C627.978 1053.63 622.565 1053.56 617.224 1053.56C617.77 1058.88 618.351 1064.53 618.967 1070.55ZM296.873 934.936C294.654 937.801 292.623 940.472 290.539 943.095C289.523 944.369 289.447 945.461 290.439 946.864C294.372 952.405 297.824 958.363 303.324 962.566C306.881 965.284 310.778 967.567 314.471 970.115C316.237 971.336 318.227 972.445 319.542 974.065C326.316 982.459 332.744 991.135 339.612 999.447C343.445 1004.08 347.718 1008.4 352.103 1012.54C358.243 1018.32 364.33 1024.25 371.074 1029.28C376.915 1033.63 383.66 1036.74 389.958 1040.49C395.575 1043.82 400.847 1044.12 406.969 1041.19C403.829 1039.8 400.806 1038.35 397.706 1037.1C389.365 1033.72 381.793 1028.94 374.854 1023.38C369.466 1019.06 364.817 1013.78 360.051 1008.73C355.167 1003.56 350.536 998.15 345.799 992.837C340.668 987.085 335.432 981.414 330.443 975.544C324.614 968.688 319.008 961.639 313.279 954.694C307.873 948.144 302.432 941.622 296.89 934.942L296.873 934.936ZM412.088 377.822C413.96 365.383 415.809 353.162 417.582 341.411C412.457 339.937 406.828 338.311 400.671 336.539C398.211 349.041 395.681 361.926 393.216 374.446C399.984 375.656 406.2 376.771 412.093 377.822H412.088ZM508.243 164.391C506.282 161.045 504.433 157.699 502.396 154.471C501.481 153.021 500.342 151.612 499.021 150.532C494.607 146.916 489.682 146.541 486.847 151.137C487.422 152.305 488.391 153.362 488.367 154.395C488.285 157.858 488.256 161.409 487.463 164.749C485.045 174.898 482.28 184.971 479.621 195.173C481.124 195.731 482.503 196.253 483.818 196.74C484.094 196.394 484.27 196.271 484.311 196.106C486.342 188.734 489.84 182.107 494.501 176.066C494.765 175.726 494.953 175.151 494.865 174.757C494.296 172.222 495.875 170.895 497.7 169.88C500.917 168.089 504.234 166.463 508.243 164.391ZM420.476 751.63C418.967 754.442 417.6 756.995 416.144 759.701C420.787 761.838 425.113 763.904 430.22 763.106C438.033 761.885 440.798 755.733 442.482 749.464C444.038 743.694 442.177 737.871 439.441 732.53C439.13 731.925 438.801 731.332 438.467 730.71C431.176 736.327 425.758 742.508 421.174 750.116C424.203 751.982 427.109 753.779 430.085 755.61C427.69 758.269 424.285 756.766 420.476 751.636V751.63ZM643.098 661.885C642.588 659.584 642.177 657.383 641.578 655.234C641.32 654.313 640.856 653.033 640.14 652.734C636.172 651.073 635.573 645.766 637.117 642.268C637.399 641.628 637.839 640.871 637.722 640.272C637.041 636.926 636.213 633.615 635.415 630.205C630.848 633.674 630.402 634.572 629.416 639.274C628.764 642.367 628.999 645.637 628.735 648.813C628.13 655.986 635.52 663.335 643.104 661.885H643.098ZM507.55 428.462C507.814 430.733 507.75 432.811 508.337 434.684C510.01 440.019 511.771 445.338 513.837 450.527C515.903 455.71 516.103 460.441 512.587 465.16C510.949 467.362 509.91 470.021 508.683 472.515C505.701 478.567 502.737 484.625 499.837 490.718C499.45 491.528 499.479 492.532 499.315 493.442C499.567 493.489 499.825 493.541 500.077 493.588C502.449 489.685 504.821 485.781 507.18 481.866C509.693 477.704 511.876 473.308 514.752 469.416C519.29 463.276 520.258 457.089 517.294 449.951C514.67 443.641 512.668 437.067 510.45 430.592C510.232 429.964 510.42 429.207 510.42 428.456H507.544L507.55 428.462ZM499.743 736.31C500.818 732.612 501.528 729.383 502.725 726.348C503.406 724.623 503.007 723.954 501.469 723.684C498.352 723.138 496.145 720.109 492.259 721.036C490.668 721.418 488.302 719.134 486.477 717.808C483.143 715.378 479.95 712.754 476.598 710.13C475.811 710.87 474.995 711.633 473.757 712.807C482.532 720.737 491.062 728.45 499.749 736.31H499.743ZM441.385 197.615C437.622 197.844 434.129 200.462 433.994 203.896C433.806 208.527 434.34 213.194 434.581 218.072C437.58 213.311 440.245 209.044 442.945 204.8C446.327 199.476 451.856 197.439 457.503 196.13C460.198 195.508 461.906 195.02 461.636 191.98C454.568 191.528 441.273 195.109 441.396 197.615H441.385ZM504.322 721.676C504.838 720.884 505.49 719.909 506.112 718.917C507.274 717.05 507.28 716.282 504.674 715.254C496.133 711.891 488.273 707.166 480.96 701.507C479.944 702.112 478.846 702.763 477.438 703.603C482.327 708.04 484.611 714.491 491.971 715.965C496.251 716.822 500.137 719.663 504.316 721.67L504.322 721.676ZM637.64 796.224C638.027 800.38 648.135 817.508 651.281 820.003C650.929 812.537 650.559 804.824 650.189 797.04C645.975 796.764 641.842 796.494 637.64 796.224ZM447.559 311.445C453.371 322.609 450.5 334.367 448.557 346.077C448.886 346.136 449.215 346.189 449.543 346.247C452.361 333.386 455.173 320.519 458.031 307.453C456.452 307.042 454.374 306.502 452.619 306.044C450.841 307.946 449.168 309.736 447.565 311.45L447.559 311.445ZM620.775 515.125C615.246 515.378 609.71 515.894 604.187 515.83C581.353 515.548 558.525 515.113 535.697 514.691C529.756 514.579 523.821 514.315 517.881 514.11C517.494 514.098 517.112 513.998 516.725 513.975C512.745 513.763 508.771 513.564 504.791 513.364L504.773 514.168C543.386 517.456 582.033 518.107 620.775 515.131V515.125ZM428.429 241.974C423.728 245.244 418.433 248.067 418.181 254.307C417.987 259.044 422.008 261.756 425.089 264.209C426.193 256.878 427.285 249.593 428.429 241.974ZM712.663 1003.9C714.154 1007.06 717.001 1008.81 720.57 1009.56C723.628 1010.21 724.65 1009.41 724.509 1006.27C724.479 1005.69 724.925 1005.08 725.136 1004.53C721.268 1001.79 720.118 1000.68 719.167 998.96C716.707 999.793 714.324 1000.61 712.422 1001.25C712.51 1002.22 712.592 1003.06 712.669 1003.9H712.663ZM545.094 137.296C542.758 144.205 540.504 150.879 538.197 157.717H541.989C544.202 151.589 546.344 145.649 548.575 139.467C547.63 138.88 546.421 138.123 545.094 137.296ZM427.995 299.335C427.226 302.07 426.422 304.859 425.688 307.664C425.577 308.093 425.624 308.921 425.859 309.032C428.723 310.441 431.282 312.871 434.898 312.002C431.534 301.665 430.953 300.638 428.001 299.335H427.995ZM482.468 165.771C479.451 166.704 476.528 167.602 473.252 168.612C472.935 169.95 472.454 171.969 471.937 174.159H480.096C480.895 171.341 481.699 168.483 482.468 165.771ZM448.44 300.755C444.366 301.325 440.615 301.847 436.659 302.405C436.982 303.949 437.276 305.322 437.546 306.608C438.538 306.526 439.406 306.361 440.263 306.402C442.153 306.496 444.032 306.737 445.916 306.837C447.742 306.931 448.833 306.209 448.616 304.166C448.516 303.221 448.51 302.258 448.44 300.761V300.755ZM421.503 241.68C416.302 242.543 406.558 255.897 407.127 260.159C408.736 259.161 410.426 258.152 412.064 257.066C412.546 256.743 413.173 256.25 413.244 255.757C414.06 250.245 416.437 245.625 421.503 241.68ZM542.611 712.724C542.499 712.214 542.394 711.709 542.283 711.198C533.078 713.57 523.663 715.143 514.67 718.33L514.987 719.58L542.605 712.724H542.611ZM466.936 191.798C468.703 191.798 470.458 191.628 472.16 191.839C474.608 192.144 476.052 191.363 476.398 188.834C476.545 187.748 476.78 186.673 477.015 185.394C473.152 187.108 467.071 184.466 466.936 191.798ZM551.169 720.784C548.199 726.548 545.253 732.277 542.3 738C542.699 738.229 543.104 738.458 543.503 738.687C546.984 733.111 550.465 727.54 554.04 721.823C552.807 721.377 552.126 721.13 551.169 720.784ZM358.378 471.664C358.237 478.209 357.292 484.836 361.237 490.583C363.074 490.313 364.711 490.078 366.866 489.761C360.121 485.241 359.164 478.491 358.378 471.658V471.664ZM483.466 162.577C483.325 160.364 483.201 158.421 483.078 156.473C481.405 156.584 479.263 156.091 478.183 156.948C476.727 158.099 476.093 160.282 475.043 162.137C478.148 162.301 480.431 162.419 483.466 162.577ZM437.093 508.891C437.557 508.903 438.015 508.915 438.479 508.921C438.673 503.421 440.791 498.091 439.441 492.309C438.261 493.048 436.964 493.946 436.941 494.88C436.812 499.546 437.011 504.219 437.093 508.891ZM409.182 293.289C410.567 290.982 411.448 288.757 412.98 287.161C415.081 284.965 412.639 284.114 412.005 282.887C411.624 282.148 410.262 281.913 408.648 281.109C410.227 285.64 406.558 289.268 409.182 293.289ZM688.532 560.353C691.643 558.398 694.255 556.76 696.826 555.146C695.188 553.28 693.668 551.548 692.013 549.658C690.856 553.215 689.794 556.479 688.532 560.353ZM366.049 426.507C371.884 426.366 376.715 424.006 381.041 419.962C379.151 419.422 377.555 418.97 376.064 418.547C373.886 422.826 370.535 425.356 366.056 426.513L366.049 426.507ZM477.273 234.854C473.082 233.592 469.125 232.4 465.175 231.209C467.799 235.452 471.867 236.949 476.498 237.572C476.762 236.885 477.061 236.198 477.285 235.482C477.367 235.224 477.273 234.907 477.273 234.854ZM430.848 218.764C430.848 217.479 431.006 216.481 430.824 215.548C429.539 209.12 430.314 203.174 434.511 197.873C434.834 197.468 434.458 196.506 434.364 195.179C429.158 201.583 426.833 212.918 430.854 218.758L430.848 218.764ZM454.093 188.669C454.251 188.464 454.41 188.264 454.568 188.059C454.287 187.759 454.01 187.46 453.729 187.161C454.415 187.02 455.196 186.609 455.766 186.808C456.482 187.061 456.952 187.93 457.65 188.317C459.094 189.121 460.62 189.784 462.323 190.612C462.64 189.368 463.05 187.765 463.502 185.993H451.715C451.586 186.204 451.463 186.409 451.334 186.621C452.255 187.301 453.171 187.988 454.093 188.669ZM411.395 271.101C411.87 269.269 412.052 267.608 412.727 266.176C414.295 262.859 414.389 262.906 413.684 261.985C411.63 263.54 409.581 265.084 406.564 267.367C408.348 268.747 409.957 269.991 411.395 271.101ZM370.928 408.005C370.716 408.427 370.505 408.85 370.294 409.273C373.786 412.448 378.746 412.912 382.65 415.577C383.284 412.495 381.071 412.554 379.474 411.979C378.335 411.568 377.179 411.163 376.087 410.64C374.344 409.813 372.648 408.891 370.928 408.005ZM448.815 188.992C447.054 186.075 445.247 187.806 443.398 188.593C443.961 189.356 444.454 190.019 444.941 190.683C446.292 190.09 447.542 189.544 448.815 188.992ZM438.514 194.316C439.565 193.571 440.527 192.884 441.672 192.074C440.715 191.534 439.928 191.088 439.154 190.653C438.314 191.393 437.592 192.027 436.794 192.731C437.381 193.277 437.921 193.776 438.514 194.322V194.316ZM660.186 923.308L660.333 923.742C660.679 923.631 661.025 923.531 661.36 923.396C661.372 923.396 661.272 923.097 661.225 922.938C660.878 923.061 660.532 923.185 660.186 923.308Z" fill="black"/>
<path d="M629.011 723.637C627.937 715.73 621.926 708.481 625.331 700.827C624.479 699.212 623.088 697.721 623.411 696.958C624.285 694.898 626.287 695.567 627.496 696.677C629.386 698.408 631.153 700.363 632.562 702.499C633.9 704.525 635.251 704.026 636.272 702.752C638.162 700.398 639.718 697.768 641.285 695.456C642.5 699.189 641.185 703.192 637.687 705.564C635.873 706.796 634.03 707.172 632.228 705.511C630.784 704.178 629.339 702.846 627.59 701.237C628.019 708.868 630.472 716.194 629.011 723.643V723.637Z" fill="black"/>
<path d="M398.833 270.303C397.407 271.952 396.35 273.449 395.006 274.611C394.225 275.286 392.999 275.533 391.93 275.774C390.117 276.184 389.06 276.901 389.166 279.078C389.213 280.106 388.261 281.186 387.487 282.817C389.3 283.727 391.425 284.784 393.344 285.747C390.539 287.584 384.874 286.24 383.231 283.005C383.19 282.923 383.067 282.876 383.031 282.794C382.339 281.121 386.383 274.676 387.968 273.93C390.011 272.968 391.725 271.324 393.603 270.003C395.575 268.612 398.364 269.146 398.833 270.303Z" fill="black"/>
<path d="M635.045 682.929C635.714 682.453 636.777 681.708 637.839 680.956C638.573 682.148 639.553 683.257 639.982 684.549C641.038 687.713 642.206 690.988 639.013 694.492C640.451 690.008 639.371 686.48 636.835 682.577C635.837 685.453 635.016 687.842 634.094 690.507C632.585 685.259 631.212 680.469 629.833 675.685C630.132 675.562 630.431 675.439 630.73 675.31C632.227 677.945 633.718 680.575 635.045 682.917V682.929Z" fill="black"/>
<path d="M598.909 778.198C596.245 775.873 594.19 767.867 595.47 765.131C596.192 763.588 597.454 762.889 598.98 764.163C599.86 764.897 600.536 765.883 601.422 766.881C597.73 767.004 597.753 767.004 598.205 770.878C598.481 773.226 598.663 775.586 598.909 778.198Z" fill="black"/>
<path d="M610.415 765.449C610.65 769.628 604.081 777.2 599.667 777.517C603.024 773.901 606.165 770.514 609.305 767.128C609.053 766.793 608.795 766.458 608.542 766.124C606.141 767.157 603.746 768.196 601.457 769.182C601.862 766.816 605.449 765.196 610.415 765.449Z" fill="black"/>
<path d="M649.808 900.768C651.128 901.713 652.361 902.599 653.858 903.673V896.084C653.987 896.072 654.122 896.06 654.257 896.048C655.372 899.746 656.494 903.439 657.82 907.835C654.721 906.432 652.426 905.358 650.101 904.354C648.135 903.503 648.123 902.394 649.802 900.768H649.808Z" fill="black"/>
<path d="M423.317 480.716C424.367 480.299 425.623 479.278 426.433 479.56C432.884 481.814 439.254 484.308 445.646 486.733L445.382 487.437C438.226 485.371 431.071 483.311 423.909 481.244C423.71 481.068 423.516 480.892 423.317 480.716Z" fill="white"/>
<path d="M660.121 893.912C660.779 896.865 661.319 899.283 661.929 902.042C657.251 899.183 656.699 897.293 660.121 893.912Z" fill="black"/>
<path d="M663.332 930.299C663.69 930.481 664.048 930.657 664.4 930.839C664.301 930.974 664.201 931.109 664.101 931.244C663.702 930.922 663.297 930.605 662.898 930.282H663.115L663.332 930.299Z" fill="black"/>
<path d="M459.716 567.004C459.921 566.67 460.127 566.335 460.339 566C460.309 566.329 460.285 566.664 460.256 566.993L459.986 566.946L459.716 567.004Z" fill="black"/>
<path d="M669.178 926.795C669.566 926.783 669.954 926.771 670.335 926.766C670.218 926.953 670.106 927.147 669.988 927.335C669.718 927.153 669.448 926.977 669.178 926.795Z" fill="black"/>
<path d="M663.332 930.3L663.115 930.282H662.898C662.751 930.094 662.604 929.906 662.451 929.713C662.581 929.495 662.704 929.284 662.833 929.067C662.998 929.478 663.162 929.889 663.326 930.3H663.332Z" fill="black"/>
<path d="M628.476 684.837C628.429 684.807 628.365 684.772 628.3 684.737C628.371 684.631 628.435 684.526 628.506 684.42C628.57 684.49 628.688 684.567 628.682 684.637C628.682 684.708 628.553 684.766 628.476 684.837Z" fill="black"/>
<path d="M519.296 362.032C519.777 357.817 520.153 353.591 520.757 349.394C521.526 344.052 522.542 338.752 523.328 333.416C523.933 329.319 524.321 325.186 524.843 321.077C525.565 315.354 526.416 309.649 527.026 303.914C527.314 301.214 526.598 298.302 527.338 295.784C528.788 290.859 527.572 285.735 528.999 280.88C529.48 279.248 529.885 277.599 531.112 275.55C531.57 276.495 532.474 277.476 532.415 278.385C532.098 283.105 531.587 287.818 531.036 292.52C530.407 297.85 529.709 303.174 528.958 308.492C527.766 316.886 526.504 325.269 525.271 333.657C524.132 341.387 523.053 349.136 521.808 356.849C521.521 358.633 520.652 360.33 520.047 362.061C519.801 362.055 519.548 362.044 519.301 362.038L519.296 362.032Z" fill="white"/>
<path d="M551.164 720.772C552.12 721.119 552.795 721.365 554.034 721.811C550.465 727.529 546.979 733.105 543.498 738.676C543.099 738.447 542.693 738.218 542.294 737.989C545.247 732.26 548.193 726.531 551.164 720.772Z" fill="white"/>
<path d="M368.051 450.051C371.08 448.948 374.103 447.838 377.132 446.735C377.261 447.163 377.384 447.592 377.514 448.026C374.473 448.825 371.427 449.617 368.386 450.415C368.28 450.292 368.169 450.175 368.057 450.051H368.051Z" fill="white"/>
<path d="M519.296 362.032L520.042 362.056C519.455 366.458 518.873 370.866 518.286 375.269C518.069 375.24 517.852 375.216 517.635 375.187C518.186 370.802 518.738 366.417 519.29 362.032H519.296Z" fill="white"/>
<path d="M660.168 923.297C660.515 923.173 660.861 923.05 661.207 922.927C661.254 923.085 661.36 923.379 661.342 923.385C661.008 923.52 660.661 923.625 660.315 923.731L660.168 923.297Z" fill="black"/>
<path d="M368.386 450.415L367.171 450.679C367.141 450.562 367.118 450.445 367.089 450.327C367.412 450.239 367.735 450.145 368.057 450.057C368.169 450.175 368.28 450.298 368.386 450.421V450.415Z" fill="white"/>
<path d="M554.187 60.4179C556.993 63.4703 560.109 63.5407 564.612 60.8112C567.083 65.3839 566.813 69.1289 563.338 72.4806C560.356 70.1561 557.21 67.8962 554.304 65.3604C552.843 64.0808 552.226 64.2862 551.34 65.83C549.89 68.3482 548.211 70.7373 546.726 73.2437C545.364 75.5447 543.849 75.3275 542.071 73.7838C539.517 71.5649 538.579 68.7708 539.101 65.3076C543.685 66.2937 548.287 66.8572 550.941 61.0754C547.225 61.8913 544.225 61.0754 541.871 58.3048C540.744 56.984 540.469 55.8042 541.795 54.3132C544.155 51.66 552.467 48.5724 555.484 49.9695C556.793 50.5741 557.943 52.6696 558.137 54.2193C558.319 55.675 557.315 57.3949 556.511 58.8213C556.1 59.5492 555.003 59.8896 554.187 60.4179ZM554.298 53.2155C550.993 53.9493 548.047 54.595 545.1 55.2465C544.971 55.5459 544.848 55.8511 544.719 56.1505C546.174 56.9312 547.689 58.4339 549.08 58.3282C551.692 58.1345 553.259 56.0507 554.298 53.2155Z" fill="black"/>
<path d="M578.94 32.2476C574.092 38.7338 568.709 43.3182 561.477 45.9421C561.647 41.8566 572.853 32.9167 578.94 32.2476Z" fill="black"/>
<path d="M532.802 57.5947C534.399 58.0995 535.521 58.4576 536.794 58.8626C533.994 61.7682 526.146 62.4315 522.912 59.8311C525.929 59.1561 528.559 58.5632 530.684 58.0877C529.609 56.4207 528.389 54.7243 527.502 52.8694C527.408 52.6698 529.24 51.5428 530.196 50.8325C531.599 53.1218 535.984 53.8321 532.802 57.5888V57.5947Z" fill="black"/>
<path d="M581.652 47.1519C580.367 50.7091 572.178 52.7988 566.878 51.0437C567.958 48.1029 577.62 45.4673 581.652 47.1519Z" fill="black"/>
<path d="M521.18 44.8979C524.32 45.3969 527.467 45.8489 530.595 46.4065C533.166 46.8644 535.726 47.3985 538.268 47.9973C538.772 48.1147 539.171 48.6841 539.617 49.048C539.166 49.3004 538.667 49.8346 538.262 49.77C532.398 48.8425 526.404 48.3729 521.18 44.8979Z" fill="black"/>
<path d="M577.602 42.197C576.111 43.9404 574.719 45.5664 573.328 47.1982C572.923 47.116 572.519 47.0338 572.114 46.9517C571.967 45.7307 571.303 44.2574 571.761 43.3475C572.988 40.9115 574.538 40.6591 577.602 42.197Z" fill="black"/>
<path d="M440.756 258.903C440.645 259.725 440.539 260.552 440.322 262.19C440.915 263.029 442.072 264.649 443.216 266.258C442.277 266.974 441.261 267.344 441.044 267.984C440.117 270.713 438.015 269.422 437.34 268.571C435.526 266.293 433.167 264.033 433.384 260.793C433.455 259.725 434.411 258.363 435.356 257.829C436.06 257.429 437.399 258.134 438.45 258.363C439.219 258.533 439.981 258.733 440.744 258.915V258.903H440.756Z" fill="black"/>
<path d="M444.713 252.652C444.372 253.35 443.938 254.26 443.497 255.17C439.101 254.947 436.876 251.108 438.214 246.101C439.887 246.477 441.555 246.858 443.222 247.234L442.511 247.533C443.198 249.13 443.885 250.727 444.713 252.652Z" fill="black"/>
<path d="M445.158 220.854C447.254 221.365 449.291 221.676 451.152 222.428C451.668 222.633 451.651 224.148 451.885 225.063C450.893 225.175 449.737 225.674 448.939 225.327C447.278 224.611 444.701 224.594 445.158 220.854Z" fill="black"/>
<path d="M439.465 240.184C441.132 239.157 442.728 237.966 444.507 237.202C444.971 237.003 445.998 238.112 446.767 238.623C446.257 239.292 445.851 240.108 445.206 240.595C444.378 241.223 443.392 241.84 442.405 241.986C441.531 242.11 440.568 241.581 439.641 241.335C439.582 240.953 439.523 240.566 439.465 240.184Z" fill="black"/>
<path d="M440.751 258.915C440.921 259.056 441.085 259.197 440.774 258.933C440.956 259.279 440.856 259.091 440.762 258.903L440.756 258.915H440.751Z" fill="black"/>
<path d="M424.426 284.079C424.608 284.109 424.79 284.132 424.972 284.161C424.949 284.244 424.925 284.332 424.902 284.414C424.761 284.279 424.62 284.138 424.479 284.003L424.42 284.085L424.426 284.079Z" fill="black"/>
<path d="M430.977 749.113C431.347 743.935 433.014 741.799 437.017 741.388C435.861 744.622 433.513 746.612 430.977 749.113Z" fill="black"/>
<path d="M643.28 800.339C644.137 802.805 644.877 804.936 645.834 807.677C643.345 805.493 641.731 803.679 643.28 800.339Z" fill="black"/>
</svg>
