<svg width="1080" height="1080" viewBox="0 0 1080 1080" fill="none" xmlns="http://www.w3.org/2000/svg">
<path d="M885.06 944.858V945.477C884.651 949.939 884.36 954.42 883.797 958.864C883.098 964.379 884.824 970.903 877.861 974.004C877.564 974.133 877.428 974.678 877.261 975.043C874.179 981.845 867.878 983.937 861.435 985.67C856.496 987.001 851.488 988.072 846.5 989.223C838.243 991.13 829.987 993.048 821.711 994.88C819.632 995.344 815.243 992.491 815.194 990.412C815.089 985.831 815.342 981.239 815.503 976.653C815.553 975.21 815.881 973.781 815.899 972.345C815.949 968.965 815.107 965.338 816.054 962.256C817.558 957.373 816.481 953.473 813.968 949.45C811.592 945.65 809.512 945.341 806.492 948.596C806.17 948.943 805.526 948.986 805.031 949.166C804.146 946.188 801.224 946.541 799.139 945.477C796.291 944.028 793.581 942.308 790.814 940.692C789.217 939.758 783.523 940.438 782.985 941.757C782 944.171 781.313 946.708 780.267 949.091C778.113 953.993 776.04 958.951 773.496 963.655C770.748 968.742 767.455 973.533 764.484 978.503C759.855 986.246 755.07 993.909 750.781 1001.84C745.96 1010.76 741.076 1019.72 737.22 1029.08C733.81 1037.34 729.038 1043.63 720.645 1047.01C718.435 1047.9 715.718 1048.76 714.437 1050.52C709.64 1057.06 702.405 1059.55 695.529 1062.52C691.84 1064.11 687.532 1064.24 683.756 1065.69C677.307 1068.16 670.752 1070.02 663.876 1070.43C660.806 1070.62 657.687 1069.85 654.611 1069.99C652.129 1070.11 648.91 1070.17 647.394 1071.65C644.992 1074.01 642.814 1075.43 639.509 1074.82C636.575 1074.28 633.641 1073.7 630.726 1073.13C631.128 1068.17 631.339 1063.69 631.964 1059.26C632.119 1058.16 633.474 1056.66 634.551 1056.37C637.577 1055.57 638.803 1053.87 638.753 1050.84C638.648 1043.71 636.507 1037.28 631.896 1031.48C633.146 1030.8 634.155 1030.18 635.207 1029.68C636.426 1029.1 638.815 1028.4 638.76 1028.14C638.388 1026.32 637.608 1024.55 636.779 1022.85C636.445 1022.18 635.448 1021.83 635.089 1021.17C632.236 1015.84 627.031 1013.97 621.782 1016.72C619.641 1017.84 617.691 1018.38 615.451 1017.24C610.555 1014.75 607.825 1015.94 605.931 1021.2C601.32 1034.02 598.108 1047.19 596.022 1060.65C595.613 1063.29 595.193 1065.93 594.834 1068.22C592.667 1067.8 590.99 1067.36 589.288 1067.18C587.221 1066.97 585.086 1066.67 583.068 1066.97C579.54 1067.51 576.098 1068.99 572.577 1069.12C568.294 1069.29 564.159 1069.56 560.204 1071.32C558.818 1071.94 557.394 1072.75 555.94 1072.88C553.173 1073.12 550.363 1072.99 547.572 1072.92C541.927 1072.76 536.282 1072.51 530.631 1072.36C523.551 1072.17 517.72 1068.74 511.902 1065.25C508.603 1063.27 505.465 1060.85 501.931 1059.44C495.209 1056.75 488.061 1055.62 480.844 1054.95C476.245 1054.53 471.653 1053.99 467.091 1053.25C462.839 1052.57 458.674 1051.33 454.415 1050.73C449.798 1050.07 445.119 1049.79 440.458 1049.47C437.457 1049.27 434.702 1048.71 432.641 1046.25C432.09 1045.59 431.292 1044.78 430.543 1044.71C422.738 1044 415.082 1044.98 407.488 1046.8C400.723 1048.42 393.921 1049.89 387.112 1051.42C386.586 1052.86 385.88 1054.77 385.187 1056.67C384.519 1058.51 383.361 1060.35 383.33 1062.2C383.287 1064.73 381.319 1064.71 380.174 1064.74C379.196 1064.76 378.175 1063.28 377.042 1062.35C376.974 1062.43 376.361 1063.11 375.835 1063.69C374.554 1063.16 373.502 1062.71 372.313 1062.2C371.849 1063.19 371.478 1063.98 371.181 1064.63C369.268 1064.99 367.374 1065.85 365.672 1065.58C362.534 1065.06 359.402 1059.96 359.551 1056.66C359.761 1052.02 360.114 1047.37 359.916 1042.75C359.669 1036.99 358.734 1031.26 358.424 1025.49C358.035 1018.11 357.867 1010.71 357.799 1003.32C357.713 993.909 357.768 984.495 357.855 975.087C357.886 971.528 358.499 967.95 358.239 964.422C357.954 960.591 356.902 956.822 356.308 953.009C355.998 951.004 356.06 948.937 355.757 946.925C355.286 943.756 354.37 940.63 354.147 937.449C353.634 930.047 353.436 922.619 353.083 915.211C352.817 909.585 352.421 903.958 352.247 898.326C352.124 894.167 352.149 890.001 352.334 885.842C352.551 881.021 353.021 876.211 353.368 871.396C353.473 869.935 353.219 868.964 351.387 868.586C349.357 868.165 347.475 867.07 345.482 866.395C342.542 865.399 339.615 864.192 338.421 861.159C337.306 858.336 336.273 855.279 336.192 852.296C336.081 847.932 337.121 843.55 337.176 839.174C337.251 833.257 336.848 827.34 336.663 821.423C336.563 818.198 335.505 815.822 332.002 814.862C323.306 812.486 314.721 809.657 305.97 807.497C296.859 805.25 290.936 799.538 287.259 791.343C284.263 784.652 281.856 777.695 279.095 770.893C277.158 766.115 275.128 761.374 273.011 756.67C270.238 750.499 266.723 744.582 264.655 738.195C261.548 728.601 259.128 718.76 256.987 708.894C255.817 703.497 255.167 697.828 255.409 692.325C255.904 680.955 256.981 669.598 258.15 658.265C258.825 651.698 260.15 645.199 261.251 638.224C254.257 640.081 248.842 636.478 243.253 633.854C242.068 636.132 240.331 637.275 238.041 637.283C237.763 637.283 237.453 637.333 237.212 637.463C232.372 640.05 225.136 636.503 223.979 631.106C223.15 627.25 223.948 622.893 220.556 619.755C219.269 618.566 218.037 617.223 217.127 615.738C214.522 611.473 212.597 606.609 208.406 603.687C206.834 602.592 205.646 601.849 205.479 599.943C205.318 598.123 204.792 596.26 205.052 594.502C205.609 590.659 206.469 586.852 207.373 583.064C208.301 579.183 208.772 574.999 210.616 571.577C214.076 565.152 215.048 558.418 215.357 550.941C209.762 552.421 205.863 550.483 203.238 545.792C202.941 545.266 202.44 544.863 202.081 544.368C198.113 538.866 194.598 533.339 198.46 526.184C199.686 523.912 200.317 521.294 201.066 518.788C201.505 517.302 201.635 515.724 201.908 514.189C201.549 514.009 201.183 513.83 200.824 513.644C199.933 514.864 199.036 516.083 197.656 517.971C197.105 516.114 196.585 514.517 196.158 512.895C195.718 511.23 195.359 509.541 194.969 507.857C194.969 503.729 194.969 499.607 194.969 495.478C195.174 495.169 195.508 494.878 195.557 494.55C196.077 491.14 196.102 487.581 197.129 484.331C200.106 474.868 202.619 465.392 202.539 455.34C202.526 453.539 203.659 451.484 204.835 449.987C206.649 447.666 208.846 445.598 211.074 443.649C214.806 440.393 218.681 437.292 222.549 434.197C223.1 433.752 223.942 433.554 224.672 433.467C226.832 433.226 229.494 433.838 231.078 432.786C235.256 430.02 239.007 426.597 242.838 423.335C244.367 422.035 245.041 419.782 248.062 420.965C249.132 421.385 251.837 421.231 252.766 418.216C254.981 411.024 258.132 404.123 260.471 396.968C261.214 394.691 260.589 391.974 260.589 389.467C261.839 388.136 263.907 386.737 264.792 384.806C266.073 381.996 267.948 380.492 270.783 379.805C272.813 379.31 274.905 378.908 276.824 378.122C281.775 376.079 286.708 373.969 291.53 371.654C295.794 369.605 300.424 367.866 303.958 364.876C309.64 360.074 314.554 354.361 319.933 348.896C313.007 346.209 306.044 339.58 305.462 335.229C305.214 335.793 305.035 336.207 304.806 336.733C303.865 333.818 302.819 331.052 302.089 328.198C299.749 319.118 297.54 310.002 295.249 300.909C293.362 293.42 291.424 285.943 289.506 278.467C286.386 266.317 286.696 254.081 288.559 241.807C288.782 240.334 289.642 238.861 289.518 237.45C288.98 231.112 290.608 227.701 296.234 225.065C298.92 223.802 301.816 222.985 304.651 222.063C309.986 220.324 315.272 218.349 320.706 217.031C327.911 215.286 335.22 213.967 342.53 212.686C347.327 211.844 352.179 211.262 357.025 210.804C362.014 210.328 367.028 209.987 372.041 209.87C375.99 209.777 379.951 210.117 383.906 210.278C387.267 210.414 390.683 211.015 393.989 210.631C404.925 209.356 415.627 210.47 426.396 212.921C429.014 206.218 432.022 199.515 434.244 192.552C436.206 186.394 438.744 180.142 436.955 173.402C436.398 171.291 435.661 169.23 435.024 167.145C433.446 162.001 431.898 156.852 430.289 151.714C429.596 149.505 430.729 147.951 432.443 147.289C433.167 147.011 434.913 148.18 435.556 149.127C437.413 151.857 438.948 154.803 440.564 157.588C442.074 149.889 443.206 142.282 445.1 134.867C448.028 123.417 455.078 114.869 466.002 110.456C474.766 106.916 483.945 104.254 493.13 101.933C502.266 99.6247 511.63 98.2074 520.908 96.462C523.025 96.0659 525.191 95.9049 527.332 95.6388C533.936 95.6388 540.534 95.6388 547.138 95.6388C547.318 95.8369 547.485 96.1835 547.677 96.202C556.744 97.0623 565.824 97.7617 574.873 98.7768C582.597 99.6371 590.322 100.615 597.972 101.977C610.629 104.223 623.305 106.483 635.826 109.354C648.322 112.22 660.738 115.544 673.024 119.22C685.118 122.841 696.983 127.211 708.984 131.153C716.412 133.598 724.012 134.118 731.755 132.8C737.127 131.89 742.5 130.739 747.915 130.404C762.826 129.495 777.043 132.162 790.22 139.559C795.32 142.424 799.9 145.494 802.029 151.473C804.43 158.22 807.439 164.743 810.211 171.36C811.22 173.761 812.724 176.045 813.269 178.539C814.723 185.224 816.116 191.958 816.908 198.748C817.67 205.29 815.38 210.749 809.122 213.93C804.418 216.319 800.432 219.538 797.282 223.827C796.774 224.52 795.45 224.619 793.983 225.195C793.556 229.837 787.998 230.146 785.293 233.396C784.996 233.755 783.925 233.643 783.269 233.495C779.283 232.603 777.594 230.524 777.402 226.278C777.29 223.821 776.083 222.552 773.62 222.527C771.354 222.509 769.077 222.44 766.818 222.546C765.97 222.583 765.01 222.874 764.336 223.369C759.879 226.624 754.891 227.658 749.63 226.439C744.202 225.176 739.423 226.47 735.221 229.633C729.743 233.748 724.433 238.124 719.327 242.692C715.52 246.096 711.033 249.086 709.715 254.576C709.226 256.624 708.718 258.673 708.05 260.672C707.251 263.055 707.183 264.98 709.609 266.639C710.247 267.072 710.272 269.003 709.993 270.092C708.173 277.167 704.676 283.443 700.43 289.329C699.886 290.084 699.05 291.05 698.264 291.13C694.749 291.495 693.87 294.404 691.877 296.707C693.393 296.806 694.452 296.725 695.423 296.967C705.085 299.393 714.332 302.946 723.09 307.674C726.804 309.673 730.288 312.1 733.89 314.309C737.821 316.717 742.011 318.778 745.656 321.551C750.484 325.227 754.031 329.999 755.108 336.226C755.727 339.797 756.581 343.35 756.853 346.952C757.199 351.514 758.951 356.279 755.881 360.111C779.797 390.773 798.897 424.332 820.641 456.17C820.09 456.095 819.52 456.021 819.588 456.034C821.167 459.809 822.572 463.758 824.441 467.471C826.558 471.668 829.2 475.598 831.435 479.739C835.316 486.943 839.871 493.925 842.675 501.538C846.84 512.852 849.805 524.618 853.135 536.235C854.552 541.187 855.753 546.417 853.519 551.3C852.052 554.506 852.609 557.199 853.444 560.201C855.635 568.043 858.086 575.835 859.776 583.782C861.261 590.77 861.491 598.024 862.945 605.024C865.693 618.288 868.887 631.459 871.969 644.648C872.903 648.653 874.668 652.552 875.033 656.594C875.831 665.476 875.998 674.419 876.37 683.338C876.487 686.235 876.301 689.144 876.493 692.034C876.753 695.965 877.589 699.876 877.576 703.794C877.546 714.465 877.23 725.141 876.951 735.812C876.865 739.166 876.673 742.527 876.301 745.863C875.788 750.375 874.934 754.856 874.439 759.368C873.485 768.095 866.727 772.663 861.224 778.141C860.983 778.382 860.457 778.376 860.054 778.407C858.507 778.537 857.863 779.725 856.916 780.74C852.256 785.704 847.552 790.65 842.588 795.298C841.226 796.573 840.768 797.705 841.171 799.185C842.21 803.022 842.96 807.039 844.686 810.561C848.14 817.586 852.336 824.245 855.908 831.215C859.504 838.221 862.753 845.401 866.077 852.543C868.744 858.281 871.833 863.895 873.795 869.867C877.874 882.289 881.185 894.897 882.776 908C883.983 917.984 884.521 927.911 884.484 937.926C884.478 940.234 884.868 942.543 885.072 944.845L885.06 944.858ZM506.567 271.671C507.892 272.94 508.641 273.787 509.519 274.475C514.551 278.411 519.583 282.354 524.714 286.166C525.333 286.63 526.522 286.333 527.945 286.426C532.018 291.693 537.241 297.047 539.767 304.153C540.287 305.613 540.541 307.427 540.169 308.887C539.643 310.936 540.12 312.044 542.1 311.673C544.737 311.177 547.504 310.565 549.806 309.277C557.295 305.075 565.366 302.977 573.753 301.794C576.693 301.38 578.246 299.294 577.98 296.255C577.739 293.532 577.646 290.802 577.441 288.073C577.281 285.943 577.584 283.573 576.742 281.735C574.099 275.941 572.837 270.049 573.715 263.711C573.994 261.7 574.322 259.632 574.124 257.639C573.963 256.024 573.493 253.728 572.372 253.072C570.491 251.97 569.136 253.864 568.059 255.436C567.823 255.783 567.26 255.906 566.852 256.129C566.109 256.532 565.088 256.748 564.685 257.373C563.156 259.731 561.535 262.102 560.501 264.695C559.437 267.369 557.766 268.83 555.042 269.412C552.888 269.87 550.79 270.575 548.636 271.039C547.584 271.268 546.303 271.572 545.405 271.188C542.75 270.055 540.2 268.657 537.669 267.252C532.501 264.392 527.357 261.483 522.232 258.555C521.001 257.856 519.101 257.194 518.828 256.16C517.931 252.762 516.538 254.161 514.972 255.374C514.483 255.752 514 256.439 513.511 256.445C510.491 256.494 511.222 258.828 510.9 260.524C510.782 261.155 510.869 261.861 510.627 262.436C509.309 265.549 507.916 268.626 506.567 271.677V271.671Z" fill="white"/>
<path d="M650.352 1079.74H649.115C645.178 1079.32 641.248 1078.88 637.311 1078.51C632.911 1078.1 628.423 1078.21 625.483 1073.8C624.512 1072.35 622.581 1071.53 621.132 1070.45C622.742 1054 624.394 1037.19 626.034 1020.45C620.284 1019.87 614.751 1019.32 609.026 1018.74C609.274 1030.82 605.987 1041.91 603.387 1053.12C602.527 1056.84 602.36 1060.74 601.19 1064.34C600.627 1066.06 600.169 1068.68 596.913 1068.69C592.55 1068.71 588.18 1069.28 583.835 1069.82C580.159 1070.29 576.457 1070.82 572.874 1071.75C562.222 1074.49 551.613 1077.19 540.565 1078.08C536.567 1078.41 533.255 1077.95 530.198 1075.57C529.697 1075.18 529.282 1074.22 529.375 1073.6C530.223 1068.24 531.356 1062.91 532.098 1057.52C532.934 1051.48 533.466 1045.4 534.11 1039.33C534.908 1031.84 535.799 1024.36 536.431 1016.86C536.852 1011.85 536.808 1006.81 537.124 1001.79C537.588 994.404 538.188 987.026 538.733 979.599H536.053C531.751 1009.55 527.481 1039.3 523.216 1068.97C522.102 1069.11 521.706 1069.18 521.31 1069.21C516.049 1069.62 510.776 1069.92 505.527 1070.49C502.742 1070.79 499.982 1071.47 497.246 1072.12C493.588 1072.97 492.065 1071.68 492.499 1068.03C492.573 1067.4 492.467 1066.6 492.133 1066.06C490.27 1063.06 486.965 1063.04 484.168 1063.15C478.009 1063.38 471.851 1064.09 465.736 1064.93C458.117 1065.98 450.553 1067.38 442.953 1068.56C435.42 1069.73 427.999 1071.72 420.231 1071.06C416.221 1070.72 412.129 1070.78 408.113 1071.13C400.852 1071.77 393.574 1072.48 386.388 1073.68C376.089 1075.4 365.765 1076.41 355.336 1075.97C354.376 1075.94 353.411 1075.18 352.514 1074.65C351.827 1074.24 351.307 1073.36 350.601 1073.21C349.221 1072.93 347.766 1073.02 346.343 1072.93C341.001 1072.64 338.86 1071.36 338.055 1067.57C337.541 1065.16 338.266 1063.49 340.116 1061.27C342.747 1058.1 344.443 1053.57 345.024 1049.41C346.083 1041.85 346.2 1034.13 346.405 1026.46C346.652 1017.37 346.559 1008.27 346.64 999.182C346.708 991.544 346.875 983.9 346.869 976.263C346.869 971.775 346.448 967.282 346.485 962.795C346.541 956.909 346.906 951.029 347.054 945.143C347.494 927.645 347.828 910.142 348.342 892.651C348.472 888.299 349.109 883.967 349.537 879.628C349.716 877.784 349.487 876.354 347.401 875.5C344.325 874.243 341.41 872.603 338.396 871.186C337.826 870.92 337.04 870.653 336.514 870.839C332.955 872.083 330.739 870.876 330.399 867.033C329.718 859.358 328.821 851.664 328.808 843.971C328.796 836.624 329.823 829.284 330.275 821.931C330.318 821.244 329.656 820.074 329.068 819.87C326.184 818.873 323.164 818.285 320.292 817.264C311.819 814.25 303.296 811.328 294.983 807.912C290.558 806.092 287.03 802.942 284.957 798.269C282.679 793.138 279.937 788.211 277.393 783.204C271.748 772.112 265.745 761.182 260.539 749.886C254.845 737.532 249.826 724.857 247.796 711.265C246.719 704.048 245.642 696.813 245.029 689.552C244.596 684.446 244.707 679.253 245.004 674.129C245.332 668.49 245.933 662.852 246.805 657.269C247.715 651.445 249.089 645.701 250.259 639.895C244.429 637.215 243.327 638.001 242.2 645.657C239.539 645.794 236.822 646.419 234.309 645.936C231.518 645.397 228.708 644.191 226.281 642.674C222.233 640.143 219.324 636.683 220.247 631.372C220.531 629.714 220.965 628.086 221.342 626.39C215.413 622.051 210.245 616.964 206.537 610.508C206.079 609.71 205.231 608.329 204.841 608.416C201.097 609.264 201.48 606.244 201.499 604.498C201.542 599.85 201.685 595.14 202.489 590.584C204.39 579.846 206.698 569.175 208.858 558.418C200.657 551.338 191.621 535.938 196.269 522.47C194.084 518.788 191.813 515.934 190.606 512.685C189.238 508.99 188.823 504.942 188 501.043C188 494.234 188 487.426 188 480.618C189.034 476.056 189.888 471.445 191.126 466.939C195.248 451.893 203.585 439.836 217.27 432.019C221.466 429.617 225.7 426.343 231.214 427.959C231.474 428.033 231.938 427.662 232.211 427.395C234.297 425.353 236.531 423.428 238.388 421.194C241.192 417.827 244.695 417.715 248.476 418.427C249.572 415.623 250.63 412.807 251.763 410.028C254.678 402.892 257.272 395.594 260.682 388.706C262.935 384.15 265.646 379.248 271.34 378.072C280.117 376.265 286.126 369.413 294.024 366.059C294.315 365.935 294.389 365.378 294.637 365.081C299.997 358.631 305.796 352.665 312.27 348.766C310.822 346.977 309.089 345.225 307.857 343.177C307.213 342.106 306.991 341.171 305.474 341.196C305.053 341.202 304.484 340.286 304.205 339.692C302.881 336.845 301.259 334.066 300.418 331.076C297.459 320.585 294.544 310.076 292.05 299.467C289.543 288.815 287.309 278.077 285.421 267.295C283.892 258.568 281.806 249.878 283.224 240.798C284.406 233.229 287.544 227.157 294.185 223.239C303.673 217.644 313.7 213.447 324.5 210.879C338.309 207.598 352.062 204.826 366.403 205.735C376.671 206.385 386.988 206.082 397.275 206.503C402.289 206.707 407.283 207.536 412.272 208.211C414.327 208.49 416.344 209.102 418.375 209.567C418.43 210.074 418.486 210.575 418.542 211.083C417.329 211.597 416.103 212.593 414.908 212.556C407.073 212.296 399.243 211.399 391.42 211.479C375.52 211.652 359.551 210.148 343.718 212.674C335.474 213.986 327.18 215.304 319.134 217.452C312.765 219.148 306.626 221.865 300.591 224.588C293.832 227.64 289.128 232.548 290.18 240.656C291.165 248.232 292.39 255.795 293.962 263.266C296.407 274.883 299.235 286.42 301.897 297.988C302.937 302.5 303.908 307.024 304.992 311.53C307.022 319.997 309.108 328.446 311.2 336.901C311.311 337.359 311.62 337.841 311.979 338.145C314.585 340.323 317.234 342.452 319.945 344.662C322.229 342.05 324.377 339.574 326.543 337.117C331.42 331.596 335.938 325.692 341.28 320.66C349.338 313.071 357.818 305.886 366.433 298.929C371.849 294.553 377.611 290.499 383.634 287.02C392.961 281.636 403.372 278.919 413.776 276.418C426.254 273.416 438.725 271.108 451.407 275.743C459.59 278.733 467.518 282.112 474.469 287.466C477.112 289.502 478.931 292.065 479.767 296.36C458.24 280.732 436.095 275.236 413.138 286.278C419.39 287.373 427.033 288.24 434.405 290.165C439.257 291.427 444.079 293.662 448.251 296.447C453.512 299.962 457.869 304.802 463.037 308.485C468.837 312.613 475.119 316.067 481.172 319.836C489.453 324.998 497.902 329.913 505.892 335.483C509.197 337.786 514.836 337.427 515.096 344.093C515.214 347.194 519.002 350.152 521.292 353.408C521.997 350.678 523.303 350.641 524.646 352.176C527.648 355.605 530.483 359.17 533.423 362.648C536.851 366.715 540.72 369.884 546.482 369.871C553.916 369.859 561.343 370.057 568.776 370.181C572.484 370.243 576.389 371.128 579.843 370.23C584.757 368.949 589.338 366.374 594.11 364.332C592.934 363.292 592.048 362.617 591.281 361.825C585.778 356.15 580.394 350.362 574.78 344.804C571.221 341.283 567.372 338.039 563.559 334.778C558.242 330.228 552.795 325.853 546.123 323.34C545.244 323.012 544.545 322.213 543.332 321.322C544.613 320.449 545.616 319.211 546.557 319.248C548.358 319.329 550.122 320.14 551.762 320.604C553.705 318.32 555.259 315.102 557.765 313.932C560.34 312.725 561.454 310.788 563.026 308.968C563.435 308.745 563.843 308.522 564.252 308.299L564.029 307.823C563.491 308.058 562.952 308.287 562.407 308.522C556.893 311.085 551.242 313.4 545.9 316.29C541.085 318.896 536.462 321.916 532.03 325.141C527.821 328.204 526.689 333.187 525.333 337.897C524.739 339.952 524.306 342.05 523.798 344.124C523.495 344.111 523.192 344.099 522.888 344.086C522.672 343.201 522.139 342.261 522.288 341.444C523.161 336.826 523.99 332.184 525.222 327.654C526.645 322.424 529.678 318.252 534.326 315.263C535.861 314.278 536.944 312.954 536.35 310.651C534.128 302.122 530.118 294.621 523.606 288.692C518.042 283.616 512.131 278.919 506.214 273.924C504.951 276.028 503.701 278.188 502.377 280.293C501.585 281.549 499.988 282.137 499.666 280.497C499.128 277.736 498.397 274.196 499.629 272.061C503.231 265.809 507.762 260.09 512.008 254.043C508.95 251.493 505.521 248.733 502.21 245.836C495.754 240.192 489.292 234.547 482.992 228.729C480.751 226.655 478.727 224.161 479.513 220.652C480.801 214.927 482.088 209.195 483.475 203.495C483.66 202.74 484.428 202.127 484.948 201.415C485.313 201.756 485.517 201.855 485.573 202.009C487.448 207.301 485.461 212.408 484.805 217.582C484.712 218.331 484.465 219.389 484.836 219.804C487.138 222.379 489.423 225.015 492.047 227.25C504.976 238.273 517.986 249.197 531.021 260.097C535.756 264.058 540.627 267.852 545.17 271.51C548.444 268.972 551.434 267.982 554.683 268.985C556.688 265.779 558.36 262.579 560.532 259.756C565.094 253.833 569.711 247.935 574.712 242.383C577.25 239.566 577.454 238.124 574.068 236.119C572.954 235.457 571.884 234.665 570.949 233.767C569.402 232.275 569.296 228.549 570.825 227.497C572.954 226.037 574.155 227.881 575.56 229.057C577.021 230.276 578.457 231.749 580.171 232.368C581.65 232.901 585.704 227.342 585.314 225.554C584.906 223.703 584.361 221.883 583.81 220.07C582.504 215.768 580.58 211.671 580.932 206.936C581.13 204.256 581.898 203.346 584.454 204.281C585.104 205.89 585.816 207.481 586.391 209.115C588.26 214.413 590.656 219.612 591.77 225.071C592.983 231.013 593.125 234.85 586.825 237.648C581.477 240.025 578.624 244.06 576.198 248.832C575.845 249.525 575.417 250.373 575.523 251.073C576.68 258.939 577.844 266.812 579.187 274.654C580.877 284.501 585.259 292.807 593.707 298.564C601.914 304.159 610.146 309.711 618.434 315.194C619.548 315.931 621.046 316.618 622.308 316.525C628.38 316.086 634.446 315.436 640.493 314.712C642.758 314.439 645.228 314.235 647.159 313.177C654.598 309.104 661.871 304.716 669.186 300.414C671.99 298.768 674.9 297.233 677.443 295.246C679.071 293.971 680.074 291.922 681.448 290.295C684.221 287.02 687 283.746 689.921 280.596C690.441 280.033 691.623 280.095 692.502 279.866C692.421 280.775 692.657 281.883 692.217 282.558C689.717 286.47 687.055 290.276 684.332 294.293C685.588 295.289 686.969 296.391 688.429 297.555C695.993 287.912 706.75 281.376 711.441 269.863C705.178 267.264 700.604 272.655 694.91 273.8C696.723 268.168 698.84 263.012 700.981 257.862C701.136 257.497 701.415 256.977 701.718 256.915C704.602 256.315 704.806 253.629 705.32 251.673C708.297 240.377 711.039 229.02 713.756 217.662C714.097 216.251 714.425 214.184 713.694 213.28C709.622 208.217 705.364 203.278 700.889 198.568C695.207 192.589 689.339 186.771 683.36 181.083C681.534 179.344 679.232 177.772 676.868 177.004C671.081 175.141 665.894 172.919 661.815 167.906C659.779 165.405 657.235 162.175 652.828 162.422C647.784 162.707 642.597 161.834 637.67 162.645C630.175 163.87 622.624 165.504 615.525 168.123C610.146 170.103 605.417 173.854 600.447 176.905C599.965 177.202 599.841 178.094 599.575 178.713C596.882 184.933 594.363 191.24 591.442 197.349C590 200.363 588.23 203.445 584.454 204.306C584.417 203.594 584.157 202.808 584.38 202.189C587.041 194.879 589.783 187.594 592.401 180.569C591.238 179.678 590.186 179.177 589.567 178.354C585.092 172.406 578.642 169.039 572.342 165.721C568.226 163.555 563.41 162.756 558.96 161.19C557.506 160.677 556.224 159.668 554.671 158.77C562.556 152.303 584.312 159.315 595.323 171.422C597.73 164.83 600.107 158.343 602.453 151.838C602.564 151.523 602.509 151.089 602.385 150.761C601.048 147.11 600.986 143.495 602.855 139.72C589.436 133.796 576.198 127.954 562.593 121.95C561.225 124.884 559.932 127.663 559.059 129.538C560.012 131.562 561.25 132.973 561.034 134.093C560.817 135.189 559.251 136.39 558.025 136.835C555.605 137.72 553.031 138.302 550.474 138.674C545.313 139.416 540.12 139.93 534.295 140.611C533.645 142.065 532.532 144.43 531.516 146.831C529.152 152.414 527.283 158.232 523.284 163.01C521.737 164.861 520.66 164.298 519.286 162.942C518.259 161.933 517.182 160.664 515.901 160.287C513.097 159.457 511.717 157.335 511.172 154.989C510.442 151.826 508.925 149.319 507.285 146.571C503.355 140.004 499.097 134.236 491.892 130.794C487.331 128.616 486.012 128.257 482.589 131.896C481.766 132.775 481.011 133.741 480.361 134.756C474.908 143.266 471.876 152.451 474.704 162.472C477.743 173.241 485.901 178.948 496.639 182.16C496.119 182.736 495.804 183.28 495.327 183.577C491.948 185.713 488.438 184.289 485.189 183.447C475.992 181.058 468.119 176.614 463.73 167.646C459.311 170.611 454.836 173.569 450.411 176.596C449.099 177.493 447.694 178.397 446.716 179.61C445.67 180.91 445.057 182.569 444.302 184.091C437.896 197.008 431.502 209.926 425.103 222.843C424.422 224.223 423.679 225.572 423.332 226.241C432.604 231.557 441.591 236.497 450.361 241.795C461.669 248.622 472.501 256.123 481.321 266.131C486.235 271.708 490.568 277.625 493.495 284.6C496.367 291.446 499.616 298.174 503.262 304.642C508.387 313.734 514.038 322.523 519.416 331.466C519.924 332.314 520.054 333.385 520.357 334.351C520.103 334.45 519.856 334.555 519.602 334.654C516.254 329.987 512.818 325.376 509.575 320.635C506.09 315.535 502.507 310.466 499.48 305.093C496.187 299.251 494.003 292.733 490.4 287.113C484.601 278.064 478.306 269.263 469.524 262.696C462.053 257.107 454.855 251.066 446.976 246.127C439.22 241.269 430.97 237.016 422.534 233.458C413.139 229.49 403.489 225.925 393.147 224.978C388.22 224.526 383.324 223.746 378.398 223.357C373.273 222.954 368.117 222.632 362.98 222.67C359.353 222.694 355.714 223.301 352.105 223.784C345.705 224.638 339.318 225.622 332.924 226.507C328.53 227.113 324.135 227.77 319.716 228.129C318.781 228.203 317.754 227.058 316.764 226.476C317.389 225.665 317.847 224.508 318.664 224.118C320.341 223.319 322.217 222.936 324.011 222.385C338.482 217.966 353.126 215.508 368.414 216.158C379.549 216.629 390.665 216.882 401.478 219.569C406.305 220.769 410.421 221.357 415.181 219.012C418.003 217.625 420.046 216.449 420.708 213.373C420.832 212.791 420.987 212.197 421.216 211.652C424.762 203.272 428.321 194.892 432.016 186.189C431.187 186.14 430.209 186.189 429.268 185.997C427.003 185.539 424.7 185.137 422.54 184.363C421.754 184.085 420.9 182.841 420.869 182.005C420.844 181.368 422.02 180.625 422.744 180.031C424.929 178.236 427.151 176.491 429.299 174.782C428.989 173.848 428.748 173.105 428.587 172.635C426.217 173.26 423.97 173.854 421.81 174.43C421.172 173.006 419.984 171.651 420.244 170.691C420.937 168.116 419.322 166.947 417.91 165.573C414.884 162.62 413.887 158.808 414.587 154.952C415.298 151.015 417.013 147.258 418.288 143.427C416.066 142.338 412.359 141.737 410.941 139.608C405.996 132.181 403.099 123.813 402.79 114.752C402.703 112.294 404.04 111.279 406.504 111.032C407.748 110.908 408.924 109.819 410.038 109.033C410.248 108.884 410.143 107.739 409.982 107.69C408.434 107.201 406.479 106.062 405.327 106.6C401.861 108.216 398.736 110.617 394.428 108.599V100.968C395.505 101.265 396.464 101.525 397.851 101.902V86.8561C398.123 86.9428 398.637 87.0727 399.12 87.2584C401.533 88.2054 402.499 87.5246 402.22 84.9622C402.109 83.9657 401.564 82.9878 401.583 82.0098C401.614 80.3139 401.385 78.2529 402.233 77.0088C404.003 74.4279 406.268 72.1873 409.679 71.5065C412.823 70.8813 415.905 69.9158 419.006 69.0617C420.479 68.6532 421.915 68.1456 423.493 67.6443C423.648 67.3163 424.106 66.5364 424.397 65.7008C424.781 64.6053 425.629 63.1446 425.232 62.3957C424.156 60.3656 425.288 58.8059 425.604 57.0233C426.149 53.9658 426.396 50.8587 426.767 47.7764C428.469 47.5598 430.141 47.3432 432.016 47.108C431.273 45.2078 432.078 42.8559 429.008 42.7197C428.55 42.7011 427.485 39.7859 427.943 38.7771C429.856 34.5312 433.081 31.4489 437.679 30.0501C441.151 28.9979 444.624 27.9333 448.473 26.7573C444.036 24.1825 445.28 20.1904 445.063 16.5387C446.963 16.3158 449.043 15.4988 450.714 16.0064C453.066 16.7181 454.292 16.3715 455.028 13.3945C455.641 14.5952 456.186 15.1894 456.216 15.8083C456.39 19.3486 457.163 19.9985 460.685 20.178C466.033 20.4503 471.374 20.9331 476.963 21.3416C477.31 19.8562 477.403 17.5042 478.424 15.6536C479.451 13.7968 481.376 12.4227 482.942 10.8754C483.617 10.2069 484.378 9.62513 485.096 9C485.715 9 486.334 9 486.953 9C487.318 9.67464 487.572 10.4483 488.073 10.993C489.385 12.4413 490.809 13.7844 491.793 14.7809C494.906 12.9798 498.36 10.993 501.814 9C502.847 9 503.875 9 504.908 9C507.607 9.85413 510.51 10.3307 512.967 11.6305C518.29 14.4528 523.947 17.1823 524.949 23.9226C528.149 25.1852 531.287 26.4231 534.921 27.8528C535.372 26.5469 536.065 24.721 536.592 22.8518C536.734 22.3381 536.369 21.682 536.239 21.094C536.914 21.3169 537.607 21.5025 538.263 21.7687C539.111 22.1091 540.305 23.0623 540.714 22.7899C543.251 21.094 545.609 19.1258 547.862 17.3804C548.915 18.6059 549.688 20.0914 550.208 20.0109C552.523 19.6457 552.696 21.3416 553.452 22.6723C553.947 23.545 554.683 24.362 555.494 24.95C556.788 25.8846 558.304 26.5035 559.591 27.4443C561.912 29.1402 564.153 30.8237 566.616 27.9209C567.384 28.8246 568.195 30.0067 568.349 29.9263C569.34 29.4064 570.181 28.6141 570.961 28.0014C571.89 28.4037 573.078 28.8617 574.204 29.4311C574.743 29.7034 575.399 30.0748 575.634 30.57C576.569 32.5753 577.59 34.2588 580.666 33.4542C579.967 34.6549 579.267 35.8495 578.636 36.9264C581.786 39.5384 584.788 42.1441 585.537 46.489C585.698 47.4112 586.218 48.4325 586.899 49.0576C588.056 50.1222 589.467 50.9144 590.736 51.7933C593.899 51.4715 597.291 51.1249 600.639 50.7845C601.091 53.2478 603.777 54.9747 605.659 54.5228C613.346 52.666 620.13 56.5096 622.302 63.5531C623.565 67.6505 622.939 72.3297 623.181 76.9655C626.529 76.6994 630.02 77.8258 632.843 80.611C636.81 84.5289 636.618 89.4123 635.708 94.3329C635.424 95.874 635.541 96.4435 637.058 97.2666C640.196 98.9811 643.166 100.256 646.787 98.7892C647.938 98.325 649.35 98.3498 650.637 98.3683C657.173 98.4736 663.27 100.541 669.49 102.292C673.321 103.376 677.394 104.273 681.664 102.713C684.19 101.791 687.891 101.222 689.896 102.429C692.657 104.087 694.798 102.93 697.206 102.887C697.788 102.874 698.462 102.292 698.933 102.447C702.139 103.506 705.32 104.663 708.471 105.882C708.805 106.012 709.052 106.724 709.09 107.188C709.288 109.782 710.921 111.149 713.081 112.152C715.161 113.118 717.191 114.182 719.29 115.104C721.883 116.249 724.526 117.295 726.76 118.218C728.128 115.655 728.834 113.303 730.368 111.787C731.718 110.45 732.034 109.268 732.157 107.578C732.232 106.557 733.148 105.604 733.68 104.62C734.268 103.846 734.02 102.763 733.934 101.667C733.847 100.547 733.915 99.4144 733.915 98.3931C734.751 98.0465 735.592 97.9537 735.989 97.4833C737.895 95.2365 739.12 96.0288 740.383 98.1517C741.398 99.86 742.667 101.42 744.208 103.58C744.567 100.751 744.474 98.325 747.581 98.226C748.237 98.2074 749.005 98.0094 749.506 97.6194C751.103 96.3692 753.362 95.2675 753.981 93.6025C755.503 89.4866 755.943 93.0703 756.94 93.3735C758.4 93.3797 760.17 93.3612 760.963 94.2339C762.003 95.3727 762.268 97.2171 762.956 98.9997C763.612 98.6345 764.224 98.3498 764.781 97.9784C767.325 96.2949 769.733 94.3638 772.413 92.9403C776.535 90.7492 780.205 91.4672 783.467 94.7661C785.243 96.5672 786.797 98.6097 788.629 100.343C793.122 104.601 797.666 108.81 802.332 112.87C803.248 113.662 805.068 114.343 806.04 113.966C809.221 112.734 810.886 116.763 813.813 115.878C813.894 115.853 814.327 116.448 814.259 116.565C813.306 118.292 815.107 117.982 815.639 118.187C816.945 118.688 818.388 118.837 819.768 119.146C824.137 120.143 825.239 122.247 823.983 126.623C823.704 127.595 824.162 128.777 824.305 130.052C819.297 130.51 824.1 135.003 822.126 136.538C824.348 138.686 826.886 140.481 828.507 142.889C830.246 145.463 831.125 148.62 832.301 151.349C835.78 151.975 839.747 149.79 842.941 153.021C843.653 153.745 843.844 155.057 844.618 155.632C846.84 157.273 847.639 159.86 845.708 161.723C843.473 163.883 840.725 165.517 837.927 167.578C838.503 174.293 833.923 178.298 828.903 182.247C831.726 187.359 833.911 192.905 831.237 199.175C831.094 199.509 831.435 200.091 831.627 200.524C832.883 203.371 834.276 206.162 835.396 209.059C836.213 211.17 837.036 213.435 834.499 215.205C834.195 215.416 834.399 216.363 834.325 217.755C832.165 216.87 830.407 216.096 828.612 215.447C828.123 215.267 827.498 215.502 826.941 215.447C824.558 215.211 821.687 215.905 821.055 212.278C821.012 212.018 819.737 211.659 819.236 211.857C818.363 212.197 817.645 212.94 817.112 213.33C818.709 214.79 820.901 215.942 821.581 217.687C822.157 219.16 821.563 221.877 820.442 223.035C818.61 224.935 816.029 226.216 813.591 227.398C811.208 228.549 808.596 229.23 806.096 230.146C804.245 230.821 802.382 232.195 800.581 232.108C797.257 231.947 795.184 233.266 795.177 236.571C795.177 237.809 795.586 239.251 795.085 240.235C794.268 241.85 793.122 243.664 791.618 244.444C790.504 245.019 788.381 244.468 787.119 243.726C785.373 242.698 783.876 241.132 782.52 239.573C781.412 238.298 780.669 236.695 779.927 235.506C774.919 234.002 769.906 232.492 764.893 230.982C763.865 230.672 762.825 230.091 761.81 230.122C757.119 230.27 752.434 230.592 747.68 230.858C740.191 245.063 730.319 257.002 714.375 262.189C715.904 265.147 717.464 267.864 716.034 271.021C714.189 275.087 712.506 279.296 710.074 282.997C707.511 286.903 704.15 290.282 701.235 293.773C702.226 294.206 703.729 294.949 705.289 295.537C710.346 297.437 715.514 299.084 720.484 301.2C730.3 305.384 739.677 310.41 747.594 317.707C754.699 324.262 760.715 331.423 759.279 342.131C758.357 349.032 757.509 355.945 756.636 362.785C759.199 361.893 761.631 362.184 763.704 364.623C766.49 367.903 769.789 370.794 772.252 374.291C777.389 381.588 782.359 389.034 786.97 396.671C794.627 409.353 802.19 422.103 809.351 435.07C816.636 448.247 823.481 461.672 830.339 475.085C833.366 481.002 835.941 487.154 838.72 493.201C834.282 491.096 830.327 488.614 826.366 486.126C823.358 484.239 822.825 482.462 824.218 479.009C824.459 478.408 824.664 477.795 824.924 477.071C822.497 477.424 822.015 478.34 821.637 482.809C820.263 482.06 818.877 481.311 817.49 480.556L815.992 479.281L815.559 479.788C816.005 480.178 816.45 480.574 816.902 480.964C818.004 481.868 819.229 482.66 820.158 483.713C820.888 484.542 821.439 485.65 821.736 486.721C822.943 491.053 823.655 495.565 825.245 499.749C827.319 505.214 831.695 508.606 837.129 510.302C835.693 514.288 833.242 517.711 833.719 522.582C838.354 519.623 838.912 514.672 841.363 511.026C842.86 510.933 844.339 510.834 845.819 510.741C847.96 515.483 850.176 520.193 852.503 524.866C858.625 537.152 859.714 550.917 861.985 564.286C863.199 571.416 864.183 578.577 867.562 585.156C868.361 586.716 868.62 588.641 868.769 590.43C869.27 596.545 869.642 602.672 870.001 608.8C870.106 610.564 870.019 612.334 870.019 613.739C867.352 612.798 865.198 612.043 862.369 611.046C858.012 587.279 852.231 562.862 850.442 537.845C845.602 540.463 841.01 542.895 836.479 545.452C835.749 545.866 834.765 546.943 834.876 547.537C835.272 549.716 833.694 549.697 832.784 549.221C831.602 548.602 830.364 547.438 829.887 546.219C827.325 539.615 824.917 532.943 822.59 526.252C816.456 508.619 810.422 490.948 804.263 473.321C803.583 471.371 803.676 469.817 805.074 468.313C807.593 465.596 810.094 462.861 812.675 460.057C794.558 427.891 777.625 394.418 755.584 364.412C755.485 364.728 755.12 365.619 754.928 366.554C752.359 379.013 749.5 391.33 741.447 401.722C739.956 403.641 738.644 406.104 738.347 408.456C737.715 413.432 738.043 418.52 737.548 423.521C736.688 432.18 735.766 440.851 734.379 449.436C732.38 461.796 729.935 474.088 727.688 486.411C725.807 496.76 723.919 507.108 722.068 517.457C719.388 532.423 716.839 547.407 714.029 562.349C710.711 580.007 705.809 597.263 700.146 614.302C699.638 615.837 698.964 617.31 698.363 618.814C697.936 618.789 697.503 618.771 697.076 618.746C696.766 616.778 695.949 614.735 696.228 612.848C697.509 604.059 698.988 595.294 700.585 586.555C702.721 574.894 705.072 563.271 707.251 551.61C709.783 538.061 712.166 524.488 714.722 510.946C716.418 501.971 718.287 493.034 720.119 484.084C722.211 473.884 724.365 463.702 726.457 453.502C728.314 444.46 730.201 435.423 731.941 426.356C732.758 422.085 733.259 417.752 734.002 412.795C730.028 416.917 727.961 421.943 722.898 424.195C723.133 422.345 723.641 420.668 724.476 419.176C728.017 412.838 732.306 406.828 735.134 400.199C743.385 380.87 748.986 360.792 749.983 339.636C750.044 338.287 750.503 336.573 749.871 335.644C747.606 332.32 745.365 328.786 742.37 326.199C735.401 320.177 727.602 315.318 719.153 311.506C711.578 308.089 703.55 305.539 696.798 300.458C695.857 299.746 695.169 298.694 694.656 298.124C692.285 299.282 689.878 301.163 687.235 301.584C683.026 302.246 683.323 298.378 682.822 294.757C680.068 298.446 677.833 301.442 675.76 304.215C680.402 306.393 684.753 308.584 689.222 310.491C694.724 312.836 697.911 321.539 697.039 326.342C696.29 330.451 694.99 334.481 693.628 338.442C692.211 342.558 689.785 346.414 688.943 350.616C687.557 357.536 687.08 364.648 686.226 371.672C685.409 378.413 684.561 385.153 683.8 391.906C683.639 393.329 683.267 395.081 683.893 396.17C685.688 399.296 685.359 402.359 685.106 405.77C684.19 418.204 683.403 430.663 683.243 443.123C683.113 453.05 683.824 462.997 684.4 472.918C685.081 484.659 686.028 496.382 686.845 508.111C687.482 517.29 688.182 526.463 688.677 535.654C689.209 545.575 689.667 555.503 689.915 565.437C690.237 578.367 690.36 591.302 690.484 604.232C690.583 614.383 690.484 624.533 690.596 634.684C690.639 638.453 690.893 642.228 691.276 645.979C691.982 652.948 692.849 659.905 693.666 666.868C694.266 671.968 694.891 677.062 695.547 682.527C690.713 683.45 685.421 684.514 680.105 685.455C672.77 686.749 665.405 687.906 658.077 689.237C657.285 689.379 656.628 690.27 655.91 690.821C656.56 691.31 657.173 691.861 657.866 692.282C661.598 694.572 665.343 692.622 668.883 691.886C677.672 690.066 686.331 687.634 695.058 685.511C696.482 685.164 697.788 685.109 698.821 686.817C700.492 689.583 702.324 692.325 704.516 694.69C710.389 701.021 716.708 706.951 722.44 713.406C731.823 723.978 742.487 733.584 747.241 747.658C750.317 756.775 754.34 765.57 757.992 774.638C759.892 773.245 761.835 771.815 763.995 770.231C760.864 769.296 758.66 767.57 761.433 764.116C767.214 756.899 773.013 749.695 778.912 742.36C775.136 741.178 773.242 738.746 774.517 734.537C774.616 734.203 774.226 733.751 774.251 733.361C774.604 727.493 774.641 721.57 775.526 715.783C775.898 713.375 776.219 711.351 775.415 708.975C771.726 698.119 770.315 686.823 769.145 675.472C768.062 664.974 766.601 654.514 765.5 644.017C764.354 633.136 763.544 622.218 762.398 611.337C761.229 600.184 759.743 589.062 758.573 577.909C757.639 568.984 756.952 560.027 756.191 551.084C755.912 547.828 755.776 544.56 755.479 541.311C755.417 540.673 754.928 540.067 754.612 539.454C754.117 538.495 753.381 537.597 753.127 536.582C752.279 533.166 751.753 529.662 750.831 526.271C746.578 510.618 742.264 494.99 737.913 479.368C736.081 472.782 734.559 466.172 735.153 459.264C735.233 458.33 735.512 457.414 735.697 456.492L736.812 456.046C737.901 457.637 739.423 459.085 740.005 460.843C742.172 467.397 743.83 474.119 746.046 480.655C751.493 496.704 755.089 513.137 756.81 530.015C760.709 528.808 760.61 528.61 761.185 524.21C762.169 516.677 763.376 509.169 764.62 501.674C765.629 495.621 766.96 489.623 767.907 483.564C769.38 474.181 770.655 464.767 772.017 455.359C772.24 455.223 772.469 455.087 772.691 454.951C773.583 456.597 775.173 458.218 775.241 459.896C775.52 467.125 775.817 474.416 775.217 481.608C774.505 490.156 773.007 498.654 771.621 507.133C770.178 515.978 768.439 524.779 766.898 533.611C766.069 538.346 765.097 543.062 766.434 547.909C766.997 549.951 767.096 552.13 767.313 554.259C767.963 560.64 768.483 567.034 769.219 573.403C770.358 583.25 771.998 593.054 772.772 602.926C773.756 615.447 774.016 628.024 774.709 640.57C775.477 654.539 776.244 668.515 777.284 682.472C777.785 689.193 778.893 695.872 779.729 702.538C781.722 700.65 783.275 698.335 785.448 697.283C794.979 692.653 804.69 688.389 814.352 684.025C814.705 683.864 815.194 684.007 815.621 684.013C815.609 684.446 815.776 685.034 815.559 685.294C814.587 686.439 813.684 687.782 812.44 688.531C807.036 691.787 801.491 694.795 796.069 698.013C792.955 699.864 789.861 701.795 787.001 703.998C786.221 704.599 786.234 706.307 786.067 707.533C786.048 707.687 787.218 708.244 787.793 708.189C795.276 707.458 802.735 706.251 810.224 705.991C817.23 705.75 824.391 704.908 831.206 707.873C833.193 708.739 834.418 709.68 834.053 712.107C829.046 712.107 824.069 711.933 819.112 712.162C814.965 712.348 810.793 712.781 806.708 713.499C799.596 714.756 792.535 716.284 785.46 717.764C783.183 718.24 782.124 719.732 782.174 722.133C782.26 726.361 782.242 730.594 782.174 734.821C782.149 736.313 781.864 737.805 781.666 739.556C785.974 736.839 788.796 731.176 794.868 735.013C794.515 733.862 794.169 732.723 793.692 731.151C795.153 731.362 796.217 731.3 797.09 731.677C801.658 733.677 806.436 735.36 810.657 737.941C822.169 744.978 830.828 754.9 837.859 766.313C840.805 771.091 843.715 775.888 846.673 780.654C847.762 782.412 848.183 784.089 846.766 785.915C845.522 787.518 845.559 789.158 846.45 791.058C850.653 800.008 854.8 808.983 858.81 818.019C865.891 834 872.972 849.981 879.836 866.061C886.991 882.828 890.68 900.511 891.596 918.615C892.202 930.548 891.472 942.562 890.989 954.526C890.89 956.958 890.153 959.143 892.369 960.919V967.109C892.165 967.393 891.744 967.715 891.794 967.957C892.382 971.206 890.63 973.18 888.383 975.198C881.179 981.691 873.3 987.237 864.554 991.315C856.953 994.862 849.006 997.666 841.177 1000.71C834.919 1003.14 828.402 1001.94 822.002 1001.7C816.704 1001.5 811.443 1000.64 807.624 996.279C808.639 994.441 810.261 992.708 810.558 990.771C812.025 981.357 813.071 971.881 814.408 962.442C815.033 958.041 812.192 955.324 809.37 953.35C803.867 949.494 797.826 946.393 792.299 943.15C789.533 950.961 786.884 958.765 784.006 966.484C780.28 976.486 776.56 986.494 772.493 996.353C767.171 1009.28 761.594 1022.1 755.974 1034.89C750.775 1046.73 745.328 1058.45 740.086 1070.27C739.325 1071.98 738.316 1072.43 736.564 1072.37C733.104 1072.24 729.632 1072.33 726.698 1072.33C725.683 1071.49 724.798 1070.51 723.709 1069.9C722.452 1069.19 720.596 1069.19 721.078 1066.97C721.369 1066.81 721.654 1066.64 721.945 1066.47C721.877 1066.36 721.815 1066.25 721.747 1066.14C721.443 1066.32 721.134 1066.5 720.831 1066.68C719.915 1066.73 718.992 1066.79 718.076 1066.82C711.813 1066.99 705.388 1066.35 699.323 1067.53C690.837 1069.17 682.642 1072.27 674.28 1074.58C669.279 1075.97 664.217 1077.12 659.147 1078.24C656.245 1078.89 653.286 1079.26 650.346 1079.76L650.352 1079.74ZM514.533 590.281C514.248 590.095 513.963 589.91 513.679 589.73L514.081 590.888C514.328 592.181 514.477 593.5 514.842 594.756C515.919 598.451 518.729 601.639 517.999 605.903C517.918 606.373 518.921 607.03 519.608 607.816C521.421 599.924 520.376 594.632 514.539 590.287L514.533 590.281ZM338.748 859.438C339.739 859.011 340.71 858.281 341.726 858.213C346.417 857.891 351.121 857.724 355.819 857.544C361.674 857.322 367.548 857.322 373.384 856.894C382.309 856.238 391.203 855.211 400.122 854.493C409.245 853.763 418.393 853.243 427.523 852.581C434.795 852.054 442.061 851.361 449.34 850.909C455.492 850.526 461.651 850.377 467.809 850.111C468.83 850.068 469.852 849.913 470.867 849.919C477.811 849.95 484.749 850.092 491.694 850C493.996 849.969 496.806 851.361 498.861 848.068C492.307 848.879 486.551 847.771 481.228 844.547C476.604 841.743 471.746 839.298 467.295 836.241C457.213 829.321 447.329 822.11 437.339 815.061C436.739 814.64 435.878 814.268 435.185 814.343C425.678 815.327 416.184 816.397 407.605 817.338C406.602 823.361 405.662 829.011 404.708 834.749C401.564 834.427 400.24 833.214 400.295 830.528C400.37 827.124 400.234 823.719 400.327 820.315C400.382 818.446 399.769 817.654 397.832 817.908C393.116 818.539 388.393 819.133 383.665 819.665C380.929 819.975 377.506 818.892 377.153 823.818C376.083 820.569 374.48 820.105 371.688 820.872C369.058 821.596 366.161 821.361 363.264 821.559C362.967 827.359 362.652 833.461 362.336 839.564C361.965 839.589 361.593 839.62 361.222 839.645C360.43 833.622 359.637 827.606 358.957 822.444C355.93 823.032 353.43 823.967 350.966 823.88C347.593 823.763 344.244 822.872 340.506 822.246C340.506 825.223 340.667 828.052 340.475 830.856C339.832 840.146 339.064 849.424 338.34 858.714C338.191 859.079 338.049 859.438 337.9 859.804C338.179 859.68 338.457 859.556 338.736 859.432L338.748 859.438ZM819.854 810.425C818.654 811.093 817.447 811.762 816.84 812.096C816.685 814.862 817.032 817.202 816.358 819.195C814.482 824.772 812.111 830.175 810.1 835.714C809.568 837.188 809.394 838.896 809.506 840.462C809.636 842.238 810.187 844.008 810.694 845.735C815.98 863.752 818.375 882.296 820.479 900.87C821.464 909.578 822.169 918.361 822.293 927.113C822.466 939.337 822.12 951.567 821.711 963.791C821.575 967.907 820.684 972.017 819.947 976.096C819.081 980.88 818.004 985.633 817.119 989.91C821.81 989.91 826.638 990.325 831.354 989.787C835.507 989.31 839.667 988.122 843.591 986.636C857.789 981.264 870.694 973.471 883.073 964.781C884.007 964.125 884.818 962.498 884.763 961.371C884.335 952.997 883.865 944.61 883.029 936.267C882.249 928.518 881.544 920.688 879.817 913.119C877.292 902.077 874.395 891.066 870.719 880.365C866.442 867.905 861.088 855.811 856.335 843.513C852.342 833.189 848.462 822.828 844.686 812.424C842.997 807.776 841.678 802.985 840.211 798.306C837.562 802.738 834.87 807.095 832.326 811.533C829.398 816.626 827.727 817.481 822.107 816.441C821.42 814.466 820.746 812.529 820.071 810.598C820.925 809.36 821.829 808.153 822.627 806.884C828.136 798.102 833.62 789.3 838.98 780.722C829.838 760.346 814.29 746.371 795.549 736.072C789.458 748.71 778.435 757.667 769.349 768.275C769.9 768.516 770.426 768.888 770.989 768.968C777.111 769.872 782.693 771.865 788.152 775.034C800.475 782.195 809.599 792.469 818.016 803.592C819.539 805.603 820.467 807.794 819.854 810.394V810.425ZM343.081 331.324C343.527 331.052 343.972 330.779 344.418 330.513C341.274 334.666 338.563 338.9 335.87 343.133C334.571 345.176 333.518 347.429 331.971 349.255C328.282 353.6 325.361 358.737 319.939 361.386C318.961 361.862 318.082 362.537 316.497 363.54C317.55 363.991 318.54 364.722 319.574 364.784C320.459 364.839 321.387 364.134 322.303 363.762C322.532 363.503 322.761 363.249 322.99 362.989C323.591 364.468 324.847 366.015 324.686 367.408C323.844 374.625 322.891 381.842 321.523 388.978C318.193 406.327 314.48 423.601 311.175 440.95C309.429 450.098 308.086 459.32 306.793 468.549C305.431 478.266 304.274 488.014 303.153 497.756C302.237 505.697 301.711 513.688 300.647 521.61C299.403 530.9 297.762 540.135 296.302 549.314C296.586 549.406 297.323 549.419 297.663 549.796C300.863 553.287 305.072 552.322 309.033 552.495C311.497 552.606 313.954 552.854 316.411 552.805C317.042 552.792 318.193 551.851 318.181 551.356C318.082 547.488 317.834 543.619 317.475 539.763C317.135 536.031 316.529 532.324 316.219 528.592C316.145 527.713 316.708 526.079 317.185 525.998C318.361 525.8 319.753 526.079 320.867 526.592C321.548 526.908 321.963 527.967 322.334 528.771C326.227 537.226 327.094 546.398 328.462 555.429C329.588 562.825 330.411 570.271 331.29 577.698C332.07 584.296 332.726 590.906 333.457 597.504C333.884 601.354 334.175 605.222 334.824 609.035C336.335 617.867 337.622 626.767 339.745 635.457C342.412 646.388 345.786 657.151 348.942 667.958C350.477 673.212 352.402 678.356 353.832 683.635C354.94 687.72 354.884 692.22 356.524 696.027C359.421 702.754 362.819 709.352 366.724 715.548C373.044 725.55 379.821 735.273 386.636 744.947C393.37 754.51 400.029 764.165 407.388 773.239C414.036 781.434 421.284 789.208 428.835 796.585C436.07 803.654 443.745 810.35 451.772 816.503C459.497 822.426 467.933 827.414 476.029 832.849C480.052 835.547 484.025 838.32 487.077 840.412C489.93 839.806 491.911 839.434 493.866 838.958C494.999 838.679 496.608 838.574 497.097 837.813C498.255 836.012 499.715 835.9 501.547 835.844C512.954 835.498 524.386 835.436 535.75 834.514C543.654 833.87 551.434 831.896 559.307 830.738C562.185 830.317 563.082 829.11 562.488 826.35C562.234 825.168 562.507 823.88 562.432 822.649C562.277 819.987 562.637 817.827 566.499 818.576C563.738 814.169 564.623 809.818 565.31 805.399C566.35 798.696 567.192 791.956 567.99 785.222C568.566 780.363 568.585 775.418 569.47 770.621C570.392 765.638 570.906 760.959 568.021 756.41C566.777 754.448 565.799 752.282 564.951 750.109C561.492 741.209 558.094 732.278 554.739 723.334C548.556 706.833 540.095 691.434 532.024 675.831C528.558 669.128 525.073 662.375 522.387 655.35C518.438 645.026 515.195 634.43 511.655 623.97C496.553 634.226 478.925 637.586 461.793 639.957C461.391 641.591 461.502 643.77 460.524 644.506C458.804 645.806 456.446 646.301 454.292 646.945C453.957 647.044 452.899 646.128 452.893 645.67C452.868 643.999 453.14 642.321 453.339 640.335C451.048 640.533 448.808 640.904 446.58 640.854C445.336 640.824 443.875 640.384 442.909 639.623C437.327 635.222 436.274 627.64 438.67 621.624C440.155 617.892 442.315 616.982 446.307 618.183C447.025 618.399 447.886 618.554 448.573 618.362C454.459 616.728 460.314 615.001 466.181 613.306C466.101 612.94 466.014 612.575 465.934 612.21C461.657 612.47 457.38 612.773 453.097 612.984C448.195 613.225 443.287 613.528 438.379 613.466C437.438 613.454 436.51 611.882 435.581 611.028C436.305 610.465 436.992 609.84 437.766 609.357C438.267 609.047 438.899 608.787 439.474 608.769C446.456 608.527 453.437 608.267 460.425 608.181C462.851 608.15 465.835 607.754 467.605 608.942C472.123 611.975 475.044 608.354 478.541 607.172C480.045 606.664 481.432 605.792 482.824 604.999C490.035 600.865 497.233 596.7 504.289 592.627C497.19 570.797 492.796 548.763 488.754 526.685C484.242 526.091 482.639 523.783 483.598 519.537C484.341 516.238 485.796 512.846 485.523 509.615C485.003 503.587 483.481 497.645 482.336 491.678C481.005 484.74 479.501 477.833 478.337 470.863C477.916 468.326 478.09 465.64 478.337 463.052C478.473 461.629 479.699 461.022 480.739 462.433C481.742 463.795 482.682 465.318 483.183 466.921C485.696 474.955 488.061 483.032 490.654 491.697C491.515 488.429 492.257 485.594 493.006 482.759C495.346 473.915 497.524 465.027 500.068 456.244C502.024 449.504 504.587 442.937 506.604 436.215C510.863 421.998 515.071 407.757 519.039 393.453C520.834 386.991 522.337 380.406 523.309 373.777C523.817 370.323 524.461 367.501 528.205 365.706C524.912 362.166 521.743 358.904 518.748 355.487C515.882 352.219 513.221 348.759 510.411 345.436C509.204 344.006 508.09 342.23 506.518 341.431C495.94 336.034 485.084 331.169 474.661 325.5C468.081 321.922 461.96 317.429 455.895 312.985C452.497 310.497 449.854 306.987 446.481 304.444C436.138 296.657 424.261 293.34 411.424 293.061C407.964 292.987 404.504 292.739 401.057 292.399C400.382 292.331 399.782 291.502 398.89 290.821C395.35 292.467 391.352 293.915 387.781 296.075C376.176 303.094 364.929 310.72 353.139 317.392C347.494 320.585 344.727 325.203 342.654 330.767C342.512 331.138 342.369 331.51 342.227 331.875C342.505 331.689 342.784 331.51 343.062 331.324H343.081ZM532.94 426.51C536.728 425.669 538.987 427.043 540.448 429.327C543.227 433.678 546.154 438.041 548.159 442.764C552.374 452.704 556.237 462.805 559.882 472.968C565.948 489.908 571.945 506.886 577.553 523.987C581.737 536.755 585.277 549.735 589.078 562.627C592.804 575.272 596.814 587.836 600.101 600.593C602.682 610.626 604.699 620.838 606.34 631.075C608.178 642.557 609.459 654.137 610.678 665.705C611.26 671.232 611.198 676.833 611.341 682.404C611.588 692.022 612.102 701.646 611.898 711.252C611.588 725.717 610.833 740.169 610.103 754.621C609.657 763.373 608.902 772.1 608.265 780.839C607.442 792.191 606.631 803.542 605.764 814.893C605.418 819.443 605.04 823.992 604.495 828.516C603.561 836.241 602.441 843.94 601.469 851.658C600.559 858.906 599.828 866.179 598.888 873.426C597.978 880.433 596.876 887.408 595.892 894.408C595.174 899.533 594.561 904.67 593.8 909.783C592.903 915.768 591.85 921.728 590.947 927.713C589.839 935.029 588.929 942.376 587.722 949.673C586.224 958.722 584.349 967.709 582.938 976.776C581.297 987.305 579.991 997.888 578.655 1007.58C597.483 1009.13 616.088 1010.66 634.885 1012.21C634.885 1011.97 634.91 1011.16 634.885 1010.36C634.687 1004.54 634.155 998.699 634.334 992.887C634.761 978.899 635.448 964.911 636.166 950.936C636.451 945.378 637.089 939.838 637.565 934.293C638.326 925.392 639.211 916.498 639.799 907.592C640.226 901.124 640.462 894.631 640.418 888.151C640.313 871.477 640.474 854.821 642.331 838.227C642.801 833.994 643.488 829.785 643.99 825.551C644.516 821.12 645.345 816.67 645.314 812.232C645.271 805.585 644.516 798.943 644.206 792.29C643.73 782.065 643.148 771.84 643.012 761.609C642.807 746.346 642.925 731.077 642.956 715.814C642.956 714.093 643.457 712.379 643.433 710.658C643.371 705.583 644.299 700.477 642.195 695.494C639.713 689.62 637.435 683.642 635.374 677.607C626.121 650.541 616.93 623.45 607.819 596.334C604.922 587.706 602.44 578.942 599.606 570.296C595.378 557.378 591.039 544.498 586.688 531.618C584.46 525.02 581.471 518.602 579.954 511.849C578.054 503.358 577.324 494.606 576.061 485.972C574.217 473.376 572.149 460.812 570.559 448.179C569.24 437.695 568.201 427.154 567.551 416.607C566.95 406.859 567.043 397.067 566.771 387.294C566.74 386.1 566.369 384.905 566.096 383.723C565.675 381.897 565.205 380.078 564.679 377.924C563.187 378.122 561.021 378.413 559.053 378.679C558.521 380.783 557.883 382.721 557.549 384.707C555.432 397.377 553.433 410.059 551.242 422.716C551.013 424.022 549.793 425.161 549.038 426.374C548.785 426.219 548.525 426.065 548.271 425.91C547.788 409.768 549.868 393.967 554.714 378.592C546.606 378.499 538.188 379.372 532.698 371.691C532.581 373.306 532.519 374.885 532.346 376.457C531.894 380.598 531.12 384.72 530.959 388.867C530.588 398.695 530.322 408.53 530.34 418.365C530.359 430.911 530.718 443.457 530.885 456.003C530.904 457.587 530.217 459.252 530.526 460.744C533.454 474.806 536.585 488.825 539.544 502.881C542.28 515.885 544.78 528.932 547.572 541.924C549.682 551.777 552.127 561.556 554.293 571.397C554.522 572.431 553.885 573.65 553.65 574.783C552.325 573.149 551.762 571.738 551.341 570.289C545.282 549.338 538.931 528.462 533.305 507.393C529.684 493.82 527.054 479.974 524.213 466.197C523.885 464.618 525.024 462.724 525.544 460.998C525.822 460.069 526.62 459.122 526.497 458.28C525.154 449.126 523.681 439.985 522.306 431.258C521.372 434.872 520.301 439.013 519.231 443.154C515.486 457.692 511.915 472.281 507.935 486.758C505.15 496.89 501.826 506.867 498.725 516.912C498.174 518.695 496.875 520.539 497.091 522.198C497.76 527.218 498.886 532.188 500.05 537.127C502.624 548.07 505.304 558.994 507.984 569.912C509.179 574.789 510.472 579.642 511.679 584.333C518.828 585.249 524.9 587.583 527.661 594.428C530.402 601.236 529.808 607.481 523.693 612.798C521.341 614.847 519.348 618.096 521.409 621.822C521.694 622.336 521.731 622.986 521.935 623.555C524.714 631.341 527.345 639.196 530.334 646.901C533.491 655.028 536.27 663.421 540.497 670.984C549.645 687.368 557.376 704.345 564.258 721.756C569.532 735.1 574.824 748.432 580.128 761.838C579.732 762.321 578.741 762.977 578.648 763.744C578.098 768.3 577.491 772.874 577.392 777.448C577.175 787.344 576.526 797.229 573.425 806.618C572.113 810.592 572.261 815.816 567.78 817.66C574.297 823.503 573.177 831.4 573.833 839.273C579.379 840.01 585.024 840.765 590.805 841.532C591.095 840.121 591.442 838.97 591.559 837.794C592.414 829.005 593.28 820.21 594.023 811.409C594.92 800.775 595.688 790.136 596.53 779.496C597.136 771.803 597.885 764.122 598.349 756.422C599.061 744.613 600.095 732.798 600.082 720.982C600.07 699.177 599.42 677.372 598.981 655.567C598.919 652.416 598.795 649.235 598.3 646.134C596.573 635.414 594.964 624.657 592.742 614.03C590.13 601.54 587.19 589.105 583.909 576.776C580.14 562.633 575.981 548.596 571.716 534.595C568.776 524.946 565.496 515.39 562.123 505.883C558.174 494.761 553.99 483.719 549.862 472.658C544.898 459.345 539.872 446.056 534.908 432.737C534.19 430.812 533.676 428.807 532.971 426.523L532.94 426.51ZM318.614 563.852C314.449 566.019 310.896 567.64 307.585 569.646C301.903 573.087 297.242 578.237 290.515 579.926C287.457 580.694 285.464 582.192 284.802 585.565C284.331 587.966 283.013 590.194 282.103 592.516C277.22 604.981 272.182 617.391 267.509 629.936C261.901 644.977 259.19 660.586 259.859 676.66C260.168 684.075 261.004 691.471 261.666 698.874C262.848 712.181 265.875 725.16 269.972 737.786C276.019 756.435 282.951 774.792 289.345 793.336C290.484 796.635 291.616 799.377 295.676 799.383C296.054 799.383 296.432 799.649 296.809 799.791C306.304 803.288 315.773 806.835 325.293 810.27C330.727 812.232 336.223 814.033 341.713 815.853C343.421 816.422 345.39 817.555 346.906 817.153C354.649 815.11 362.51 814.219 370.463 813.519C381.047 812.585 391.581 811.075 402.152 809.93C404.603 809.663 407.11 809.954 409.586 809.88C414.909 809.719 420.232 809.484 425.548 809.273C426.607 809.23 427.671 809.162 429.633 809.063C426.105 806.067 423.134 803.79 420.46 801.209C415.026 795.966 409.641 790.662 404.449 785.191C400.438 780.963 396.65 776.501 392.924 772.013C387.261 765.193 381.659 758.316 376.169 751.359C372.165 746.278 368.228 741.128 364.546 735.812C361.996 732.129 360.102 727.995 357.62 724.256C351.059 714.359 345.303 704.06 342.177 692.536C340.55 686.532 339.813 680.281 338.049 674.32C335.165 664.56 331.036 655.109 328.783 645.224C325.757 631.942 323.708 618.412 321.833 604.907C320.62 596.142 320.484 587.23 319.828 578.391C319.493 573.848 319.072 569.318 318.608 563.865L318.614 563.852ZM228.664 622.695C236.215 627.386 243.766 632.078 250.729 636.411C259.252 616.716 267.67 597.275 276.106 577.791C271.482 576.993 266.556 576.336 261.753 575.179C260.54 574.888 259.011 573.044 258.893 571.787C258.714 569.912 259.648 567.938 260.112 566C261.48 560.256 262.619 554.445 264.315 548.794C265.008 546.473 266.407 543.706 268.332 542.536C274.695 538.668 281.948 537.684 290.118 537.48C289.19 480.927 300.102 426.133 318.602 371.976C311.057 376.036 303.648 376.89 296.283 377.788C294.971 377.949 293.541 377.101 292.316 376.76C285.142 380.034 277.703 383.259 270.455 386.867C268.641 387.771 266.772 389.653 266.06 391.516C256.634 416.316 246.972 441.043 238.313 466.116C233.442 480.222 230.014 494.853 226.479 509.38C222.71 524.847 219.597 540.469 216.162 556.017C212.9 570.772 209.595 585.521 206.451 599.627C208.146 601.082 209.452 601.979 210.492 603.124C215.079 608.162 219.591 613.262 224.115 618.356C225.235 619.613 226.417 619.866 227.773 618.765C230.143 616.833 232.434 614.803 234.897 613.008C236.042 612.173 237.565 611.876 238.827 611.17C239.718 610.675 240.969 610.05 241.185 609.252C242.207 605.451 242.931 601.571 243.742 597.715C244.521 594.013 246.911 592.534 249.826 594.793C254.208 598.191 258.002 602.332 262.05 606.163C261.759 606.584 261.474 607.011 261.183 607.432C258.707 606.138 256.071 605.08 253.805 603.489C251.373 601.775 249.287 599.565 247.059 597.578C246.774 601.447 246.514 605.303 246.192 609.159C245.97 611.808 245.363 614.123 242.008 614.432C241.111 614.513 239.948 615.169 239.477 615.917C237.057 619.817 233.151 620.937 228.677 622.707L228.664 622.695ZM779.945 864.371C782.706 860.85 785.67 857.6 788.01 853.955C792.281 847.289 796.31 840.456 800.197 833.554C803.768 827.223 807.111 820.761 810.366 814.262C811.864 811.279 811.146 809.577 808.472 808.042C807.785 807.652 807.073 807.225 806.541 806.655C802.778 802.614 799.232 798.355 795.276 794.512C790.845 790.21 786.426 785.723 781.313 782.362C777.34 779.744 772.345 778.648 767.74 777.07C766.904 776.785 765.568 777.182 764.769 777.72C761.643 779.818 758.642 782.102 756.054 783.99C764.026 810.802 771.943 837.435 779.945 864.365V864.371ZM534.314 928.567C536.171 927.93 538.306 926.828 540.559 926.513C544.799 925.925 546.761 923.87 547.126 919.519C547.386 916.368 548.475 913.243 549.546 910.228C549.905 909.207 551.359 907.883 552.282 907.907C554.262 907.951 553.792 909.863 553.773 911.212C553.773 911.701 553.557 912.19 553.427 912.673C552.492 916.09 551.558 919.5 550.512 923.331C555.055 922.038 559.096 920.936 563.088 919.68C563.621 919.512 564.079 918.627 564.295 917.984C566.703 910.909 568.832 903.736 571.531 896.779C572.719 893.715 573.654 890.942 573.053 887.588C572.335 883.595 572.113 879.504 571.76 875.45C571.556 873.086 571.506 870.709 571.37 867.955C556.54 881.553 539.371 888.033 519.138 886.164C519.138 886.709 519.07 887.204 519.15 887.68C520.091 893.282 520.957 898.896 522.041 904.472C522.87 908.737 522.344 911.039 519.305 912.531C517.683 907.944 516.08 903.42 514.539 899.05C511.382 899.62 508.523 900.133 505.41 900.69C505.874 903.859 506.307 907.053 506.845 910.222C506.907 910.581 507.532 910.878 507.941 911.138C513.369 914.579 518.841 917.946 524.219 921.456C527.531 923.622 530.706 926.005 534.326 928.567H534.314ZM541.537 309.773C546.334 307.78 550.771 305.595 555.432 304.103C560.291 302.55 565.323 301.268 570.373 300.711C572.211 300.507 573.784 300.458 574.805 299.083C576.278 297.109 577.794 295.036 576.693 292.226C573.239 283.449 571.067 274.4 571.128 264.9C571.147 262.195 571.128 259.49 571.128 255.999C569.16 259.001 567.743 261.316 566.171 263.519C562.624 268.471 559.492 273.918 552.536 274.852C550.611 275.112 548.822 275.712 547.262 273.918C546.878 273.472 546.012 273.404 545.343 273.249C538.665 271.727 532.352 269.412 526.837 265.184C523.235 262.424 519.503 259.824 515.932 257.225C514.947 259.156 514.124 261.081 513.035 262.845C509.154 269.139 508.876 269.375 514.106 274.4C517.992 278.139 522.647 281.072 526.918 284.421C535.131 290.864 540.392 299.046 541.537 309.76V309.773ZM506.92 847.858C508.275 849.771 510.262 851.565 510.974 853.769C512.905 859.748 514.458 865.869 515.808 872.009C516.315 874.33 517.392 874.955 519.441 874.868C524.535 874.664 529.659 874.782 534.71 874.225C546.816 872.9 558.236 869.36 568.325 862.892C566.591 853.936 564.883 845.091 563.187 836.29C545.195 843.235 526.088 846.781 506.926 847.852L506.92 847.858ZM213.203 541.373C213.711 537.82 214.008 534.583 214.67 531.42C216.217 523.956 217.833 516.498 219.622 509.083C221.992 499.26 224.14 489.363 227.123 479.727C231.864 464.414 237.193 449.287 242.324 434.105C243.401 430.911 244.707 427.798 245.982 424.449C241.185 423.799 239.483 426.733 238.221 429.661C234.03 439.378 230.193 449.25 226.009 458.974C217.864 477.895 209.886 496.865 205.132 516.993C203.839 522.47 202.743 527.991 201.679 533.512C201.536 534.255 201.87 535.592 202.409 535.889C205.893 537.808 209.496 539.516 213.209 541.373H213.203ZM668.852 360.637C668.667 360.525 668.481 360.408 668.302 360.296C667.689 361.008 666.797 361.615 666.5 362.438C665.151 366.176 663.641 369.902 662.799 373.764C661.109 381.514 659.673 389.325 658.417 397.154C657.198 404.742 655.855 412.361 655.44 420.018C654.92 429.512 655.718 439.087 655.13 448.575C654.771 454.431 655.886 460.614 652.729 466.166C652.271 466.97 652.017 468.251 652.327 469.062C653.769 472.881 655.155 476.774 657.117 480.333C658.689 483.18 662.013 483.056 664.13 480.488C665.102 479.312 665.937 478.024 666.859 476.805C671.235 471.03 670.406 458.633 662.428 455.08C661.747 454.777 661.153 453.688 661.004 452.877C660.614 450.779 660.323 448.637 660.292 446.508C660.193 440.238 660.156 433.962 660.255 427.693C660.373 420.234 660.231 412.733 660.992 405.33C661.852 396.931 663.505 388.613 664.978 380.282C666.141 373.709 667.553 367.185 668.859 360.643L668.852 360.637ZM279.225 572.759C280.061 570.939 280.766 569.076 281.726 567.356C283.415 564.335 285.941 561.6 286.869 558.387C288.255 553.572 288.559 548.441 289.388 543.031C284.963 544.207 281.224 545.383 277.412 546.151C273.822 546.875 270.771 547.785 270.845 552.334C270.857 553.182 270.282 554.055 269.929 554.903C268.128 559.217 266.308 563.531 264.464 567.925C269.205 569.479 273.915 571.02 279.231 572.753L279.225 572.759ZM591.108 443.896C590.811 443.933 590.507 443.971 590.21 444.008C591.374 453.533 592.507 463.065 593.72 472.59C594.029 475.023 595.558 477.635 592.191 479.225C591.85 479.386 591.621 480.104 591.597 480.581C591.312 486.015 591.615 491.344 594.66 496.122C596.084 498.357 599.94 499.953 601.45 498.765C604.879 496.054 607.386 492.099 606.798 488.076C605.739 480.853 603.016 474.001 598.139 468.22C596.882 466.735 595.799 464.866 595.335 462.997C593.763 456.671 592.5 450.265 591.114 443.896H591.108ZM496.583 623.165C500.006 621.253 503.671 619.427 507.093 617.23C510.336 615.144 514.099 613.739 514.465 608.595C514.669 605.693 514.459 603.52 512.732 601.379C511.847 600.277 510.955 599.181 509.984 597.981C504.457 601.682 498.805 605.47 493.643 608.924C494.609 613.609 495.55 618.146 496.59 623.171L496.583 623.165ZM445.503 635.872C446.697 635.476 447.818 634.962 448.994 634.739C454.743 633.669 460.475 632.412 466.274 631.768C468.991 631.471 469.313 630.314 468.985 628.253C468.638 626.08 468.267 623.896 467.673 621.785C467.549 621.333 466.367 620.82 465.767 620.919C462.109 621.507 458.488 622.317 454.836 622.955C448.597 624.044 446.388 625.876 445.2 631.651C444.896 633.136 445.41 634.795 445.509 635.872H445.503ZM490.939 625.511C489.095 621.042 487.448 617.063 485.734 612.922C481.036 614.902 476.338 616.877 472.389 618.542C473.008 622.472 473.609 626.235 474.221 630.128C479.297 628.729 485.016 627.145 490.939 625.511ZM611.378 335.483C611.681 335.137 611.978 334.784 612.281 334.437C611.563 333.595 610.988 332.556 610.115 331.937C600.961 325.463 591.758 319.05 582.282 312.422C582.232 312.911 581.842 313.858 582.151 314.272C583.649 316.259 585.024 318.574 587.017 319.911C595.019 325.277 603.239 330.321 611.372 335.483H611.378ZM589.3 372.223C587.994 372.904 586.695 373.579 585.834 374.031C586.806 386.843 587.747 399.277 588.688 411.718C588.892 411.718 589.096 411.718 589.3 411.712V372.23V372.223ZM223.273 437.831C216.261 437.849 213.643 443.593 209.347 447.641C212.498 447.783 222.246 440.814 223.273 437.831ZM226.671 630.135C224.536 635.185 225.34 636.182 233.331 639.388V633.947C231.016 632.623 228.961 631.447 226.671 630.135ZM637.627 365.143H618.514C622.11 367.253 628.331 367.501 637.627 365.143Z" fill="black"/>
<path d="M875.027 763.645C875.027 754.85 874.872 746.049 875.064 737.26C875.33 725.067 876.537 712.855 876.06 700.706C875.627 689.713 873.615 678.771 872.031 667.846C870.762 659.088 869.549 650.268 867.358 641.727C866.553 638.602 863.199 635.965 860.642 633.489C854.558 627.603 848.103 622.076 844.662 614.061C844.81 613.77 844.958 613.473 845.107 613.182C847.31 614.141 849.811 614.698 851.655 616.122C857.746 620.838 863.991 625.461 869.382 630.914C872.73 634.3 876.636 637.822 877.478 643.107C878.288 648.189 879.025 653.283 879.978 658.339C881.532 666.54 883.426 674.679 884.8 682.905C885.629 687.857 886.068 692.932 886.099 697.951C886.149 706.79 886.074 715.653 885.456 724.467C884.849 733.138 883.481 741.754 882.479 750.394C881.878 755.568 881.315 760.749 880.801 765.935C880.523 768.739 879.613 770.485 876.277 769.748C875.689 769.618 874.68 770.596 874.123 771.277C868.788 777.776 863.576 784.374 858.142 790.786C857.35 791.72 855.115 792.599 854.348 792.147C852.813 791.244 852.256 789.455 853.351 787.431C857.864 779.094 863.675 771.741 870.218 764.951C871.096 764.042 872.637 763.763 873.869 763.194C874.253 763.348 874.643 763.497 875.027 763.652V763.645Z" fill="black"/>
<path d="M723.034 622.837C727.558 620.801 727.75 620.962 730.226 624.279C736.614 632.833 740.47 642.668 744.295 652.46C748.485 663.186 751.982 674.184 755.918 685.016C760.244 696.924 764.72 708.783 769.151 720.654C769.504 721.595 770.024 722.48 770.426 723.402C771.027 724.795 772.023 726.28 769.943 727.314C768.136 728.211 766.607 727.865 765.636 726.014C761.495 718.172 757.212 710.392 753.312 702.433C750.676 697.054 748.51 691.446 746.269 685.882C741.082 673.014 735.877 660.147 730.888 647.205C728.295 640.477 726.117 633.588 723.814 626.749C723.406 625.542 723.306 624.23 723.034 622.831V622.837Z" fill="black"/>
<path d="M839.413 506C830.909 503.135 826.229 499.303 823.729 486.473C829.114 489.877 834.467 493.003 839.512 496.568C841.449 497.935 842.471 500.337 840.985 502.924C840.44 503.871 839.982 504.868 839.407 506H839.413Z" fill="black"/>
<path d="M496.974 169.942C493.39 167.999 490.017 166.16 486.644 164.335C483.072 162.403 481.698 159.699 483.363 156.097C484.91 152.736 487.25 149.746 489.435 146.293C487.72 145.841 485.554 145.129 483.326 144.727C482.156 144.516 480.479 144.782 480.912 143.161C481.228 141.991 482.639 140.574 483.815 140.289C487.578 139.373 490.691 141.403 493.947 143.037C500.978 146.571 504.723 152.507 506.926 159.693C507.186 160.534 506.963 161.518 506.963 163.004C502.507 157.978 498.552 153.522 494.473 148.923C492.412 151.572 490.865 153.559 488.983 155.979C491.391 158.015 493.613 159.983 495.934 161.834C499.647 164.805 500 167.095 496.986 169.936L496.974 169.942Z" fill="black"/>
<path d="M576.266 194.613C570.565 192.67 565.261 191.079 560.136 189.036C556.385 187.545 553.476 184.846 552.48 180.712C552.269 179.851 552.641 178.682 553.136 177.902C553.321 177.611 554.764 177.821 555.414 178.186C561.634 181.671 567.811 185.248 574.006 188.783C575.876 189.847 576.909 191.277 576.266 194.613Z" fill="black"/>
<path d="M565.323 247.402C564.326 247.173 563.243 247.124 562.352 246.684C559.913 245.465 557.642 243.893 555.147 242.816C552.709 241.764 552.61 239.183 551.26 237.443C550.858 236.93 552.108 235.122 552.604 233.909C553.377 234.231 554.337 234.355 554.887 234.9C558.112 238.075 561.262 241.324 564.388 244.598C564.964 245.205 565.31 246.028 565.762 246.752C565.613 246.969 565.471 247.192 565.323 247.408V247.402Z" fill="black"/>
<path d="M493.248 469.044C492.845 469.409 492.078 470.609 491.428 470.554C490.481 470.473 489.094 469.662 488.803 468.839C486.421 462.08 483.951 455.322 482.082 448.414C479.154 437.595 476.462 426.702 474.073 415.747C472.618 409.075 472.012 402.217 470.829 395.477C470.124 391.46 468.917 387.536 468.168 383.531C466.714 375.708 465.445 367.847 464.052 360.012C462.982 353.971 461.929 347.918 460.697 341.914C459.893 337.99 460.685 336.387 464.609 335.155C467.203 334.344 470.786 336.04 471.436 338.776C473.819 348.821 476.288 358.86 478.22 369.005C479.977 378.239 481.178 387.585 482.447 396.913C483.295 403.139 483.672 409.434 484.526 415.66C485.74 424.561 487.12 433.436 488.574 442.305C489.998 450.983 491.601 459.636 493.26 469.056L493.248 469.044Z" fill="black"/>
<path d="M360.071 352.448C361.81 351.953 363.512 351.198 365.282 351.006C377.915 349.632 390.114 351.928 401.447 357.233C415.825 363.967 428.284 373.535 438.502 385.84C448.133 397.433 456.514 409.867 463.755 423.075C463.99 423.502 464.12 423.991 464.331 424.523C462.276 425.551 461.168 424.585 460.054 423.057C456.526 418.198 453.078 413.265 449.266 408.642C443.615 401.784 438.15 394.666 431.731 388.576C424.843 382.046 416.97 376.562 409.48 370.67C401.434 364.332 392.187 360.327 382.371 357.889C376.083 356.323 369.509 355.896 363.072 354.905C362.057 354.751 361.092 354.305 360.102 353.996C360.089 353.482 360.083 352.968 360.071 352.448Z" fill="black"/>
<path d="M338.581 396.226C336.372 404.519 334.534 412.931 331.835 421.057C329.861 427.005 326.859 432.619 324.117 438.289C322.965 440.672 318.955 441.575 316.925 440.108C316.461 439.774 316.163 438.617 316.362 438.035C320.775 425.111 325.293 412.219 329.718 399.302C330.325 397.538 330.628 395.669 330.993 393.83C331.47 391.398 333.135 390.179 335.245 391.008C336.409 391.466 336.997 393.453 337.764 394.796C337.944 395.105 337.789 395.607 337.789 396.015C338.055 396.083 338.315 396.151 338.581 396.226Z" fill="black"/>
<path d="M426.569 628.661C429.33 628.191 432.003 629.72 432.455 632.319C433.359 637.475 434.547 642.47 438.725 646.351C432.579 647.229 425.071 635.909 426.563 628.661H426.569Z" fill="black"/>
<path d="M354.036 322.956C351.022 325.524 348.002 328.093 344.987 330.662C344.826 330.47 344.665 330.278 344.504 330.086C347.5 327.499 350.496 324.906 353.491 322.318C353.677 322.529 353.857 322.745 354.042 322.956H354.036Z" fill="black"/>
<path d="M355.924 321.223C356.469 320.424 356.896 319.508 357.576 318.865C358.616 317.874 359.836 317.07 361.445 316.735L355.868 321.124L355.918 321.223H355.924Z" fill="black"/>
<path d="M363.673 313.938C364.781 313.133 365.895 312.335 367.003 311.53C367.139 311.716 367.275 311.902 367.405 312.087C366.291 312.886 365.183 313.684 364.069 314.483C363.939 314.303 363.803 314.117 363.673 313.938Z" fill="black"/>
<path d="M363.821 315.009C363.079 315.43 362.336 315.857 361.593 316.278C361.482 316.092 361.37 315.912 361.253 315.727C361.996 315.281 362.738 314.835 363.481 314.39L363.815 315.003L363.821 315.009Z" fill="black"/>
<path d="M355.868 321.124C355.305 321.576 354.742 322.021 354.185 322.473C354.061 322.232 353.931 321.99 353.807 321.749C354.507 321.569 355.212 321.384 355.918 321.21C355.918 321.217 355.868 321.124 355.868 321.124Z" fill="black"/>
<path d="M664.043 215.935C665.646 214.735 666.779 213.695 668.097 212.989C668.791 212.618 669.818 212.723 670.666 212.828C671.712 212.952 672.838 213.107 673.748 213.59C675.611 214.58 677.449 215.663 679.121 216.944C683.373 220.212 687.748 223.381 691.648 227.039C694.458 229.676 696.81 232.925 697.633 237.611C696.135 237.239 694.619 237.332 694.018 236.639C689.24 231.075 682.333 229.317 676.143 226.259C673.563 224.984 670.938 223.629 668.716 221.834C666.983 220.429 665.851 218.287 664.037 215.935H664.043Z" fill="black"/>
<path d="M600.491 200.27C602.96 195.74 607.002 195.641 610.394 195.455C619.232 194.966 627.823 196.749 636.179 199.627C635.584 201.719 635.102 203.415 634.737 204.677C632.478 205.284 630.515 206.348 628.646 206.2C625.378 205.946 622.16 204.993 618.941 204.262C615.036 203.371 611.155 202.356 607.243 201.483C605.114 201.007 602.948 200.71 600.484 200.27H600.491Z" fill="black"/>
<path d="M687.173 260.233C685.947 260.654 684.716 261.471 683.502 261.44C676.05 261.229 668.945 259.465 662.447 255.77C660.515 254.675 658.788 253.016 657.371 251.283C656.573 250.305 654.852 249.061 656.814 247.173C658.498 245.558 659.785 246.047 661.4 246.932C666.414 249.68 671.372 252.564 676.515 255.04C679.901 256.668 683.583 257.695 687.13 258.989C687.142 259.403 687.154 259.812 687.167 260.226L687.173 260.233Z" fill="black"/>
<path d="M624.58 233.278C623.676 235.612 621.98 236.639 618.78 236.082C615.054 235.432 611.316 234.665 607.707 233.544C605.751 232.938 603.895 231.694 602.292 230.369C600.831 229.162 600.175 227.417 601.37 225.48C602.651 223.412 604.136 224.539 605.591 225.158C611.922 227.856 618.248 230.567 624.58 233.278Z" fill="black"/>
<path d="M632.137 271.85C628.491 270.872 624.784 270.049 621.231 268.799C620.371 268.496 619.412 266.694 619.548 265.735C619.826 263.773 620.761 261.489 623.342 261.984C626.529 262.597 629.624 263.748 632.738 264.732C633.394 264.943 634.062 265.32 634.557 265.797C635.529 266.732 637.324 268.217 637.101 268.712C636.451 270.142 635.498 272.023 633.177 271.417C632.886 271.343 632.564 271.405 632.255 271.405C632.217 271.553 632.174 271.695 632.137 271.844V271.85Z" fill="black"/>
<path d="M602.422 275.39C606.296 279.432 611.105 279.766 615.364 281.326C621.312 283.505 627.21 285.826 633.102 288.171C633.598 288.369 633.833 289.205 634.186 289.75C633.573 290.022 632.911 290.604 632.354 290.517C630.262 290.202 628.194 289.719 626.139 289.199C618.57 287.28 612.021 283.195 605.399 279.29C604.334 278.658 603.338 277.86 602.465 276.987C602.193 276.715 602.422 275.941 602.422 275.397V275.39Z" fill="black"/>
<path d="M281.627 445.542C284.338 435.15 287.042 424.752 289.741 414.416C288.565 414.657 286.628 414.998 284.721 415.475C284.22 415.598 283.62 416.081 283.422 416.545C279.993 424.771 276.632 433.021 273.221 441.259C272.807 442.262 272.219 443.197 271.216 443.958C273.686 434.754 276.161 425.551 278.643 416.316H273.568C268.982 428.553 264.476 440.566 259.685 453.36C259.209 452.041 258.515 451.138 258.707 450.506C262.316 438.623 266.029 426.77 269.718 414.911C270.319 412.98 271.538 412.417 273.605 412.454C281.286 412.603 288.973 412.516 296.543 412.516C293.95 423.391 285.359 443.878 282.468 445.877C282.19 445.765 281.905 445.654 281.627 445.542Z" fill="black"/>
</svg>
