<svg width="1080" height="1080" viewBox="0 0 1080 1080" fill="none" xmlns="http://www.w3.org/2000/svg">
<path d="M476.094 559.276C471.155 556.782 466.21 555.117 462.379 552.053C460.021 550.159 458.888 546.26 458.077 543.035C457.192 539.532 457.322 535.769 457.025 532.328C449.647 530.248 442.047 528.571 434.811 525.916C429.649 524.022 424.624 521.069 423.082 515.035C422.16 511.433 422.098 507.973 425.162 504.853C430.677 499.246 435.907 493.459 439.1 485.963C441.991 479.167 447.574 474.16 452.562 468.825C453.311 468.02 453.899 467.073 454.63 466.25C458.758 461.608 463.035 457.096 467.002 452.33C470.753 447.818 474.108 442.978 477.796 438.41C479.839 435.885 482.315 433.725 484.419 431.249C490.101 424.559 496.587 419.081 505.184 416.481C505.865 416.277 506.627 415.318 506.788 414.588C507.685 410.49 510.272 407.476 513.608 405.495C514.976 404.685 518.058 405.136 519.395 406.219C523.455 409.506 527.578 410.162 532.672 409.32C538.595 408.342 544.549 408.745 548.838 414.197C549.537 415.089 551.054 415.739 552.217 415.782C556.736 415.961 561.26 415.856 566.824 415.856C564.943 414.34 563.327 413.108 561.786 411.784C557.144 407.816 553.573 403.094 551.37 397.331C549.859 393.376 547.322 390.851 542.544 391.786C540.359 392.213 538.087 392.231 535.853 392.367C532.195 392.59 529.793 389.601 529.756 384.68C529.713 378.807 529.645 372.927 529.793 367.053C529.855 364.664 528.983 363.141 527.268 361.526C520.454 355.126 512.754 349.574 507.611 341.528C502.684 333.822 497.367 326.333 492.936 318.349C487.842 309.17 485.744 299.236 488.906 288.807C490.887 282.283 495.232 277.412 500.493 273.303C507.543 267.794 515.329 263.728 524.074 261.654C528.388 260.633 532.851 260.082 537.016 258.646C545.056 255.867 551.314 250.173 557.992 245.116C569.498 236.402 581.208 227.823 595.413 223.893C602.63 221.9 610.008 221.999 617.522 222.661C626.137 223.422 634.301 225.49 642.007 229.123C647.812 231.858 653.383 235.207 658.755 238.741C666.207 243.649 672.18 250.167 676.698 257.842C681.495 265.993 684.323 274.924 685.735 284.264C686.688 290.577 687.82 296.903 688.105 303.259C688.631 314.932 685.481 325.59 677.243 334.237C674.389 337.233 673.065 340.668 672.749 344.604C672.143 352.118 671.598 359.638 674.513 366.88C674.959 367.981 675.361 369.102 675.832 370.191C676.562 371.881 678.444 373.348 676.581 375.508C676.352 375.774 677.156 377.117 677.676 377.822C680.214 381.245 682.751 384.68 685.437 387.986C686.44 389.217 687.882 390.084 689.089 391.161C691.386 393.209 693.651 395.289 696.312 397.703C701.35 395.481 707.608 396.657 713.005 398.433C718.297 400.172 722.914 404.356 727.414 407.977C731.196 411.016 734.532 414.655 737.8 418.27C749.095 430.766 759.314 444.012 765.293 459.999C767.428 465.705 769.013 471.61 771.185 477.298C772.652 481.142 774.583 484.831 776.514 488.476C781.237 497.389 784.195 506.927 786.931 516.576C790.125 527.847 793.875 538.975 796.679 550.339C798.511 557.76 799.186 565.484 800.207 573.091C801.136 580.005 802.151 586.924 802.541 593.881C802.869 599.693 802.336 605.554 802.206 611.397C802.151 613.805 802.107 616.219 802.101 618.626C802.089 626.691 802.318 634.768 802.039 642.827C801.618 654.778 800.937 666.724 800.182 678.657C799.78 685.057 798.988 691.432 798.381 697.819C797.546 706.614 797.509 715.577 795.689 724.161C793.411 734.888 789.493 745.255 786.628 755.869C785.031 761.793 784.356 767.963 782.84 773.911C781.348 779.76 780.017 785.82 777.337 791.143C774.243 797.289 768.975 801.85 762.359 804.474C761.994 804.617 761.561 804.66 761.158 804.654C752.308 804.586 743.463 804.524 734.612 804.406C732.062 804.376 729.512 804.017 726.974 804.072C720.476 804.221 714.459 802.203 708.375 800.34C703.015 798.7 697.494 797.549 692.178 795.785C685.995 793.73 680.003 791.118 673.839 788.983C665.415 786.067 656.892 783.425 648.444 780.571C640.026 777.73 631.732 774.506 623.228 771.968C617.398 770.229 611.332 769.208 605.31 768.193C596.83 766.757 588.271 765.797 579.804 764.318C571.875 762.931 564.027 761.087 556.135 759.515C549.284 758.153 543.503 754.495 537.784 750.838C528.686 745.013 519.791 738.873 510.767 732.932C501.279 726.68 491.834 720.349 482.203 714.326C471.032 707.339 459.965 700.091 448.317 693.982C435.721 687.372 422.538 681.894 409.565 676.008C397.291 670.444 384.869 665.22 372.701 659.439C363.627 655.125 359.233 647.549 359.524 637.417C359.592 635.01 358.861 631.68 360.136 630.38C363.145 627.31 366.852 624.556 370.788 622.841C379.992 618.824 389.951 619.363 399.711 619.685C405.257 619.864 410.809 620.854 416.293 621.851C418.657 622.278 419.635 621.795 420.204 619.53C420.668 617.679 421.219 615.643 422.383 614.226C423.788 612.511 425.917 611.41 427.681 609.967C439.794 600.052 450.631 588.855 460.763 576.947C464.898 572.088 469.224 567.397 473.445 562.606C474.436 561.48 475.327 560.273 476.113 559.289L476.094 559.276ZM615.541 411.864C614.854 410.069 614.167 408.875 613.956 407.606C613.331 403.843 611.233 401.683 608.986 403.05C605.57 405.13 602.16 407.377 599.22 410.069C593.829 415.008 587.695 417.985 580.491 419.168C578.498 419.496 576.653 421.012 574.895 422.207C574.629 422.386 574.92 424.057 575.421 424.552C576.288 425.406 578.052 425.617 578.528 426.558C580.707 430.828 582.496 435.303 584.582 439.623C585.974 442.501 587.571 445.287 589.211 448.029C589.688 448.827 590.554 449.638 591.402 449.885C591.879 450.022 593.03 449.155 593.284 448.511C594.299 445.906 595.042 443.201 595.97 440.558C598.037 434.684 599.133 428.192 605.638 425.072C605.916 424.936 605.96 424.367 606.176 424.039C607.823 421.544 609.376 418.976 611.184 416.605C612.613 414.736 614.371 413.114 615.529 411.864H615.541Z" fill="white"/>
<path d="M535.685 883.599C533.005 883.426 530.332 883.259 527.423 883.067C527.274 883.389 526.958 884.082 526.587 884.893C530.647 885.84 533.284 888.433 534.887 891.949C535.271 892.784 534.708 894.523 533.996 895.309C529.279 900.447 524.365 905.392 519.605 910.486C518.095 912.101 517.086 914.243 515.434 915.654C514.097 916.793 512.191 917.573 510.427 917.851C506.317 918.501 502.133 918.65 497.998 919.188C488.572 920.42 479.17 921.843 469.731 923.025C465.281 923.582 460.775 923.657 456.313 924.127C449.251 924.87 442.207 925.804 435.151 926.559C430.299 927.073 425.434 927.506 420.569 927.81C415.537 928.125 410.493 928.484 405.461 928.379C399.625 928.255 393.794 927.624 387.958 927.259C386.633 927.172 385.302 927.296 383.972 927.265C375.412 927.079 366.821 927.228 358.583 924.164C356.559 923.409 355.593 922.388 355.067 920.271C354.826 919.293 352.994 918.099 351.886 918.099C350.27 918.099 348.556 918.903 347.058 919.702C345.387 920.593 343.982 920.995 341.946 920.556C339.383 920.005 336.61 920.469 333.937 920.414C325.42 920.24 316.91 919.999 309.309 915.388C307.291 914.162 304.927 913.042 306.79 909.978C306.889 909.817 306.982 909.52 306.901 909.39C304.166 904.866 307.7 901.92 309.804 898.85C314.292 892.314 320.481 888.142 328.088 885.561C334.289 883.457 340.052 880.102 346.099 877.503C348.568 876.438 351.001 874.371 354.089 876.438C354.745 876.877 356.287 876.37 357.246 875.918C359.926 874.655 362.377 872.619 365.174 871.957C368.746 871.109 372.577 871.066 376.284 871.152C378.098 871.196 379.633 872.303 381.508 870.57C382.375 869.772 384.64 870.372 386.249 870.54C387.122 870.632 387.939 871.208 388.812 871.462C390.743 872.031 392.717 873.832 394.685 871.728C396.616 869.667 396.845 867.098 395.676 864.678C392.829 858.761 390.415 852.485 386.664 847.175C377.386 834.041 367.483 821.346 357.784 808.51C349.503 797.542 340.757 786.896 332.977 775.588C328.255 768.724 325.104 760.796 320.982 753.492C318.81 749.643 317.034 745.65 316.545 741.342C316.173 738.068 314.873 734.386 317.943 731.446C319.373 730.078 320.877 729.224 322.864 730.134C326.478 731.792 330.099 733.432 333.677 735.153C336.561 736.54 339.383 738.044 342.608 739.69C342.342 736.812 342.131 734.578 341.921 732.349C342.379 732.238 342.831 732.127 343.289 732.015C344.242 733.711 345.437 735.32 346.099 737.121C347.442 740.773 350.301 742.432 353.613 743.93C367.78 750.354 382.034 756.624 395.96 763.55C407.287 769.176 418.273 775.502 429.253 781.796C440.388 788.178 450.903 795.512 460.59 803.948C466.067 808.714 471.601 813.48 476.558 818.766C484.722 827.462 492.341 836.659 500.369 845.485C507.208 853.005 514.32 860.265 521.252 867.698C524.105 870.756 526.203 874.179 526.234 878.635C526.234 879.359 527.658 880.411 528.617 880.721C530.957 881.47 533.414 881.866 535.822 882.405C535.778 882.807 535.735 883.203 535.692 883.605L535.685 883.599ZM394.456 796.725C394.221 796.645 393.98 796.558 393.745 796.477C393.881 796.744 394.023 797.01 394.159 797.276C394.419 797.573 394.673 797.876 394.933 798.173C395.868 799.12 396.808 800.055 397.731 801.014C409.608 813.381 421.937 825.209 436.049 835.081C452.302 846.457 467.485 859.442 485.434 868.262C492.694 871.827 500.239 874.823 507.654 878.072C507.79 877.793 507.926 877.521 508.056 877.243C507.177 876.618 506.348 875.912 505.413 875.374C493.746 868.621 481.423 862.784 470.536 854.955C451.448 841.22 433.276 826.211 414.646 811.839C408.382 807.005 401.884 802.469 395.49 797.796C395.143 797.437 394.803 797.084 394.456 796.725ZM496.333 865.309C496.488 865.452 496.643 865.594 496.792 865.736C496.816 865.644 496.841 865.557 496.866 865.464C496.668 865.439 496.47 865.421 496.272 865.396C495.857 864.635 495.554 863.781 495.015 863.118C492.187 859.646 489.296 856.236 486.443 852.788C481.293 846.574 476.472 840.057 470.938 834.202C463.629 826.471 455.948 819.062 448.1 811.877C436.426 801.194 423.577 791.984 410.072 783.783C399.488 777.359 388.558 771.51 377.689 765.568C372.404 762.684 366.907 760.183 361.504 757.509C361.12 757.379 360.737 757.243 360.353 757.113C360.532 757.392 360.712 757.676 360.898 757.955C363.782 760.666 366.623 763.42 369.557 766.075C377.819 773.558 385.872 781.307 394.469 788.382C408.017 799.535 421.987 810.175 435.702 821.13C444.695 828.309 453.249 836.065 462.552 842.805C473.501 850.74 485.05 857.845 496.333 865.316V865.309ZM504.021 902.198C504.089 902.396 504.163 902.594 504.231 902.799C510.612 900.824 516.987 898.856 523.919 896.708C518.566 893.601 514.32 893.286 510.278 897.525C508.508 899.382 506.125 900.657 504.021 902.198ZM392.556 795.797C392.729 795.914 392.915 796.137 393.058 796.112C393.225 796.081 393.355 795.834 393.497 795.679C393.336 795.599 393.157 795.432 393.008 795.456C392.847 795.481 392.705 795.673 392.556 795.797Z" fill="white"/>
<path d="M793.95 523.867C794.364 525.662 794.785 527.463 795.2 529.258C795.819 532.13 796.438 535.002 797.057 537.873C797.552 542.169 797.96 546.47 798.567 550.747C799.458 557.005 800.467 563.25 801.47 569.489C802.002 572.8 802.627 576.099 803.209 579.404C803.481 581.044 803.754 582.678 804.026 584.319C804.41 588.639 804.732 592.965 805.202 597.273C805.716 601.989 806.502 606.674 806.947 611.391C807.715 619.48 808.315 627.588 808.984 635.69V641.261C809.145 646.788 809.714 652.34 809.374 657.836C808.631 669.787 807.467 681.714 806.397 693.641C805.87 699.521 805.32 705.407 804.515 711.256C803.395 719.371 802.169 727.479 800.708 735.537C799.285 743.373 797.589 751.165 795.844 758.939C794.631 764.33 793.126 769.659 791.783 775.025C791.641 775.595 791.697 776.214 791.666 776.808C791.363 778.436 791.065 780.063 790.762 781.691C789.605 783.474 788.392 785.219 787.315 787.051C785.972 789.335 784.74 791.681 783.459 794.002C782.623 795.481 781.788 796.961 780.958 798.446C780.345 799.48 779.727 800.513 779.114 801.547C778.532 802.512 777.95 803.472 777.195 804.716H782.778C782.109 807.513 779.689 806.152 778.08 806.665C773.407 808.157 768.759 809.81 763.993 810.899C755.935 812.737 747.783 814.154 739.694 815.863C738.926 816.024 738.084 816.896 737.701 817.651C731.864 829.201 725.173 840.218 717.22 850.43C708.963 861.033 700.094 871.078 689.368 879.298C683.853 883.525 678.246 887.641 672.688 891.806C670.837 892.859 668.986 893.911 667.136 894.957C664.864 896.195 662.599 897.432 660.327 898.67C656.478 900.428 652.628 902.18 648.165 904.216H657.257C659.114 904.247 660.971 904.272 662.828 904.303C663.67 904.154 664.505 903.999 665.347 903.851C665.935 903.863 666.529 903.87 667.117 903.882C668.782 905.485 670.466 905.361 672.174 903.944C673.393 903.845 674.612 903.74 675.832 903.641C678.512 903.628 681.198 903.616 683.878 903.603C685.648 903.845 687.412 904.111 689.188 904.315C691.064 904.532 692.444 905.2 692.351 907.41C691.219 908.029 690.142 909.013 688.941 909.192C684.8 909.805 680.616 910.139 676.451 910.585C674.798 910.789 673.152 911 671.499 911.204C666.752 911.649 661.999 912.064 657.251 912.553C654.547 912.832 651.86 913.407 649.149 913.537C638.448 914.07 627.74 914.478 617.033 914.936C615.795 914.936 614.557 914.936 613.319 914.936C608.986 915.314 604.654 915.766 600.309 916.056C593.198 916.533 586.074 916.898 578.956 917.313C578.442 917.344 577.928 917.381 577.414 917.418C575.353 917.214 573.286 917.003 571.225 916.799C570.191 916.799 569.164 916.793 568.13 916.787C564.621 916.378 561.118 915.97 557.608 915.561C556.166 915.357 554.718 915.146 553.276 914.942C550.596 914.521 547.91 914.1 545.23 913.68C537.889 911.817 530.487 910.158 523.22 908.041C502.387 901.976 482.841 892.92 464.31 881.711C461.444 879.979 459.377 876.915 456.914 874.501C455.676 873.288 454.37 872.149 453.095 870.973C443.557 862.586 434.05 854.157 424.469 845.82C412.443 835.353 400.077 825.252 388.36 814.446C374.471 801.64 361.882 787.577 350.754 772.252C347.517 767.79 344.106 763.458 340.776 759.063C340.436 758.587 340.095 758.104 339.749 757.627C338.325 755.467 336.896 753.301 335.472 751.141L334.531 751.778C336.054 753.945 337.583 756.117 339.105 758.283C339.47 758.741 339.835 759.193 340.194 759.651C341.086 761.099 341.909 762.597 342.874 763.99C352.443 777.823 362.024 791.675 373.84 803.738C382.041 812.106 390.421 820.319 398.963 828.341C408.154 836.975 417.531 845.417 427 853.736C435.245 860.977 443.749 867.928 452.371 875.207C450.551 875.727 448.991 876.172 447.432 876.618C445.779 877.045 444.133 877.466 442.48 877.893C440.828 878.239 439.175 878.586 437.522 878.933C436.08 879.174 434.638 879.409 433.196 879.65C432.2 879.65 431.203 879.644 430.207 879.638C429.73 879.923 429.247 880.208 428.771 880.486C427.972 880.554 427.174 880.628 426.375 880.696C425.125 880.888 423.875 881.074 422.625 881.266C422.018 881.285 421.411 881.309 420.805 881.328C419.363 881.52 417.927 881.706 416.485 881.897C415.637 881.972 414.795 882.052 413.947 882.126C408.203 884.986 402.336 887.616 396.753 890.748C387.221 896.096 377.795 901.654 368.48 907.367C365.843 908.982 363.726 911.458 360.842 914.008C362.371 914.132 363.12 914.194 363.869 914.249C364.352 916.409 365.726 917.399 367.91 917.313C368.833 917.276 369.761 917.245 370.683 917.214C371.5 917.276 372.317 917.344 373.128 917.406C374.583 917.548 376.037 917.69 377.492 917.833C381.824 918.068 386.157 918.297 390.489 918.532C391.931 918.706 393.38 918.879 394.822 919.058C404.31 918.86 413.805 918.656 423.293 918.458C424.735 918.278 426.183 918.099 427.626 917.919C436.291 917.078 444.956 916.236 453.621 915.4C455.478 915.196 457.335 914.992 459.191 914.787C464.774 914.379 470.375 914.1 475.946 913.537C482.327 912.893 488.69 912.07 495.046 911.191C500.468 910.443 505.884 909.613 511.263 908.61C513.627 908.171 516.226 906.877 517.842 909.359C519.853 912.448 519.098 914.292 515.515 917.412C514.469 917.969 513.423 918.52 512.377 919.077L509.944 919.894C509.517 920.03 509.09 920.172 508.663 920.308C504.126 921.342 499.589 922.369 495.046 923.403C493.202 923.682 491.358 923.954 489.519 924.233C485.187 924.852 480.854 925.47 476.522 926.083C475.08 926.275 473.631 926.467 472.189 926.659L464.143 927.327C462.701 927.532 461.252 927.736 459.81 927.94C453.355 928.491 446.905 929.035 440.45 929.592C437.819 929.815 435.189 930.1 432.559 930.273C428.696 930.533 424.834 930.719 420.972 930.942C417.32 931.146 413.656 931.654 410.017 931.505C398.542 931.029 387.073 930.348 375.604 929.642C372.918 929.481 370.262 928.937 367.589 928.565C365.732 928.151 363.875 927.736 362.018 927.321C359.456 925.588 356.937 923.793 354.319 922.159C353.353 921.559 352.097 920.872 351.075 921.002C344.354 921.837 337.688 923.255 330.948 923.762C323.05 924.356 314.948 926.461 307.273 922.815C303.875 921.2 300.558 919.17 298.819 915.487C298.837 912.578 298.849 909.669 298.868 906.76C298.812 901.641 301.325 897.656 304.544 893.991C306.592 892.506 308.635 891.026 310.684 889.541C327.327 881.093 344.898 875.59 363.157 873.176C363.374 869.778 363.578 866.628 363.782 863.472C364.203 861.411 364.63 859.343 365.051 857.282C367.05 855.914 365.763 854.453 364.834 853.488C361.981 850.505 358.917 847.726 355.94 844.866C354.9 843.987 353.861 843.108 352.821 842.229C350.147 839.395 347.473 836.566 344.799 833.732C343.543 832.06 342.28 830.396 341.024 828.724C340.82 828.52 340.609 828.31 340.405 828.105C339.99 827.493 339.569 826.874 339.155 826.261C338.926 825.388 338.932 824.342 338.431 823.674C335.101 819.18 331.69 814.743 328.261 810.323C320.481 800.297 312.707 790.27 304.859 780.299C303.857 779.03 302.446 778.077 301.226 776.981C300.873 776.703 300.514 776.418 300.155 776.14C299.951 775.941 299.747 775.743 299.543 775.551C299.345 774.58 299.394 773.453 298.905 772.655C294.95 766.249 290.921 759.886 286.824 753.579C286.316 752.799 285.233 752.391 284.422 751.809L284.323 751.698C284.187 750.323 284.323 748.863 283.877 747.594C281.29 740.08 278.598 732.61 275.893 725.139C275.02 722.731 274.024 720.373 273.083 717.99C272.805 716.765 272.526 715.546 272.248 714.32C272.019 712.668 271.796 711.021 271.567 709.369V705.036C270.304 702.356 271.542 699.67 271.567 696.99C271.591 696.167 271.616 695.337 271.641 694.514C271.82 692.862 272.006 691.215 272.186 689.563C273.281 685.775 274.383 681.993 275.46 678.199C275.726 677.27 275.899 676.311 276.116 675.37C277.7 671.644 279.279 667.912 280.863 664.186C282.986 660.343 285.109 656.499 287.232 652.655C288.049 651.553 288.866 650.458 289.683 649.357C293.793 645.519 297.624 641.298 302.124 637.987C304.878 635.956 308.653 635.319 311.965 634.056C313.382 633.753 314.806 633.45 316.223 633.14C322.208 632.726 328.187 632.311 334.172 631.896C336.029 631.896 337.886 631.896 339.743 631.896C340.776 631.908 341.804 631.921 342.837 631.933C344.279 632.125 345.728 632.323 347.17 632.515C350.215 632.985 353.26 633.45 356.305 633.92C360.588 635.102 364.872 636.284 368.938 637.398C370.145 634.452 371.222 631.828 372.299 629.21C372.336 628.956 372.379 628.702 372.416 628.449C372.231 628.579 372.045 628.709 371.859 628.832C370.652 629.526 369.489 630.324 368.22 630.9C364.803 632.447 361.597 634.886 357.463 633.691C355.507 632.54 356.801 631.277 357.432 630.169C360.762 624.339 365.868 620.545 371.841 617.772C372.293 617.562 372.72 617.314 373.165 617.085C374.818 616.658 376.464 616.231 378.117 615.798C381.787 615.835 385.476 615.68 389.134 615.952C394.55 616.361 399.947 617.073 405.35 617.654C406.359 617.753 407.368 617.853 408.377 617.945C411.193 618.831 414.015 619.709 417.097 620.675C415.909 623.268 414.882 626.041 413.396 628.541C412.691 629.73 411.118 630.404 409.936 631.314C409.621 631.104 409.299 630.893 408.983 630.683C408.736 627.922 408.482 625.156 408.216 622.191H401.024L398.028 628.275C396.536 634.081 395.045 639.887 393.578 645.599C401.865 649.362 410.072 653.088 418.286 656.821C418.663 656.969 419.047 657.118 419.425 657.266C419.245 656.982 419.059 656.697 418.88 656.412C418.471 655.496 418.069 654.574 417.661 653.658C417.079 651.776 416.491 649.901 415.909 648.02C416.311 640.369 416.584 632.713 417.153 625.075C417.753 617.023 420.508 609.608 426.029 603.734C438.383 590.588 451.071 577.752 463.617 564.785C464.248 564.135 464.824 563.423 465.424 562.742C466.761 561.504 468.104 560.273 470.091 558.434C468.197 558.342 467.429 558.304 466.662 558.267C463.165 556.175 459.674 554.083 456.177 551.991C455.15 550.593 454.116 549.188 453.089 547.789C452.569 545.146 451.937 542.522 451.566 539.86C451.368 538.443 451.628 536.964 451.677 535.515C452.538 532.674 453.021 529.641 454.333 527.023C459.513 516.699 464.607 506.37 466.823 494.895C467.169 493.112 467.627 491.441 469.887 490.692C470.939 490.345 471.644 488.612 472.263 487.387C472.758 486.402 472.882 485.233 473.173 484.143C471.91 483.865 470.654 483.586 469.063 483.234C469.435 481.525 469.787 479.483 470.338 477.49C471.799 472.204 471.836 472.291 476.893 472.272C479.319 472.26 481.776 471.548 484.165 471.765C491.184 472.402 498.246 472.966 505.141 474.327C508.731 475.033 512.68 476.648 515.248 479.118C518.281 482.039 521.079 485.907 519.884 490.927C519.321 493.285 519.562 496.101 518.325 497.97C516.629 500.52 514.011 502.532 511.541 504.463C506.354 508.511 499.893 508.096 494.037 507.948C486.616 507.762 479.233 505.856 471.855 504.698C469.775 510.04 467.392 516.155 464.805 522.784C465.969 523.062 467.237 523.502 468.537 523.656C472.443 524.133 476.385 524.368 480.254 525.024C481.151 525.179 482.649 527.135 482.47 527.444C480.891 530.168 479.492 533.405 477.079 535.15C472.857 538.202 467.943 540.306 462.849 543.066C477.5 552.938 492.614 554.708 508.805 545.821C507.889 547.646 506.967 549.404 505.531 550.457C497.553 556.293 488.826 560.05 478.663 559.641C477.815 559.611 476.676 560.279 476.101 560.978C473.346 564.315 470.871 567.886 468.054 571.166C458.127 582.722 448.007 594.104 438.172 605.734C434.991 609.49 431.902 613.532 429.767 617.927C425.546 626.629 423.565 636 424.618 645.723C425.082 650.037 426.06 654.37 429.272 658.152C429.767 644.795 433.388 640.4 438.562 641.062C437.089 647.419 435.616 653.794 434.143 660.169C434.446 660.472 434.75 660.782 435.053 661.085C437.3 660.194 439.911 659.761 441.706 658.312C444.535 656.028 448.199 654.815 449.629 650.483C450.347 648.298 454.37 647.221 456.87 645.599C458.139 644.776 459.736 644.102 460.491 642.919C464.112 637.275 467.504 631.475 470.97 625.731C474.875 619.251 478.768 612.759 482.68 606.278C483.256 605.319 483.868 604.384 484.469 603.431C484.815 603.58 485.156 603.734 485.502 603.883C484.617 606.359 483.732 608.835 483.02 610.809C485.403 614.182 488.838 614.157 492.298 614.188C494.112 614.207 495.944 614.387 497.739 614.684C499.379 614.956 500.982 615.488 502.566 615.897C500.703 618.069 499.255 619.765 497.479 621.838C500.332 622.111 502.313 622.296 504.293 622.482C504.07 622.272 503.848 622.067 503.619 621.857C509.028 616.058 513.837 609.484 520.002 604.657C526.934 599.229 535.048 595.292 542.76 590.904C544.462 589.932 546.641 589.802 548.603 589.288C548.813 589.728 549.03 590.167 549.241 590.607C547.73 592.092 546.381 593.813 544.685 595.032C537.159 600.442 529.094 605.195 522.032 611.149C510.755 620.65 502.839 632.682 498.995 647.079C497.85 651.38 497.318 655.843 496.501 660.231L497.559 660.646C498.711 659.618 499.856 658.585 500.914 657.638C500.406 661.11 499.051 664.607 499.657 667.733C500.338 671.242 502.839 674.349 507.58 674.782C507.759 673.006 507.939 671.335 508.106 669.664C508.644 664.136 509.635 658.851 514.035 654.797C516.041 652.952 518.164 653.281 519.841 654.438C520.677 655.014 520.955 657.409 520.528 658.647C518.739 663.815 516.579 668.853 514.45 674.219C516.462 673.377 518.362 672.783 520.058 671.83C529.954 666.253 537.276 657.786 544.809 649.56C547.594 646.522 550.305 643.359 553.437 640.703C558.413 636.482 563.724 632.657 568.867 628.634C572.154 626.059 575.397 623.435 578.665 620.829C578.776 620.953 578.9 621.065 579.024 621.176C578.38 622.086 577.829 623.083 577.074 623.881C562.077 639.769 547.148 655.719 531.991 671.452C526.278 677.382 519.408 681.937 511.331 683.961C506.305 685.224 500.512 686.301 496.674 681.684C491.983 676.033 488.541 669.521 489.006 661.71C489.185 660.875 489.371 660.046 489.556 659.21C489.532 659.006 489.507 658.801 489.476 658.597C489.581 657.997 489.693 657.403 489.798 656.802C490.726 653.268 491.648 649.734 492.577 646.2C493.016 644.417 493.456 642.635 493.982 640.506C491.234 641.211 488.944 641.954 486.592 642.369C483.311 642.95 480.179 642.746 477.32 640.53C474.677 638.488 474.399 635.802 474.405 632.484C473.47 632.967 473.167 633.765 472.622 634.329C470.481 636.551 468.24 638.68 466.099 640.908C465.74 641.279 465.628 641.935 465.492 642.48C465.046 644.219 464.824 646.039 464.186 647.704C463.258 650.142 462.051 652.47 460.974 654.815C466.612 659.024 466.86 661.438 464.935 668.605C463.14 675.296 458.096 676.286 452.395 677.004C454.71 678.83 456.815 680.21 458.944 681.547C460.98 682.828 462.639 685.199 465.665 683.441C466.34 683.051 467.646 683.559 468.593 683.868C472.994 685.298 477.37 686.802 481.739 688.275C483.986 684.784 486.573 683.188 489.334 684.791C492.49 686.617 495.034 689.507 497.832 691.952C498.772 692.775 499.54 694.062 500.617 694.409C510.904 697.689 521.252 700.765 531.551 704.002C540.934 706.955 550.15 710.526 559.663 712.952C576.517 717.248 593.785 718.411 611.14 717.959C614.897 717.86 618.797 717.563 622.356 716.462C631.107 713.745 639.884 710.947 648.314 707.382C660.098 702.393 670.973 695.746 680.084 686.567C680.944 685.7 681.743 684.475 681.959 683.305C682.869 678.471 683.711 673.563 687.059 669.769C688.947 667.634 691.02 665.263 694.616 665.925C695.396 666.068 696.863 665.213 697.235 664.44C701.858 654.846 709.174 646.961 713.544 637.071C720.259 621.882 727.909 607.139 733.158 591.288C735.497 584.219 738.938 577.492 742.213 570.77C743.407 568.319 745.394 566.054 749.163 566.549C748.712 568.734 748.514 570.77 747.876 572.652C743.296 586.157 738.604 599.619 734.049 613.13C733.702 614.17 733.839 615.711 734.408 616.596C734.798 617.203 736.401 616.899 737.342 617.302C738.97 617.995 740.573 618.8 742.033 619.777C742.949 620.39 743.444 621.684 744.385 622.185C748.439 624.333 750.736 631.977 749.597 636.452C748.031 642.61 741.897 644.046 738.679 648.366C738.487 648.62 737.911 648.576 737.521 648.694C731.381 650.569 724.53 648.162 721.082 643.309C719.659 646.441 718.347 650.006 716.484 653.256C713.253 658.9 709.712 664.378 706.234 669.874C705.33 671.304 705.442 672.777 706.89 673.117C713.147 674.566 712.269 680.353 713.345 684.388C714.286 687.935 711.749 691.376 708.536 693.654C707.336 694.508 705.9 695.108 704.897 696.142C699.816 701.359 691.287 701.607 685.97 696.519C670.812 710 652.69 718.114 633.565 724.396C633.688 724.7 633.812 725.003 633.936 725.3C636.405 725.411 638.875 725.516 641.92 725.653C640.076 727.961 639.011 729.725 636.164 729.837C630.253 730.066 624.355 730.759 618.382 731.273C617.621 733.724 616.736 736.218 618.568 738.762C618.883 739.201 618.469 740.173 618.388 740.903C618.394 741.318 618.401 741.727 618.407 742.141C617.676 749.89 613.276 753.567 604.14 754.297C632.723 765.122 660.668 775.712 688.873 786.402C688.873 784.607 688.996 783.313 688.854 782.044C688.006 774.437 690.185 767.914 695.892 762.77C698.714 760.227 701.128 760.474 704.123 762.913C704.749 763.42 705.894 763.253 706.748 763.538C708.413 764.107 710.17 764.572 711.656 765.463C712.962 766.243 713.934 767.58 715.097 768.613C715.698 769.145 716.75 769.436 716.991 770.068C718.235 773.342 719.294 776.684 720.383 780.014C720.47 780.28 720.389 780.645 720.284 780.924C718.805 784.823 717.01 788.487 712.974 790.418C712.361 790.926 711.749 791.433 710.913 792.133C711.662 792.238 711.959 792.281 712.25 792.325C720.606 794.349 728.961 796.373 737.329 798.366C737.645 798.44 738.109 798.248 738.4 798.037C741.563 795.754 744.658 793.371 747.888 791.18C748.922 790.474 750.469 789.626 751.466 789.917C756.417 791.34 761.257 793.117 763.814 798.205C764.445 799.467 764.798 800.489 762.916 800.947C762.508 801.046 762.229 801.652 761.889 802.023C762.235 802.283 762.539 802.661 762.929 802.785C767.948 804.431 769.595 803.268 771.674 798.019C772.528 795.859 773.209 793.631 774.113 791.495C775.004 789.385 776.062 787.342 777.176 785.003C772.423 784.563 768.487 782.855 765.571 779.636C762.947 776.74 760.583 772.89 762.891 769.158C765.293 765.277 768.579 761.644 772.243 758.933C775.115 756.81 779.145 756.259 782.784 754.972C784.598 745.075 786.56 734.757 788.361 724.415C789.475 718.009 790.341 711.553 791.319 705.122C791.412 704.671 791.505 704.219 791.604 703.767C792.433 698.166 793.343 692.577 794.055 686.957C794.612 682.569 795.045 678.149 795.293 673.73C795.98 661.686 796.63 649.641 797.02 637.584C797.057 636.365 795.497 634.44 794.241 633.945C790.137 632.323 788.491 630.473 788.497 626.084C788.497 620.427 791.765 616.769 796.178 613.761C795.113 589.777 792.378 565.93 787.476 542.658C786.003 542.206 784.746 542.051 783.737 541.476C779.015 538.783 777.294 534.03 779.176 528.973C781.039 523.966 781.72 519.225 779.306 513.927C776.025 506.722 773.661 499.091 770.894 491.62C770.511 491.868 769.879 492.047 769.687 492.437C767.793 496.306 764.191 496.634 760.577 496.819C759.877 496.856 759.122 496.324 758.429 495.978C757.587 495.551 756.832 494.758 755.959 494.603C747.245 493.038 743.977 489.095 742.021 482.491C741.841 481.884 741.947 480.981 742.293 480.455C744.224 477.509 746.168 474.569 748.309 471.777C749.374 470.391 750.723 469.116 752.178 468.15C755.439 465.996 759.141 465.439 763.189 466.064C762.229 460.333 758.905 456.031 756.306 451.389C747.486 435.637 736.16 421.934 722.376 410.286C720.593 408.782 718.823 406.708 716.737 406.213C711.346 404.932 705.776 404.387 700.342 403.552C698.454 411.598 691.825 414.983 684.336 414.334C682.033 414.135 679.756 411.994 677.286 414.166C673.616 417.385 669.469 419.527 664.363 419.087C664.171 419.069 663.948 419.421 663.738 419.601C664.524 418.394 664.394 417.694 662.754 417.849C667.278 408.553 673.096 400.327 681.73 394.664C671.635 386.729 664.128 376.479 658.836 364.837C653.637 353.399 646.643 342.698 644.167 330.232C642.353 330.517 640.738 330.765 639.129 331.031C633.453 331.959 628.607 330.183 624.441 326.401C623.903 325.912 623.884 324.841 623.365 323.226C627.573 325.943 631.169 326.519 634.908 325.572C639.624 324.377 644.049 322.471 647.819 319.271C649.217 318.089 650.505 316.684 652.083 315.823C658.118 312.537 661.194 306.707 663.899 301.031C666.529 295.51 665.211 289.302 663.738 283.472C662.327 277.901 658.867 273.593 654.621 269.867C654.478 269.737 654.342 269.607 654.2 269.477C653.643 268.939 653.154 268.308 652.523 267.874C645.739 263.202 638.429 262.613 631.107 266.036C625.37 268.716 619.923 272.046 614.514 275.357C613.505 275.976 612.768 277.895 612.793 279.195C612.904 284.852 613.567 290.503 613.598 296.16C613.629 301.582 612.397 306.824 609.772 311.912C610.478 312.444 611.264 313.366 612.261 313.719C615.597 314.907 612.824 317.674 613.771 319.512C613.913 319.785 612.174 321.654 611.208 321.74C608.095 322.019 604.803 322.378 601.832 321.66C597.344 320.571 592.807 319.475 589.255 315.786C587.219 313.669 588.345 311.559 587.806 309.51C586.946 306.255 586.018 302.925 585.851 299.589C585.572 294.142 582.775 290.887 578.176 288.547C575.539 287.204 573.299 285.025 570.588 283.923C566.088 282.091 565.816 282.048 565.673 277.072C565.611 274.893 565.389 272.721 565.246 270.598C562.603 270.27 560.171 269.236 558.308 269.867C552.119 271.978 546.041 274.466 540.099 277.214C525.102 284.14 510.204 291.27 495.306 298.4C494.768 298.66 494.223 299.954 494.415 300.511C495.783 304.454 497.039 308.477 498.902 312.19C502.238 318.85 505.977 325.312 509.548 331.86C511.479 330.697 512.989 329.638 514.629 328.833C524.192 324.142 533.748 319.413 543.435 314.994C544.493 314.511 546.412 315.904 547.928 316.424C547.52 317.439 547.396 318.856 546.647 319.401C542.407 322.502 538.031 325.417 533.662 328.344C532.065 329.415 530.456 330.517 528.704 331.284C523.765 333.457 518.752 335.468 513.813 337.523C515.255 339.869 516.449 342.562 518.306 344.672C522.682 349.655 527.33 354.402 531.954 359.161C535.073 362.367 536.911 366.062 536.546 370.562C536.441 371.874 535.098 373.1 535.03 374.4C534.819 378.454 534.955 382.533 534.955 386.698C540.724 390.034 540.712 389.941 547.025 388.14C549.111 387.546 551.37 387.552 553.462 387.292C554.743 390.851 551.828 390.864 550.621 391.866C555.436 396.205 560.245 400.537 564.98 404.802C567.617 403.564 570.235 402.524 572.655 401.144C575.032 399.788 577.037 400.352 579.587 401.491C576.245 404.437 573.274 407.055 570.309 409.673C571.225 410.286 572.413 411.09 573.608 411.876C580.07 416.153 583.264 415.893 589.471 411.511C602.531 402.289 615.739 393.271 628.892 384.16C631.429 388.084 631.367 388.691 628.198 391.34C626.738 392.566 625.196 393.704 624.225 394.46C625.76 402.295 630.736 408.188 631.794 415.751C632.989 424.255 632.085 426.124 625.135 426.582C620.771 432.623 620.431 439.58 619.577 446.401C619.471 447.236 619.719 448.202 620.072 448.988C622.219 453.766 626.564 454.608 630.247 450.603C634.802 445.652 638.869 440.254 643.337 435.216C646.426 431.732 650.938 429.739 653.569 425.722C653.767 425.784 653.965 425.846 654.163 425.908C652.974 427.257 654.02 428.154 655.066 428.13C658.743 428.043 661.076 430.364 662.562 432.97C664.895 437.073 666.473 441.338 664.926 446.58C663.769 450.504 662.555 453.667 658.972 455.914C656.187 457.659 652.795 459.454 651.359 462.134C648.029 468.348 645.355 474.983 643.09 481.68C640.063 490.618 637.996 499.883 634.963 508.821C629.071 526.151 622.783 543.345 616.686 560.601C614.811 565.905 613.034 571.246 611.19 576.637C615.145 575.542 618.729 574.545 622.312 573.561C622.783 573.431 623.358 573.153 623.736 573.308C627.158 574.663 631.126 575.269 632.748 579.286C633.552 581.292 634.023 583.433 634.914 585.395C636.486 588.855 635.044 592.074 634.289 595.305C633.305 599.544 629.449 601.265 626.434 603.784C620.028 609.138 616.377 609.361 609.971 604.125C607.594 602.187 605.353 600.083 602.624 597.681C599.956 608.748 589.942 611.676 582.292 617.215C587.862 606.953 596.218 598.504 599.783 587.11C603.305 575.851 607.21 564.711 610.942 553.514C610.571 553.749 610.193 553.984 609.822 554.219C608.733 552.734 607.662 551.242 606.554 549.776C606.152 549.243 605.675 548.37 605.192 548.339C601.064 548.104 597.827 545.672 594.225 544.137C593.278 543.735 591.799 543.63 590.951 544.088C586.674 546.409 582.484 548.897 578.337 551.453C570.371 556.361 561.947 559.499 552.409 559.611C543.255 559.716 534.448 552.214 532.969 543.233C532.245 538.82 532.133 534.24 532.337 529.765C532.597 524.22 533.637 518.717 534.027 513.172C534.318 509.074 534.101 504.934 534.12 500.818C534.126 498.447 533.909 496.052 534.225 493.725C534.485 491.812 535.909 489.974 535.884 488.123C535.791 481.798 535.246 475.485 534.955 469.159C534.838 466.56 534.937 463.954 534.937 460.333C536.509 462.122 537.635 463.093 538.372 464.3C541.795 469.902 542.766 476.159 543.472 482.584C544.71 493.886 544.023 505.15 543.231 516.403C542.692 524.071 541.504 531.69 543.348 539.34C545.657 548.915 552.323 553.403 562.257 551.738C569.009 550.605 575.261 548.197 580.454 543.964C584.638 540.553 589.787 537.849 591.749 532.105C592.213 530.755 593.693 529.511 595.011 528.738C597.728 527.147 600.464 525.854 601.955 522.71C603.657 519.107 605.836 515.728 607.835 512.194C606.715 511.599 605.762 511.092 604.134 510.226C605.316 509.365 606.17 508.882 606.839 508.22C607.359 507.706 608.04 506.92 607.971 506.326C607.78 504.649 607.439 502.922 606.796 501.375C605.459 498.187 603.936 495.068 602.395 491.967C600.829 488.804 599.145 485.691 597.524 482.553C594.726 477.143 591.96 471.715 589.119 466.324C588.463 465.074 587.571 463.948 586.569 462.431C586.661 462.097 587.41 460.94 587.15 460.079C583.839 449.075 581.06 437.835 573.614 428.581C569.498 423.469 564.875 419.502 558.227 417.633C552.267 415.961 546.344 416.258 540.371 415.887C535.061 415.559 529.391 415.621 524.953 412.446C520.955 409.586 516.437 409.729 512.141 408.584C511.516 408.416 510.309 408.676 510.062 409.116C507.32 414.067 503.154 416.84 497.479 417.403V420.548C493.66 423.259 490.281 425.611 486.951 428.037C479.629 433.372 473.6 439.945 468.97 447.707C464.124 455.827 459.699 464.189 454.853 472.309C448.051 483.698 440.153 494.251 430.052 502.996C429.055 503.857 427.848 504.556 427.068 505.584C424.159 509.39 425.694 516.037 429.99 519.38C436.13 524.158 443.111 526.739 451.535 527.599C450.86 528.93 450.365 529.914 449.87 530.898C444.974 532.247 440.134 531.888 435.313 530.465C429.371 528.713 425.274 524.641 421.709 519.862L419.734 515.567C419.734 510.857 419.74 506.147 419.746 501.431C420.978 499.363 422.21 497.296 423.442 495.235C429.198 488.587 434.954 481.946 440.697 475.286C441.545 474.302 442.319 473.25 443.124 472.229C445.216 469.165 447.314 466.101 449.406 463.038C451.603 459.702 453.763 456.341 456.016 453.042C460.367 446.673 464.774 440.335 469.156 433.991C470.821 432.53 472.486 431.076 474.151 429.615L486.462 421.451C487.669 421.068 488.869 420.678 490.076 420.306C491.518 419.861 491.617 419.229 490.373 418.375C490.07 416.339 489.767 414.296 489.464 412.26C490.318 411.418 491.178 410.577 492.032 409.741C494.434 408.305 496.656 408.633 499.274 409.617C501.366 410.403 502.065 408.144 502.585 406.325C503.037 404.74 503.792 403.236 504.411 401.701C506.268 401.274 508.124 400.847 509.981 400.42C510.161 400.525 510.353 400.587 510.557 400.618L513.695 402.27C515.174 403.05 516.629 403.88 518.151 404.554C518.362 404.647 518.906 403.991 519.296 403.682C520.732 403.626 522.162 403.576 523.598 403.521C527.052 403.768 530.592 404.598 533.953 404.133C540.204 403.267 544.698 406.634 549.531 409.425C551.506 410.564 553.486 411.691 556.241 413.269C551.803 406.974 547.836 401.348 543.905 395.765C541.238 396.31 538.304 396.91 535.364 397.511C533.934 397.641 532.511 397.771 531.081 397.895C530.462 397.486 529.843 397.071 529.218 396.663C527.999 395.45 526.779 394.243 525.566 393.03C524.91 390.777 523.963 388.561 523.691 386.265C523.449 384.247 523.963 382.143 524.149 380.075C524.762 378.218 525.368 376.362 525.981 374.505C527.312 372.215 526.835 370.562 524.384 369.374C518.306 366.422 514.927 360.61 510.724 355.807C506.856 351.388 503.953 346.114 500.722 341.15C499.527 339.318 498.618 337.307 497.59 335.363C495.931 332.213 494.05 329.149 492.688 325.869C490.547 320.694 488.77 315.372 486.814 310.123C486.468 309.188 486.016 308.297 485.44 306.991C484.611 307.103 483.497 307.257 482.228 307.431C480.47 303.797 478.688 303.531 474.993 306.725C474.541 307.115 473.978 307.375 473.464 307.697C471.811 307.078 470.165 306.459 468.512 305.84C468.321 305.493 468.048 305.165 467.955 304.794C467.182 301.681 467.751 297.478 462.422 298.116C462.237 298.14 461.952 297.738 461.785 297.491C459.383 293.814 455.632 292.36 451.739 290.775C446.478 288.64 443.346 284.425 442.492 278.675C442.393 278 442.041 277.369 441.805 276.713C441.595 274.856 441.391 272.999 441.18 271.142C441.118 268.394 441.768 265.918 443.805 263.925C444.065 263.672 444.294 263.251 444.3 262.904C444.355 254.264 450.34 244.609 457.997 240.808C458.387 240.617 458.925 240.103 458.894 239.793C458.43 235.102 461.859 232.397 464.217 229.147C465.263 228.095 466.309 227.043 467.349 225.991C467.553 225.836 467.757 225.688 467.962 225.533C469.379 224.834 470.803 224.134 472.22 223.435C477.883 224.772 480.922 219.789 482.352 213.656C483.107 212.096 483.881 210.542 484.611 208.97C485.236 207.633 485.812 206.272 486.412 204.916C488.17 201.58 489.934 198.25 491.692 194.914C492.447 193.924 493.202 192.934 493.951 191.95C497.021 190.668 500.091 189.387 503.167 188.106C504.826 187.957 506.484 187.809 508.143 187.66C512.779 187.375 515.651 185.011 518.207 181.019C521.716 175.535 525.944 170.386 530.536 165.762C533.445 162.835 537.45 160.625 541.999 161.046C544.419 161.269 545.459 160.093 546.765 158.397C548.578 156.045 550.652 153.767 553.028 152.003C557.386 148.766 562.461 149.045 567.468 150.146C569.461 150.586 571.337 151.545 573.305 152.133C573.757 152.269 574.369 151.836 574.914 151.712C577.817 151.044 580.726 150.394 583.629 149.738C585.485 149.552 587.342 149.367 589.199 149.181C590.852 148.989 592.498 148.791 594.151 148.599C595.809 149.249 597.474 149.892 599.133 150.542C602.84 147.64 606.616 147.516 610.701 149.899C611.4 150.307 612.855 149.428 613.963 149.144C616.841 147.702 619.7 147.497 622.535 149.261C627.406 152.43 632.358 155.512 633.824 161.194C637.965 161.646 641.784 161.714 645.423 162.556C649.267 163.447 652.294 167.718 652.25 171.871C652.219 174.483 653.408 175.647 655.63 175.795C662.747 176.272 666.189 180.889 668.535 186.862C668.646 187.14 668.893 187.357 669.079 187.605C669.209 188.867 669.333 190.13 669.463 191.386C669.568 195.638 669.679 199.897 669.791 204.384C671.759 204.384 672.991 204.254 674.192 204.409C676.692 204.73 678.53 205.919 678.939 208.636C679.397 211.731 679.836 214.831 680.282 217.926C681.105 220.402 681.934 222.878 682.758 225.353C682.956 228.448 686.044 227.953 687.48 228.219C690.507 228.782 692.277 230.373 693.973 232.564C694.765 233.591 695.867 234.384 696.826 235.281C697.581 236.748 698.33 238.209 699.085 239.676C698.844 243.315 698.689 246.954 698.33 250.581C698.101 252.89 697.352 255.291 699.76 256.882C711.229 264.458 711.074 275.537 706.265 285.576C705.398 287.39 704.445 289.327 703.028 290.67C699.302 294.192 700.478 297.843 701.889 301.86C702.861 304.627 703.09 307.66 703.696 310.562C703.801 311.07 704.018 311.714 704.402 311.986C706.494 313.459 706.556 315.303 705.423 317.501C703.938 320.373 703.232 323.653 701.79 326.55C700.453 329.236 698.906 331.959 696.863 334.113C694.53 336.583 691.553 338.446 688.854 340.575C687.387 341.769 685.92 342.97 684.454 344.165C683.16 346.504 681.866 348.844 680.276 351.716C684.28 350.93 687.61 351.307 689.844 354.389C690.47 355.25 690.377 356.63 690.612 357.775C690.439 358.202 690.29 358.635 690.086 359.044C688.922 361.352 688.563 364.373 685.141 364.713C684.336 365.827 682.609 367.307 682.881 367.988C684.206 371.305 681.26 372.456 680.109 374.486C679.496 375.105 678.252 376.083 678.369 376.287C679.18 377.705 680.269 378.967 681.272 380.28L681.241 380.249C682.324 381.672 683.407 383.096 684.491 384.519C685.982 386.531 687.424 388.592 689.009 390.523C689.374 390.969 690.241 391.192 690.884 391.198C693.923 391.235 696.968 391.161 700.007 391.123C701.839 391.427 703.672 391.73 705.504 392.039C709.768 393.457 714.076 394.775 718.297 396.31C723.434 398.179 726.931 402.246 730.558 406.046C736.141 411.889 741.786 417.688 747.04 423.816C752.797 430.525 758.138 437.587 763.659 444.494C764.693 446.351 765.726 448.208 766.76 450.065C768.412 453.159 770.071 456.248 771.724 459.343C772.596 461.187 773.469 463.038 774.342 464.882C775.276 467.166 776.211 469.456 777.146 471.74C777.622 472.99 778.099 474.24 778.575 475.484C781.261 483.295 783.935 491.106 786.64 498.911C786.956 499.815 787.426 500.669 787.822 501.548C788.497 504.389 789.178 507.224 789.852 510.065C790.453 511.717 791.053 513.363 791.653 515.016C792.44 517.975 793.219 520.927 794.005 523.885L793.95 523.867ZM590.988 418.982C587.497 420.399 584.012 421.823 580.552 423.228C585.993 430.098 588.11 438.515 591.402 446.921C594.361 440.731 596.831 435.006 599.789 429.541C602.989 423.642 605.669 417.156 612.675 414.433C612.985 414.315 613.158 413.838 613.338 413.597C611.79 410.818 610.33 408.188 608.795 405.421C605.477 408.206 602.308 410.874 599.133 413.541C596.416 415.355 593.699 417.168 590.982 418.982H590.988ZM386.076 884.472C386.893 884.2 387.704 883.927 388.521 883.649C383.458 882.436 378.593 881.743 373.722 881.111C373.574 881.093 373.345 881.718 373.147 882.046C370.665 881.941 367.892 882.436 367.081 878.858C353.607 884.119 340.207 889.182 326.955 894.598C320.395 897.278 313.84 900.187 308.684 905.336C305.169 908.846 305.361 910.387 310.157 911.043C316.607 911.928 323.18 912.027 329.71 912.213C333.628 912.324 337.558 911.81 341.476 911.848C344.496 911.878 347.517 912.343 349.355 912.504C352.697 908.097 355.037 903.938 358.366 900.837C366.351 893.403 376.155 888.774 386.07 884.472H386.076ZM618.184 420.009C617.905 419.898 617.627 419.78 617.342 419.669C615.51 422.324 613.666 424.973 611.858 427.647C611.252 428.55 610.534 429.466 610.243 430.482C607.315 440.583 602.302 449.601 596.274 458.136C595.63 459.046 595.283 460.673 595.636 461.664C596.515 464.096 597.728 466.454 599.09 468.664C601.714 472.934 604.536 477.088 607.117 481.049C612.193 479.105 616.55 477.626 621.099 479.749C625.444 481.773 627.963 485.27 628.434 490.29C631.392 479.174 634.493 468.398 640.348 458.649C639.358 457.709 638.429 456.582 637.272 455.802C636.535 455.307 635.143 454.855 634.58 455.214C632.506 456.539 630.266 457.907 628.799 459.807C625.382 464.239 617.924 464.975 614.489 460.593C611.753 457.102 610.224 452.726 610.961 448.4C612.205 441.072 614.223 433.873 616.011 426.644C616.568 424.391 617.447 422.213 618.178 420.003L618.184 420.009ZM603.045 527.766C603.571 529.419 603.657 532 604.988 533.442C608.584 537.347 610.949 541.791 612.613 547.578C617.07 533.064 621.297 519.293 625.525 505.522C622.281 507.106 619.799 508.957 617.286 510.764C615.813 511.822 613.901 512.516 612.855 513.89C609.457 518.334 606.368 523.019 603.051 527.766H603.045ZM493.747 494.449C493.926 494.282 494.91 493.65 495.486 492.759C496.519 491.162 497.256 489.386 498.209 487.733C499.305 485.839 498.772 484.31 496.965 483.506C494.65 482.472 491.89 483.828 491.395 486.006C490.974 487.863 490.708 489.757 490.287 491.614C489.81 493.694 490.38 494.82 493.747 494.449ZM583.406 746.752C587.435 748.238 591.254 749.643 595.685 751.271C594.59 746.703 589.465 744.518 590.938 739.635C588.531 741.912 586.117 744.19 583.406 746.752ZM474.535 632.336C474.863 632.559 475.191 632.787 475.513 633.01C476.15 632.032 476.794 631.061 477.431 630.083C477.178 629.909 476.93 629.742 476.676 629.569C475.958 630.491 475.246 631.414 474.529 632.336H474.535ZM633.527 725.12C633.527 724.922 633.527 724.724 633.527 724.533H631.918C631.918 724.731 631.918 724.929 631.918 725.12H633.527ZM334.513 750.02L334.544 750.299L334.389 750.268L334.513 750.02Z" fill="black"/>
<path d="M301.201 776.963C302.42 778.058 303.838 779.005 304.834 780.28C312.682 790.251 320.462 800.278 328.236 810.305C331.665 814.724 335.075 819.162 338.405 823.655C338.9 824.33 338.9 825.369 339.129 826.242C337.681 824.812 336.233 823.389 334.784 821.959C332.884 819.285 330.984 816.612 329.078 813.938C328.911 813.752 328.75 813.573 328.583 813.387C328.428 813.282 328.261 813.251 328.081 813.282C326.41 811.183 324.739 809.086 323.062 806.993C320.728 803.787 318.457 800.532 316.043 797.381C311.568 791.551 306.976 785.813 302.507 779.977C301.857 779.129 301.622 777.972 301.188 776.963H301.201Z" fill="black"/>
<path d="M273.058 717.965C273.999 720.348 274.995 722.707 275.868 725.114C278.573 732.585 281.265 740.061 283.852 747.569C284.292 748.838 284.162 750.299 284.298 751.673C282.163 746.987 279.972 742.327 277.923 737.604C276.908 735.258 276.159 732.795 275.292 730.388C274.754 728.098 274.222 725.807 273.683 723.517C273.473 721.667 273.269 719.816 273.058 717.965Z" fill="black"/>
<path d="M357.45 633.679C361.585 634.867 364.791 632.434 368.208 630.887C369.47 630.311 370.634 629.513 371.847 628.82C371.983 628.956 372.125 629.08 372.286 629.197C371.209 631.822 370.132 634.44 368.925 637.386C364.865 636.266 360.576 635.083 356.293 633.907C356.677 633.833 357.067 633.759 357.45 633.685V633.679Z" fill="white"/>
<path d="M284.397 751.791C285.214 752.372 286.291 752.781 286.798 753.561C290.902 759.874 294.925 766.236 298.88 772.636C299.369 773.428 299.319 774.555 299.517 775.533C297.853 773.274 296.188 771.021 294.523 768.762C293.792 767.765 293.062 766.769 292.325 765.778C289.683 761.118 287.033 756.451 284.391 751.791H284.397Z" fill="black"/>
<path d="M298.855 906.748C298.837 909.657 298.824 912.566 298.806 915.475C298.422 914.85 298.038 914.224 297.654 913.599C297.463 912.782 297.277 911.965 297.085 911.148C297.673 909.681 298.261 908.214 298.849 906.754L298.855 906.748Z" fill="black"/>
<path d="M670.242 903.597C670.88 903.715 671.517 903.826 672.155 903.944C670.453 905.355 668.763 905.485 667.098 903.882C668.144 903.789 669.19 903.696 670.236 903.597H670.242Z" fill="black"/>
<path d="M417.097 882.145C416.886 882.058 416.682 881.972 416.472 881.885C417.914 881.693 419.35 881.507 420.792 881.315C419.56 881.588 418.328 881.866 417.097 882.138V882.145Z" fill="black"/>
<path d="M426.369 880.69C426.363 880.826 426.307 880.938 426.195 881.024C425.001 881.105 423.806 881.179 422.612 881.26C423.862 881.068 425.112 880.882 426.363 880.69H426.369Z" fill="black"/>
<path d="M386.076 884.466C382.208 883.822 378.346 883.185 374.484 882.516C374.026 882.436 373.592 882.201 373.153 882.04C373.345 881.712 373.58 881.086 373.728 881.105C378.6 881.736 383.464 882.429 388.527 883.643C387.71 883.915 386.899 884.187 386.082 884.466H386.076Z" fill="black"/>
<path d="M339.093 758.277C337.57 756.111 336.041 753.938 334.519 751.772L335.459 751.134C336.883 753.294 338.313 755.461 339.736 757.621C339.52 757.837 339.309 758.06 339.093 758.277Z" fill="white"/>
<path d="M488.968 661.71L488.937 659.321C489.129 659.259 489.321 659.222 489.519 659.21C489.339 660.045 489.154 660.875 488.968 661.71Z" fill="black"/>
<path d="M430.2 879.625C429.723 879.91 429.24 880.195 428.764 880.474C429.24 880.189 429.723 879.904 430.2 879.625Z" fill="black"/>
<path d="M334.512 750.014L334.382 750.262L334.543 750.293L334.512 750.014Z" fill="white"/>
<path d="M371.847 628.814C372.032 628.684 372.218 628.554 372.404 628.43C372.367 628.684 372.323 628.938 372.286 629.191C372.131 629.08 371.983 628.956 371.853 628.814H371.847Z" fill="white"/>
<path d="M651.495 628.9C656.112 625.273 661.478 623.293 667.203 622.835C670.075 622.606 672.885 624.308 674.903 626.505C678.264 630.163 679.885 634.904 679.316 639.552C678.728 644.349 677.131 649.288 672.211 652.036C670.465 653.014 668.998 654.462 667.333 655.595C663.217 658.399 658.656 657.842 655.017 654.209C652.528 651.727 649.929 649.35 647.509 646.794C646.834 646.082 646.054 644.727 646.302 643.99C647.917 639.168 647.738 633.753 651.055 629.501C651.204 629.297 651.346 629.099 651.495 628.894V628.9Z" fill="black"/>
<path d="M656.947 556.485C650.591 557.809 646.952 553.632 642.978 550.159C642.371 549.633 641.913 548.934 641.4 548.302C638.293 544.465 638.323 543.27 640.409 538.839C641.591 536.326 642.08 533.491 643.058 530.873C643.461 529.809 644.148 528.632 645.045 528.001C649.656 524.77 654.923 522.914 660.426 522.313C665.414 521.768 670.812 527.853 670.929 533.12C670.96 534.562 672.192 535.986 672.204 537.422C672.285 544.942 668.082 549.8 661.948 553.452C660.16 554.516 658.625 556.008 656.972 557.302C656.96 557.029 656.954 556.757 656.941 556.485H656.947Z" fill="black"/>
<path d="M624.819 708.452C619.292 708.31 616.686 703.94 613.208 701.006C613.065 700.883 613.059 700.604 612.923 700.468C610.311 697.918 608.584 695.238 610.447 691.351C611.258 689.655 611.518 687.656 611.821 685.762C612.539 681.349 615.751 678.954 619.267 677.239C622.683 675.568 626.416 674.194 630.154 673.631C634.357 673 640.385 678.65 641.796 683.15C643.108 687.34 642.558 691.45 641.598 695.455C641.171 697.25 639.543 698.927 638.107 700.282C635.65 702.603 633.057 704.831 630.253 706.694C628.731 707.709 626.651 707.895 624.825 708.452H624.819Z" fill="black"/>
<path d="M669.271 752.186C662.493 751.79 659.033 747.761 655.549 743.781C655.363 743.571 655.413 743.107 655.215 742.971C651.26 740.272 652.962 737.208 654.441 733.984C655.165 732.399 655.487 730.561 655.648 728.809C656.025 724.743 659.157 722.824 662.066 721.295C665.501 719.494 669.369 718.207 673.201 717.532C678.022 716.69 683.772 723.14 684.961 727.973C685.784 731.334 685.573 734.225 685.171 737.419C684.75 740.718 683.048 743.224 680.764 745.254C678.493 747.278 675.85 748.925 673.244 750.528C671.821 751.4 670.125 751.84 669.277 752.18L669.271 752.186Z" fill="black"/>
<path d="M698.027 596.053C694.833 600.398 690.166 600.008 685.636 599.754C680.82 599.488 675.244 593.311 675.194 588.502C675.169 585.927 675.058 583.359 674.953 580.784C674.773 576.222 680.096 567.415 684.36 565.88C686.149 565.236 688.334 564.58 689.987 567.013C690.575 567.873 692.469 568.145 693.768 568.151C695.99 568.164 697.364 568.981 698.25 571.017C698.683 572.026 700.069 572.366 700.707 572.868C702.564 574.316 703.628 576.823 704.866 578.989C705.188 579.552 704.854 580.468 705.12 581.087C706.754 584.906 705.782 589.87 702.78 592.302C701.672 593.2 700.484 593.992 699.326 594.834C698.893 595.236 698.454 595.638 698.02 596.041L698.027 596.053Z" fill="black"/>
<path d="M712.095 537.378C710.64 531.907 712.015 526.869 714.175 521.948C715.84 518.148 719.108 516.006 722.654 514.428C723.545 514.032 725.594 514.954 726.368 515.889C727.302 517.015 727.946 517.102 729.283 517.009C731.561 516.848 733.696 517.3 734.73 519.986C735.07 520.865 736.45 521.533 737.496 521.905C740.461 522.951 741.55 525.049 741.457 528.014C741.439 528.608 741.513 529.233 741.668 529.808C742.107 531.399 743.333 533.175 742.949 534.5C741.984 537.848 740.869 541.339 737.242 543.097C736.085 543.66 735.07 544.613 734.135 545.536C730.125 549.491 721.094 550.141 716.96 546.179C714.552 543.871 713.042 540.627 711.129 537.805C711.451 537.663 711.779 537.52 712.101 537.378H712.095Z" fill="black"/>
<path d="M668.423 493.242C667.519 487.634 668.8 482.528 671.165 477.707C672.885 474.191 676.067 472.012 679.52 470.341C680.146 470.038 681.6 470.125 681.792 470.484C683.444 473.677 686.867 472.538 689.269 473.776C690.104 474.209 690.587 475.274 691.323 475.955C692.085 476.654 692.871 477.521 693.799 477.824C697.018 478.858 698.355 480.999 698.113 484.273C698.082 484.676 697.996 485.301 698.206 485.468C701.338 487.876 699.89 490.84 698.67 493.217C697.445 495.594 695.26 497.488 693.422 499.524C692.561 500.477 691.379 501.164 690.599 502.167C688.025 505.472 684.354 505.002 680.969 504.797C678.889 504.674 676.735 503.757 674.854 502.742C671.084 500.712 669.797 496.893 668.429 493.242H668.423Z" fill="black"/>
<path d="M719.312 419.471C720.049 421.779 721.831 422.367 724.251 422.237C725.198 422.188 726.294 422.949 727.136 423.58C728.59 424.676 729.76 426.198 731.307 427.102C733.566 428.427 734.13 430.321 734.823 432.71C735.609 435.421 737.162 437.847 735.931 440.781C735.504 441.796 735.318 443.102 734.569 443.764C730.93 447.001 727.606 451.432 723.304 452.918C712.417 456.675 704.507 448.505 704.965 438.082C705.207 432.611 706.531 427.548 710.239 423.197C712.671 420.337 715.469 419.006 719.312 419.471Z" fill="black"/>
<path d="M725.229 728.921C725.699 722.075 727.166 715.681 733.077 711.194C735.837 709.096 737.973 709.189 740.671 711.269C741.606 711.987 743.042 712.042 744.23 712.444C745.226 712.785 746.619 712.909 747.114 713.62C748.575 715.743 750.19 717.408 752.778 718.089C753.421 718.256 754.096 719.129 754.356 719.828C755.297 722.341 756.627 724.885 756.77 727.472C756.986 731.489 755.123 734.943 751.923 737.543C750.228 738.917 748.42 740.185 746.904 741.733C744.385 744.301 737.62 745.601 732.148 742.339C727.302 739.449 725.006 734.751 725.235 728.921H725.229Z" fill="black"/>
<path d="M762.94 561.096C767.186 560.161 771.042 560.886 774.929 562.606C779.93 564.828 784.659 572.936 783.099 578.117C782.4 580.444 780.37 582.424 778.748 584.399C776.303 587.37 774.193 590.922 769.866 591.442C768.22 591.64 765.738 591.869 764.983 590.966C763.671 589.394 762.303 589.493 760.75 589.301C754.09 588.478 748.878 583.353 748.767 576.928C748.736 574.886 749.695 572.398 751.044 570.85C753.824 567.663 757.129 564.927 760.31 562.111C760.972 561.529 762.055 561.424 762.947 561.096H762.94Z" fill="black"/>
<path d="M775.053 660.664C782.239 660.893 789.518 667.38 790.397 674.169C790.83 677.499 790.44 680 787.612 682.178C785.916 683.484 784.362 685.353 783.508 687.303C782.066 690.584 778.798 690.819 776.297 692.205C775.301 692.756 772.454 692.193 772.231 691.531C771.439 689.21 769.749 689.847 768.257 689.618C761.802 688.615 756.782 684.14 755.724 677.914C755.235 675.042 756.528 672.251 758.62 670.295C761.567 667.54 764.686 664.873 768.084 662.719C770.052 661.475 772.714 661.314 775.059 660.67L775.053 660.664Z" fill="black"/>
<path d="M591.544 616.868C593.463 620.08 595.171 622.736 596.657 625.502C597.492 627.05 598.439 627.823 600.253 628.387C604.301 629.643 608.522 630.968 610.911 635.009C611.251 635.585 611.753 636.482 611.542 636.916C609.815 640.406 612.031 643.631 612.105 646.992C612.223 652.141 607.315 657.687 602.134 658.696C598.582 659.389 595.097 659.401 592.306 657.464C588.388 654.747 585.144 651.244 584.705 645.94C584.482 643.229 583.789 640.79 584.606 637.844C585.504 634.619 587.187 632.54 589.551 630.621C592.306 628.387 590.542 625.558 589.83 623.472C589.007 621.058 589.254 619.499 591.544 616.868Z" fill="black"/>
<path d="M575.056 698.203C575 704.522 569.801 709.802 563.692 710C560.134 710.118 556.531 710.08 553.926 707.499C551.704 705.296 549.302 702.684 548.467 699.818C547.439 696.321 547.47 692.304 547.947 688.628C548.442 684.797 551.567 682.228 554.551 680.043C555.733 679.177 557.689 678.774 559.15 679.01C562.578 679.573 565.995 680.433 569.275 681.578C572.5 682.705 574.524 686.783 574.357 690.38C574.295 691.648 574.821 692.942 574.976 694.235C575.087 695.133 575.025 696.055 575.038 696.965C575.044 697.38 575.05 697.788 575.056 698.203Z" fill="black"/>
<path d="M526.828 342.525C532.962 342.271 533.965 342.933 538.372 349.531C543.428 346.789 548.529 343.954 553.715 341.287C554.798 340.73 556.352 340.321 557.423 340.662C558.896 341.132 559.527 341.924 558.4 344.109C555.021 350.657 549.506 354.136 542.995 356.568C538.236 358.351 534.602 355.968 531.025 353.461C531.291 353.294 531.557 353.127 531.823 352.966C531.501 351.901 531.322 350.769 530.827 349.791C529.682 347.526 528.382 345.334 526.822 342.525H526.828Z" fill="black"/>
<path d="M626.911 302.918C624.274 300.969 623.866 297.509 625.011 294.606C628 286.993 634.759 283.967 641.567 281.479C644.965 280.241 649.001 280.76 652.746 280.482C652.863 281.027 652.987 281.571 653.104 282.116C648.103 283.973 643.096 285.836 637.872 287.779C639.253 289.679 640.187 290.775 640.887 292.001C641.506 293.084 641.598 294.123 640.589 295.318C639.649 296.426 639.197 297.967 638.603 299.347C637.681 301.508 636.22 302.498 633.478 302.578C633.626 301.043 633.781 299.539 633.936 297.942C633.026 297.484 631.968 296.946 630.674 296.296C629.43 298.487 628.229 300.591 626.905 302.918H626.911Z" fill="black"/>
<path d="M495.603 602.663C491.76 602.936 488.702 594.271 491.054 588.106C500.183 587.685 509.183 588.415 517.897 591.653C510.371 592.785 502.925 592.532 495.603 590.495V602.663Z" fill="black"/>
<path d="M611.456 619.387C609.729 621.139 608.813 622.847 607.544 623.169C605.576 623.67 601.151 620.353 601.72 619.164C602.525 617.462 604.654 614.739 605.421 614.98C607.532 615.649 609.228 617.629 611.462 619.387H611.456Z" fill="black"/>
<path d="M575.96 609.602C571.695 603.511 572.19 598.702 577.086 595.546C578.052 594.921 579.426 594.89 580.633 594.735C580.942 594.698 581.512 595.174 581.617 595.521C581.691 595.762 581.252 596.295 580.917 596.511C576.344 599.513 574.685 603.685 575.954 609.602H575.96Z" fill="black"/>
<path d="M500.864 603.524C500.32 601.426 499.831 599.538 499.317 597.57C503.092 598.195 503.588 600.027 500.864 603.524Z" fill="black"/>
<path d="M578.931 620.012C579.191 620.056 579.444 620.105 579.704 620.148C579.593 620.278 579.481 620.415 579.376 620.545C579.197 620.365 579.017 620.179 578.85 620C578.862 620 578.931 620.012 578.931 620.012Z" fill="black"/>
<path d="M578.633 620.829C578.739 620.563 578.85 620.291 578.943 620.018C578.93 620.018 578.862 620 578.85 620C578.893 620.39 578.943 620.786 578.992 621.176C578.868 621.065 578.745 620.953 578.633 620.829Z" fill="black"/>
</svg>
