<svg width="1080" height="1080" viewBox="0 0 1080 1080" fill="none" xmlns="http://www.w3.org/2000/svg">
<path d="M552.139 955.395C552.473 955.11 553.204 954.472 554.547 953.315C549.224 953.711 544.613 954.064 540.002 954.392C537.867 954.547 535.725 954.695 533.584 954.77C527.537 954.986 521.477 955.494 515.442 955.283C507.631 955.005 499.783 954.51 492.047 953.445C481.828 952.04 471.628 950.294 461.539 948.134C447.799 945.188 435.278 939.08 423.06 932.29C415.119 927.877 406.671 924.287 399.095 919.348C388.418 912.391 377.927 905.007 368.098 896.911C357.341 888.054 348.193 877.47 341.528 865.104C338.13 858.803 333.89 854.817 326.314 854.341C321.567 854.044 316.881 852.428 312.233 851.153C307.913 849.965 303.654 848.523 299.427 847.037C298.189 846.604 296.735 845.88 296.091 844.846C293.349 840.47 290.49 836.094 288.379 831.397C284.752 823.313 281.094 815.162 278.501 806.714C276.032 798.661 274.67 790.244 273.252 781.907C271.73 772.932 270.609 763.889 269.514 754.847C268.889 749.672 268.734 744.442 268.226 739.25C267.063 727.347 265.602 715.464 264.68 703.543C264.179 697.088 264.482 690.564 264.519 684.077C264.6 668.845 264.724 653.613 264.86 638.381C264.922 631.121 264.612 623.83 265.244 616.619C265.986 608.159 267.546 599.772 268.79 591.361C269.811 584.472 270.603 577.527 272.033 570.719C273.265 564.876 275.146 559.164 276.947 553.457C278.191 549.514 277.808 546.203 274.459 543.455C273.618 542.762 272.974 541.765 272.392 540.812C268.276 534.01 260.676 530.742 255.916 524.707C249.448 516.506 243.29 508.039 237.342 499.449C234.42 495.234 233.331 490.121 233.015 485.015C232.731 480.435 233.981 476.214 236.964 472.549C238.338 470.86 239.619 469.028 240.572 467.078C243.89 460.282 250.104 456.717 256.108 452.966C263.943 448.064 272.045 443.527 279.027 437.419C282.858 434.07 285.668 429.775 285.52 424.458C285.334 417.872 284.715 411.293 284.065 404.733C283.947 403.563 282.939 402.337 282.047 401.421C277.801 397.045 276.124 391.698 275.579 385.774C275.276 382.488 274.527 379.226 273.84 375.983C270.566 360.435 273.258 346.323 283.471 333.802C289.134 326.858 295.874 321.3 303.326 316.435C316.763 307.658 330.486 299.247 343.341 289.672C351.282 283.755 357.923 276.062 364.998 269.018C374.888 259.171 382.396 247.516 389.482 235.614C395.208 226.002 400.679 216.229 405.934 206.357C409.06 200.489 411.146 194.059 414.407 188.278C419.904 178.542 425.821 169.035 431.818 159.602C437.296 150.993 442.773 142.34 448.913 134.201C453.691 127.857 459.936 122.967 467.816 120.541C475.255 118.251 482.596 115.658 490.023 113.337C499.697 110.31 509.562 110.675 519.459 111.907C532.271 113.504 543.586 118.647 553.6 126.644C557.963 130.129 561.788 134.3 566.245 137.649C575.609 144.674 585.29 151.278 596.245 155.666C608.017 160.376 619.764 165.167 629.995 172.835C645.976 184.812 659.488 199.041 668.896 216.854C672.999 224.634 677.579 232.21 681.039 240.269C684.691 248.779 687.544 257.685 687.254 267.205C686.913 278.346 684.301 289.072 681.057 299.649C678.501 307.993 676.007 316.379 672.95 324.549C670.307 331.593 666.909 338.351 663.845 345.24C660.602 352.519 658.355 360.014 658.788 368.104C659.277 377.233 662.143 385.614 668.27 392.341C670.622 394.916 674.608 396.296 678.105 397.472C684.771 399.713 689.419 404.299 693.281 409.74C696.531 414.326 699.422 419.209 702.089 424.161C704.546 428.716 704.831 433.693 704.751 438.923C704.484 456.234 694.34 467.004 681.237 475.997C680.018 476.832 678.508 477.241 676.917 477.947C678.39 479.643 680.247 481.215 681.33 483.208C682.197 484.804 682.005 486.946 682.494 488.79C682.89 490.276 683.341 491.848 684.202 493.086C690.707 502.481 690.825 505.174 684.295 514.829C680.433 520.542 674.967 524.342 668.283 525.704C663.096 526.762 657.699 526.787 652.246 527.282C651.794 531.54 651.652 536.64 650.581 541.536C650.031 544.068 648.254 546.711 646.292 548.481C642.256 552.114 637.726 555.19 632.83 558.934C637.051 564.363 641.402 570.391 646.255 575.986C648.539 578.617 652.128 580.096 654.518 582.665C659.03 587.511 663.331 592.586 667.305 597.884C672.943 605.404 678.514 613.017 683.502 620.971C686.04 625.018 687.247 629.896 689.061 634.42C691.561 631.202 695.659 630.756 699.558 629.815C702.875 629.017 706.168 628.107 709.492 627.358C714.251 626.287 718.943 625.514 723.882 626.962C726.067 627.606 728.709 627.086 731.068 626.646C739.491 625.068 747.055 627.197 754.148 631.604C754.909 632.074 755.832 632.737 756.086 633.51C758.134 639.712 763.822 643.258 767.003 648.699C770.222 654.214 774.511 659.103 778.324 664.271C778.503 664.519 778.683 664.76 779.401 664.859C779.172 662.464 778.782 660.075 778.757 657.68C778.726 654.944 778.367 652.184 780.7 649.832C783.158 647.362 786.098 646.755 789.13 647.244C791.73 647.665 794.212 648.94 796.657 650.036C797.121 650.246 797.083 651.428 797.418 652.091C799.776 656.708 802.01 661.406 804.604 665.893C807.457 670.82 810.998 675.369 813.597 680.413C816.073 685.21 817.942 690.354 819.693 695.472C823.141 705.524 824.385 715.928 824.769 726.549C825.134 736.712 825.035 746.794 823.469 756.84C822.324 764.18 820.059 771.18 815.844 777.326C810.843 784.611 805.47 791.643 800.296 798.804C797.653 802.455 795.146 806.212 792.466 809.833C789.842 813.367 787.032 816.765 784.377 820.281C782.347 822.961 780.583 825.851 778.441 828.438C773.112 834.863 767.412 840.984 762.293 847.563C758.035 853.041 754.451 859.032 750.478 864.733C747.544 868.935 744.814 873.175 743.973 878.393C742.927 884.854 740.903 891.273 740.847 897.728C740.816 901.095 744.078 904.5 745.929 907.842C746.102 908.158 746.826 908.306 747.29 908.294C755.374 908.182 761.656 912.038 766.923 917.621C769.875 920.753 773.397 921.341 777.172 920.969C784.036 920.301 789.817 922.703 795.06 926.732C798.043 929.022 800.952 931.454 803.589 934.122C806.331 936.901 808.707 940.033 811.22 943.035C811.467 943.325 811.715 943.833 811.628 944.155C810.781 947.299 812.056 950.455 811.586 953.562C811.165 956.36 805.891 959.764 802.561 960.377C795.363 961.695 788.146 960.724 780.96 961.033C774.505 961.312 768.093 962.451 761.656 963.212C757.62 963.689 753.585 964.147 749.555 964.654C748.658 964.766 747.717 964.902 746.913 965.267C736.756 969.94 725.924 972.199 714.944 973.158C704.948 974.031 694.835 974.167 684.802 973.765C676.341 973.424 667.955 971.487 659.494 970.924C650.036 970.293 640.53 970.237 631.041 970.268C622.011 970.293 613.191 969.166 604.724 966.084C599.079 964.029 593.324 963.41 587.4 963.348C586.101 963.336 584.832 962.37 583.507 962.197C581.917 961.993 580.245 961.943 578.673 962.209C572.31 963.292 565.991 964.673 559.61 965.626C557.505 965.941 555.092 965.706 553.105 964.951C550.487 963.961 551.855 961.38 551.842 959.436C551.836 958.223 552.034 957.01 552.177 955.388L552.139 955.395Z" fill="white"/>
<path d="M821.55 663.875C821.934 664.339 822.23 664.958 822.719 665.237C826.786 667.533 828.482 670.937 827.758 675.561C827.702 675.914 827.9 676.304 828.16 677.541C829.206 675.115 830.197 673.469 830.593 671.692C830.89 670.343 831.298 670.139 832.567 670.145C835.117 670.157 837.704 670.523 839.029 667.106C839.654 665.497 841.201 666.982 841.919 667.997C844.872 672.181 846.84 676.879 848.344 681.707C849.575 685.668 851.834 689.177 852.608 693.355C854.743 704.905 855.616 716.516 854.806 728.208C854.323 735.177 852.986 742.177 850.714 748.694C848.232 755.812 846.369 763.264 842.16 769.775C838.533 775.383 835.99 781.807 831.756 786.858C828.575 790.652 827.294 795.783 822.912 798.68C821.531 799.59 821.649 801.824 820.541 803.266C816.697 808.242 812.612 813.089 809.016 818.17C805.532 823.091 801.651 827.751 797.912 832.362C793.506 837.79 789.91 843.782 785.355 849.061C780.706 854.44 777.117 860.74 771.899 865.581C766.706 870.396 762.603 876.276 756.859 880.534C754.395 882.36 753.052 885.275 750.657 887.268C749.32 888.382 748.806 890.196 750.18 892.059C751.233 893.482 750.948 895.494 752.074 897.035C752.47 897.58 752.774 899.016 751.523 899.727C750.725 900.179 750.861 901.083 751.102 901.671C751.746 903.255 751.573 904.772 751.22 906.368C750.762 908.442 751.623 909.321 753.82 909.68C761.16 910.881 768.464 912.323 775.779 913.703C783.999 915.25 791.383 919.335 799.392 921.502C803.836 922.702 807.748 924.98 811.517 927.332C816.598 930.501 821.234 934.252 822.906 940.67C823.605 943.356 824.539 946.067 825.109 948.772C826.31 954.491 822.639 957.883 818.629 961.188C812.427 966.307 805.253 966.48 797.77 966.356C788.647 966.201 779.636 965.131 770.605 964.066C769.238 963.905 767.863 963.62 766.434 963.559C762.206 963.391 759.823 966.628 757.02 968.553C752.31 971.79 747.228 973.003 741.886 973.226C734.298 973.542 726.704 974.433 719.295 975.516C709.819 976.897 700.424 976.618 690.998 977.175C683.88 977.596 676.879 977.064 669.836 976.482C667.639 976.302 665.392 976.68 663.213 976.42C652.345 975.108 641.476 974.093 630.509 974.514C627.649 974.625 624.759 973.951 621.899 974.068C616.069 974.316 610.282 974.371 604.427 974.105C593.992 973.635 583.482 973.406 573.071 973.622C562.611 973.845 552.207 973.096 541.778 973.146C528.366 973.201 514.916 972.744 501.498 972.546C494.027 972.434 486.544 971.605 479.067 972.087C472.723 972.496 466.404 972.23 460.109 971.481C456.229 971.023 452.434 972.069 448.51 971.636C443.423 971.078 438.242 970.998 433.13 970.967C425.053 970.918 416.981 970.447 408.935 970.441C402.393 970.441 395.851 970.101 389.309 970.187C387.217 970.212 385.051 970.608 383.101 969.203C381.826 968.287 380.966 970.175 379.988 970.113C376.905 969.915 373.656 971.264 370.735 969.178C370.307 968.869 369.534 969.017 368.921 969.005C360.547 968.788 352.173 968.479 343.799 968.411C340.574 968.386 337.745 966.22 334.502 966.857C326.431 968.448 318.348 967.099 310.271 967.111C307.894 967.111 305.548 968.516 302.615 967.123C304.744 966.529 306.093 965.378 308.123 965.428C312.653 965.539 317.191 965.347 321.721 965.261C322.699 965.242 323.85 965.595 324.333 964.258C325.187 961.9 327.168 962.129 329.08 962.178C341.737 962.494 354.376 961.627 367.021 961.355C374.609 961.194 382.253 961.603 389.792 960.829C395.275 960.266 400.636 961.052 406.051 960.94C408.168 960.897 410.148 960.705 412.253 959.888C418.541 957.443 425.269 958.031 431.867 957.864C433.235 957.827 434.763 958.192 435.729 956.441C432.993 954.968 429.955 955.302 427.176 954.305C420.504 951.916 414.568 948.147 408.273 945.083C398.958 940.553 390.794 934.233 382.624 927.889C379.072 925.135 375.754 922.059 372.22 919.292C368.68 916.519 365.579 912.824 362.428 909.389C356.14 902.531 350.142 895.426 345.228 887.571C341.638 881.834 337.758 876.27 334.44 870.322C332.373 866.614 330.597 862.758 328.61 859.02C327.861 857.609 327.205 857.398 325.886 857.355C318.7 857.095 311.514 856.94 304.36 855.987C298.449 855.201 292.65 855.758 287.11 858.5C285.253 859.416 282.963 858.933 281.236 861.007C280.525 861.861 278.055 859.527 276.075 859.961C275.914 859.998 275.715 859.769 275.517 859.713C273.264 859.088 269.854 861.291 269.786 855.907C269.749 853.103 269.08 850.547 270.627 847.972C271.147 847.105 271.216 846.542 269.823 846.226C269.062 846.053 268.084 845.236 267.353 844.871C264.017 843.2 266.438 840.526 266.221 838.533C266.079 837.264 268.87 837.778 270.312 837.871C274.799 838.162 274.818 838.236 273.691 833.959C272.317 828.742 271.141 823.456 269.408 818.362C268.208 814.828 266.338 811.442 266.115 807.698C265.806 802.505 264.413 797.541 263.2 792.571C262.03 787.762 261.09 782.922 259.994 778.112C258.466 771.44 258.441 764.626 257.32 757.923C256.472 752.854 255.247 747.859 254.554 742.777C253.638 736.087 252.951 729.371 252.183 722.662C251.787 719.214 250.809 715.693 251.199 712.338C251.602 708.891 251.199 705.616 250.933 702.28C250.104 691.975 250.067 681.633 250.45 671.346C250.809 661.74 251.174 652.047 252.437 642.553C253.291 636.11 252.877 629.456 254.721 623.217C256.807 616.168 256.305 608.79 257.914 601.783C259.381 595.396 259.134 588.749 261.047 582.596C262.031 579.427 263.157 576.333 263.429 573.059C263.943 566.968 266.462 561.336 267.223 555.277C267.626 552.101 269.526 549.149 269.792 545.541C265.738 546.531 262.644 544.662 259.827 541.988C258.602 540.824 257.809 539.487 257.24 537.878C255.581 533.211 252.827 529.956 248.03 527.492C240.962 523.865 234.686 518.988 230.446 511.579C226.751 505.118 224.09 498.52 224.003 491.241C223.935 485.485 225.093 479.71 225.842 473.96C226.064 472.277 226.795 470.779 228.163 469.492C230.836 466.979 231.307 462.882 234.247 460.499C239.464 456.265 244.026 451.307 250.296 448.25C253.526 446.678 256.627 444.301 259.549 441.968C262.959 439.238 266.797 436.973 269.501 433.432C275.189 425.98 275.517 417.699 273.036 409.059C271.272 402.925 268.394 397.256 265.577 391.568C261.709 383.763 257.89 376.001 255.748 367.41C252.901 356.01 255.488 346.447 262.501 337.213C265.54 333.208 268.789 329.538 272.323 326.084C278.476 320.074 285.593 315.345 293.014 311.05C299.383 307.367 305.598 303.406 312.023 299.829C316.949 297.081 321.913 294.388 326.474 291.077C332.986 286.348 340.023 282.369 345.723 276.464C348.688 273.394 352.891 271.463 355.515 267.953C358.356 264.159 361.357 260.235 364.656 257.184C368.277 253.835 369.813 249.323 373.248 246.031C375.525 243.846 376.441 240.454 378.422 237.811C384.599 229.561 387.966 219.862 392.237 210.603C393.926 206.939 394.372 203.033 395.95 199.419C398.228 194.207 400.747 189.057 402.505 183.667C404.015 179.037 407.141 175.484 409.282 171.337C411.801 166.448 415.496 162.276 417.433 156.997C418.158 155.028 419.947 153.017 421.55 151.556C425.368 148.065 426.977 143.089 430.418 139.481C432.554 137.24 434.559 135.03 435.772 132.159C435.902 131.849 436.397 131.645 436.763 131.49C442.463 129.021 445.28 123.023 450.695 120.126C452.249 119.297 453.777 118.233 455.355 117.403C462.783 113.516 470.408 110.162 478.33 107.271C487.645 103.873 497.147 103.192 506.808 102.338C514.155 101.688 521.439 102.078 528.675 102.641C534.121 103.069 539.37 105.154 544.6 107.03C547.887 108.206 551.421 108.967 554.831 109.982C562.209 112.173 569.172 115.478 576.426 117.966C579.483 119.019 582.232 120.541 584.936 122.219C587.493 123.803 590.637 123.494 593.267 124.793C596.838 126.557 600.23 128.798 603.95 130.147C608.555 131.818 612.485 134.746 616.477 137.215C621.893 140.57 627.631 143.572 632.7 147.651C635.237 149.693 638.536 150.974 641.204 153.19C644.682 156.08 648.359 158.723 651.633 161.88C653.917 164.09 656.48 166.008 658.757 168.224C663.604 172.94 668.803 177.298 672.405 183.202C675.184 187.751 678.613 191.874 681.484 196.392C684.325 200.861 686.9 205.509 689.066 210.256C690.434 213.258 692.068 216.507 692.056 220.103C692.056 220.92 692.681 221.676 693.108 222.449C695.572 226.868 696.809 231.764 698.152 236.623C700.721 245.907 702.38 255.271 702.151 264.97C702.002 271.271 701.266 277.51 700.832 283.773C700.665 286.193 699.291 288.366 698.697 290.774C697.422 295.948 696.017 301.246 693.356 305.919C691.375 309.391 689.722 313.012 686.807 316.113C684.065 319.028 683.137 323.584 681.101 327.242C676.811 334.978 675.332 343.39 674.02 351.999C673.525 355.236 672.54 358.634 672.602 361.803C672.739 369.094 676.731 374.739 681.949 379.672C686.3 383.781 691.208 387.117 695.974 390.67C698.703 392.707 701.749 394.186 704.559 396.098C710.928 400.437 715.068 406.304 718.193 413.138C722.984 423.604 722.916 434.565 722.087 445.731C721.728 450.546 721.121 455.281 719.339 459.676C717.983 463.03 717.123 466.546 715.612 469.851C712.115 477.495 706.198 482.223 698.697 485.77C695.54 487.261 692.328 487.874 688.906 488.97C690.787 490.814 691.375 493.408 693.349 495.165C694.098 495.834 694.544 497.171 694.612 498.235C695.089 505.854 694.259 513.195 689.716 519.706C684.084 527.783 670.016 532.382 660.694 529.083C659.921 528.811 658.763 528.916 658.868 527.48C658.961 526.168 659.692 526.056 660.806 525.697C666.933 523.723 673.451 522.937 679.027 519.279C683.719 516.197 686.485 511.926 687.816 506.634C688.187 505.167 687.674 503.929 686.356 502.654C681.497 497.963 676.527 493.296 672.349 488.029C669.217 484.086 665.572 480.509 662.997 476.114C661.425 473.434 658.38 472.172 656.752 469.436C653.614 464.15 650.649 458.766 647.616 453.424C643.593 446.344 640.727 438.533 635.479 432.257C632.749 428.995 630.039 425.652 626.678 422.781C621.268 418.151 615.258 414.536 609.434 410.588C608.035 409.641 608.264 406.255 609.849 405.197C611.111 404.355 612.46 403.624 613.723 402.783C614.317 402.387 614.781 401.854 614.292 401.006C613.444 399.546 613.636 401.446 613.005 401.409C610.263 401.248 607.905 402.616 605.621 403.903C603.876 404.887 602.446 404.862 601.01 403.513C604.371 402.548 606.414 399.502 609.577 398.122C610.988 397.503 611.402 395.486 610.833 394.068C610.115 392.286 608.314 393.313 607.367 393.79C602.409 396.296 597.08 396.606 591.708 397.138C588.44 397.46 585.382 399.471 581.872 398.382C581.452 398.252 580.734 398.803 580.257 399.174C574.186 403.959 566.857 404.51 559.634 404.992C553.822 405.382 547.893 404.77 542.23 406.385C535.78 408.223 530.123 411.281 525.654 416.727C522.164 420.986 518.691 425.238 515.906 429.942C513.616 433.804 513.177 438.508 511.388 442.574C508.411 449.345 507.123 456.649 504.251 463.395C502.444 467.641 500.662 472.11 498.05 475.755C495.785 478.912 493.785 482.471 490.524 485.083C487.813 487.249 485.046 489.731 483.035 492.541C479.303 497.74 480.584 503.744 482.954 508.912C484.805 512.96 486.488 517.187 488.933 520.987C490.183 522.931 492.003 524.453 492.851 526.712C493.278 527.858 494.875 527.35 495.834 528.353C498.774 531.441 500.953 535.124 504.06 538.107C508.009 541.895 511.827 545.745 516.76 548.301C519.143 549.533 521.248 551.377 523.711 552.337C526.304 553.352 529.182 553.649 531.943 554.243C535.885 555.097 539.853 555.221 543.777 554.218C546.16 553.612 548.221 552.46 550.016 550.591C556.292 544.061 557.276 536.034 556.967 527.567C556.868 524.899 556.799 522.225 556.682 519.551C556.626 518.27 556.917 517.014 555.809 515.819C555.209 515.169 555.066 513.826 556.063 512.768C557.319 511.431 557.152 509.302 556.404 508.225C555.302 506.653 555.543 505.167 555.462 503.608C555.048 496.026 554.874 488.438 555.462 480.856C555.58 479.389 555.079 477.792 556.818 476.727C557.685 476.195 556.997 475.031 557.065 474.177C557.517 468.743 558.953 463.531 561.107 458.524C561.188 458.339 561.275 458.109 561.429 458.004C562.822 457.063 563.701 454.588 565.31 455.058C566.795 455.491 565.923 457.8 565.904 459.236C565.861 462.306 565.44 465.376 565.329 468.446C565.081 475.557 564.66 482.675 564.79 489.781C564.963 499.096 566.882 508.311 567.253 517.583C567.711 529.077 569.915 540.806 564.79 552.002C563.707 554.367 561.423 555.035 559.845 556.651C552.968 563.657 544.253 564.047 535.353 561.992C531.417 561.082 527.091 561.577 523.544 559.256C519.521 556.62 515.021 554.874 511.456 551.297C507.675 547.509 504.053 543.579 500.408 539.673C498.706 537.847 497.932 535.297 495.531 533.83C493.265 539.673 489.589 545.027 486.29 550.604C484.78 553.16 482.669 554.893 480.602 556.706C479.513 557.666 479.556 558.161 479.822 559.386C481.37 566.603 484.644 573.263 486.445 580.393C487.547 584.75 488.327 589.275 490.097 593.354C493.767 601.814 496.181 611.006 503.602 617.467C506.919 620.358 509.735 623.824 512.762 627.042C513.108 627.407 513.592 627.878 513.592 628.299C513.629 634.408 519.428 635.868 522.721 639.149C526.608 643.011 531.231 646.242 535.62 649.584C540.361 653.198 544.495 657.358 548.778 661.393C553.897 666.215 558.73 671.34 563.818 676.204C567.984 680.184 571.704 684.721 577.367 686.887C579.855 687.84 581.811 690.019 584.837 690.322C584.627 687.729 583.197 685.687 582.176 683.458C580.313 679.386 578.92 675.115 578.444 670.634C578.295 669.254 579.088 667.973 580.616 667.744C582.473 667.471 584.095 667.397 585.914 668.919C591.868 673.902 592.215 680.661 592.568 687.512C592.63 688.744 592.574 689.982 592.574 691.201C598.243 691.795 599.698 687.048 601.976 683.725C604.928 679.411 600.261 675.876 600.1 671.81C601.726 672.206 603.104 673.725 604.235 676.365C605.231 675.592 604.934 674.484 604.941 673.512C604.978 667.286 604.439 661.009 602.167 655.284C600.373 650.766 599.16 645.734 596.176 641.934C593.292 638.264 591.274 634.055 587.981 630.552C585.419 627.822 582.882 624.876 580.208 622.215C576.717 618.748 572.966 615.474 568.628 612.968C564.982 610.863 561.98 607.787 558.161 605.893C555.085 604.364 552.517 602.099 549.905 599.889C548.797 598.955 547.819 597.698 548.295 596.727C549.112 595.068 551.192 595.903 552.127 596.498C555.754 598.806 560.111 599.599 563.589 601.994C568.671 605.497 574.087 608.468 579.094 612.126C582.919 614.917 586.162 618.315 589.257 621.651C593.199 625.903 596.554 630.83 599.859 635.707C603.232 640.69 605.683 646.118 608.307 651.447C610.851 656.615 612.052 662.334 612.863 668.034C613.859 675.047 613.631 682.01 611.124 688.775C609.775 692.408 607.651 695.707 605.281 698.567C601.976 702.553 594.307 703.524 588.805 701.29C584.658 699.606 580.201 698.567 576.482 695.992C572.353 693.132 568.07 690.613 564.363 686.968C558.743 681.453 553.092 675.932 547.968 670.015C543.468 664.816 538.479 660.081 534.115 654.771C530.946 650.915 526.998 647.789 523.761 643.958C520.969 640.653 517.609 637.812 514.935 634.42C513.357 632.415 512.706 633.114 512.007 634.674C510.868 637.218 509.865 639.836 508.968 642.472C508.702 643.265 508.553 643.729 507.625 643.723C505.91 643.71 503.676 640.281 503.961 638.524C504.549 634.897 502.803 631.598 501.949 628.206C501.739 627.37 499.999 626.324 498.991 628.509C496.75 633.349 493.922 637.898 492.09 642.943C491.533 644.478 489.948 645.592 488.407 644.936C487.113 644.385 487.881 642.683 488.252 641.649C490.109 636.481 491.786 631.245 494.113 626.256C494.441 625.557 495.228 624.734 494.677 623.985C494.052 623.149 492.981 623.706 492.096 623.7C489.41 623.682 487.002 625.656 484.217 624.796C483.617 624.61 482.483 624.981 482.613 623.91C482.669 623.421 482.985 622.728 483.784 622.307C487.25 620.469 490.877 619.355 494.955 619.182C490.598 613.983 488.011 607.973 485.263 601.951C482.552 596.003 480.417 589.949 478.603 583.71C476.449 576.32 474.376 568.875 471.596 561.72C469.319 555.858 468.044 549.626 465.445 543.981C462.282 537.111 461.421 529.572 458.339 522.776C455.597 516.723 454.694 510.014 451.958 504.103C448.343 496.298 449.16 487.589 445.799 479.859C445.224 478.534 445.131 477.21 443.59 476.195C441.795 475.013 441.844 472.413 441.102 470.439C438.762 464.194 435.717 458.233 433.006 452.174C430.889 447.445 429.478 442.259 426.439 437.994C423.307 433.593 420.745 428.84 417.483 424.501C414.357 420.342 411.052 416.282 407.307 412.834C401.644 407.623 395.003 403.402 387.235 402.133C383.15 401.464 379.016 403.29 375.123 404.652C369.645 406.564 364.397 409.121 358.969 411.194C356.053 412.308 353.899 414.481 351.368 416.115C345.296 420.02 339.955 424.774 335.517 430.542C333.32 433.395 330.72 435.945 328.306 438.638C326.307 440.872 325.379 443.744 323.806 446.238C322.699 447.996 321.554 449.624 320.05 451.178C317.933 453.375 317.116 456.754 315.328 459.335C311.936 464.212 310.141 469.981 306.495 474.691C305.746 475.656 305.919 476.857 305.703 477.94C304.978 481.499 302.621 484.303 301.383 487.67C298.127 496.508 294.203 505.105 290.514 513.764C286.894 522.262 285.234 531.311 281.663 539.686C279.732 544.216 280.023 549.205 277.665 553.55C276.873 555.017 278.94 555.747 279.838 555.92C281.49 556.248 282.394 557.226 283.588 558.204C290.285 563.719 295.701 570.49 301.314 576.958C305.214 581.451 308.723 586.49 312.276 591.367C316.472 597.135 317.797 603.714 320.322 609.978C323.745 618.458 324.964 627.358 326.505 636.227C328.127 645.58 329.421 655 329.39 664.476C329.371 670.981 329.043 677.684 327.428 683.935C325.812 690.186 324.846 696.896 321.795 702.528C318.515 708.593 316.306 715.563 310.296 719.969C308.563 721.238 307.801 723.51 306.371 725.224C302.02 730.417 296.215 733.741 290.774 737.275C285.742 740.537 280.147 743.514 273.865 744.275C272.169 744.479 271.216 744.869 271.649 747.166C272.825 753.392 273.562 759.699 274.533 765.969C276.359 777.803 278.265 789.619 280.054 801.459C281.478 810.879 282.703 820.386 286.912 829.051C288.422 832.152 289.858 835.16 290.563 838.545C291.09 841.071 293.801 842.878 296.332 842.674C296.883 842.63 297.718 842.958 297.83 842.104C297.879 841.733 297.434 841.157 297.062 840.897C294.122 838.861 292.81 835.723 292 832.548C290.681 827.33 289.827 821.995 288.861 816.697C288.614 815.341 289.134 813.974 289.103 812.538C288.979 807.011 287.258 801.675 287.388 796.123C287.45 793.505 288.286 791.748 290.855 791.079C292.693 790.603 292.674 789.835 291.48 788.616C290.91 788.034 290.365 787.366 290.019 786.635C289.647 785.855 289.301 785.069 290.131 784.141C290.941 783.237 291.554 783.293 292.513 783.751C294.389 784.655 296.555 784.896 297.898 786.908C298.393 787.65 299.52 788.542 300.838 788.176C304.75 787.087 308.977 787.743 312.79 785.998C313.495 785.676 314.405 785.725 315.216 785.725C316.317 785.725 316.701 785.385 316.312 784.246C315.705 782.495 316.466 781.071 317.611 779.79C317.766 779.858 318.057 779.889 318.1 780.013C319.753 784.673 323.435 784.865 327.52 784.45C330.794 784.116 334.088 783.937 337.374 783.881C339.014 783.85 339.713 783.243 339.404 781.702C338.933 779.356 340.45 777.673 341.273 775.785C341.669 774.882 342.66 774.089 343.749 774.232C345.129 774.405 344.944 775.661 345.012 776.677C345.105 778.112 345.482 779.579 345.284 780.972C344.881 783.8 346.639 783.714 348.267 783.163C349.691 782.68 351.102 782.457 352.495 782.618C355.28 782.94 356.623 782.123 356.165 779.109C355.917 777.475 356.332 775.872 356.734 774.263C357.044 773.031 357.223 771.44 358.703 771.675C360.132 771.904 362.131 772.134 362.249 774.399C362.267 774.708 362.249 775.036 362.342 775.321C363.06 777.45 362.175 781.387 363.456 781.585C366.891 782.117 370.766 781.727 374.033 780.526C375.383 780.031 376.163 777.71 378.496 778.602C379.691 779.06 380.495 779.474 380.928 780.929C382.618 786.542 384.506 792.082 384.821 798.017C384.933 800.078 386.338 800.629 387.96 799.627C388.659 799.193 389.197 798.698 390.058 798.76C391.772 798.878 394.068 798.061 394.44 800.734C394.836 803.631 392.342 802.845 390.813 803.179C387.038 803.996 386.908 804.003 387.718 807.883C388.523 811.721 390.033 815.428 389.278 820.033C391.599 816.945 394.78 816.846 397.609 816.159C400.889 815.36 404.132 814.382 407.103 812.953C410.062 811.529 412.891 809.994 416.06 808.948C423.833 806.392 431.112 802.585 438.842 799.837C446.678 797.052 454.068 792.936 462.028 790.497C468.848 788.405 474.908 784.531 481.809 782.748C490.035 780.619 497.134 775.439 505.613 773.972C507.253 773.687 506.79 772.591 505.83 772.146C501.628 770.196 499.567 765.919 496.008 763.177C493.557 761.29 492.393 757.483 491.198 754.333C490.493 752.476 489.539 751.956 487.874 752.03C480.342 752.365 472.834 752.191 465.352 751.226C465.048 751.189 464.726 751.182 464.423 751.226C463.185 751.411 461.607 751.133 462.158 753.374C462.387 754.314 462.059 755.391 462.009 756.413C461.91 758.505 460.481 759.309 458.766 759.074C456.94 758.826 455.387 758.121 456.327 755.472C457.293 752.761 455.498 750.378 452.577 749.833C445.96 748.601 440.056 745.234 433.625 743.489C428.68 742.146 424.551 738.909 419.754 737.541C415.273 736.266 411.826 733.19 407.382 731.835C401.601 730.071 397.337 725.41 392.639 721.783C385.899 716.578 380.211 710.178 375.779 702.856C373.947 699.835 371.106 697.595 369.781 694.209C367.306 687.865 364.224 681.75 360.355 676.173C357.446 671.983 354.321 667.973 353.083 662.978C351.931 658.317 350.471 653.799 348.156 649.615C344.919 643.766 343.099 637.249 339.453 631.585C338.537 630.168 337.857 628.429 337.634 626.764C337.046 622.283 334.935 618.414 333.289 614.323C331.098 608.876 329.65 603.145 327.638 597.618C326.301 593.948 325.014 590.265 324.197 586.459C323.522 583.327 323.163 580.127 322.686 576.958C322.383 574.94 323.077 574.532 325.076 575.144C328.771 576.283 330.083 579.533 331.612 582.392C334.421 587.635 337.2 592.988 338.605 598.8C340.165 605.231 342.455 611.433 344.758 617.56C347.673 625.322 350.854 633.052 355.076 640.281C356.542 642.794 357.657 645.604 358.443 648.408C358.938 650.191 360.597 651.045 361.024 652.697C361.841 655.885 362.924 658.973 364.094 662.043C364.453 662.996 364.669 664.036 365.368 664.76C369.682 669.235 373.012 674.41 375.995 679.807C379.895 686.869 384.883 693.157 389.587 699.662C393.784 705.468 399.428 709.763 404.163 714.987C405.432 716.386 407.475 717.339 409.226 718.336C417.106 722.829 424.631 728.041 433.173 731.253C442.964 734.935 453.121 737.479 463.296 739.862C469.938 741.416 476.697 742.369 483.555 741.793C489.818 741.267 496.082 740.648 502.327 739.936C512.775 738.754 523.191 737.306 533.447 734.985C536.932 734.199 540.181 732.441 543.616 731.364C547.311 730.207 551.136 729.464 554.819 728.276C558.136 727.199 561.317 725.701 564.598 724.5C569.234 722.798 573.833 720.935 578.586 719.623C584.15 718.088 589.585 716.367 594.938 714.121C599.475 712.214 604.507 711.502 609.31 710.215C614.651 708.791 619.275 705.437 624.765 704.385C628.837 703.605 632.347 701.253 636.333 700.207C638.153 699.73 639.886 699.322 641.637 700.294C641.953 700.467 642.126 700.82 642.633 700.498C647.87 697.149 653.131 693.844 658.386 690.521C662.607 687.853 666.345 684.48 670.981 682.016C669.88 680.834 668.728 680.63 667.528 680.549C663.016 680.258 659.203 678.668 656.467 674.861C655.953 674.15 655.043 673.685 654.257 673.221C648.835 670.021 643.958 666.388 641.996 659.933C641.297 657.636 638.438 655.711 641.223 653.05C640.994 652.914 640.74 652.796 640.529 652.629C637.627 650.228 635.25 647.244 632.694 644.546C628.844 640.479 625.074 636.159 622.277 631.177C621.454 629.716 620.525 628.317 619.603 626.912C619.182 626.269 618.681 625.86 617.826 626.436C613.482 629.37 608.821 627.135 604.303 627.135C603.337 627.135 602.465 626.621 601.394 627.178C600.602 627.587 599.68 626.968 599.574 626.052C599.488 625.284 599.784 624.437 600.83 624.251C601.629 624.109 602.434 623.663 603.195 623.75C607.54 624.232 611.545 621.713 615.902 622.357C616.917 622.505 617.808 622.301 618.687 621.472C621.126 619.163 623.657 619.553 625.755 622.085C630.676 628.02 634.525 634.649 638.121 641.402C640.356 645.598 643.172 649.423 645.531 653.539C647.48 656.949 651.243 659.14 654.672 661.517C657.952 663.789 661.431 666.128 664.395 669.043C666.636 671.241 669.372 673.141 672.937 673.203C675.221 673.24 675.703 672.584 675.307 670.368C674.255 664.513 671.903 659.004 670.925 653.112C670.541 650.81 671.742 651.218 672.547 651.614C674.862 652.741 677.084 653.675 678.222 656.677C679.894 661.084 681.645 665.317 680.958 670.139C682.283 670.343 682.444 669.44 682.759 668.74C686.745 659.889 686.43 650.673 685.439 641.29C684.845 635.646 683.904 630.044 681.026 625.266C678.198 620.568 675.4 615.765 671.482 611.717C665.157 605.188 659.11 598.385 653.088 591.571C648.384 586.254 643.952 580.684 639.273 575.342C636.797 572.52 635.782 568.905 633.708 565.873C633.281 565.248 633.065 564.214 634.284 563.552C635.875 562.679 637.441 561.621 639.063 563.1C642.399 566.151 646.354 568.534 649.12 572.204C654.041 578.728 660.571 583.63 666.271 589.361C673.104 596.225 679.918 603.065 685.854 610.839C689.821 616.038 692.823 621.46 694.284 627.568C697.1 639.353 696.859 651.311 694.476 663.176C694.092 665.088 692.898 666.828 692.18 668.684C692.05 669.019 691.4 669.582 692.106 669.935C692.539 670.151 693.318 670.139 693.362 669.514C693.498 667.688 695.095 667.57 696.203 667.118C702.578 664.513 708.47 660.861 715.006 658.577C723.139 655.736 730.863 651.905 739.182 649.367C745.687 647.381 752.322 645.672 758.716 643.345C767.597 640.114 776.794 640.108 786.017 639.582C791.148 639.291 796.217 638.808 801.31 639.706C804.009 640.182 806.547 640.993 808.589 642.992C809.134 643.525 810.013 643.704 810.724 644.069C812.631 645.053 815.094 645.685 812.625 648.674C811.907 649.541 811.634 651.54 813.485 651.985C816.431 652.691 817.638 654.795 818.554 657.302C819.266 659.252 821.253 660.706 820.782 663.114C820.417 661.672 819.458 661.307 818.028 661.288C816.084 661.263 814.989 662.39 814.933 663.956C814.871 665.664 816.604 664.859 817.582 665.082C818.065 665.194 818.678 665.125 819.031 665.398C821.253 667.1 821.389 665.472 821.569 663.869L821.55 663.875ZM560.408 371.533C559.795 370.876 559.393 370.406 558.954 369.979C558.025 369.075 557.22 367.813 557.944 366.773C558.935 365.362 560.086 366.692 561.138 367.212C564.196 368.729 567.167 368.784 570.076 366.754C572.341 365.176 574.724 363.845 577.392 362.948C579.769 362.143 580.288 359.296 578.648 357.198C578.19 356.61 578.072 356.171 578.444 355.564C578.753 355.056 579.057 354.091 579.669 354.493C580.957 355.341 582.411 354.729 583.5 355.075C587.734 356.443 591.862 357.136 595.019 353.435C596.671 351.498 599.513 349.684 598.696 346.466C597.693 342.523 598.559 338.463 597.563 334.52C597.111 332.744 597.309 331.066 598.491 329.16C599.847 326.969 602 326.127 603.616 324.493C605.151 322.94 606.005 320.792 608.4 319.913C609.781 319.406 610.95 317.815 611.786 316.453C613.63 313.445 616.063 311.589 619.616 311.149C620.327 311.062 621.299 310.518 621.572 309.924C622.809 307.194 625.124 305.275 626.764 302.837C628.961 299.563 631.233 296.276 633.603 293.169C635.955 290.087 637.305 286.565 639.131 283.315C640.251 281.322 642.436 279.719 642.696 277.739C643.154 274.217 645.623 271.686 647.022 268.907C648.594 265.787 649.009 262.327 651.565 258.824C646.657 261.238 642.658 263.33 638.561 265.199C632.526 267.953 625.972 268.548 619.504 268.87C608.839 269.402 598.194 268.857 587.598 267.192C578.734 265.8 569.637 265.651 560.99 263.243C553.383 261.127 545.64 259.48 538.454 255.593C534.413 253.408 530.816 250.636 526.837 248.42C523.959 246.817 521.173 244.811 519.026 241.203C518.908 243.363 518.84 244.613 518.772 245.87C517.453 242.094 513.963 240.473 511.252 238.511C508.077 236.208 505.873 233.064 502.921 230.588C498.137 226.565 494.045 221.546 487.2 221.527C480.559 221.508 473.41 219.843 468.137 226.002C466.657 227.729 464.566 229.022 463.414 230.916C461.019 234.877 459.868 239.365 459.107 243.926C458.277 248.89 458.58 253.922 460.091 258.601C461.106 261.733 463.204 264.574 465.5 267.217C469.919 272.298 474.871 276.631 480.497 280.301C482.285 281.471 484.409 281.787 486.086 283.204C489.391 285.989 498.031 285.649 501.2 282.771C502.475 285.197 499.833 285.804 499.133 287.289C502.209 289.53 503.193 293.095 504.604 296.313C508.077 304.248 508.411 312.981 510.633 321.262C513.982 333.728 515.578 346.571 515.176 359.581C515.089 362.366 513.777 365.777 517.782 367.274C517.943 367.336 518.042 367.584 518.147 367.763C520.901 372.331 525.828 373.915 530.216 375.915C534.072 377.672 538.559 376.738 542.749 376.602C548.951 376.398 554.627 374.101 560.402 371.533H560.408ZM276.285 560.717C276.192 565.508 273.995 569.76 273.227 574.303C271.754 583.03 270.702 591.825 269.588 600.607C269.173 603.851 268.727 607.15 268.925 610.381C269.086 613.017 266.982 614.651 266.951 617.189C266.858 624.628 265.8 632.031 265.416 639.433C264.939 648.779 263.9 658.131 264.34 667.527C264.575 672.528 264.804 677.554 264.575 682.542C264.408 686.151 265.187 687.184 268.783 686.256C269.842 685.984 270.82 685.365 271.822 684.876C274.502 683.564 276.613 681.534 278.532 679.33C279.769 677.913 282.066 677.851 282.815 676.006C284.715 671.321 288.119 667.719 291.35 664.018C292.489 662.712 294.32 661.214 296.128 662.322C297.712 663.293 297.081 665.28 297.013 667.069C296.834 671.655 292.656 673.797 291.139 677.554C290.496 679.144 289.629 681.15 288.299 682.165C284.189 685.297 279.986 688.385 274.904 689.933C272.812 690.57 270.752 690.787 268.579 690.675C266.338 690.564 264.896 691.003 265.101 694.048C265.497 700.009 266.766 705.876 266.462 711.917C266.103 719.084 268.926 725.862 269.656 732.93C269.966 735.895 271.241 736.458 273.908 735.028C279.089 732.262 284.783 730.355 289.252 726.394C291.975 723.98 295.645 722.934 297.966 719.976C299.885 717.531 301.958 714.882 304.31 713.205C310.085 709.089 311.867 702.497 315.42 697.094C318.818 691.925 319.394 685.309 321.12 679.386C323.33 671.81 322.86 663.553 323.12 655.569C323.417 646.496 321.337 637.632 320.174 628.701C318.311 614.335 314.585 600.645 305.195 589.027C299.074 581.451 292.773 574.067 285.674 567.401C282.914 564.808 280.388 561.8 276.285 560.717ZM296.542 793.994C297.434 802.121 297.446 809.573 298.771 816.914C299.458 820.745 299.334 824.855 300.708 828.401C302.051 831.867 301.939 834.949 301.061 838.261C300.974 838.583 300.361 839.016 300.77 839.226C302.856 840.297 304.886 842.748 307.331 841.3C310.283 839.548 313.619 839.641 316.701 838.62C321.473 837.042 326.648 836.701 331.605 835.389C337.306 833.885 343.415 833.631 348.855 831.36C356.611 828.123 365.418 828.859 372.845 824.304C375.562 822.639 379.183 822.206 382.463 821.772C385.837 821.327 385.137 820.008 383.837 818.096C381.43 814.568 380.08 810.514 378.527 806.608C377.858 804.925 377.673 803.854 375.754 805.005C375.104 805.395 374.547 805.383 374.25 804.69C373.866 803.792 374.857 803.805 375.247 803.433C375.946 802.771 377.314 802.957 376.856 801.075C375.569 795.833 374.064 790.603 373.829 785.144C373.761 783.528 372.783 783.07 371.347 783.312C369.02 783.701 366.712 784.228 364.378 784.481C363.178 784.611 362.695 784.995 362.843 786.165C363.202 788.993 361.816 791.55 361.574 794.291C361.352 796.86 359.328 797.355 357.372 797.355C355.348 797.355 355.713 795.337 355.552 794.13C355.224 791.71 355.187 789.241 355.125 786.79C355.082 785.057 353.522 784.642 352.984 785.472C351.48 787.805 349.381 786.939 347.537 786.939C345.569 786.939 345.055 787.489 344.857 789.519C344.424 793.932 343.013 798.092 339.621 802.381C339.441 797.51 338.432 793.642 338.785 789.656C338.927 788.028 338.345 787.471 336.699 787.57C332.156 787.855 327.65 787.465 323.076 788.684C319.208 789.717 319.035 789.167 319.406 793.146C319.456 793.648 319.771 794.285 318.88 794.917C318.273 793.214 317.642 791.642 317.166 790.027C316.974 789.377 316.844 788.672 316.082 788.901C312.889 789.866 309.497 788.944 306.322 790.002C304.626 790.572 304.403 791.172 305.542 792.806C306.842 794.675 309.194 795.412 310.103 797.615C310.71 799.082 311.416 800.753 310.592 802.003C309.67 803.408 308.166 801.917 306.978 801.669C305.839 801.434 304.515 800.778 303.834 799.88C301.971 797.436 298.882 796.78 296.536 793.97L296.542 793.994ZM785.621 772.022C783.857 772.431 783.912 772.474 783.219 773.495C779.171 779.505 775.612 785.843 770.692 791.259C768.73 793.413 767.207 795.987 765.48 798.352C763.314 801.316 761.191 804.529 758.716 807.023C755.652 810.118 752.972 813.658 750.465 816.963C747.278 821.166 743.162 824.508 740.333 828.933C739.386 830.419 737.275 830.122 736.396 831.644C734.032 835.736 730.585 839.028 727.082 841.912C721.096 846.833 716.553 853.19 709.801 857.46C705.264 860.326 701.637 864.949 697.533 868.725C694.123 871.863 690.96 875.595 687.364 878.164C682.19 881.852 677.536 886.08 673.018 890.344C667.478 895.562 661.703 900.52 656.015 905.539C651.949 909.123 648.235 913.09 644.255 916.742C640.189 920.468 636.296 924.281 631.555 927.115C630.008 928.044 628.138 928.446 626.646 929.436C621.621 932.772 616.137 935.273 610.944 938.287C608.691 939.593 605.51 939.358 604.117 942.279C605.869 942.644 607.441 941.741 609.254 942.063C614.014 942.917 618.755 943.864 623.589 944.421C628.386 944.972 633.145 944.607 637.905 944.959C642.522 945.3 647.121 945.931 651.745 946.049C664.334 946.377 676.929 946.637 689.525 946.643C695.343 946.643 701.229 946.797 706.96 947.076C718.553 947.652 730.139 947.609 741.726 947.93C742.555 947.955 743.39 947.831 744.449 947.757C738.792 944.26 733.623 940.738 728.152 937.656C723.095 934.809 717.859 932.525 712.592 930.167C708.643 928.397 704.367 926.868 700.802 924.299C697.985 922.269 695.188 921.13 691.641 921.137C687.173 921.137 682.704 920.555 678.229 920.319C670.684 919.917 663.356 917.813 656.164 915.473C654.92 915.071 653.236 915.727 652.332 914.136C653.347 913.202 654.777 912.979 655.582 911.828C658.2 908.083 663.275 906.913 665.349 902.556C665.547 902.141 666.091 901.819 666.543 901.621C670.925 899.734 674.175 896.193 677.232 892.907C680.971 888.896 685.21 885.479 689.363 882.131C693.51 878.783 696.816 874.617 701.105 871.38C703.865 869.3 706.78 866.8 708.885 863.619C711.181 860.14 715.161 858.184 718.355 855.56C720.694 853.635 721.697 850.763 724.222 849.173C725.769 848.201 727.366 847.223 728.443 845.688C731.241 841.702 735.06 838.645 738.167 834.906C741.15 831.323 744.808 828.24 747.803 824.564C755.268 815.397 762.361 805.958 769.256 796.359C771.942 792.614 774.158 788.424 777.122 785.063C780.663 781.052 781.628 775.63 785.608 772.022H785.621ZM584.212 950.579C583.723 954.021 585.673 955.079 588.681 955.419C593.075 955.914 597.445 956.663 601.827 957.264C614.942 959.065 628.206 958.972 641.353 960.39C644.701 960.748 648.006 960.625 651.348 960.606C655.724 960.575 660.107 961.312 664.482 961.72C668.499 962.092 672.504 962.977 676.558 962.191C679.293 961.658 681.602 963.521 684.226 963.422C689.512 963.218 694.729 964.375 700.089 963.54C707.337 962.407 714.635 963.713 722.13 962.011C729.792 960.272 738.074 960.365 746.089 959.727C747.321 959.628 749.277 959.715 749.413 958.718C749.797 955.896 751.82 955.989 753.758 955.84C753.436 954.089 752.483 954.46 751.4 954.547C745.798 955.011 740.172 955.023 734.558 955.394C726.296 955.939 717.996 955.153 709.702 955.24C701.86 955.32 694.005 954.615 686.133 954.689C675.703 954.788 665.256 954.516 654.833 954.051C648.835 953.785 642.801 953.804 636.859 953.297C627.556 952.504 618.279 951.396 608.933 951.025C605.343 950.883 601.722 950.784 598.188 950.22C596.133 949.892 593.812 948.264 592.085 949.341C589.461 950.975 586.731 949.713 584.218 950.592L584.212 950.579ZM725.775 922.071C728.79 924.912 732.472 925.58 735.808 927.084C742.202 929.969 748.503 933.255 753.881 937.934C755.033 938.937 756.227 939.358 757.781 939.315C762.175 939.197 766.656 938.578 770.933 938.937C781.597 939.828 792.249 938.294 802.883 939.253C803.576 939.315 804.449 939.606 805.222 938.64C802.604 938.262 801.422 935.83 799.132 935.174C792.788 933.348 787.125 929.795 780.719 928.044C775.761 926.688 770.883 925.073 766.192 922.758C761.934 920.654 757.211 919.298 752.544 918.333C750.923 917.998 748.014 914.402 746.714 919.051C746.671 919.205 746.176 919.255 745.879 919.317C739.374 920.648 732.782 921.353 725.782 922.077L725.775 922.071ZM461.601 131.23C459.131 131.106 457.714 133.514 455.702 134.48C450.367 137.042 447.074 141.628 443.206 145.534C438.954 149.829 435.606 155.01 432.251 160.097C431.261 161.601 429.688 162.796 429.298 164.616C428.568 168.038 426.408 170.799 425.281 174.055C423.858 178.17 421.042 182.026 420.874 186.334C420.534 195.067 418.288 203.466 417.099 212.032C416.536 216.086 416.666 220.134 416.115 224.151C416.041 224.677 415.886 225.451 417.111 225.519C418.015 221.428 419.148 217.337 419.748 213.171C420.052 211.048 421.054 209.235 421.463 207.229C422.471 202.241 422.583 196.918 424.477 192.313C426.142 188.265 427.596 184.038 428.735 179.971C430.505 173.664 434.491 168.552 436.46 162.493C437.258 160.029 439.35 158.699 440.761 156.78C442.47 154.465 443.317 151.717 445.385 149.495C448.919 145.695 451.537 141.028 455.591 137.704C457.962 135.761 461.044 134.634 461.594 131.23H461.601ZM361.574 297.935C360.287 298.597 359.6 298.721 359.346 299.117C355.385 305.362 348.521 307.658 342.622 311.137C338.327 313.674 333.295 314.819 328.851 317.277C324.302 319.789 319.251 321.232 314.566 323.608C308.729 326.567 303.456 330.348 297.756 333.443C295.985 334.402 296.246 336.476 294.704 337.479C290.582 340.159 289.233 344.918 287.079 348.88C285.476 351.832 285.494 355.75 285.451 359.377C285.42 362.224 286.615 364.842 286.373 367.72C286.268 368.989 286.732 370.561 287.828 371.601C288.007 371.768 288.911 371.57 288.936 371.446C289.177 370.016 289.122 368.617 288.515 367.237C286.182 361.945 286.225 356.728 288.62 351.374C291.814 344.225 297.236 339.026 303.586 335.021C308.191 332.119 313.142 329.525 318.15 327.365C323.553 325.038 328.888 322.562 334.255 320.142C336.928 318.935 339.819 318.032 342.189 316.379C345.94 313.761 350.019 311.601 353.398 308.438C356.493 305.554 358.801 302.119 361.58 297.922L361.574 297.935ZM665.46 239.321C664.903 239.321 664.464 239.21 664.105 239.34C657.117 241.785 650.309 244.545 642.727 245.226C633.022 246.099 623.379 246.093 613.68 245.604C609.917 245.412 606.432 244.217 602.855 243.388C599.451 242.596 595.941 242.781 592.599 241.933C586.576 240.405 580.517 239.099 574.569 237.118C570.763 235.849 566.455 235.397 562.568 234.067C558.52 232.686 554.181 232.556 550.276 230.372C547.101 228.595 543.338 227.747 539.494 228.032C542.892 228.676 545.851 230.471 549.026 231.554C555.89 233.887 563.007 235.509 569.748 238.232C574.705 240.231 579.88 241.253 585.011 242.577C590.748 244.063 596.25 246.055 602.242 246.978C615.988 249.101 629.648 250.438 643.562 249.224C651.07 248.568 657.736 246.055 663.876 241.853C664.668 241.308 665.281 240.652 665.473 239.321H665.46ZM761.965 945.851C762.999 947.509 763.945 949.125 764.991 950.666C765.66 951.656 765.164 953.594 767.145 953.532C769.497 953.457 771.849 953.426 774.207 953.284C778.131 953.049 782.006 952.096 785.974 952.504C794.546 953.395 803.056 953.012 811.486 951.13C812.495 950.907 813.498 950.759 814.141 949.874C814.736 949.063 815.893 948.543 814.921 947.07C814.178 945.95 813.597 945.69 812.26 945.807C806.052 946.346 799.832 947.027 793.611 947.02C784.748 947.002 775.885 946.408 767.022 946.104C765.431 946.049 763.902 945.021 761.952 945.863L761.965 945.851ZM638.957 370.598H638.982C638.982 374.621 638.982 378.644 638.982 382.667C638.982 383.627 638.994 384.605 640.35 384.617C641.743 384.629 641.34 383.54 641.346 382.834C641.451 372.981 642.232 363.208 644.522 353.59C645.877 347.895 645.543 341.997 647.635 336.296C649.733 330.59 649.993 324.252 652.407 318.539C652.654 317.945 652.852 317.159 652.326 316.812C651.559 316.305 651.008 316.998 650.624 317.623C648.495 321.139 646.149 324.487 645.029 328.585C643.314 334.867 642.404 341.285 641.167 347.648C639.762 354.858 638.673 362.013 638.951 369.36C638.97 369.775 638.951 370.183 638.951 370.598H638.957ZM498.31 311.818C498.403 322.822 500.873 333.573 499.82 344.603C499.003 353.175 500.21 361.902 499.226 370.518C498.366 378.069 497.258 385.595 496.274 393.134C495.877 396.185 496.119 399.484 495.011 402.244C493.043 407.152 493.482 412.407 491.916 417.309C492.869 414.611 493.488 411.844 494.169 409.09C495.203 404.918 496.763 400.827 497.586 396.668C499.158 388.696 499.839 380.55 500.928 372.48C502.469 361.066 502.116 349.554 502.679 338.091C503.075 330.138 501.757 322.203 500.278 314.355C500.074 313.291 499.765 312.17 498.304 311.811L498.31 311.818ZM695.262 453.665C696.209 453.028 696.376 452.347 696.537 451.549C698.32 442.778 698.648 433.983 697.137 425.145C695.658 416.498 692.557 408.514 687.476 401.334C686.485 399.942 685.334 398.723 683.248 398.388C692.371 415.861 698.499 433.655 695.268 453.665H695.262ZM334.675 333.548C320.031 336.365 299.371 363.499 303.481 376.373C305.189 371.786 305.579 367.132 308.476 362.657C312.845 355.904 317.035 349.294 322.587 343.359C326.239 339.453 330.671 336.934 334.669 333.548H334.675ZM556.001 128.451C543.344 118.709 509.822 111.263 502.005 116.846C521.378 115.466 538.355 122.082 556.001 128.451ZM260.162 497.164C260.211 499.795 259.939 502.574 261.721 502.636C263.906 502.71 262.94 499.962 263.244 498.384C263.776 495.611 263.9 492.721 265.224 490.152C266.927 486.847 268.728 483.591 270.405 480.274C270.714 479.661 271.376 478.85 270.727 478.151C270.058 477.433 269.068 477.519 268.121 477.532C266.889 477.544 266.283 478.64 265.905 479.259C263.999 482.384 262.996 485.962 261.53 489.316C260.385 491.928 260.489 495.091 260.174 497.164H260.162ZM552.411 961.014C559.43 959.832 565.75 960.414 572.057 960.322C575.937 960.266 576.921 959.294 577.125 955.432C577.255 953.03 576.444 952.244 574.161 953.173C573.604 953.402 572.997 953.532 572.458 953.792C568.726 955.593 564.883 956.998 560.817 957.907C558.149 958.502 555.128 958.322 552.411 961.008V961.014ZM486.265 436.793C489.824 444.413 488.159 452.558 488.753 460.437C491.111 456.438 491.891 452.273 491.873 447.841C491.86 443.168 490.233 439.504 486.259 436.793H486.265ZM547.274 142.272C545.875 140.78 545.343 138.664 543.455 137.593C537.607 134.269 532.086 130.296 525.432 128.575C523.358 128.036 521.328 127.368 519.174 127.127C518.159 127.009 516.024 127.071 512.762 127.999C526.057 129.862 537.396 134.306 547.268 142.272H547.274ZM300.919 846.437C305.375 848.653 309.9 849.847 314.628 850.355C318.639 850.788 318.558 850.701 318.478 846.821C318.416 843.757 316.305 844.054 315.148 844.834C312.846 846.394 310.431 846.307 307.968 846.412C305.622 846.511 303.264 846.431 300.912 846.431L300.919 846.437ZM681.261 446.715C685.309 437.4 686.133 428.537 682.741 419.544C682.277 418.312 681.342 416.684 679.473 416.43C683.793 426.185 682.45 436.112 681.261 446.721V446.715ZM668.165 439.232C671.272 435.45 672.454 431.056 672.38 426.278C672.368 425.467 672.467 424.371 671.427 424.316C670.276 424.254 670.003 425.355 670.009 426.302C670.053 430.691 669.601 434.998 668.171 439.226L668.165 439.232ZM243.902 484.21C246.483 480.274 246.737 475.192 250.481 471.485C246.13 471.429 243.203 477.427 243.902 484.21ZM253.081 489.582C254.585 484.482 259.84 481.4 260.353 475.768C257.741 480.268 252.877 483.566 253.081 489.582ZM631.604 707.696C633.938 706.081 636.865 705.301 638.617 702.881C636.259 704.465 632.91 704.583 631.604 707.696ZM488.271 365.473C488.271 361.766 489.831 358.151 488.816 354.382C488.686 358.083 487.411 361.71 488.271 365.473Z" fill="black"/>
<path d="M426.588 495.258C427.392 500.897 424.427 504.988 422.372 509.265C419.507 515.25 415.057 519.787 409.499 523.68C400.567 529.937 390.919 530.538 380.7 529.405C378.144 529.12 375.705 528.73 373.223 527.907C367.665 526.069 363.543 522.07 359.532 518.369C357.032 516.061 355.515 512.093 354.518 508.398C354.073 506.733 353.745 505.242 351.529 504.381C347.778 502.914 346.664 496.397 349.301 494.243C349.926 493.736 350.879 493.296 351.177 493.469C355.416 495.964 353.831 491.353 354.029 490.635C355.954 483.659 359.427 477.823 365.369 473.62C366.73 472.655 367.782 471.912 367.256 470.018C366.934 468.848 367.727 468.266 368.754 467.697C370.178 466.905 372.14 467.777 373.26 466.106C373.415 465.877 374.3 465.914 374.541 466.539C375.414 468.83 377.005 467.938 378.051 467.035C380.118 465.252 382.705 464.862 385.051 464.714C391.611 464.311 398.308 463.315 404.677 465.853C408.552 467.394 411.974 469.733 414.89 472.803C416.196 474.177 417.254 475.861 419.321 476.449C420.107 476.671 421.005 477.489 421.321 478.256C423.654 483.901 427.683 489.044 426.588 495.264V495.258ZM414.778 490.387C414.853 485.219 413.578 480.905 411.213 478.312C408.106 474.907 403.706 473.75 399.714 472.116C396.272 470.711 392.323 472.308 388.603 471.9C388.145 471.85 387.335 472.005 387.224 472.283C386.363 474.381 384.277 474.771 382.606 475.681C378.205 478.095 374.077 480.936 371.001 484.879C368.017 488.697 366.86 493.562 364.601 497.821C364.149 498.669 364.186 499.597 364.137 500.525C363.549 511.258 371.756 518.01 381.058 521.254C387.594 523.531 394.508 521.582 400.444 517.577C404.331 514.959 408.057 512.186 410.607 508.083C414.005 502.624 414.741 496.595 414.784 490.387H414.778Z" fill="black"/>
<path d="M644.23 522.04C643.265 517.243 640.176 513.634 638.84 509.234C637.094 503.49 636.271 497.455 634.377 491.873C632.211 485.491 633.993 479.017 632.285 472.754C631.808 471.008 632.638 468.91 632.867 466.979C632.948 466.292 633.244 465.871 634.018 465.809C634.891 465.741 635.169 466.267 635.64 466.874C637.725 469.548 638.091 472.859 639.019 475.923C639.799 478.504 640.053 481.202 639.867 484.043C639.65 487.348 641.717 490.375 642.299 493.705C643.073 498.124 643.698 502.945 645.945 506.653C649.17 511.976 650.501 518.116 654.326 523.197C657.705 527.684 657.81 533.496 657.612 539.048C657.346 546.475 654.889 552.646 648.124 556.731C643.277 559.659 637.992 561.064 632.564 561.491C624.375 562.141 616.007 562.357 608.339 558.774C603.393 556.465 598.175 554.28 594.709 549.65C594.468 549.329 594.301 548.945 594.146 548.573C593.998 548.227 593.911 547.862 593.695 547.175C597.204 547.546 599.741 549.688 602.446 550.956C605.516 552.399 608.555 553.178 611.699 553.191C617.103 553.215 622.741 553.469 627.798 551.643C633.368 549.632 639.725 548.976 644.014 544.068C645.178 542.743 645.388 542.205 643.29 541.858C637.292 540.88 632.533 537.247 628.021 533.614C625.904 531.906 624.79 528.78 623.62 526.125C622.958 524.627 624.332 523.599 625.767 523.383C630.484 522.665 635.144 521.39 640.003 521.996C641.315 522.163 642.671 522.021 644.224 522.021L644.23 522.04Z" fill="black"/>
<path d="M742.314 634.439C742.314 637.335 742.351 639.396 742.301 641.457C742.277 642.615 742.734 644.311 740.939 644.348C739.621 644.372 738.185 643.958 737.535 642.274C736.39 639.297 735.487 636.246 735.128 633.114C734.992 631.913 734.707 631.919 733.81 631.536C732.324 630.911 730.789 631.047 729.298 630.737C724.581 629.766 719.654 627.983 715.018 629.369C709.857 630.911 704.8 629.957 699.725 630.453C697.824 630.638 696.549 629.84 695.083 628.336C700.362 627.036 705.388 626.089 710.228 624.684C718.138 622.394 726.091 621.633 734.125 622.481C740.352 623.137 746.683 624.672 752.05 627.835C756.209 630.286 759.594 634.241 761.563 639C761.878 639.768 761.977 640.529 761.29 640.931C760.102 641.631 758.92 642.25 757.323 641.779C752.118 640.25 746.795 639.043 742.301 634.432L742.314 634.439Z" fill="black"/>
<path d="M491.52 720.811C484.006 720.768 476.765 718.862 469.628 716.937C460.375 714.442 450.856 712.79 441.981 709.014C438.106 707.368 434.287 705.604 430.32 704.156C429.057 703.698 428.438 703.97 427.442 704.768C425.059 706.669 422.843 708.878 419.866 709.936C419.259 710.153 418.628 710.444 418.219 709.819C417.842 709.249 418.492 708.829 418.665 708.358C419.618 705.752 420.794 703.308 422.329 700.98C423.821 698.721 428.172 696.834 430.865 697.595C435.989 699.049 440.737 701.519 445.744 703.258C448.709 704.286 451.964 704.137 455.009 705.27C464.25 708.692 473.85 710.89 483.406 713.248C488.147 714.418 492.801 716.052 497.592 717.129C498.471 717.327 499.152 717.816 499.183 718.75C499.214 719.759 498.304 719.864 497.58 720.18C495.618 721.034 493.581 720.873 491.539 720.805L491.52 720.811Z" fill="black"/>
<path d="M285.68 754.977C289.493 752.55 290.223 747.568 294.432 745.414C297.589 743.799 298.975 740.011 302.268 738.42C309.943 734.7 315.092 727.886 321.046 722.222C325.026 718.435 327.737 712.876 328.87 707.052C329.891 701.791 331.699 696.877 335.059 692.625C335.61 691.925 335.988 690.731 337.108 691.257C337.95 691.653 337.584 692.749 337.442 693.485C336.594 697.904 335.449 702.187 333.345 706.254C332.057 708.742 331.742 711.713 330.696 714.35C328.059 720.972 324.606 727.081 319.171 731.909C316.875 733.945 315.322 736.613 312.802 738.612C308.061 742.387 302.968 745.668 298.307 749.561C296.042 751.455 292.953 752.247 290.601 754.246C289.4 755.267 287.636 755.503 285.68 754.97V754.977Z" fill="black"/>
<path d="M326.382 556.997C328.851 550.764 328.276 543.981 329.835 537.568C330.337 535.495 330.783 533.409 331.365 531.361C331.786 529.875 332.503 528.08 334.317 528.594C336.273 529.151 338.953 529.058 339.398 532.116C340.166 537.358 338.52 541.938 336.551 546.741C335.004 550.523 332.825 554.076 331.785 558.099C331.476 559.293 331.042 561.361 329.136 560.865C327.471 560.438 326.01 559.238 326.382 556.997Z" fill="black"/>
<path d="M606.154 481.443C606.123 485.491 604.47 489.093 602.88 492.683C602.211 494.187 599.71 493.841 598.689 492.269C596.77 489.304 596.925 485.819 596.306 482.545C595.972 480.794 595.44 479.011 596.009 477.123C596.226 476.411 596.461 475.31 596.925 475.409C599.395 475.935 602.056 474.629 604.229 475.625C605.993 476.436 606.117 478.85 606.154 480.837C606.154 481.041 606.154 481.245 606.154 481.456V481.443Z" fill="black"/>
<path d="M283.242 548.827C285.953 549.372 287.673 551.334 289.734 552.702C293.949 555.499 297.02 559.727 301.513 562.227C302.138 562.574 302.565 563.49 302.837 564.233C303.481 565.997 306.056 568.144 304.843 569.19C303.19 570.62 300.461 568.609 298.913 567.519C294.748 564.585 291.003 561.026 287.259 557.536C285.451 555.846 283.886 553.847 282.512 551.786C281.936 550.919 281.02 549.186 283.242 548.833V548.827Z" fill="black"/>
<path d="M320.143 569.333C320.415 572.458 318.138 572.037 317.364 571.425C312.654 567.692 307.287 564.79 303.171 560.296C302.132 559.157 301.309 558.13 302.342 556.62C303.407 555.066 304.713 555.704 306.087 556.162C309.967 557.461 312.994 560.216 316.454 562.215C319.19 563.799 319.053 567.228 320.143 569.333Z" fill="black"/>
<path d="M531.306 733.821C527.722 730.541 525.432 727.354 524.695 723.194C524.522 722.229 524.374 721.356 525.5 720.867C526.645 720.366 526.967 721.127 527.611 721.907C530.346 725.187 531.033 729.037 531.306 733.828V733.821Z" fill="black"/>
<path d="M466.064 764.719C466.466 764.719 466.806 764.626 467.06 764.737C467.809 765.053 468.143 765.802 467.914 766.458C467.264 768.284 467.122 770.413 465.247 771.607C464.609 772.016 463.935 772.121 463.229 771.787C463.142 771.744 463.013 771.645 463.019 771.583C463.248 769.701 463.415 767.813 463.749 765.957C463.99 764.613 465.21 764.842 466.07 764.725L466.064 764.719Z" fill="black"/>
<path d="M410.625 633.949C409.542 634.872 408.669 635.614 407.791 636.357C406.893 634.754 404.064 635.169 403.953 632.897C403.897 631.789 405.092 631.529 406.008 631.721C407.617 632.062 409.029 632.903 410.625 633.949Z" fill="black"/>
<path d="M412.501 695.942C413.058 696.196 414.153 695.868 414.196 697.05C414.233 697.997 413.318 698.065 412.68 698.282C412.309 698.412 411.857 698.406 411.461 698.338C410.483 698.171 410.632 700.337 409.381 699.353C408.793 698.889 409.282 698.152 409.437 697.626C409.753 696.549 410.662 696.097 411.758 696.017C411.962 696.004 412.166 695.973 412.494 695.936L412.501 695.942Z" fill="black"/>
<path d="M492.974 256.299C492.498 257.277 494.033 258.694 492.411 259.01C491.031 259.276 489.428 258.855 488.648 257.444C487.571 255.5 486.618 253.495 485.473 251.57C484.179 249.398 485.287 247.293 486.946 245.863C489.205 243.914 487.998 242.812 486.259 241.871C483.313 240.275 480.237 238.925 476.95 238.145C476.455 238.028 475.768 238.152 475.465 237.861C474.691 237.112 473.212 236.586 473.367 235.465C473.559 234.091 475.044 234.351 476.133 234.314C483.127 234.073 488.884 237.13 494.739 240.566C501.021 244.254 502.642 249.732 502.797 256.28C502.834 257.809 502.395 259.183 500.897 259.319C499.653 259.437 498.923 258.143 498.514 256.93C497.895 255.061 497.462 252.932 494.887 252.919C492.306 252.907 492.511 254.671 492.962 256.305L492.974 256.299Z" fill="black"/>
<path d="M583.11 300.361C584.497 299.705 585.295 299.569 586.409 299.99C591.676 301.983 596.281 305.319 601.499 307.392C602.533 307.801 603.201 308.364 602.966 309.688C602.743 310.951 601.939 310.969 600.967 311.081C597.309 311.496 593.818 312.461 590.414 313.947C588.495 314.788 585.481 315.562 584.627 313.396C583.934 311.638 586.026 308.902 587.852 308.067C591.138 306.575 589.405 305.832 587.709 305.3C585.153 304.502 585.648 301.394 583.11 300.361Z" fill="black"/>
<path d="M282.202 630.007C279.646 628.361 279.85 625.52 279.429 623.019C279.077 620.915 279.194 618.717 279.188 616.564C279.188 615.821 278.965 614.663 280.048 614.608C280.748 614.571 281.738 615.072 282.159 615.648C284.579 618.959 284.492 626.782 282.202 630.007Z" fill="black"/>
<path d="M375.909 485.009C380.149 484.928 383.231 487.354 386.685 488.642C388.622 489.36 389.643 488.939 390.535 487.286C392.466 483.715 395.913 481.314 397.931 477.792C398.63 476.572 400.178 476.164 401.255 476.053C402.975 475.879 404.671 476.888 403.749 479.054C401.997 483.176 401.849 487.955 398.432 491.433C397.528 492.355 397.015 493.816 399.398 494.707C403.334 496.174 406.849 498.569 410.223 501.119C410.953 501.67 411.541 502.407 411.021 503.187C410.235 504.356 410.73 506.591 408.49 506.579C406.887 506.572 405.575 507.266 404.132 507.792C400.759 509.011 397.968 507.136 395.461 505.291C392.125 502.834 391.24 502.958 388.913 506.213C386.542 509.537 384.104 512.861 380.916 515.522C379.777 516.469 378.626 517.274 377.153 516.673C375.686 516.073 375.952 514.526 375.513 513.306C373.885 508.72 378.373 506.541 379.462 503.038C379.734 502.172 380.749 501.057 381.455 500.086C382.526 498.613 382.129 497.511 380.601 496.948C377.258 495.722 374.9 493.203 372.356 490.926C371.316 489.997 370.877 488.976 371.527 487.416C372.48 485.138 374.151 484.841 375.896 485.009H375.909Z" fill="black"/>
</svg>
