<svg width="1080" height="1080" viewBox="0 0 1080 1080" fill="none" xmlns="http://www.w3.org/2000/svg">
<path d="M828.992 371.522C830.026 373.824 831.06 376.133 832.099 378.436C832.545 379.432 832.743 380.973 833.498 381.32C838.351 383.554 836.587 387.88 836.259 391.179C835.838 395.432 835.089 399.981 831.586 403.181C830.472 404.202 828.999 404.821 827.866 405.824C826.442 407.08 824.016 407.501 825.031 410.738C825.409 411.939 822.865 414.111 821.547 415.757C821.045 416.383 820.241 416.76 819.671 417.181C820.866 419.032 821.881 420.431 822.71 421.922C824.938 425.92 823.905 429.325 819.838 431.516C818.6 432.184 817.344 432.865 816.026 433.329C813.779 434.121 813.079 435.681 812.875 437.953C812.355 443.603 811.507 449.161 807.435 453.667C805.46 455.852 804.161 458.322 804.062 461.571C804.018 462.988 802.118 464.882 800.608 465.619C795.514 468.089 790.216 470.119 785.005 472.335C781.854 473.671 778.66 474.934 775.572 476.413C764.809 481.575 753.278 484.156 741.716 486.638C739.55 487.102 737.39 487.597 734.871 488.161C735.743 489.392 736.591 490.593 737.445 491.788C735.861 494.808 736.888 496.925 740.936 499.141C748.042 503.028 752.739 508.982 755.283 516.564C756.137 519.108 756.342 521.905 756.564 524.61C756.911 528.788 757.289 532.997 757.09 537.162C757.01 538.876 755.469 540.517 754.59 542.194C754.225 542.893 753.952 543.655 753.476 544.274C752.715 545.27 751.947 546.39 750.907 546.984C750.567 547.176 749.143 546.062 748.636 545.27C747.299 543.178 745.962 541.024 745.046 538.734C743.82 535.664 746.717 530.576 750.356 528.912C750.375 528.614 750.363 528.305 750.412 528.002C751.576 520.884 749.044 515.518 743.536 510.814C739.129 507.044 735.143 502.563 731.85 497.798C729.684 494.666 729.077 490.463 727.437 485.79C725.444 486.001 722.38 486.106 719.422 486.706C716.618 487.276 715.591 489.43 716.191 492.147C717.875 499.772 719.137 507.509 718.141 515.289C716.426 528.726 710.361 539.483 697.796 545.84C693.526 548 689.366 550.395 685.12 552.617C682.892 553.78 681.425 557.055 681.661 560.106C681.809 562.05 681.524 564.018 681.555 565.974C681.58 567.379 681.908 568.777 681.933 570.182C681.951 571.216 681.896 572.324 681.555 573.283C677.402 584.863 673.002 596.363 669.146 608.043C668.434 610.197 669.468 613.198 670.353 615.557C673.138 623.009 676.233 630.349 679.216 637.733C679.408 638.203 679.488 638.878 679.841 639.101C685.12 642.388 686.117 648.583 689.441 653.182C690.369 654.469 690.716 656.091 693.13 655.398C693.946 655.162 696.008 656.821 696.367 657.972C697.06 660.201 696.775 662.608 694.955 664.533C690.858 668.872 686.804 673.248 682.379 677.989C681.735 676.38 681.432 675.637 681.011 674.585C679.346 675.959 677.73 677.042 676.455 678.428C675.558 679.4 673.955 680.601 675.787 682.216C675.929 682.34 676.109 682.643 676.053 682.736C673.392 687.143 676.913 690.566 678.337 693.951C683.251 705.643 689.026 716.969 694.033 728.63C696.998 735.537 699.709 742.662 701.51 749.946C705.384 765.587 711.902 780.225 717.689 795.147C720.74 803.014 724.293 810.689 727.245 818.593C728.861 822.913 729.504 827.586 730.922 831.993C732.766 837.755 734.926 843.418 736.969 849.119C740.156 858.019 743.325 866.925 746.575 875.801C750.096 885.419 753.649 895.025 757.307 904.588C760.519 912.993 763.961 921.312 767.198 929.711C770.596 938.53 773.876 947.393 777.175 956.25C777.633 957.488 777.912 958.794 778.246 960.076C779.069 963.263 779.917 965.937 783.129 968.215C786.954 970.926 790.067 974.831 791.349 979.987C792.58 984.951 795.038 989.599 796.752 994.451C798.714 1000.02 800.701 1005.6 802.199 1011.3C803.214 1015.15 801.493 1016.67 797.631 1017.79C794.493 1018.7 791.522 1020.32 788.625 1021.88C779.502 1026.83 769.841 1029.71 759.442 1030.08C749.515 1030.44 739.587 1030.83 729.659 1031.33C724.274 1031.59 718.908 1032.27 713.523 1032.47C708.034 1032.67 702.506 1032.85 697.041 1032.45C687.454 1031.74 677.817 1032.86 668.236 1030.84C662.412 1029.62 656.272 1029.92 650.28 1029.42C647.056 1029.14 643.813 1028.79 640.65 1028.14C636.732 1027.34 635.086 1024.99 635.284 1020.92C635.667 1012.99 637.252 1013.01 642.321 1011.4C650.039 1008.93 657.819 1006.64 665.488 1004.03C671.659 1001.93 677.73 999.514 683.802 997.138C685.089 996.63 686.414 995.887 687.367 994.903C694.423 987.643 701.349 980.265 708.399 973.005C711.029 970.3 713.48 966.884 716.736 965.473C720.61 963.802 725.265 963.944 730.043 963.232C730.854 960.156 728.997 956.312 726.793 953.892C718.06 944.299 714.625 932.267 710.212 920.649C709.309 918.272 708.609 915.995 706.511 914.256C701.176 909.836 698.49 903.529 695.345 897.619C689.725 887.06 684.279 876.408 678.844 865.749C672.327 852.975 665.872 840.169 659.447 827.351C652.88 814.26 645.948 801.331 639.994 787.961C635.284 777.39 631.589 766.336 627.875 755.356C624.254 744.654 621.252 733.749 617.805 722.985C617.341 721.525 615.911 720.361 614.883 719.099C613.658 717.595 612.247 716.233 611.151 714.642C606.342 707.673 601.483 700.735 596.916 693.611C594.075 689.179 590.404 685.837 586.208 682.736C583.893 681.028 582.494 678.026 580.836 675.507C579.344 673.229 578.818 670.104 574.987 670.277C574.275 670.308 573.421 668.835 572.771 667.956C572.078 667.003 571.552 665.926 570.865 664.756C569.46 665.523 568.265 666.167 566.792 666.972C570.382 670.667 567.937 674.17 566.049 676.509C559.606 684.488 552.643 692.063 545.662 699.583C543.235 702.195 540.122 704.021 536.223 703.947C535.48 703.935 534.527 704.603 534.001 705.234C530.306 709.716 526.759 714.32 523.052 718.789C518.985 723.697 514.343 727.275 507.399 727.597C504.063 727.751 500.85 730.047 497.539 731.267C494.729 732.3 491.857 733.173 488.515 734.287C487.717 738.793 487.11 743.875 485.835 748.783C485.191 751.258 485.767 752.855 487.58 753.988C489.023 754.886 489.047 755.95 489.239 757.38C490.638 767.964 484.504 774.661 477.275 780.739C475.48 782.249 474.348 783.883 473.691 786.111C471.135 794.832 468.759 803.602 462.91 810.98C461.387 812.892 461.269 815.888 460.384 818.345C457.519 826.299 454.244 825.277 448.074 825.129C446.873 825.098 445.499 825.023 444.54 824.429C443.184 823.587 441.043 822.133 441.148 821.137C441.569 817.107 437.317 813.876 439.687 809.531C441.637 805.966 442.862 802.005 444.502 798.267C446.198 794.398 448.018 790.586 449.893 786.507C445.932 785.678 445.004 782.818 444.502 779.569C443.791 774.976 442.714 770.427 442.262 765.81C441.624 759.274 444.707 753.969 449.002 749.433C452.32 745.929 455.365 741.795 460.502 740.786C463.083 740.279 465.788 740.39 468.591 740.217C470.578 734.578 472.874 728.952 474.44 723.134C475.035 720.918 474.044 718.232 473.605 715.793C472.868 711.702 472.287 707.555 471.092 703.594C470.151 700.469 468.907 697.498 469.427 694.149C469.489 693.747 469.266 693.252 469.427 692.924C471.68 688.337 469.105 685.515 465.899 682.798C463.417 680.694 461.028 678.459 458.738 676.151C457.395 674.795 455.377 673.631 456.937 670.964C457.271 670.394 455.755 668.791 455.179 667.622C454.709 666.668 453.774 665.4 454.071 664.725C454.727 663.258 455.866 661.166 457.104 660.937C463.931 659.681 466.735 654.234 469.78 649.202C475.084 640.444 480.122 631.519 485.136 622.582C493.077 608.42 501.389 594.432 508.6 579.906C512.734 571.575 515.012 562.322 517.84 554.307C504.694 544.472 492.433 535.002 479.838 525.996C473.122 521.193 470.752 514.682 471.408 507.119C471.934 501.041 473.407 494.988 475.028 489.071C478.798 475.299 482.728 461.559 486.943 447.918C490.168 437.482 494.333 427.332 497.316 416.834C499.916 407.68 501.42 398.223 503.444 388.902C506 377.13 508.674 365.376 511.15 353.585C513.433 342.71 516.212 331.966 515.99 320.627C515.86 313.899 517.388 307.134 518.224 300.394C520.223 284.184 526.276 269.205 532.348 254.246C533.611 251.133 531.259 248.818 530.801 246.094C529.761 239.93 528.424 233.796 527.731 227.594C527.496 225.496 528.424 222.971 529.544 221.077C531.209 218.267 533.53 215.847 535.752 213.037C529.619 204.205 525.726 197.489 518.917 187.691C512.592 190.836 503.475 191.783 496.691 194.766C491.665 196.976 488.911 196.276 486.095 191.789C482.883 186.683 479.423 181.7 475.734 176.928C472.664 172.955 472.268 168.882 473.791 164.308C474.614 161.838 475.028 159.22 475.926 156.782C476.563 155.036 475.808 154.628 474.416 154.25C472.416 153.706 470.442 153.056 468.461 152.437C466.097 151.694 465.664 150.209 466.642 148.018C468.666 143.487 470.535 138.882 472.639 134.395C473.085 133.448 474.286 132.854 474.861 132.334C476.13 124.102 476.074 115.87 477.461 107.675C478.556 101.207 480.667 94.6404 482.518 88.3768C484.393 82.0389 487.327 76.0105 489.833 69.8644C490.174 69.0227 490.601 68.119 491.251 67.531C491.833 67.0049 492.78 66.8811 493.566 66.584C493.634 67.302 493.77 68.0199 493.745 68.7317C493.72 69.5302 493.559 70.3286 493.405 71.5417C500.69 65.6618 508.593 63.1428 517.45 65.2038C523.268 66.5593 529.086 68.1499 534.663 70.2729C545.043 74.2217 554.234 80.1759 561.915 88.2964C568.865 95.6494 573.316 104.327 575.414 113.821C576.831 112.689 578.44 111.401 579.932 110.207C583.739 113.92 583.082 118.042 582.6 122.072C582.129 126.008 581.356 129.901 580.885 133.838C580.539 136.771 580.563 139.755 580.248 142.695C579.468 149.93 581.399 156.714 583.491 163.485C583.85 164.642 582.915 167.669 583.318 169.099C587.991 166.722 591.977 168.164 594.966 170.621C600.097 174.836 605.024 179.317 610.328 183.297C612.228 184.721 614.976 185.723 617.328 185.698C624.322 185.624 630.555 187.877 636.998 190.211C647.755 194.104 655.925 201.191 663.557 209.268C665.061 210.858 667.177 211.855 668.935 213.216C670.155 214.163 671.9 215.079 672.277 216.348C673.782 221.38 677.452 224.834 680.769 228.424C691.842 240.425 703.088 252.278 714.452 264.013C720.152 269.905 726.206 275.463 732.209 281.058C732.89 281.689 734.314 281.906 735.304 281.757C738.374 281.293 741.376 280.365 744.452 279.975C749.057 279.399 752.869 280.848 755.543 284.92C763.738 297.41 770.28 310.687 774.538 325.027C776.123 330.357 777.447 335.76 779.007 341.095C779.149 341.584 780.115 342.122 780.715 342.147C784.658 342.308 788.607 342.383 792.556 342.383C793.973 342.383 795.44 342.277 796.801 341.912C800.886 340.804 804.637 342.797 806.135 346.882C807.051 349.389 808.06 351.883 809.23 354.285C810.554 356.996 812.442 359.162 815.394 359.199C814.967 360.542 814.101 361.879 814.231 363.111C814.59 366.49 815.134 369.9 816.075 373.156C816.558 374.827 818.074 376.183 819.071 377.724C822.203 382.576 822.605 388.178 823.453 393.668C823.725 395.425 824.047 397.245 824.777 398.842C825.304 400.006 826.504 401.596 827.457 401.633C828.503 401.677 829.915 400.346 830.614 399.257C831.666 397.616 832.335 395.704 832.966 393.841C833.325 392.776 835.287 391.514 832.904 390.412C832.855 390.387 833.176 389.601 833.294 389.168C833.573 388.085 833.839 387.002 834.105 385.912C833.733 385.677 833.362 385.448 832.991 385.213C832.836 385.764 832.681 386.315 832.527 386.865C832.285 386.841 832.05 386.816 831.809 386.791C830.893 381.679 829.97 376.566 829.054 371.448L828.992 371.522ZM675.366 245.315C682.787 263.709 684.44 283.571 694.578 300.988C696.212 299.515 697.4 298.419 698.613 297.355C702.036 294.341 703.72 287.774 701.757 283.658C698.081 275.958 694.343 268.271 690.295 260.763C688.45 257.34 686.086 254.091 683.449 251.232C681.475 249.09 678.696 247.685 675.366 245.308V245.315ZM480.76 742.624C480.481 743.448 480.277 744.302 479.912 745.081C476.483 752.373 477.207 753.078 469.272 752.719C466.041 752.571 463.677 753.833 461.387 755.87C457.277 759.527 452.759 762.888 452.221 768.966C452.016 771.318 451.36 775.205 452.406 775.806C455.612 777.65 457.345 780.299 458.998 783.258C459.029 783.307 459.351 783.202 459.722 783.128C460.576 781.289 461.684 779.556 464.723 781.376C464.284 774.432 469.446 771.188 473.388 767.103C475.066 765.37 476.891 763.606 477.981 761.508C481.075 755.585 481.403 749.098 480.76 742.618V742.624Z" fill="white"/>
<path d="M375.101 960.583C374.624 958.906 373.937 957.247 373.745 955.532C373.603 954.245 374.098 952.883 374.315 951.559C375.33 952.066 376.586 952.345 377.292 953.131C378.257 954.208 378.802 955.669 379.922 957.662C380.956 956.127 381.581 954.468 382.782 953.638C384.032 952.778 385.839 952.722 387.09 952.394C387.87 953.676 388.191 954.969 388.971 955.365C391.379 956.585 391.206 958.293 390.271 960.224C389.361 962.106 388.383 963.956 387.312 965.745C386.384 967.298 385.908 968.641 387.789 969.855C388.817 970.517 389.72 971.359 390.704 972.089C394.678 975.029 396.417 979.009 396.392 983.905C396.343 992.793 396.157 1001.69 396.504 1010.57C396.615 1013.4 398.181 1016.18 399.19 1018.95C400.112 1021.47 401.171 1023.94 402.068 1026.17C397.729 1029.85 393.626 1033.1 389.101 1028.17C385.604 1028.62 382.466 1029.13 379.31 1029.42C375.738 1029.74 372.155 1029.84 368.577 1030.07C363.162 1030.44 358.55 1027.66 354.137 1025.46C334.263 1015.58 312.96 1009.51 292.392 1001.5C279.184 996.358 266.558 989.982 254.445 982.58C252.576 981.435 250.422 980.723 248.355 979.937C246.411 979.201 244.802 976.384 245.421 973.859C246.319 970.164 247.29 966.45 248.658 962.916C249.438 960.892 254.154 958.553 258.357 959.834C267.028 962.489 275.743 964.996 284.495 967.36C290.864 969.075 297.239 968.412 303.422 966.314C316.717 961.808 329.937 957.092 343.25 952.654C350.065 950.383 356.44 951.28 362.561 955.526C366.102 957.977 370.416 959.308 374.383 961.14C374.624 960.954 374.866 960.769 375.107 960.583H375.101Z" fill="white"/>
<path d="M828.311 369.56C824.87 366.738 821.633 364.089 817.882 361.025C824.524 362.269 828.429 365.617 828.311 369.56Z" fill="white"/>
<path d="M824.326 376.585C821.249 374.227 820.581 372.023 821.887 369.083C825.52 371.046 826.219 373.051 824.326 376.585Z" fill="white"/>
<path d="M829.277 389.137C827.835 385.912 826.393 382.681 824.864 379.258C825.198 379.029 825.736 378.658 826.882 377.872C827.977 381.839 828.967 385.411 829.958 388.988C829.729 389.038 829.5 389.081 829.277 389.131V389.137Z" fill="white"/>
<path d="M829.06 371.454C828.825 371.194 828.584 370.934 828.349 370.674C828.485 370.593 828.621 370.507 828.763 370.426C828.844 370.791 828.918 371.163 828.999 371.528L829.06 371.454Z" fill="white"/>
<path d="M558.733 631.761C564.087 644.597 569.447 657.428 574.776 670.271C574.962 670.717 574.987 671.422 574.758 671.812C569.546 680.682 564.446 689.619 558.962 698.321C556.753 701.831 553.998 705.173 550.879 707.878C548.979 709.518 545.94 710.359 543.34 710.545C539.255 710.842 536.625 712.371 534.329 715.874C528.263 725.115 519.858 731.707 509.484 735.631C503.103 738.045 495.979 739.474 489.004 737.989C488.923 738.057 488.793 738.113 488.775 738.193C488.156 741.387 488.756 746.883 489.957 749.817C494.618 761.18 491.609 773.497 481.261 780.485C478.828 782.125 476.365 783.71 473.524 785.585C475.003 785.585 476.241 785.492 477.467 785.604C479.72 785.814 480.648 787.621 479.398 789.478C469.458 804.271 465.138 821.137 461.356 838.213C460.273 843.097 458.67 847.931 461.337 852.839C465.113 859.79 468.715 866.839 472.583 873.74C474.812 877.714 477.448 881.452 479.856 885.321C483.204 890.699 482.282 897.136 477.702 901.432C472.862 905.968 468.579 911.26 463.219 915.042C450.165 924.264 436.567 932.725 423.304 941.656C416.124 946.49 409.217 951.733 402.099 956.666C398.336 959.271 394.381 961.611 390.45 964.111C392.71 966.81 395.018 969.564 397.135 972.096C397.754 970.963 398.41 969.775 399.146 968.425C403.993 973.649 404.364 999.657 400.112 1010.75C404.785 1015.11 406.01 1023.77 403.269 1029.84C401.424 1030.2 400.106 1030.42 398.794 1030.71C395.055 1031.52 391.354 1032.66 387.579 1033.09C382.924 1033.63 378.208 1033.66 373.51 1033.77C369.178 1033.88 364.752 1034.3 360.525 1033.63C356.972 1033.07 353.63 1031.15 350.207 1029.81C333.378 1023.18 316.475 1016.75 299.758 1009.86C287.311 1004.74 274.981 999.286 262.856 993.443C257.459 990.837 252.18 987.47 247.785 983.435C242.122 978.242 242.134 971.322 244.486 964.248C245.718 960.546 247.204 957.192 250.694 955.131C251.183 954.84 251.815 954.536 252.341 954.592C263.488 955.824 274.616 957.315 285.788 958.306C292.411 958.894 299.108 958.801 305.767 958.857C309.128 958.888 312.545 958.102 315.838 958.491C324.274 959.476 330.37 953.707 337.624 951.367C343.256 949.548 348.567 946.763 354.106 944.621C355.053 944.256 356.706 944.609 357.523 945.265C359.008 946.453 360.351 947.976 361.329 949.61C362.833 952.129 364.944 952.884 367.674 952.748C368.639 952.698 369.623 952.952 370.737 953.082C372.179 947.023 377.168 943.668 381.587 940.047C393 930.701 405.726 923.41 419.107 917.252C425.755 914.188 432.544 911.396 439.043 908.042C442.224 906.402 445.455 904.211 447.653 901.456C451.57 896.542 451.793 890.755 449.243 884.949C445.895 877.336 442.453 869.767 439.26 862.086C437.1 856.887 434.358 851.675 435.422 845.783C436.759 838.374 437.88 830.873 441.327 824.027C441.463 823.761 441.507 823.452 441.649 822.975C439.885 822.041 438.133 821.106 436.369 820.178C430.242 816.947 429.122 811.358 433.021 806.035C437.855 799.431 442.843 792.938 447.82 786.322C443.171 785.629 439.21 783.697 437.143 778.696C435.206 774.023 435.218 769.802 438.195 765.606C438.641 764.981 438.276 763.811 438.368 762.901C438.554 761.094 438.443 759.15 439.086 757.51C443.821 745.447 453.254 739.592 465.756 737.617C463.788 732.313 467.1 728.828 470.436 725.369C462.742 714.265 460.706 701.973 466.19 682.055C462.185 682.625 459.672 679.889 457.71 677.352C454.609 673.341 452.307 668.724 449.571 664.416C449.008 663.531 448.036 662.899 447.046 661.959C449.936 656.537 452.728 650.972 455.841 645.594C457.277 643.112 459.604 641.565 462.779 641.985C464.754 642.245 466.078 641.732 467.186 639.708C472.224 630.479 478.148 621.691 482.554 612.184C491.69 592.477 500.064 572.417 508.946 552.048C502.899 550.092 496.549 548.34 490.421 545.988C480.493 542.17 471.185 537.131 463.101 530.106C459.456 526.937 456.058 523.49 452.517 520.197C450.066 517.913 449.491 515.326 450.902 512.232C454.455 504.452 458.249 496.758 461.393 488.811C464.803 480.177 467.836 471.375 470.584 462.506C476.47 443.511 482.313 424.497 487.679 405.347C490.05 396.886 491.343 388.116 492.903 379.451C495.329 365.989 496.103 352.372 496.747 338.725C496.877 335.933 498.306 333.198 499.204 330.456C499.278 330.227 499.928 330.245 500.219 330.029C502.775 328.067 505.43 326.204 507.776 324.007C508.438 323.381 508.407 321.747 508.302 320.615C507.869 316.072 506.835 311.541 506.928 307.023C506.978 304.386 508.618 301.737 509.732 299.169C516.175 284.289 522.649 269.416 529.191 254.574C530.145 252.414 530.411 250.359 529.427 248.224C527.037 243.05 524.704 237.844 522.154 232.744C521.096 230.627 520.669 229.26 522.507 227.025C525.694 223.169 528.139 218.701 530.844 214.461C530.999 214.219 530.832 213.619 530.627 213.31C525.917 206.173 521.176 199.049 516.423 191.888C511.515 194.314 506.507 196.864 501.432 199.278C497.254 201.265 492.556 201.346 488.601 199.749C485.395 198.449 482.759 195.311 480.363 192.55C477.807 189.604 475.758 186.2 473.666 182.883C473.091 181.967 473.295 180.599 472.868 179.547C472.422 178.457 471.884 177.058 470.974 176.576C468.597 175.319 467.248 173.877 468.17 171.042C468.864 168.907 469.334 166.698 470.046 164.568C470.807 162.297 471.729 160.081 472.856 157.11C470.702 156.875 468.814 156.658 466.92 156.466C464.073 156.176 462.309 154.319 461.393 151.942C460.991 150.89 461.579 149.169 462.222 148.043C464.581 143.896 466.518 139.229 469.811 135.973C473.79 132.037 472.992 128.107 472.076 123.434C471.389 123.774 470.782 124.071 470.169 124.368C467.96 120.779 468.133 119.869 471.178 117.696C471.605 117.393 471.865 116.588 471.878 116.007C472.292 101.282 477.095 87.8078 483.266 74.9958C482.672 73.4484 481.651 71.9816 481.632 70.5147C481.577 65.2413 481.725 59.9556 482.14 54.707C482.226 53.5744 483.569 52.2312 484.677 51.5566C487.413 49.8916 490.378 48.6042 493.2 47.0817C500.132 43.3309 507.652 41.9197 515.401 41.6474C525.243 41.307 535.096 40.8737 544.937 41.0346C559.222 41.2698 573.006 44.3274 586.245 49.7431C588.331 50.5973 590.379 51.569 592.521 52.2498C599.274 54.3852 603.006 59.1324 604.454 65.8541C605.723 71.7525 607.122 77.6386 607.914 83.6052C608.186 85.66 606.732 87.9191 606.193 90.1102C605.884 91.3666 605.692 92.6788 605.686 93.9662C605.655 99.8832 601.372 103.832 598.902 108.592C595.38 115.388 591.611 122.072 587.588 128.577C584.462 133.628 584.859 139.155 584.611 144.583C584.351 150.339 584.617 156.12 584.58 161.888C584.568 163.689 584.326 165.491 584.172 167.545C585.515 166.951 587.545 167.329 586.542 164.698C586.443 164.438 588.195 162.885 588.801 163.046C590.769 163.553 592.868 164.24 594.434 165.472C596.897 167.403 598.488 170.126 601.774 171.414C607.456 173.636 610.025 178.965 612.414 184.213C612.575 184.566 612.878 184.851 612.736 184.659C617.483 183.978 621.809 183.143 626.173 182.777C635.927 181.96 643.72 186.788 650.429 192.835C659.676 201.178 668.378 210.165 676.932 219.233C683.963 226.679 690.431 234.657 697.177 242.375C701.974 247.859 706.833 253.287 711.629 258.771C713.641 261.073 715.51 263.499 717.54 265.777C718.629 266.996 719.44 268.358 721.786 268.104C723.049 267.968 724.763 269.93 725.914 271.261C728.173 273.873 730.166 276.707 732.296 279.437C732.617 279.852 733.125 280.508 733.465 280.464C736.046 280.105 738.603 279.585 741.171 279.134C744.031 278.632 746.921 278.273 749.75 277.648C755.159 276.454 757.282 280.619 759.547 283.912C768.027 296.222 773.87 309.821 778.264 324.062C779.941 329.503 781.575 334.962 783.426 340.34C783.661 341.034 785.097 341.764 785.939 341.721C791.423 341.43 796.894 340.928 802.372 340.495L802.322 340.39C799.853 341.659 797.377 342.927 794.907 344.203C794.264 344.302 793.626 344.394 792.982 344.493C793.001 344.617 793.013 344.747 793.032 344.871C793.775 344.803 794.524 344.729 795.266 344.661C799.141 343.633 803.009 342.606 807.113 341.522C808.908 346.245 810.554 350.732 812.355 355.158C812.696 355.993 813.593 357.12 814.323 357.188C819.529 357.683 823.515 360.561 826.721 364.163C834.061 372.407 837.67 382.279 837.651 393.34C837.639 398.613 835.819 403.323 832.452 407.445C831.957 408.052 831.74 409.259 831.969 410.008C833.25 414.136 834.878 418.159 836.048 422.319C836.797 424.974 835.961 427.728 833.783 429.331C828.219 433.435 822.035 436.319 815.19 437.495C815.456 439.185 815.778 440.955 816.007 442.737C816.248 444.594 816.254 446.036 814.008 447.175C812.603 447.887 812.015 450.226 811.08 451.848C809.787 454.095 808.45 456.317 807.255 458.619C806.871 459.362 806.884 460.309 806.717 461.157C807.459 461.256 808.208 461.355 809.013 461.46C809.205 462.587 809.415 463.843 809.681 465.427C785.939 474.866 762.537 485.5 737.68 492.364C740.385 497.693 745.584 500.459 750.102 503.802C755.054 507.459 757.022 512.423 757.709 518.08C758.118 521.46 756.929 525.31 758.155 528.237C759.646 531.802 758.582 535.126 759.096 538.493C759.492 541.099 758.687 542.597 755.883 542.733C755.314 542.764 754.757 543.11 754.206 543.308C755.24 547.102 753.222 550.352 749.372 551.064C747.175 551.472 745.999 549.968 745.51 548.192C744.606 544.905 743.622 541.569 743.368 538.202C743.183 535.702 743.845 533.028 744.65 530.602C745.002 529.543 746.649 528.912 747.936 527.903C746.315 520.544 742.471 514.348 735.7 509.917C729.647 505.956 726.645 500.28 727.486 492.871C727.53 492.469 727.493 492.054 727.474 491.639C727.474 491.553 727.387 491.466 727.233 491.188C725.487 490.983 723.606 490.761 721.235 490.482C721.538 492.029 721.786 493.626 722.157 495.186C724.274 503.987 726.688 512.727 728.458 521.596C729.411 526.387 728.916 531.344 726.911 535.986C726.354 537.28 725.908 538.004 724.008 538.314C721.365 538.741 718.902 540.61 716.476 542.052C706.566 547.944 696.663 553.855 686.853 559.914C685.671 560.645 684.557 562.248 684.316 563.603C681.766 577.987 677.371 591.827 672.073 605.394C670.959 608.247 670.476 610.605 671.924 613.607C677.074 624.265 681.902 635.084 686.859 645.854C680.051 647.55 673.503 649.19 666.954 650.824C667.041 651.263 667.128 651.709 667.214 652.149C677.848 650.626 688.475 649.103 699.102 647.581C702.259 650.812 704.716 661.327 703.014 664.886C701.151 662.8 699.814 664.552 698.483 665.592C695.425 667.981 692.591 670.686 689.416 672.889C685.479 675.619 681.289 677.964 677.693 680.18C684.625 697.38 691.811 714.352 698.285 731.595C702.389 742.519 704.97 754.007 709.079 764.925C712.818 774.847 717.936 784.242 722.003 794.052C725.791 803.182 729.077 812.527 732.426 821.83C735.644 830.774 738.646 839.792 741.753 848.779C741.914 849.249 742.056 849.955 742.397 850.091C745.603 851.384 745.163 854.43 745.881 856.967C747.676 863.324 749.391 869.717 751.507 875.975C757.474 893.59 763.75 911.093 769.636 928.733C772.038 935.937 773.684 943.389 775.788 950.699C776.89 954.53 778.233 958.293 779.329 961.673C781.965 961.147 784.515 960.41 787.109 960.181C789.925 959.927 791.423 962.298 791.726 964.39C793.329 975.333 796.17 985.898 800.261 996.16C800.923 997.825 801.041 999.706 801.505 1001.93C802.922 1004.74 804.557 1008.14 806.351 1011.44C807.206 1013.01 808.487 1014.35 809.372 1015.92C810.449 1017.82 809.496 1019.1 807.843 1020.21C800.626 1024.99 792.462 1027.6 784.299 1029.97C774.656 1032.76 764.846 1035 755.029 1037.13C752.362 1037.7 749.409 1036.86 746.587 1036.9C742.291 1036.98 738.002 1037.39 733.707 1037.46C727.004 1037.55 720.301 1037.42 713.598 1037.5C701.572 1037.66 689.527 1038.31 677.513 1037.99C666.323 1037.69 655.096 1036.81 644.227 1033.73C641.956 1033.09 639.839 1031.89 637.431 1030.86C636.992 1031.17 636.261 1031.68 634.782 1032.73C634.058 1029.69 633.006 1027.08 632.888 1024.42C632.641 1018.89 631.762 1013.14 635.308 1008.18C636.119 1007.04 637.27 1005.7 638.502 1005.39C650.354 1002.36 662.25 999.465 674.165 996.674C677.507 995.888 680.961 995.541 683.765 995.089C688.128 989.754 692.17 984.505 696.533 979.535C702.692 972.523 709.017 965.659 715.405 958.857C718.264 955.811 719.23 956.071 722.739 958.572C723.754 959.296 725.531 958.956 726.96 959.104C726.731 957.959 726.806 956.622 726.23 955.688C721.025 947.264 715.659 938.939 710.441 930.522C702.735 918.093 695.122 905.603 687.447 893.15C685.646 890.229 683.418 887.524 682.001 884.435C680.633 881.465 678.225 878.995 679.253 874.768C679.835 872.366 677.124 869.092 675.731 866.295C669.894 854.609 664.052 842.917 658.085 831.294C654.025 823.384 649.736 815.585 645.558 807.731C639.288 795.952 632.449 784.459 629.335 771.213C628.568 767.945 625.529 765.284 624.223 762.065C619.098 749.439 614.221 736.708 609.325 723.988C608.044 720.665 607.035 717.236 605.94 713.986C604.448 714.129 603.049 714.191 601.669 714.407C598.809 714.859 597.219 712.879 596.259 710.929C590.107 698.395 584.042 685.812 578.193 673.137C571.904 659.508 565.888 645.761 559.742 632.064C559.631 631.81 559.402 631.606 559.222 631.383C559.105 631.006 558.981 630.628 558.863 630.25C558.721 630.288 558.572 630.319 558.43 630.356C558.523 630.82 558.622 631.284 558.715 631.754L558.733 631.761ZM679.816 231.661C680.02 231.865 680.231 232.07 680.435 232.274C680.695 232.781 680.961 233.289 681.221 233.79C681.413 233.673 681.611 233.555 681.803 233.431C681.462 232.905 681.128 232.385 680.788 231.859C680.621 231.68 680.46 231.5 680.293 231.327L679.859 229.947C679.581 230.213 679.302 230.485 679.024 230.751C679.284 231.055 679.55 231.352 679.81 231.655L679.816 231.661ZM664.955 508.252C664.819 508.945 664.683 509.644 664.541 510.331C664.287 510.529 664.033 510.721 664.429 510.418C664.268 510.913 664.373 510.585 664.479 510.257C664.763 509.7 665.048 509.149 665.327 508.592C665.457 508.109 665.587 507.627 665.71 507.144C667.091 504.006 668.465 500.868 669.845 497.736C676.938 479.905 686.884 463.261 691.978 444.563C691.05 445.126 690.61 445.931 690.239 446.773C685.591 457.313 680.843 467.81 676.356 478.419C673.769 484.528 671.609 490.816 669.257 497.024C667.889 500.274 666.515 503.529 665.147 506.779C665.085 507.274 665.023 507.763 664.955 508.258V508.252ZM535.87 588.516C535.412 588.348 534.96 588.188 534.502 588.02C528.82 585.668 523.138 583.317 517.462 580.965L517.042 582.042C522.736 584.226 528.43 586.411 534.118 588.59C534.607 588.664 535.096 588.732 535.579 588.806C536.136 589.079 536.693 589.351 537.25 589.623C537.318 589.407 537.392 589.19 537.46 588.98C536.928 588.825 536.402 588.664 535.87 588.509V588.516ZM625.968 372.154C626.036 372.581 626.105 373.014 626.173 373.441C626.346 373.416 626.513 373.391 626.686 373.361C626.606 372.847 626.525 372.333 626.439 371.813C625.894 370.662 625.356 369.505 624.811 368.353C623.499 363.984 622.193 359.62 620.881 355.25C620.565 355.349 620.249 355.455 619.94 355.554C621.425 359.936 622.911 364.318 624.396 368.7C624.916 369.851 625.436 371.002 625.962 372.154H625.968ZM482.684 647.698C482.437 647.698 482.183 647.711 481.936 647.717C482.078 647.884 482.22 648.045 482.363 648.212C483.972 649.122 485.488 650.372 487.215 650.88C491.987 652.285 496.852 653.374 501.68 654.593C501.704 654.457 501.723 654.321 501.748 654.185C495.391 652.025 489.041 649.865 482.684 647.704V647.698ZM541.205 671.682C546.627 662.342 552.148 653.046 555.843 642.827C554.642 644.214 553.695 645.73 552.884 647.321C548.75 655.429 544.652 663.555 540.549 671.676C539.447 673.675 538.352 675.668 537.25 677.667C537.522 677.797 537.788 677.927 538.061 678.063C538.29 677.655 538.531 677.253 538.735 676.838C539.565 675.123 540.382 673.403 541.205 671.688V671.682ZM455.81 798.583C458.304 795.228 460.805 791.873 463.188 788.667C459.753 787.788 456.466 786.947 453.031 786.068C452.072 787.894 450.976 789.973 449.943 791.942C452.641 793.545 456.336 793.842 455.482 798.193C454.876 798.515 454.263 799.121 453.675 799.096C451.36 798.997 449.051 798.626 446.737 798.515C446.056 798.484 445.35 798.979 444.657 799.239C444.725 799.474 444.787 799.709 444.855 799.951C447.628 800.891 450.407 801.832 453.334 802.823C454.195 801.356 455.006 799.969 455.816 798.583H455.81ZM367.927 956.987C367.766 956.845 367.612 956.696 367.451 956.554C367.469 956.808 367.494 957.062 367.513 957.315C368.46 961.122 369.363 964.941 370.384 968.735C370.564 969.409 371.096 970.288 371.678 970.511C374.209 971.477 376.772 972.442 379.415 972.999C381.457 973.433 383.63 973.266 386.396 973.389C383.153 968.531 381.426 963.573 375.348 963.511C374.463 963.505 373.448 962.713 372.736 962.032C371.059 960.429 369.524 958.677 367.933 956.987H367.927ZM716.321 285.416C716.971 285.243 717.627 285.075 718.277 284.902C721.817 283.825 725.351 282.754 729.708 281.43C725.648 277.784 722.219 274.714 718.784 271.638C714.136 273.873 709.116 276.28 704.196 278.645C705.706 282.055 707.229 285.502 708.863 289.191C710.955 288.133 713.641 286.778 716.321 285.416ZM745.306 461.089C734.437 461.77 723.569 463.001 712.651 460.587C714.897 468.962 717.008 476.853 719.007 484.299C724.33 485.314 729.275 486.255 734.518 487.257C732.605 482.021 730.81 477.416 735.718 472.991C739.488 469.593 742.558 465.421 745.943 461.596C746.147 461.305 746.345 461.015 746.55 460.724C746.135 460.847 745.72 460.971 745.306 461.089ZM787.635 461.2C787.548 461.374 787.492 461.652 787.362 461.695C771.159 467.192 754.955 472.669 738.702 478.165C738.937 480.294 739.221 482.826 739.531 485.63C760.538 478.134 781.52 470.645 802.613 463.113C801.654 460.996 800.868 459.244 800.051 457.443C798.25 457.932 796.597 458.384 794.938 458.836C794.697 455.853 797.092 455.723 799.005 455.079C800.472 454.584 802.644 454.522 803.281 453.507C805.367 450.171 806.902 446.488 809.038 442.137C790.005 448.271 771.74 454.157 754.305 459.777C752.683 467.185 745.553 469.055 742.322 474.34C743.226 474.204 744.037 474.185 744.78 473.95C753.804 471.066 762.778 468.033 771.839 465.273C777.032 463.694 782.355 462.543 787.622 461.2H787.635ZM546.416 489.857C546.559 490.03 546.695 490.21 546.837 490.383C544.943 494.27 543.049 498.151 541.155 502.038C541.025 502.223 540.895 502.409 540.766 502.595C540.995 502.508 541.23 502.428 541.459 502.341C550.31 497.278 559.166 492.221 567.986 487.177C567.213 485.481 566.513 484.138 565.969 482.733C560.912 469.723 555.707 456.769 550.904 443.666C547.407 434.134 544.591 424.361 541.211 414.786C539.249 409.222 536.742 403.849 534.539 398.372C534.174 397.468 533.815 396.41 533.939 395.488C534.848 388.877 535.987 382.298 536.854 375.682C537.813 368.31 538.42 360.883 539.435 353.518C540.722 344.178 542.183 334.856 543.712 325.554C545.104 317.093 546.429 308.607 548.267 300.239C551.702 284.624 555.502 269.094 559.098 253.516C559.705 250.892 560.033 248.211 560.491 245.55C560.262 245.476 560.033 245.402 559.804 245.327C555.236 251.182 550.675 257.031 545.568 263.574C542.752 254.06 540.202 245.445 537.603 236.656C537.009 241.156 534.025 245.055 535.443 249.932C536.037 251.975 535.752 254.333 535.566 256.518C535.362 258.894 534.533 261.228 534.459 263.598C534.13 273.984 534.217 284.388 533.697 294.762C533.19 304.832 532.193 314.877 531.29 324.923C530.918 329.045 530.275 333.142 529.656 337.239C528.814 342.828 527.904 348.411 526.982 353.988C525.843 360.84 524.723 367.697 523.479 374.53C522.47 380.058 520.916 385.517 520.285 391.081C519.48 398.18 519.561 405.372 518.886 412.49C518.069 421.099 517.011 429.69 515.791 438.25C513.65 453.309 510.821 468.281 509.224 483.395C508.018 494.815 508.29 506.389 507.912 517.74C509.28 518.248 510.017 518.57 510.784 518.792C523.448 522.518 536.191 526.009 548.737 530.088C552.142 531.196 554.172 530.769 557.05 528.875C564.168 524.189 571.675 520.098 579.375 515.568C576.243 507.385 573.08 499.122 569.992 491.039C559.922 496.801 550.396 502.254 540.871 507.707C540.444 507.441 540.017 507.175 539.59 506.909C539.695 505.021 539.274 502.879 540.017 501.289C541.867 497.346 544.256 493.651 546.429 489.857H546.416ZM733.793 852.189C731.621 846.105 729.102 839.464 726.874 832.736C721.953 817.9 717.546 802.909 710.818 788.705C706.455 779.495 702.525 770.037 699.139 760.425C694.194 746.388 690.047 732.078 685.318 717.96C681.357 706.132 677.055 694.422 672.921 682.705C653.975 692.806 634.504 702.907 613.404 709.784C614.462 713.108 615.23 716.103 616.362 718.969C621.611 732.264 627.045 745.484 632.232 758.797C635.692 767.673 638.31 776.914 642.29 785.536C646.802 795.302 652.539 804.5 657.522 814.062C666.144 830.613 674.574 847.262 683.146 863.837C684.606 866.666 686.364 869.34 687.751 871.698C704.041 866.573 721.08 864.394 733.8 852.201L733.793 852.189ZM561.401 120.909C557.545 118.507 554.122 116.372 550.625 114.193C550.192 114.67 549.585 115.245 549.09 115.901C545.766 120.265 545.884 120.135 550.204 123.601C551.244 124.437 551.974 126.683 551.659 127.995C550.792 131.598 549.301 135.051 548.032 138.554C547.766 139.291 547.407 139.997 547.085 140.715C546.744 140.622 546.404 140.535 546.064 140.442C546.429 137.601 546.72 134.748 547.178 131.919C547.506 129.908 547.852 128.274 545.117 127.469C543.662 127.042 542.554 125.445 541.267 124.356C539.899 125.569 537.299 126.795 537.157 128.261C536.953 130.415 536.123 130.137 534.83 130.155C534.13 130.168 533.419 130.261 532.732 130.384C531.809 130.558 530.9 130.799 529.984 131.016C529.854 129.945 529.371 128.781 529.643 127.828C531.296 122.06 533.122 116.335 534.78 110.956C529.55 108.474 524.388 105.837 519.066 103.572C516.051 102.291 513.693 98.9857 509.676 100.273C509.361 100.372 508.092 98.7505 507.968 97.8407C507.838 96.8504 508.519 95.7487 508.872 94.7027C510.896 88.6061 512.926 82.5097 515.012 76.2523C514.393 76.2956 513.885 76.3079 513.39 76.3636C506.384 77.1497 499.39 78.1956 492.365 78.6598C486.454 79.0498 486.441 78.7527 484.51 84.4098C480.982 94.7522 478.55 105.311 477.399 116.211C476.551 124.275 476.718 132.557 472.713 140.077C471.104 143.104 470.244 146.52 468.746 150.556C472.237 151.379 475.672 152.183 479.355 153.05C477.999 156.522 476.631 160.161 475.152 163.758C473.648 167.422 474.019 170.126 477.027 172.584C478.5 173.79 480.388 174.663 482.233 175.208C483.848 175.684 485.129 176.241 484.238 177.944C483.477 179.398 482.016 180.487 480.363 182.288C483.966 186.392 487.914 190.886 492.123 195.682C503.276 192.346 514.263 187.333 524.828 181.335C525.936 180.704 527.229 180.401 528.436 179.943C528.628 180.24 528.82 180.543 529.012 180.84C526.945 182.982 524.877 185.123 523.336 186.72C528.74 196.332 534.093 205.845 539.385 215.247C551.739 198.034 568.017 184.609 581.974 170.058C581.275 168.56 580.625 167.453 580.235 166.258C579.864 165.119 580.012 163.764 579.486 162.724C574.646 153.13 569.713 143.586 564.892 134.197C564.242 136.258 563.864 138.734 562.725 140.789C561.203 143.549 559.513 146.545 557.099 148.389C555.31 149.757 552.241 149.844 549.752 149.8C546.453 149.745 543.043 149.361 540.543 146.322C543.433 145.963 546.274 145.932 549.053 146.359C550.607 146.594 551.213 146.254 551.758 144.88C554.945 136.846 558.201 128.837 561.401 120.909ZM700.971 300.456C703.8 306.02 707.291 311.504 709.482 317.471C714.712 331.669 719.589 346.01 724.126 360.443C730.043 379.278 735.465 398.267 741.177 417.169C742.886 422.826 744.866 428.409 746.723 434.041C751.427 432.141 751.359 432.191 748.481 428.502C748.078 427.982 748.673 426.688 748.803 425.754C750.505 426.082 752.269 426.243 753.866 426.837C754.379 427.029 754.676 428.366 754.714 429.195C754.881 432.816 752.287 434.666 749.651 436.207C748.091 437.117 747.577 437.724 748.437 439.482C749.168 440.973 749.347 442.737 750.022 445.355C751.278 443.406 751.965 442.063 752.925 440.955C753.525 440.255 754.534 439.903 755.357 439.389C755.623 440.41 756.428 441.716 756.057 442.397C755.085 444.21 753.612 445.752 752.337 447.404C751.916 447.943 751.056 448.549 751.13 448.995C751.644 451.904 752.362 454.782 753.011 457.635C771.542 449.453 790.996 445.021 809.824 438.894C803.969 421.334 798.219 404.128 792.493 386.915C787.53 372.005 782.256 357.194 777.719 342.154C771.208 320.571 764.567 299.119 750.189 280.631C733.843 287.217 717.169 293.932 700.977 300.45L700.971 300.456ZM694.07 304.331C694.924 308.527 695.797 312.556 696.552 316.61C698.118 325.034 699.523 333.489 701.163 341.894C702.822 350.386 704.753 358.822 706.449 367.307C707.142 370.767 706.901 374.549 708.231 377.706C709.977 381.852 710.026 385.851 709.048 389.899C706.962 398.52 704.512 407.056 702.29 415.653C701.838 417.398 701.151 419.403 701.596 421.006C705.062 433.534 708.776 445.987 712.415 458.458C718.419 458.155 724.522 457.852 730.624 457.524C736.771 457.196 743.003 458.31 749.217 456.725C748.462 454.763 748.264 452.417 747.032 451.563C745.801 450.709 743.486 451.594 741.728 451.26C740.274 450.988 738.281 450.393 737.73 449.323C737.074 448.054 737.711 446.123 737.779 444.619C740.676 445.467 742.749 446.08 745.343 446.841C744.167 443.771 743.263 441.419 742.384 439.123C738.275 439.834 734.369 440.305 731.262 437.297C730.445 436.511 729.869 434.431 730.346 433.633C730.872 432.754 732.723 432.339 734.004 432.333C734.994 432.333 735.997 433.261 736.975 433.806C738.107 434.431 739.221 435.087 740.348 435.731C738.596 428.848 736.263 422.69 734.313 416.414C728.136 396.521 722.021 376.61 716.036 356.662C710.93 339.647 705.576 322.732 698.396 306.447C697.555 304.541 696.527 303.359 694.058 304.331H694.07ZM692.56 996.185C694.076 999.923 696.954 1000.94 700.668 1000.36C701.454 1000.24 702.314 1000.39 703.107 1000.56C712.75 1002.53 722.349 1004.74 732.048 1006.38C734.778 1006.85 735.675 1007.99 736.189 1010.25C736.387 1011.11 736.752 1011.94 737.142 1013.1C756.416 1009.8 775.782 1007.1 793.323 999.156C788.65 989.302 784.132 979.77 779.601 970.208C775.262 974.553 770.862 978.892 766.548 983.311C765.483 984.4 764.685 985.749 763.769 986.981C763.973 987.346 764.177 987.711 764.381 988.083C762.964 987.823 761.404 987.848 760.16 987.235C757.462 985.91 754.918 984.283 752.331 982.748C743.09 977.276 733.917 971.7 724.602 966.364C720.232 963.864 720.115 964.068 717.008 967.986C716.952 968.054 716.983 968.184 716.965 968.401C720.653 971.458 726.187 972.783 727.833 979.257C722.56 976.843 718.06 974.782 713.443 972.665C711.524 974.868 709.537 977.159 707.637 979.343C710.49 981.621 713.164 983.756 716.358 986.313C710.967 987.637 708.132 983.973 704.462 983.125C700.445 987.538 696.447 991.939 692.572 996.197L692.56 996.185ZM395.241 981.225C388.755 982.011 382.163 982.933 375.54 983.521C374.271 983.633 372.402 982.822 371.647 981.813C369.184 978.502 366.931 975.005 364.913 971.402C361.391 965.126 358.105 958.72 354.985 952.878C343.597 957.142 332.728 961.209 321.73 965.325C321.334 966.804 320.709 968.803 320.294 970.845C320.121 971.706 320.108 972.789 320.48 973.544C323.457 979.56 326.458 985.564 329.658 991.468C330.389 992.818 331.695 994.198 333.069 994.786C338.231 996.983 343.473 999.013 348.784 1000.81C358.266 1004.01 367.748 1007.25 377.372 1009.97C383.036 1011.57 388.977 1012.19 394.529 1013.2C397.933 1001.98 394.473 991.363 395.247 981.231L395.241 981.225ZM472.701 678.441C472.416 685.404 472.07 691.866 471.909 698.327C471.537 712.909 484.343 726.248 498.108 726.272C508.729 726.291 516.534 721.321 524.32 714.228C521.64 713.801 519.536 713.609 517.506 713.108C514.801 712.433 512.084 711.696 509.515 710.65C507.442 709.809 507.275 707.642 507.931 705.928C508.222 705.154 510.159 704.337 511.069 704.579C515.655 705.798 520.396 706.856 524.593 708.961C527.786 710.558 529.179 709.462 530.726 707.209C531.729 705.748 532.67 704.244 533.827 702.468C513.619 694.527 493.615 686.66 472.701 678.435V678.441ZM247.717 976.286C249.797 977.264 251.753 978.013 253.535 979.059C267.684 987.352 282.613 994.025 297.74 1000.28C316.258 1007.93 334.802 1015.53 353.339 1023.13C356.57 1024.46 359.788 1026.56 363.112 1026.79C373.052 1027.45 383.042 1027.37 393.013 1027.56C394.944 1027.6 396.875 1027.56 398.924 1027.56C398.354 1023.8 397.828 1020.37 397.358 1017.27C395.817 1017.92 394.337 1019.18 393.13 1018.97C383.933 1017.29 374.606 1015.95 365.681 1013.29C352.652 1009.41 339.914 1004.52 327.065 1000.02C317.453 996.655 307.779 993.424 298.272 989.773C289.341 986.344 280.527 982.593 271.794 978.693C264.676 975.512 257.756 971.891 250.583 968.382C249.791 970.573 248.732 973.482 247.711 976.286H247.717ZM796.981 1003.94C792.679 1005.54 788.124 1007.33 783.494 1008.92C766.517 1014.76 748.945 1017.9 731.194 1020.14C725.419 1020.87 719.614 1021.4 713.82 1022.01C703.905 1023.04 694.014 1024.42 684.074 1024.97C676.758 1025.37 669.381 1024.78 662.04 1024.43C656.977 1024.2 651.908 1023.76 646.876 1023.13C644.902 1022.89 643.026 1021.85 640.47 1020.95C639.857 1023.16 639.152 1025.73 638.465 1028.2C640.198 1028.2 641.714 1028.1 643.218 1028.22C653.072 1029 662.913 1030.31 672.779 1030.55C694.002 1031.07 715.244 1031.09 736.473 1031.24C739.624 1031.27 742.78 1030.76 745.937 1030.68C747.014 1030.65 748.233 1031.63 749.162 1031.36C757.406 1028.95 765.601 1026.36 773.814 1023.85C783.568 1020.86 793.329 1017.91 803.015 1014.96C800.787 1010.89 798.856 1007.36 796.974 1003.93L796.981 1003.94ZM549.381 249.957C551.943 246.652 554.376 243.792 556.493 240.71C559.495 236.347 563.994 233.047 565.69 227.756C565.783 227.471 565.969 226.976 566.099 226.982C569.069 227.087 568.921 224.389 569.546 222.786C575.321 207.95 582.798 194.03 591.859 180.964C596.068 174.892 596.105 175.022 590.522 170.355C588.974 169.062 588.127 169.439 587.006 170.708C578.025 180.877 569.082 191.09 559.983 201.16C554.512 207.219 548.787 213.056 543.427 218.725C547.555 228.727 547.988 239.243 549.375 249.957H549.381ZM642.841 550.711C627.466 544.949 612.327 539.273 597.101 533.566C596.495 535.46 595.938 537.212 595.362 539.007C602.214 548.322 607.611 558.893 616.041 566.624C625.065 561.264 633.866 556.04 642.847 550.705L642.841 550.711ZM695.494 885.581C695.871 886.342 696.397 887.772 697.251 888.979C697.666 889.567 698.743 890.117 699.418 890.018C706.746 888.904 714.074 887.803 721.353 886.416C728.149 885.116 734.87 883.414 740.713 879.466C741.561 878.89 742.428 877.386 742.279 876.488C741.877 874.136 740.911 871.884 740.218 869.717C732.927 872.874 725.933 876.34 718.629 878.927C711.14 881.582 703.348 883.371 695.506 885.587L695.494 885.581ZM744.52 883.031C731.714 892.55 717.051 895.688 701.677 896.554C701.646 896.752 701.522 897 701.596 897.142C702.624 899.092 703.286 901.524 704.877 902.768C705.793 903.486 708.231 902.323 709.964 901.92C722.615 899.005 735.254 896.072 747.924 893.138C746.655 889.381 745.652 886.391 744.513 883.031H744.52ZM622.354 439.234C621.506 443.294 621.091 447.447 619.76 451.285C613.187 470.2 606.286 489.009 599.688 507.918C598.005 512.733 596.996 517.783 595.678 522.723C596.024 522.828 596.365 522.933 596.711 523.044C597.609 520.89 598.556 518.755 599.391 516.577C604.98 502.007 610.594 487.449 616.103 472.849C618.813 465.656 621.63 458.483 623.814 451.124C624.99 447.163 624.433 442.904 622.354 439.234ZM682.075 233.666C681.877 233.84 681.673 234.019 681.475 234.193C682.83 236.359 684.179 238.531 685.541 240.691C691.842 250.718 698.13 260.757 704.505 270.735C704.87 271.304 706.108 271.768 706.777 271.607C709.729 270.902 712.626 269.949 715.368 269.132C704.264 257.304 693.166 245.482 682.069 233.66L682.075 233.666ZM814.608 360.586C819.442 374.06 824.158 387.206 829.097 400.953C835.095 385.046 827.94 368.613 814.608 360.586ZM680.794 254.636C680.701 254.673 680.608 254.71 680.515 254.754C684.105 267.504 687.689 280.254 691.279 293.004C693.327 288.319 694.794 283.732 696.187 279.115C696.36 278.552 696.335 277.71 696.026 277.246C690.982 269.683 685.882 262.162 680.794 254.636ZM751.204 529.97C751.204 529.97 751.675 530.137 752.157 530.28C755.196 531.152 755.784 530.626 755.382 527.55C755.11 525.452 755.147 523.298 754.714 521.237C753.346 514.732 751.823 508.394 745.33 504.612C740.806 501.982 736.684 498.584 734.579 493.595C733.688 491.485 732.562 491.423 730.952 491.72C731.602 496.789 734.511 500.206 738.541 502.966C743.133 506.11 747.063 509.997 748.512 515.543C749.706 520.111 750.27 524.839 751.198 529.97H751.204ZM738.627 865.366C738.052 863.714 737.575 862.346 737.086 860.935C729.288 867.52 702.89 877.844 691.384 877.9C692.034 881.378 694.082 882.102 697.208 880.827C698.514 880.295 699.9 879.954 701.262 879.571C714.074 875.931 726.484 871.265 738.634 865.366H738.627ZM630.19 412.317C630.598 412.329 631.007 412.341 631.415 412.354C631.675 409.698 631.731 407 632.257 404.394C632.925 401.064 633.507 397.586 634.955 394.572C639.486 385.145 644.425 375.917 649.148 366.583C649.643 365.599 649.736 364.411 650.014 363.315C649.766 363.222 649.519 363.13 649.278 363.037C648.949 363.476 648.584 363.885 648.306 364.355C643.138 373.101 637.951 381.828 632.845 390.61C631.65 392.665 630.01 394.85 629.868 397.06C629.546 402.116 630.029 407.223 630.183 412.31L630.19 412.317ZM594.972 312.661C595.709 311.356 596.346 310.749 596.253 310.291C594.817 303.167 593.227 296.074 591.834 288.944C591.599 287.731 591.754 286.134 592.385 285.119C594.687 281.411 597.312 277.908 599.713 274.256C600.654 272.82 601.316 271.199 602.102 269.658C601.551 269.2 600.994 268.736 600.443 268.278C599.88 269.379 599.447 270.574 598.735 271.57C596.197 275.129 593.883 278.923 590.887 282.061C587.112 286.016 586.653 289.847 588.783 294.793C591.135 300.258 592.725 306.051 594.972 312.655V312.661ZM601.267 206.025C600.233 207.089 599.527 207.473 599.441 207.962C599.113 209.868 598.772 211.818 598.809 213.743C598.915 219.988 599.181 226.227 599.385 232.466C599.75 243.607 600.115 254.747 600.481 265.888C600.741 265.888 601.007 265.888 601.267 265.882V206.025ZM533.642 242.449C534.304 239.491 534.57 236.198 535.808 233.326C537.213 230.064 536.476 226.957 536.179 223.825C535.969 221.628 534.941 219.511 534.112 216.813C531.754 220.576 529.959 223.429 528.777 225.317C530.559 231.581 532.107 237.033 533.648 242.443L533.642 242.449ZM453.916 765.804C451.051 765.067 448.55 764.411 446.037 763.799C445.715 763.718 445.072 763.799 445.01 763.959C444.1 766.516 442.305 769.22 442.621 771.647C443.153 775.8 446.452 778.356 450.593 780.064C448.432 774.537 450.159 770.149 453.916 765.804ZM472.305 727.857C471.735 729.751 470.925 731.515 470.727 733.347C470.479 735.637 471.141 737.717 473.772 738.478C476.625 739.307 479.466 740.18 482.406 741.059C482.592 740.477 483.161 739.437 483.198 738.379C483.229 737.382 483.031 735.965 482.369 735.42C479.237 732.852 475.913 730.524 472.311 727.851L472.305 727.857ZM573.483 436.926C573.792 436.808 574.108 436.69 574.417 436.566C568.537 420.697 562.657 404.827 556.777 388.964L555.552 389.416C559.897 405.855 566.996 421.279 573.483 436.926ZM672.828 566.704C672.748 566.407 672.673 566.104 672.593 565.807C671.683 565.955 670.699 565.924 669.87 566.277C666.305 567.787 662.795 569.427 659.242 570.981C656.47 572.194 653.418 574.651 650.942 574.175C648.25 573.661 646.096 570.381 643.664 568.363C642.773 567.62 641.764 567.026 640.804 566.364C640.588 566.655 640.377 566.952 640.161 567.243C644.097 570.579 648.009 573.946 652.001 577.208C652.496 577.616 653.635 577.827 654.136 577.542C660.4 573.995 666.602 570.337 672.822 566.704H672.828ZM453.322 815.802C459.307 807.396 465.237 799.072 471.215 790.679C468.703 790.14 466.877 790.524 465.893 793.043C465.466 794.139 464.556 795.036 463.931 796.064C461.764 799.61 459.815 803.312 457.426 806.697C455.402 809.557 452.876 812.051 450.444 814.861C451.676 815.263 452.412 815.505 453.328 815.802H453.322ZM500.504 467.334C501.253 466.628 501.482 466.517 501.506 466.368C503.184 456.49 504.929 446.618 506.464 436.715C506.978 433.41 506.99 430.024 507.145 426.67C507.163 426.243 506.637 425.791 506.365 425.351C506.012 425.71 505.387 426.038 505.344 426.428C504.867 430.68 504.527 434.951 504.05 439.203C503.58 443.431 502.992 447.645 502.459 451.867C501.834 456.818 501.209 461.776 500.51 467.334H500.504ZM744.984 539.644C747.429 540.04 749.168 540.214 750.851 540.622C756.836 542.058 757.592 539.997 756.143 535.85C755.84 534.977 755.902 533.975 755.859 533.597C753.172 533.467 750.901 533.362 747.781 533.213C747.101 534.779 746.092 537.094 744.984 539.644ZM450.11 806.227C447.535 805.342 444.929 804.444 442.107 803.479C441.271 804.71 440.392 806.01 439.514 807.316C439.811 807.112 440.108 806.901 440.399 806.697C442.534 809.117 444.675 811.543 446.879 814.038C447.937 811.475 448.989 808.944 450.11 806.233V806.227ZM625.399 612.128C624.904 612.382 624.409 612.635 623.913 612.889C628.487 621.598 633.068 630.3 637.642 639.008C637.988 638.829 638.329 638.656 638.675 638.476L625.399 612.128ZM815.45 407.414C815.047 407.458 814.651 407.507 814.249 407.551C813.847 409.506 813.444 411.456 813.048 413.412C814.472 413.653 816.199 414.501 817.257 413.981C818.749 413.251 820.754 411.524 820.773 410.2C820.828 406.356 816.96 409.055 815.456 407.414H815.45ZM806.5 382.83C806.023 383.066 805.541 383.301 805.064 383.542C805.064 385.461 804.891 387.404 805.2 389.267C805.268 389.67 807.602 390.313 808.016 389.923C809.087 388.908 810.56 387.052 810.226 386.129C809.731 384.761 807.812 383.907 806.5 382.837V382.83ZM612.222 214.541C618.974 209.528 625.201 204.904 631.539 200.2C627.014 201.172 616.759 208.73 612.222 214.541ZM796.851 363.557C796.486 365.655 796.764 368.007 799.438 369.003C800.1 369.251 802.087 368.087 802.062 367.648C801.969 365.952 801.313 364.281 800.96 362.963C799.029 363.241 797.996 363.39 796.857 363.557H796.851ZM629.515 417.225C629.199 416.99 628.877 416.754 628.562 416.519C626.235 419.793 622.428 422.022 621.258 426.107C621.531 426.298 621.803 426.496 622.069 426.688C624.551 423.532 627.027 420.375 629.509 417.219L629.515 417.225ZM748.66 547.208C750.585 546.001 752.034 545.091 753.488 544.181C753.395 544.008 753.309 543.835 753.216 543.667H748.66V547.208ZM535.591 682.111L535.863 682.198C536.018 681.802 536.173 681.412 536.328 681.016C536.148 680.966 535.975 680.917 535.795 680.867C535.727 681.282 535.659 681.697 535.597 682.111H535.591ZM638.564 639.85L638.285 639.881L638.316 639.726L638.564 639.85ZM536.346 680.131C536.427 680.211 536.495 680.279 536.569 680.353C536.637 680.217 536.73 680.081 536.761 679.939C536.773 679.889 536.637 679.802 536.569 679.734C536.495 679.871 536.421 680.001 536.346 680.131ZM537.497 678.806C537.429 678.738 537.343 678.602 537.293 678.614C537.145 678.645 537.015 678.738 536.879 678.806C536.947 678.874 537.027 679.01 537.083 678.998C537.231 678.967 537.361 678.874 537.497 678.806Z" fill="black"/>
<path d="M802.366 340.501C802.644 340.34 802.929 340.173 803.207 340.012C803.269 340.161 803.325 340.309 803.387 340.458C803.034 340.439 802.675 340.421 802.322 340.396L802.366 340.495V340.501Z" fill="black"/>
<path d="M669.25 497.024C671.602 490.816 673.763 484.528 676.35 478.419C680.837 467.81 685.584 457.313 690.232 446.773C690.604 445.937 691.043 445.126 691.972 444.563C686.878 463.261 676.932 479.904 669.838 497.736C669.64 497.495 669.442 497.259 669.25 497.018V497.024Z" fill="white"/>
<path d="M573.477 436.932C566.984 421.285 559.885 405.861 555.546 389.422L556.771 388.97C562.651 404.84 568.531 420.709 574.411 436.573C574.102 436.69 573.786 436.808 573.477 436.932Z" fill="white"/>
<path d="M500.497 467.34C501.197 461.776 501.822 456.824 502.447 451.873C502.979 447.652 503.567 443.437 504.038 439.209C504.514 434.957 504.855 430.686 505.331 426.434C505.375 426.038 506 425.716 506.353 425.357C506.625 425.797 507.157 426.249 507.132 426.676C506.978 430.03 506.965 433.416 506.452 436.721C504.917 446.624 503.171 456.496 501.494 466.374C501.469 466.523 501.234 466.634 500.491 467.34H500.497Z" fill="white"/>
<path d="M625.393 612.134L638.669 638.482C638.322 638.662 637.982 638.835 637.635 639.015C633.061 630.306 628.481 621.604 623.907 612.895C624.402 612.642 624.898 612.388 625.393 612.134Z" fill="white"/>
<path d="M540.543 671.688C544.653 663.568 548.75 655.441 552.878 647.333C553.689 645.742 554.636 644.226 555.837 642.84C552.142 653.058 546.621 662.348 541.199 671.694C540.982 671.694 540.76 671.694 540.543 671.694V671.688Z" fill="white"/>
<path d="M612.216 214.547C616.746 208.736 627.002 201.184 631.533 200.207C625.201 204.91 618.975 209.534 612.216 214.547Z" fill="white"/>
<path d="M482.684 647.704C489.041 649.864 495.391 652.025 501.747 654.185C501.723 654.321 501.704 654.457 501.679 654.593C496.852 653.38 491.987 652.285 487.215 650.88C485.488 650.372 483.972 649.122 482.362 648.212C482.498 648.063 482.61 647.89 482.684 647.704Z" fill="white"/>
<path d="M534.112 588.602C528.417 586.417 522.723 584.232 517.035 582.048L517.456 580.971C523.138 583.323 528.82 585.675 534.495 588.027C534.365 588.218 534.242 588.41 534.112 588.596V588.602Z" fill="white"/>
<path d="M629.509 417.231C627.027 420.387 624.551 423.544 622.069 426.7C621.797 426.509 621.524 426.31 621.258 426.119C622.428 422.034 626.235 419.805 628.562 416.531C628.877 416.766 629.199 417.002 629.515 417.237L629.509 417.231Z" fill="white"/>
<path d="M624.402 368.706C622.917 364.324 621.431 359.942 619.946 355.56C620.261 355.461 620.577 355.356 620.887 355.257C622.199 359.627 623.505 363.99 624.817 368.36C624.681 368.471 624.544 368.589 624.402 368.7V368.706Z" fill="white"/>
<path d="M669.25 497.024C669.448 497.266 669.647 497.501 669.845 497.742C668.464 500.88 667.09 504.018 665.71 507.15L665.141 506.779C666.508 503.529 667.883 500.274 669.25 497.024Z" fill="white"/>
<path d="M540.543 671.688C540.76 671.688 540.982 671.688 541.199 671.688C540.376 673.403 539.559 675.123 538.73 676.838C538.525 677.259 538.278 677.655 538.055 678.063C537.783 677.933 537.516 677.803 537.244 677.667C538.346 675.668 539.441 673.675 540.543 671.676V671.688Z" fill="white"/>
<path d="M624.811 368.366C625.356 369.517 625.894 370.674 626.439 371.825C626.272 371.918 626.111 372.03 625.962 372.16C625.442 371.009 624.916 369.857 624.396 368.706C624.533 368.595 624.669 368.477 624.811 368.366Z" fill="white"/>
<path d="M535.591 682.117C535.659 681.703 535.727 681.288 535.789 680.873C535.969 680.923 536.142 680.972 536.321 681.022C536.167 681.418 536.012 681.808 535.857 682.204L535.585 682.117H535.591Z" fill="white"/>
<path d="M626.439 371.826C626.52 372.339 626.6 372.853 626.687 373.373C626.513 373.398 626.346 373.423 626.173 373.454C626.105 373.027 626.037 372.593 625.969 372.166C626.117 372.036 626.272 371.925 626.445 371.832L626.439 371.826Z" fill="white"/>
<path d="M535.869 588.522C536.402 588.676 536.928 588.837 537.46 588.992C537.392 589.209 537.318 589.425 537.25 589.636C536.693 589.364 536.136 589.091 535.579 588.819C535.671 588.72 535.77 588.621 535.869 588.522Z" fill="white"/>
<path d="M664.541 510.344C664.677 509.651 664.813 508.951 664.949 508.258C665.067 508.382 665.19 508.493 665.32 508.598C665.036 509.155 664.751 509.706 664.466 510.263L664.534 510.344H664.541Z" fill="white"/>
<path d="M665.711 507.15C665.581 507.633 665.451 508.115 665.327 508.598C665.197 508.493 665.073 508.376 664.956 508.258C665.017 507.763 665.079 507.274 665.147 506.779C665.339 506.902 665.525 507.026 665.717 507.15H665.711Z" fill="white"/>
<path d="M664.472 510.263C664.367 510.591 664.262 510.919 664.423 510.424C664.033 510.727 664.281 510.529 664.541 510.344L664.479 510.269L664.472 510.263Z" fill="white"/>
<path d="M534.496 588.026C534.954 588.193 535.406 588.354 535.864 588.515C535.765 588.614 535.672 588.713 535.573 588.812C535.084 588.738 534.595 588.67 534.112 588.596C534.242 588.404 534.366 588.212 534.496 588.026Z" fill="white"/>
<path d="M638.557 639.856L638.31 639.732L638.285 639.887L638.557 639.856Z" fill="white"/>
<path d="M536.34 680.137C536.414 680.007 536.488 679.87 536.563 679.74C536.631 679.809 536.767 679.895 536.755 679.945C536.724 680.093 536.631 680.223 536.563 680.359C536.495 680.291 536.426 680.223 536.34 680.137Z" fill="white"/>
<path d="M537.491 678.818C537.355 678.886 537.219 678.973 537.07 679.004C537.021 679.016 536.934 678.88 536.866 678.812C537.002 678.744 537.139 678.651 537.281 678.62C537.33 678.608 537.417 678.744 537.485 678.818H537.491Z" fill="white"/>
<path d="M482.363 648.218C482.22 648.051 482.078 647.89 481.936 647.723C482.183 647.723 482.437 647.711 482.684 647.704C482.61 647.896 482.499 648.063 482.363 648.212V648.218Z" fill="white"/>
<path d="M504.143 121.8C502.986 122.146 502.057 122.623 501.116 122.666C494.964 122.939 488.806 123.062 482.66 123.341C480.165 123.452 478.104 123.452 478.804 119.937C478.996 118.977 478.525 117.888 478.364 116.854C486.082 112.144 501.841 114.88 504.143 121.8Z" fill="black"/>
<path d="M494.976 129.988C494.685 130.929 494.679 131.375 494.5 131.468C492.271 132.582 491.238 134.265 490.73 136.809C490.334 138.771 485.971 138.592 484.875 136.704C484.132 135.416 483.458 134.092 482.635 132.569H480.19C479.336 129.419 480.716 128.441 483.458 128.732C487.184 129.128 490.904 129.549 494.982 129.994L494.976 129.988Z" fill="black"/>
<path d="M546.41 489.869C546.831 489.244 547.252 488.619 547.667 487.994C547.797 488.173 547.933 488.353 548.063 488.532C547.654 489.151 547.24 489.776 546.831 490.395C546.689 490.222 546.553 490.042 546.41 489.869Z" fill="black"/>
<path d="M547.667 487.994C547.964 487.796 548.261 487.592 548.558 487.394C548.391 487.771 548.224 488.155 548.057 488.532C547.927 488.353 547.791 488.174 547.661 487.994H547.667Z" fill="black"/>
<path d="M756.682 313.775C756.682 321.989 751.074 327.955 743.176 330.276C736.492 332.238 731.974 329.125 728.644 324.929C725.159 320.534 725.048 314.704 727.981 309.468C730.965 304.132 735.929 302.003 741.778 301.57C742.7 301.502 743.628 301.558 744.557 301.558C752.9 301.558 756.682 305.37 756.688 313.769L756.682 313.775ZM732.481 311.498C735.477 312.358 738.472 313.212 741.468 314.073L741.227 315.36H732.314C734.313 322.292 737.488 325.783 745.107 322.762C745.559 322.583 746.184 322.793 746.599 322.571C749.118 321.209 752.361 320.342 753.94 318.238C756.979 314.184 754.144 307.512 749.1 306.101C742.205 304.176 736.702 304.758 732.029 311.17C732.029 311.423 732.023 311.677 732.017 311.931C732.172 311.789 732.333 311.646 732.487 311.498H732.481Z" fill="black"/>
<path d="M773.461 348.306C774.34 348.096 775.151 347.898 775.955 347.706C776.104 347.947 776.252 348.189 776.407 348.43C775.138 349.389 773.999 350.695 772.57 351.246C761.639 355.486 750.659 359.589 739.679 363.687C738.485 364.132 737.179 364.43 735.91 364.51C734.456 364.609 731.169 359.367 731.868 358.036C732.283 357.237 733.051 356.495 733.843 356.049C743.046 350.9 752.727 346.833 762.84 343.862C764.746 343.305 766.913 342.928 768.819 343.268C771.418 343.732 773.374 345.422 773.461 348.306ZM763.069 347.18C755.357 350.9 747.979 354.465 740.602 358.024C740.694 358.234 740.781 358.438 740.874 358.649C749.118 355.981 757.362 353.313 765.724 350.615C764.901 349.55 764.053 348.449 763.075 347.18H763.069Z" fill="black"/>
<path d="M759.194 407.266C758.514 406.48 757.727 405.768 757.177 404.895C752.733 397.833 749.799 390.121 747.546 382.131C747.305 381.27 747.045 380.138 747.397 379.444C747.917 378.423 748.858 377.396 749.873 376.938C750.313 376.74 751.872 377.829 752.095 378.578C754.311 386.055 756.384 393.575 758.433 401.101C758.953 403.014 759.231 404.988 759.621 406.938C759.479 407.049 759.337 407.154 759.188 407.266H759.194Z" fill="black"/>
<path d="M773.281 403.039C772.062 401.343 770.657 400.074 770.1 398.502C767.364 390.765 764.814 382.96 762.308 375.143C761.8 373.571 761.614 371.77 764.765 371.46C766.578 376.523 768.596 381.698 770.273 386.977C771.864 391.984 776.06 396.478 773.281 403.039Z" fill="black"/>
<path d="M768.157 403.843C762.79 394.584 757.517 385.801 756.026 375.397C755.945 374.821 756.496 374.159 756.75 373.534C757.381 373.843 758.384 373.992 758.594 374.481C760.228 378.337 761.856 382.205 763.205 386.166C765.043 391.539 766.64 396.992 768.318 402.413C768.398 402.68 768.256 403.007 768.157 403.843Z" fill="black"/>
<path d="M774.21 368.669C780.931 377.705 782.448 388.822 786.688 398.972C783.692 400.043 782.702 398.304 782.194 396.589C779.446 387.305 776.853 377.984 774.204 368.669H774.21Z" fill="black"/>
<path d="M779.248 400.334C778.159 399.015 776.55 397.858 776.073 396.342C773.758 389.007 771.728 381.58 769.661 374.165C769.438 373.367 769.63 372.457 770.125 371.479C774.421 380.559 777.521 390.004 780.48 399.498C780.071 399.777 779.657 400.049 779.248 400.328V400.334Z" fill="black"/>
<path d="M760.043 300.518C760.823 303.94 759.597 305.085 755.977 304.887C757.555 303.191 758.799 301.854 760.043 300.518Z" fill="black"/>
<path d="M759.869 407.563C759.937 407.563 760.011 407.569 760.079 407.575C760.036 407.699 759.993 407.829 759.956 407.953C759.888 407.885 759.801 407.829 759.764 407.742C759.745 407.705 759.832 407.625 759.869 407.557V407.563Z" fill="black"/>
<path d="M717.8 284.431C717.33 284.79 716.866 285.156 716.395 285.515C715.987 285.515 715.578 285.471 715.17 285.508C712.855 285.694 710.843 285.589 710.775 282.438C710.682 278.366 711.339 277.493 714.829 277.103C716.544 276.911 718.611 274.646 719.787 277.338C720.907 279.926 719.713 282.408 717.806 284.431H717.8Z" fill="black"/>
</svg>
