<svg width="1080" height="1080" viewBox="0 0 1080 1080" fill="none" xmlns="http://www.w3.org/2000/svg">
<path d="M715.654 451.94C712.429 457.434 709.336 463.174 705.786 468.613C703.211 472.554 699.733 475.761 694.709 476.279C693.794 476.375 692.657 475.472 691.827 474.78C691.388 474.413 691.087 473.403 691.261 472.855C692.453 469.082 693.8 465.352 695.064 461.603C695.25 461.056 695.564 460.268 695.329 459.907C692.603 455.749 695.142 451.85 696.183 448.095C696.99 445.177 696.033 443.095 694.149 441.952C691.279 440.207 690.046 437.493 689.673 434.81C689.234 431.687 687.447 431.302 685.202 430.959C678.325 429.912 671.448 428.835 664.546 427.975C663.349 427.824 662.031 428.679 660.467 429.166C657.909 427.102 654.883 427.211 652.133 429.888C650.593 431.386 649.251 433.107 647.603 434.461C644.498 437.006 644.444 437.722 648.439 440.827C645.551 441.832 643.18 443.143 640.707 443.396C637.277 443.745 633.77 443.3 630.292 443.179C628.511 443.119 626.724 443.083 624.949 442.963C619.137 442.572 613.324 442.145 606.946 441.693C608.126 443.372 609.263 444.672 610.045 446.164C613.721 453.18 617.65 460.099 620.833 467.337C625.262 477.416 630.232 487.169 635.671 496.73C638.216 501.207 640.027 506.141 641.784 511.008C644.065 517.326 646.393 523.68 647.861 530.208C648.83 534.516 648.27 539.167 648.481 543.656C648.589 545.912 649.011 548.157 649.077 550.413C649.179 553.825 649.221 557.254 648.999 560.654C648.932 561.713 647.922 562.712 646.947 564.457C645.328 558.723 641.971 558.789 637.801 559.541C635.063 560.034 632.103 559.252 629.239 559.083C628.445 559.035 627.416 558.831 626.88 559.222C622.699 562.248 618.017 560.696 613.523 560.931C611.609 561.033 609.497 561.31 607.867 562.212C603.944 564.384 599.888 563.957 595.935 563.68C592.307 581.942 587.331 599.8 579.708 616.966C577.421 622.117 575.857 628.11 577.776 634.103C577.891 634.464 578.053 634.891 577.969 635.228C577.024 639 576.055 642.767 575.045 646.521C574.046 650.216 571.573 651.383 568.011 649.861C567.204 649.518 566.452 649.042 565.85 648.718C557.734 664.049 549.521 679.284 541.644 694.687C540.092 697.725 539.749 701.402 538.979 704.813C536.29 716.829 533.546 728.833 531.043 740.885C529.647 747.6 528.78 754.423 527.493 761.162C525.7 770.584 523.636 779.959 521.879 789.393C520.585 796.337 519.556 803.328 518.51 810.308C517.637 816.145 516.855 821.993 516.133 827.848C515.802 830.507 515.706 833.196 515.525 835.874C514.905 844.887 513.967 853.901 513.852 862.92C513.81 866.205 513.708 869.142 512.469 872.222C511.777 873.949 512.342 876.181 512.342 878.558C504.237 878.757 496.175 878.925 488.124 879.178C485.753 879.25 483.341 879.352 481.054 879.888C479.965 880.141 478.545 881.29 478.274 882.301C477.047 886.922 476.108 891.627 475.188 896.32C473.449 905.165 471.794 914.028 470.097 922.885C469.839 924.221 469.532 925.55 469.159 927.295C471.144 927.494 473.142 927.807 475.145 927.873C481.283 928.077 484.123 930.087 485.374 935.948C490.278 958.92 500.314 979.667 512.535 999.504C514.31 1002.39 517.258 1001.53 519.737 1001.84C525.694 1002.57 531.759 1002.6 537.391 1005.07C537.74 1005.22 538.01 1005.56 538.48 1005.94C537.902 1006.71 537.342 1007.46 536.849 1008.13C544.105 1009.22 551.344 1010.59 558.642 1011.33C565.237 1012 567.914 1016.38 569.545 1021.75C571.218 1027.27 572.535 1032.9 573.757 1038.54C574.286 1040.98 574.124 1043.07 570.947 1044.43C566.115 1046.51 561.675 1049.49 557.072 1052.09C550.531 1055.79 543.57 1057.5 536.013 1058.01C526.331 1058.66 516.41 1058.57 507.288 1062.72C504.268 1064.1 501.5 1066.05 498.503 1067.48C490.362 1071.38 481.885 1072.39 472.853 1071.25C465.657 1070.35 458.304 1070.66 451.018 1070.5C440.211 1070.28 429.405 1069.85 418.598 1069.97C404.146 1070.12 389.687 1071.11 375.241 1070.97C363.55 1070.85 352.075 1068.7 342.743 1060.8C334.217 1053.58 329.494 1044.75 331.148 1032.99C332.635 1022.46 337.358 1013.1 340.649 1003.22C342.514 997.603 344.951 992.158 346.462 986.454C348.207 979.865 349.338 973.096 350.463 966.363C350.776 964.48 349.951 962.434 349.987 960.473C350.144 951.086 349.428 941.537 350.992 932.38C352.003 926.459 356.407 921.122 359.278 915.514C359.837 914.425 360.331 913.294 360.866 912.193C361.053 911.814 361.299 911.471 361.492 911.098C362.045 910.027 363.123 908.908 363.044 907.879C362.635 902.361 361.895 897.03 363.459 891.374C365.156 885.237 364.939 878.588 366.389 872.361C368.562 863.01 368.508 853.281 372.021 844.135C375.999 833.78 379.567 823.232 382.647 812.577C388.309 792.997 396.968 774.742 406.077 756.619C413.629 741.595 418.743 725.704 421.649 709.134C424.525 692.743 426.872 676.239 432.528 660.481C434.062 656.203 436.035 652.087 437.66 647.839C438.027 646.882 438.207 645.438 437.738 644.656C434.7 639.578 433.189 633.988 431.547 628.374C427.906 615.937 422.889 604.066 415.758 593.163C414.417 591.106 413.219 588.951 411.847 586.918C410.385 584.746 409.008 582.73 411.872 580.504C412.281 580.185 411.998 578.747 411.787 577.886C411.27 575.738 410.62 573.626 409.952 571.256C407.305 571.785 403.995 572.369 400.728 573.127C398.436 573.656 396.372 573.801 394.308 572.242C392.413 570.817 388.045 571.629 386.149 573.638C384.224 572.231 382.274 570.798 380.168 569.252C380.921 565.359 381.727 561.165 382.557 556.881C376.931 553.626 376.679 547.038 373.141 542.218C371.209 543.71 370.295 542.2 370.102 540.581C369.705 537.212 368.159 537.236 365.277 537.844C358.85 539.191 352.262 539.781 345.818 541.057C338.844 542.435 331.979 544.348 325.017 545.792C323.363 546.135 321.353 545.918 319.776 545.281C314.506 543.145 311.642 538.524 308.435 534.119C302.959 526.592 296.978 519.432 291.328 512.031C287.357 506.832 283.542 501.513 279.77 496.176C279.306 495.521 279.289 494.353 279.451 493.493C280.041 490.322 281.545 487.127 281.298 484.052C280.943 479.612 281.81 475.593 283.127 471.513C286.37 461.477 290.925 452.139 297.351 443.709C299.048 441.483 300.173 438.829 301.792 435.959C299.65 434.617 297.887 432.921 295.817 432.385C294.006 431.916 291.858 432.734 289.86 432.999C289.397 433.059 288.904 433.342 288.488 433.252C285.089 432.493 278.867 425.417 279.21 422.048C280.083 413.317 275.336 406.44 272.165 399.027C269.475 392.746 266.791 386.458 264.024 380.206C262.164 375.994 259.71 371.993 258.326 367.637C254.962 357.041 251.749 346.373 249.138 335.573C247.898 330.464 248.205 324.989 247.742 319.682C247.405 315.819 246.611 311.968 246.671 308.118C246.707 305.675 247.537 303.045 248.68 300.843C253.175 292.161 257.796 283.532 262.634 275.037C270.305 261.565 278.825 248.64 288.031 236.143C291.575 231.329 294.265 225.89 297.345 220.734C297.129 220.373 296.906 220.012 296.689 219.651C291.81 220.92 286.918 222.166 282.044 223.471C277.213 224.765 272.411 226.167 267.561 227.412C264.583 228.177 263.32 226.66 262.676 223.772C261.912 220.337 260.251 217.1 258.964 213.79C257.682 210.493 255.672 208.441 251.773 208.02C250.678 207.906 249.21 204.951 249.071 203.206C248.41 195.078 247.977 186.919 247.82 178.766C247.724 173.742 249.192 169.283 253.307 165.691C259.764 160.065 265.732 153.88 272.11 148.158C281.695 139.559 292.574 132.875 304.53 126.84C304.289 122.423 303.964 117.562 303.801 112.694C303.771 111.876 304.241 110.847 304.824 110.245C306.762 108.253 308.934 106.484 310.835 104.463C311.515 103.741 312.081 102.507 312.021 101.557C311.756 97.3507 314.873 95.2748 317.177 92.6153C317.791 91.9053 318.146 90.69 318.098 89.7273C317.658 80.5515 319.115 71.5561 320.571 62.5668C321.413 57.3742 325.119 54.095 328.97 51.2069C332.965 48.2105 337.37 45.7616 341.564 43.0359C342.262 42.5846 343.08 42.031 343.405 41.327C347.117 33.2944 354.157 28.9262 361.299 24.4917C366.997 20.9537 373.165 19.1608 379.657 19.4436C387.238 19.7745 394.392 22.0729 400.535 26.7842C400.505 27.1211 400.475 27.452 400.445 27.7889C397.575 27.5784 394.711 27.3738 391.835 27.1632C391.787 30.5086 394.314 31.4714 396.667 31.8023C404.032 32.8493 411.444 33.5172 418.839 34.3716C421.481 34.6784 424.11 35.3463 426.757 35.3824C429.796 35.4305 432.847 34.9732 435.891 34.7084C436.469 34.6603 437.034 34.4678 437.612 34.3656C440.542 33.83 443.755 34.3294 445.332 30.4305C445.741 29.4196 449.477 28.7157 451.006 29.4016C454.802 31.0923 458.202 33.6615 462.383 36.2608C460.296 37.7169 459.056 38.5834 457.877 39.4137C458.834 41.5798 463.593 41.7844 461.066 45.5931C473.641 47.5005 486.211 49.5702 498.076 54.5703C506.482 58.1082 510.465 65.1301 512.438 73.4756C514.261 81.1893 515.098 89.0473 515.026 97.0137C514.984 101.815 512.601 105.377 509.869 108.927C506.271 113.602 502.42 118.139 499.363 123.157C496.361 128.079 494.213 133.524 491.716 138.747C491.523 139.144 491.524 139.632 491.361 140.462C492.775 139.854 493.786 139.349 494.851 138.982C497.552 138.055 500.308 136.816 502.697 139.65C504.225 141.467 505.784 140.083 507.059 139.439C509.899 138.007 512.39 138.151 514.304 140.697C515.026 141.653 515.543 143.362 515.194 144.409C513.961 148.091 512.318 151.629 510.724 155.474C514.141 158.892 511.993 162.478 510.14 165.739C506.8 171.605 503.004 177.213 499.526 183.002C497.673 186.088 496.078 189.325 494.201 192.803C498.66 195.613 499.201 200.378 500.741 204.843C501.782 207.857 504.039 210.631 507.553 212.178C511.079 213.73 514.165 216.263 517.474 218.309C529.99 226.059 542.613 233.646 554.99 241.618C558.035 243.58 560.177 246.883 562.938 249.344C565.833 251.913 564.064 254.507 563.739 257.365C563.215 262.01 563.552 266.769 563.661 271.474C563.775 276.426 564.425 281.39 564.16 286.312C563.829 292.407 564.599 298.033 567.066 303.725C569.497 309.321 570.803 315.404 572.71 321.24C572.993 322.095 573.721 323.094 574.503 323.443C577.692 324.875 581.031 325.97 584.214 327.402C589.822 329.923 595.815 330.543 601.766 331.674C609.179 333.082 616.387 335.633 623.631 337.865C625.521 338.449 627.32 339.52 628.98 340.627C632.548 343.016 636.297 342.625 640.147 341.716C642.626 341.126 645.136 340.651 647.603 340.001C648.331 339.809 648.95 339.201 649.041 339.147C652.344 338.75 655.256 338.593 658.084 338.016C662.482 337.125 666.821 335.928 671.195 334.917C672.687 334.574 674.456 333.966 674.011 336.782C673.981 336.987 675.31 337.751 675.882 337.643C679.071 337.017 680.714 339.147 682.26 341.193C684.498 344.159 687.206 347.047 688.409 350.428C689.589 353.738 689.691 357.697 689.246 361.247C688.758 365.176 687.122 368.967 685.991 372.775C690.058 379.948 694.39 387.583 698.789 395.339C699.86 395.122 700.762 394.936 702.038 394.677C701.466 395.568 701.093 396.157 700.648 396.849C704.854 400.164 709.86 400.874 714.667 401.964C718.855 402.914 723.115 403.835 727.387 404.106C736.226 404.671 744.216 408.353 752.622 410.471C758.549 411.964 764.559 411.885 770.564 412.397C776.629 412.908 781.876 410.141 787.616 409.575C793.315 409.009 798.964 407.932 804.668 407.559C806.834 407.415 809.073 408.733 811.317 409.148C813.014 409.461 814.783 409.533 816.51 409.479C820.138 409.358 823.892 408.239 827.172 410.634C828.038 411.266 828.784 412.529 828.881 413.57C828.923 414.052 827.346 414.936 826.383 415.213C821.732 416.567 817.063 417.86 812.358 419.009C802.232 421.494 792.147 424.238 781.918 426.176C775.769 427.337 773.639 432.337 772.393 436.501C770.077 444.244 765.631 449.985 760.005 455.231C755.853 459.106 751.924 463.294 747.399 466.676C745.149 468.354 741.834 468.914 738.909 469.287C736.533 469.588 734.649 468.162 733.843 465.574C733.627 464.876 732.574 464.305 731.785 463.932C728.332 462.313 727.778 461.393 728.927 457.849C729.71 455.43 728.169 454.81 726.502 454.389C722.856 453.468 719.174 452.704 715.69 451.922L715.654 451.94ZM537.132 703.845C536.879 703.766 536.626 703.682 536.374 703.604C534.773 709.759 529.851 714.988 531.434 722.04C531.735 722.124 532.029 722.208 532.33 722.293C533.931 716.143 535.531 709.994 537.126 703.845H537.132Z" fill="white"/>
<path d="M501.319 1065.91C500.188 1067.73 498.792 1069.44 497.968 1071.4C495.856 1076.42 491.157 1076.44 487.197 1076.31C482.655 1076.15 478.154 1076.56 473.882 1077.36C463.328 1079.34 452.745 1078.9 442.161 1078.96C436.457 1078.99 430.813 1079.39 425.133 1079.85C421.649 1080.14 417.906 1080.02 414.399 1079.42C409.122 1078.52 403.827 1078.98 398.544 1078.49C389.104 1077.6 379.567 1077.8 370.114 1077.06C358.682 1076.17 347.232 1075.98 335.794 1075.71C332.563 1075.63 331.852 1073.43 330.27 1071.94C328.465 1070.21 325.673 1068.61 327.725 1065.27C327.893 1065 327.496 1064.34 327.298 1063.89C325.432 1059.74 323.874 1055.4 323.164 1050.97C322.195 1044.97 320.33 1039.07 320.107 1033.04C319.939 1028.53 319.193 1024.02 319.398 1019.55C319.825 1010.27 320.872 1001.07 324.464 992.356C325.781 989.167 326.479 985.629 328.266 982.747C331.744 977.151 334.133 971.056 337.195 965.286C338.104 963.577 339.368 961.934 341.522 961.297C342.882 960.893 342.725 959.455 342.749 958.36C342.821 955.153 342.436 951.898 342.852 948.745C343.67 942.536 342.376 936.501 342.033 930.382C341.907 928.137 341.648 925.893 341.57 923.637C341.546 922.945 341.774 922.036 341.143 921.657C338.26 919.906 340.312 919.19 341.75 918.246C346.432 915.171 351.642 916.687 356.648 916.567C357.713 916.543 358.471 916.976 358.459 915.345C358.435 912.951 358.459 910.478 361.6 909.714C362.503 909.497 362.057 908.498 362.015 907.872C361.648 902.608 360.8 897.355 361.895 892.078C362.13 890.959 361.065 890.881 360.409 890.532C357.075 888.757 353.568 887.487 349.795 887.018C349.597 886.994 349.38 887.048 349.193 886.994C343.664 885.381 342.184 885.02 344.969 879.34C347.184 874.815 347.647 869.893 349.44 865.357C352.015 858.834 353.489 851.909 356.378 845.555C360.938 835.519 365.71 825.579 370.162 815.489C373.315 808.34 376.673 801.283 379.807 794.116C384.675 782.997 388.773 771.625 393.033 760.283C395.253 754.369 397.256 748.31 399.958 742.599C402.274 737.702 403.442 732.479 405.337 727.479C409.784 715.764 413.821 703.863 418.833 692.394C423.833 680.956 428.779 669.422 435.705 658.916C436.788 657.28 438.123 655.878 439.194 654.259C440.374 652.478 441.276 650.631 440.675 648.17C438.557 649.927 437.672 652.454 436.138 654.488C435.735 655.023 435.596 655.974 434.772 655.811C433.809 655.619 434.291 654.656 434.249 654.036C434.092 651.654 433.599 649.313 433.514 646.906C433.466 645.48 433.466 643.651 431.463 642.773C430.723 642.448 430.001 640.895 430.121 640.023C430.542 636.966 428.912 635.354 426.751 633.663C423.322 630.973 419.85 628.242 416.89 625.065C412.473 620.324 408.31 615.215 405.915 609.138C403.604 603.272 400.217 598.031 397.407 592.471C395.728 589.156 395.006 585.359 393.917 581.755C393.129 579.138 392.292 577.351 388.785 576.924C384.723 576.43 381.173 573.711 377.641 571.49C376.612 570.846 376.919 569.583 376.877 568.74C376.667 564.884 374.254 560.834 377.623 557.212C378.261 556.526 377.443 556.171 377.184 555.786C374.663 552.001 372.082 548.259 369.548 544.486C369.037 543.728 368.369 543.897 367.683 543.975C355.162 545.359 342.436 545.389 330.366 549.673C328.435 550.359 326.233 550.148 324.614 552.2C324.019 552.952 321.16 552.35 319.927 550.81C318.164 548.608 316.389 546.49 313.362 546.063C311.936 545.858 311.467 544.047 311.66 543.656C313.29 540.347 310.107 539.143 308.754 537.699C304.68 533.367 299.77 529.805 295.769 525.413C290.402 519.522 284.427 513.974 280.486 507.043C278.29 503.18 275.42 499.829 273.368 495.93C271.834 493.023 271.647 490.322 272.441 486.874C273.458 482.464 274.529 478.102 276.912 474.407C283.049 464.912 287.664 454.509 294.421 445.424C295.739 443.655 295.709 441.747 296.13 439.882C296.322 439.034 295.583 438.432 294.554 438.113C290.402 436.831 286.106 435.7 284.15 431.091C283.994 430.724 283.368 430.484 282.911 430.321C279 428.889 276.786 425.712 275.005 422.277C269.589 411.837 265.245 400.965 261.364 389.839C259.216 383.69 257.164 377.378 253.843 371.638C252.73 369.713 252.971 367.294 252.14 365.146C250.841 361.782 249.342 358.431 248.356 355.019C247.321 351.427 247.092 347.462 245.762 343.996C243.301 337.582 244.42 330.717 242.477 324.231C241.388 320.585 242.832 316.427 241.713 312.522C240.13 306.992 241.316 301.806 243.957 296.794C244.715 295.355 245.263 293.743 245.6 292.064C246.207 289.008 247.616 286.246 249.192 283.538C251.34 279.856 252.297 275.572 254.806 272.052C260.353 264.26 265.155 255.975 270.63 248.123C273.609 243.857 276.623 239.567 280.071 234.41C275.823 236.215 272.453 237.9 268.915 239.085C263.975 240.74 263.639 240.289 262.351 235.68C262.273 235.397 262.086 234.976 262.207 234.831C264.98 231.462 261.647 229.554 260.311 227.292C255.756 219.548 250.293 212.322 247.176 203.766C245.173 198.266 244.162 192.58 243.458 186.792C242.598 179.74 245.052 173.392 247.706 167.207C249.487 163.055 253.284 160.233 256.785 157.466C268.067 148.524 279.264 139.445 291.491 131.81C294.632 129.848 297.652 127.67 300.925 125.937C302.4 125.161 302.773 124.054 302.43 122.549C301.948 120.431 301.611 118.265 300.95 116.202C298.332 108.049 300.498 107.152 305.468 103.018C308.603 100.413 310.318 98.0545 309.476 93.7945C309.012 91.4659 310.697 89.4444 313.128 88.6381C315.276 87.9281 315.42 87.1218 314.042 85.2746C310.131 80.0158 306.605 74.4922 305.215 67.9579C304.307 63.6919 303.735 59.3477 307.983 56.273C309.289 55.3284 308.988 54.0046 309.175 52.7711C310.198 46.0502 314.506 41.1285 318.549 36.1645C322.665 31.1103 328.164 27.5 333.056 23.2581C338.615 18.4325 343.91 13.246 350.457 9.79831C356.209 6.76578 361.636 3.05932 367.828 0.887213C370.8 -0.153715 373.724 -0.328164 376.895 0.628527C381.504 2.02445 386.408 2.11471 391.059 3.64301C400.921 6.88613 411.071 10.2616 419.068 16.5372C427.257 22.9633 436.09 23.1859 445.29 24.3532C449.917 24.9369 454.429 26.6397 458.906 28.1198C470.26 31.8684 481.229 36.5976 492.276 41.1584C502.655 45.4425 512.637 50.4366 521.801 56.8145C526.819 60.3043 531.819 63.9687 536.332 68.1866C537.686 69.4501 539.533 70.1841 540.911 71.4296C541.621 72.0674 542.836 73.0482 542.228 74.1854C541.627 75.3166 540.207 74.426 539.184 74.6968C538.931 74.763 538.618 74.5645 538.329 74.4983C537.162 74.2396 536.494 72.3864 535.291 72.9941C533.462 73.9207 531.56 75.076 530.285 76.6223C529.015 78.1626 527.499 79.4682 526.325 81.0627C525.086 82.7415 523.004 84.2698 525.555 86.7187C526.663 87.7837 525.519 89.6549 525.886 91.2433C526.584 94.2879 527.812 97.1159 528.775 100.052C530.122 104.156 529.34 105.167 526.109 107.838C523.215 110.227 519.568 110.961 516.686 113.193C514.322 115.022 512.432 116.936 512.372 120.269C512.324 122.946 509.472 123.602 507.872 125.071C506.187 126.617 504.316 128.055 501.981 128.897C499.249 129.878 497.89 132.435 496.572 135.426C498.949 134.481 501.091 133.939 502.565 132.369C503.63 131.232 504.935 130.991 506.061 131.298C507.234 131.617 507.005 133.103 507.071 134.186C507.107 134.77 507.132 135.353 507.162 135.925C508.377 136.124 509.165 135.45 509.857 134.764C512.739 131.912 516.56 133.482 519.887 132.694C521.41 132.333 522.523 135.534 521.572 137.508C520.026 140.715 517.95 143.597 515.718 146.364C514.911 147.363 514.141 148.392 513.251 149.553C514.881 150.444 516.747 149.505 518.263 150.943C520.489 153.055 521.265 155.173 519.454 157.574C515.188 163.224 510.717 168.717 506.421 174.343C504.111 177.37 502.071 180.571 502.252 184.65C502.27 185.023 501.981 185.745 501.927 185.733C498.317 185.113 498.034 190.204 494.634 190.005C494.346 189.987 493.997 191.07 493.605 191.774C497.005 191.497 500.242 189.698 503.383 192.069C504.701 193.068 505.453 193.76 503.245 194.56C501.289 195.264 503.184 196.931 502.541 198.008C503.798 198.688 503.582 200.029 503.467 200.968C502.697 207.28 508.497 207.316 511.758 209.356C519.454 214.163 527.3 218.79 535.255 223.14C545.297 228.634 554.382 235.439 563.654 242.009C565.73 243.478 567.391 245.469 569.984 246.251C571.663 246.757 572.253 247.828 570.73 249.446C569.082 251.203 569.629 253.67 569.371 255.776C568.655 261.643 566.23 267.136 565.875 273.057C565.748 275.169 565.532 277.269 565.375 279.375C565.315 280.175 565.177 281.228 566.109 281.45C568.943 282.124 568.318 284.236 568.3 286.168C568.276 289.164 569.1 291.914 570.189 294.736C571.723 298.707 572.481 302.973 573.799 307.04C575.424 312.052 576.928 317.071 577.487 322.341C577.602 323.455 578.101 324.279 579.672 324.622C592.518 327.438 604.925 331.776 617.464 335.675C623.288 337.486 629.281 338.792 635.13 340.573C637.927 341.427 639.949 339.117 642.518 338.822C647.615 338.232 652.669 337.275 657.741 336.499C663.385 335.633 668.933 334.201 674.655 333.792C677.031 333.623 679.39 333.256 681.749 332.895C684.589 332.462 686.598 333.395 687.417 336.253C689.011 341.824 692.904 346.397 694.168 352.125C694.541 353.81 695.088 354.995 693.307 356.463C691.454 357.986 691.875 360.874 690.822 362.998C689.498 365.675 689.631 367.769 691.412 370.706C693.819 374.671 695.299 379.34 697.007 383.762C698.397 387.348 701.153 389.911 702.826 393.221C703.151 393.865 703.735 394.364 704.523 393.696C705.335 393.01 706.304 392.402 707.134 393.365C707.904 394.256 706.99 395.236 706.713 396.157C706.581 396.614 706.334 397.035 706.057 397.655C718.271 399.779 730.299 401.867 742.141 404.821C742.64 404.948 743.308 405.237 743.531 404.882C745.185 402.234 747.195 403.973 748.976 404.478C753.356 405.724 757.622 407.318 761.611 409.575C763.519 410.652 765.39 409.262 767.273 409.105C772.376 408.69 777.538 406.705 782.472 407.246C786.702 407.71 790.637 407.084 794.692 406.867C805.661 406.265 816.612 405.273 827.623 405.676C829.254 405.736 830.836 405.164 832.539 405.628C833.748 405.959 834.555 406.494 834.904 407.595C835.469 409.364 835.511 411.181 838.135 411.663C839.458 411.903 838.941 413.57 837.84 414.491C834.837 416.994 831.161 418.065 827.581 419.292C821.672 421.326 816.251 424.539 809.969 425.766C804.235 426.886 798.447 427.547 792.701 428.504C788.2 429.256 783.669 429.996 779.067 429.774C778.489 429.744 777.99 429.768 777.761 430.61C775.721 438.047 771.906 444.786 767.749 451.049C763.922 456.82 759.517 462.614 753.115 466.164C752.52 466.495 751.906 466.844 751.395 467.289C747.117 471.02 741.894 471.808 736.942 469.148C735.534 468.39 734.138 467.74 732.64 467.223C729.962 466.302 727.947 464.587 727.321 461.766C726.912 459.924 726.081 458.661 724.306 458.137C722.206 457.518 720.889 456.043 719.691 454.076C718.837 456.248 718.314 458.926 717.279 460.105C714.445 463.318 713.789 467.746 710.341 470.634C707.898 472.68 705.865 475.358 703.319 477.428C701.105 479.227 699.258 482.614 695.72 479.401C692.621 480.37 690.04 478.685 687.218 477.927C683.837 477.019 683.794 474.521 684.432 472.319C686.382 465.634 688.542 458.986 691.863 452.806C692.375 451.856 692.814 450.863 693.271 449.882C693.542 449.305 693.734 448.661 692.946 448.396C687.982 446.705 687.85 442.168 687.013 438.143C686.695 436.627 687.032 435.502 684.811 434.798C682.669 434.118 682.465 435.971 681.328 436.308C680.311 435.357 681.917 434.906 681.61 434.262C675.377 432.945 669.113 433.793 662.91 433.372C661.821 433.3 660.605 433.57 659.703 432.848C657.32 430.935 656.147 432.674 654.462 434.106C651.381 436.729 649.402 440.129 647.26 443.402C645.924 445.442 644.498 445.989 641.977 446.194C635.503 446.717 628.998 446.182 622.542 447.036C620.075 447.361 617.536 447.235 615.033 447.187C613.132 447.15 613.378 447.915 614.052 449.142C617.38 455.177 620.466 461.356 624.058 467.235C626.092 470.556 627.819 474.004 629.534 477.464C633.252 484.967 637.308 492.362 640.298 500.16C642.783 506.64 645.611 513.114 646.881 519.991C648.764 530.148 650.039 540.425 652.193 550.521C652.795 553.337 652.206 556.075 652.928 558.837C653.265 560.13 653.192 560.888 654.733 560.973C656.087 561.045 656.267 561.749 655.635 563C653.523 567.188 653.132 567.339 648.559 566.117C642.783 564.571 636.971 563.169 630.984 561.659C630.875 566.665 631.074 571.232 632.759 575.654C633.619 577.91 631.941 579.457 629.612 579.782C623.475 580.63 618.132 577.333 612.265 576.881C608.619 576.599 604.949 576.388 601.381 575.413C600.454 575.161 599.943 575.491 599.576 576.701C598.499 580.239 598.101 583.993 596.808 587.381C595.508 590.786 594.118 594.168 592.939 597.628C590.37 605.167 588.27 612.905 585.093 620.179C582.951 625.083 581.904 630.27 579.84 635.137C579.166 636.726 578.799 638.422 577.379 639.764C576.753 640.354 574.96 641.954 577.024 643.411C577.873 644.006 576.958 644.734 576.741 645.246C572.716 654.752 567.523 663.688 562.433 672.611C559.503 677.743 556.831 683.164 553.173 687.845C549.082 693.08 547.246 699.35 544.316 705.12C541.025 711.594 537.752 718.261 532.884 723.592C528.269 728.64 525.291 734.747 520.802 739.753C518.113 742.75 516.049 746.125 513.744 749.362C511.987 751.829 511.722 754.561 511.506 757.449C518.383 746.047 527.523 736.402 535.549 725.313C535.02 730.499 535.195 735.385 533.901 739.832C532.252 745.476 532.174 751.39 530.393 756.896C528.756 761.95 528.889 767.173 527.92 772.257C526.693 778.707 526.151 785.278 524.851 791.661C523.798 796.83 523.594 802.095 522.445 807.143C520.754 814.538 521.025 822.125 519.418 829.49C518.521 833.606 519.484 837.901 518.51 842.029C517.306 847.113 518.094 852.33 517.438 857.463C517.204 859.328 516.939 861.169 516.464 862.974C515.495 866.674 516.963 870.399 516.157 874.16C515.676 876.404 514.893 876.368 512.956 875.567C514.773 878.305 512.847 878.72 510.934 879.551C505.585 881.861 499.755 881.452 494.243 882.818C489.755 883.931 485.224 884.918 480.681 885.796C479.339 886.055 478.978 886.585 478.696 887.872C477.023 895.604 475.176 903.293 473.635 911.061C472.865 914.93 472.119 918.895 471.024 922.734C470.41 924.888 471.192 925.658 473.551 925.628C478.058 925.574 482.612 924.894 487.077 926.158C487.36 926.236 487.733 926.146 487.955 926.296C488.81 926.88 490.483 926.868 490.405 928.065C490.308 929.533 488.762 929.124 487.721 929.166C483.816 929.329 483.623 929.569 484.772 933.138C485.964 936.838 487.721 940.454 488.287 944.245C489.37 951.531 492.667 958.042 494.977 964.859C497.781 973.12 502.228 980.767 506.801 988.234C509.087 991.971 511.398 995.683 513.347 999.618C513.985 1000.9 514.803 1001.15 516.41 1001.09C520.892 1000.93 525.405 1001.24 529.894 1001.56C539.942 1002.28 549.966 1003.26 559.804 1005.61C562.247 1006.19 564.593 1007.05 566.807 1008.19C570.333 1010 572.65 1012.68 573.209 1016.86C573.745 1020.85 575.526 1024.79 575.4 1028.72C575.207 1034.9 574.966 1041.24 572.987 1047.17C571.976 1050.2 568.877 1051.79 565.688 1051.83C563.323 1051.85 561.537 1052.65 559.635 1053.8C550.869 1059.11 541.199 1061.92 531.235 1063.98C523.624 1065.55 515.958 1065.35 508.311 1065.02C505.784 1064.91 503.431 1064.37 501.247 1066C503.979 1061.24 506.373 1056.49 502.968 1050.98C502.547 1050.3 502.396 1049.24 502.505 1048.15C502.799 1045.23 501.542 1042.77 499.388 1040.74C501.096 1049.66 499.731 1058.42 498.672 1067.19C499.947 1067.26 500.007 1065.4 501.307 1065.96L501.319 1065.91ZM400.211 931.802C402.533 930.418 405.036 929.371 407.714 929.166C409.76 929.01 410.446 927.915 410.77 926.206C411.493 922.445 411.95 918.607 413.027 914.954C414.435 910.195 415.584 905.297 418.653 900.82C417.112 900.82 415.927 901.103 414.952 900.76C412.756 899.99 412.076 900.923 411.3 902.848C409.35 907.674 400.674 912.572 395.879 911.525C394.049 911.121 393.099 910.851 392.353 913.017C391.516 915.454 393.309 915.345 394.519 915.869C399.146 917.872 402.786 922.03 402.467 926.615C402.311 928.817 400.385 929.876 400.229 931.832C399.218 931.35 399.049 930.37 398.664 929.437C396.161 923.324 391.438 919.972 385.03 918.925C383.435 918.667 382.166 918.33 382.9 921.266C384.188 926.423 388.376 927.909 392.142 929.936C394.561 931.236 396.962 933.637 400.205 931.802H400.211ZM491.187 503.24C528.979 497.849 566.224 496.309 603.817 498.361C603.113 496.766 602.036 496.008 601.308 494.961C597.097 488.878 593.727 482.265 590.105 475.869C585.538 467.813 580.736 459.768 577.872 450.797C575.935 444.72 572.668 439.166 571.013 432.914C569.882 428.642 567.842 424.412 566.952 420.225C565.67 414.202 564.244 408.101 562.909 402.114C561.32 394.984 560.255 387.782 558.817 380.646C558.474 378.949 559.437 377.523 560.099 376.103C560.484 375.278 561.597 375.17 561.717 376.313C561.994 379.003 563.925 381.187 564.094 383.78C564.599 391.428 567.529 398.51 569.329 405.814C572.229 417.601 575.785 429.31 580.749 440.454C583.649 446.964 585.634 453.841 589.407 460.021C593.192 466.224 595.737 473.12 600.075 479.076C604.522 485.177 607.331 492.32 612.247 498.198C615.37 501.935 616.941 506.73 619.642 510.834C621.616 513.83 624.167 516.574 625.196 520.154C626.682 525.334 628.908 530.202 631.243 535.052C632.235 537.109 632.476 539.498 630.767 542.338C629.209 537.796 626.934 534.318 624.955 530.683C622.65 526.454 620.599 522.037 617.873 518.096C614.215 512.801 609.576 508.204 606.856 502.223C606.2 500.773 604.78 500.436 603.101 500.37C586.483 499.726 569.894 500.731 553.299 501.219C539.737 501.616 526.271 502.813 512.781 504.197C504.195 505.075 495.621 506.092 487.119 507.44C471.126 509.973 455.278 513.295 439.622 517.531C421.499 522.434 403.406 527.32 386.943 536.773C384.741 538.036 382.22 538.74 379.94 539.883C378.285 540.714 377.202 541.785 378.411 544.011C380.126 547.17 381.354 550.774 383.411 553.554C385.734 556.701 384.837 559.402 384.278 562.369C383.899 564.39 383.49 566.46 382.455 568.295C381.829 569.402 382.298 569.866 383.177 570.684C385.373 572.718 387.347 573.079 389.609 570.919C390.325 570.239 391.185 569.703 392.004 569.138C395.939 566.388 398.995 562.489 404.158 561.388C413.947 559.3 423.37 555.919 433.424 554.529C443.154 553.181 452.799 550.894 462.546 549.282C478.635 546.628 494.821 545.082 511.073 544.071C525.393 543.181 539.719 543.5 554.027 544.095C561.609 544.408 569.184 545.118 576.723 545.972C585.881 547.013 595.021 548.253 604.076 550.034C615.316 552.242 626.58 554.33 637.807 556.592C642.284 557.495 646.694 558.722 651.592 559.914C649.263 556.869 649.666 553.59 648.505 550.738C645.617 543.614 645.906 535.599 642.482 528.553C640.954 525.413 640.515 521.875 639.799 518.451C638.607 512.759 635.19 507.945 633.403 502.416C631.459 496.405 628.228 490.803 625.448 485.081C623.024 480.087 620.4 475.201 617.675 470.352C610.226 457.133 603.108 443.733 595.099 430.839C591.555 425.135 589.256 418.757 585.279 413.293C581.314 407.842 579.792 401.157 576.332 395.411C572.656 389.304 571.97 382.011 569.112 375.537C568.528 374.213 568.486 373.648 567.048 374.634C565.827 375.477 564.689 374.574 563.925 373.672C563.023 372.613 563.967 371.831 564.726 371.175C565.845 370.206 566.946 369.189 568.023 368.202C571.242 365.26 573.583 361.53 573.173 357.035C572.945 354.526 572.006 352.059 571.651 349.448C570.797 343.148 569.226 336.956 568.691 330.579C568.203 324.79 567.217 319.05 565.905 313.394C564.551 307.546 562.68 301.788 561.699 295.885C561.181 292.774 559.021 290.265 559.34 286.878C559.78 282.184 560.634 277.527 560.092 272.72C559.497 267.467 561.916 262.353 561.284 257.01C561.037 254.934 561.013 252.78 561.302 250.716C561.519 249.188 561.085 248.303 559.96 247.461C555.989 244.5 552.138 241.432 547.842 238.869C540.826 234.687 534.328 229.699 527.3 225.457C519.641 220.83 512.077 215.95 504.4 210.06C505.399 212.966 503.551 214.945 503.521 217.292C503.509 218.008 504.574 218.838 503.696 219.428C502.661 220.126 501.975 218.868 501.103 218.555C499.309 217.906 499.31 215.98 499.508 215.036C500.332 211.125 498.419 207.653 498.263 203.976C498.154 201.443 495.729 199.699 496.518 196.666C483.19 201.161 470.296 205.962 457.769 212.298C460.386 214.277 460.976 217.274 462.011 220.036C462.51 221.371 462.925 222.665 464.754 221.498C465.296 221.149 466.006 221.233 466.439 221.678C467.047 222.292 466.277 222.671 466.036 223.164C464.068 227.202 460.26 229.452 457.113 232.322C454.965 234.284 451.932 236.919 452.083 238.947C452.408 243.243 454.279 247.575 456.276 251.51C456.908 252.762 457.522 253.833 457.763 255.259C458.34 258.658 458.455 262.287 461.872 264.501C463.022 265.247 464.171 266.324 463.232 267.99C461.987 270.193 463.779 270.656 465.103 270.788C467.997 271.077 470.031 272.052 471.337 274.928C471.909 276.192 472.107 277.299 472.173 278.556C472.251 279.976 472.299 281.48 473.792 282.172C475.892 283.141 477.414 284.82 478.96 286.384C488.172 295.662 498.75 303.31 508.846 311.517C512.444 314.441 515.988 317.408 519.256 320.699C519.713 321.156 520.519 321.673 519.984 322.438C519.574 323.021 518.798 323.106 518.088 322.751C517.475 322.444 516.765 322.251 516.253 321.818C511.325 317.666 505.856 314.249 500.717 310.398C494.436 305.699 487.516 301.848 481.806 296.403C479.075 293.797 476.56 290.969 473.912 288.207C472.877 289.477 473.557 290.644 473.064 291.535C472.089 291.505 472.444 290.38 471.656 290.073C471.162 294.946 469.309 299.435 468.413 304.116C467.703 307.829 467.33 311.595 466.235 315.247C465.922 316.3 465.783 317.305 464.465 317.137C463.118 316.968 463.298 315.747 463.16 314.79C462.745 311.854 464.038 308.996 463.304 305.951C462.895 304.255 463.437 302.137 464.098 300.416C465.561 296.589 465.188 292.6 465.314 288.707C465.374 286.902 464.851 285.097 465.422 283.201C465.837 281.835 466.168 280.205 464.893 279.001C461.74 276.023 460.392 276.035 457.167 278.941C456.794 279.278 456.409 279.597 456.018 279.904C450.206 284.519 444.754 289.525 439.411 294.688C436.547 297.449 433.99 301.011 429.585 302.088C429.411 300.753 429.164 299.573 429.868 298.49C433.093 293.569 436.727 288.948 441.023 284.946C446.18 280.139 450.254 274.375 455.254 269.441C455.591 269.104 456.072 268.773 455.681 268.183C453.99 265.632 453.202 262.642 449.477 261.51C441.343 259.037 433.172 256.871 424.844 255.175C418.683 253.923 412.648 252.088 406.54 250.559C402.852 249.639 399.14 248.809 394.832 247.798C396.011 247.292 396.565 246.823 397.082 246.865C415.235 248.219 432.522 253.706 450.302 258.051C448.292 255.108 446.956 251.949 444.038 249.801C439.309 246.318 434.375 243.153 429.525 239.855C419.032 232.713 408.743 225.264 398.496 217.773C395.969 215.926 393.893 213.447 391.655 211.215C390.096 209.662 391.161 208.164 392.136 206.997C393.171 205.751 394.314 206.786 395.289 207.442C398.376 209.536 401.492 211.588 404.507 213.778C413.803 220.517 423.935 226.053 432.738 233.496C433.37 234.031 434.134 234.266 434.977 234.181C438.111 233.863 441.102 234.494 443.972 235.698C445.079 236.161 445.825 235.968 446.607 235.096C449.754 231.624 453.479 228.838 457.348 226.251C458.503 225.475 458.978 224.753 458.052 223.441C456.271 220.926 455.139 218.032 453.376 215.475C452.69 214.476 450.987 212.881 452.72 211.137C453.22 210.631 452.715 210.36 452.221 210.09C446.83 207.111 441.98 203.218 436.054 200.324C436.054 202.165 436.054 203.639 436.054 205.114C436.054 206.094 436.264 207.298 434.982 207.587C433.725 207.869 432.943 207.033 432.48 205.914C432.287 205.457 432.083 204.999 431.938 204.524C429.14 195.45 427.167 186.172 425.999 176.774C425.662 174.06 423.965 171.022 426.246 168.134C421.414 167.033 417.708 163.675 412.714 162.67C407.01 161.521 401.583 158.886 396.131 156.671C389.188 153.849 382.684 150.137 376.047 146.671C367.467 142.189 359.229 137.152 350.956 132.201C341.828 126.737 332.719 121.069 324.903 113.735C321.762 110.786 318.681 107.808 315.083 104.799C315.312 109.643 315.541 114.036 315.691 118.434C315.715 119.186 316.185 120.371 314.62 120.359C313.369 120.353 313.645 119.372 313.435 118.662C312.328 114.98 313.29 110.853 311.034 107.411C307.424 110.161 307.508 110.149 308.23 114.385C309.115 119.547 310.138 124.715 310.535 129.92C310.878 134.427 310.264 139.006 310.414 143.536C310.48 145.522 309.879 147.11 308.994 148.699C308.742 149.156 308.092 149.391 307.628 149.728C307.243 149.174 306.582 148.639 306.924 147.905C307.43 146.834 307.315 145.811 307.117 144.716C306.226 139.86 305.378 135.004 304.506 130.107C302.52 130.438 300.721 131.527 299.054 132.959C291.082 139.806 282.231 145.522 274.186 152.321C268.753 156.912 263.073 161.353 257.152 165.402C256.37 165.937 255.624 166.81 255.299 167.694C252.664 174.855 251.496 182.141 253.241 189.759C255.991 201.786 261.436 212.821 265.739 224.284C266.075 225.18 266.304 226.041 267.586 225.325C272.706 222.485 278.512 221.257 283.669 218.543C287.459 216.552 291.437 214.867 294.12 211.125C297.026 207.069 298.657 202.292 301.906 198.447C298.85 197.063 298.212 195.065 300.33 193.381C303.549 190.823 306.852 188.369 310.252 186.058C313.772 183.669 317.761 182.141 321.57 180.276C333.97 174.211 346.979 169.764 360.126 165.745C365.884 163.982 371.606 164.433 375.698 169.933C379.753 175.39 385.108 179.578 389.922 184.283C393.484 187.767 396.889 191.437 400.867 194.542C398.875 194.253 397.329 193.146 395.921 191.906C391.468 187.977 386.775 184.331 382.274 180.468C378.544 177.267 374.488 174.331 370.776 171.04C369.747 170.131 368.802 169.921 367.551 170.149C364.151 170.781 361.005 172.153 357.755 173.242C342.196 178.447 326.967 184.337 312.634 192.394C310.721 193.471 310.823 194.759 311.726 196.311C312.171 197.075 313.098 197.791 312.58 198.712C309.53 204.121 307.075 209.843 303.441 214.957C295.715 225.848 288.41 237.021 281.647 248.544C277.002 256.468 272.724 264.645 267.225 272.022C265.552 274.272 266.442 274.766 268.374 275.036C276.713 276.204 284.794 278.508 292.899 280.638C299.313 282.323 305.974 283.947 310.462 289.447C314.554 294.459 316.708 300.434 318.122 306.691C320.607 317.69 322.43 328.834 325.336 339.742C327.201 346.728 329.325 353.641 329.079 361.042C328.898 366.433 329.133 371.831 329.44 377.234C329.849 384.364 327.129 390.766 322.159 395.82C312.55 405.598 300.216 411.211 288.176 417.198C286.208 418.179 282.929 416.296 281.84 413.75C280.865 411.476 281.996 410.11 283.892 408.889C293.483 402.716 303.224 396.795 313.008 390.946C317.833 388.064 321.774 384.328 322.701 378.509C323.164 375.573 323.02 372.516 322.917 369.52C322.701 362.968 323.796 356.337 321.786 349.893C317.622 336.535 315.384 322.708 311.762 309.224C311.076 306.679 311.593 303.815 309.879 301.571C307.442 298.376 305.907 294.802 305.167 290.728C303.934 291.39 302.676 291.408 301.413 290.957C299.842 290.398 299.114 291.071 298.507 292.54C296.19 298.099 293.146 303.352 292.135 309.429C291.78 311.571 290.161 312.817 287.881 313.003C286.792 313.093 285.709 313.376 284.62 313.388C274.577 313.509 268.933 308.797 269.806 297.859C270.215 292.72 272.887 288.292 275.36 283.797C271.539 282.72 267.862 281.667 264.174 280.644C262.574 280.199 261.34 280.301 260.287 282.034C257.501 286.607 254.523 291.084 252.297 295.939C250.678 299.465 248.169 302.696 248.289 306.926C248.35 309.02 249.03 310.976 249.024 313.106C249.024 321.92 250.841 330.536 252.489 339.141C253.807 346 255.227 352.853 257.868 359.394C259.439 363.287 260.227 367.583 261.84 371.355C263.705 375.712 265.293 380.218 267.381 384.502C267.935 385.646 267.802 387.27 268.591 388.118C270.041 389.683 270.233 387.029 271.635 386.783C281.039 385.128 287.069 378.672 292.087 371.109C293.019 369.707 293.338 368.112 291.124 367.21C289.006 366.343 288.512 364.057 287.267 362.42C286.659 361.626 286.617 360.735 287.231 359.953C287.911 359.087 288.856 359.797 289.379 360.038C292.881 361.668 296.202 363.63 299.283 365.976C300.938 367.234 302.869 368.13 304.06 369.959C304.734 371 305.426 372.041 304.506 373.196C303.465 374.508 302.069 373.931 300.967 373.383C299.301 372.553 297.779 371.434 296.082 370.369C295.757 377.312 290.781 381.133 286.708 385.285C282.556 389.514 277.646 392.908 271.184 393.215C272.874 397.451 274.282 401.566 276.124 405.477C278.488 410.495 281.322 415.291 283.729 420.291C285.131 423.197 286.346 425.538 289.975 426.753C299.698 430.008 309.289 433.739 318.705 437.812C324.157 440.171 329.307 441.633 334.993 439.076C336.058 438.6 337.256 438.294 338.411 438.197C339.374 438.119 340.745 436.633 341.215 438.203C341.486 439.106 340.649 440.634 339.332 441.254C337.881 441.94 336.438 442.65 334.614 443.528C338.068 445.057 341.052 446.326 344.296 446.759C346.606 447.066 347.737 448.378 348.17 450.779C344.055 450.839 340.126 450.315 336.221 449.708C334.819 449.491 334.049 449.575 334.386 451.218C334.825 453.33 333.778 454.262 331.864 454.822C330.077 455.345 328.321 456.068 326.654 456.904C315.667 462.415 303.098 464.425 293.116 472.295C291.455 473.607 289.084 473.98 288.079 476.297C286.136 480.773 284.012 485.171 282.111 489.66C281.027 492.217 281.708 494.54 283.272 496.868C285.462 500.142 288.079 503.072 290.432 506.207C298.447 516.911 306.918 527.272 315.174 537.795C316.858 539.944 318.248 541.923 320.872 538.65C321.684 537.633 323.471 537.272 324.885 536.881C327.267 536.219 329.716 535.78 332.129 535.22C345.415 532.14 358.772 529.534 372.383 528.307C374.14 528.15 376.077 528.072 377.575 526.496C381.342 522.537 385.259 518.71 389.152 514.871C390.415 513.625 391.24 512.079 392.696 510.912C395.933 508.325 399.417 506.104 402.75 503.655C410.157 498.216 416.836 491.844 424.748 487.049C430.217 483.733 435.307 479.828 440.259 475.767C443.25 473.318 446.83 471.808 449.953 469.618C455.272 465.887 460.627 462.163 465.603 457.048C465.518 459.78 463.75 460.598 462.516 461.741C457.642 466.26 452.444 470.34 446.77 473.86C444.447 475.304 442.564 477.464 440.512 479.335C433.166 486.026 424.471 491.056 417.461 498.186C414.429 501.273 410.885 503.818 407.335 506.357C403.147 509.353 399.892 513.457 396.366 517.206C395.849 517.759 394.765 518.228 395.283 519.083C395.602 519.606 396.468 520.118 397.359 519.997C398.147 519.895 398.953 519.871 399.741 519.763C403.484 519.239 407.22 518.674 410.963 518.168C417.684 517.266 424.561 517.019 431.096 515.394C447.63 511.285 464.153 507.235 481.024 504.762C481.848 504.642 483.034 504.763 483.617 503.68C486.289 498.758 491.042 495.93 495.369 492.933C504.532 486.591 514.111 480.839 523.479 474.792C526.53 472.825 530.074 471.657 533.016 469.81C535.898 468.005 537.499 464.148 539.629 461.164C540.664 459.72 541.591 458.197 542.638 456.765C543.137 456.08 543.329 454.714 544.755 455.484C546.2 456.266 544.93 457.09 544.659 457.704C543.275 460.911 541.296 463.932 540.405 467.259C539.665 470.021 537.908 471.633 536.043 473.204C526.428 481.29 515.447 487.44 505.2 494.642C500.946 497.639 496.331 500.123 491.217 503.246L491.187 503.24ZM614.155 389.659C630.918 394.009 647.536 396.711 661.466 407.12C662.621 405.122 663.933 403.01 664.932 400.923C669.252 391.903 675.732 384.484 681.845 376.777C682.362 376.121 682.489 375.501 682.675 374.713C683.193 372.547 682.663 370.05 683.999 368.22C686.219 365.176 686.147 361.5 687.308 358.172C688.722 354.123 685.419 351.734 683.903 348.714C682.23 345.392 679.829 342.354 679.739 338.407C679.703 336.806 679.011 337.005 677.814 337.36C673.62 338.605 669.276 339.159 665.082 340.573C657.242 343.22 648.752 343.178 640.918 346.012C640.4 346.199 639.708 346.078 639.149 345.928C629.004 343.166 618.806 340.597 608.751 337.54C598.733 334.496 589.088 330.296 578.552 327.438C579.479 331.367 580.129 335.127 580.496 338.936C580.911 343.226 581.092 347.576 581.735 351.788C582.698 358.088 580.761 364.195 575.592 367.781C573.492 369.237 572.06 370.958 573.486 373.955C574.142 375.332 575.273 376.247 575.863 377.613C578.637 384.039 580.724 390.778 584.714 396.656C587.71 401.073 589.233 406.265 592.151 410.772C594.449 414.322 596.495 417.391 601.32 417.71C605.635 417.998 609.732 419.882 614.155 419.984C626.965 420.273 639.835 419.912 652.344 423.534C653.264 423.799 654.528 424.268 655.202 422.86C657.019 419.064 659.618 415.658 660.563 411.422C660.906 409.882 660.654 409.581 659.089 409.154C655.437 408.161 651.802 407.288 647.988 407.535C648.048 406.38 649.077 406.476 649.378 405.856C640.334 401.41 630.948 397.944 621.23 395.471C618.065 394.665 616.194 392.812 614.173 389.653L614.155 389.659ZM391.029 138.007C394.705 135.751 393.496 133.097 392.605 130.498C392.575 130.401 392.497 130.311 392.497 130.221C392.389 121.888 385.108 117.044 382.593 109.89C376.372 105.473 370.108 101.045 362.25 100.215C360.908 100.07 358.712 99.7934 357.822 101.839C356.113 105.768 355.565 109.902 355.89 114.138C356.125 117.176 358.002 119.727 358.652 122.676C358.977 124.15 359.464 125.516 358.345 126.852C357.021 128.422 357.948 129.307 359.362 130.023C361.456 131.081 363.604 132.05 365.637 133.217C372.743 137.297 379.855 141.352 387.118 145.155C393.791 148.651 400.512 151.96 407.473 154.836C411.276 156.407 414.934 158.302 418.725 159.896C421.625 161.112 424.603 162.117 427.353 163.705C430.831 165.721 433.46 168.128 433.779 172.544C433.893 174.09 434.273 175.673 434.236 177.261C434.2 178.85 435.007 179.686 436.457 179.963C441.385 180.908 446.186 182.31 450.958 183.838C451.662 184.066 452.504 184.831 452.859 183.597C453.557 181.178 454.959 179.121 455.416 176.485C456.259 171.672 458.413 167.141 461.373 163.176C463.443 160.402 465.031 157.273 466.704 154.361C468.37 151.455 469.899 148.392 471.945 145.715C472.763 144.644 472.649 143.94 472.065 143.145C470.591 141.124 470.037 138.506 468.503 136.671C466.138 133.843 467.672 131.448 468.876 129.186C469.399 128.205 470.049 127.213 470.308 126.154C471.439 121.521 471.981 116.827 472.456 112.062C472.907 107.537 473.876 102.916 474.183 98.3373C474.406 94.9678 476.186 93.5479 478.677 92.1219C481.788 90.3409 484.73 88.271 487.829 86.4719C488.978 85.8041 488.611 85.07 488.22 84.4082C487.438 83.0845 487.348 84.5706 486.915 84.7932C478.611 89.0652 471.054 94.7693 461.999 97.6273C456 99.5167 450.44 102.387 445.211 105.895C443.4 107.11 441.541 108.295 439.604 109.288C438.232 109.992 436.565 110.064 435.326 109.12C434.158 108.229 435.175 106.978 435.398 105.858C435.915 103.295 437.227 101.063 438.202 98.6863C439.591 95.3048 442.383 92.5611 442.871 88.3192C437.63 89.3661 432.696 90.6718 427.624 91.2975C421.035 92.1038 414.495 93.3072 407.822 92.8078C403.785 92.5069 402.888 93.1688 401.739 97.164C400.686 100.834 400.337 104.601 399.717 108.398C400.56 108.313 401.252 107.285 401.968 108.217C402.87 109.384 402.383 110.853 401.631 111.52C397.924 114.818 400.686 118.512 401.18 121.791C401.565 124.379 401.294 127.718 404.712 129.517C405.915 130.149 406.3 132.748 407.762 134.018C408.237 134.427 408.689 135.095 407.93 135.468C406.252 136.286 404.766 138.067 402.888 137.802C399.037 137.255 395.277 135.281 391.017 138.019L391.029 138.007ZM778.489 425.417C783.844 425.778 788.248 424.431 792.719 423.534C802.881 421.494 812.37 417.24 822.34 414.575C823.893 414.16 829.115 414.761 824.272 410.766C824.795 407.505 822.4 408.612 821.023 408.787C813.219 409.779 805.403 410.622 797.544 411.079C788.597 411.596 779.656 412.198 770.733 413.179C767.676 413.516 764.65 415.249 761.413 413.997C756.996 412.288 752.448 411.049 747.784 410.128C746.19 409.81 745.612 410.074 745.293 411.578C744.752 414.124 743.326 416.314 742.111 418.552C741.244 420.153 739.992 421.091 737.67 420.345C734.878 419.449 731.833 419.334 728.897 418.877C718.765 417.306 708.59 415.874 699.066 411.801C697.784 411.253 697.537 411.29 697.098 412.691C696.472 414.689 697.11 417.006 695.792 418.733C692.868 422.559 691.592 427.222 689.18 431.296C688.879 431.801 688.373 432.307 689.216 432.758C693.771 435.225 694.168 440.297 696.249 444.28C696.845 445.424 697.976 446.23 698.458 446.164C702.82 445.58 701.731 448.853 701.075 450.472C698.325 457.289 698.56 464.955 694.89 471.477C694.565 472.055 694.348 472.861 694.474 473.474C694.649 474.299 695.022 475.28 695.648 475.767C696.544 476.471 696.984 475.274 697.489 474.792C698.999 473.336 700.287 471.609 701.917 470.31C705.804 467.211 709.89 464.335 708.211 458.324C708.109 457.951 708.44 457.373 708.717 457C713.332 450.725 715.558 442.909 721.731 437.602C726.539 433.468 730.365 427.956 737.832 428.528C743.729 428.979 749.481 427.24 755.408 427.174C763.344 427.084 771.268 426.019 778.495 425.429L778.489 425.417ZM506.843 144.547C502.673 145.125 500.332 147.977 498.515 151.461C498.287 151.9 497.866 152.231 497.625 152.664C494.743 157.736 490.591 161.894 487.432 166.78C486.078 168.868 485.35 171.509 482.667 172.64C484.851 168.729 485.663 164.301 488.287 160.498C491.752 155.474 493.588 149.463 497.384 144.535C499.009 142.429 500.591 139.999 500.116 136.804C492.793 141.846 486.012 147.285 479.466 153.043C476.301 155.829 474.087 159.499 470.892 162.141C468.16 164.397 466.21 167.207 463.93 169.788C460.272 173.934 458.509 179.283 454.989 183.513C454.519 184.078 453.695 184.879 454.592 185.884C456.938 188.507 454.899 188.453 452.997 188.423C451.71 188.405 450.434 188.188 449.158 188.044C445.091 187.58 440.982 187.466 436.89 187.243C436.421 187.219 435.903 187.135 435.56 187.659C434.862 188.717 435.668 193.808 436.721 194.596C441.721 198.339 446.926 201.834 451.656 205.89C454.273 208.128 456.445 208.188 458.166 205.721C459.826 203.339 464.736 203.964 463.78 199.163C463.16 196.034 466.445 194.199 467.33 191.377C468.75 186.846 470.916 182.532 473.756 178.681C475.031 176.948 476.469 173.627 479.201 177.484C479.279 177.598 479.574 177.562 479.773 177.592C484.821 178.326 489.46 180.33 494.039 182.4C496.548 183.537 497.661 182.683 498.413 180.48C500.05 175.691 502.769 171.443 505.02 166.96C506.734 163.543 509.569 161.022 511.512 157.809C512.649 155.925 511.897 155.149 510.224 154.614C508.269 153.982 509.28 155.967 508.672 156.605C505.218 160.245 502.041 164.156 498.864 168.049C496.921 170.432 495.23 173.031 492.95 175.131C492.486 175.559 491.975 175.986 491.373 175.643C490.729 175.276 491.054 174.632 491.157 174.054C491.439 172.376 492.017 170.799 492.823 169.319C494.328 166.569 496.157 163.958 497.36 161.082C499.833 155.167 502.956 149.674 506.849 144.553L506.843 144.547ZM462.919 927.169C463.876 922.824 463.888 918.173 465.163 913.925C467.51 906.103 468.118 897.969 470.284 890.122C471.903 884.274 471.451 884.099 465.549 883.401C463.762 883.191 462.697 882.992 463.491 880.694C465.428 875.134 465.964 869.244 467.245 863.528C467.317 863.203 467.673 862.493 466.866 862.312C467.318 863.636 465.41 862.132 465.5 863.534C465.591 864.839 464.893 866.187 464.58 867.529C462.781 875.255 459.201 882.547 458.743 890.598C458.551 894.009 457.125 895.724 453.557 896.296C452.642 896.44 450.524 896.464 449.754 898.095C448.292 901.2 445.446 901.272 442.546 901.446C437.63 901.753 432.804 900.526 427.895 900.784C426.547 900.857 425.632 900.887 425.765 902.68C425.939 905.087 424.922 907.319 424.248 909.581C423.364 912.547 422.377 915.478 421.39 918.564C425.783 917.824 429.748 918.733 433.731 919.305C436.716 919.738 439.194 921.844 442.034 922.337C449.038 923.552 455.681 926.236 462.907 927.151L462.919 927.169ZM687.284 378.864C685.594 384.761 680.876 388.624 678.048 393.684C675.852 397.607 672.049 400.664 670.106 404.527C667.843 409.009 665.317 413.347 662.952 417.764C661.544 420.393 659.817 422.818 659.426 425.899C667.789 426.272 675.702 427.848 683.241 431.103C684.131 428.42 685.419 425.634 686.791 422.872C687.086 422.283 687.862 421.542 687.362 420.989C685.906 419.376 687.194 418.059 687.675 416.711C690.142 409.858 694.547 403.925 696.911 396.963C697.736 394.532 697.128 393.131 695.654 392.06C694.432 391.175 693.746 390.038 693.054 388.925C691.033 385.669 689.228 382.276 687.29 378.864H687.284ZM745.426 435.652C747.55 436.549 750.095 440.249 750.865 442.295C751.816 444.81 749.439 445.243 748.783 446.693C746.052 452.74 742.857 458.565 740.45 464.762C740.263 465.249 739.613 465.616 740.263 466.296C741.521 467.614 747.893 467.349 748.609 465.659C749.662 463.186 751.87 461.73 753.308 459.557C757.123 453.781 761.599 448.396 764.373 442.012C766.052 438.155 768.982 435.026 770.697 430.574C761.942 432.307 753.368 432.427 745.426 435.646V435.652ZM466.644 1029.04C466.511 1027.39 465.446 1027.13 464.676 1026.6C456.722 1021.2 448.761 1015.8 440.801 1010.4C432.57 1004.82 424.682 998.866 419.555 990.039C419.212 989.456 418.574 989.071 418.568 988.264C418.538 982.741 418.52 977.217 418.412 971.7C418.322 967.073 419.886 962.723 420.566 958.222C422.034 948.481 422.491 938.697 422.786 928.883C422.804 928.378 423.075 927.65 422.01 927.349C421.601 928.39 421.041 929.335 420.987 930.538C420.614 939.172 418.803 947.668 418.55 956.321C418.478 958.781 417.888 961.224 417.557 963.679C416.896 968.535 416.426 973.421 415.512 978.228C415.012 980.84 415.301 983.3 415.56 985.84C415.65 986.718 415.819 987.988 415.343 988.445C413.851 989.883 414.826 990.858 415.578 992.013C418.863 997.055 422.804 1001.44 427.708 1005.01C436.433 1011.38 445.765 1016.76 455.013 1022.28C458.779 1024.53 462.594 1026.69 466.644 1029.04ZM274.848 298.755C275.275 298.46 275.63 298.165 276.028 297.961C276.966 297.473 278.284 296.631 278.825 297.865C279.385 299.134 277.592 299.958 276.858 299.94C273.5 299.856 275.342 301.631 275.739 302.78C276.238 304.23 277.315 305.338 278.542 306.162C281.292 307.997 284.529 308.857 287.598 307.997C289.656 307.419 289.433 304.441 290.378 302.606C290.685 302.004 290.781 301.288 291.112 300.699C291.846 299.375 291.479 298.96 290.035 298.442C285.408 296.788 280.871 294.88 276.304 293.045C275.799 292.84 275.077 292.124 274.92 293.045C274.601 294.892 273.308 296.8 274.848 298.767V298.755ZM422.106 1058.67C422.136 1058.42 422.173 1058.16 422.203 1057.9C421.974 1057.77 421.745 1057.53 421.505 1057.52C411.739 1056.83 401.968 1056.15 392.202 1055.48C387.617 1055.16 383.039 1054.81 378.454 1054.53C370.283 1054.03 362.112 1053.56 353.941 1053.1C352.653 1053.02 351.414 1053.19 350.571 1055.07C374.477 1058.76 398.376 1056.94 422.1 1058.68L422.106 1058.67ZM382.37 914.635C383.869 914.172 385.728 913.925 387.635 914.112C388.839 914.232 388.49 913.24 388.49 912.656C388.478 909.365 389.254 906.2 390.024 903.053C391.167 898.366 391.234 898.378 386.564 897.872C385.764 897.788 385.09 897.71 384.868 898.913C383.971 903.727 382.623 908.42 380.89 913.005C380.469 914.124 380.728 914.738 382.37 914.635ZM295.227 291.035C295.245 290.073 294.764 289.748 294.168 289.549C289.313 287.961 284.481 286.276 279.577 284.844C276.966 284.08 277.375 286.745 276.635 287.991C275.799 289.405 276.966 289.808 278.019 290.049C282.243 291.035 286.178 292.852 290.252 294.248C291.208 294.579 292.297 296.89 293.555 294.597C294.217 293.388 294.728 292.094 295.221 291.029L295.227 291.035ZM444.85 65.7497C442.552 64.7689 440.416 65.9001 438.093 65.8519C421.733 65.509 405.367 65.4488 389.043 66.8868C388.376 66.947 387.479 66.7486 387.425 67.7594C387.359 68.9868 388.405 68.8423 389.14 68.8303C393.436 68.7701 397.78 69.0169 402.022 68.4874C410.632 67.4164 419.278 67.3202 427.913 66.8629C433.562 66.562 439.2 66.1227 444.844 65.7497H444.85ZM394.633 970.22C399.952 970.238 404.717 968.914 409.519 967.813C410.265 967.644 411.595 967.891 411.462 966.531C411.342 965.25 410.049 965.37 409.236 965.346C403.869 965.196 398.496 964.865 393.159 965.797C392.1 965.984 391.721 966.465 391.48 967.494C390.668 970.948 393.616 969.69 394.633 970.22ZM733.915 435.231C734.914 436.537 736.286 437.253 736.232 438.679C736.076 442.993 737.893 447.373 736.214 451.591C735.125 454.335 734.728 457.217 733.807 459.979C733.56 460.719 733.013 461.32 734.27 461.766C735.648 462.259 735.275 460.929 735.365 460.64C736.394 457.241 736.406 453.661 739.126 450.64C740.732 448.859 740.841 445.718 741.563 443.167C741.798 442.331 742.026 441.477 740.817 440.965C739.752 440.514 739.367 439.304 738.964 438.348C738.049 436.17 736.515 435.207 733.928 435.231H733.915ZM482.221 180.324C481.307 179.77 480.44 179.313 479.646 178.748C479.099 178.356 479.032 178.459 478.702 179.042C475.416 184.831 471.644 190.294 467.384 195.42C466.21 196.828 467.366 197.984 467.703 199.229C467.925 200.053 468.641 200.011 469.093 199.602C470.248 198.573 472.486 199.247 472.799 196.792C473.647 190.12 476.854 184.692 482.221 180.324ZM486.259 961.074C484.833 959.359 483.365 959.215 481.855 959.209C477.847 959.197 473.84 959.197 469.833 959.191C468.431 959.191 466.565 959.209 466.529 960.803C466.499 962.223 468.118 963.27 469.7 963.385C475.188 963.776 480.452 962.536 486.259 961.08V961.074ZM393.977 908.288C398.959 907.469 402.605 904.587 406.336 901.873C406.703 901.603 407.221 901.29 407.058 900.7C406.878 900.044 406.258 900.231 405.812 900.243C403.628 900.291 401.474 900.153 399.332 899.647C396.986 899.094 395.451 899.804 395.144 902.505C394.928 904.419 394.386 906.296 393.977 908.282V908.288ZM488.75 968.902C481.499 967.458 474.881 968.673 468.262 969.997C467.733 970.099 467.221 970.238 467.257 970.852C467.299 971.586 467.919 971.67 468.521 971.856C473.298 973.342 478.01 971.826 482.727 971.501C484.652 971.369 486.927 971.393 488.744 968.908L488.75 968.902ZM405.524 974.895C405.512 974.811 405.506 974.726 405.494 974.642C402.678 975.112 399.844 975.491 397.064 976.104C396.119 976.315 394.627 976.568 394.693 977.897C394.753 979.029 395.987 979.576 397.022 979.931C397.66 980.148 398.412 980.316 399.055 980.196C401.956 979.648 404.85 979.041 407.72 978.337C408.484 978.15 409.585 978.072 409.567 976.778C409.549 975.472 408.628 975.099 407.617 974.913C406.944 974.793 406.222 974.889 405.524 974.889V974.895ZM729.776 439.25C727.465 442.331 724.481 443.961 723.241 447.144C722.724 448.474 722.05 449.437 724.228 449.912C725.624 450.219 726.876 451.26 727.255 452.849C727.411 453.504 727.736 454.112 728.308 454.136C729.342 454.184 728.735 453.029 729.216 452.566C729.848 451.946 729.854 451.019 729.643 450.309C728.621 446.826 729.234 443.336 729.776 439.256V439.25ZM726.43 413.263C727.832 413.739 729.108 414.286 730.438 414.581C731.111 414.731 732.213 415.11 732.514 414.057C733.091 412.06 733.476 410.008 733.915 407.968C734.03 407.433 733.807 407.108 733.236 406.861C730.564 405.724 729.547 406.181 728.392 409.045C727.838 410.417 727.146 411.735 726.43 413.269V413.263ZM485.41 193.772C487.33 193.351 489.009 192.947 490.705 192.628C491.512 192.478 491.933 192.069 492.017 191.275C492.227 189.373 493.022 187.671 493.864 185.992C494.219 185.282 494.382 184.464 493.467 184.446C492.384 184.421 490.814 182.893 490.362 184.235C489.225 187.628 487.077 190.438 485.404 193.772H485.41ZM476.421 196.497C478.328 195.649 481.439 196.413 481.614 194.193C481.939 190.083 483.695 186.84 486 183.687C486.409 183.128 487.053 182.406 485.844 181.756C484.761 181.178 484.568 181.768 484.141 182.544C481.602 187.213 479.002 191.852 476.421 196.503V196.497ZM705.792 407.108C706.219 408.01 706.966 407.914 707.616 408.119C713.109 409.882 713.013 409.876 714.324 404.575C714.601 403.462 714.312 402.95 713.56 402.8C712.014 402.487 710.329 401.271 709.114 403.781C708.464 405.122 707.339 406.476 705.792 407.102V407.108ZM725.287 405.002C724.011 405.339 722.387 404.166 721.875 405.116C720.684 407.343 718.296 408.528 717.333 410.862C717.796 411.013 718.253 411.169 718.717 411.32C721.601 412.258 723.446 411.332 724.252 408.54C724.553 407.499 724.86 406.458 725.287 405.008V405.002ZM366.949 904.166C367.1 904.852 367.202 906.278 367.743 907.511C368.556 909.371 370.716 909.984 372.166 909.641C373.989 909.208 372.178 907.541 372.142 906.428C372.106 905.201 371.438 903.997 371.077 902.776C370.505 900.845 369.091 902.421 368.104 902.09C367.045 901.735 366.769 902.577 366.949 904.166ZM377.629 922.698C377.81 920.225 376.065 918.793 375.716 916.91C375.102 913.606 373.177 912.62 369.765 913.829C371.727 917.277 373.411 920.797 377.629 922.692V922.698ZM734.379 414.924C737.074 416.591 738.669 415.868 739.355 412.878C739.505 412.228 740.299 411.651 740.281 411.061C740.251 410.249 742.273 409.31 740.095 408.522C738.675 408.01 737.736 407.782 737.026 409.436C736.22 411.32 735.251 413.131 734.379 414.924ZM504.31 1048.68C509.731 1050.23 515.02 1048.9 520.339 1047.97C514.954 1046.99 509.677 1048.66 504.31 1048.68ZM368.502 900.026C368.989 899.744 370.752 901.031 370.337 899.184C369.976 897.589 370.054 895.213 367.569 894.84C365.932 894.593 365.992 895.857 366.287 896.777C366.666 897.968 364.879 900.61 368.502 900.032V900.026ZM377.028 902.8C377.966 900.55 378.556 899.052 379.224 897.583C379.567 896.825 379.139 896.236 378.622 896.206C377.557 896.145 376.649 894.936 375.571 895.676C375.024 896.055 375.403 896.723 375.584 897.307C376.041 898.811 376.396 900.339 377.034 902.8H377.028ZM703.939 402.084C702.194 402.806 701.893 404.226 701.225 405.369C700.63 406.38 701.635 406.181 701.983 406.428C702.489 406.777 703.055 407.048 703.211 406.049C703.397 404.906 703.626 403.768 703.939 402.084Z" fill="black"/>
<path d="M564.425 353.768C566.603 362.107 561.567 367.998 558.366 374.406C556.524 378.094 554.846 382.168 552.018 384.978C548.931 388.04 546.795 391.693 544.009 394.9C541.5 397.788 539.539 401.097 537.03 404.027C533.853 407.74 532.36 412.469 530.646 416.946C529.352 420.333 526.945 422.271 523.835 422.848C516.999 424.118 510.026 424.497 503.076 424.166C495.537 423.805 487.986 423.498 480.495 422.475C476.854 421.976 473.16 421.783 469.568 421.073C468.25 420.815 467.299 420.977 466.24 421.506C453.057 428.077 439.79 434.491 426.733 441.302C420.692 444.449 414.796 447.885 408.682 450.911C406.907 451.79 405.915 453.643 404.567 455.057C403.965 455.689 403.821 457.139 402.371 456.254C400.933 455.376 401.426 454.293 402.04 453.216C404.501 448.932 406.805 444.539 409.495 440.406C414.483 432.74 417.287 424.064 421.264 415.929C421.553 415.345 421.781 414.786 421.198 414.334C420.596 413.871 419.85 413.943 419.188 414.214C416.222 415.411 413.033 415.652 409.97 416.446C405.584 417.59 401.107 417.048 396.667 417.072C394.958 417.084 393.309 417.361 392.876 419.166C391.841 423.486 388.616 425.682 385.228 427.951C380.216 431.308 375.355 434.888 370.481 438.45C368.748 439.714 366.708 440.117 364.723 440.959C364.271 439.503 364.771 438.625 365.644 437.337C369.765 431.242 375.728 426.675 379.621 420.484C381.979 416.729 383.032 412.319 383.706 407.878C383.941 406.314 382.936 406.35 381.979 406.073C374.109 403.781 366.474 400.82 358.802 397.962C357.509 397.481 356.281 396.801 354.963 396.404C352.406 395.646 352.719 393.624 352.785 391.729C352.815 390.971 354.524 390.05 356.119 390.002C359.428 389.894 362.695 390.573 365.848 391.338C382.413 395.357 399.08 398.865 415.849 401.885C424.399 403.426 432.943 405.303 441.571 406.073C455.861 407.355 469.905 410.399 484.183 411.554C492.017 412.186 499.851 412.812 507.721 413.059C513.293 413.233 518.84 413.919 524.406 412.896C525.393 412.716 526.283 412.493 526.452 411.5C527.547 405.086 532.559 401.127 536.061 396.266C542.331 387.553 550.52 380.393 556.506 371.446C557.866 369.412 559.599 367.709 560.863 365.567C563.005 361.945 563.342 357.883 564.437 353.756L564.425 353.768Z" fill="black"/>
<path d="M450.055 350.856C417.997 340.152 389.723 322.305 362.256 302.714C362.918 306.397 362.485 309.712 362.07 313.021C361.263 319.429 361.841 325.91 361.269 332.3C360.938 336.006 359.97 339.592 360.716 343.389C360.932 344.484 360.932 346.56 358.947 346.578C356.841 346.596 356.961 344.797 356.546 343.178C354.801 336.409 356.6 329.465 355.06 322.594C354.151 318.533 355.234 313.96 354.976 309.58C354.777 306.21 354.392 302.774 355.385 299.387C355.926 297.528 354.843 296.348 353.333 295.187C350.108 292.708 347.045 290.019 344.043 287.269C343.02 286.33 341.48 284.928 342.876 283.49C344.079 282.251 345.944 282.419 347.43 283.568C350.306 285.801 352.894 288.388 356.071 290.259C357.154 290.897 357.731 290.987 357.936 289.7C358.574 285.728 361.733 283.225 363.55 279.946C365.644 276.174 368.604 272.979 370.824 269.224C372.9 265.722 376.053 262.84 378.857 259.796C380.541 257.966 381.823 255.764 383.911 254.296C384.555 253.839 385.084 253.087 385.999 253.616C387.016 254.206 386.402 254.946 386.161 255.692C384.814 259.886 382.256 263.322 379.795 266.914C377.304 270.554 374.97 274.339 372.563 278.057C369.639 282.57 365.619 286.288 363.369 291.324C362.346 293.617 361.691 294.615 364.398 296.619C370.241 300.939 376.101 305.259 381.877 309.688C393.797 318.834 406.077 327.414 419.176 334.869C427.07 339.363 435.025 343.641 443.22 347.522C445.506 348.605 448.214 348.684 450.055 350.856Z" fill="black"/>
<path d="M507.3 368.966C505.964 364.309 504.34 359.971 502.475 355.645C500.615 351.331 500.351 346.355 498.233 342.065C495.928 337.408 495.092 332.323 493.515 327.456C493.094 326.156 492.968 324.826 493.395 323.647C493.967 322.064 495.525 321.132 497.047 320.909C498.72 320.663 498.834 322.456 499.207 323.611C500.507 327.624 501.433 331.752 502.511 335.807C503.66 340.121 505.104 344.411 505.838 348.81C506.777 354.411 508.696 359.76 509.689 365.356C510.182 368.13 508.889 368.329 507.3 368.966Z" fill="black"/>
<path d="M542.12 276.445C540.098 277.179 539.352 275.747 538.455 274.856C531.265 267.696 523.509 261.198 514.977 255.723C510.284 252.708 505.711 249.531 501.036 246.523C498.19 244.687 495.38 242.738 492.414 241.065C491.409 240.5 490.344 239.832 491.018 238.532C491.638 237.341 492.823 237.575 493.912 237.997C500.146 240.428 505.777 243.996 510.844 248.213C515.399 252.004 520.477 255.079 524.827 259.128C530.742 264.64 537.072 269.724 542.114 276.439L542.12 276.445Z" fill="black"/>
<path d="M562.638 334.171C561.837 334.592 563.468 335.561 562.198 335.778C561.458 335.904 561.38 335.272 561.055 334.755C557.89 329.791 553.865 325.633 549.419 321.752C544.34 317.324 540.098 311.933 534.671 307.907C528.738 303.509 523.431 298.593 519.286 292.45C518.835 291.776 518.04 291.126 518.732 290.398C519.466 289.634 519.924 290.699 520.375 291.078C525.339 295.218 530.23 299.435 535.224 303.533C539.087 306.698 542.716 310.127 546.037 313.822C551.434 319.827 556.591 326.042 561.777 332.234C562.168 332.697 563.077 333.245 562.644 334.159L562.638 334.171Z" fill="black"/>
<path d="M274.818 335.507C274.818 337.589 274.872 338.894 274.8 340.194C274.758 340.994 275.305 342.192 274.06 342.426C272.887 342.649 272.249 341.602 271.918 340.675C270.919 337.884 269.95 335.074 269.15 332.222C268.061 328.311 267.164 324.339 266.984 320.26C266.918 318.714 266.731 316.373 268.344 316.235C269.86 316.102 271.677 317.426 272.568 319.279C273.711 321.668 273.795 324.291 274.06 326.782C274.397 329.929 275.414 333.07 274.812 335.513L274.818 335.507Z" fill="black"/>
<path d="M447.191 529.835C446.818 530.792 447.257 531.965 446.306 532.411C445.049 533 444.892 531.55 444.423 530.978C442.341 528.451 441.005 525.461 439.543 522.549C438.43 520.34 440 519.011 441.439 518.295C443.256 517.386 444.014 519.017 444.465 520.557C445.38 523.686 446.306 526.821 447.191 529.841V529.835Z" fill="black"/>
<path d="M411.547 553.169C412.184 549.155 412.792 546.021 413.147 542.85C413.394 540.659 414.892 540.87 416.216 541.087C418.111 541.394 417.575 542.964 417.04 543.885C415.391 546.737 414.393 550.004 411.547 553.169Z" fill="black"/>
<path d="M397.172 371.789C389.212 366.578 381.498 361.085 375.981 353.13C382.623 359.839 389.886 365.838 397.172 371.789Z" fill="black"/>
<path d="M394.609 548.753C395.145 552.471 392.575 555.143 391.36 558.271C392.347 555.028 391.414 551.123 394.693 548.662L394.609 548.753Z" fill="black"/>
<path d="M394.693 548.662C391.57 547.471 391.582 544.065 389.994 541.791C393.58 542.706 393.706 545.997 394.609 548.759L394.693 548.662Z" fill="black"/>
<path d="M453.882 526.803C452.732 524.071 450.115 521.712 452.004 517.934C453.238 521.086 453.683 523.951 453.882 526.803Z" fill="black"/>
<path d="M376.161 124.174C374.795 121.467 373.477 122.971 371.973 124.156C371.781 115.269 364.199 115.155 358.965 112.261C360.577 109.722 362.87 108.62 365.902 109.77C371.57 111.924 376.546 116.394 376.161 124.174Z" fill="black"/>
<path d="M454.826 128.928C452.768 129.108 452.245 127.905 452.311 126.322C452.426 123.615 452.594 120.979 449.225 119.926C448.473 119.692 447.865 118.982 448.214 118.031C448.539 117.134 449.393 117.489 450.031 117.423C454.068 117.002 457.841 118.254 461.655 119.27C462.642 119.535 463.413 120.143 463.166 121.136C462.943 122.026 461.818 121.834 461.174 121.725C459.598 121.461 459.411 122.273 459.038 123.536C458.358 125.829 457.486 128.163 454.832 128.934L454.826 128.928Z" fill="black"/>
</svg>
