<svg width="1080" height="1080" viewBox="0 0 1080 1080" fill="none" xmlns="http://www.w3.org/2000/svg">
<path d="M538.055 40.7661C540.296 42.4868 542.71 44.0217 544.74 45.9652C549.11 50.1368 553.609 53.2748 560.219 51.9874C566.254 50.8115 572.4 50.174 578.521 49.4932C580.186 49.3075 582.687 48.4905 582.576 51.9689C589.124 51.0962 591.847 55.4349 593.865 60.436C594.688 62.4661 595.845 63.3016 597.95 63.7473C601.942 64.5952 605.903 65.734 608.187 68.8535C610.879 68.1665 613.269 67.5537 615.93 66.8729C615.973 66.7182 615.986 66.0311 616.32 65.6165C617.378 64.2981 618.344 62.4846 619.755 61.9585C621.847 61.1848 622.676 63.3945 623.815 64.8242C624.539 65.7402 625.814 66.3282 626.953 66.7801C629.38 67.7394 631.242 69.1135 631.502 71.9173C632.059 77.8034 635.513 82.2225 641.554 83.3737C646.784 84.364 651.017 87.0131 655.344 89.724C657.776 91.2528 658.612 93.7843 658.643 96.2477C658.742 103.817 661.255 105.643 666.701 110.799C669.45 108.23 671.412 109.734 673.491 112.055C674.809 113.522 676.914 114.29 678.22 115.763C681.352 119.297 684.329 122.986 687.145 126.78C688.569 128.699 690.407 130.698 689.565 133.452C689.274 134.399 688.544 135.21 688.036 136.095C687.547 136.949 686.891 137.766 686.637 138.694C686.111 140.625 686.043 142.711 685.332 144.562C684.415 146.957 682.837 147.05 680.813 144.599V162.511C681.098 162.604 681.797 162.845 682.422 163.056C683.314 162.065 684.248 161.032 685.177 159.998C685.536 160.079 685.895 160.159 686.254 160.24C686.39 163.378 686.52 166.516 686.662 169.654C686.842 173.442 686.377 177.421 687.417 180.962C688.339 184.106 691.075 186.674 692.722 189.658C693.656 191.36 694.17 193.347 694.585 195.271C694.962 197.035 694.999 198.88 695.098 200.693C695.203 202.631 695.513 204.63 695.185 206.505C694.845 208.449 693.334 208.523 691.818 207.545C691.385 209.142 691.224 210.887 690.462 212.311C688.568 215.839 688.971 219.398 690.382 222.734C695.036 233.763 693.619 244.508 689.379 255.209C689.082 255.952 688.847 256.732 688.457 257.431C684.997 263.645 688.03 269.476 689.398 275.449C690.5 280.245 691.818 285.098 692.022 289.969C692.263 295.824 689.775 300.998 686.322 305.851C684.682 308.159 684.236 311.39 683.543 314.281C682.503 318.576 687.541 323.274 685.981 327.346C684.285 331.778 678.046 334.433 675.459 339.106C682.02 345.091 687.386 351.058 694.646 357.674C697.221 354.221 703.571 350.185 707.025 352.723C710.887 355.564 719.156 359.154 722.499 362.626C724.962 365.188 725.222 364.173 727.45 366.958C727.611 366.606 731.622 370.406 731.783 370.053C733.126 370.264 735.131 373.674 736.115 374.386C739.247 376.639 736.586 379.56 739.705 382.135C739.29 379.925 737.978 377.647 737.174 375.667C735.979 372.721 739.495 373.086 739.81 371.328C740.801 371.792 742.125 371.997 742.726 372.764C744.743 375.339 746.637 378.037 748.315 380.841C749.299 382.488 748.092 383.682 745.925 384.029C745.108 384.159 744.44 385.229 743.635 385.935C743.827 388.596 750.877 390.41 747.256 392.96C752.22 400.202 752.109 408.545 756.856 415.929C764.32 427.552 772.546 439.485 780.159 451.01C783.835 456.58 787.233 461.52 791.56 466.911C792.5 465.456 792.965 464.484 793.701 463.785C793.868 463.63 794.945 464.429 795.867 464.93C794.914 462.275 796.233 459.372 797.39 457.942C803.753 464.491 811.217 472.005 807.912 477.129C807.342 476.071 803.511 477.241 803.06 476.393C802.762 476.461 802.465 476.535 802.168 476.603C802.23 477.445 802.15 478.33 802.372 479.128C804.136 485.565 808.754 490.275 812.424 495.561C814.869 499.077 817.357 502.568 819.82 506.071C820.26 505.854 820.699 505.638 821.132 505.421C820.656 503.942 820.514 502.215 819.635 501.039C816.763 497.17 814.603 491.39 814.095 487.032C814.033 486.481 816.713 484.334 817.19 483.938C817.413 483.752 818.694 486.686 819.034 487.026C821.516 489.533 823.936 492.107 826.375 494.664C828.572 496.966 830.342 500.698 827.718 502.506C826.74 503.18 826.257 504.424 825.861 505.6C825.514 506.615 823.404 506.281 823.379 507.414C823.311 510.886 828.312 511.907 824.982 511.276C825.019 511.579 838.37 518.901 827.093 516.122C830.689 520.845 824.332 521.55 823.063 527.195C821.17 535.637 819.659 544.129 816.8 552.349C815.958 554.769 817.574 557.591 817.184 560.197C815.834 569.215 807.992 576.06 798.999 579.545C796.245 580.616 794.06 583.091 791.491 584.731C785.42 588.612 779.292 592.4 773.159 596.182C764.958 601.239 756.905 606.58 748.457 611.191C741.89 614.775 734.599 616.328 727.054 617.12C717.751 618.098 708.523 619.844 699.282 621.372C695.395 622.016 696.256 625.544 695.965 627.97C695.08 635.392 693.136 642.392 689.027 648.692C686.099 653.186 681.543 655.451 676.71 657.122C675.633 657.494 674.079 656.937 672.885 656.454C666.188 653.724 660.227 649.924 655.288 644.533C651.457 640.349 646.345 638.109 641.127 636.215C624.973 630.347 608.837 624.412 592.59 618.81C586.271 616.632 579.722 614.929 573.149 613.753C570.55 613.289 567.616 615.022 564.787 615.48C560.801 616.124 556.784 616.867 552.767 616.935C542.796 617.114 532.961 617.758 523.269 620.543C515.47 622.784 508.538 619.429 501.823 615.821C496.716 613.073 491.641 610.257 486.424 607.737C478.829 604.067 475.246 606.592 471.452 612.225C470.331 613.89 469.52 615.777 468.716 617.628C468.45 618.235 468.338 619.287 468.685 619.726C471.495 623.316 470.009 626.312 467.534 629.047C468.809 629.518 469.985 629.957 471.637 630.57C473.042 628.967 474.577 626.931 476.409 625.21C478.049 623.669 479.324 621.205 482.858 621.824C480.327 625.631 477.975 629.078 475.741 632.6C475.233 633.398 475.14 634.463 474.862 635.404C475.796 635.497 476.743 635.744 477.659 635.645C479.888 635.398 482.883 639.018 481.986 641.265C479.739 646.91 477.517 652.586 474.874 658.051C469.458 669.247 463.999 680.444 458.058 691.362C456.158 694.853 453.824 699.266 448.118 697.694C447.43 697.502 446.471 698.313 444.924 698.956C444.608 697.298 444.33 695.806 444.138 694.803C442.974 695.311 441.427 695.992 439.88 696.672C439.391 695.23 438.902 693.782 438.493 692.563C437.329 695.694 436.048 699.284 434.631 702.825C434.315 703.617 433.634 704.428 432.904 704.861C432 705.393 430.868 705.542 429.834 705.857C429.686 704.78 429.537 703.697 429.364 702.429C428.565 702.769 427.686 703.146 426.368 703.71C426.028 703.122 425.235 702.385 425.285 701.711C425.7 696.227 426.857 690.898 429.333 685.946C432.972 678.668 436.741 671.451 440.294 664.129C442.51 659.567 444.274 654.789 446.533 650.252C449.281 644.731 452.295 639.34 455.31 633.962C455.774 633.126 456.752 632.452 457.643 632.018C458.349 631.672 459.283 631.808 460.119 631.734C460.106 632.427 460.088 633.12 460.082 633.813C460.075 634.531 460.082 635.249 460.082 636.883C462 634.531 463.455 632.755 465.151 630.675C460.93 630.96 458.485 628.305 456.783 625.625C452.339 618.631 445.431 615.115 438.536 611.432C436.358 610.269 433.783 609.34 432.267 607.564C429.661 604.5 430.88 600.533 431.382 596.986C431.685 594.845 433.189 592.901 433.771 590.76C435.039 586.099 436.16 581.389 437.15 576.66C438.06 572.322 439.044 567.952 439.36 563.551C439.508 561.428 438.487 559.046 437.472 557.053C435.38 552.943 434.062 548.746 434.006 544.086C433.987 542.458 433.244 540.744 432.477 539.258C432.112 538.559 430.793 537.773 430.088 537.909C420.364 539.846 410.499 541.808 401.815 546.63C394.016 550.956 386.948 556.595 379.576 561.688C375.77 564.319 371.97 566.968 368.238 569.71C364.883 572.179 361.627 574.785 358.335 577.329C358.254 577.391 358.198 577.515 358.112 577.539C351.774 579.05 351.947 584.663 350.449 589.355C349.453 592.481 347.98 595.501 346.358 598.373C345.04 600.706 342.063 601.059 340.918 598.676C336.065 600.811 331.46 601.338 327.004 597.581C324.974 595.866 322.9 596.528 321.217 598.484C320.084 599.809 319.075 601.307 317.726 602.359C316.197 603.547 314.068 604.488 312.564 602.712C311.865 601.882 311.883 599.586 312.546 598.614C314.854 595.222 314.173 591.868 313.034 588.488C312.001 585.412 312.663 582.677 314.161 580.015C315.807 577.106 317.547 574.253 319.168 571.331C321.403 567.308 323.247 563.025 325.834 559.256C329.009 554.633 332.834 550.461 336.282 546.017C338.819 542.743 340.905 539.073 343.728 536.083C347.045 532.58 350.66 529.281 355.537 527.752C356.54 527.436 357.375 525.623 357.728 524.348C359.814 516.692 361.745 508.986 363.688 501.292C364.035 499.925 364.239 498.52 364.462 497.127C366.201 486.203 374.421 481.004 383.154 476.616C393.67 471.324 402.706 464.28 410.715 455.739C414.243 451.976 417.041 447.909 418.297 442.834C418.551 441.8 419.157 440.488 419.999 440.03C425.297 437.14 427.86 431.594 432.075 427.837C436.593 423.808 436.061 419.475 435.095 414.895C433.467 407.152 433.059 399.49 434.662 391.722C435.132 389.444 435.324 387.111 435.658 384.809C436.642 377.926 441.631 373.303 445.196 367.868C451.064 358.931 456.869 349.95 462.694 340.982C462.805 340.808 462.879 340.598 463.015 340.462C468.041 335.448 468.134 329.024 468.128 322.574C468.128 315.97 467.948 309.36 468.19 302.762C468.351 298.287 466.766 294.654 464.037 291.343C460.923 287.567 460.756 282.839 462.681 278.549C463.851 275.938 464.129 272.818 464.228 269.909C464.253 269.129 462.18 267.613 461.035 267.582C456.665 267.446 452.271 268.027 447.901 267.867C443.624 267.712 439.657 266.251 436.995 262.63C434.575 259.338 434.724 255.531 435.986 251.91C436.772 249.651 438.283 247.64 439.471 245.529C441.452 242.014 442.064 237.192 437.608 233.986C431.778 229.79 425.929 225.612 420.303 221.149C418.6 219.8 417.431 217.646 416.372 215.672C415.209 213.493 414.095 211.172 413.63 208.777C413.234 206.722 413.463 204.407 413.983 202.352C415.246 197.37 416.942 192.492 418.254 187.522C418.966 184.83 419.56 182.026 419.597 179.266C419.615 177.991 418.371 176.493 417.35 175.447C414.67 172.705 411.575 170.347 409.075 167.469C407.478 165.631 406.296 163.248 405.541 160.908C403.944 155.938 401.858 150.875 401.666 145.787C401.512 141.554 400.045 138.094 398.893 134.312C397.909 131.081 397.6 127.653 396.913 124.323C396.61 122.856 396.213 121.389 395.675 119.99C394.412 116.728 396.096 114.005 397.297 111.288C398.999 107.45 398.299 103.731 396.22 100.667C393.738 97.0152 393.93 93.9515 395.601 90.114C397.538 85.6577 400.441 82.0369 403.604 78.5337C404.154 77.921 405.108 77.6176 405.931 77.3267C413.049 74.8014 420.21 75.0305 427.433 76.9306C432 78.1376 436.215 76.6521 440.3 74.7891C440.888 74.523 441.241 73.5884 441.544 72.8952C443.686 68.0365 445.667 63.0974 447.938 58.3007C449.801 54.3704 452.933 53.2439 457.303 54.129C458.392 54.3518 459.822 53.8629 460.837 53.2625C464.241 51.2509 467.385 48.7628 470.888 46.9679C475.091 44.8202 476.341 45.4268 478.631 49.4932C479.071 50.273 479.498 51.059 480.005 51.9751C481.367 51.0776 482.747 50.3906 483.849 49.4003C490.533 43.4028 497.62 43.8175 505.14 47.6797C508.427 49.3694 511.942 49.1094 515.377 47.7106C519.821 45.9033 524.241 44.0404 528.765 42.4559C531.142 41.6203 533.71 41.3294 536.192 40.7847C536.811 40.7847 537.43 40.7847 538.049 40.7847L538.055 40.7661ZM817.666 509.363C817.524 509.456 817.388 509.543 817.246 509.636C817.586 510.168 817.932 510.694 818.273 511.226L818.762 510.905C818.397 510.391 818.032 509.883 817.666 509.37V509.363Z" fill="white"/>
<path d="M213.732 994.549C215.286 990.934 216.059 986.799 219.773 984.559C221.184 983.711 222.874 982.894 224.458 982.851C227.912 982.764 231.378 983.352 234.838 983.352C238.403 983.352 242.005 982.597 245.527 982.9C248.622 983.166 251.617 984.497 254.687 985.24C255.566 985.45 256.612 985.481 257.454 985.215C262.876 983.501 268.162 981.149 273.695 980.047C278.69 979.057 282.948 975.386 288.556 976.42C290.152 976.717 292.288 975.139 293.909 974.031C298.434 970.955 304.976 971.92 308.51 976.197C308.937 976.711 310.757 976.903 311.153 976.488C317.497 969.927 323.717 963.243 329.962 956.577C330.235 956.286 330.445 955.927 330.872 955.333C328.458 954.751 328.892 953.445 330.173 952.3C333.781 949.088 338.052 946.977 342.793 946.395C344.699 946.16 347.293 946.853 348.704 948.104C353.773 952.603 359.869 955.141 365.824 958.007C367.105 958.619 368.336 959.343 369.655 959.857C372.372 960.928 372.502 962.958 371.475 965.131C368.566 971.27 365.718 977.46 362.401 983.377C361.101 985.698 358.483 987.245 356.694 989.337C353.847 992.673 352.325 996.566 351.656 1000.98C351.18 1004.11 349.799 1007.12 348.704 1010.14C346.408 1016.47 347.082 1022.99 347.484 1029.45C347.967 1037.22 344.167 1040.08 337.538 1041.7C331.423 1043.2 325.413 1042.66 319.329 1042.44C310.033 1042.1 300.736 1041.78 291.434 1041.56C285.684 1041.43 280.385 1039.55 275.112 1037.58C265.036 1033.82 255.003 1029.95 244.958 1026.11C237.555 1023.27 231.719 1018.11 225.808 1013.08C221.741 1009.63 217.761 1006.08 213.738 1002.58C213.738 999.896 213.738 997.21 213.738 994.53L213.732 994.549Z" fill="white"/>
<path d="M819.053 1044.68C815.414 1043.44 811.737 1042.29 808.141 1040.93C806.575 1040.33 804.978 1039.52 803.734 1038.42C801.308 1036.28 800.052 1033.73 801.469 1030.3C804.112 1023.91 806.291 1017.33 809.169 1011.05C810.574 1007.99 813.155 1005.47 815.092 1002.63C815.531 1001.98 815.927 1000.87 815.667 1000.25C812.22 992.091 808.674 983.971 805.09 975.869C804.304 974.086 803.32 972.44 804.898 970.583C805.096 970.354 805.003 969.729 804.855 969.364C802.546 963.793 800.497 958.087 797.78 952.721C795.75 948.704 792.86 945.114 790.334 941.351C789.264 939.754 788.137 938.194 786.936 936.467C783.514 936.145 779.453 936.467 778.073 931.701C777.912 931.151 777.658 930.538 777.751 930.012C779.521 919.954 783.545 911.165 791.999 904.889C795.83 902.048 802.942 902.624 806.365 906.059C811.465 911.165 816.583 916.253 821.671 921.365C823.992 923.699 826.313 925.487 830.014 924.107C831.754 923.457 834.025 924.231 835.746 923.569C840.524 921.724 845.098 919.36 849.833 917.404C852.55 916.284 855.379 914.477 858.312 917.033C866.049 916.68 864.186 923.018 864.7 926.973C865.801 935.427 866.105 943.994 866.761 952.51C866.779 952.714 867.126 952.894 867.318 953.092V956.806C867.113 957.227 866.792 957.629 866.724 958.074C865.467 966.083 864.539 974.161 862.911 982.095C861.63 988.34 859.371 994.375 857.799 1000.57C856.988 1003.75 857.297 1007.3 856.134 1010.3C852.067 1020.79 846.15 1030.2 838.153 1038.18C836.984 1039.34 834.384 1039.3 833.579 1040.55C832.088 1042.87 830.002 1043.8 827.712 1044.69C824.821 1044.69 821.937 1044.69 819.047 1044.69L819.053 1044.68Z" fill="white"/>
<path d="M734.555 828.71C731.324 829.608 728.527 831.025 725.785 830.914C723.978 830.839 722.158 828.698 720.524 827.274C711.395 819.333 703.708 810.136 696.912 800.14C694.919 797.212 692.43 794.625 690.307 791.778C688.42 789.259 689.54 785.874 692.424 784.716C693.124 784.438 693.86 784.011 694.324 783.447C695.259 782.302 696.026 779.975 696.85 779.981C698.892 780 701.337 780.545 702.891 781.789C709.086 786.759 715.158 791.908 720.976 797.311C727.01 802.919 732.699 808.898 738.548 814.704C740.083 816.226 740.986 817.811 740.25 820.169C740.039 820.831 741.153 821.951 741.735 822.812C744.211 826.47 744.186 828.76 740.757 830.715C739.593 831.378 737.26 830.109 735.521 829.546C734.908 829.348 734.462 828.617 734.555 828.71Z" fill="white"/>
<path d="M555.057 709.113C555.509 711.279 555.93 713.297 556.376 715.433C560.275 712.808 563.147 712.691 565.975 715.166C558.48 723.256 551.003 731.327 543.52 739.392C543.124 739.033 542.728 738.667 542.338 738.308C543.347 740.023 544.362 741.737 545.365 743.445C542.864 745.903 539.943 744.925 533.444 738.302C538.953 732.874 544.424 727.384 550.013 722.024C551.839 720.273 554.154 719.301 553.009 715.748C552.402 713.854 551.703 710.592 555.045 709.113H555.057Z" fill="white"/>
<path d="M450.767 691.907C455.198 684.646 460.137 677.64 463.925 670.052C468.536 660.83 472.169 651.119 476.199 641.686C472.046 636.642 465.98 638.938 460.948 637.465C458.677 636.796 456.238 636.691 453.694 636.301C455.019 633.708 456.139 631.517 457.29 629.27C450.241 626.324 443.488 623.563 436.797 620.667C434.105 619.503 431.53 618.055 428.937 616.669C428.336 616.347 427.488 615.746 427.451 615.22C427.191 611.748 424.623 612.033 422.178 611.927C423.094 609.551 423.967 607.304 424.994 604.643C422.976 601.214 425.415 597.432 426.3 593.749C428.503 584.614 431.27 575.621 433.789 566.566C433.975 565.891 434.198 565.099 434.024 564.467C432.112 557.529 430.125 550.609 428.138 543.622C424.27 543.919 420.891 546.178 417.202 547.973C411.953 550.523 406.24 552.237 400.577 553.766C395.873 555.041 392.877 558.674 388.972 561.008C387.4 561.942 385.982 563.137 384.225 564.406C384.033 570.719 375.832 579.149 367.724 578.016C365.91 583.469 364.06 588.934 362.277 594.424C361.491 596.844 359.436 597.426 357.765 595.402C356.54 593.916 355.729 592.084 354.627 590.221C354.132 592.19 353.358 594.108 353.216 596.07C352.851 601.201 350.61 604.921 345.931 607.199C341.258 609.47 336.486 608.808 332.828 605.094C331.033 608.146 329.851 612.082 325.494 612.076C321.601 612.076 318.753 610.287 318.203 605.299C316.024 607.613 314.34 609.619 312.422 611.37C311.301 612.392 309.81 613.017 308.306 613.927C307.687 605.633 307.056 598.131 306.622 590.611C306.536 589.076 305.651 587.059 307.965 586.068C308.262 585.938 308.392 585.196 308.43 584.725C308.912 578.443 311.691 572.99 314.768 567.704C317.887 562.344 320.982 556.929 324.609 551.909C328.452 546.586 332.865 541.672 337.099 536.634C339.228 534.102 341.499 531.695 343.82 529.108C341.481 527.344 342.186 525.462 344.52 523.642C347.002 521.705 349.329 519.545 351.916 517.775C353.179 516.908 354.887 516.692 357.084 515.949C356.459 514.736 355.166 513.232 354.943 511.585C354.559 508.788 354.466 505.829 354.943 503.056C355.908 497.387 357.27 491.786 358.582 486.184C359.288 483.176 361.274 481.344 364.066 479.883C374.631 474.363 385.19 468.811 395.483 462.813C400.515 459.879 405.039 456.036 409.595 452.353C410.721 451.443 411.365 449.642 411.712 448.132C412.201 445.978 411.761 443.521 412.572 441.547C413.228 439.95 415.054 438.761 416.521 437.591C420.544 434.385 424.938 431.588 428.572 428.004C430.001 426.593 430.54 423.418 430.218 421.227C429.122 413.756 427.47 406.366 426.015 398.945C425.922 398.462 425.854 397.8 425.526 397.559C422.574 395.386 424.462 393.04 425.458 391.004C432.929 375.716 441.445 361.047 452.289 347.87C455.402 344.089 454.715 340.146 451.757 336.705C449.405 333.975 448.074 330.806 447.957 327.26C447.907 325.892 448.607 324.444 449.164 323.113C450.507 319.87 452.271 316.769 453.292 313.439C454.338 310.035 454.864 306.525 452.661 303.078C451.076 300.596 451.404 297.749 452.648 295.056C452.846 294.635 452.79 294.097 452.914 293.163C445.865 300.33 448.006 307.875 451.386 315.525C450.946 315.655 450.5 315.778 450.061 315.908C449.083 314.64 447.783 313.501 447.189 312.071C445.178 307.28 444.323 302.502 444.955 297.031C445.79 289.721 449.671 284.869 454.598 280.282C454.734 280.152 454.963 280.084 455.031 279.936C455.477 278.952 455.891 277.955 456.572 276.358C453.026 276.655 449.851 277.101 446.675 277.113C444.936 277.12 443.197 276.364 441.445 276.005C435.07 274.681 431.666 270.689 429.221 264.667C426.981 259.139 426.993 253.848 428.002 248.401C428.38 246.358 430.032 244.452 431.406 242.719C432.935 240.794 434.39 239.21 431.679 237.081C431.053 236.592 431.022 235.341 430.713 234.413C424.901 237.167 417.963 234.58 415.431 229.022C415.017 228.106 414.262 227.277 413.482 226.614C410.548 224.114 408.555 221.137 407.422 217.374C405.151 209.816 405.813 202.705 409.186 195.568C411.056 191.62 412.355 187.33 413.321 183.06C413.859 180.677 413.575 178.096 410.554 176.555C407.602 175.051 404.767 173.064 402.403 170.749C400.763 169.146 399.68 166.738 398.955 164.498C398.287 162.431 398.281 160.103 398.262 157.881C398.231 154.663 397.755 151.779 395.607 149.099C394.505 147.725 394.053 145.546 393.973 143.701C393.874 141.387 393.434 139.412 391.986 137.555C387.715 132.078 386.564 126.031 388.885 119.383C389.801 116.759 391.243 114.067 391.219 111.418C391.194 108.273 389.851 105.142 389.077 102.01C381.749 103.731 377.98 97.795 379.075 91.3766C380.492 83.0395 384.738 76.3425 391.466 71.4158C395.167 68.7048 399.407 66.8047 404.284 68.6739C404.804 68.872 405.535 68.7792 406.092 68.5935C409.558 67.4361 412.919 65.703 416.471 65.1521C420.971 64.4527 425.489 65.0284 429.438 67.9374C430.694 68.8658 432.335 69.3795 433.876 69.7818C436.172 70.3821 436.562 68.4263 437.422 66.9409C439.706 62.9921 441.996 59.0247 444.614 55.2925C446.954 51.9564 450.482 50.112 454.325 48.7627C456.857 47.8714 459.197 47.172 461.988 47.8838C462.898 48.119 464.352 46.5655 465.448 45.699C468.542 43.2604 471.526 42.0906 475.796 43.4399C478.111 44.1702 479.974 44.6344 481.181 46.8564C485.712 44.6097 489.952 41.7502 494.631 40.4442C498.053 39.4911 502.473 38.4946 505.672 41.125C508.891 43.7679 511.466 41.6202 513.935 40.6732C517.377 39.3549 520.453 37.0896 523.696 35.2451C525.72 34.0939 527.688 32.8127 529.805 31.8657C532.281 30.7578 534.893 29.9408 537.443 29C538.062 29 538.68 29 539.299 29C544.263 30.9001 548.231 33.6359 549.487 39.3549C550.038 41.8616 553.504 42.7343 556.19 42.2762C558.895 41.8182 562.151 40.5618 563.531 44.1207C567.244 43.2108 570.741 42.4062 574.214 41.4964C580.025 39.9738 585.478 41.5645 590.51 44.0526C596.087 46.8131 598.451 52.334 600.116 57.2236C603.273 57.564 606.126 57.8982 608.986 58.1643C609.784 58.2386 610.756 58.381 611.387 58.0282C617.49 54.5993 623.617 54.624 629.194 58.7152C633.074 61.5623 636.361 65.2327 639.846 68.6059C640.941 69.6704 641.733 71.0444 642.823 72.1152C643.658 72.9384 644.649 73.7616 645.732 74.1391C647.44 74.7333 649.278 74.9375 651.055 75.346C654.044 76.0392 655.517 78.5026 657.578 80.4584C661.1 83.8069 662.592 87.8733 663.663 92.2306C664.331 94.9478 664.362 97.8197 664.677 100.605C669.053 101.28 671.275 102.901 673.646 106.893C673.955 107.413 674.785 107.97 675.348 107.946C679.501 107.741 682.689 110 685.418 112.482C688.154 114.97 690.221 118.22 692.48 121.209C695.593 125.325 695.754 130.246 695.302 134.987C695.049 137.617 693.204 140.087 692.078 142.637C692.369 143.058 693.025 143.757 693.39 144.58C694.393 146.84 695.47 149.099 696.132 151.469C696.553 152.973 696.751 154.855 696.188 156.216C695.791 157.17 693.947 157.516 692.753 158.135C694.337 153.524 693.427 150.312 689.039 145.979C689.813 149.334 690.543 152.503 691.273 155.672C691.063 155.715 690.852 155.758 690.648 155.802C689.571 152.701 688.488 149.606 687.411 146.505C686.476 148.956 686.124 151.321 686.018 153.691C685.957 155.065 686.34 155.944 688.117 156.656C691.62 158.055 695.847 159.286 696.559 163.891C697.029 166.936 699.22 170.223 695.377 173.045C693.334 174.549 692.016 177.037 690.766 178.585C692.709 180.423 694.857 181.766 696.014 183.71C697.908 186.891 699.431 190.363 700.607 193.879C701.82 197.506 702.532 201.38 700.477 205.02C698.96 207.706 697.215 210.262 695.668 212.719C697.376 213.883 698.663 214.842 700.031 215.678C707.533 220.245 711.036 227.543 711.698 235.688C712.069 240.324 709.959 245.251 708.535 249.917C706.951 255.104 702.612 258.533 699.443 262.704C698.954 263.348 697.636 263.367 696.8 263.645C699.326 258.855 701.956 254.64 703.85 250.122C707.551 241.283 707.638 232.488 702.067 224.213C701.554 223.445 700.687 222.913 699.982 222.276C699.604 221.446 699.227 220.617 698.849 219.794C698.62 219.899 698.391 220.004 698.156 220.109C698.62 221.001 699.084 221.892 699.542 222.777C700.18 224.064 700.978 225.296 701.436 226.639C703.38 232.407 702.34 238.269 701.51 244.025C700.526 250.889 696.342 256.416 692.579 261.937C690.933 264.357 691.075 265.768 692.338 268.052C692.963 269.185 693.068 269.5 694.065 268.745C700.019 264.258 712.992 264.636 717.324 273.542C719.788 278.605 722.406 283.55 720.636 289.455C719.583 292.97 718.513 296.474 717.362 300.268C718.556 299.593 719.713 298.869 720.927 298.256C725.445 295.972 730.105 293.942 734.463 291.386C737.161 289.802 739.371 287.388 741.878 285.45C742.422 285.03 743.313 285.048 744.044 284.862C744.137 285.574 744.508 286.41 744.267 286.979C743.561 288.601 742.862 290.365 741.686 291.621C739.433 294.029 737.031 296.375 734.37 298.306C726.268 304.186 717.578 308.945 707.52 311C707.774 311.539 707.929 312.145 708.294 312.585C712.119 317.233 712.385 322.054 709.161 326.678C705.812 331.475 700.724 333.369 695.346 334.996C697.716 336.327 697.902 337.701 695.866 339.323C695.377 339.713 694.826 340.276 694.715 340.845C694.238 343.315 693.916 345.815 693.551 348.242C693.873 348.087 694.535 347.697 695.247 347.443C697.951 346.459 700.613 345.19 703.559 346.831C707.489 349.022 711.413 351.244 715.461 353.193C717.46 354.159 719.967 354.165 721.843 355.279C725.296 357.34 728.453 359.902 731.733 362.254C733.571 363.573 735.082 365.157 737.916 364.025C739.866 363.245 742.336 363.387 743.914 365.727C746.167 369.075 748.847 372.157 750.871 375.63C752.678 378.731 753.712 382.271 755.346 385.489C756.528 387.817 756.689 389.488 753.588 390.224C756.8 396.475 759.907 402.516 763.002 408.539C767.025 406.558 770.701 405.122 773.617 401.804C777.107 397.825 782.313 398.19 786.132 401.588C786.528 401.941 787.159 402.139 787.704 402.194C794.37 402.838 797.681 406.273 798.071 412.76C798.127 413.738 798.69 414.926 799.414 415.582C801.822 417.754 802.979 420.267 803.06 423.566C803.103 425.553 803.771 427.645 804.625 429.477C806.173 432.801 806.934 435.902 804.273 439.027C803.864 439.51 803.598 440.296 803.623 440.934C803.759 444.394 801.735 446.585 799.389 448.664C798.665 449.308 797.669 450.137 797.613 450.936C797.421 453.585 796.016 453.913 793.856 453.479C793.274 453.362 792.63 453.579 791.968 453.647C792.736 454.977 793.379 456.098 794.029 457.212C794.073 456.958 794.122 456.698 794.165 456.444C796.294 456.735 798.498 456.772 800.54 457.36C807.943 459.489 809.212 467.282 814.398 471.85C813.272 472.122 812.746 472.246 812.201 472.376C813.185 474.988 814.089 477.37 815.011 479.815C813.359 480.174 812.226 480.428 810.809 480.737C811.57 481.858 812.108 482.644 812.647 483.436C816.633 480.651 817.994 480.639 821.454 483.578C823.02 484.903 824.568 486.351 825.744 488.004C827.699 490.752 829.098 493.927 831.203 496.539C834.099 500.135 834.037 501.404 829.884 503.768C829.358 504.065 828.659 504.276 828.38 504.734C827.935 505.47 827.303 506.634 827.588 507.172C828.386 508.664 828.77 510.186 831.184 510.88C834.922 511.95 833.654 516.023 833.09 518.499C830.825 528.47 828.034 538.317 825.409 548.202C824.815 550.43 823.262 552.782 823.639 554.8C824.382 558.817 824.277 562.71 823.101 566.411C822.37 568.707 822.358 571.752 819.331 572.959C818.044 573.473 816.794 574.284 815.785 575.237C812.065 578.753 808.884 582.992 804.724 585.839C794.722 592.691 784.38 599.06 774.006 605.348C760.359 613.623 746.798 622.134 731.832 627.915C728.409 629.239 724.454 632.099 720.957 627.636C720.865 627.512 720.568 627.556 720.376 627.506C717.002 626.615 713.635 625.705 710.256 624.851C709.773 624.727 709.123 624.684 708.733 624.919C706.672 626.144 704.593 627.376 702.68 628.818C702.036 629.301 701.585 630.372 701.504 631.22C701.182 634.667 701.133 638.133 700.786 641.581C700.663 642.825 700.192 644.137 699.536 645.214C697.766 648.104 697.982 650.432 700.254 653.062C700.768 653.656 701.133 654.962 700.83 655.562C700.26 656.677 699.307 657.84 698.211 658.372C696.553 659.177 694.56 659.27 692.852 660C685.567 663.095 678.034 664.952 670.099 665.342C668.236 665.435 666.268 666.276 664.628 667.248C662.548 668.48 660.698 670.132 658.866 671.729C658.247 672.268 657.516 673.264 657.603 673.951C658.191 678.544 659.076 683.099 659.689 687.692C660.877 696.592 662.412 705.48 662.944 714.423C663.508 723.893 663.081 733.419 663.081 742.919C663.081 747.939 663.081 752.958 663.081 758.015C678.288 762.861 692.195 769.608 703.999 780.099C703.454 781.337 703.008 782.346 702.569 783.355C702.018 784.178 701.467 784.995 700.916 785.818C701.127 785.948 701.337 786.078 701.548 786.208C702.049 785.459 702.544 784.71 703.045 783.961C703.794 783.02 704.543 782.08 705.49 780.885C710.943 785.657 716.272 790.324 721.18 794.625C720.667 797.231 717.423 797.961 718.872 800.691C720.326 799.286 721.614 798.048 723.056 796.662C730.372 804.621 738.591 811.473 744.328 820.67C747.306 825.436 751.23 829.608 754.572 834.157C762.705 845.236 770.417 856.649 778.94 867.412C785.63 875.861 793.299 883.536 800.509 891.576C803.907 895.364 807.553 898.935 809.843 903.645C810.505 905 812.684 905.533 813.829 906.758C817.685 910.886 821.392 915.163 824.877 919.069C826.79 918.239 828.665 917.206 830.664 916.587C840.412 913.567 850.427 912.855 860.559 913.468C865.51 913.765 865.51 913.845 866.816 918.636C869.013 926.682 869.236 934.92 869.218 943.189C869.218 944.829 869.601 946.475 869.806 948.116V958.019C869.57 959.9 869.434 961.806 869.082 963.663C867.714 970.874 866.494 978.115 864.823 985.258C860.156 1005.22 854.506 1024.79 840.604 1040.75C837.899 1043.85 835.312 1047.07 832.669 1050.24H832.05C831.45 1049.23 830.844 1048.23 830.163 1047.09C824.555 1049.46 818.842 1049.77 813.006 1047.77C807.695 1045.95 802.502 1044.01 799.395 1038.89C798.956 1038.16 798.591 1036.52 798.727 1036.45C800.633 1035.56 799.451 1034.33 799.315 1033.14C799.179 1031.95 799.302 1030.68 799.575 1029.5C802.119 1018.63 806.81 1008.69 812.888 999.388C813.606 998.293 813.841 997.668 813.191 996.343C807.324 984.292 801.605 972.174 795.905 960.203C794.432 960.575 792.903 960.958 791.374 961.348C791.163 961.039 790.953 960.729 790.743 960.42C792.067 958.303 793.392 956.193 794.636 954.206C792.203 951.21 789.678 948.159 787.215 945.058C784.423 941.536 782.214 937.563 776.352 938.633C773.957 939.073 772.93 936.424 773.734 933.707C766.214 928.576 758.539 923.705 751.248 918.307C728.131 901.2 705.119 883.95 682.144 866.657C668.236 856.197 654.403 845.638 640.65 834.98C624.663 822.595 609.32 809.387 592.045 798.685C579.778 791.085 569.547 781.009 560.232 770.047C552.006 760.367 543.935 750.545 535.784 740.778C540.97 735.833 545.532 731.481 550.087 727.13C549.84 726.876 549.599 726.623 549.351 726.369C547.42 727.991 545.452 729.563 543.57 731.234C539.046 735.244 534.806 739.614 530.015 743.266C522.149 749.27 513.781 754.611 505.926 760.627C498.877 766.024 492.198 771.91 485.452 777.691C484.542 778.471 483.719 779.901 483.688 781.052C483.422 790.101 482.747 799.063 480.556 807.908C479.052 813.986 478.458 820.299 476.774 826.321C473.556 837.852 468.388 848.603 462.539 859.026C455.167 872.166 447.14 884.897 436.531 895.692C422.196 910.268 409.867 926.484 397.266 942.489C389.585 952.25 381.749 961.881 373.969 971.561C373.752 971.833 373.368 971.963 373.065 972.167C371.419 973.306 369.333 974.13 368.2 975.652C363.255 982.299 358.582 989.145 353.891 995.817C354.386 997.197 355.37 998.683 355.37 1000.17C355.37 1004.66 355.456 1009.22 354.652 1013.61C353.179 1021.69 351.167 1029.67 349.199 1037.66C348.852 1039.06 347.652 1040.25 346.841 1041.54C345.82 1040.66 344.798 1039.79 343.833 1038.96C342.675 1039.75 341.376 1040.72 340.002 1041.56C334.685 1044.8 328.588 1045.18 322.733 1045.13C312.651 1045.05 302.525 1044.49 292.517 1043.3C283.245 1042.19 273.911 1040.68 264.949 1038.15C250.627 1034.09 237.079 1028.06 225.269 1018.67C219.563 1014.13 213.59 1009.85 211.362 1002.35C211.009 1001.16 210.458 1000.02 210 998.862C210 997.005 210 995.149 210 993.292C211.807 990.346 213.249 987.071 215.502 984.521C220.726 978.604 227.962 977.985 235.11 978.809C242.172 979.619 249.08 981.773 256.142 982.603C259.267 982.968 262.665 981.711 265.84 980.845C274.592 978.456 283.307 975.918 292.009 973.337C293.222 972.978 294.256 972.019 295.382 971.369C297.276 970.273 299.071 968.813 301.114 968.237C302.995 967.699 305.582 966.696 306.214 970.459C306.424 971.728 308.281 972.799 309.513 973.802C315.003 978.276 318.574 984.212 322.269 990.092C322.876 991.051 324.355 991.812 325.537 991.998C332.636 993.1 339.779 993.948 346.884 995.013C348.555 995.26 349.62 995.204 350.505 993.471C353.761 987.115 357.183 980.845 360.792 974.092C349.626 972.099 340.942 965.334 333.107 957.672C329.127 962.927 325.32 968.268 321.13 973.282C320.097 974.519 317.844 975.089 316.08 975.268C313.431 975.541 312.682 974.42 313.988 972C316.748 966.906 319.527 961.776 322.851 957.047C325.865 952.758 329.777 949.112 332.964 944.928C334.085 943.455 334.097 941.183 334.827 939.358C338.671 929.69 342.267 919.917 346.519 910.428C356.41 888.357 367.383 866.744 374.625 843.571C379.564 827.751 384.113 811.807 388.904 795.937C394.388 777.772 399.661 759.538 405.578 741.521C409.143 730.677 413.599 720.111 418.006 709.571C419.492 706.018 422.209 702.992 424.103 699.581C425.452 697.155 426.368 694.487 427.414 692.074C435.058 693.596 442.529 693.559 450.024 692.457C450.327 692.414 450.587 692.018 450.866 691.789L450.76 691.894L450.767 691.907ZM725.538 498.216C725.674 498.402 725.81 498.588 725.946 498.773C725.94 498.47 725.934 498.167 725.927 497.87C725.779 497.356 725.637 496.836 725.488 496.322C725.055 496.762 724.622 497.207 724.188 497.647C724.64 497.839 725.092 498.031 725.538 498.222V498.216ZM683.871 173.46C683.815 173.906 683.759 174.357 683.704 174.803C683.883 174.766 684.056 174.723 684.236 174.685C684.112 174.258 683.988 173.837 683.871 173.423C684.273 173.336 684.669 173.243 685.071 173.157C687.987 170.13 688.16 167.883 685.505 166.503C685.214 168.521 684.923 170.514 684.638 172.501C684.384 172.822 684.131 173.144 683.877 173.466L683.871 173.46ZM531.006 110.353C530.702 110.031 530.393 109.716 530.09 109.394C528.672 105.228 530.9 101.892 532.59 98.4324C533.234 97.8877 533.877 97.337 534.521 96.7923C534.416 96.6623 534.311 96.5261 534.205 96.3961C533.537 96.8912 532.862 97.3865 532.194 97.8816L530.591 98.3705C527.422 96.6189 523.349 96.9532 521.065 99.429C519.165 101.484 517.135 103.638 518.008 107.32C519.11 105.197 519.834 103.495 520.824 101.96C523.17 98.3272 526.983 98.4015 530.684 98.2777C530.455 98.81 530.281 99.367 529.997 99.8622C528.047 103.198 527.632 106.565 529.712 110.007C530.003 110.254 530.3 110.502 530.591 110.749C530.777 110.916 530.962 111.09 531.148 111.257C531.105 110.953 531.061 110.65 531.018 110.347L531.006 110.353ZM715.461 806.001C715.096 805.71 714.731 805.42 714.372 805.129C714.174 805.352 713.97 805.574 713.772 805.797C714.193 806.008 714.613 806.218 715.034 806.435C715.368 806.806 715.703 807.184 716.031 807.555C716.148 807.456 716.272 807.351 716.39 807.252C716.08 806.837 715.771 806.422 715.461 806.008V806.001ZM459.401 118.808C459.828 118.993 460.261 119.185 460.688 119.371C464.148 121.191 467.701 121.599 471.352 120.442C471.371 120.033 471.39 119.625 471.408 119.216C467.911 119.216 464.414 119.216 460.905 119.223C460.54 118.944 460.174 118.665 459.809 118.387C459.159 118.028 458.509 117.669 457.866 117.304C457.761 117.508 457.655 117.718 457.55 117.923C458.169 118.22 458.788 118.511 459.407 118.808H459.401ZM710.621 802.183C711.017 802.455 711.413 802.733 711.816 803.006C712.051 802.746 712.28 802.486 712.515 802.226C712.07 802.053 711.624 801.873 711.178 801.7C710.46 801.118 709.742 800.542 709.024 799.961C708.845 800.19 708.665 800.419 708.486 800.654C709.198 801.161 709.916 801.675 710.627 802.183H710.621ZM720.691 492.027C724.201 490.201 727.716 488.375 731.226 486.556C730.997 486.153 730.774 485.751 730.545 485.342C727.079 487.435 723.619 489.526 720.153 491.618C719.949 491.897 719.744 492.182 719.546 492.46C719.93 492.318 720.308 492.169 720.691 492.027ZM684.403 323.125C681.921 326.146 679.439 329.166 676.901 332.255C677.397 332.663 677.997 333.158 679.284 334.223C681.234 330.491 683.017 327.08 684.793 323.676C684.935 323.311 685.084 322.952 685.226 322.587C684.948 322.766 684.669 322.946 684.397 323.125H684.403ZM681.055 293.323C683.048 292.383 684.712 290.872 684.483 288.663C684.285 286.757 683.109 284.955 682.534 283.526C678.356 285.469 679.612 288.749 680.98 292.067C681.067 292.271 680.795 292.624 680.689 292.909C679.712 293.831 678.542 294.673 679.427 296.95C680.132 295.378 680.59 294.351 681.048 293.323H681.055ZM663.947 144.648C664.801 146.672 665.655 148.696 666.51 150.72C666.751 150.627 666.986 150.535 667.228 150.436C666.281 148.313 665.334 146.196 664.387 144.073C663.761 140.508 658.389 136.243 654.316 136.076C652.163 135.99 647.849 139.505 647.49 141.64C651.438 136.949 653.766 137.537 659.138 140.198C661.013 141.127 662.363 143.138 663.947 144.648ZM417.01 195.63C412.38 202.773 413.729 209.915 416.979 216.841C417.301 216.699 417.938 216.29 418.037 216.396C420.21 218.692 422.982 217.677 425.533 217.751C425.916 217.764 426.319 217.169 426.715 216.854C426.387 216.489 426.114 216 425.706 215.783C425.198 215.511 424.579 215.43 423.998 215.313C416.7 213.809 416.156 211.401 415.407 205.855C414.918 202.241 416.317 199.332 417.455 196.224C418.019 195.135 418.588 194.046 419.151 192.956C418.873 192.833 418.6 192.715 418.322 192.591C417.882 193.606 417.443 194.615 417.004 195.63H417.01ZM562.961 386.851C563.153 385.873 563.351 384.889 563.686 383.193C562.33 384.771 561.513 385.718 560.826 386.517C560.182 384.239 559.563 382.042 558.827 379.405C556.345 380.829 554.148 381.516 552.897 383.001C551.944 384.128 551.777 386.356 552.118 387.903C552.241 388.473 554.829 388.671 556.302 388.714C557.348 388.745 558.412 388.237 559.997 387.835C559.266 389.098 558.87 389.779 558.474 390.466C558.35 390.856 558.227 391.245 558.103 391.635C558.425 391.45 558.746 391.264 559.068 391.078C561.185 390.657 563.562 390.496 562.782 387.259C562.974 387.179 563.036 387.043 562.967 386.851H562.961ZM720.964 397.608C721.589 397.973 722.208 398.345 722.833 398.71C722.944 398.524 723.062 398.338 723.173 398.147C722.56 397.831 721.948 397.515 721.335 397.2C711.42 388.231 700.13 381.312 688.507 375.326C687.461 375.982 686.043 376.843 685.418 376.447C680.219 373.154 675.076 369.768 670.112 366.129C667.395 364.136 664.9 361.772 662.616 359.283C660.209 356.665 656.563 354.542 657.82 349.925C657.95 349.449 657.256 348.681 656.842 348.13C655.647 346.558 654.323 345.079 653.19 343.463C650.219 339.242 647.391 334.922 644.389 330.726C639.846 324.375 635.086 318.174 630.63 311.761C627.257 306.909 624.255 301.803 621.018 296.851C617.682 291.739 614.401 286.633 614.123 280.233C614.092 279.577 613.473 278.791 612.91 278.345C605.854 272.818 597.937 271.277 589.303 273.536C587.935 273.895 586.722 275.145 585.379 275.25C580.576 275.64 576.894 278.388 573.558 281.236C570.58 283.773 567.554 286.787 567.449 291.306C567.411 292.853 567.455 294.407 567.3 295.935C566.873 300.064 566.273 304.18 565.907 308.314C565.48 313.092 565.121 317.877 564.93 322.667C564.812 325.545 565.134 328.442 565.14 331.326C565.159 338.029 564.781 344.751 565.202 351.429C565.487 355.966 567.022 360.416 567.678 364.947C568.297 369.187 568.73 369.607 572.604 368.475C575.216 371.829 578.367 373.711 582.458 374.404C582.414 373.463 582.241 372.721 582.365 372.027C583.869 363.523 585.367 355.013 586.97 346.527C588.344 339.224 589.805 331.933 591.346 324.66C591.538 323.75 592.441 322.995 593.017 322.166C593.308 322.345 593.599 322.519 593.89 322.698C591.804 340.864 589.712 359.03 587.651 376.985C595.951 382.357 602.753 388.98 607.642 396.451C609.444 396.451 611.721 396.853 611.919 396.383C612.724 394.482 614.11 394.662 615.491 394.841C617.589 395.114 619.637 395.764 621.736 395.993C628.624 396.754 635.519 397.398 642.588 398.103C643.083 393.282 646.227 390.366 650.881 388.807C655.146 387.377 659.268 385.186 664.944 385.941C660.252 391.871 652.843 392.199 648.474 396.896C649.421 399.613 651.531 400.616 654.199 400.988C656.384 401.291 658.55 401.755 660.685 402.3C661.348 402.473 661.88 403.154 662.468 403.606C661.973 404.132 661.558 404.967 660.964 405.122C658.723 405.722 656.396 406.614 654.156 406.471C644.735 405.877 635.334 404.949 625.926 404.138C623.128 403.896 620.337 403.618 617.613 403.364C617.273 407.195 617.075 410.661 616.648 414.097C615.466 423.523 614.494 432.987 612.804 442.326C612.08 446.331 612.34 451.022 608.088 453.876C603.149 457.193 598.426 460.826 593.995 464.039C594.379 464.113 595.369 464.292 596.347 464.509C606.052 466.663 615.132 470.494 624.026 474.839C624.867 475.247 625.938 475.18 626.433 475.26C627.974 476.424 629.237 477.63 630.71 478.447C637.327 482.112 643.312 487.038 650.987 488.629C659.163 490.319 667.271 492.374 675.503 493.717C679.959 494.441 684.83 494.924 689.107 493.871C694.523 492.541 699.53 489.533 704.716 487.249L703.763 486.308C704.314 485.466 704.71 484.439 705.453 483.82C707.31 482.266 709.841 481.177 707.737 477.989C707.409 477.494 708.003 476.238 708.381 475.44C712.187 467.505 716.377 459.731 719.788 451.635C724.225 441.101 728.187 430.356 732.098 419.611C734.19 413.868 733.237 412.215 727.562 409.523C726.825 409.176 726.113 408.774 725.364 408.446C719.212 405.759 718.203 403.915 719.051 396.878C719.144 396.841 719.268 396.748 719.33 396.779C719.881 397.045 720.419 397.33 720.964 397.608ZM535.839 291.046C532.856 293.763 529.916 296.53 526.883 299.191C521.381 304.019 515.774 308.704 508.928 311.601C507.665 312.133 506.496 312.894 505.221 313.377C500.925 314.98 496.692 316.88 492.26 317.951C488.348 318.898 484.195 318.768 480.185 319.374C478.978 319.554 477.468 320.321 476.842 321.299C473.593 326.356 470.653 331.617 467.466 336.717C463.052 343.791 458.819 351.002 453.948 357.755C448.798 364.897 443.147 371.625 439.1 379.566C436.494 384.678 435.442 389.964 434.928 395.547C434.012 405.53 437.577 414.895 438.685 424.594C439.341 430.35 440.313 436.081 440.839 441.85C441.47 448.8 440.498 455.776 441.099 462.788C441.557 468.136 440.523 473.607 440.269 479.029C439.972 485.448 439.904 491.885 439.539 498.297C439.05 506.931 438.029 515.547 437.893 524.181C437.781 531.497 438.363 538.856 439.087 546.153C439.787 553.153 441.099 560.085 442.064 567.054C442.318 568.893 442.522 570.929 439.966 570.824C439.62 572.891 439.1 574.674 439.069 576.462C438.957 583.141 436.333 589.144 434.39 595.359C433.845 597.11 433.325 599.957 434.229 600.855C436.123 602.736 437.509 604.339 436.871 606.264C444.398 605.726 451.955 604.872 459.531 604.735C465.386 604.63 471.253 605.478 477.121 605.812C479.59 605.955 482.079 605.713 484.542 605.905C494.055 606.66 503.543 607.849 513.069 608.257C524.08 608.734 535.115 608.548 546.139 608.678C547.989 608.703 549.883 608.635 551.672 609.012C561.99 611.197 572.307 613.388 582.576 615.796C598.878 619.621 614.667 624.969 630.172 631.35C647.155 638.344 663.427 647.541 682.441 648.73C688.395 649.101 690.858 647.77 690.914 641.748C690.97 635.856 693.285 630.582 695.315 625.235C695.538 624.64 696.417 624.294 696.992 623.836C697.376 624.38 697.754 624.919 698.131 625.457C699.487 624.343 700.792 623.266 702.389 621.948C693.056 618.346 684.62 613.5 674.871 612.045C671.572 611.556 671.312 610.461 672.724 607.657C670.396 605.794 667.902 604.178 665.884 602.099C660.054 596.089 654.279 590.017 648.758 583.729C644.314 578.672 640.124 573.368 636.101 567.971C632.313 562.889 629.107 557.368 625.239 552.355C620.244 545.874 617.966 538.212 616.017 530.624C614.451 524.54 614.736 517.973 614.16 511.629C614.098 510.966 613.98 510.156 613.566 509.704C608.422 504.059 603.44 498.247 597.962 492.937C594.36 489.44 593.661 488.029 595.759 483.294C596.879 480.756 597.845 478.15 598.792 475.792C593.654 473.898 588.697 472.079 584.018 470.352C584.568 467.696 585.039 465.425 585.435 463.519C578.268 463.519 571.837 463.519 565.406 463.519C563.617 463.519 562.169 463.24 562.12 460.919C562.107 460.337 561.34 459.328 560.826 459.26C554.513 458.443 552.062 454.358 550.954 448.596C550.199 444.647 548.738 440.878 544.288 439.306C543.174 438.91 542.146 437.87 541.428 436.88C539.733 434.546 538.383 431.953 536.632 429.663C533.958 426.178 530.999 422.91 528.282 419.457C526.809 417.581 526.357 415.347 527.601 413.187C531.414 406.546 535.462 400.109 543.242 397.348C545.012 396.723 546.72 395.924 548.614 395.145C547.804 394.117 547.055 393.164 546.293 392.223C544.381 389.84 542.054 387.68 540.642 385.031C538.631 381.25 536.786 377.233 535.759 373.098C533.58 364.346 531.792 355.489 530.189 346.608C529.149 340.852 528.975 334.935 527.948 329.172C526.487 320.978 528.344 313.111 530.232 305.374C531.402 300.584 534.286 296.208 536.403 291.646C536.737 291.262 537.071 290.879 537.405 290.495C537.306 290.383 537.201 290.272 537.102 290.161C536.681 290.458 536.26 290.749 535.846 291.046H535.839ZM605.526 477.562C606.59 478.318 606.869 478.46 607.067 478.67C617.087 489.44 623.481 502.289 628.272 516.011C628.581 516.896 627.578 518.239 627.182 519.365C627.027 521.847 627.331 524.478 627.807 527.071C628.346 530.005 628.278 533.409 629.8 535.749C637.543 547.663 645.503 559.46 653.809 570.997C661.843 582.15 670.384 592.939 678.74 603.857C679.055 604.265 679.742 604.513 680.293 604.605C687.535 605.874 694.857 606.796 702.018 608.43C709.575 610.157 717.386 611.426 724.052 615.808C726.324 617.3 728.081 616.873 730.161 615.616C738.282 610.696 746.421 605.806 754.628 601.022C768.888 592.709 783.161 584.422 797.508 576.264C800.955 574.302 804.625 572.606 808.37 571.331C810.115 570.737 811.044 570.279 811.694 568.435C813.179 564.195 813.854 559.924 814.343 555.449C815.085 548.684 816.93 542.025 818.446 535.359C820.043 528.34 821.813 521.365 823.571 514.104C821.832 511.895 819.771 509.475 817.914 506.912C811.161 497.585 804.495 488.196 797.761 478.856C793.992 473.626 789.987 468.551 786.391 463.197C782.313 457.131 778.673 450.775 774.663 444.653C771.048 439.139 767.143 433.828 763.472 428.351C761.046 424.724 758.558 421.097 756.552 417.235C753.798 411.93 751.477 406.409 748.952 400.988C748.779 400.622 748.488 400.313 748.055 399.694C744.923 402.349 741.834 404.967 739.012 407.362C740.299 409.25 742.41 411.027 742.701 413.057C743.27 417.092 744.198 420.961 741.995 425.405C737.625 434.212 734.624 443.694 730.929 452.848C728.156 459.712 725.191 466.502 722.201 473.577C736.295 465.827 750.227 458.171 764.357 450.403C767.05 454.173 770.021 457.992 772.626 462.052C776.687 468.365 780.53 474.82 784.392 481.257C785.407 482.947 785.537 484.389 782.808 484.501C782.047 484.532 781.242 485.231 780.573 485.77C778.079 487.793 775.857 490.257 773.128 491.866C758.23 500.68 743.419 509.685 728.168 517.861C714.774 525.041 700.842 531.206 687.157 537.847C686.495 538.169 685.956 538.763 685.195 539.363C684.298 538.596 682.862 537.785 682.014 536.566C676.722 528.977 671.294 521.451 666.479 513.566C664.504 510.329 660.704 506.677 664.832 502.252C663.087 501.509 661.329 500.797 659.596 500.024C653.264 497.214 646.388 495.19 640.725 491.377C630.834 484.717 620.021 480.744 608.744 477.606C608.001 477.402 607.147 477.581 605.513 477.581L605.526 477.562ZM474.75 139.858C473.531 140.297 472.615 140.799 471.65 140.947C468.283 141.461 464.866 141.69 461.524 142.327C454.647 143.633 447.814 143.188 440.938 142.389C439.954 142.278 438.016 143.163 437.911 143.813C436.871 150.337 436.11 156.91 435.312 163.47C435.244 164.027 435.423 164.665 435.64 165.203C436.686 167.741 437.955 170.204 438.796 172.81C439.254 174.221 438.617 176.016 439.155 177.372C441.167 182.496 440.331 187.776 440.183 192.975C440.102 195.81 438.629 198.62 438.648 201.436C438.673 204.537 437.658 207.013 435.986 209.346C433.387 212.973 434.055 215.845 437.868 217.931C439.409 218.772 441.192 219.936 441.872 221.409C443.253 224.386 443.965 227.679 444.918 230.749C448.13 230.501 451.095 229.796 453.818 233.082C451.652 234.555 449.69 235.886 447.833 237.149C448.47 237.941 449.034 238.684 449.646 239.383C453.044 243.239 455.142 248.141 460.49 250.363C465.776 252.56 470.616 253.148 476.422 252.183C481.503 251.335 485 248.246 489.215 246.315C493.3 244.44 497.261 241.859 500.226 238.089C501.866 236.004 504.119 234.407 506.434 232.284C506.601 240.726 502.609 245.937 496.147 249.379C498.202 252.207 500.498 254.764 502.101 257.704C506.093 265.019 506.372 273.041 503.989 280.678C501.996 287.072 498.678 293.125 495.373 299.005C492.83 303.53 489.395 307.559 485.848 312.51C490.354 310.722 494.197 309.193 498.041 307.677C499.316 307.175 500.758 306.915 501.848 306.148C505.314 303.709 508.755 301.221 511.998 298.504C517.265 294.085 522.297 289.387 527.564 284.962C532.794 280.561 538.21 276.389 543.496 272.05C547.593 268.69 551.418 264.97 555.72 261.9C558.66 259.796 562.212 258.564 565.462 256.88C566.365 256.41 567.164 255.735 568.204 255.017C567.43 254.38 567.09 253.965 566.65 253.761C562.38 251.805 557.991 250.227 555.175 245.913C553.51 243.363 552.186 240.807 553.108 238.015C554.055 235.137 555.07 231.782 559.693 231.751C558.61 230.309 558.035 228.713 557.1 228.471C555.367 228.019 553.349 228.056 551.604 228.496C550.762 228.712 550.316 230.346 549.605 231.275C549.109 231.925 548.46 232.457 547.878 233.039C544.443 236.468 540.327 238.931 535.555 239.42C531.259 239.86 526.698 239.488 523.17 236.561C516.894 231.361 515.427 220.493 519.71 213.518C520.694 211.915 522.557 209.971 522.223 208.622C521.505 205.688 523.442 205.174 524.946 203.918C527.273 201.974 529.545 199.951 531.693 197.821C534.422 195.117 537.009 192.263 539.516 189.627C539.429 187.714 539.46 185.808 539.219 183.932C538.971 182.045 538.563 180.157 538.031 178.325C537.065 175.001 531.668 173.602 528.74 175.286C525.677 177.056 522.217 178.164 518.856 179.371C517.847 179.736 516.529 179.216 515.489 179.544C509.9 181.302 505.326 178.579 501.216 175.719C497.521 173.151 494.55 169.511 491.4 166.212C490.236 164.993 489.493 163.371 488.534 161.948C488.113 161.329 487.63 160.747 487.191 160.14C483.966 155.721 480.581 151.401 477.591 146.827C476.223 144.735 475.648 142.129 474.75 139.858ZM385.493 559.516C386.917 557.517 388.217 555.412 389.789 553.543C395.576 546.685 402.168 541.499 411.947 542.056C417.796 542.384 423.403 541.214 427.167 536.838C426.987 531.348 426.647 526.192 426.684 521.037C426.733 513.572 427.018 506.102 427.29 498.637C427.408 495.369 427.655 492.095 428.021 488.846C428.739 482.409 429.556 475.978 430.366 469.553C431.289 462.225 431.722 454.785 433.368 447.618C434.687 441.862 433.399 436.737 432.372 431.322C429.5 433.785 426.931 436.162 424.183 438.297C420.309 441.311 416.843 444.493 416.688 449.902C416.675 450.348 416.149 450.837 415.772 451.214C412.751 454.247 409.737 457.286 406.667 460.263C400.633 466.124 395.068 472.642 388.353 477.587C382.3 482.05 375.04 484.922 368.157 488.171C366.294 489.05 365.056 490.065 364.815 491.909C363.88 498.916 363.212 505.953 362.234 512.947C361.621 517.36 361.448 521.965 357.716 525.357C356.014 526.898 354.695 528.86 353.173 530.667C366.43 536.813 375.25 547.676 385.493 559.51V559.516ZM580.267 383.868C579.815 385.786 579.407 387.501 578.998 389.215C575.872 388.448 575.198 390.639 574.245 392.861C573.805 393.888 572.648 394.903 571.583 395.33C563.333 398.629 555.138 402.145 546.689 404.837C542.227 406.261 540.16 409.195 538.718 412.989C538.34 413.973 538.718 415.687 539.398 416.554C542.27 420.212 545.47 423.603 548.379 427.23C550.044 429.304 551.239 431.755 552.897 433.828C554.21 435.468 556.438 436.527 557.341 438.309C559.452 442.456 560.826 446.975 562.893 451.146C563.556 452.477 565.555 454.179 566.768 454.049C577.816 452.873 588.821 451.35 599.831 449.859C600.723 449.735 602.128 449.258 602.307 448.652C603.712 443.967 605.488 439.275 605.977 434.466C606.807 426.296 606.863 418.039 607.03 409.814C607.061 408.211 607.723 405.048 603.935 406.508C603.638 406.626 602.988 406.168 602.654 405.828C598.618 401.681 594.694 397.422 590.572 393.362C587.106 389.946 583.417 386.758 580.267 383.874V383.868ZM347.658 533.762C343.344 541.183 339.376 548.214 335.205 555.115C332.265 559.98 328.916 564.597 325.983 569.468C322.244 575.682 318.735 582.039 315.145 588.34C314.91 588.754 314.625 589.256 314.65 589.701C314.935 594.882 315.281 600.056 315.653 605.93C317.905 603.411 320.028 600.867 322.343 598.503C325.067 595.717 327.635 592.586 330.872 590.568C333.336 589.033 334.066 587.164 334.369 584.83C334.629 582.8 334.233 580.69 334.474 578.66C334.821 575.757 335.477 572.891 336.003 570.007C336.35 570.044 336.696 570.075 337.043 570.112C340.398 579.724 338.708 589.646 338.392 599.679C339.822 599.679 341.252 599.741 342.675 599.666C344.705 599.555 350.517 595.755 350.208 594.387C349.471 591.137 350.944 588.68 351.91 585.833C354.373 578.53 358.947 573.349 365.718 569.92C369.11 568.206 372.465 566.417 375.894 564.783C376.494 564.498 377.392 564.826 378.778 564.907C378.778 564.907 379.372 564.344 379.873 563.706C380.431 563 380.901 562.221 381.644 561.119C371.109 550.968 359.882 541.641 347.676 533.762H347.658ZM855.805 917.812C855.966 919.725 855.774 921.433 856.282 922.9C858.504 929.269 858.572 935.892 858.572 942.465C858.572 947.856 857.885 953.247 857.371 958.631C856.988 962.667 856.728 966.764 855.818 970.694C853.874 979.081 851.671 987.412 849.337 995.699C845.574 1009.05 840.363 1021.65 829.729 1031.24C824.951 1035.55 819.69 1038.72 812.994 1038.48C810.784 1038.41 808.58 1038.01 806.371 1037.76C810.041 1040.76 813.495 1043.64 818.446 1043.59C824.759 1043.51 830.373 1044.67 835.937 1038.52C843.581 1030.08 849.053 1020.74 852.933 1010.46C857.365 998.72 861.029 986.644 862.973 974.173C863.957 967.884 864.922 961.565 865.362 955.221C865.665 950.87 864.935 946.463 864.867 942.075C864.755 935.031 864.328 928.081 862.626 921.173C861.964 918.493 860.478 918.097 858.442 917.837C857.557 917.719 856.641 917.819 855.793 917.819L855.805 917.812ZM220.181 988.514C215.799 995.73 214.939 1001.38 221.469 1007.01C229.305 1013.77 237.685 1019.78 246.957 1024.27C258.717 1029.97 271.256 1033.64 284.223 1035.35C296.032 1036.91 307.897 1038.38 319.781 1038.92C327.443 1039.27 335.186 1037.91 342.88 1037.19C343.517 1037.13 344.068 1036.12 345.145 1035.09C342.929 1035.25 341.735 1035.48 340.571 1035.39C331.157 1034.61 321.7 1034.13 312.354 1032.84C302.717 1031.52 293.092 1029.79 283.629 1027.53C269.95 1024.27 257.076 1018.96 244.933 1011.66C235.073 1005.73 225.381 999.939 220.194 988.514H220.181ZM814.052 952.095C816.757 944.971 819.102 937.637 822.377 930.742C823.627 928.112 822.667 927.282 821.275 926.02C816.218 921.427 811.112 916.89 806.018 912.335C806.006 912.124 805.213 913.096 804.78 914.216C801.487 922.795 797.743 931.045 789.325 935.935C793.546 941.307 797.613 946.482 801.803 951.811C805.857 950.208 810.177 949.904 814.039 952.102L814.052 952.095ZM721.125 382.97C724.733 387.544 728.236 391.864 731.572 396.315C732.495 397.54 732.971 399.118 733.528 400.579C733.763 401.198 733.658 401.941 733.708 402.628C734.426 402.479 735.255 402.516 735.849 402.157C738.74 400.424 741.463 398.4 744.446 396.865C746.291 395.918 746.284 395.12 745.313 393.616C743.827 391.307 742.41 388.955 741.091 386.548C736.982 379.065 730.743 373.358 724.937 367.317C723.328 365.646 720.747 363.226 719.101 363.56C713.023 364.792 707.149 367.039 700.861 369.007C705.49 371.965 710.002 374.46 714.019 377.585C715.752 378.941 717.498 378.774 718.315 377.951C720.326 375.927 722.443 376.694 724.578 376.917C725.141 376.973 725.965 377.579 726.076 378.068C726.194 378.601 725.773 379.467 725.309 379.863C724.04 380.952 722.622 381.875 721.118 382.97H721.125ZM782.628 403.643C782.43 403.395 782.232 403.141 782.034 402.894C780.035 403.674 777.72 404.051 776.111 405.326C772.818 407.926 769.891 410.99 766.876 413.929C766.548 414.251 766.363 415.229 766.598 415.545C768.739 418.473 771.221 421.183 773.121 424.253C774.186 425.98 775.795 427.181 776.55 429.347C778.234 434.169 779.546 434.664 783.866 433.086C786.305 432.194 787.388 433.321 788.57 434.986C789.907 436.867 789.381 438.458 787.883 439.869C787.004 440.698 785.983 441.379 785.005 442.141C785.797 443.558 786.559 444.913 787.314 446.275C787.376 445.997 787.437 445.712 787.493 445.433C790.13 445.347 792.81 445.514 795.391 445.074C796.746 444.845 797.978 443.632 799.135 442.71C799.42 442.487 799.439 441.441 799.166 441.095C796.907 438.216 797.006 437.437 800.051 435.84C802.923 434.336 803.041 432.807 800.299 430.635C798.399 433.568 796.158 432.844 793.782 430.826V424.637C792.222 424.365 789.975 424.588 788.607 423.604C786.373 421.994 786.33 418.968 786.98 416.622C788.063 412.723 791.745 413.286 795.069 413.416C794.92 411.949 795.217 410.389 794.605 409.844C793.311 408.687 791.621 407.61 789.95 407.313C787.784 406.923 788.415 409.015 788.007 410.296C787.475 411.974 786.571 413.614 785.482 415.006C784.875 415.78 783.322 416.61 782.635 416.331C781.57 415.898 780.53 414.672 780.103 413.546C778.698 409.838 779.627 406.484 782.616 403.655L782.628 403.643ZM550.651 300.175L551.35 300.757C549.654 302.595 548.231 304.941 546.145 306.055C545.031 306.649 542.778 305.114 540.395 304.334C539.658 309.465 538.878 314.869 538.235 319.362C541.893 321.101 544.616 322.401 546.764 323.422C549.691 322.37 552.551 321.343 555.547 320.266C556.085 321.491 556.506 322.463 556.933 323.435C557.236 323.422 557.546 323.41 557.849 323.404C557.849 318.118 557.911 312.826 557.812 307.54C557.781 305.993 557.236 304.458 557.057 302.898C556.921 301.735 556.747 300.491 557.026 299.383C558.047 295.273 557.769 290.724 561.544 287.332C558.802 287.951 556.264 289.362 554.556 288.687C552.718 287.957 551.66 285.265 550.044 283.154C548.893 285.203 547.705 287.313 546.72 289.059C548.113 290.897 549.264 292.401 550.36 293.948C550.409 294.016 549.889 294.728 549.592 294.759C547.185 294.994 544.777 295.143 542.078 295.335C542.982 297.761 543.855 300.101 544.981 303.127C546.844 302.162 548.744 301.171 550.651 300.181V300.175ZM549.747 325.341C550.601 327.414 551.276 329.042 551.95 330.676C551.734 330.8 551.523 330.924 551.307 331.048C550.465 330.107 549.617 329.172 548.33 327.736C549.877 333.362 545.452 334.662 542.208 336.909C545.408 337.348 548.15 337.72 551.053 338.116C550.861 337.156 550.663 336.148 550.273 334.216C551.926 335.392 553.603 335.956 553.776 336.822C554.587 340.802 554.977 344.875 555.441 348.31C550.471 349.839 546.151 351.169 541.62 352.562C542.338 361.097 545.427 369.087 548.967 375.995C552.328 375.815 555.392 374.899 557.874 375.722C560.399 376.558 562.361 379.108 564.441 380.804C563.197 376.707 561.86 372.294 560.56 367.998C557.478 368.202 554.593 372.021 551.133 369.657C548.342 367.757 546.863 359.785 548.082 356.746C549.815 352.401 553.578 353.063 557.348 353.509C557.013 349.053 556.592 344.986 556.444 340.907C556.289 336.698 556.413 332.477 556.413 328.138C554.903 329.172 553.269 330.144 552.161 327.934C553.151 326.108 554.061 324.437 554.971 322.76C554.711 322.605 554.451 322.451 554.191 322.296C552.712 323.311 551.226 324.32 549.753 325.329L549.747 325.341ZM691.378 273.394C697.184 274.316 701.405 277.058 704.073 282.028C706.759 287.022 705.639 292.222 704.618 297.662C711.061 291.788 709.191 279.57 701.127 273.523C704.574 274.217 706.895 276.346 708.387 279.527C709.81 282.56 711.24 285.587 712.559 288.403C716.303 282.48 715.047 273.802 709.823 269.265C705.441 265.465 697.543 267.229 691.378 273.394ZM525.38 211.976C525.38 215.424 525.039 218.896 525.472 222.269C525.967 226.132 529.266 228.162 532.225 230.043C536.712 232.896 541.719 232.241 548.181 228.174C538.049 226.014 534.812 218.42 533.079 210.002C530.554 210.652 528.251 211.24 525.38 211.983V211.976ZM681.779 336.525C689.615 335.77 690.982 334.52 696.701 330.936C704.37 326.133 705.286 318.205 699.165 312.461C698.54 311.879 697.104 311.31 696.609 311.625C695.723 312.195 695.061 313.358 694.684 314.411C694.318 315.426 694.523 316.639 694.3 317.728C693.093 323.577 689.392 327.99 685.598 332.279C684.323 333.728 682.528 334.718 680.974 335.919C682.243 337.491 683.499 339.069 684.787 340.623C684.855 340.703 685.102 340.635 685.232 340.635C685.369 339.546 685.499 338.481 685.616 337.54C684.372 337.212 683.072 336.866 681.779 336.519V336.525ZM560.188 268.324C561.395 268.956 562.349 269.451 562.881 269.723C561.036 270.225 559.062 270.763 557.088 271.295C556.394 270.825 555.466 270.2 554.544 269.575C554.271 269.866 553.999 270.156 553.727 270.447C554.866 271.877 555.831 274.242 557.193 274.501C558.87 274.817 560.888 273.381 562.763 272.7C561.594 277.095 557.459 277.293 554.142 278.654C556.531 281.087 561.662 279.088 562.237 285.085C568.111 272.88 577.643 267.13 589.297 264.487C589.427 262.841 589.538 261.386 589.613 260.402C587.44 260.08 585.392 259.777 582.829 259.406C582.47 259.907 581.666 261.027 580.706 262.364C582.47 262.686 583.993 262.964 585.522 263.243C585.491 263.571 585.46 263.899 585.429 264.221C583.12 263.973 580.811 263.726 578.305 263.46C572.809 271.209 569.324 271.871 562.565 265.892C561.823 266.647 561.067 267.421 560.195 268.312L560.188 268.324ZM688.785 354.32C683.957 349.938 678.826 345.289 673.646 340.592C673.863 344.516 670.588 345.735 668.205 347.499C670.694 353.676 674.587 358.38 681.29 359.71C683.858 357.866 686.532 355.941 688.785 354.32ZM388.966 97.0832C390.265 91.6551 391.008 86.227 392.921 81.2507C394.666 76.7139 397.761 72.7403 402.465 70.3326C401.555 70.215 400.664 70.2089 399.791 70.345C390.773 71.7438 383.414 80.5637 383.309 90.0768C383.253 94.6507 384.305 95.9505 388.966 97.077V97.0832ZM710.9 356.826C709.872 356.288 709 355.811 708.102 355.366C706.858 354.747 705.428 353.428 704.388 353.682C701.529 354.375 697.58 354.982 696.367 357.006C694.492 360.125 691.775 360.323 689.218 361.493C688.736 361.716 688.308 362.069 687.857 362.36C687.956 362.638 688.055 362.917 688.148 363.195C695.989 362.186 703.132 358.343 710.9 356.832V356.826ZM535.437 330.453C536.093 331.153 537.022 332.954 538.402 333.437C540.612 334.204 544.09 331.227 544.245 329.005C544.406 326.647 542.468 323.738 540.692 323.639C537.727 323.472 536.13 324.685 535.431 330.453H535.437ZM440.455 245.548C438.462 254.336 438.598 259.925 446.929 264.728C444.175 258.805 441.928 253.235 444.026 247.491C442.578 246.705 441.501 246.117 440.455 245.548ZM685.765 136.219C689.8 129.268 683.716 114.884 675.404 111.746C677.1 114.463 679.266 116.846 680.968 119.526C682.695 122.249 683.964 125.27 685.529 128.364C684.83 127.374 684.335 126.668 683.84 125.963C683.518 126.216 683.19 126.47 682.868 126.724C683.834 129.887 684.799 133.05 685.771 136.219H685.765ZM551.66 362.91C551.647 366.049 552.068 366.364 556.339 366.352C558.455 366.352 561.03 363.647 560.907 361.252C560.752 358.262 558.103 358.516 556.252 358.386C552.978 358.163 551.678 359.655 551.66 362.917V362.91ZM438.115 105.303C437.645 106.949 437.057 107.877 437.224 108.645C438.128 112.897 439.267 117.1 440.226 121.339C442.454 131.162 453.323 133.774 461.864 130.531C459.679 130.531 457.829 130.654 456.003 130.506C449.597 130.004 444.763 127.826 441.848 121.178C439.669 116.202 439.186 111.183 438.115 105.303ZM828.096 500.983C825.997 494.298 820.947 490.325 815.779 486.456C815.568 486.624 815.352 486.791 815.141 486.952C818.675 492.572 822.209 498.185 825.935 504.109C826.771 502.895 827.433 501.936 828.089 500.977L828.096 500.983ZM551.48 339.409C546.755 341.237 543.937 344.297 543.025 348.588C546.176 348.025 549.171 347.493 552.359 346.923C552.062 344.386 551.783 341.984 551.48 339.409ZM820.21 975.596C816.094 975.757 812.826 973.052 809.503 975.881C808.84 976.444 807.955 977.36 808.036 978.004C808.116 978.642 809.255 979.582 809.979 979.638C813.563 979.898 816.979 979.372 820.204 975.603L820.21 975.596ZM823.484 984.385C820.018 983.624 817.017 983.618 814.801 986.521C814.157 987.362 813.916 988.507 813.482 989.516C814.473 989.85 815.593 990.667 816.428 990.445C819.486 989.615 822.036 987.932 823.484 984.391V984.385ZM455.272 57.3412C448.86 58.6162 441.916 67.2442 443.748 71.7438C447.548 66.9904 451.534 62.0141 455.272 57.3412ZM276.505 984.491C274.623 983.358 273.2 981.965 271.615 981.761C270.674 981.637 268.78 983.234 268.558 984.317C268.087 986.632 271.002 989.058 273.645 988.996C276.752 988.922 274.568 986.162 276.505 984.497V984.491ZM695.135 190.895C693.91 186.767 690.871 185.195 687.083 184.762C686.328 184.675 685.505 185.245 684.713 185.511C685.127 185.95 685.517 186.408 685.95 186.829C686.947 187.782 688.073 188.624 688.946 189.682C690.679 191.774 692.567 192.672 695.135 190.902V190.895ZM668.354 218.506C683.054 220.852 686.458 229.678 683.796 242.434C684.768 236.579 687.027 231.089 683.407 225.246C679.897 219.571 675.032 218.259 668.354 218.506ZM595.864 255.444C595.09 256.268 594.007 257.177 593.246 258.31C592.615 259.245 591.841 260.612 592.113 261.479C592.392 262.376 593.791 263.361 594.812 263.503C596.984 263.812 599.231 263.596 601.453 263.596L601.435 263.206C600.549 262.847 599.658 262.482 599.559 262.445C598.067 259.628 596.929 257.468 595.858 255.444H595.864ZM285.758 986.966C287.027 982.095 283.827 980.535 280.639 978.499C280.051 979 278.331 979.805 278.306 980.647C278.275 981.767 279.346 983.222 280.348 984.002C281.877 985.184 283.765 985.908 285.752 986.966H285.758ZM657.393 300.596C658.216 293.243 654.515 288 651.866 282.504C650.69 280.066 648.641 279.973 647.087 281.576C653.988 285.717 654.923 293.243 657.393 300.596ZM570.995 47.0606C573.39 47.859 575.736 48.8432 578.187 49.4002C580.05 49.8273 582.049 49.623 583.968 49.8644C585.299 50.0315 586.592 50.4833 588.338 50.9228C584.841 46.8316 579.846 45.6247 570.995 47.0606ZM633.347 137.394C634.931 134.04 632.672 127.739 630.023 126.347C625.387 123.914 616.45 125.74 614.048 130.84C618.115 127.473 621.878 126.167 626.792 127.25C632.301 128.469 632.344 132.691 633.347 137.394ZM448.439 613.302C453.1 616.873 457.117 619.949 461.084 622.988C462.149 621.713 462.273 620.747 460.298 619.887C458.961 619.305 456.95 618.092 456.9 617.077C456.665 612.404 453.688 613.017 450.705 613.302C450.222 613.345 449.733 613.308 448.446 613.308L448.439 613.302ZM523.504 138.205L522.545 138.608C523.535 140.681 523.993 143.516 525.633 144.642C528.097 146.338 531.327 147.062 534.336 147.755C535.771 148.084 537.436 147.397 538.996 147.168C539.021 146.889 539.046 146.617 539.07 146.338C532.739 145.713 526.5 144.933 523.504 138.199V138.205ZM288.153 978.047C286.946 982.095 286.983 982.244 289.366 982.832C291.384 983.327 294.244 981.495 294.695 979.347C294.788 978.902 294.751 978.276 294.497 977.942C292.412 975.219 290.375 979.304 288.153 978.047ZM797.545 460.201C797.192 460.455 796.833 460.709 796.48 460.969C800.15 465.939 803.815 470.909 807.485 475.873C804.656 470.308 802.973 463.946 797.545 460.201ZM692.951 278.45C692.709 283.278 694.04 285.865 696.899 286.366C697.395 281.737 696.553 279.979 692.951 278.45ZM575.705 263.268C573.019 261.232 571.088 259.758 568.587 257.864V263.831C570.692 263.664 572.821 263.497 575.705 263.268ZM617.001 65.5607C619.21 64.5642 621.203 63.6729 623.19 62.7754C623.215 62.565 623.246 62.3546 623.271 62.1503C620.541 61.847 617.818 61.5438 614.277 61.1538C615.59 63.2768 616.27 64.3785 617.001 65.5607ZM555.15 287.487C557.193 285.803 558.907 284.386 560.783 282.845C557.923 282.566 555.775 282.356 553.442 282.133C553.9 283.563 554.408 285.147 555.157 287.487H555.15ZM463.665 60.6463C461.48 62.4845 459.71 63.9638 457.841 65.5421C460.795 67.3948 462.737 65.7628 463.665 60.6463ZM663.879 112.817C661.447 111.121 661.428 109.233 657.207 115.422C660.147 116.759 661.824 114.611 663.879 112.817ZM758.682 464.695C755.333 466.205 751.979 467.715 748.556 469.262C750.691 470.822 756.002 468.594 758.682 464.695ZM416.799 92.0759C418.47 91.5725 420.296 89.7198 422.277 86.5179C420.036 85.837 416.973 88.777 416.799 92.0759ZM697.593 790.157C697.333 790.472 697.066 790.788 696.806 791.104C700.136 793.852 703.46 796.6 706.79 799.354L707.545 798.444C704.228 795.684 700.91 792.923 697.593 790.163V790.157ZM630.556 147.527C630.902 147.415 631.255 147.304 631.602 147.192C630.58 143.714 629.757 140.161 628.47 136.782C627.727 134.82 626.031 134.275 624.323 135.655C629.893 137.859 629.584 143.039 630.556 147.527ZM524.761 157.553C524.798 157.968 524.841 158.383 524.878 158.804C528.821 158.581 532.757 158.352 536.7 158.129C536.675 157.937 536.656 157.745 536.632 157.553H524.761ZM499.186 49.7964C499.118 49.6292 499.05 49.4559 498.982 49.2888C495.918 50.7 492.854 52.0988 489.815 53.5657C489.661 53.6399 489.766 54.2588 489.747 54.624C490.249 54.6054 490.843 54.7664 491.227 54.5436C493.9 53.0024 496.537 51.387 499.18 49.7964H499.186ZM474.719 49.9882C473.265 46.584 472.138 46.6026 468.53 50.6133C470.938 50.3719 472.819 50.1801 474.719 49.9882ZM794.475 423.913H797.836C798.275 422.254 800.324 420.422 797.198 419.568C796.245 421.091 795.409 422.421 794.475 423.913ZM721.019 503.781C721.391 503.83 721.762 503.88 722.14 503.929C722.263 502.239 722.294 500.531 722.536 498.86C722.734 497.48 723.186 496.137 723.52 494.775C723.118 494.701 722.715 494.62 722.307 494.546C721.88 497.628 721.446 500.704 721.019 503.787V503.781ZM744.161 374.664C742.391 369.026 740.584 367.132 738.956 368.53C740.572 370.437 742.187 372.337 744.161 374.664ZM402.57 116.635C401.58 118.826 400.726 120.708 399.871 122.59C402.36 121.395 404.631 120.101 402.57 116.635ZM450.098 70.6297C450.519 70.8897 450.946 71.1496 451.367 71.4034C452.487 69.3795 453.608 67.3556 454.722 65.3317C454.486 65.2079 454.257 65.0841 454.022 64.9603C452.71 66.8481 451.404 68.742 450.092 70.6297H450.098ZM419.442 171.888C419.572 171.578 419.702 171.269 419.832 170.959C417.752 170.062 415.673 169.165 413.593 168.261C413.451 168.595 413.315 168.929 413.172 169.264C415.264 170.136 417.35 171.009 419.442 171.882V171.888ZM452.339 293.163C452.543 293.237 452.741 293.311 452.945 293.385L453.898 291.219C453.731 291.145 453.558 291.064 453.391 290.99C453.044 291.714 452.692 292.438 452.345 293.163H452.339ZM578.831 383.8C579.004 383.639 579.177 383.484 579.351 383.323C578.917 382.964 578.484 382.599 578.051 382.24C577.94 382.364 577.822 382.487 577.711 382.611C578.082 383.007 578.46 383.404 578.831 383.8ZM450.562 71.453L450.086 71.0568C449.714 71.5582 449.343 72.0595 448.972 72.5608C449.095 72.6722 449.219 72.7775 449.343 72.8889C449.752 72.4123 450.154 71.9295 450.562 71.453ZM612.278 131.149C613.436 131.026 613.739 130.995 614.042 130.964C614.005 130.735 613.968 130.506 613.931 130.271C613.64 130.425 613.349 130.58 612.278 131.143V131.149ZM412.621 166.986C412.331 167.19 412.126 167.333 411.916 167.481C412.064 167.599 412.201 167.797 412.362 167.809C412.578 167.828 412.807 167.71 413.03 167.648C412.912 167.456 412.795 167.264 412.621 166.986Z" fill="black"/>
<path d="M450.872 691.808C443.413 691.337 435.949 690.873 427.99 690.372C429.24 687.327 430.181 685.037 430.892 683.297H441.841C441.885 682.969 441.928 682.641 441.971 682.307C438.79 681.861 435.609 681.416 431.982 680.914C433.727 676.854 435.503 672.713 437.286 668.56C439.427 670.789 442.132 671.005 443.989 669.681C445.394 668.678 446.576 665.812 446.155 664.234C445.716 662.581 443.234 661.474 441.377 659.901C442.25 658.094 443.512 655.476 444.305 653.842C446.787 653.192 448.514 652.747 450.24 652.295L450.172 652.369C451.2 651.304 453.217 650.06 453.063 649.219C452.679 647.176 451.28 645.326 450.29 643.401C450.005 643.487 449.72 643.58 449.436 643.667C450.265 642.305 451.008 640.882 451.961 639.613C452.339 639.111 453.199 638.666 453.812 638.703C459.283 639.037 464.748 639.415 470.195 639.984C470.839 640.052 471.965 641.562 471.816 642.101C470.832 645.554 469.644 648.959 468.357 652.313C466.778 656.429 465.175 660.545 463.337 664.55C459.432 673.041 455.353 681.453 451.367 689.901C451.076 690.527 450.971 691.232 450.779 691.901L450.884 691.795L450.872 691.808Z" fill="black"/>
<path d="M440.399 669.018C439.966 668.48 438.765 667.614 438.505 666.518C438.097 664.81 440.851 662.068 442.553 662.445C443.358 662.625 444.361 663.795 444.522 664.661C444.93 666.889 443.234 668.938 440.399 669.018Z" fill="black"/>
<path d="M450.247 652.294H445.896C445.821 648.525 448.557 648.11 451.905 646.996C451.194 649.2 450.686 650.784 450.172 652.362L450.24 652.294H450.247Z" fill="black"/>
<path d="M668.366 218.481C675.051 218.234 679.909 219.546 683.419 225.222C687.033 231.064 684.78 236.554 683.809 242.41C686.476 229.659 683.066 220.827 668.366 218.481Z" fill="white"/>
<path d="M657.405 300.577C654.935 293.224 654.001 285.704 647.1 281.557C648.659 279.954 650.708 280.047 651.878 282.486C654.527 287.982 658.228 293.224 657.405 300.577Z" fill="white"/>
<path d="M633.359 137.37C632.357 132.666 632.313 128.445 626.805 127.225C621.897 126.136 618.127 127.442 614.061 130.815C616.456 125.715 625.4 123.889 630.036 126.322C632.685 127.714 634.944 134.015 633.359 137.37Z" fill="white"/>
<path d="M663.953 144.642C662.363 143.126 661.02 141.121 659.144 140.192C653.772 137.531 651.451 136.943 647.496 141.634C647.855 139.505 652.169 135.984 654.323 136.07C658.395 136.237 663.768 140.496 664.393 144.067C664.251 144.259 664.102 144.45 663.96 144.642H663.953Z" fill="white"/>
<path d="M523.516 138.18C526.512 144.908 532.757 145.694 539.082 146.32C539.058 146.598 539.033 146.87 539.008 147.149C537.448 147.378 535.777 148.065 534.348 147.737C531.34 147.044 528.103 146.319 525.645 144.624C524.005 143.497 523.547 140.662 522.557 138.589L523.516 138.187V138.18Z" fill="white"/>
<path d="M530.678 98.2776C526.976 98.4076 523.158 98.3271 520.818 101.96C519.834 103.489 519.11 105.191 518.002 107.32C517.129 103.638 519.165 101.478 521.059 99.4289C523.349 96.9593 527.416 96.6188 530.585 98.3704L530.678 98.2776Z" fill="white"/>
<path d="M530.585 98.3704C531.117 98.2095 531.656 98.0425 532.188 97.8816C532.318 98.0673 532.454 98.2529 532.584 98.4324C530.894 101.892 528.666 105.228 530.083 109.394C529.953 109.598 529.823 109.808 529.694 110.013C527.614 106.571 528.035 103.204 529.978 99.8684C530.269 99.3732 530.442 98.8099 530.665 98.2838L530.572 98.3766L530.585 98.3704Z" fill="white"/>
<path d="M630.568 147.489C629.596 143.002 629.906 137.822 624.335 135.618C626.043 134.238 627.739 134.782 628.482 136.744C629.769 140.124 630.593 143.677 631.614 147.155C631.267 147.266 630.914 147.378 630.568 147.489Z" fill="white"/>
<path d="M524.773 157.516H536.644C536.669 157.708 536.687 157.9 536.712 158.092C532.769 158.315 528.833 158.544 524.89 158.767C524.853 158.352 524.81 157.937 524.773 157.516Z" fill="white"/>
<path d="M460.911 119.217H471.402C471.383 119.625 471.365 120.034 471.346 120.442C467.694 121.599 464.142 121.191 460.682 119.371L460.905 119.217H460.911Z" fill="white"/>
<path d="M402.57 116.592C404.637 120.058 402.366 121.352 399.871 122.546C400.725 120.665 401.573 118.783 402.57 116.592Z" fill="white"/>
<path d="M450.098 70.5865C451.41 68.6987 452.716 66.8048 454.028 64.917C454.264 65.0408 454.493 65.1646 454.728 65.2883C453.608 67.3123 452.487 69.3362 451.373 71.3601C450.952 71.1002 450.525 70.8402 450.104 70.5865H450.098Z" fill="white"/>
<path d="M664.387 144.061C665.334 146.184 666.281 148.3 667.228 150.423C666.986 150.516 666.751 150.609 666.51 150.708C665.655 148.684 664.801 146.66 663.947 144.636C664.09 144.444 664.238 144.252 664.38 144.061H664.387Z" fill="white"/>
<path d="M532.188 97.8818C532.856 97.3866 533.531 96.8914 534.2 96.3962C534.305 96.5262 534.41 96.6625 534.515 96.7924C533.871 97.3371 533.228 97.8879 532.584 98.4326C532.454 98.2469 532.318 98.0613 532.188 97.8818Z" fill="white"/>
<path d="M459.401 118.808C458.782 118.511 458.163 118.22 457.544 117.923C457.649 117.718 457.754 117.508 457.859 117.304C458.509 117.663 459.159 118.022 459.803 118.387C459.66 118.523 459.53 118.665 459.394 118.808H459.401Z" fill="white"/>
<path d="M450.562 71.4096C450.154 71.8861 449.752 72.369 449.343 72.8455C449.219 72.7341 449.095 72.6289 448.972 72.5175C449.343 72.0161 449.714 71.5148 450.086 71.0134L450.562 71.4096Z" fill="white"/>
<path d="M558.48 390.459C558.678 390.664 558.876 390.868 559.068 391.072C558.746 391.258 558.424 391.444 558.103 391.629C558.226 391.239 558.35 390.849 558.474 390.459H558.48Z" fill="white"/>
<path d="M531.005 110.353C531.049 110.656 531.092 110.96 531.135 111.263C530.95 111.096 530.764 110.922 530.578 110.755C530.727 110.631 530.869 110.495 531.005 110.359V110.353Z" fill="white"/>
<path d="M460.688 119.371C460.261 119.185 459.828 118.993 459.401 118.808C459.531 118.665 459.667 118.523 459.809 118.387C460.174 118.665 460.54 118.944 460.911 119.223C460.917 119.223 460.694 119.371 460.694 119.371H460.688Z" fill="white"/>
<path d="M530.578 110.749C530.287 110.502 529.99 110.254 529.699 110.007C529.829 109.802 529.959 109.592 530.089 109.388C530.393 109.71 530.702 110.025 531.005 110.347C530.869 110.483 530.727 110.619 530.578 110.743V110.749Z" fill="white"/>
<path d="M612.278 131.106C613.343 130.543 613.634 130.388 613.931 130.233C613.968 130.462 614.005 130.691 614.042 130.927C613.739 130.958 613.436 130.989 612.278 131.112V131.106Z" fill="white"/>
<path d="M562.782 387.253C562.776 387.086 562.838 386.95 562.967 386.845C563.036 387.037 562.968 387.173 562.782 387.253Z" fill="white"/>
<path d="M495.745 435.803C496.005 440.606 492.792 439.491 490.54 440.209C481.912 442.951 472.949 442.252 464.142 443.044C462.081 443.23 459.382 443.013 459.388 440.506C459.388 437.975 462.081 438.155 464.117 438.105C471.588 437.926 479.071 437.839 486.535 437.43C489.617 437.263 492.662 436.366 495.745 435.796V435.803Z" fill="black"/>
<path d="M510.011 563.588C507.232 564.115 504.986 564.721 502.708 564.931C495.008 565.649 487.296 566.244 479.591 566.844C478.786 566.906 477.765 566.98 477.201 566.566C476.304 565.897 475.704 564.82 474.979 563.916C475.92 563.452 476.836 562.648 477.802 562.579C484.808 562.066 491.821 561.707 498.827 561.28C500.56 561.175 502.306 561.088 504.014 560.803C506.372 560.413 508.173 561.113 510.005 563.588H510.011Z" fill="black"/>
<path d="M631.855 575.732C617.985 572.842 604.121 569.945 590.25 567.048C590.312 566.751 590.374 566.454 590.436 566.157C604.684 567.209 618.381 570.923 632.016 574.958C631.96 575.218 631.911 575.472 631.855 575.732Z" fill="black"/>
<path d="M625.981 455.058C627.64 445.805 629.2 437.047 630.784 428.295C630.958 427.323 631.051 426.197 631.608 425.46C632.796 423.876 633.526 421.301 636.311 422.068C639.053 422.823 637.686 425.231 637.624 426.748C637.209 436.001 634.418 444.666 630.11 452.786C629.447 454.036 627.875 456.531 625.981 455.058Z" fill="black"/>
<path d="M709.185 546.32C714.434 546.593 714.552 546.63 716.093 541.61C718.773 532.877 724.566 526.811 731.616 521.259C737.13 516.915 742.862 513.597 749.627 512.161C762.915 509.345 775.306 511.326 785.506 520.783C791.671 526.502 795.818 533.502 796.239 542.464C797.043 559.782 789.647 572.706 775.511 581.878C767.229 587.251 757.871 587.795 748.085 586.861C736.239 585.734 727.722 579.823 720.667 570.886C720.147 570.224 718.834 569.951 717.869 569.914C715.009 569.815 712.138 569.84 709.278 569.982C707.694 570.063 705.998 570.186 704.574 570.805C698.936 573.244 694.343 572.501 690.042 568.119C683.487 561.441 683.797 553.958 689.169 547.49C691.279 544.952 694.436 543.052 697.456 541.548C703.274 538.658 705.688 539.815 709.191 546.314L709.185 546.32ZM729.27 543.077C728.075 540.948 729.053 539.432 730.972 539.153C735.515 538.497 739.984 538.522 743.276 542.712C746.767 547.15 747.473 555.202 742.924 558.402C739.08 561.107 734.395 562.815 732.643 567.884C733.355 568.763 734.252 569.871 734.84 570.595C735.985 570.094 737.18 569.066 738.096 569.27C739.693 569.629 740.485 570.991 740.293 572.897C740.206 573.733 740.745 574.946 741.413 575.466C742.701 576.475 744.279 577.106 745.065 577.533C746.798 576.512 748.085 575.194 749.416 575.144C750.487 575.107 751.613 576.599 752.721 577.416C752.065 577.991 751.403 578.567 750.741 579.142C759.09 582.386 773.462 578.827 781.595 568.695C791.015 556.954 791.275 543.504 783 530.055C777.931 521.81 762.463 513.529 748.011 518.4C734.32 523.011 727.772 532.264 726.466 543.937C727.333 543.671 728.168 543.417 729.282 543.077H729.27ZM723.873 547.614C720.815 548.233 717.009 549 712.955 549.817C713.908 554.23 714.811 558.414 715.814 563.044C720.357 561.936 724.485 560.933 728.323 559.999C726.844 555.889 725.439 551.965 723.879 547.614H723.873ZM728.075 546.395C728.62 550.931 729.127 555.109 729.685 559.739C731.671 558.674 733.503 557.424 735.521 556.675C738.275 555.654 739.08 553.469 738.498 551.185C736.87 544.804 734.976 543.108 728.069 546.401L728.075 546.395ZM703.312 550.931C703.312 553.469 703.157 555.92 703.342 558.346C703.689 562.865 706.326 565.086 710.225 564.35C711.475 564.115 712.707 563.781 714.149 563.44C711.457 559.46 708.863 555.462 710.826 550.065C708.306 550.356 706.016 550.622 703.305 550.931H703.312ZM700.198 551.587C696.806 551.272 693.39 553.543 692.796 556.452C692.195 559.392 695.098 562.691 699.573 564.022C697.716 559.739 697.803 555.598 700.198 551.587Z" fill="black"/>
<path d="M649.773 520.517C650.956 522.571 652.002 524.354 653.011 526.161C655.362 530.358 657.69 534.573 660.036 538.769C662.487 543.164 665.012 547.515 667.364 551.965C667.884 552.943 667.803 554.236 667.995 555.381C667.624 555.536 667.259 555.697 666.887 555.852C665.204 553.679 663.452 551.556 661.849 549.328C657.393 543.12 652.936 536.906 648.604 530.612C646.815 528.012 647.149 523.166 649.773 520.523V520.517Z" fill="black"/>
<path d="M442.139 176.264C442.615 174.432 442.56 172.581 443.457 171.64C445.469 169.518 447.697 167.258 450.302 166.089C457.259 162.975 464.123 164.801 470.678 167.785C471.421 168.125 471.891 170.081 471.699 171.139C471.557 171.938 470.22 172.928 469.279 173.095C464.841 173.893 460.335 174.283 455.91 175.131C453.403 175.614 450.983 176.635 448.582 177.551C444.93 178.938 444.949 178.987 442.145 176.264H442.139Z" fill="black"/>
<path d="M448.055 186.024C450.308 185.863 452.561 185.628 454.814 185.554C457.08 185.48 459.357 185.449 461.604 185.647C462.557 185.727 463.455 186.433 464.371 186.86C463.764 187.906 463.257 189.775 462.539 189.862C458.738 190.307 458.59 192.61 458.732 195.618C458.788 196.781 457.655 197.995 457.061 199.189C455.532 198.378 453.459 197.939 452.586 196.67C450.581 193.773 449.163 190.468 447.511 187.336C447.69 186.897 447.876 186.464 448.055 186.024Z" fill="black"/>
<path d="M530.931 185.82C531.606 188.42 532.07 190.221 532.689 192.616C531.519 192.152 530.777 191.997 530.189 191.601C527.02 189.466 527.051 189.453 525.089 192.752C524.6 193.575 523.975 194.312 522.966 195.705C522.155 191.329 522.403 187.974 524.067 184.712C525.776 181.358 528.134 178.771 532.219 177.96C533.067 178.641 534.459 179.544 535.536 180.733C535.951 181.191 535.988 182.75 535.617 183.029C534.076 184.18 532.318 185.028 530.931 185.82Z" fill="black"/>
<path d="M393.701 534.894C390.513 532.313 387.332 529.726 384.144 527.145C382.659 525.945 381.006 524.892 379.737 523.494C378.815 522.479 378.407 520.999 377.769 519.724C378.648 519.514 379.948 518.821 380.338 519.167C383.593 522.064 386.7 525.134 389.82 528.179C391.151 529.479 392.481 530.785 393.67 532.208C394.146 532.778 394.233 533.669 394.499 534.412C394.233 534.572 393.967 534.733 393.707 534.894H393.701Z" fill="black"/>
<path d="M402.632 537.148C405.603 534.158 408.79 535.786 411.569 535.229C411.563 536.064 411.804 537.513 411.507 537.637C409.502 538.454 407.41 539.233 405.281 539.487C404.569 539.574 403.665 538.107 402.625 537.141L402.632 537.148Z" fill="black"/>
<path d="M552.118 306.884C553.987 307.293 555.905 309.793 556.005 312.195C556.091 314.343 554.16 316.614 552.093 316.818C550.583 316.967 548.497 317.827 547.674 317.152C545.786 315.599 544.393 313.377 543.1 311.242C542.846 310.827 543.781 309.05 544.48 308.809C546.949 307.955 549.561 307.497 552.118 306.884ZM553.541 311.037C553.331 310.815 553.12 310.592 552.91 310.369C550.725 310.913 548.54 311.452 546.269 312.015C547.209 313.445 548.057 314.745 549.041 316.249C550.607 314.435 552.074 312.733 553.535 311.037H553.541Z" fill="black"/>
<path d="M773.443 563.991C774.359 564.981 775.09 565.774 775.851 566.603C772.874 571.325 768.461 573.368 763.305 574.309C753.86 576.036 745.74 573.3 738.678 567.073C737.867 566.362 735.738 565.384 738.071 563.812C744.527 572.786 761.331 577.731 773.437 563.991H773.443Z" fill="black"/>
<path d="M765.539 542.805C763.373 539.401 761.213 535.99 758.942 532.413C762.426 532.295 766.332 537.927 766.326 542.495C766.066 542.594 765.799 542.699 765.539 542.798V542.805Z" fill="black"/>
<path d="M766.474 537.476C765.323 535.223 764.165 532.97 763.014 530.717C763.41 530.531 763.813 530.339 764.209 530.154C765.255 532.456 766.307 534.758 767.353 537.061C767.062 537.203 766.765 537.339 766.474 537.482V537.476Z" fill="black"/>
</svg>
